<?xml version="1.0" encoding="UTF-8"?>
<svg xmlns="http://www.w3.org/2000/svg" version="1.1" viewBox="0 0 800 800">
  <defs>
    <style>
      .cls-1 {
        fill: #005b4b;
      }
    </style>
  </defs>
  <!-- Generator: Adobe Illustrator 28.7.5, SVG Export Plug-In . SVG Version: 1.2.0 Build 176)  -->
  <g>
    <g id="Layer_1">
      <g>
        <path class="cls-1" d="M483.5,800c26.7,0,50.1-23.3,50.1-50.1v-116.9h33.4c20.1,0,33.4-13.4,33.4-33.4v-334H199.5v334c0,20.1,13.4,33.4,33.4,33.4h33.4v116.9c0,26.7,23.3,50.1,50.1,50.1s50.1-23.3,50.1-50.1v-116.9h66.9v116.9c0,26.7,23.3,50.1,50.1,50.1Z"/>
        <path class="cls-1" d="M684,599.5c26.7,0,50.1-23.3,50.1-50.1v-233.9c0-26.6-23.3-50.1-50.1-50.1s-50.1,23.4-50.1,50.1v233.9c0,26.7,23.3,50.1,50.1,50.1Z"/>
        <path class="cls-1" d="M116,599.5c26.8,0,50.1-23.3,50.1-50.1v-233.9c0-26.6-23.3-50.1-50.1-50.1s-50.1,23.4-50.1,50.1v233.9c0,26.7,23.3,50.1,50.1,50.1Z"/>
        <path class="cls-1" d="M560.3,5c-6.7-6.7-16.6-6.7-23.3,0l-44.8,44.7-2.1,2.1c-26.6-13.3-56.4-20-89.6-20-.2,0-.3,0-.5,0h0c-.2,0-.3,0-.5,0-33.2,0-63,6.7-89.6,20l-2.1-2.1-44.8-44.7c-6.7-6.7-16.6-6.7-23.3,0-6.7,6.7-6.7,16.6,0,23.3l43.4,43.4c-14,9.3-26.7,20.8-37.7,33.8-26.4,31.3-43.2,72-45.5,116.1,0,.5,0,.9,0,1.4-.1,3-.2,6-.2,9.1h400.9c0-3,0-6-.2-9.1,0-.5,0-.9,0-1.4-2.3-44.1-19.1-84.8-45.5-116.1-11-13.1-23.7-24.5-37.7-33.8l43.4-43.4c6.7-6.7,6.7-16.6,0-23.3ZM316.4,173.7c-13.8,0-25-11.2-25-25s11.2-25,25-25,25,11.2,25,25-11.2,25-25,25ZM483.6,173.7c-13.8,0-25-11.2-25-25s11.2-25,25-25,25,11.2,25,25-11.2,25-25,25Z"/>
      </g>
    </g>
  </g>
</svg>