<?xml version="1.0" encoding="UTF-8"?>
<svg xmlns="http://www.w3.org/2000/svg" version="1.1" viewBox="0 0 512 512">
  <defs>
    <style>
      .cls-1 {
        fill: #005b4b;
      }
    </style>
  </defs>
  <!-- Generator: Adobe Illustrator 28.7.5, SVG Export Plug-In . SVG Version: 1.2.0 Build 176)  -->
  <g>
    <g id="Capa_1">
      <g id="_Group_2">
        <g id="_Group_3">
          <path id="_Path_" class="cls-1" d="M395.6,272.3c.5-39.9,21.4-76.7,55.4-97.6-21.5-30.8-56.3-49.6-93.8-50.7-39.5-4.1-77.8,23.6-97.9,23.6s-51.5-23.2-84.8-22.5c-43.9,1.4-83.8,25.8-105.2,64.1-45.5,78.7-11.6,194.4,32,258.1,21.8,31.2,47.3,66,80.6,64.7,32.6-1.3,44.8-20.8,84.2-20.8s50.4,20.8,84.4,20c35-.6,57-31.3,78.1-62.8,15.7-22.2,27.7-46.7,35.7-72.7-41.6-17.6-68.6-58.3-68.6-103.4Z"/>
          <path id="_Path_2" class="cls-1" d="M331.4,82.1c19.1-22.9,28.5-52.4,26.2-82.1-29.1,3.1-56.1,17-75.4,39-19.1,21.7-28.8,50.2-26.9,79,29.5.3,57.6-13,76.1-36Z"/>
        </g>
      </g>
    </g>
  </g>
</svg>