<?xml version="1.0" encoding="UTF-8"?>
<svg id="a" data-name="Layer 1" xmlns="http://www.w3.org/2000/svg" width="491.27" height="342.6" viewBox="0 0 491.27 342.6">
  <defs>
    <style>
      .b {
        fill: #fff;
      }
    </style>
  </defs>
  <path class="b" d="M41.05,243.28c24.3,2.04,36.57,32,54.82,44.5,4.01,2.75,8.12,4.61,12.64,1.93h.01s.03-.02.03-.02h0s.05-.05.05-.05L398.23,0s.09.04.13.07c1.17.6,17.65,17.11,18.65,18.61.39.59,1.08.96.85,1.83L105.7,332.68c-37,23.04-72.42,2.87-97.6-29.21-20.39-25.98.37-62.94,32.95-60.2Z"/>
  <path class="b" d="M213.54,160.65l20.07-20.07L93.03,0s-.09.04-.13.07c-1.17.6-17.65,17.11-18.65,18.61-.39.59-1.08.96-.85,1.83l140.14,140.14Z"/>
  <path class="b" d="M450.22,243.28c-24.3,2.04-36.57,32-54.82,44.5-4.01,2.75-8.12,4.61-12.64,1.93h-.01s-.03-.02-.03-.02h0s-.05-.05-.05-.05l-104.93-104.93-20.07,20.07,127.92,127.91c37,23.04,72.42,2.87,97.6-29.21,20.39-25.98-.37-62.94-32.95-60.2Z"/>
</svg>