<?xml version="1.0" encoding="utf-8"?>
<!-- Generator: Adobe Illustrator 13.0.1, SVG Export Plug-In . SVG Version: 6.00 Build 14948)  -->
<!DOCTYPE svg PUBLIC "-//W3C//DTD SVG 1.1//EN" "http://www.w3.org/Graphics/SVG/1.1/DTD/svg11.dtd">
<svg version="1.1" id="Layer_1" xmlns="http://www.w3.org/2000/svg" xmlns:xlink="http://www.w3.org/1999/xlink" x="0px" y="0px"
	 width="155.401px" height="193.15px" viewBox="0 0 155.401 193.15" enable-background="new 0 0 155.401 193.15"
	 xml:space="preserve">
<path fill="#005E2C" d="M26.444,58.512c-3.199,0-6.598-2.023-6.598-4.797c0-2.941,3.656-5.562,8.035-5.562
	c3.207,0,4.113,3.008,1.543,3.008c-1.621,0-1.668-0.785-3.047-0.785c-1.961,0-4.637,1.164-4.637,3.148
	c0,1.98,2.152,2.945,4.637,2.945c6.836,0,9.977-13.035,10.316-16.188c0.117-1.074,0.066-1.086-0.457-1.406
	c-0.332-0.207-0.602-0.504-0.965-0.758c-0.609-0.43-0.512-0.52,0.078-0.52c0.582,0,4.355,0,4.824,0c0.461,0,0.582,0.121,0.711,0.488
	c0.121,0.367,2.625,9.223,2.746,9.676c0.117,0.453,0.383,0.453,0.781-0.074c0.395-0.523,7.344-9.473,7.594-9.738
	c0.242-0.262,0.359-0.352,0.809-0.352h5.457c0.562,0,0.637,0.109,0.172,0.375c-0.566,0.324-1.246,0.629-1.828,0.902
	c-0.477,0.223-0.789,0.699-0.98,1.406c-0.227,0.859-4.391,15.031-4.512,15.535s-0.066,0.703,0.219,0.961
	c0.363,0.336,0.883,0.766,1.125,1.008c0.453,0.441,0.402,0.598,0.148,0.598H45.44c-0.473,0-0.684-0.105,0.07-0.598
	c0.809-0.531,1.789-1.176,2.16-1.414c0.355-0.234,0.465-0.52,0.609-0.984c0.172-0.555,3.344-11.484,3.676-12.594
	c0.316-1.078,0.051-1.148-0.492-0.453c-0.539,0.695-7.594,9.398-7.836,9.688s-0.242,0.359-0.512,0.359h-1.031
	c-0.27,0-0.316-0.098-0.441-0.453c-0.168-0.48-2.156-7.102-2.301-7.605c-0.27-0.91-0.352-0.816-0.66,0
	C37.14,48.406,34.198,58.512,26.444,58.512"/>
<path fill="#005E2C" d="M96.429,73.016c0.234-0.629,0.367-0.668,0.516-0.168c0.09,0.301,1.594,3.949,1.695,4.234
	c0.074,0.215,0.102,0.273,0.262,0.273h1.625c0.164,0,0.164-0.043,0.312-0.215c0.145-0.172,3.52-4.309,3.844-4.727
	c0.453-0.582,0.527-0.305,0.391,0.168c-0.191,0.664-1.574,5.465-1.676,5.797c-0.086,0.273-0.203,0.48-0.383,0.656
	c-0.215,0.215-0.484,0.363-0.805,0.578c-0.453,0.301-0.434,0.453-0.148,0.453h4.773c0.223,0,0.199-0.164-0.07-0.43
	c-0.148-0.148-0.391-0.383-0.613-0.555c-0.184-0.141-0.141-0.254-0.062-0.551c0.07-0.305,2.57-8.621,2.707-9.133
	c0.117-0.426,0.305-0.711,0.59-0.844c0.348-0.164,0.746-0.355,1.094-0.543c0.422-0.223,0.23-0.406-0.105-0.406h-3.781
	c-0.266,0-0.336,0.055-0.484,0.215c-0.148,0.156-5.012,6.273-5.246,6.586c-0.238,0.316-0.398,0.32-0.465,0.047
	c-0.074-0.273-2.109-6.332-2.18-6.551c-0.078-0.219-0.148-0.297-0.426-0.293c-0.281,0-3.383-0.004-3.738-0.004
	s-0.461,0.113-0.102,0.371c0.219,0.156,1.293,0.746,1.496,0.867c0.316,0.191,0.344,0.383,0.168,0.887
	c-0.242,0.734-2.395,7.746-2.543,8.203c-0.148,0.453-0.27,0.793-0.562,0.957c-0.297,0.168-0.688,0.41-1.301,0.695
	c-0.594,0.281-0.609,0.48-0.34,0.48h4.652c0.242,0,0.242-0.145-0.027-0.406c-0.227-0.23-0.312-0.336-0.562-0.578
	c-0.23-0.227-0.34-0.477-0.195-0.863C94.886,77.836,96.276,73.422,96.429,73.016"/>
<path fill="#005E2C" d="M134.632,79.684c-0.07,0.215-0.348,0.383-0.512,0.383h-2.16c-0.156,0-0.289-0.07-0.363-0.285
	c-0.102-0.289-2.188-6.227-2.277-6.527c-0.152-0.5-0.441-0.406-0.613,0.191c-0.117,0.418-1.301,4.391-1.441,4.773
	c-0.148,0.387-0.039,0.637,0.191,0.867c0.246,0.238,0.332,0.348,0.566,0.574c0.27,0.262,0.27,0.406,0.023,0.406h-4.652
	c-0.273,0-0.254-0.199,0.34-0.477c0.609-0.293,1.008-0.531,1.297-0.699c0.301-0.164,0.52-0.5,0.664-0.957
	c0.148-0.457,2.297-7.469,2.547-8.203c0.172-0.504,0.051-0.695-0.27-0.887c-0.199-0.125-1.277-0.711-1.496-0.863
	c-0.363-0.262-0.254-0.375,0.102-0.375c0.352,0,3.23,0,3.512,0c0.277,0,0.355,0.074,0.426,0.297c0.07,0.219,2.746,8.555,2.816,8.828
	c0.078,0.27,0.352,0.328,0.469-0.043c0.098-0.312,2.211-6.867,2.324-7.223c0.148-0.43,0.062-0.621-0.145-0.766
	c-0.266-0.195-0.625-0.5-0.926-0.695c-0.371-0.238-0.301-0.406-0.055-0.406h4.578c0.445,0,0.457,0.254-0.043,0.5
	c-0.539,0.262-0.738,0.312-1.18,0.531c-0.305,0.148-0.441,0.43-0.633,0.98C137.577,70.012,134.71,79.469,134.632,79.684"/>
<path fill="#005E2C" d="M70.37,79.684c-0.07,0.215-0.352,0.383-0.516,0.383h-2.156c-0.156,0-0.289-0.07-0.367-0.285
	c-0.102-0.289-2.188-6.227-2.273-6.527c-0.152-0.5-0.441-0.406-0.613,0.191c-0.117,0.418-1.301,4.391-1.445,4.773
	c-0.145,0.387-0.039,0.637,0.199,0.867c0.238,0.238,0.324,0.348,0.559,0.574c0.27,0.262,0.27,0.406,0.027,0.406h-4.652
	c-0.27,0-0.254-0.199,0.344-0.477c0.609-0.293,1-0.531,1.297-0.699c0.293-0.164,0.512-0.5,0.66-0.957
	c0.145-0.457,2.293-7.469,2.543-8.203c0.172-0.504,0.047-0.695-0.27-0.887c-0.199-0.125-1.273-0.711-1.492-0.863
	c-0.367-0.262-0.25-0.375,0.102-0.375s3.23,0,3.516,0c0.273,0,0.348,0.074,0.418,0.297c0.078,0.219,2.75,8.555,2.82,8.828
	c0.074,0.27,0.352,0.328,0.469-0.043c0.102-0.312,2.207-6.867,2.328-7.223c0.148-0.43,0.059-0.621-0.145-0.766
	c-0.27-0.195-0.633-0.5-0.938-0.695c-0.363-0.238-0.293-0.406-0.043-0.406h4.574c0.441,0,0.457,0.254-0.047,0.5
	c-0.539,0.262-0.734,0.312-1.176,0.531c-0.305,0.148-0.441,0.43-0.637,0.98C73.315,70.012,70.444,79.469,70.37,79.684"/>
<path fill="#005E2C" d="M56.878,57.398c1.641,0,2.008-4.121,3.746-8.031c1.965-4.418,4.422-4.801,10.133-4.801
	c1.23,0,1.551,0.434,0.258,0.93c-0.512,0.195-0.754,0.445-0.98,1.25c-0.223,0.797-2.426,8.648-2.527,9.047
	c-0.098,0.398-0.117,0.676,0.074,0.914s0.543,0.527,0.781,0.789c0.637,0.707,0.789,0.887,0.297,0.887h-5.855
	c-0.504,0-0.539-0.215,0.246-0.84c0.395-0.312,0.895-0.691,1.227-0.98c0.242-0.219,0.371-0.383,0.438-0.754
	c0.062-0.363,0.602-2.109,0.652-2.445c0.051-0.332,0.082-0.398-0.328-0.398h-2.504c-0.418,0-0.539,0.094-0.738,0.625
	c-0.883,2.387-2.934,5.527-6.223,5.527c-1.438,0-1.828-0.699-1.828-1.305c0-0.609,0.578-1.012,1.391-1.012
	C55.804,56.801,56.069,57.398,56.878,57.398 M65.569,51.871c0.199,0,0.262-0.059,0.457-0.637c0.199-0.574,1.012-3.441,1.211-4.098
	c0.297-1,0.328-1.062-0.125-1.082c-0.633-0.02-2.203-0.156-3.086,1.418c-0.879,1.566-1.324,3.422-1.445,3.828
	c-0.129,0.41-0.168,0.57,0.09,0.57H65.569z"/>
<path fill="#005E2C" d="M76.007,79.434c1.641,0,2.016-4.098,3.75-7.715c1.969-4.082,4.426-4.438,10.133-4.438
	c1.234,0,1.555,0.398,0.258,0.855c-0.508,0.188-0.75,0.418-0.98,1.156c-0.223,0.742-2.426,8.008-2.527,8.375
	c-0.098,0.371-0.215,0.719,0.02,0.914c0.23,0.191,0.535,0.535,0.781,0.766c0.59,0.551,0.516,0.719,0.219,0.719h-5.484
	c-0.5,0-0.461-0.168,0.27-0.734c0.387-0.301,0.621-0.543,0.883-0.77c0.289-0.254,0.457-0.535,0.52-0.879
	c0.066-0.336,0.609-1.953,0.656-2.266c0.051-0.309,0.078-0.367-0.328-0.367h-2.5c-0.422,0-0.547,0.09-0.742,0.578
	c-0.883,2.207-2.938,5.398-6.23,5.398c-1.438,0-1.828-0.652-1.828-1.215s0.578-0.93,1.395-0.93
	C74.94,78.883,75.202,79.434,76.007,79.434 M84.706,74.039c0.195,0,0.258-0.055,0.457-0.586c0.195-0.535,1.008-3.191,1.207-3.797
	c0.305-0.926,0.332-0.984-0.121-1c-0.637-0.023-2.203-0.145-3.082,1.312c-0.883,1.453-1.332,3.164-1.453,3.543
	c-0.129,0.375-0.168,0.527,0.09,0.527H84.706z"/>
<path fill="#005E2C" d="M82.644,49.141c0.168-0.52,0.684-2.238,0.973-3.195c0.277-0.895,0.039-1.027-0.781-0.352
	c-0.48,0.395-0.945,0.477-1.91,0.125c-0.957-0.348-1.422-0.574-2.539-0.574s-2.734,0.672-3.68,1.98
	c-0.949,1.312-1.105,2.59,0.293,4.035c1.961,2.012,3.656,2.488,4.277,3.387c0.621,0.895,0.328,2.684-1.992,2.684
	c-2.312,0-3.133-1.531-3.328-2.715c-0.199-1.184-0.555-1.055-0.852-0.16c-0.293,0.895-0.902,2.875-1.109,3.453
	c-0.203,0.574,0.023,1.023,0.711,0.574c0.684-0.445,1.543-0.672,2.426-0.223c0.754,0.383,1.504,0.578,2.152,0.578
	c0.656,0,3.004-0.324,4.41-2.207c1.406-1.887,0.262-3.805-0.781-4.574c-1.047-0.77-3.332-2.047-3.789-3.039s0.391-2.559,2.02-2.559
	c2.387,0,2.773,1.883,2.812,2.367C82.022,49.59,82.413,49.844,82.644,49.141"/>
<path fill="#005E2C" d="M139.386,49.141c0.168-0.52,0.688-2.238,0.98-3.195c0.273-0.895,0.031-1.027-0.789-0.352
	c-0.48,0.395-0.941,0.477-1.902,0.125c-0.965-0.348-1.426-0.574-2.543-0.574s-2.738,0.672-3.68,1.98
	c-0.949,1.312-1.109,2.59,0.293,4.035c1.957,2.012,3.66,2.488,4.277,3.387c0.621,0.895,0.328,2.684-1.992,2.684
	c-2.316,0-3.137-1.531-3.332-2.715s-0.555-1.055-0.848-0.16c-0.297,0.895-0.906,2.875-1.109,3.453
	c-0.207,0.574,0.02,1.023,0.707,0.574c0.684-0.445,1.543-0.672,2.426-0.223c0.754,0.383,1.504,0.578,2.156,0.578
	s3.004-0.324,4.406-2.207c1.406-1.887,0.266-3.805-0.781-4.574s-3.332-2.047-3.789-3.039s0.395-2.559,2.027-2.559
	c2.379,0,2.77,1.883,2.809,2.367C138.765,49.59,139.159,49.844,139.386,49.141"/>
<path fill="#005E2C" d="M90.28,44.738c-1.207,0-4.211,1.074-4.211,3.859c0,1.547,2.484,1.473,2.484-0.383
	c0-0.668-0.523-1.906,0.98-1.906c0.773,0,1.012,0.254,1.629,0.512c0.516,0.219,0.566,0.34,0.391,0.891
	c-0.172,0.555-2.375,7.961-2.473,8.297c-0.094,0.336-0.121,0.457-0.371,0.648c-0.242,0.191-0.82,0.684-1.297,1.055
	c-0.598,0.457-0.605,0.672-0.266,0.672h5.973c0.32,0,0.477-0.102-0.121-0.719c-0.465-0.48-0.488-0.527-0.707-0.789
	c-0.188-0.227-0.27-0.363-0.172-0.77c0.094-0.406,2.055-7.461,2.176-7.891c0.129-0.43,0.148-0.574,0.59-0.574
	c0.66,0,2.227,0.117,3.23-0.387c1.004-0.5,2.281-1.484,2.281-2.422c0-1.156-1.812-1.176-2.082,0.121
	c-0.129,0.609-0.785,0.984-1.812,0.984C94.694,45.938,91.835,44.738,90.28,44.738"/>
<path fill="#005E2C" d="M145.288,67.281c-1.168,0-4.074,1.012-4.074,3.625c0,1.445,2.398,1.379,2.398-0.359
	c0-0.633-0.398-1.609,0.906-1.609c0.746,0,1.031,0.172,1.652,0.43c0.512,0.219,0.562,0.336,0.391,0.891s-2.133,7.098-2.23,7.438
	c-0.094,0.332-0.242,0.621-0.461,0.836c-0.266,0.258-0.793,0.641-1.082,0.867c-0.461,0.355-0.613,0.668-0.27,0.668h5.684
	c0.32,0,0.441-0.121-0.078-0.621c-0.254-0.254-0.484-0.504-0.703-0.699c-0.227-0.191-0.148-0.551-0.051-0.957
	c0.094-0.406,1.812-6.598,1.934-7.027s0.148-0.578,0.59-0.578c0.66,0,2.223,0.121,3.23-0.383c1.004-0.504,2.277-1.484,2.277-2.422
	c0-1.152-1.812-1.176-2.082,0.121c-0.125,0.609-0.781,0.984-1.812,0.984C149.694,68.484,146.788,67.281,145.288,67.281"/>
<path fill="#005E2C" d="M7.456,62.559c0.438,0.027,0.711,0.055,0.484,0.793C7.706,64.094,4.14,76.355,4.007,76.805
	c-0.125,0.449-0.414,0.957-0.715,1.246c-0.352,0.344-1.402,0.871-1.926,1.184c-0.68,0.406-0.957,0.832-0.5,0.832h7.641
	c0.246,0,0.297-0.164-0.25-0.668c-0.355-0.324-0.652-0.672-0.949-0.93C7.015,78.211,6.968,77.621,7.163,77
	c0.168-0.539,3.875-13.145,4.035-13.723c0.148-0.516,0.289-0.613,0.754-0.613h4.711c0.469,0,0.418,0.109,0.492,0.371
	c0.07,0.266,0.34,1.656,0.438,2.043c0.098,0.379,0.293,0.793,0.59,0.047c0.293-0.742,1.172-3.5,1.324-3.957
	c0.141-0.457,0.07-0.457-0.395-0.457H2.089c-0.391,0-0.539,0-0.68,0.336c-0.152,0.336-1.203,3.547-1.328,3.887
	c-0.242,0.691,0.078,0.91,0.688,0.117c0.613-0.789,1.52-1.848,1.742-2.109c0.219-0.262,0.441-0.383,0.809-0.383
	C3.683,62.559,7.085,62.535,7.456,62.559"/>
<path fill="#005E2C" d="M112.323,45.145c0.418,0,0.465,0.098,0.246,0.77c-0.184,0.562-0.605,1.793-0.832,2.336
	c-0.23,0.543-0.785,1.297-0.785-0.164c0-1.117-0.426-1.824-1.016-1.824h-2.512c-0.586,0-0.773,0.164-0.906,0.516
	c-0.145,0.379-0.883,2.828-1.004,3.215c-0.121,0.383-0.102,0.527,0.219,0.527c1.848,0,2.219-0.137,2.645-0.816
	c0.469-0.746,0.738-0.504,0.59,0.047c-0.223,0.832-0.883,3.262-1.004,3.645c-0.125,0.383-0.418,0.621-0.516-0.312
	c-0.102-0.98-0.168-1.293-1.984-1.293c-0.32,0-0.461,0.145-0.559,0.457c-0.102,0.309-1.152,3.715-1.281,4.051
	c-0.113,0.336-0.145,0.625,0.227,0.625h3.648c0.645,0,1.457-0.809,1.98-1.582c0.809-1.199,1.031-0.746,0.836,0.121
	c-0.195,0.859-0.66,2.254-0.785,2.586c-0.121,0.336-0.242,0.336-0.512,0.336H98.952c-0.516,0-0.508-0.316,0.117-0.84
	c0.27-0.219,0.91-0.691,1.328-1.148c0.223-0.238,0.391-0.434,0.535-0.934c0.148-0.508,2.328-7.918,2.402-8.277
	s0.051-0.504-0.172-0.672c-0.219-0.172-0.625-0.539-0.883-0.793c-0.426-0.422-0.488-0.574-0.191-0.574H112.323"/>
<path fill="#005E2C" d="M120.511,46.777c0.172-0.496,0.32-0.516,0.902-0.516h1.52c1.926,0,1.195,2.879-0.273,3.902
	c-0.266,0.188-0.473,0.371-0.848,0.371h-1.785c-0.566,0-0.613-0.18-0.469-0.641L120.511,46.777 M118.788,52.406
	c0.121-0.383,0.594-0.988,1.695-0.434c1.105,0.551,0.535,2.379,0.828,3.844c0.297,1.465,1.27,2.137,1.469,2.352
	s0.32,0.215,0.492,0.215h3.465c0.312,0,0.297-0.273-0.676-0.719c-2.605-1.199-1.934-4.461-2.379-5.156
	c-0.258-0.414-0.203-0.543,0.348-0.789c3.523-1.582,4.066-6.574-1.008-6.574h-6.945c-0.293,0-0.227,0.156,0.199,0.574
	c0.258,0.254,0.66,0.625,0.879,0.793c0.223,0.168,0.246,0.312,0.172,0.672c-0.07,0.359-2.25,7.77-2.402,8.273
	c-0.141,0.504-0.285,0.781-0.52,1.008c-0.242,0.242-0.812,0.719-1.297,1.129c-0.711,0.594-0.738,0.789-0.246,0.789h5.633
	c0.27,0,0.543-0.172,0.121-0.668c-0.309-0.367-0.48-0.77-0.684-1.105c-0.215-0.352-0.27-0.48-0.176-0.816L118.788,52.406z"/>
<path fill="#005E2C" d="M51.351,69.152c0.168-0.469,0.312-0.48,0.879-0.48h1.473c1.863,0,1.16,2.703-0.27,3.668
	c-0.254,0.176-0.457,0.344-0.82,0.344h-1.727c-0.555,0-0.602-0.164-0.457-0.602L51.351,69.152 M49.683,74.445
	c0.121-0.359,0.578-0.922,1.645-0.406c1.07,0.52,0.516,2.242,0.801,3.613c0.285,1.379,0.941,2.008,1.133,2.211
	c0.188,0.203,0.309,0.203,0.473,0.203h3.492c0.312,0,0.277-0.223-0.652-0.672c-1.887-0.926-1.066-3.676-2.141-4.855
	c-0.312-0.34-0.195-0.508,0.336-0.738c5.402-2.355,2.582-6.184-0.973-6.184H47.05c-0.285,0-0.223,0.152,0.195,0.547
	c0.246,0.234,0.637,0.582,0.852,0.738c0.215,0.16,0.238,0.297,0.168,0.633c-0.07,0.34-2.188,7.309-2.332,7.781
	c-0.141,0.473-0.289,0.809-0.516,1.023c-0.242,0.227-0.785,0.676-1.262,1.059c-0.648,0.523-0.605,0.668-0.223,0.668h5.23
	c0.258,0,0.367-0.145,0.07-0.504c-0.258-0.316-0.34-0.41-0.516-0.648c-0.242-0.312-0.266-0.449-0.168-0.766L49.683,74.445z"/>
<path fill="#005E2C" d="M33.659,78.707c-1.547,0-1.637-1.25-1.539-1.566c0,0,2.762-8.969,2.828-9.195s0.078-0.34-0.246-0.34h-4.391
	c-0.281,0-0.223,0.164,0.195,0.559c0.246,0.234,0.641,0.582,0.852,0.738c0.219,0.16,0.238,0.297,0.172,0.633
	c-0.074,0.34-1.699,5.812-1.836,6.285c-0.93,3.145,0.523,5.609,4.574,4.246c1.645-0.551,2.109-1.195,2.82-1.195
	s1.152,0.879,1.543,1.195c0.562,0.457,0.719,0.695,1.031,0c0.242-0.551,3.594-11.902,3.672-12.207
	c0.039-0.168,0.094-0.254-0.246-0.254h-4.672c-0.285,0-0.223,0.164,0.195,0.559c0.246,0.234,0.637,0.582,0.852,0.738
	c0.215,0.16,0.238,0.297,0.168,0.633c-0.07,0.34-1.691,5.949-1.824,6.422C37.448,77.238,35.214,78.707,33.659,78.707"/>
<path fill="#005E2C" d="M123.378,67.645c0.406,0,0.453,0.09,0.242,0.723c-0.184,0.527-0.598,1.68-0.82,2.188
	c-0.219,0.512-0.762,1.219-0.762-0.148c0-1.055-0.422-1.715-0.988-1.715h-2.465c-0.574,0-0.754,0.152-0.887,0.484
	c-0.145,0.359-0.863,2.656-0.98,3.016c-0.121,0.359-0.098,0.492,0.211,0.492c1.809,0,2.176-0.125,2.59-0.762
	c0.453-0.699,0.719-0.473,0.574,0.043c-0.219,0.781-0.863,3.062-0.98,3.422c-0.121,0.359-0.41,0.586-0.5-0.289
	c-0.102-0.926-0.168-1.219-1.945-1.219c-0.309,0-0.457,0.137-0.551,0.43c-0.094,0.289-1.211,3.707-1.332,4.02
	c-0.125,0.316-0.148,0.59,0.211,0.59h3.574c0.633,0,1.52-0.984,2.027-1.707c0.793-1.129,1.012-0.699,0.816,0.109
	c-0.191,0.809-0.648,2.117-0.766,2.434c-0.121,0.312-0.238,0.312-0.504,0.312h-10.191c-0.5,0-0.371-0.23,0.246-0.719
	c0.477-0.383,1.293-0.926,1.508-1.148c0.219-0.227,0.379-0.402,0.527-0.879c0.141-0.473,2.273-7.426,2.352-7.762
	c0.07-0.34,0.047-0.473-0.172-0.633c-0.215-0.156-0.609-0.504-0.859-0.742c-0.422-0.395-0.484-0.539-0.191-0.539H123.378"/>
<path fill="#005E2C" d="M26.823,72.246c0.336,3.633-4.184,8.277-8.148,8.277c-2.992,0-4.902-2.406-4.902-5.039
	c0-4.125,3.59-8.133,7.176-8.25C22.476,67.188,26.448,68.109,26.823,72.246 M21.437,68.891c-3.148,0-4.75,4.156-4.75,6.402
	c0,2.184,1.008,3.645,2.57,3.645c1.34,0,4.902-2.293,4.902-6.473C24.159,71.355,23.921,68.891,21.437,68.891"/>
<path fill="#005E2C" d="M124.909,184.66c0-2.07,1.684-3.75,3.762-3.75c2.07,0,3.746,1.68,3.746,3.75
	c0,2.086-1.676,3.766-3.746,3.766C126.593,188.426,124.909,186.746,124.909,184.66 M131.901,184.66c0-1.781-1.449-3.227-3.23-3.227
	c-1.793,0-3.234,1.445-3.234,3.227c0,1.793,1.441,3.246,3.234,3.246C130.452,187.906,131.901,186.453,131.901,184.66
	 M126.925,182.52h1.641c0.371,0,0.848,0,1.168,0.191c0.27,0.168,0.449,0.5,0.449,0.816c0,0.641-0.531,1.004-1.109,1.082
	c0.457,0.078,0.699,0.648,0.867,1.008c0.082,0.168,0.23,0.512,0.352,0.648c0.09,0.109,0.184,0.129,0.371,0.129v0.203h-0.281
	c-0.199,0-0.508,0.02-0.68-0.109c-0.191-0.141-0.359-0.582-0.438-0.781c-0.09-0.219-0.262-0.668-0.43-0.836
	c-0.148-0.164-0.383-0.145-0.586-0.145h-0.176v1.391c0.008,0.199,0.09,0.27,0.297,0.277l0.195,0.012v0.191h-1.641v-0.191
	l0.199-0.012c0.254-0.02,0.289-0.047,0.289-0.289v-3.133c0-0.242-0.117-0.242-0.312-0.25h-0.176V182.52z M128.315,184.488
	c0.625,0,1.195-0.137,1.195-0.891c0-0.598-0.379-0.867-0.945-0.867h-0.262c-0.102,0-0.141,0.008-0.18,0.098
	c-0.012,0.031-0.051,0.102-0.051,0.145v1.516H128.315z"/>
<path fill="#005E2C" d="M5.386,141.543c-0.109-1.09-0.18-2.336-0.152-3.809c0.109-6.945,1.152-12.27,3.184-16.285
	c1.414-2.809,2.641-7.164,2.965-10.594c0.102-1.035,0.086-3.191,0.082-4.484l-0.008-0.773c0-1.918,1.859-2.594,2.562-2.848
	l3.582-1.148l0.777-2.113c0.355-0.945,1.488-1.902,3.156-1.781c1.438,0.102,61.328,1.828,63.445,1.828
	c2.105,0,3.281,1.801,4.32,3.391c1.078,1.648,2.012,3.07,3.719,3.07c1.098,0,1.59-0.844,2.445-2.773
	c0.504-1.121,1.027-2.285,1.906-3.199c2.895-3.012,7.453-3.168,10.609-0.367c1.738,1.547,4.426,0.883,6.84-1.691
	c1.879-2.012,4.258-2.074,5.992-2.117c0.312-0.008,0.609-0.016,0.887-0.035c1.188-0.074,1.492-0.473,2.672-2.707
	c1.73-3.281,6.168-7.598,8.207-8.797c1.004-0.594,2.336-1.227,3.676-0.867c0.844,0.223,1.539,0.797,2.055,1.711
	c0.211,0.359,0.371,0.711,0.5,1.074c0.746,1.641,0.777,2.383,0.82,3.734l0.016,0.367c0.047,1.082,0.297,1.84,0.719,2.191
	c0.32,0.266,0.852,0.703,1.398,5.285c0.023,0.172,0.496,4.184,0.266,5.199c-0.191,0.859-0.863,1.727-2.078,3.297l-1.082,1.41
	c-1.145,1.52-1.191,3.059-1.168,6.117c0.016,2.488-0.551,4.328-2.176,7.031c-0.266,0.441-0.535,0.812-0.793,1.168
	c-0.895,1.242-1.664,2.309-1.844,6.191c-0.121,2.801,0.336,5.133,0.816,7.605c0.414,2.078,0.828,4.23,0.961,6.844l0.105,2.035
	c0.246,4.395,0.406,7.293-0.66,10.637c-1.703,5.336-4.184,8.75-10.613,14.609c-1.703,1.551-3,3.824-0.984,9.922
	c0.805,2.41-1.102,8.918-3.047,11.672c-0.746,1.062-1.504,1.586-2.305,1.605c-1.523,0.035-2.809-0.449-3.836-1.434
	c-2.578-2.5-2.645-7.586-2.668-10.031c-0.008-0.266-0.012-0.52-0.016-0.715c-0.098-2.812-1.219-5.191-3.082-6.535
	c-4.465-3.199-9.918-2.391-12.781-0.004c-2.184,1.824-3.398,1.57-5.832,0.508l-0.109-0.047c-1.668-0.734-3.746-1.645-8.098-0.719
	c-3.316,0.703-5.703,1.98-7.988,4.266c-2.582,2.586-3.391,3.895-4.141,8.195c-0.168,0.973-0.996,3.027-2.902,3.824
	c-1.711,0.719-3.773,0.266-6.129-1.352c-0.703-0.484-1.25-0.832-1.883-1.238c-0.93-0.594-2.078-1.324-4.184-2.781l-0.574-0.398
	c-1.895-1.324-3.039-2.121-6.211-2.219c-3.449-0.102-6.359-2.363-8.926-4.355c-0.641-0.496-1.246-0.961-1.84-1.391
	c-2.859-2.047-6.02-2.762-9.07-3.453c-1.641-0.371-3.34-0.758-4.98-1.34c-9.293-3.309-12.879-13.203-13.758-16.156
	C7.104,152.262,5.847,146.504,5.386,141.543z"/>
<path fill="#CB0032" d="M107.007,1.258c-1.496-0.473-2.559-1.496-6.184,0.949c-3.625,2.441-3.707,3.148-5.207,2.754
	c-1.379-0.363-2.438-0.234-5.273,1.023c-2.133,0.949-5.441,1.422-5.68,3.863c-0.234,2.441-0.391,5.516-0.703,7.961
	c-0.32,2.441-3.789,8.117-4.023,11.031c1.738-0.707,3.23-1.18,5.281-1.496c2.051-0.312,1.812-1.574,5.438-1.262
	c3.176,0.277,4.488,1.578,7.016,0.078c2.516-1.496,5.395-4.41,9.336-3.625V1.258"/>
<path fill="#005E2C" d="M110.038,38.984V1.18c0-0.707-0.703-1.18-1.258-1.18c-0.547,0-2.008,1.098-2.008,1.887v37.098H110.038"/>
<path fill="#FAF400" d="M88.604,164.23c-1.781-0.379-3.234-1.043-8.141-1.195c-4.082-0.129-8.105,1.387-10.762,4.043
	c-3.074,3.074-4.035,6.414-4.582,10.801c-0.109,0.887-0.547,1.613-1.098,1.855c-0.398,0.168-0.871,0.062-1.398-0.32
	c-0.594-0.434-1.199-0.918-1.898-1.477c-1.266-1.016-2.832-2.273-5.148-3.871c-1.992-1.367-4.531-1.324-6.773-1.285
	c-1.082,0.02-2.109,0.043-2.758-0.117c-1.566-0.387-2.742-1.332-4.242-2.523c-1.105-0.891-2.367-1.895-4-2.844
	c-2.785-1.621-4.793-2.031-6.918-2.477c-1.832-0.383-3.727-0.773-6.465-2.051c-3.715-1.742-8.395-6.973-13.906-15.543
	c-1.926-2.992-2.551-4.773-2.473-9.445c0.102-6.512,1.043-11.438,2.883-15.066c1.559-3.09,2.898-7.855,3.25-11.59
	c0.117-1.184,0.09-4.77,0.09-4.77s0.078-0.738,0.719-0.969c-0.012,0-0.012,0,4.098-1.496c0,0,0.055,0.043,0.887-0.789
	c0,0,0.031,0.113,0.609-1.461c0,0,0.484-1.156,0.758-1.137c1.441,0.105,61.516,1.836,63.645,1.836c0.582,0,1.289,1.078,1.969,2.117
	c1.199,1.836,2.84,4.344,6.07,4.344c3.031,0,4.172-2.559,5.012-4.43c0.402-0.906,0.82-1.84,1.359-2.402
	c1.863-1.934,4.688-2.023,6.723-0.219c2.988,2.656,7.207,1.922,10.754-1.863c1.074-1.152,2.375-1.191,4.02-1.234
	c0.34-0.008,0.66-0.016,0.992-0.035c2.852-0.18,3.793-1.957,4.977-4.203c1.539-2.914,5.609-6.781,7.148-7.688
	c1.094-0.645,1.469-0.59,1.527-0.578c0.066,0.02,0.195,0.133,0.348,0.398c0.461,0.812,0.551,1.48,0.348,2.555
	c-0.363,1.871,0.102,3.531,1.379,4.934c0.574,0.629,0.812,0.891-1.277,3.055c-0.426,0.438-0.824,0.852-1.176,1.297
	c-1.438,1.844-2.246,4.531-2.465,8.211c-0.207,3.555-0.371,4.289-2.07,6.5c-1.484,1.914-2.555,3.301-2.82,9.125
	c-0.125,2.934,0.266,6.219,0.648,9.395c0.328,2.734,0.668,5.562,0.652,8.055c-0.031,4.918-0.574,8.77-1.758,12.488
	c-1.145,3.586-2.98,6.074-7.543,10.238c-2.809,2.555-4.098,5.508-1.84,12.324c1.082,3.258,1.383,6.633,0.695,7.859
	c-0.152,0.266-0.305,0.352-0.508,0.398c-0.258,0.059-0.438,0.016-0.66-0.152c-1.523-1.168-2.598-6.145-2.699-9.199
	c-0.148-4.492-2.68-6.816-4.566-8.168c-5.285-3.797-14.711-4.297-18.707-0.973C91.249,164.711,89.894,164.496,88.604,164.23z"/>
<path fill="#FFFFFF" stroke="#005E2C" stroke-width="3" d="M107.878,157.168c4.883,0,8.848-3.043,8.848-6.797
	s-3.965-6.797-8.848-6.797c-4.891,0-8.852,3.043-8.852,6.797S102.987,157.168,107.878,157.168z"/>
<path fill="none" stroke="#005E2C" stroke-width="3" d="M107.878,157.168c3.215,0,6.023-1.324,7.573-3.297
	c-1.55-1.973-4.358-3.297-7.573-3.297c-3.221,0-6.029,1.324-7.578,3.297C101.849,155.844,104.657,157.168,107.878,157.168z"/>
<rect x="106.772" y="85.586" fill="#005E2C" width="3.266" height="70.941"/>
<path fill="#FFFFFF" d="M18.308,161.152c-2.961-2.875-6.234-7.102-9.797-12.641c-0.238-0.363-0.457-0.723-0.664-1.074
	c0.555,2.988,1.238,5.828,1.848,7.879c0.676,2.27,3.055,8.914,8.613,12.914V161.152z"/>
<path fill="#FFFFFF" d="M35.999,169.012c-0.363-0.195-0.719-0.371-1.059-0.523v5.719c0.355,0.191,0.703,0.395,1.059,0.613V169.012z"
	/>
<path fill="#FFFFFF" d="M47.468,175.172c-0.727-0.008-1.402-0.055-1.992-0.203c-2.07-0.508-3.5-1.652-5.16-2.977
	c-0.617-0.492-1.246-0.996-1.949-1.5v6.023c0.137,0.109,0.273,0.219,0.418,0.328c2.492,1.93,5.066,3.926,7.992,4.016
	c0.238,0.008,0.473,0.02,0.691,0.035V175.172z"/>
<path fill="#FFFFFF" d="M66.542,180.621c-0.422,0.578-0.961,1.031-1.574,1.293c-1.191,0.52-2.52,0.312-3.746-0.578
	c-0.633-0.465-1.262-0.961-1.984-1.547c-1.234-0.988-2.766-2.215-5.012-3.762c-0.422-0.293-0.91-0.488-1.438-0.617v7.227
	c0.352,0.23,0.703,0.477,1.066,0.73l0.57,0.395c2.086,1.438,3.223,2.164,4.133,2.746c0.645,0.418,1.203,0.773,1.93,1.273
	c1.875,1.285,3.422,1.688,4.602,1.191c0.668-0.281,1.137-0.84,1.453-1.383V180.621z"/>
<path fill="#FFFFFF" d="M119.815,184.789c-0.332,0.234-0.707,0.41-1.129,0.508c-0.957,0.223-1.852,0.027-2.648-0.582
	c-0.195-0.148-0.383-0.324-0.559-0.52v7.047c0.484,0.211,1.031,0.312,1.645,0.297c0.059,0,0.41-0.055,1.023-0.922
	c0.617-0.871,1.191-2.102,1.668-3.426V184.789z"/>
<path fill="#FFFFFF" d="M90.378,167.055c-0.656-0.051-1.406-0.215-2.266-0.488l-0.234-0.074c-1.023-0.328-1.961-0.629-3.766-0.836
	v6.516c2.527,0,4.113,0.691,5.367,1.242l0.109,0.047c0.297,0.125,0.555,0.238,0.789,0.332V167.055z"/>
<path fill="#FFFFFF" d="M109.765,168.129c-0.309-0.273-0.629-0.52-0.934-0.738c-2.828-2.031-6.902-2.875-10.336-2.703v6.309
	c3.113-0.652,6.793-0.172,10,2.133c0.461,0.332,0.883,0.719,1.27,1.145V168.129z"/>
<path fill="#FFFFFF" d="M30.288,167.125c-0.555-0.113-1.121-0.234-1.738-0.383v5.262c0.578,0.133,1.16,0.273,1.738,0.434V167.125z"
	/>
<path fill="#FFFFFF" d="M138.491,98.27c-0.152,0.164-0.309,0.32-0.457,0.473c-0.109,0.117-0.223,0.234-0.328,0.348v7.496
	l0.785-1.027V98.27z"/>
<path fill="#FFFFFF" d="M124.659,160.965c-0.367,0.398-0.758,0.801-1.184,1.215v5.594c0.418-0.387,0.809-0.762,1.184-1.125V160.965z
	"/>
<path fill="#FFFFFF" d="M127.065,158.051c-0.371,0.523-0.777,1.047-1.223,1.586v5.836c0.43-0.441,0.836-0.871,1.223-1.289V158.051z"
	/>
<path fill="#FFFFFF" d="M33.28,167.855c-0.355-0.113-0.707-0.211-1.059-0.301v5.48c0.352,0.121,0.707,0.254,1.059,0.402V167.855z"/>
<path fill="#FFFFFF" d="M49.909,181.289c0.539,0.152,1.016,0.332,1.461,0.543v-6.637c-0.477-0.039-0.965-0.047-1.461-0.047V181.289z
	"/>
<path fill="#FFFFFF" d="M134.472,119.465c0.492-0.863,0.852-1.617,1.105-2.348V103.07c-0.266,1.051-0.43,2.27-0.512,3.664
	c-0.117,1.922-0.246,3.207-0.594,4.336V119.465z"/>
<path fill="#FFFFFF" d="M132.425,114.645c0.016-0.023,0.035-0.051,0.059-0.074c0.203-0.27,0.398-0.527,0.57-0.773v7.812
	c-0.223,0.32-0.438,0.656-0.629,1.043V114.645z"/>
</svg>
