<?xml version="1.0" encoding="UTF-8"?>
<svg id="a" data-name="Layer_1" xmlns="http://www.w3.org/2000/svg" width="2514.37" height="2495.05" viewBox="0 0 2514.37 2495.05">
  <defs>
    <style>
      .b {
        fill: #fff;
      }

      .c {
        fill: #006453;
      }
    </style>
  </defs>
  <path class="b" d="M2514.37,1248.22c-.89,698.08-555.21,1248-1256.81,1246.82C566.32,2493.89-1.21,1928.27,0,1241.71,1.2,559.64,573.08-1.37,1265.77,0c686.98,1.36,1249.47,563.68,1248.6,1248.22Z"/>
  <path class="c" d="M2381.36,780.62c-30.3-71.55-67.83-140.63-111.56-205.33-43.3-64.07-93.04-124.38-147.83-179.25-54.79-54.87-115.07-104.75-179.16-148.23-64.72-43.91-133.89-81.69-205.57-112.27-149.24-63.68-307.54-96.24-470.5-96.78-164.24-.51-324.08,30.96-475.06,93.65-72.5,30.1-142.52,67.41-208.11,110.89-64.95,43.05-126.11,92.51-181.76,146.99-55.66,54.49-106.25,114.43-150.37,178.17-44.56,64.37-82.89,133.15-113.93,204.42-64.64,148.44-97.69,305.83-98.24,467.79-.54,162.15,31.09,319.92,94.02,468.93,30.23,71.57,67.69,140.7,111.36,205.49,43.24,64.14,92.92,124.57,147.67,179.61,55.34,55.63,116.3,106.2,181.18,150.28,65.51,44.52,135.55,82.8,208.19,113.78,151.26,64.51,311.75,97.38,477,97.69.81,0,1.61,0,2.42,0,165.14,0,324.52-31.27,473.74-92.95,72.23-29.86,141.76-66.89,206.66-110.08,64.32-42.8,124.73-92.05,179.54-146.4,54.81-54.34,104.54-114.28,147.8-178.15,43.66-64.45,81.16-133.54,111.46-205.34,62.91-149.08,95.03-308.51,95.47-473.86.43-162.26-31.34-320.06-94.42-469.04ZM605.13,2206.06c-61.98-41.88-120.29-89.92-173.33-142.78-53.04-52.86-101.2-110.94-143.15-172.64-42.36-62.3-78.73-128.79-108.11-197.63-61.17-143.36-92.05-295.07-91.78-450.93.27-154.8,31.8-305.44,93.71-447.73,29.73-68.33,66.47-134.31,109.2-196.1,42.32-61.2,90.85-118.79,144.25-171.18,53.41-52.39,112.08-99.97,174.4-141.42,62.93-41.85,130.09-77.8,199.62-106.82,144.08-60.15,296.44-90.65,452.9-90.65.79,0,1.59,0,2.38,0,155.99.31,307.64,31.37,450.73,92.32,68.73,29.27,135.06,65.45,197.17,107.53,61.51,41.68,119.38,89.48,172.01,142.09,52.62,52.61,100.41,110.43,142.03,171.85,42.03,62.02,78.11,128.23,107.27,196.81,60.69,142.76,91.37,293.95,91.17,449.37-.2,158.76-30.87,311.83-91.16,454.96-58.31,138.45-141.95,262.29-248.59,368.08-106.65,105.8-231.37,188.66-370.7,246.28-143.42,59.31-296.65,89.37-455.49,89.37-.7,0-1.41,0-2.11,0-156.96-.26-309.63-31.46-453.79-92.73-69.22-29.42-136.05-65.78-198.63-108.07Z"/>
  <path class="c" d="M1253.72,1257.95c-363.15,0-726.3,0-1089.45,0-38.17,0-37.04.01-35.53-39.24,9.22-239.45,84.16-456.31,231.18-645.18,214.52-275.58,497.34-427.56,847.49-442.96,572.65-25.18,1068.16,380.51,1161.23,947.3,7.98,48.62,9.78,98.34,12.97,147.64,2.08,32.18.88,32.4-30.89,32.41-301.93.04-603.85.03-905.78.03-63.74,0-127.48,0-191.22,0ZM1211.85,1001.84c3.54,7.1,4.83,8.48,4.84,9.88.25,43.58.35,87.16.52,130.74q.14,35.21,34.78,35.25c35.41-.02,36.14-.55,36.17-34.24.09-88.01.26-176.01-.22-264.02-.07-12.93,6-29.96-15.57-34.09-34.71-6.65-56.75-.21-64.68,20.86-16.23,43.12-31.68,86.53-47.63,129.76-2.63,7.13-6.14,13.93-11.75,26.49-17.83-48.82-33.28-91.14-48.73-133.47-17.25-47.27-17.23-46.89-66.37-44.1-14.26.81-21.84,5.4-21.82,20.66.18,97.22-.18,194.45.72,291.67.06,6.69,7.76,17.61,13.88,19.26,42.7,11.51,56.39.53,56.4-42.72,0-28.5,0-56.99,0-85.49v-40.88c2.21-.26,4.42-.51,6.63-.77,9.56,25.52,19.63,50.87,28.49,76.64,5.65,16.43,15.04,24.25,33.23,23.99,17.51-.25,25.4-9.03,30.68-23.98,9.14-25.87,19.16-51.42,30.43-81.43ZM629.94,1006.21c2.42.43,4.84.85,7.25,1.28,0,46.63,1.37,93.32-.51,139.87-1.14,28.23,13.17,30.68,35.55,30.88,22.82.2,35.49-3.06,35.01-30.99-1.55-89.63-.34-179.31-.83-268.96-.07-12.78,6.31-29.83-16.22-33.11-36.43-5.31-54.43-.31-62.36,20.64-16.61,43.86-32.39,88.03-48.71,132-2.41,6.49-5.84,12.59-11.23,24.05-17.44-47.89-32.84-90.18-48.23-132.48-17.24-47.4-19.76-48.62-68.7-44.47-13.94,1.18-18.99,6.97-18.95,20.41.23,97.2.27,194.4,0,291.6-.04,15.28,6.93,21.24,21.4,20.72,7.53-.27,15.12-.51,22.61.11,19.63,1.62,27.03-7.56,26.77-26.65-.58-41.89-.22-83.79,0-125.69.03-5.71,1.48-11.42,2.27-17.12,13.75,24.88,23.8,49.64,32.34,74.92,5.62,16.63,15.09,24.26,33.18,24,17.33-.25,25.51-8.6,30.75-23.81,8.95-25.93,19.01-51.48,28.61-77.19ZM1531.24,1013.29c9.36-20.21,20.91-35.77,23.35-52.64,3.67-25.41,1.67-51.77.76-77.68-.86-24.54-13.11-37.07-37.82-37.5-47.69-.83-95.4-.11-143.11-.38-14.69-.08-21.28,6.22-21.25,21.08.2,97.08-.27,194.17.97,291.23.09,6.79,12,19.05,18.71,19.25,51.84,1.57,103.75,1.12,155.63.59,18.97-.19,35.11-10.51,35.05-29.2-.17-48.21,20.6-102.58-32.29-134.74ZM2028.51,1057.76c23.47-5.64,44.63-11.54,44.88-38.51.43-46.13.71-92.27-.04-138.39-.36-21.64-13.03-34.95-34.78-35.31-51.99-.86-104.03-1.06-155.99.51-6.93.21-19.27,12.16-19.36,18.79-1.27,97.29-.82,194.6-.96,291.9-.02,14.99,7.26,21.29,21.73,20.89,9.22-.26,18.46-.3,27.68.01,14.75.49,21.39-6.21,21.24-21.12-.25-26-.41-52.04.86-77.98.38-7.83,5.61-15.42,8.62-23.12,6.56,5.6,15.13,10.01,19.31,17.03,13.31,22.31,24.85,45.66,37.31,68.47,21.54,39.42,40.31,46.4,89.06,30.99-19.69-37.74-39.14-75-59.56-114.14ZM865.89,845.13c-23.49,0-46.98.32-70.46-.12-14.28-.27-22,4.72-21.96,20.2.2,97.31.15,194.61.01,291.92-.02,13.17,4.87,20.49,19.07,20.44,47.81-.18,95.64.54,143.42-.65,6.79-.17,17.59-7.75,19.33-13.93,10.28-36.54.07-49.08-37.52-49.32-13.42-.08-26.84.06-40.26,0-33.06-.12-33.14-.21-33.24-34.01q-.11-38.58,38.22-38.64c5.03,0,10.1-.43,15.09.03,21.33,1.97,30.51-6.57,29.57-28.89-1.23-29.15-1.9-30.51-37.43-30.86-48.48-.48-45.29,7.29-45.48-46.26,0-1.68.13-3.36,0-5.03-1.25-15.99,5.93-22.89,22.11-22.49,23.47.59,46.97-.1,70.46.06,22.38.16,19.79-15.96,19.55-30.04-.25-14.48,4.06-32.38-20.03-32.37-23.49.01-46.98,0-70.46-.06ZM1624.56,1010.26c0,47.79.36,95.59-.19,143.38-.19,16.86,5.87,24.42,23.42,24.19,45.27-.61,90.57-.82,135.82.08,21.84.44,24.81-11.68,23.94-28.9-.82-16.25,4.32-35.63-22.66-35.2-21.79.35-43.61-.6-65.39.03-16.61.48-24.39-5.17-24.2-23.1.62-59.06-2.94-48.79,47.27-49.73,6.7-.13,13.72.68,19.99-1.08,4.98-1.4,11.17-5.11,13.15-9.46,12.64-27.76-1.33-48.61-31.69-49.17-52.35-.98-47.96,10.86-48.72-50.49-.22-17.77,7.19-23.88,24.01-23.28,20.1.71,40.32-.97,60.34.48,22.92,1.66,29.04-8.68,28.24-29.79-.73-19.25-.5-34.59-27.33-33.56-42.7,1.64-85.54,1.46-128.26.01-22.96-.78-28.68,8.75-28.15,29.78,1.13,45.25.35,90.55.41,135.83Z"/>
  <path class="c" d="M1034.5,1523.17c-88.42,53.93-110.41,55.66-145.09,8.45-7.92,5.16-15.8,10.83-24.17,15.64-18.15,10.43-35.47,24-55.06,29.87-43.21,12.96-70.9,36.91-85.75,81.32-12.07,36.09-43.64,56.68-81.93,62.81-33.35,5.34-58.88-7.88-68.51-33.42-9.97-26.45,0-57.03,26.56-74.63,13.83-9.17,29.65-15.48,44.91-22.32,15.28-6.85,31.65-11.54,46.27-19.5,9.94-5.42,17.71-14.84,26.44-22.47-1.45-1.96-2.91-3.92-4.36-5.87-10.66,5.56-20.98,11.94-32.04,16.52-49.95,20.72-89.13-8.84-82.62-61.96,8.04-65.6,87.56-141.17,152.51-144.94,28.05-1.63,50.57,6.87,64.91,35.17-18.6,10.52-32.82,27.07-57.29,16.27-7.13-3.15-18.72-.89-26.41,2.77-32.85,15.61-57.55,40.61-73.32,73.16-4.08,8.42-1.14,20.25-1.43,30.51,10.02-1.45,23.31.66,29.47-4.99,23.28-21.34,47.15-43.16,65.2-68.74,16.02-22.71,27.83-7.47,42.22-2.67,18.27,6.09,13.02,17.57,8,29.94-9.31,22.96-17.99,46.18-24.2,71.39,59.5-25.66,114.16-56,144.99-116.18,4.58-8.95,8.73-18.14,12.66-27.39,16.03-37.67,19.5-39.41,65.35-29.59-3.57,11.03-6.2,22.17-10.7,32.5-13.73,31.5-28.79,62.43-41.85,94.2-2.57,6.26-.72,16.92,3.37,22.32,2.25,2.97,15.25,1.68,20.19-2,14.65-10.91,30.05-22.2,40.86-36.57,19.07-25.35,36.54-52.23,51.81-80.04,20.79-37.87,23.97-40.52,70.84-30.59-11.05,28.24-22.14,56.02-32.75,83.98-4.44,11.71-9.97,23.64-11.03,35.81-.83,9.6,1.43,24.07,7.79,28.46,6.8,4.69,21.89,3.49,30.07-1.05,30.48-16.93,55.22-39.95,69.21-73.41,21.86-52.28,67.41-84.49,115.06-83.09,29.47.87,51.87,14.36,58.5,35.24,7.51,23.63-.37,54.91-24.08,68.94-21.66,12.81-47.41,18.93-71.72,26.93-7.44,2.45-16.03,1.39-24.1,1.94-1.34,2.74-2.68,5.47-4.02,8.21,10.65,6.77,20.51,16.97,32.1,19.64,31.99,7.37,65.77,6.27,91.23-15.46,42.47-36.26,81.96-76.1,121.5-115.63,6.83-6.83,9.24-19.37,11.02-29.73,4.63-26.81,26.42-43.04,52.08-36.79,18.31,4.46,29.3,16.25,22.1,34.87-6.99,18.06-1.28,29.42,10.14,42.64,27.15,31.41,34.68,67.76,18.39,112.28,53.32-17.3,90.92-45.41,119.9-93.66-15.5-2.08-26.45-3.55-37.35-5.01,1.77-36.76,8.99-43.85,42.67-49.86,7.76-1.39,16.74-10,20.47-17.6,19.7-40.11,19.36-40.46,67.66-32.35-4.68,14.98-9.25,29.62-15.28,48.91,24.38,1.31,46.78,2.52,69.25,3.73-5.36,45.14-9.61,48.47-50.58,49.39-14.41.32-37.1-.46-41.52,7.41-12.77,22.71-20.05,49.21-25.01,75.07-1.12,5.81,15.03,19.54,24.95,21.69,12.06,2.61,28.17.42,38.58-6.05,26.05-16.16,51.39-34.22,74.15-54.69,22.16-19.93,26.49-22.01,44.18,1.46,3.64,4.83,4.63,16.85,1.24,20.97-41.86,50.94-92.12,87.86-161.29,90.29-36.38,1.27-66.95-7.77-78.13-44.81-45.31,14.61-88.74,32.1-133.83,42.18-44.94,10.05-90.99,9.13-134.21-18.37,16.33-21.18,27.77-41.06,59.71-30.91,27,8.57,54.58-7.53,64.96-30.8,9.87-22.13.63-49.13-26.28-70.16-12.45,13.69-24.65,28.16-37.97,41.53-26,26.1-51.01,53.52-79.34,76.88-49.35,40.68-107.43,44.48-166.66,28.63-18.34-4.91-34.16-19.25-55.19-31.67-49.24,26.85-105.14,76.37-158.43-4.92ZM1256.21,1439.92c1.39,3.05,2.77,6.1,4.16,9.15,18.3-6.02,37.05-11.03,54.61-18.75,4.61-2.03,8.9-13.66,7.13-18.68-1.61-4.56-11.82-8.84-18-8.52-24.28,1.23-38.17,16.82-47.89,36.8ZM690.72,1616.6c-23.72,11.16-41.31,18.26-57.49,27.76-4.92,2.89-5.97,12.39-8.79,18.86,7.12,2.91,14.96,9.38,21.25,8.12,24.75-4.98,36.76-23.15,45.02-54.73Z"/>
  <path class="b" d="M1211.85,1001.84c-11.27,30.01-21.3,55.56-30.43,81.43-5.28,14.95-13.17,23.72-30.68,23.98-18.19.26-27.58-7.56-33.23-23.99-8.85-25.77-18.93-51.11-28.49-76.64-2.21.26-4.42.51-6.63.77v40.88c0,28.5,0,56.99,0,85.49-.01,43.25-13.71,54.23-56.4,42.72-6.12-1.65-13.82-12.57-13.88-19.26-.9-97.22-.53-194.44-.72-291.67-.03-15.25,7.56-19.85,21.82-20.66,49.15-2.79,49.12-3.17,66.37,44.1,15.45,42.33,30.91,84.65,48.73,133.47,5.61-12.55,9.12-19.36,11.75-26.49,15.95-43.23,31.4-86.64,47.63-129.76,7.93-21.07,29.97-27.51,64.68-20.86,21.57,4.13,15.5,21.16,15.57,34.09.48,88,.31,176.01.22,264.02-.04,33.68-.76,34.22-36.17,34.24q-34.56.02-34.78-35.25c-.17-43.58-.27-87.16-.52-130.74,0-1.39-1.3-2.78-4.84-9.88Z"/>
  <path class="b" d="M629.94,1006.21c-9.6,25.71-19.66,51.26-28.61,77.19-5.25,15.21-13.42,23.56-30.75,23.81-18.09.26-27.56-7.37-33.18-24-8.54-25.28-18.59-50.04-32.34-74.92-.79,5.71-2.24,11.41-2.27,17.12-.22,41.9-.58,83.8,0,125.69.26,19.1-7.14,28.27-26.77,26.65-7.49-.62-15.08-.38-22.61-.11-14.47.52-21.44-5.45-21.4-20.72.28-97.2.23-194.4,0-291.6-.03-13.44,5.02-19.23,18.95-20.41,48.94-4.15,51.46-2.93,68.7,44.47,15.39,42.3,30.79,84.59,48.23,132.48,5.4-11.46,8.83-17.57,11.23-24.05,16.31-43.97,32.1-88.14,48.71-132,7.93-20.96,25.94-25.96,62.36-20.64,22.53,3.29,16.15,20.33,16.22,33.11.49,89.66-.72,179.33.83,268.96.48,27.93-12.2,31.19-35.01,30.99-22.38-.2-36.69-2.64-35.55-30.88,1.88-46.56.51-93.24.51-139.87-2.42-.43-4.84-.85-7.25-1.28Z"/>
  <path class="b" d="M1531.24,1013.29c52.88,32.16,32.12,86.53,32.29,134.74.07,18.69-16.08,29.01-35.05,29.2-51.88.53-103.79.98-155.63-.59-6.7-.2-18.62-12.46-18.71-19.25-1.24-97.07-.77-194.15-.97-291.23-.03-14.86,6.56-21.16,21.25-21.08,47.7.27,95.42-.45,143.11.38,24.72.43,36.97,12.96,37.82,37.5.91,25.91,2.91,52.27-.76,77.68-2.44,16.87-13.99,32.43-23.35,52.64ZM1424.26,1075.7q-.06,37.82,33.7,37.94,38.14.13,38.15-36.33.02-36.26-35.3-36.28-36.51-.02-36.56,34.66ZM1487.91,945.2c-.02-37.92-1.65-38.97-39.81-37.63-16.15.57-25.51,5.13-23.98,23.32.98,11.64-.45,23.51.73,35.11.5,4.89,3.81,11.73,7.79,13.66,29.88,14.5,55.28-1.68,55.27-34.47Z"/>
  <path class="b" d="M2028.51,1057.76c20.42,39.14,39.87,76.4,59.56,114.14-48.75,15.41-67.53,8.43-89.06-30.99-12.47-22.81-24.01-46.16-37.31-68.47-4.19-7.02-12.75-11.43-19.31-17.03-3.01,7.7-8.24,15.29-8.62,23.12-1.27,25.95-1.11,51.99-.86,77.98.15,14.91-6.49,21.61-21.24,21.12-9.22-.31-18.46-.27-27.68-.01-14.47.4-21.75-5.9-21.73-20.89.14-97.3-.31-194.61.96-291.9.09-6.64,12.43-18.58,19.36-18.79,51.96-1.57,103.99-1.37,155.99-.51,21.75.36,34.42,13.67,34.78,35.31.76,46.12.47,92.26.04,138.39-.25,26.97-21.41,32.87-44.88,38.51ZM1933.26,950.54c.51,40.77-7.86,39.27,40.62,40.79,24.24.76,33.91-7.06,31.07-31.27-1.36-11.57.61-23.56-.97-35.07-.75-5.5-5.96-14.5-9.69-14.78-18.15-1.35-37.33-3.23-54.25,1.65-5.29,1.52-4.7,23.54-6.77,36.18-.13.82-.02,1.67-.02,2.51Z"/>
  <path class="b" d="M865.89,845.16c23.49.03,46.98.04,70.46.03,24.09-.01,19.77,17.89,20.03,32.37.24,14.08,2.83,30.2-19.55,30.04-23.49-.16-46.99.53-70.46-.06-16.18-.41-23.35,6.5-22.11,22.49.13,1.67,0,3.35,0,5.03.19,53.54-3.01,45.78,45.48,46.26,35.53.35,36.2,1.72,37.43,30.86.94,22.33-8.24,30.86-29.57,28.89-4.99-.46-10.06-.04-15.09-.03q-38.34.06-38.22,38.64c.1,33.8.18,33.89,33.24,34.01,13.42.05,26.84-.09,40.26,0,37.58.23,47.8,12.78,37.52,49.32-1.74,6.18-12.55,13.77-19.33,13.93-47.78,1.18-95.61.47-143.42.65-14.2.05-19.09-7.26-19.07-20.44.13-97.31.19-194.61-.01-291.92-.03-15.48,7.68-20.47,21.96-20.2,23.48.44,46.97.12,70.46.15Z"/>
  <path class="b" d="M1624.53,1010.26c-.03-45.28.75-90.58-.38-135.83-.52-21.02,5.19-30.55,28.15-29.78,42.71,1.45,85.56,1.63,128.26-.01,26.83-1.03,26.6,14.31,27.33,33.56.8,21.11-5.32,31.45-28.24,29.79-20.02-1.45-40.24.24-60.34-.48-16.82-.6-24.23,5.52-24.01,23.28.75,61.35-3.64,49.51,48.72,50.49,30.36.57,44.32,21.42,31.69,49.17-1.98,4.35-8.17,8.06-13.15,9.46-6.27,1.77-13.29.95-19.99,1.08-50.21.95-46.65-9.33-47.27,49.73-.19,17.93,7.59,23.58,24.2,23.1,21.78-.63,43.6.32,65.39-.03,26.98-.44,21.84,18.95,22.66,35.2.87,17.22-2.1,29.34-23.94,28.9-45.26-.9-90.56-.69-135.82-.08-17.55.23-23.62-7.32-23.42-24.19.55-47.79.19-95.58.16-143.38Z"/>
  <path class="b" d="M1256.21,1439.92c9.73-19.98,23.61-35.57,47.89-36.8,6.18-.31,16.39,3.97,18,8.52,1.78,5.02-2.52,16.65-7.13,18.68-17.56,7.72-36.31,12.73-54.61,18.75-1.39-3.05-2.77-6.1-4.16-9.15Z"/>
  <path class="b" d="M690.72,1616.6c-8.27,31.58-20.27,49.76-45.02,54.73-6.28,1.26-14.12-5.2-21.25-8.12,2.82-6.47,3.86-15.97,8.79-18.86,16.18-9.5,33.76-16.59,57.49-27.76Z"/>
  <path class="c" d="M1424.26,1075.7q.05-34.68,36.56-34.66,35.31.02,35.3,36.28-.02,36.46-38.15,36.33-33.76-.12-33.7-37.94Z"/>
  <path class="c" d="M1487.91,945.2c.01,32.78-25.39,48.96-55.27,34.47-3.98-1.93-7.29-8.77-7.79-13.66-1.18-11.61.25-23.47-.73-35.11-1.53-18.19,7.83-22.75,23.98-23.32,38.16-1.35,39.79-.3,39.81,37.63Z"/>
  <path class="c" d="M1933.26,950.54c0-.84-.12-1.69.02-2.51,2.07-12.64,1.47-34.65,6.77-36.18,16.92-4.87,36.1-3,54.25-1.65,3.72.28,8.93,9.28,9.69,14.78,1.58,11.52-.39,23.5.97,35.07,2.85,24.21-6.83,32.03-31.07,31.27-48.48-1.52-40.11-.02-40.62-40.79Z"/>
</svg>