<?xml version="1.0" encoding="UTF-8"?>
<svg id="a" data-name="Layer_1" xmlns="http://www.w3.org/2000/svg" width="1786.42" height="342.6" viewBox="0 0 1786.42 342.6">
  
  <path class="b" d="M637.42,243.28c24.3,2.04,36.57,32,54.82,44.5,4.01,2.75,8.12,4.61,12.64,1.93h.01s.03-.02.03-.02h0s.05-.05.05-.05L994.61,0s.09.04.13.07c1.17.6,17.65,17.11,18.65,18.61.39.59,1.08.96.85,1.83l-312.17,312.17c-37,23.04-72.42,2.87-97.6-29.21-20.39-25.98.37-62.94,32.95-60.2Z"/>
  <path class="b" d="M809.91,160.65l20.07-20.07L689.41,0s-.09.04-.13.07c-1.17.6-17.65,17.11-18.65,18.61-.39.59-1.08.96-.85,1.83l140.14,140.14Z"/>
  <path class="b" d="M1046.59,243.28c-24.3,2.04-36.57,32-54.82,44.5-4.01,2.75-8.12,4.61-12.64,1.93h-.01s-.03-.02-.03-.02h0s-.05-.05-.05-.05l-104.93-104.93-20.07,20.07,127.92,127.91c37,23.04,72.42,2.87,97.6-29.21,20.39-25.98-.37-62.94-32.95-60.2Z"/>
  <g>
    <path class="b" d="M1250.82,262.7c1.92,0,3.59-.54,5.03-1.62,1.44-1.08,2.16-2.7,2.16-4.85V92.31c0-2.16-.72-3.65-2.16-4.49-1.44-.84-3.12-1.26-5.03-1.26v-6.47h67.22v6.47c-1.2,0-2.46.36-3.77,1.08-1.32.72-1.98,1.8-1.98,3.24,0,1.2.48,2.76,1.44,4.67.96,1.92,2.03,3.95,3.24,6.11l51.4,93.46,51.76-92.38c1.67-3.11,2.93-5.57,3.77-7.37.84-1.8,1.26-3.41,1.26-4.85,0-2.64-1.56-3.95-4.67-3.95v-6.47h66.5v6.47c-1.92,0-3.59.42-5.03,1.26-1.44.84-2.16,2.34-2.16,4.49v163.92c0,2.16.72,3.77,2.16,4.85,1.44,1.08,3.11,1.62,5.03,1.62v6.47h-56.44v-6.47c6.47,0,9.71-2.16,9.71-6.47v-119.34h-.72l-72.25,132.28h-1.08l-70.82-132.64h-.72v119.7c0,4.31,3.35,6.47,10.07,6.47v6.47h-53.92v-6.47Z"/>
    <path class="b" d="M1550.25,262.7c1.92,0,3.59-.54,5.03-1.62,1.44-1.08,2.16-2.7,2.16-4.85V92.31c0-2.16-.72-3.65-2.16-4.49-1.44-.84-3.12-1.26-5.03-1.26v-6.47h67.22v6.47c-1.2,0-2.46.36-3.77,1.08-1.32.72-1.98,1.8-1.98,3.24,0,1.2.48,2.76,1.44,4.67.96,1.92,2.03,3.95,3.24,6.11l51.4,93.46,51.76-92.38c1.67-3.11,2.93-5.57,3.77-7.37.84-1.8,1.26-3.41,1.26-4.85,0-2.64-1.56-3.95-4.67-3.95v-6.47h66.5v6.47c-1.92,0-3.59.42-5.03,1.26-1.44.84-2.16,2.34-2.16,4.49v163.92c0,2.16.72,3.77,2.16,4.85,1.44,1.08,3.11,1.62,5.03,1.62v6.47h-56.44v-6.47c6.47,0,9.71-2.16,9.71-6.47v-119.34h-.72l-72.25,132.28h-1.08l-70.82-132.64h-.72v119.7c0,4.31,3.35,6.47,10.07,6.47v6.47h-53.92v-6.47Z"/>
  </g>
  <g>
    <path class="b" d="M116.11,256.23c0,4.31,2.63,6.47,7.91,6.47v6.47h-55.36v-6.47c1.67,0,3.17-.54,4.49-1.62,1.31-1.08,1.98-2.7,1.98-4.85V113.16H15.82c-2.16,0-4.26.6-6.29,1.8-2.04,1.2-3.06,3.48-3.06,6.83H0v-50.33h6.47c0,3.36,1.02,5.63,3.06,6.83,2.03,1.2,4.13,1.8,6.29,1.8h159.6c2.16,0,4.25-.6,6.29-1.8,2.03-1.2,3.06-3.47,3.06-6.83h6.47v50.33h-6.47c0-3.35-1.02-5.63-3.06-6.83-2.04-1.2-4.13-1.8-6.29-1.8h-59.31v143.07Z"/>
    <path class="b" d="M436.03,243.29c-.72,0-1.38-.06-1.98-.18-.6-.12-1.26-.18-1.98-.18-1.44,0-4.85,1.44-10.24,4.31-5.39,2.88-12.22,6.11-20.49,9.71-8.27,3.59-17.68,6.71-28.22,9.35-10.55,2.64-21.57,3.95-33.07,3.95-15.1,0-29.6-1.92-43.5-5.75-13.9-3.83-26.19-9.76-36.85-17.79-10.67-8.03-19.11-18.03-25.34-30.02-6.23-11.98-9.35-26-9.35-42.06s3.11-29.77,9.35-41.88c6.23-12.1,14.68-22.23,25.34-30.38,10.66-8.14,22.94-14.26,36.85-18.33,13.9-4.07,28.4-6.11,43.5-6.11,12.22,0,23.3.96,33.25,2.88,9.94,1.92,18.63,3.95,26.06,6.11,7.43,2.16,13.3,4.2,17.61,6.11,4.31,1.92,6.95,2.88,7.91,2.88,1.2,0,2.21-.6,3.06-1.8.84-1.2,1.49-2.16,1.98-2.88l5.39,4.31-28.04,43.5-3.59-2.52c0-.72-.06-1.44-.18-2.16-.12-.72-.3-1.56-.54-2.52-.48-2.63-2.88-5.33-7.19-8.09-4.31-2.75-9.65-5.21-16-7.37-6.35-2.16-13.06-3.95-20.13-5.39-7.07-1.44-13.6-2.16-19.59-2.16-10.07,0-19.71,1.44-28.94,4.31-9.23,2.88-17.25,7.07-24.08,12.58-6.83,5.51-12.28,12.28-16.36,20.31-4.08,8.03-6.11,17.2-6.11,27.5s2.03,19.47,6.11,27.5c4.07,8.03,9.53,14.8,16.36,20.31,6.83,5.51,14.86,9.71,24.08,12.58,9.22,2.88,18.87,4.31,28.94,4.31,7.67,0,15.69-.9,24.08-2.7,8.39-1.8,16.05-4.07,23.01-6.83,6.95-2.75,12.76-5.87,17.43-9.35,4.67-3.47,7.01-6.77,7.01-9.89,0-1.67-.48-3.11-1.44-4.31l5.03-2.88,23.72,38.1-2.88,2.88Z"/>
  </g>
</svg>