<?xml version="1.0" encoding="UTF-8"?>
<svg id="a" data-name="Layer_1" xmlns="http://www.w3.org/2000/svg" width="378.87" height="212.5" viewBox="0 0 378.87 212.5">
  <defs>
    <style>
      .b {
        fill: #fff;
      }
    </style>
  </defs>
  <path class="b" d="M165.81,43.34c0,.78.48,1.17,1.43,1.17v1.17h-9.99v-1.17c.3,0,.57-.1.81-.29.24-.19.36-.49.36-.88v-25.83h-10.71c-.39,0-.77.11-1.14.32-.37.22-.55.63-.55,1.23h-1.17v-9.09h1.17c0,.61.18,1.02.55,1.23.37.22.75.32,1.14.32h28.82c.39,0,.77-.11,1.14-.32.37-.22.55-.63.55-1.23h1.17v9.09h-1.17c0-.61-.18-1.02-.55-1.23-.37-.22-.75-.32-1.14-.32h-10.71v25.83Z"/>
  <path class="b" d="M223.57,41c-.13,0-.25-.01-.36-.03-.11-.02-.23-.03-.36-.03-.26,0-.88.26-1.85.78-.97.52-2.21,1.1-3.7,1.75-1.49.65-3.19,1.21-5.09,1.69-1.9.48-3.89.71-5.97.71-2.73,0-5.34-.35-7.85-1.04-2.51-.69-4.73-1.76-6.65-3.21-1.93-1.45-3.45-3.25-4.58-5.42-1.13-2.16-1.69-4.69-1.69-7.59s.56-5.38,1.69-7.56c1.12-2.18,2.65-4.01,4.58-5.48,1.92-1.47,4.14-2.57,6.65-3.31,2.51-.74,5.13-1.1,7.85-1.1,2.21,0,4.21.17,6,.52,1.8.35,3.36.71,4.7,1.1,1.34.39,2.4.76,3.18,1.1.78.35,1.25.52,1.43.52.22,0,.4-.11.55-.32.15-.22.27-.39.36-.52l.97.78-5.06,7.85-.65-.45c0-.13-.01-.26-.03-.39-.02-.13-.05-.28-.1-.45-.09-.48-.52-.96-1.3-1.46-.78-.5-1.74-.94-2.89-1.33-1.15-.39-2.36-.71-3.63-.97-1.28-.26-2.46-.39-3.54-.39-1.82,0-3.56.26-5.22.78-1.67.52-3.12,1.28-4.35,2.27-1.23,1-2.22,2.22-2.95,3.67-.74,1.45-1.1,3.11-1.1,4.96s.37,3.52,1.1,4.96c.74,1.45,1.72,2.67,2.95,3.67,1.23,1,2.68,1.75,4.35,2.27,1.67.52,3.41.78,5.22.78,1.38,0,2.83-.16,4.35-.49,1.51-.32,2.9-.74,4.15-1.23,1.25-.5,2.3-1.06,3.15-1.69.84-.63,1.27-1.22,1.27-1.78,0-.3-.09-.56-.26-.78l.91-.52,4.28,6.88-.52.52Z"/>
  <path class="b" d="M136.11,211.21c.35,0,.65-.1.91-.29.26-.19.39-.49.39-.88v-29.59c0-.39-.13-.66-.39-.81-.26-.15-.56-.23-.91-.23v-1.17h12.14v1.17c-.22,0-.44.06-.68.19-.24.13-.36.32-.36.58,0,.22.09.5.26.84.17.35.37.71.58,1.1l9.28,16.87,9.35-16.68c.3-.56.53-1.01.68-1.33.15-.32.23-.62.23-.88,0-.48-.28-.71-.84-.71v-1.17h12.01v1.17c-.35,0-.65.08-.91.23-.26.15-.39.42-.39.81v29.59c0,.39.13.68.39.88.26.2.56.29.91.29v1.17h-10.19v-1.17c1.17,0,1.75-.39,1.75-1.17v-21.55h-.13l-13.05,23.88h-.19l-12.79-23.95h-.13v21.61c0,.78.61,1.17,1.82,1.17v1.17h-9.73v-1.17Z"/>
  <path class="b" d="M190.18,211.21c.35,0,.65-.1.91-.29.26-.19.39-.49.39-.88v-29.59c0-.39-.13-.66-.39-.81-.26-.15-.56-.23-.91-.23v-1.17h12.14v1.17c-.22,0-.44.06-.68.19-.24.13-.36.32-.36.58,0,.22.09.5.26.84.17.35.37.71.58,1.1l9.28,16.87,9.35-16.68c.3-.56.53-1.01.68-1.33.15-.32.23-.62.23-.88,0-.48-.28-.71-.84-.71v-1.17h12.01v1.17c-.35,0-.65.08-.91.23-.26.15-.39.42-.39.81v29.59c0,.39.13.68.39.88.26.2.56.29.91.29v1.17h-10.19v-1.17c1.17,0,1.75-.39,1.75-1.17v-21.55h-.13l-13.05,23.88h-.19l-12.79-23.95h-.13v21.61c0,.78.61,1.17,1.82,1.17v1.17h-9.73v-1.17Z"/>
  <g>
    <path class="b" d="M50.22,100.12c0-.48-.18-.83-.55-1.07-.37-.24-1.01-.36-1.91-.36h-21.03v8.05h12.72c.87,0,1.54-.12,2.01-.36.48-.24.71-.85.71-1.85h1.17v10.12h-1.17c0-.99-.24-1.63-.71-1.91-.48-.28-1.15-.42-2.01-.42h-12.72v8.96h21.68c.65,0,1.18-.15,1.59-.45.41-.3.62-.71.62-1.23h1.17v8.89h-1.17c0-.65-.21-1.02-.62-1.1-.41-.09-.94-.13-1.59-.13h-30.24v-1.17c.3,0,.57-.1.81-.29.24-.19.36-.49.36-.88v-29.46c0-.39-.12-.68-.36-.88-.24-.19-.51-.29-.81-.29v-1.17h29.59c.91,0,1.55-.14,1.91-.42.37-.28.55-.66.55-1.14h1.17v8.57h-1.17Z"/>
    <path class="b" d="M63.07,117.32c0,.17-.01.36-.03.55-.02.19-.03.4-.03.62,0,.65.41,1.24,1.23,1.78.82.54,1.81,1,2.95,1.36,1.15.37,2.29.66,3.44.88,1.15.22,2.04.32,2.69.32.61,0,1.35-.04,2.24-.13.89-.09,1.76-.27,2.63-.55.86-.28,1.6-.67,2.21-1.17.61-.5.91-1.16.91-1.98,0-.95-.53-1.64-1.59-2.08-1.06-.43-2.39-.77-3.99-1.01-1.6-.24-3.33-.48-5.19-.71-1.86-.24-3.59-.63-5.19-1.17-1.6-.54-2.93-1.32-3.99-2.34-1.06-1.02-1.59-2.46-1.59-4.32,0-2.77,1.15-4.97,3.44-6.62,2.29-1.64,5.52-2.47,9.67-2.47,2.03,0,3.77.16,5.22.49,1.45.32,2.67.68,3.67,1.07.99.39,1.81.75,2.43,1.07.63.32,1.09.49,1.4.49.35,0,.61-.05.78-.16.17-.11.39-.23.65-.36l.71.71-3.24,6.1-1.17-.39c-.04-.26-.09-.52-.13-.78-.04-.26-.24-.52-.58-.78-.87-.74-2.21-1.36-4.02-1.88-1.82-.52-3.85-.78-6.1-.78-.87,0-1.69.05-2.47.16-.78.11-1.47.29-2.08.55-.61.26-1.08.59-1.43,1.01-.35.41-.52.92-.52,1.53,0,.95.53,1.63,1.59,2.04,1.06.41,2.39.74,3.99.97,1.6.24,3.33.48,5.19.71,1.86.24,3.59.64,5.19,1.2,1.6.56,2.93,1.39,3.99,2.47,1.06,1.08,1.59,2.57,1.59,4.48s-.47,3.46-1.4,4.67c-.93,1.21-2.09,2.16-3.47,2.86-1.39.69-2.91,1.15-4.58,1.36-1.67.22-3.23.32-4.7.32s-2.93-.14-4.38-.42c-1.45-.28-2.77-.61-3.96-.97-1.19-.37-2.2-.71-3.02-1.04-.82-.32-1.32-.49-1.49-.49-.3,0-.56.13-.78.39l-.91-.65,2.99-7.27,1.23.32Z"/>
    <path class="b" d="M104.09,126.08c.22,0,.43-.07.65-.23.22-.15.32-.4.32-.75v-21.61h-8.44c-.35,0-.67.09-.97.26-.3.17-.45.45-.45.84h-1.17v-7.46h1.17c0,.61.15,1.02.45,1.23.3.22.63.32.97.32h23.1c.35,0,.67-.11.97-.32.3-.22.45-.63.45-1.23h1.17v7.46h-1.17c0-.39-.15-.67-.45-.84-.3-.17-.63-.26-.97-.26h-8.44v21.61c0,.65.39.97,1.17.97v1.17h-8.37v-1.17Z"/>
  </g>
  <g>
    <path class="b" d="M238.75,126.41c.43,0,.81-.12,1.14-.36.32-.24.49-.72.49-1.46v-21.68c-.3,0-.66.02-1.07.06-.41.04-.81.12-1.2.23-.39.11-.75.26-1.07.45-.32.19-.55.47-.68.81h-.78v-8.18h.78c0,.39.2.66.58.81.39.15.76.23,1.1.23.74,0,1.35-.23,1.85-.68.5-.45.75-1.01.75-1.65,0-.61-.14-.99-.42-1.17-.28-.17-.66-.3-1.14-.39v-.78h10.51v.78c-.52.09-.95.24-1.3.45-.35.22-.52.54-.52.97v29.72c0,.74.17,1.22.52,1.46.35.24.74.36,1.17.36v.78h-10.71v-.78Z"/>
    <path class="b" d="M271.07,117.13l.78.39c0,.22.03.48.1.78.07.3.18.56.36.78.43.56,1.02,1.05,1.75,1.46.74.41,1.53.75,2.37,1.01.84.26,1.7.44,2.56.55.86.11,1.64.16,2.34.16,6.75,0,10.34-3.4,10.77-10.19-1.82.91-3.63,1.69-5.45,2.34-1.82.65-3.72.97-5.71.97-1.56,0-3.16-.19-4.8-.58-1.64-.39-3.13-.99-4.45-1.82-1.32-.82-2.4-1.88-3.25-3.18s-1.27-2.86-1.27-4.67c0-2.21.49-4.09,1.46-5.65s2.24-2.84,3.8-3.86c1.56-1.02,3.3-1.76,5.22-2.24,1.92-.48,3.84-.71,5.74-.71,2.38,0,4.55.4,6.52,1.2,1.97.8,3.67,1.93,5.1,3.37,1.43,1.45,2.53,3.17,3.31,5.16.78,1.99,1.17,4.18,1.17,6.55,0,2.81-.44,5.35-1.33,7.63-.89,2.27-2.15,4.22-3.8,5.84-1.64,1.62-3.6,2.86-5.87,3.7-2.27.84-4.81,1.27-7.63,1.27-1.95,0-3.6-.14-4.96-.42-1.36-.28-2.5-.63-3.41-1.04-.91-.41-1.65-.78-2.21-1.1-.56-.32-1.02-.49-1.36-.49-.48,0-.89.13-1.23.39l-.52-.45,3.89-7.14ZM282.81,98.24c-1.04,0-2.06.1-3.05.29-1,.19-1.88.52-2.66.97-.78.45-1.4,1.06-1.85,1.82-.45.76-.68,1.7-.68,2.82s.23,2.07.68,2.82c.45.76,1.07,1.36,1.85,1.82.78.45,1.67.78,2.66.97.99.2,2.01.29,3.05.29s2.05-.1,3.05-.29c.99-.19,1.88-.52,2.66-.97.78-.45,1.4-1.06,1.85-1.82.45-.76.68-1.7.68-2.82s-.23-2.07-.68-2.82c-.45-.76-1.07-1.36-1.85-1.82-.78-.45-1.67-.78-2.66-.97-1-.2-2.01-.29-3.05-.29Z"/>
    <path class="b" d="M331.81,109.02c2.25.48,4.08,1.33,5.48,2.56,1.41,1.23,2.11,3.08,2.11,5.55,0,2.21-.6,3.99-1.78,5.35-1.19,1.36-2.65,2.42-4.38,3.18-1.73.76-3.58,1.23-5.55,1.43-1.97.19-3.75.29-5.35.29-1.69,0-3.45-.13-5.29-.39-1.84-.26-3.54-.77-5.1-1.53-1.56-.76-2.85-1.76-3.86-3.02-1.02-1.25-1.53-2.83-1.53-4.74,0-1.38.18-2.54.55-3.47.37-.93.9-1.72,1.59-2.37.69-.65,1.53-1.2,2.5-1.65.97-.45,2.04-.85,3.21-1.2v-.13c-1.73-.35-3.23-1.09-4.51-2.24-1.28-1.15-1.91-2.69-1.91-4.64s.48-3.66,1.43-4.87c.95-1.21,2.16-2.15,3.63-2.82,1.47-.67,3.07-1.11,4.8-1.33,1.73-.22,3.37-.32,4.93-.32s3.16.11,4.93.32c1.77.22,3.43.65,4.96,1.3,1.54.65,2.82,1.58,3.86,2.79,1.04,1.21,1.56,2.79,1.56,4.74,0,2.08-.58,3.66-1.75,4.74-1.17,1.08-2.68,1.88-4.54,2.4v-.06.13ZM322.99,111.48c-6.19,0-9.28,1.8-9.28,5.39s3.09,5.39,9.28,5.39,9.28-1.79,9.28-5.39-3.09-5.39-9.28-5.39ZM323.05,97.72c-2.86,0-4.89.32-6.1.97-1.21.65-1.82,1.73-1.82,3.25s.61,2.6,1.82,3.25c1.21.65,3.25.97,6.1.97s4.89-.32,6.1-.97c1.21-.65,1.82-1.73,1.82-3.25s-.61-2.6-1.82-3.25c-1.21-.65-3.25-.97-6.1-.97Z"/>
    <path class="b" d="M375.1,102.85l-.78-.26c-.09-.22-.15-.42-.2-.62-.04-.2-.15-.4-.32-.62-.43-.65-1.06-1.19-1.88-1.62-.82-.43-1.69-.78-2.6-1.04-.91-.26-1.78-.44-2.63-.55-.84-.11-1.53-.16-2.04-.16-3.29,0-5.87.83-7.76,2.5-1.88,1.67-2.89,4.19-3.02,7.56,2.03-1.08,3.96-1.9,5.78-2.47,1.82-.56,3.89-.84,6.23-.84,1.6,0,3.17.23,4.7.68,1.54.45,2.91,1.14,4.12,2.04,1.21.91,2.2,2.02,2.95,3.34.76,1.32,1.14,2.87,1.14,4.64,0,2.03-.5,3.81-1.49,5.32-1,1.51-2.25,2.77-3.76,3.76-1.51,1-3.2,1.72-5.06,2.17-1.86.45-3.68.68-5.45.68-2.6,0-4.91-.37-6.94-1.1-2.03-.74-3.76-1.83-5.19-3.28-1.43-1.45-2.52-3.21-3.28-5.29-.76-2.08-1.14-4.39-1.14-6.94s.45-5.01,1.36-7.24c.91-2.23,2.17-4.14,3.8-5.74,1.62-1.6,3.55-2.86,5.78-3.76,2.23-.91,4.64-1.36,7.24-1.36,2.08,0,3.81.15,5.19.45,1.38.3,2.55.65,3.5,1.04.99.39,1.78.74,2.37,1.04.58.3,1.05.45,1.4.45.26,0,.51-.02.75-.07.24-.04.4-.11.49-.19l.52.45-3.76,7.01ZM363.16,110.05c-2.47,0-4.46.54-5.97,1.62-1.52,1.08-2.27,2.53-2.27,4.35s.76,3.27,2.27,4.35c1.51,1.08,3.5,1.62,5.97,1.62s4.46-.54,5.97-1.62c1.51-1.08,2.27-2.53,2.27-4.35s-.76-3.27-2.27-4.35c-1.51-1.08-3.5-1.62-5.97-1.62Z"/>
  </g>
  <path class="b" d="M336.39,7.45c-.05-.32-.16-.61-.32-.84-.05-.08-.11-.17-.16-.26-.07-.12-.14-.24-.21-.33-.09-.12-.28-.39-.44-.6l-.19-.26c-.23-.32-.73-1.01-1.01-1.43-.11-.16-.22-.31-.33-.47l-1.17-1.65c-.59-.8-.63-.84-.76-1,0,0,0,0,0,0,0,0,0,0,0,0,0,0,0,0-.01,0,0,0-.02-.02-.02-.02-.53-.54-1.74-.86-2.77-.09-6.56,4.6-38.4,27.65-61.65,44.49-14.78,10.7-26.46,19.15-28.07,20.28l-.99.7c-.39.29-.39.79-.16,1.09l.11.16c.05.07.1.15.19.27l.09.12h0s.05.08.06.09c.03.04.06.09.09.14.05.07.09.13.14.2l.06.08c.04.05.07.11.11.15.06.08.12.17.18.25.07.11.14.21.22.32.06.08.12.16.17.24.07.1.13.2.21.29.08.1.15.21.22.31.07.1.14.2.21.3.12.16.22.31.33.47.12.18.25.36.38.53.06.08.12.16.17.25.07.1.13.19.2.29.06.08.11.15.16.23.06.08.11.16.17.24,0,0,.08.12.09.12l.17.24c.21.29.45.38.66.38.23,0,.42-.11.51-.16l.28-.19c.18-.12.36-.23.66-.45,1.41-1,15.29-10.46,31.37-21.42,23.06-15.71,51.75-35.27,60.13-41.09.78-.57,1.09-1.22.93-1.94Z"/>
  <path class="b" d="M74.18,190.51c-.07-.1-.11-.15-.18-.25-.04-.05-.06-.08-.09-.13-.15-.21-.27-.39-.4-.56-.14-.2-.27-.39-.41-.58-.25-.36-.23-.3-.55-.77-.18-.25-.36-.5-.53-.75-.16-.22-.31-.44-.46-.65-.16-.22-.05-.07-.2-.28-.06-.09-.12-.17-.18-.26-.08-.12-.16-.23-.24-.34-.03-.04-.04-.06-.08-.11-.03-.04-.06-.09-.09-.13-.08-.11-.13-.18-.2-.28-.06-.08-.1-.14-.21-.13-.09,0-.14.05-.24.11-.38.24-.74.48-1.1.71l4.09,5.69c.29-.23.58-.44.9-.69.12-.1.24-.18.28-.29.04-.1-.03-.18-.12-.31Z"/>
  <g>
    <path class="b" d="M66.83,187.49c-1.99,1.25-3.66,2.27-4.89,2.99-.19.11-.29.2-.39.27.06.08.12.17.18.25.1.14.19.28.29.41.04.05.07.1.11.16.03.04.06.08.09.12.09.12.17.25.26.37.06.09.12.17.18.26.15.2.29.42.44.62.14.2.28.4.42.6.16.22.32.45.48.68.27.37.52.74.78,1.1.14.19.27.39.41.58.12.17.24.35.37.53.03.04.06.09.09.13.06.09.13.18.19.27.08.12.17.24.25.35.1-.07.25-.17.38-.28,1-.8,2.34-1.82,4.59-3.53l-4.23-5.88Z"/>
    <path class="b" d="M71.6,192.96c.31-.24.64-.49.98-.75l-4.13-5.74c-.36.23-.71.45-1.05.67l4.2,5.83Z"/>
  </g>
  <path class="b" d="M66.03,197.07s-.04-.06-.06-.09c-.01-.01-.02-.03-.03-.04-.29-.43-.58-.85-.87-1.28-.22-.32-.44-.64-.65-.96-.18-.27-.37-.54-.55-.81-.39-.58-.78-1.15-1.17-1.73-.3-.44-.6-.88-.9-1.33-.04-.05-.07-.1-.11-.16-.17.11-.33.23-.5.34-4,2.72-8,5.43-12,8.15-.54.37-1.74,1.38-3.44.93-1.55-.41-2.74-1.57-4.45-3.39-.08-.08-.15-.16-.23-.25-3.28-3.56-8.37-9.11-12.29-13.25-2.51-2.66-8.81-7.97-11.35-9.5-.02-.01-.16-.12-.18-.13-.84-.5-1.85-.95-3.32-.97-.12,0-.25,0-.38,0-.14,0-.29.02-.43.04-1.26.17-2.76.91-4.27,2.06-1.97,1.5-3.98,3.72-5.57,6.31-.75,1.22-1.39,2.48-1.91,3.71-.61,1.47-1.03,2.92-1.22,4.25-.26,1.76-.18,3.08.26,4.48.01.04.09.28.1.33.05.12.07.2.1.28.05.12.07.18.14.34.07.18.21.47.28.59.76,1.42,1.69,2.94,3.77,4.5.05.04.1.07.15.1,2.4,1.63,9.58,5.43,12.93,7.02,5.22,2.48,10.12,4.22,15.52,5.53.14.03.28.06.42.09,3.37.7,6.53-.02,8.49-.61,2.67-.81,10.77-5.57,11.31-5.94,4-2.72,8-5.43,12-8.15.17-.11.33-.23.5-.34-.03-.04-.05-.07-.07-.11ZM16.56,178.08c.05-.1.16-.13.26-.09l7.97,3.85c.06.03.09.08.1.14.02.05.03.11,0,.16-.05.09-.16.13-.26.09l-7.97-3.85c-.06-.03-.09-.08-.09-.14-.02-.05-.03-.11,0-.16ZM15.67,179.9c.05-.1.16-.13.26-.09l11.95,5.78c.06.03.09.08.1.14.02.05.03.11,0,.16-.05.09-.16.13-.26.09l-11.95-5.78c-.06-.03-.09-.08-.09-.14-.02-.05-.03-.11,0-.16ZM14.79,181.73c.05-.09.16-.14.26-.09l15.96,7.73c.06.03.09.08.09.14.02.05.03.11,0,.16-.05.09-.16.13-.26.09l-15.96-7.73c-.06-.03-.09-.08-.09-.14-.02-.05-.03-.11,0-.16ZM13.91,183.55c.05-.1.16-.13.26-.09l21.28,10.3c.06.03.09.08.1.14.02.05.03.11,0,.16-.05.1-.16.13-.26.09l-21.28-10.3c-.06-.03-.09-.08-.1-.14-.02-.05-.03-.11,0-.16ZM32.88,208.52c-.05.09-.16.14-.26.09l-24.79-12c-.06-.03-.09-.08-.1-.14-.02-.05-.03-.11,0-.16.05-.1.16-.14.26-.09l24.79,12c.06.03.09.08.1.14.02.05.03.11,0,.16ZM33.76,206.7c-.05.09-.16.13-.26.09l-24.79-12c-.06-.03-.09-.08-.1-.14-.02-.05-.03-.11,0-.16.05-.09.16-.13.26-.09l24.79,12c.06.03.09.08.1.14.02.05.03.11,0,.16ZM34.64,204.87c-.05.1-.16.13-.26.09l-24.79-12c-.06-.03-.09-.08-.1-.14-.02-.05-.03-.11,0-.16.05-.1.16-.14.26-.09l24.79,12c.06.03.09.08.1.14.02.05.03.11,0,.16ZM35.52,203.05c-.05.1-.16.13-.26.09l-24.79-12c-.06-.03-.09-.08-.1-.14-.02-.05-.03-.11,0-.16.05-.09.16-.13.26-.09l24.79,12c.06.03.09.08.1.14.02.05.03.11,0,.16ZM36.41,201.23c-.05.09-.16.13-.26.09l-24.79-12c-.06-.03-.09-.08-.1-.14-.02-.05-.03-.11,0-.16.05-.09.16-.13.26-.09l24.79,12c.06.03.09.08.1.14.02.05.03.11,0,.16ZM37.29,199.41c-.05.1-.16.14-.26.09l-24.79-12c-.06-.03-.09-.08-.1-.14-.02-.05-.03-.11,0-.16.05-.09.16-.13.26-.09l24.79,12c.06.03.09.08.1.14.02.05.03.11,0,.16ZM38.17,197.58c-.05.1-.16.14-.26.09l-24.79-12c-.06-.03-.09-.08-.1-.14-.02-.05-.03-.11,0-.16.05-.1.16-.13.26-.09l24.79,12c.06.03.09.08.1.14.02.05.03.11,0,.16Z"/>
  <path class="b" d="M237.38,67.58c-55.95,39.46-111.3,78.51-167.24,117.98.04.05.07.1.11.16.06.09.13.18.19.27.03.04.05.07.08.11.02.03.04.06.06.09.07.09.13.19.2.28.05.07.1.14.15.21.13.18.25.36.38.54.13.18.26.36.38.55.15.21.29.42.44.63.23.33.49.65.7,1,.11.16.23.32.34.48.11.16.22.31.33.47.03.04.05.07.08.11.05.07.1.14.15.21.06.09.13.18.19.28,55.94-39.52,111.3-78.51,167.28-117.96l-3.83-5.4Z"/>
  <path class="b" d="M26.04,7.45c.05-.32.16-.61.32-.84.05-.08.11-.17.16-.26.07-.12.14-.24.21-.33.09-.12.28-.39.44-.6l.19-.26c.23-.32.73-1.01,1.01-1.43.11-.16.22-.31.33-.47l1.17-1.65c.59-.8.63-.84.76-1,0,0,0,0,0,0,0,0,0,0,0,0,0,0,0,0,.01,0,0,0,.02-.02.02-.02.53-.54,1.74-.86,2.77-.09,6.56,4.6,38.4,27.65,61.65,44.49,14.78,10.7,26.46,19.15,28.07,20.28l.99.7c.39.29.39.79.16,1.09l-.11.16c-.05.07-.1.15-.19.27l-.09.12h0s-.05.08-.06.09c-.03.04-.06.09-.09.14-.05.07-.09.13-.14.2l-.06.08c-.04.05-.07.11-.11.15-.06.08-.12.17-.18.25-.07.11-.14.21-.22.32-.06.08-.12.16-.17.24-.07.1-.13.2-.21.29-.08.1-.15.21-.22.31-.07.1-.14.2-.21.3-.12.16-.22.31-.33.47-.12.18-.25.36-.38.53-.06.08-.12.16-.17.25-.07.1-.13.19-.2.29-.06.08-.11.15-.16.23-.06.08-.11.16-.17.24,0,0-.08.12-.09.12l-.17.24c-.21.29-.45.37-.66.37-.23,0-.42-.11-.51-.16l-.28-.19c-.18-.12-.36-.23-.66-.45-1.41-1-15.29-10.46-31.37-21.42C64.05,34.76,35.35,15.21,26.97,9.39c-.78-.57-1.09-1.22-.93-1.94Z"/>
  <path class="b" d="M288.25,190.51c.07-.1.11-.15.18-.25.04-.05.06-.08.09-.13.15-.21.27-.39.4-.56.14-.2.27-.39.41-.58.25-.36.23-.3.55-.77.18-.25.36-.5.53-.75.16-.22.31-.44.46-.65.16-.22.05-.07.2-.28.06-.09.12-.17.18-.26.08-.12.16-.23.24-.34.03-.04.04-.06.08-.11.03-.04.06-.09.09-.13.08-.11.13-.18.2-.28.06-.08.1-.14.21-.13.09,0,.14.05.24.11.38.24.74.48,1.1.71l-4.09,5.69c-.29-.23-.58-.44-.9-.69-.12-.1-.24-.18-.28-.29-.04-.1.03-.18.12-.31Z"/>
  <g>
    <path class="b" d="M295.6,187.49c1.99,1.25,3.66,2.27,4.89,2.99.19.11.29.2.39.27-.06.08-.12.17-.18.25-.1.14-.19.28-.29.41-.04.05-.07.1-.11.16-.03.04-.06.08-.09.12-.09.12-.17.25-.26.37-.06.09-.12.17-.18.26-.15.2-.29.42-.44.62-.14.2-.28.4-.42.6-.16.22-.32.45-.48.68-.27.37-.52.74-.78,1.1-.14.19-.27.39-.41.58-.12.17-.24.35-.37.53-.03.04-.06.09-.09.13-.06.09-.13.18-.19.27-.08.12-.17.24-.25.35-.1-.07-.25-.17-.38-.28-1-.8-2.34-1.82-4.59-3.53l4.23-5.88Z"/>
    <path class="b" d="M290.83,192.96c-.31-.24-.64-.49-.98-.75l4.13-5.74c.36.23.71.45,1.05.67l-4.2,5.83Z"/>
  </g>
  <path class="b" d="M296.33,197.18c.17.11.33.23.5.34,4,2.72,8,5.43,12,8.15.54.37,8.64,5.12,11.31,5.94,1.96.6,5.12,1.31,8.49.61.14-.03.28-.05.42-.09,5.4-1.31,10.3-3.04,15.52-5.53,3.34-1.59,10.52-5.39,12.93-7.02.05-.03.1-.07.15-.1,2.08-1.57,3.01-3.08,3.77-4.5.06-.12.21-.41.28-.59.07-.16.09-.22.14-.34.03-.08.05-.16.1-.28.02-.04.09-.28.1-.33.44-1.39.52-2.71.26-4.48-.19-1.33-.62-2.77-1.22-4.25-.51-1.24-1.16-2.5-1.91-3.71-1.59-2.59-3.6-4.8-5.57-6.31-1.52-1.15-3.01-1.89-4.27-2.06-.15-.02-.29-.03-.43-.04-.13,0-.25,0-.38,0-1.47.02-2.48.47-3.32.97-.02.01-.16.12-.18.13-2.55,1.52-8.84,6.84-11.35,9.5-3.91,4.14-9.01,9.7-12.29,13.25-.08.08-.15.17-.23.25-1.71,1.82-2.9,2.98-4.45,3.39-1.7.45-2.9-.56-3.44-.93-4-2.72-8-5.43-12-8.15-.17-.11-.33-.22-.5-.34-.04.05-.07.1-.11.16-.3.44-.6.89-.9,1.33-.39.58-.78,1.15-1.17,1.73-.18.27-.37.54-.55.81-.22.32-.44.64-.65.96-.29.43-.58.85-.87,1.28,0,.01-.02.03-.03.04-.02.03-.04.06-.06.09-.02.04-.05.07-.07.11ZM345.87,178.24c0,.06-.04.12-.09.14l-7.97,3.85c-.1.05-.21,0-.26-.09-.03-.05-.02-.11,0-.16,0-.06.04-.12.1-.14l7.97-3.85c.09-.05.21,0,.26.09.03.05.02.11,0,.16ZM346.75,180.06c0,.06-.04.11-.09.14l-11.95,5.78c-.09.05-.21,0-.26-.09-.03-.05-.02-.11,0-.16,0-.06.04-.11.1-.14l11.95-5.78c.09-.05.21,0,.26.09.03.05.02.11,0,.16ZM347.63,181.89c0,.06-.04.11-.09.14l-15.96,7.73c-.09.05-.21,0-.26-.09-.03-.05-.02-.11,0-.16,0-.06.04-.11.09-.14l15.96-7.73c.09-.05.21,0,.26.09.03.05.02.11,0,.16ZM348.51,183.71c0,.06-.04.12-.1.14l-21.28,10.3c-.09.05-.21,0-.26-.09-.03-.05-.02-.11,0-.16,0-.06.04-.11.1-.14l21.28-10.3c.09-.05.21,0,.26.09.03.05.02.11,0,.16ZM329.55,208.36c0-.06.04-.12.1-.14l24.79-12c.1-.05.21,0,.26.09.03.05.02.11,0,.16,0,.06-.04.12-.1.14l-24.79,12c-.1.05-.21,0-.26-.09-.03-.05-.02-.11,0-.16ZM328.67,206.54c0-.06.04-.12.1-.14l24.79-12c.1-.05.21,0,.26.09.03.05.02.11,0,.16,0,.06-.04.12-.1.14l-24.79,12c-.1.05-.21,0-.26-.09-.03-.05-.02-.11,0-.16ZM327.79,204.71c0-.06.04-.11.1-.14l24.79-12c.1-.05.21,0,.26.09.03.05.02.11,0,.16,0,.06-.04.11-.1.14l-24.79,12c-.1.05-.21,0-.26-.09-.03-.05-.02-.11,0-.16ZM326.91,202.89c0-.06.04-.12.1-.14l24.79-12c.09-.05.21,0,.26.09.03.05.02.11,0,.16,0,.06-.04.11-.1.14l-24.79,12c-.09.05-.21,0-.26-.09-.03-.05-.02-.11,0-.16ZM326.03,201.07c0-.06.04-.12.1-.14l24.79-12c.09-.05.21,0,.26.09.03.05.02.11,0,.16,0,.06-.04.12-.1.14l-24.79,12c-.09.05-.21,0-.26-.09-.03-.05-.02-.11,0-.16ZM325.14,199.25c0-.06.04-.12.1-.14l24.79-12c.09-.05.21,0,.26.09.03.05.02.11,0,.16,0,.06-.04.12-.1.14l-24.79,12c-.09.05-.21,0-.26-.09-.03-.05-.02-.11,0-.16ZM324.26,197.42c0-.06.04-.12.1-.14l24.79-12c.09-.05.21,0,.26.09.03.05.02.11,0,.16,0,.06-.04.11-.1.14l-24.79,12c-.1.05-.21,0-.26-.09-.03-.05-.02-.11,0-.16Z"/>
  <path class="b" d="M125.05,67.58c55.95,39.46,111.3,78.51,167.24,117.98-.04.05-.07.1-.11.16-.06.09-.13.18-.19.27-.03.04-.05.07-.08.11-.02.03-.04.06-.06.09-.07.09-.13.19-.2.28-.05.07-.1.14-.15.21-.13.18-.25.36-.38.54-.13.18-.26.36-.38.55-.15.21-.29.42-.44.63-.23.33-.49.65-.7,1-.11.16-.23.32-.34.48-.11.16-.22.31-.33.47-.03.04-.05.07-.08.11-.05.07-.1.14-.15.21-.06.09-.13.18-.19.28-55.94-39.52-111.3-78.51-167.28-117.96l3.83-5.4Z"/>
</svg>