<?xml version="1.0" encoding="UTF-8"?>
<svg id="a" data-name="Layer 1" xmlns="http://www.w3.org/2000/svg" width="120.71" height="120.71" viewBox="0 0 120.71 120.71">
  <defs>
    <style>
      .b, .c {
        fill: #00205b;
      }

      .c {
        fill-rule: evenodd;
      }

      .d {
        fill: none;
        stroke: #00205b;
        stroke-miterlimit: 10;
        stroke-width: 3px;
      }
    </style>
  </defs>
  <g>
    <path class="b" d="M30.91,75.86v-.02c0-1.25-.92-2.3-2.21-2.3s-2.19,1.02-2.19,2.27v.02c0,1.25.92,2.29,2.21,2.29s2.19-1.02,2.19-2.27h0ZM24.83,75.86v-.02c0-2.08,1.64-3.78,3.89-3.78s3.87,1.68,3.87,3.76v.02c0,2.08-1.64,3.78-3.89,3.78s-3.87-1.68-3.87-3.76h0Z"/>
    <polygon class="b" points="34.23 72.19 39.79 72.19 39.79 73.65 35.84 73.65 35.84 75.21 39.32 75.21 39.32 76.67 35.84 76.67 35.84 79.49 34.23 79.49 34.23 72.19 34.23 72.19"/>
    <path class="b" d="M48.99,76.46l-.97-2.37-.97,2.37h1.94ZM47.3,72.16h1.48l3.13,7.36h-1.68l-.67-1.64h-3.09l-.67,1.64h-1.64l3.13-7.36h0Z"/>
    <polygon class="b" points="53.26 72.19 54.99 72.19 56.91 75.28 58.83 72.19 60.56 72.19 60.56 79.49 58.96 79.49 58.96 74.72 56.91 77.84 56.87 77.84 54.83 74.76 54.83 79.49 53.26 79.49 53.26 72.19 53.26 72.19"/>
    <polygon class="b" points="62.35 72.19 67.86 72.19 67.86 73.62 63.95 73.62 63.95 75.1 67.39 75.1 67.39 76.53 63.95 76.53 63.95 78.06 67.92 78.06 67.92 79.49 62.35 79.49 62.35 72.19 62.35 72.19"/>
    <path class="b" d="M72.79,75.74c.78,0,1.23-.42,1.23-1.03v-.02c0-.69-.48-1.04-1.26-1.04h-1.6v2.1h1.63ZM69.56,72.19h3.34c.93,0,1.65.26,2.13.74.41.41.63.98.63,1.67v.02c0,1.18-.64,1.92-1.56,2.26l1.78,2.61h-1.88l-1.57-2.34h-1.26v2.34h-1.61v-7.3h0Z"/>
    <polygon class="b" points="77.39 72.19 78.99 72.19 78.99 79.49 77.39 79.49 77.39 72.19 77.39 72.19"/>
    <path class="b" d="M80.71,75.86v-.02c0-2.08,1.57-3.78,3.81-3.78,1.38,0,2.2.46,2.88,1.13l-1.02,1.18c-.56-.51-1.14-.82-1.87-.82-1.23,0-2.12,1.02-2.12,2.27v.02c0,1.25.87,2.29,2.12,2.29.83,0,1.35-.33,1.92-.86l1.02,1.03c-.75.8-1.58,1.3-2.99,1.3-2.15,0-3.75-1.66-3.75-3.76h0v.02Z"/>
    <path class="b" d="M93.14,76.46l-.97-2.37-.97,2.37h1.94ZM91.45,72.16h1.48l3.13,7.36h-1.68l-.67-1.64h-3.09l-.67,1.64h-1.64l3.13-7.36h0Z"/>
    <path class="b" d="M72.15,56.86l2.41-.71v-3.03h-15.69v3.03l2.42.71c1.72.53,1.78.72,1.78,2.09v4.12c-.87.17-2.5.19-3.56.03-5.67-.83-7.24-5.01-7.24-9.39,0-2.46.83-4.7,2.71-6.51,1.34-1.3,3.4-2.47,6.52-2.36,1.36.05,2.93.7,3.47,1.08,1.55,1.08,1.92,2.36,2.33,3.92h4.02l-.02-6.17s-4.05-2.77-11.06-2.77c-5.56,0-16.51,2.32-16.51,13.19,0,6.68,5.61,11.89,15.36,12.39,6.72.34,11.28-1.64,11.28-1.64v-5.88c0-1.37.06-1.56,1.77-2.09"/>
    <path class="b" d="M33.99,52.44c-.44.4-1.43.89-2.23,1.09-2.2.56-5.02.34-5.12.34v-9.32c1.86,0,5.12-.28,7.21,1.22,1.03.74,1.63,1.92,1.66,3.44.03,1.07-.37,2.25-1.52,3.23M33.4,41.49c-1.17-.13-4.56-.16-4.56-.16h-13.8v3.03l2.32.71c1.88.61,1.88.79,1.88,2.17v13.13c0,1.38,0,1.47-1.87,2.06l-2.31.66v3.04h15.76v-3.04l-2.31-.66c-1.88-.6-1.88-.68-1.88-2.06v-3.17h3.74c3.43-.05,6.21-.27,8.69-1.67,2.36-1.34,3.66-3.82,3.66-6.41,0-4.18-3.3-7.01-9.31-7.62"/>
    <path class="b" d="M83.76,57.61c1.59-3.03,3.83-7.35,3.98-7.67.16.36,2.2,4.59,3.7,7.67h-7.68ZM103.7,62.49c-1.4-.52-1.72-.77-2.13-1.66l-9.79-19.49h-4.06l-10.95,19.86c-.4.75-.76.92-1.67,1.25l-2.49.76v2.9h12.16v-2.97l-2.7-.7c-.58-.14-.55-.53-.41-.78,0,0,.35-.67.88-1.68h10.17c.54,1.02.69,1.22.86,1.59.26.54-.24.78-.88.96l-2.43.67v2.91h15.6v-2.86s-2.14-.78-2.15-.78"/>
    <polygon class="b" points="95.98 41.72 95.23 41.72 95.23 41.33 97.14 41.33 97.14 41.72 96.4 41.72 96.4 43.69 95.98 43.69 95.98 41.72 95.98 41.72"/>
    <polygon class="b" points="97.58 41.33 98.03 41.33 98.75 42.45 99.46 41.33 99.91 41.33 99.91 43.69 99.49 43.69 99.49 42 98.75 43.11 98.73 43.11 97.99 42.01 97.99 43.69 97.58 43.69 97.58 41.33 97.58 41.33"/>
    <polygon class="b" points="51.67 91.76 50.61 92.02 50.34 90.93 52.07 90.41 52.98 90.41 52.98 96.5 51.67 96.5 51.67 91.76 51.67 91.76"/>
    <path class="b" d="M57.88,92.43v-.02c0-.54-.4-.92-1.06-.92s-1.03.38-1.03.91v.02c0,.54.4.91,1.05.91s1.04-.38,1.04-.9M54.61,95.89l.7-1.01c.44.35.81.52,1.32.52.74,0,1.14-.56,1.23-1.37-.29.25-.7.41-1.23.41-1.31,0-2.16-.73-2.16-1.95v-.02c0-1.22.94-2.12,2.3-2.12.81,0,1.29.2,1.74.66.43.43.72,1.09.72,2.28v.02c0,1.96-.92,3.3-2.64,3.3-.88,0-1.48-.29-1.98-.72"/>
    <polygon class="b" points="61.45 91.76 60.4 92.02 60.12 90.93 61.86 90.41 62.77 90.41 62.77 96.5 61.45 96.5 61.45 91.76 61.45 91.76"/>
    <path class="b" d="M67.68,94.57v-.02c0-.51-.4-.88-1.05-.88s-1.04.36-1.04.87v.02c0,.51.4.9,1.05.9s1.04-.37,1.04-.89M64.96,95.96c-.44-.44-.72-1.09-.72-2.29v-.02c0-1.86.85-3.3,2.65-3.3.82,0,1.36.24,1.89.67l-.7,1.03c-.4-.3-.72-.48-1.23-.48-.75,0-1.13.6-1.22,1.4.3-.2.66-.39,1.25-.39,1.2,0,2.12.67,2.12,1.92v.02c0,1.23-.99,2.09-2.3,2.09-.79,0-1.32-.22-1.74-.65"/>
    <path class="b" d="M86.98,90.33c-.75-.08-1.22-.09-2.84.21-1.4.31-2.2.62-2.68.88-.3-.43-2.89-3.84-5.28-7.03h-2.34l7.24,11.55.11.07c.1.06,1.07.61,3.83.55,1.73-.04,3.94-.48,4.06-.51,1.18-.31,1.86-2.67,2.1-3.67l.09-.36-.28-.23c-.06-.05-1.54-1.26-4-1.46h-.01Z"/>
    <path class="b" d="M32.37,90.33c.75-.08,1.22-.09,2.83.21,1.4.31,2.2.62,2.68.88.3-.43,2.89-3.84,5.28-7.03h2.34l-7.24,11.55-.11.07c-.1.06-1.07.61-3.83.55-1.73-.04-3.94-.48-4.06-.51-1.17-.31-1.86-2.67-2.1-3.67l-.09-.36.28-.23c.06-.05,1.53-1.26,4-1.46h.02Z"/>
    <path class="c" d="M63.57,19.44c-.8.06-1.17,1.01-1.02,1.94.91-.1,1.76-.26,2.53-.5-.08-.34-.23-.66-.44-.92-.23-.27-.58-.57-1.07-.53M55.86,19.48c-.43-.12-.84.1-1.07.31-.3.28-.51.68-.62,1.11.78.23,1.62.4,2.53.5.12-.84-.15-1.71-.84-1.91M59.57,19.43c-.65.05-1.16.28-1.53.65-.34.35-.57.83-.63,1.38,1.39.15,3.05.13,4.43,0-.06-.62-.3-1.1-.7-1.46-.33-.3-.93-.63-1.58-.59M65.36,24.46c-.02-.37-.12-.68-.31-.92-.17-.24-.42-.44-.79-.44-.6,0-.98.41-1.21.79-.27.44-.42.96-.39,1.55-.24.04-.5.11-.74.13-.02-.67-.3-1.18-.69-1.54-.38-.35-.92-.61-1.62-.61s-1.22.26-1.61.61c-.4.36-.67.87-.7,1.54-.26-.04-.51-.08-.74-.14.03-1.01-.36-1.8-1.01-2.17-.39-.23-.89-.19-1.19.07-.29.25-.45.63-.48,1.12-.04,0-1.04-.87-1.29-1.19h0c-.01-.14-.02-.29-.02-.44,0-3.88,3.16-7.03,7.03-7.03s7.03,3.16,7.03,7.03v.34c-.17.27-.53.8-1.29,1.31M64.95,25.96c-.25.37-.61.74-1.14.78-.26.02-.52-.09-.7-.25-.26-.24-.38-.59-.43-1.05.99-.21,1.89-.51,2.67-.95,0,0,.01,0,.01,0,.01.53-.13,1.06-.41,1.46M61.24,27.12c-.39.36-.91.62-1.62.62s-1.24-.26-1.62-.62c-.39-.36-.67-.86-.68-1.53,0-.02,0-.03.01-.03,1.38.23,3.23.22,4.6,0,0,.69-.29,1.18-.69,1.54M55.5,26.74c-.53,0-.92-.39-1.17-.75-.28-.41-.45-.9-.44-1.49v-.02c.78.43,1.68.74,2.67.96-.05.67-.39,1.3-1.06,1.31M59.62,14.38c-4.65,0-8.43,3.78-8.43,8.43s3.78,8.43,8.43,8.43,8.44-3.78,8.44-8.43-3.78-8.43-8.44-8.43"/>
    <path class="b" d="M48.27,36.82l-9-16.25s-1.19-.25-2.29.34c-1.12.6-1.5,1.73-1.5,1.73l9.87,15.7c.93-.58,1.91-1.09,2.92-1.53h0Z"/>
    <path class="b" d="M73.87,38.38l9.88-15.73s-.37-1.13-1.5-1.73c-1.1-.59-2.29-.34-2.29-.34l-9.02,16.28c1.57.68,2.57,1.29,2.92,1.52h.01Z"/>
  </g>
  <circle class="d" cx="60.36" cy="60.36" r="58.86"/>
</svg>