<?xml version="1.0" encoding="UTF-8"?>
<svg id="Layer_1" data-name="Layer 1" xmlns="http://www.w3.org/2000/svg" viewBox="0 0 318.2 100.65">
  <defs>
    <style>
      .cls-1 {
        fill: #cf9d38;
      }

      .cls-2 {
        fill: #015249;
      }
    </style>
  </defs>
  <path class="cls-2" d="M210.35,9.72c-4.49-2.64-7.7-.02-10.9,2.57-2.83,2.28-5.57,4.67-8.45,6.87-1.57,1.2-3.44,1.83-5.51,1.72-.25-.01-.74.44-.77.71-.09.99-.04,1.99-.04,2.99,0,6.92,0,13.84,0,20.76,0,1.71.03,1.73,1.76,1.73,6.52,0,13.04,0,19.56,0,1.73,0,1.78-.05,1.78-1.72,0-4.28,0-8.56,0-12.84,0-3.14-.69-3.96-3.76-4.5-.71-.12-1.43-.17-2.14-.26-.73-.09-1.19-.44-1.12-1.26.06-.8.44-1.27,1.28-1.26.36,0,.72-.01,1.08-.01,6.24,0,12.48,0,18.72,0,.36,0,.79-.11,1.06.05.42.25,1.03.68,1.03,1.04,0,.45-.43,1.05-.85,1.31-.39.25-1,.18-1.52.21-3.24.14-4.42,1.26-4.69,4.51-.03.4-.02.8-.02,1.2,0,10.56,0,21.12.01,31.68,0,.79.12,1.59.25,2.38.31,1.95,1.48,3.01,3.47,3.18.68.06,1.36.06,2.04.09.88.04,1.3.46,1.24,1.38-.06.94-.63,1.07-1.39,1.06-5.16-.02-10.32-.03-15.48-.03-1.6,0-3.2.05-4.8.09-.78.02-1.33-.22-1.37-1.12-.03-.86.28-1.38,1.21-1.44.84-.05,1.68-.09,2.5-.25,2.4-.46,3.21-1.41,3.24-3.85.04-3.44.02-6.88.02-10.32,0-1.64-.04-3.28,0-4.92.03-.99-.39-1.33-1.36-1.32-6.88.02-13.76.01-20.64.01-.7,0-1.21.07-1.2,1.04.07,4.96.07,9.92.09,14.88.01,3.12.86,4.09,4,4.55.47.07.95.16,1.43.17.98.02,1.32.53,1.29,1.46-.03.99-.67,1.02-1.41,1.02-6.68,0-13.36,0-20.04,0-.82,0-1.53-.03-1.53-1.16,0-1.12.68-1.29,1.58-1.32.84-.03,1.69-.05,2.5-.26,1.51-.38,2.56-1.25,2.67-2.97.11-1.83.4-3.65.4-5.47.03-17.88.02-35.76.02-53.64,0-.28,0-.56,0-.84-.05-3.44-1.22-4.69-4.63-4.98-.52-.04-1.03-.14-1.54-.2-.94-.11-1-.76-.96-1.49.05-.82.58-.91,1.26-.91,3.8,0,7.59.03,11.39-.04,1.23-.02,1.88.67,2.54,1.5,1.73,2.19,3.9,3.82,6.74,3.91,2.08.06,4.2-.36,6.27-.74,2.68-.49,5.33-1.07,8.05-.24,2.22.67,3.76,2.22,5.25,3.85.3.32.41.81.61,1.22-.07.07-.14.14-.22.22ZM175.94,2.74c1.33,1.78,1.15,3.68,1.15,5.55,0,17.91,0,35.81,0,53.72,0,1.83.08,3.67-.11,5.49-.11,1.09-.66,2.13-1.02,3.21,1.45-.15,2.24-.9,2.47-2.49.16-1.1.26-2.22.26-3.34.02-18.23.02-36.45,0-54.68,0-1.75-.11-3.51-.22-5.26-.09-1.42-.89-2.17-2.54-2.2ZM208.14,70.76c1.31.02,2.07-.46,2.42-1.39.29-.77.54-1.61.55-2.42.04-11.35.04-22.69,0-34.04,0-1.11-.21-2.23-.47-3.31-.24-1.01-.8-1.81-2.19-1.68,1.23,2.19,1.21,4.49,1.19,6.8-.05,4.99-.11,9.97-.11,14.96,0,5.15.07,10.3.11,15.46.01,1.93-.13,3.82-1.5,5.62Z"/>
  <path class="cls-2" d="M37.37,31.71c.75-1.38,1.49-2.77,2.25-4.15,4.82-8.74,12.29-14.33,21.41-17.94,4.98-1.97,10.17-2.99,15.51-3.42,8.01-.65,15.79.71,23.49,2.61,6.81,1.68,13.23,4.49,19.64,7.32,5.51,2.44,11.07,4.81,16.75,6.85,5.36,1.93,11.01,2.79,16.72,2.79,5.8,0,11.57-.59,17.29-1.53.59-.1,1.21-.01,2.16-.01-.49.47-.71.73-.98.93-5.13,3.72-10.73,6.31-17.06,7.19-6.55.92-13.06.67-19.57-.5-7.6-1.36-14.74-4.22-22-6.67-9.7-3.27-19.38-6.59-29.51-8.33-6.2-1.07-12.43-1.24-18.56.33-5.3,1.36-10.23,3.66-14.8,6.67-3.87,2.55-7.7,5.16-11.55,7.74-.25.17-.55.27-.82.4-.11-.1-.23-.19-.34-.29ZM44.3,24.42l.17.25c.29-.15.6-.28.88-.44,3.17-1.85,6.27-3.83,9.51-5.54,8.03-4.23,16.63-5.53,25.58-4.46,8.81,1.06,17.27,3.62,25.67,6.38,7.1,2.33,14.12,4.9,21.24,7.14,6.9,2.17,14,3.27,21.26,2.96,2.12-.09,4.23-.4,6.34-.62l-.04-.36c-.47.04-.93.09-1.4.13-.52.04-1.03.1-1.55.12-9.57.28-18.71-1.73-27.7-4.84-8.94-3.09-17.92-6.13-26.99-8.83-4.91-1.46-10.02-2.35-15.1-3.15-6.93-1.1-13.78-.51-20.46,1.76-5.99,2.04-11.35,5.29-16.6,8.74-.31.2-.55.5-.82.76Z"/>
  <path class="cls-2" d="M136.41,63.71c-.87-.53-1.6-.98-2.33-1.42-4.98-3-6.6-9.32-3.42-14.17,2.03-3.1,5.12-4.73,8.81-5.18,4.38-.54,8.43.32,12.07,2.87.75.53,1.29.45,2.02-.08,1.98-1.46,4.21-1.89,6.59-1.21,1.91.54,3.06,2.82,2.4,4.69-.63,1.82-2.89,2.53-4.43,1.32-.81-.64-1.47-1.47-2.27-2.12-.29-.23-.8-.19-1.21-.28.04.39-.04.85.14,1.17,3.09,5.45.57,10.95-3.66,13.55-2.09,1.28-4.43,1.73-6.86,1.95-1.98.17-3.95.51-5.92.82-.42.07-.85.25-1.23.46-.91.49-1.47,1.21-1.37,2.32.1,1.09.9,1.46,1.78,1.67.65.16,1.34.22,2.01.23,2.76.03,5.45.07,8.18.36,2.39.25,4.85.67,7.15,1.41,3.08.99,4.29,5.69,3.71,8.2-1.01,4.41-3.86,6.97-8.03,8.21-5.95,1.78-11.97,1.98-17.97.28-2.15-.61-3.97-1.79-5-3.97-1.36-2.87.82-6.4,3.41-7.32.45-.16.89-.32,1.52-.54-.32-.36-.52-.64-.77-.86-2.98-2.65-3.17-6.15-.27-8.97,1.15-1.12,2.66-1.85,4.01-2.76.25-.17.51-.35.92-.63ZM145.15,78.23c-.02.11.02-.11,0,0-.88,0-1.76-.05-2.64.01-2.27.17-4.55.28-6.6,1.47-1.47.86-2.22,2.82-1.68,4.43.71,2.12,2.51,2.79,4.42,3.21,2.81.63,5.65.35,8.45-.07,2.31-.35,4.49-1.11,6.17-2.9,1.78-1.9,1.3-4.54-1.18-5.25-2.23-.64-4.21-.77-6.94-.91ZM147.3,53.68c0-.72.06-1.44-.01-2.15-.21-2.07-.81-4-2.46-5.41-1.67-1.43-3.48-1.22-4.96.4-1.44,1.57-1.87,3.51-2.02,5.51-.22,2.98-.03,5.92,1.77,8.48,1.78,2.51,4.99,2.27,6.43-.45,1.06-1.99,1.37-4.14,1.25-6.36ZM132.86,68.34c-1.89,1.12-2.47,4.84-.37,6.13,1.33.81,2.85,1.63,4.35,1.78,3.29.33,6.63.19,9.94.33,3.42.14,6.94.16,9.14,3.6.42-2.52-1.28-3.97-3.43-4.48-1.85-.44-3.77-.66-5.67-.79-3.54-.25-7.1-.29-10.64-.58-2.33-.19-3.89-2.09-3.72-4.21.04-.53.24-1.06.41-1.78ZM135.73,61.18c-1.96-2.41-3.61-4.95-3.25-8.22.36-3.23,2.28-5.59,4.85-7.72-2.77.43-6.04,3.75-6.33,6.43-.46,4.18.39,7.37,4.74,9.5ZM146.86,45.82c3.28,4.81,2.74,9.83.87,14.95,2.75-2,3.09-4.89,2.88-7.87-.19-2.86-.94-5.55-3.76-7.09ZM132.02,86.47c-2.32-3.09-1.81-5.62,1.34-7.85-2.5.35-4.26,1.97-4.35,3.72-.11,2,.96,3.58,3.01,4.13ZM156.97,47.03c.7.75,1.22,1.45,1.89,1.95.35.26,1.01.35,1.42.21.35-.12.55-.68.78-.99-1.45-.42-2.67-.77-4.09-1.17Z"/>
  <path class="cls-2" d="M97.28,76.86c-.83-.93-1.63-1.63-2.18-2.48-1.47-2.29-.92-5.52,1.29-7.38,1.15-.97,2.48-1.73,3.74-2.58.29-.19.59-.37,1.09-.68-.5-.31-.85-.54-1.2-.74-2.73-1.56-4.89-3.63-5.71-6.77-1.45-5.56,1.48-10.35,6.28-12.25,5.47-2.17,10.82-1.61,15.73,1.82.83.58,1.42.42,2.14-.12,1.6-1.2,3.44-1.67,5.42-1.47,2.17.22,3.78,1.98,3.72,3.98-.04,1.11-.5,2.02-1.5,2.56-1.05.57-2.1.49-3.03-.26-.78-.62-1.45-1.38-2.24-1.98-.32-.24-.83-.24-1.26-.34.04.4-.04.86.13,1.2.93,1.9,1.59,3.83,1.27,5.99-.59,4.01-2.88,6.75-6.54,8.2-1.78.71-3.79.86-5.71,1.19-1.89.33-3.8.51-5.68.86-1.52.29-2.3,1.17-2.35,2.33-.05,1.02.4,1.73,1.36,2,.76.21,1.57.29,2.36.33,3.83.18,7.66.2,11.48.52,2.38.2,4.62,1.07,6.17,3.07,2.62,3.38,1.62,9.33-1.99,12.2-2.63,2.09-5.75,2.97-8.97,3.41-3.44.47-6.95.64-10.39,0-1.82-.33-3.65-.92-5.32-1.72-2.24-1.07-3.64-2.89-3.27-5.58.33-2.42,1.87-3.88,4-4.84.35-.16.71-.3,1.16-.5ZM107.44,87.54c1.08,0,2.18.12,3.24-.02,2.75-.38,5.46-.93,7.49-3.08,1.63-1.73,1.31-4.01-.78-5.09-.74-.38-1.56-.75-2.36-.8-2.83-.17-5.67-.3-8.49-.22-1.53.04-3.08.42-4.57.85-1.93.55-3.11,2-3.12,3.68-.02,1.86,1.14,2.94,2.65,3.82,1.88,1.1,3.93.91,5.96.87ZM112.53,53.76c-.27-2.32-.38-4.62-1.78-6.47-2.09-2.77-4.47-3.06-6.64.08-.78,1.12-1.13,2.65-1.32,4.04-.45,3.35-.25,6.67,2,9.43.55.68,1.63,1.14,2.54,1.27,1.74.25,3.27-.82,3.94-2.82.6-1.79.86-3.69,1.27-5.54ZM120.88,80.37c.06-2.43-.95-3.99-3.08-4.49-2.04-.48-4.14-.78-6.23-.96-3.61-.31-7.25-.33-10.84-.73-2.49-.28-3.6-2.04-3.3-4.53.05-.37.1-.74.17-1.27-1.45,1.11-2.04,3.09-1.42,4.47,1.09,2.42,3.27,3.27,5.64,3.44,3.5.25,7.02.14,10.53.31,3.2.16,6.44.37,8.53,3.77ZM101.9,45.42c-3.95,1.08-6.33,4.61-6.23,8.8.07,2.89,2.81,6.76,5.19,7.03-2.44-2.3-3.73-5-3.45-8.2.28-3.17,1.9-5.69,4.48-7.62ZM112.47,60.97c2.75-1.95,3.25-4.85,3.02-7.82-.24-3.09-1.06-6.22-3.38-6.79,2.81,4.84,2.36,9.69.36,14.62ZM97.01,86.54c-2.4-2.98-2-5.56,1.17-7.92-2.69.54-4.29,2.04-4.36,3.76-.07,1.87,1.17,3.6,3.19,4.16ZM121.92,47.06c.69.73,1.2,1.41,1.85,1.9.34.25,1,.3,1.42.16.3-.1.45-.67.61-.94-1.38-.4-2.54-.73-3.88-1.11Z"/>
  <path class="cls-2" d="M.43,64.41c0-2.36,0-4.72,0-7.08,0-.72-.11-1.53.95-1.61.96-.07,1.93-.19,2.35,1.07,1.21,3.56,3.02,6.79,5.46,9.64,3.28,3.83,7.36,5.97,12.49,5.05,4.87-.87,7.62-3.82,7.95-8.7.27-3.94-2.23-7.46-6.2-8.69-2.58-.79-5.27-1.27-7.93-1.8-3.68-.74-7.43-1.26-10.54-3.66-2.44-1.88-3.93-4.33-4.61-7.34-1.06-4.74.26-8.88,3.24-12.51,2.39-2.91,5.64-4.33,9.38-4.32,2.26,0,4.54.32,6.79.66,2.35.35,4.66.79,6.96-.15.11-.04.23-.05.35-.06,2.62-.39,2.85-.14,3.07,2.49.27,3.34.7,6.67,1,10,.05.54-.07,1.37-.43,1.61-.77.53-2.17.06-2.63-.66-1.08-1.68-2.09-3.41-3.25-5.03-1.64-2.29-3.55-4.33-6.15-5.59-4.18-2.03-9.06-1.44-11.83,1.42-2.24,2.31-2.86,5.12-1.95,8.08.36,1.16,1.52,2.24,2.56,3,2.43,1.78,5.42,2.03,8.27,2.65,3.04.66,6.16,1.07,9.13,1.97,5.9,1.78,9.51,5.8,10.29,11.97.72,5.76-1.38,10.55-5.95,14.09-4.84,3.74-10.23,4.08-15.88,2.02-1.46-.53-2.94-1.06-4.45-1.44-1.99-.5-3.83-.23-5.51,1.18-.53.45-1.57.52-2.3.39-.31-.06-.59-1.11-.61-1.71-.07-2.32-.03-4.63-.03-6.95ZM31.19,64.17c1.51-2.82,1.06-7.14-.89-9.45-2.21-2.63-5.24-3.74-8.42-4.48-3.27-.75-6.58-1.29-9.86-1.97-3.55-.73-6.51-2.41-8.5-5.53-.56-.88-1.02-1.82-1.53-2.73.44,3.28,1.96,5.89,4.62,7.87,2.46,1.83,5.39,2.1,8.24,2.71,3.2.69,6.48,1.13,9.57,2.14,3.99,1.3,6.51,4.11,6.77,8.52.06.94,0,1.88,0,2.91ZM2.43,64.29v5.68c.76-.34,1.41-.64,2.06-.91.55-.22.79-.52.41-1.08-.79-1.17-1.58-2.35-2.47-3.69ZM26.44,32.41c.07-.04.14-.08.21-.12-.14-1.05-.24-2.1-.46-3.14-.07-.32-.42-.8-.68-.83-.75-.08-1.52.04-2.45.09,1.25,1.47,2.31,2.73,3.38,4Z"/>
  <path class="cls-2" d="M86.29,59.47c0,2.96-.02,5.92,0,8.88.01,1.68.55,2.01,1.9,1.11.71-.47,1.2-.2,1.49.35.21.4.32,1.16.09,1.43-2.08,2.45-4.75,3.44-7.93,2.84-1.39-.26-2.36-1.17-2.96-2.41-.43-.89-.87-.95-1.65-.37-2.72,2-5.72,3.19-9.17,2.87-2.17-.2-4.89-1.58-5.76-4.23-.9-2.72-.14-5.01,1.72-7.04,2.16-2.35,5.06-3.6,7.77-5.12,1.71-.96,3.47-1.82,5.15-2.82.38-.23.72-.84.75-1.29.08-1.59-.02-3.2.02-4.8.08-2.68-1.71-3.83-4.2-3.66-.32.02-.63.1-.95.16-1.74.32-2.22,1.13-1.62,2.74.76,2.05-.04,4.01-2.03,4.97-2.02.98-4.61.34-5.66-1.36-.75-1.22-.48-2.39.19-3.51,1.21-2.01,3.07-3.23,5.21-4.04,4.33-1.64,8.72-2.08,13.06-.13,2.88,1.29,4.39,3.69,4.53,6.8.14,2.87.03,5.76.03,8.64h0ZM77.62,57.58c-1.3.84-2.39,1.47-3.39,2.22-2.31,1.73-3.68,3.92-3.31,6.97.19,1.55,1.5,2.85,3.02,2.82,2.02-.04,3.75-1.42,3.76-3.01.02-2.39,0-4.79,0-7.18,0-.5-.04-.99-.08-1.82ZM83.31,72.29c-1.8-1.26-2.04-3.13-2.1-4.94-.14-4.11-.1-8.22-.13-12.33-.01-1.99.02-3.98-.03-5.97-.03-1.54-.89-2.77-1.81-2.94.11,2.09.29,4.22.32,6.35.05,4.39-.03,8.79.04,13.18.02,1.46.27,2.94.57,4.38.34,1.63,1.49,2.45,3.14,2.27ZM68.69,72.29c-4.05-2.14-4.33-5.08-2.05-9.16-1.94.81-3.25,3.38-2.85,5.6.35,1.96,2.52,3.53,4.9,3.55ZM67.97,51.39c-2.21-1.28-1.89-2.88-.84-4.65-.74.47-1.3.96-1.81,1.51-.73.78-.91,2.23-.3,2.86.78.8,1.71.92,2.95.29Z"/>
  <path class="cls-2" d="M258.13,46.89c0,6.87,0,13.75,0,20.62,0,2.6.48,3.14,3.11,3.3.94.06,1.26.49,1.24,1.37-.02.94-.52,1.23-1.39,1.22-4.71-.05-9.43-.06-14.14-.11-.75,0-1.7.22-1.72-1.06-.01-.86.27-1.39,1.22-1.39.36,0,.72-.02,1.08-.07,1.27-.19,2.02-.98,2.02-2.27.01-11.51.02-23.02-.01-34.53,0-2.04-1.37-3.13-3.05-3.92-.61-.28-1.3-.44-1.24-1.37.05-.9.71-1.05,1.36-1.27,3.04-1,6.07-2.01,9.1-3,1.86-.61,2.43-.19,2.43,1.74,0,6.91,0,13.83,0,20.74ZM248.97,29.44c2.42,1.64,2.43,4.11,2.44,6.56.02,10.48.02,20.95-.01,31.43,0,1.04-.27,2.08-.41,3.12.08.07.15.14.23.21.43-.39.99-.72,1.25-1.2.29-.54.42-1.22.42-1.84.02-11.56.02-23.11,0-34.67,0-.62-.17-1.28-.41-1.85-.57-1.34-2.08-2.11-3.5-1.76Z"/>
  <path class="cls-2" d="M276.85,47.09c0,6.88,0,13.75,0,20.63,0,2.45.47,2.98,2.88,3.09.99.04,1.47.39,1.46,1.43,0,.76-.27,1.05-1.06,1.04-4.92-.03-9.83-.03-14.75-.01-.83,0-1.4-.16-1.42-1.15-.01-.93.44-1.24,1.32-1.3,2.51-.18,2.99-.71,2.99-3.28.02-11.07.04-22.13.02-33.2,0-1.83-.99-3.16-2.6-4.02-.32-.17-.75-.22-.96-.47-.33-.39-.68-.89-.7-1.36-.01-.32.47-.84.84-.97,3.25-1.1,6.51-2.17,9.79-3.18,1.57-.48,2.17,0,2.17,1.65,0,7.04,0,14.07,0,21.11h0ZM267.61,29.41c2.18,1.5,2.48,3.63,2.49,5.75.05,10.95.04,21.9,0,32.84,0,.86-.32,1.72-.49,2.58.08.07.16.14.24.2.42-.37,1.01-.65,1.22-1.11.32-.7.52-1.52.52-2.29.03-11.23.02-22.46.02-33.68,0-.32,0-.64-.03-.96-.23-2.22-1.66-3.52-3.98-3.33Z"/>
  <path class="cls-2" d="M43.14,57.32c0-3.16,0-6.32,0-9.48,0-1.75-.01-1.75-1.71-1.79-.28,0-.59.05-.83-.06-.44-.19-1.13-.43-1.18-.73-.08-.5.1-1.26.46-1.58,1.53-1.34,3.26-2.45,4.75-3.84,1.45-1.35,2.76-2.88,3.99-4.43.61-.76,1.26-.94,2.08-.77.93.19.79,1,.78,1.65-.02,1.8-.12,3.59-.14,5.39-.02,1.53.17,1.7,1.74,1.7,1.8,0,3.6,0,5.4,0,.75,0,1.37.11,1.4,1.06.03.96-.34,1.55-1.36,1.56-1.88.02-3.76.06-5.64.02-.96-.02-1.47.18-1.47,1.3.01,4.68-.08,9.35-.06,14.03,0,2.15.03,4.32.3,6.45.28,2.2,1.67,2.77,3.63,1.64.79-.46,1.5-1.06,2.2-1.64.59-.48,1.05-.42,1.54.13.46.51.7.98.13,1.55-2.68,2.7-5.58,4.92-9.7,4.7-3.1-.16-5.12-1.57-5.75-4.61-.42-2.04-.46-4.18-.55-6.28-.09-2-.02-4-.02-6ZM49.96,72.29c-2.99-1.35-3.52-3.87-3.5-6.77.05-7.68.02-15.35,0-23.03,0-.49-.08-.98-.12-1.53-1.26.4-1.56,1.17-1.56,2.26.03,4.92-.01,9.84.03,14.75.02,3.24.08,6.47.24,9.7.15,3.1,2.13,4.95,4.91,4.61Z"/>
  <path class="cls-2" d="M239.41,56.68c0,3.72,0,7.44,0,11.16,0,2.26.42,2.68,2.66,2.98.48.06,1.12.37,1.32.75.49.96-.09,1.74-1.18,1.74-4.6.02-9.19.06-13.79.01-.43,0-1.11-.54-1.22-.96-.2-.72.1-1.37,1.04-1.56,2.27-.47,2.58-.9,2.59-3.24.03-4.96.06-9.92.1-14.87.02-2.09-.91-3.56-2.75-4.55-.44-.24-.72-.75-1.08-1.14.43-.36.81-.88,1.3-1.07,2.66-.99,5.34-1.91,8.02-2.84.19-.07.38-.12.58-.16,1.74-.42,2.34,0,2.37,1.77.05,2.96.02,5.92.02,8.88,0,1.04,0,2.08,0,3.12h0ZM232.27,70.72c1.39-.41,1.87-1.33,1.88-2.39.04-5.8.06-11.6,0-17.4-.02-1.95-1.42-3.2-3.43-3.2,1.3,1.28,1.96,2.75,1.97,4.45.03,5.32.03,10.64,0,15.96,0,.8-.24,1.6-.39,2.58Z"/>
  <path class="cls-2" d="M229.86,31.29c0-2.84,2.16-4.89,5.09-4.87,2.68.02,4.91,2.22,4.93,4.86.02,2.73-2.27,5-5.06,5.01-2.87.01-4.97-2.11-4.96-5ZM234.14,28.17c-2.14.66-2.55,1.39-2.41,3.78.08,1.32.79,2.07,2.37,2.35-1.4-2-1.46-3.98.03-6.13Z"/>
  <path class="cls-1" d="M298.37,98.36c-.54.31-.93.57-1.33.78-2.72,1.42-5.53,2.14-8.5.79-2.39-1.08-3.76-2.96-3.91-5.58-.16-2.83-.17-5.67-.25-8.51-.03-1.08-.15-2.15-.15-3.23,0-1.03-.22-1.89-1.34-2.6.39-.14.77-.39,1.17-.41,1.2-.05,2.4-.05,3.6,0,.31.01.61.25.92.39-.17.24-.36.47-.49.73-.22.44-.56.9-.57,1.36-.05,3.96-.08,7.92-.01,11.88.04,2.43,2.15,4.51,4.69,4.57,1.21.03,2.49-.17,3.63-.56,2.35-.81,2.74-1.49,2.74-3.97,0-3.72,0-7.44,0-11.16,0-.87-.03-1.68-.89-2.2-.18-.11-.29-.47-.27-.7.01-.13.36-.32.57-.32,1.32-.03,2.64-.07,3.96,0,.68.04,1.02.36.45,1.1-.34.44-.66,1.05-.67,1.58-.06,4.99-.09,9.99-.02,14.98,0,.64.61,1.27.94,1.9.12.23.38.51.32.67-.07.19-.42.37-.65.38-.96.04-1.93.08-2.87-.02-.31-.03-.63-.45-.84-.77-.15-.23-.12-.58-.2-1.08Z"/>
  <path class="cls-1" d="M207.85,89.9c.17,6.43-4.57,10.74-10.58,10.73-6.88-.02-10.79-4.88-10.75-10.76.04-6.28,4.16-10.54,10.6-10.65,6.52-.11,10.87,4.62,10.73,10.68ZM190.05,90.28c0,.55-.07,1.35.01,2.14.2,1.88.92,3.64,2.27,4.9,3.17,2.96,9.16,2.56,11.29-2.24,1.17-2.64,1.11-5.41.67-8.12-.48-2.98-2.1-5.2-5.22-6.08-2.56-.72-5.59.18-7.24,2.24-1.63,2.04-1.91,4.41-1.79,7.15Z"/>
  <path class="cls-1" d="M314.65,89.62c1.71.93,2.79,2.18,3.35,3.9.8,2.52-.78,5.84-3.38,6.24-2.7.41-5.48.35-8.22.46-.23,0-.59-.18-.67-.37-.07-.18.18-.47.27-.71.25-.63.69-1.27.69-1.9.06-4.92.06-9.84,0-14.75,0-.62-.39-1.31-.77-1.83-.44-.6-.29-1.01.31-1,2.93.06,5.93-.63,8.76.64,3.05,1.37,3.67,5.89,1.13,8.08-.42.36-.84.72-1.47,1.25ZM315.11,94.68c-.02-2.9-1.21-4.03-3.83-4.41-.71-.1-1.43.01-1.44.98-.02,2.15-.01,4.31,0,6.46,0,.79.48,1.08,1.25,1.12,2.46.1,4-1.47,4.01-4.14ZM309.77,85.12s.04,0,.06,0c0,.92,0,1.84,0,2.75,0,.75.35,1.08,1.13,1.02,2.19-.17,3.17-.95,3.73-3.03.57-2.14-1.05-4.79-3.16-5.18-.92-.17-1.51.11-1.59,1.09-.09,1.11-.12,2.23-.18,3.34Z"/>
  <path class="cls-1" d="M180.35,92.92c-.06.04.12-.21.3-.22,1.27-.05,2.54-.11,3.8-.04.53.03.8.36.35,1-.37.54-.57,1.25-.65,1.92-.1.82-.03,1.67.03,2.5.08,1.08-.49,1.51-1.46,1.66-1.3.2-2.59.45-3.88.66-4.36.72-8.31-.28-11.54-3.28-1.08-1-1.93-2.53-2.3-3.97-1.68-6.52,1.1-12.1,8.1-13.68,2.96-.67,5.8,0,8.66.45.32.05.66.68.77,1.1.12.48.02,1.03-.06,1.54-.05.28-.22.67-.43.74-.22.07-.63-.1-.81-.3-2.23-2.36-5.08-2.96-8.35-1.73-2.94,1.11-4.9,3.89-4.93,6.99-.02,1.84-.02,3.65.7,5.41,1.72,4.23,6.98,6.6,11.24,5,.73-.27,1.12-.71,1.08-1.51-.03-.56.07-1.13-.02-1.68-.12-.77-.35-1.52-.6-2.58Z"/>
  <path class="cls-1" d="M246.71,89.68c-.28-5.29,4.17-9.5,9.02-10.23,2.9-.43,5.55.11,8.27.68,1.06.22,1.83,2.11,1.28,3.07-.42.73-.81.24-1.25-.06-1.08-.72-2.11-1.6-3.3-2.04-4.28-1.59-9.69.92-10.64,6.85-.68,4.27,1.73,8.85,5.58,10.59,3,1.35,6.71.63,8.94-1.71.2-.21.58-.25.88-.37.06.32.21.66.16.96-.31,1.97-1.56,2.71-3.47,2.93-3.09.36-6.11.45-9.09-.68-3.72-1.41-6.69-5.26-6.4-9.98Z"/>
  <path class="cls-1" d="M231.53,79.58c1.52,0,3.04-.05,4.55.03.47.03,1.25.36,1.31.66.14.78-.04,1.62-.09,2.44-.35-.11-.92-.13-1.01-.34-.4-.96-1.12-1.14-2.03-1.12-1.04.03-2.08.02-3.12,0-.77,0-1.21.3-1.2,1.13.04,1.88.02,3.75.14,5.63.02.32.56.87.86.87,1.74,0,3.66.61,4.98-1.2.1-.14.49-.25.62-.16.2.12.38.42.4.65.07.87.13,1.75.07,2.62-.02.34-.29.72-.56.96-.08.07-.53-.29-.82-.43-.61-.31-1.21-.75-1.86-.88-.77-.16-1.59-.06-2.39-.05-1.28.02-1.47.27-1.44,1.6.04,1.51-.09,3.03.05,4.53.08.89.55,1.75.85,2.62.08.24.35.52.29.69-.07.19-.42.4-.65.41-1.24.04-2.48.07-3.71,0-.75-.05-.74-.48-.41-1.09.32-.59.64-1.28.65-1.93.05-4.43.03-8.87,0-13.3,0-1.27.1-2.6-1.32-3.34-.11-.06-.18-.46-.13-.49.28-.18.6-.42.92-.43,1.68-.04,3.36-.02,5.03-.02v-.03Z"/>
  <path class="cls-1" d="M217.59,100.27c-1.84,0-3.68.02-5.51-.02-.35,0-.69-.26-1.04-.4.16-.3.34-.58.47-.89.23-.53.61-1.07.61-1.61.04-4.47.05-8.95-.04-13.42-.02-1.19-.06-2.48-1.16-3.39-.53-.44-.19-.87.34-.89,1.47-.06,2.96-.08,4.43.02.66.05.64.45.22,1-.43.55-.85,1.29-.86,1.95-.07,4.83-.02,9.67-.06,14.5,0,1.07.31,1.54,1.43,1.49,1.36-.07,2.72-.01,4.07-.01,1.35,0,2.51-.38,3.28-1.61.14-.23.56-.29.85-.43.09.32.23.63.27.95.02.18-.12.37-.17.57-.54,2.23-.53,2.22-2.81,2.19-1.44-.02-2.88,0-4.32,0,0,0,0,.01,0,.02Z"/>
  <path class="cls-1" d="M267.63,79.96c.17-.08.49-.34.81-.35,1.28-.05,2.56-.04,3.83,0,.28,0,.56.22.83.34-.15.25-.32.5-.43.77-.21.49-.54,1-.55,1.5-.04,5.03-.01,10.06-.04,15.08,0,.92.34,1.3,1.27,1.29,1.28-.02,2.56.08,3.83.06,1.41-.02,2.69-.32,3.53-1.64.15-.24.55-.32.84-.47.09.32.18.63.26.96.02.07-.03.16-.04.23-.39,2.56-.39,2.54-2.98,2.53-3.16-.02-6.31.02-9.47,0-.45,0-.89-.2-1.33-.31.2-.35.44-.68.58-1.05.24-.62.61-1.27.6-1.9-.09-5.03-.22-10.06-.44-15.08-.03-.59-.63-1.15-1.11-1.96Z"/>
</svg>