<?xml version="1.0" encoding="UTF-8"?>
<svg id="a" data-name="Layer 1" xmlns="http://www.w3.org/2000/svg" width="620.17" height="253.93" viewBox="0 0 620.17 253.93">
  <defs>
    <style>
      .b {
        fill: #fff;
      }

      .c {
        fill: #f05224;
      }
    </style>
  </defs>
  <rect class="c" width="620.17" height="253.93"/>
  <g>
    <g>
      <path class="b" d="M98.24,97.59h11.42c-.43,6.91-2.69,12.26-6.79,16.07-4.1,3.81-10,5.71-17.7,5.71-9.36,0-16.35-3.39-20.95-10.18-3.84-5.68-5.76-13.51-5.76-23.48s1.8-17.8,5.39-23.3c4.42-6.78,11.53-10.18,21.32-10.18,7.43,0,13.21,1.84,17.34,5.52,4.13,3.68,6.52,8.79,7.16,15.33h-11.42c-.55-3.1-1.93-5.64-4.12-7.62-2.19-1.98-4.97-2.97-8.31-2.97h-1.24c-10.04,0-15.06,7.74-15.06,23.21s5.02,23.39,15.06,23.39h1.15c3.53,0,6.4-1.11,8.61-3.32s3.51-4.94,3.91-8.2Z"/>
      <path class="b" d="M159.2,118.54h-39.04V53.21h10.96v54.98h28.09v10.36Z"/>
      <path class="b" d="M191.57,119.37c-9.49,0-16.47-3.39-20.95-10.18-3.84-5.68-5.76-13.51-5.76-23.48s1.8-17.8,5.39-23.3c4.42-6.78,11.53-10.18,21.32-10.18s16.94,3.39,21.36,10.18c3.59,5.49,5.39,13.26,5.39,23.3s-1.92,17.8-5.76,23.48c-4.6,6.78-11.6,10.18-21,10.18ZM190.97,109.1h1.06c10.25,0,15.38-7.8,15.38-23.39s-5.1-23.07-15.29-23.07h-1.15c-10.13,0-15.19,7.69-15.19,23.07s5.06,23.39,15.19,23.39Z"/>
      <path class="b" d="M273.3,71.3h-10.82c0-2.64-1.21-4.89-3.64-6.74-2.43-1.86-5.25-2.79-8.47-2.79-3.68,0-6.65.78-8.89,2.33-2.24,1.55-3.36,3.54-3.36,5.96,0,.8.15,1.55.46,2.26.31.71.7,1.31,1.17,1.82.48.51,1.12,1,1.93,1.47.81.48,1.6.87,2.35,1.17.75.31,1.7.64,2.85.99,1.15.35,2.16.64,3.02.85.86.22,1.95.49,3.27.83,1.32.34,2.39.61,3.22.83,2.18.58,4.1,1.21,5.76,1.89,1.66.68,3.31,1.54,4.95,2.6,1.64,1.06,2.98,2.26,4.03,3.59,1.04,1.34,1.89,2.97,2.53,4.9.64,1.93.97,4.1.97,6.49,0,4.27-1.09,7.9-3.27,10.91-2.18,3.01-5.03,5.21-8.54,6.61-3.52,1.4-7.5,2.1-11.95,2.1-2.98,0-5.75-.24-8.31-.71-2.56-.48-4.92-1.24-7.07-2.3-2.15-1.06-3.98-2.37-5.48-3.94-1.5-1.57-2.68-3.48-3.52-5.76-.84-2.27-1.27-4.82-1.27-7.64h11.69c.37,3.25,1.87,5.82,4.51,7.71,2.64,1.89,5.79,2.83,9.44,2.83,1.96,0,3.89-.36,5.78-1.08,1.89-.72,3.5-1.83,4.83-3.32,1.34-1.49,2-3.15,2-5,0-2.64-.87-4.65-2.62-6.03-2.79-2.03-7.92-3.79-15.38-5.29-3.25-.68-6.15-1.66-8.7-2.95-6.26-3.04-9.39-8.23-9.39-15.56,0-3.81,1-7.1,3.02-9.88,2.01-2.78,4.7-4.84,8.06-6.19,3.36-1.35,7.17-2.03,11.44-2.03,7.34,0,13.07,1.69,17.2,5.06,4.13,3.38,6.19,8.04,6.19,14Z"/>
      <path class="b" d="M284.48,53.21h40.66v10.36h-29.7v17.17h27.9v10.18h-27.9v17.27h30.48v10.36h-41.44V53.21Z"/>
      <path class="b" d="M335.96,118.54V53.21h19.71c9.73,0,16.9,2.7,21.5,8.1,4.6,5.4,6.91,13.6,6.91,24.59s-1.98,18.3-5.94,23.57c-4.54,6.05-11.83,9.07-21.87,9.07h-20.3ZM355.67,63.47h-8.75v44.8h9.35c3.25,0,5.99-.5,8.2-1.5s3.93-2.5,5.16-4.51c1.23-2.01,2.1-4.33,2.62-6.95.52-2.62.78-5.76.78-9.42,0-7.64-1.4-13.29-4.19-16.94-2.79-3.65-7.18-5.48-13.17-5.48Z"/>
      <path class="b" d="M420.96,53.21h39.14v10.36h-28.18v17.54h26.98v10.18h-26.98v27.26h-10.96V53.21Z"/>
      <path class="b" d="M488.46,119.37c-7,0-12.45-2.83-16.37-8.5-3.91-5.66-5.87-14.08-5.87-25.25s1.92-19.68,5.76-25.16c3.84-5.48,9.33-8.22,16.48-8.22s12.65,2.74,16.51,8.22c3.85,5.48,5.78,13.87,5.78,25.16s-1.96,19.59-5.87,25.25c-3.91,5.66-9.39,8.5-16.41,8.5ZM488.27,109.1c4.2,0,7.17-1.88,8.91-5.64,1.73-3.76,2.6-9.68,2.6-17.75s-.88-13.86-2.65-17.54c-1.77-3.68-4.72-5.52-8.86-5.52s-6.85,1.85-8.56,5.55c-1.72,3.7-2.58,9.54-2.58,17.52s.84,13.99,2.53,17.75c1.69,3.76,4.56,5.64,8.61,5.64Z"/>
      <path class="b" d="M561.71,118.54h-11.97l-12.94-26.01h-4.6v26.01h-10.96V53.21h17.73c6.32,0,11.24,1.67,14.76,5.02,3.51,3.35,5.27,8.24,5.27,14.69,0,9.64-3.75,15.61-11.23,17.91l13.95,27.72ZM539.38,63.57h-7.18v18.79h7.18c2.88,0,5.03-.74,6.45-2.23,1.41-1.49,2.12-3.89,2.12-7.21,0-3.07-.78-5.39-2.35-6.98-1.57-1.58-3.64-2.37-6.22-2.37Z"/>
    </g>
    <g>
      <path class="b" d="M60.11,147.69v-10.03h48.92v10.03h-19.16v53.2h-10.6v-53.2h-19.16Z"/>
      <path class="b" d="M127.97,163.46h25.44v-25.8h10.6v63.22h-10.6v-27.67h-25.44v27.67h-10.6v-63.22h10.6v25.8Z"/>
      <path class="b" d="M177.11,137.66h39.34v10.03h-28.74v16.62h27v9.85h-27v16.71h29.5v10.02h-40.1v-63.22Z"/>
      <path class="b" d="M295.45,155.17h-10.47c0-2.55-1.17-4.73-3.52-6.53-2.35-1.8-5.08-2.7-8.2-2.7-3.56,0-6.43.75-8.6,2.25-2.17,1.5-3.25,3.42-3.25,5.77,0,.77.15,1.5.45,2.18.3.68.68,1.27,1.14,1.76.46.49,1.08.97,1.87,1.43s1.54.84,2.27,1.14c.73.3,1.65.62,2.76.96s2.09.62,2.92.82c.83.21,1.89.48,3.16.8,1.28.33,2.32.59,3.12.8,2.11.56,3.97,1.17,5.57,1.83,1.6.65,3.2,1.49,4.79,2.52,1.59,1.03,2.89,2.18,3.9,3.48,1.01,1.29,1.83,2.87,2.45,4.74.62,1.87.94,3.97.94,6.28,0,4.13-1.05,7.65-3.16,10.56-2.11,2.91-4.86,5.04-8.26,6.39-3.4,1.35-7.26,2.03-11.56,2.03-2.88,0-5.56-.23-8.04-.69-2.48-.46-4.76-1.2-6.84-2.23-2.08-1.02-3.85-2.29-5.3-3.81-1.46-1.52-2.59-3.37-3.41-5.57-.82-2.2-1.23-4.66-1.23-7.4h11.32c.36,3.15,1.81,5.64,4.37,7.46,2.55,1.83,5.6,2.74,9.13,2.74,1.9,0,3.76-.35,5.59-1.05,1.83-.7,3.39-1.77,4.68-3.21,1.29-1.44,1.94-3.05,1.94-4.83,0-2.55-.85-4.5-2.54-5.84-2.7-1.96-7.66-3.67-14.88-5.12-3.15-.65-5.96-1.6-8.42-2.85-6.06-2.94-9.09-7.96-9.09-15.06,0-3.68.97-6.87,2.92-9.56,1.95-2.69,4.54-4.69,7.8-5.99s6.94-1.96,11.07-1.96c7.1,0,12.65,1.63,16.64,4.9,3.99,3.27,5.99,7.78,5.99,13.54Z"/>
      <path class="b" d="M306.28,137.66h39.34v10.03h-28.74v16.62h27v9.85h-27v16.71h29.5v10.02h-40.1v-63.22Z"/>
      <path class="b" d="M384.02,137.66l24.82,63.22h-11.41l-5.75-15.24h-24.73l-5.75,15.24h-11.14l24.64-63.22h9.31ZM370.79,175.62h17.06l-8.51-24.46-8.55,24.46Z"/>
      <path class="b" d="M457.99,155.17h-10.47c0-2.55-1.17-4.73-3.52-6.53-2.35-1.8-5.08-2.7-8.2-2.7-3.56,0-6.43.75-8.6,2.25-2.17,1.5-3.25,3.42-3.25,5.77,0,.77.15,1.5.45,2.18.3.68.68,1.27,1.14,1.76.46.49,1.08.97,1.87,1.43s1.54.84,2.27,1.14c.73.3,1.65.62,2.76.96s2.09.62,2.92.82c.83.21,1.89.48,3.16.8,1.28.33,2.32.59,3.12.8,2.11.56,3.97,1.17,5.57,1.83,1.6.65,3.2,1.49,4.79,2.52,1.59,1.03,2.89,2.18,3.9,3.48,1.01,1.29,1.83,2.87,2.45,4.74.62,1.87.94,3.97.94,6.28,0,4.13-1.05,7.65-3.16,10.56-2.11,2.91-4.86,5.04-8.26,6.39-3.4,1.35-7.26,2.03-11.56,2.03-2.88,0-5.56-.23-8.04-.69-2.48-.46-4.76-1.2-6.84-2.23-2.08-1.02-3.85-2.29-5.3-3.81-1.46-1.52-2.59-3.37-3.41-5.57-.82-2.2-1.23-4.66-1.23-7.4h11.32c.36,3.15,1.81,5.64,4.37,7.46,2.55,1.83,5.6,2.74,9.13,2.74,1.9,0,3.76-.35,5.59-1.05,1.83-.7,3.39-1.77,4.68-3.21,1.29-1.44,1.94-3.05,1.94-4.83,0-2.55-.85-4.5-2.54-5.84-2.7-1.96-7.66-3.67-14.88-5.12-3.15-.65-5.96-1.6-8.42-2.85-6.06-2.94-9.09-7.96-9.09-15.06,0-3.68.97-6.87,2.92-9.56,1.95-2.69,4.54-4.69,7.8-5.99s6.94-1.96,11.07-1.96c7.1,0,12.65,1.63,16.64,4.9,3.99,3.27,5.99,7.78,5.99,13.54Z"/>
      <path class="b" d="M487.44,201.69c-6.77,0-12.05-2.74-15.84-8.22-3.79-5.48-5.68-13.63-5.68-24.44s1.86-19.05,5.57-24.35c3.71-5.3,9.03-7.95,15.95-7.95s12.25,2.65,15.97,7.95c3.73,5.3,5.59,13.42,5.59,24.35s-1.89,18.96-5.68,24.44c-3.79,5.48-9.08,8.22-15.88,8.22ZM487.26,191.75c4.07,0,6.94-1.82,8.62-5.46,1.68-3.64,2.52-9.36,2.52-17.18s-.85-13.41-2.56-16.98-4.57-5.35-8.58-5.35-6.62,1.79-8.29,5.37c-1.66,3.58-2.49,9.23-2.49,16.95s.82,13.54,2.45,17.18c1.63,3.64,4.41,5.46,8.33,5.46Z"/>
      <path class="b" d="M549.46,137.66h10.6v63.22h-10.96l-19.34-42.24v42.24h-10.6v-63.22h11.23l19.07,42.15v-42.15Z"/>
    </g>
  </g>
</svg>