<?xml version="1.0" encoding="UTF-8"?>
<svg id="a" data-name="Layer 1" xmlns="http://www.w3.org/2000/svg" width="213.54" height="213.54" viewBox="0 0 213.54 213.54">
  <defs>
    <style>
      .b {
        fill: #ce9c38;
      }
    </style>
  </defs>
  <path class="b" d="M183.23,166.78c-9.61-4.76-36.91-12.95-38.95-26.31-1.34-8.84-10.99-13.78-21.33-16.47l-.02-.98c-.63-26.7-16.1-39.16-31.16-47.83-6.3-3.63-9.66-9.47-8.97-15.64.7-6.29,5.3-11.48,12-13.55l2.3-.71-4.37-16.36-2.4.61c-15.15,3.87-24.21,15.3-24.31,29.91-10.52-11.03-10.68-28.79-.1-48.8l1.16-2.2L51.31,0l-1.15,2.3c-17.75,35.58-6.16,56.79-.35,64.25,6.02,7.77,14.77,13.28,23.22,18.25h0c.38.23,1.02.55,1.85.97,6.69,3.39,26.3,13.35,25.65,30.33-10.24-22.34-28.73-3.67-47.55-22.13-3.83,31.19,9.87,45.6,38.77,45.51-7.64,4.76-16.79,6.51-27.74,4.62-24.06,19.69-35.93,43.55-41.89,69.44h19.76c4.28-20.29,12.93-38.34,28.24-52.13-11.68,16.62-16.1,34.07-15.17,52.13h59.39c-.9-3.42-1.48-7.2-1.7-11.39-13.21-3.57-24.51-10.69-19.37-29.88,1.45,14.38,10.72,21.14,19.89,23.06,9.7,2.06,19.98-5.34,30.32-7.81,9.7-2.32,19.57.09,26.6,7.52,24.66-9.24,26.4-21.72,13.16-28.26ZM125.81,150.62c-4.48-2.01-7-8.78-11.11-11.02,4.71,1.51,11.39-1.14,15.64.78,4.85,2.15,7.18,8.64,11.66,11.39-5.12-1.23-11.57.91-16.19-1.14Z"/>
  <path class="b" d="M170.83,57.54l.11,2.54c.47,10.59-3.71,17.87-13.08,22.64-.17-8.57-3.28-15.61-9.45-21.43l-1.65-1.55-13.13,11.39,1.81,1.9c3.52,3.68,5.33,7.22,5.25,10.23-.06,2.08-1.01,4-2.83,5.71-2.06,1.92-4.95,3.56-7.75,5.14-1.99,1.12-3.89,2.2-5.52,3.38,2.87,4.99,4.99,10.83,5.99,17.79,6.37-6.99,15.24-10.22,23.85-13.34,16.26-5.91,33.07-12.02,33.36-42.28l.02-2.6-16.98.5Z"/>
</svg>