<?xml version="1.0" encoding="UTF-8"?>
<svg id="a" data-name="Layer 1" xmlns="http://www.w3.org/2000/svg" width="404.35" height="296.99" viewBox="0 0 404.35 296.99">
  <defs>
    <style>
      .b {
        fill: #21b892;
      }
    </style>
  </defs>
  <path class="b" d="M398.92,172.51c-5.95,4.47-14.4,3.26-18.87-2.7-16.47-22.14-42.48-35.15-70.08-35.04-5.42,0-10.31-3.25-12.42-8.24-1.41-3.35-1.41-7.13,0-10.48,2.11-4.99,7-8.24,12.42-8.24,22.33,0,40.43-18.1,40.43-40.43,0-22.33-18.1-40.43-40.43-40.43-18.43,0-34.53,12.47-39.14,30.32-1.86,7.21-9.21,11.55-16.42,9.69s-11.55-9.21-9.69-16.42c9.31-36.03,46.07-57.69,82.1-48.38,36.03,9.31,57.69,46.07,48.38,82.1-3.26,12.62-10.12,24.03-19.74,32.84,18.33,7.93,34.26,20.53,46.21,36.52,4.46,5.96,3.24,14.41-2.72,18.86,0,0-.02.01-.03.02Z"/>
  <path class="b" d="M308.15,276.28c-13.07-22.45-32.99-40.12-56.84-50.4,5.66-4.33,10.72-9.39,15.05-15.05,27.15-35.46,20.41-86.21-15.05-113.36-35.46-27.15-86.21-20.41-113.36,15.05-27.15,35.46-20.41,86.21,15.05,113.36-23.85,10.29-43.77,27.95-56.84,50.4-.2.32-.39.65-.57.98-3.45,6.6-.9,14.74,5.69,18.19,6.6,3.45,14.74.9,18.19-5.69,8.24-13.96,19.89-25.61,33.85-33.85,45.66-26.97,104.54-11.81,131.51,33.85.18.34.37.66.57.98,3.99,6.28,12.32,8.14,18.6,4.14,6.28-3.99,8.14-12.32,4.14-18.6ZM202.16,215.63c-29.77,0-53.91-24.14-53.91-53.91s24.14-53.91,53.91-53.91,53.91,24.14,53.91,53.91-24.14,53.91-53.91,53.91Z"/>
  <path class="b" d="M107.82,121.29c0-7.44-6.03-13.48-13.48-13.48-22.33,0-40.43-18.1-40.43-40.43,0-22.33,18.1-40.43,40.43-40.43,18.43,0,34.53,12.47,39.14,30.32,1.86,7.21,9.21,11.55,16.42,9.69s11.55-9.21,9.69-16.42h0C150.29,14.51,113.54-7.15,77.5,2.16,41.47,11.47,19.81,48.23,29.12,84.26c3.26,12.62,10.12,24.03,19.74,32.84-18.31,7.94-34.22,20.53-46.16,36.52-4.47,5.95-3.27,14.41,2.69,18.88,5.95,4.47,14.41,3.27,18.88-2.69,16.47-22.14,42.48-35.15,70.08-35.04,7.44,0,13.48-6.03,13.48-13.48Z"/>
</svg>