<?xml version="1.0" encoding="UTF-8"?>
<svg id="a" data-name="Layer 1" xmlns="http://www.w3.org/2000/svg" width="494.39" height="434.15" viewBox="0 0 494.39 434.15">
  <defs>
    <style>
      .b {
        fill: #21b892;
      }
    </style>
  </defs>
  <path class="b" d="M477.44,101.69h-5.65V16.95c0-9.36-7.59-16.95-16.95-16.95-5.23,0-10.16,2.41-13.37,6.54l-79.09,101.69c-5.75,7.39-4.42,18.04,2.97,23.78,2.98,2.32,6.64,3.57,10.41,3.57h62.14v16.95c0,9.36,7.59,16.95,16.95,16.95s16.95-7.59,16.95-16.95v-16.95h5.65c9.36,0,16.95-7.59,16.95-16.95s-7.59-16.95-16.95-16.95ZM437.9,101.69h-27.48l27.48-35.31v35.31Z"/>
  <path class="b" d="M382.66,406.51c-31.42-37.37-70.47-63.91-113.76-78.12,66.99-41.73,87.48-129.86,45.75-196.86-41.73-66.99-129.86-87.48-196.86-45.75-66.99,41.73-87.48,129.86-45.75,196.86,11.55,18.55,27.2,34.2,45.75,45.75-43.4,14.21-82.45,40.75-113.84,78.12-5.98,7.11-5.06,17.72,2.05,23.7,7.11,5.98,17.72,5.06,23.7-2.05,42.18-50.35,100.31-78.07,163.55-78.07s121.37,27.72,163.67,78.07c5.98,7.11,16.59,8.03,23.7,2.05,7.11-5.98,8.03-16.59,2.05-23.7ZM83.95,207.17c0-60.36,48.93-109.28,109.28-109.28s109.28,48.93,109.28,109.28-48.93,109.28-109.28,109.28c-60.33-.07-109.21-48.96-109.28-109.28Z"/>
</svg>