<?xml version="1.0" encoding="UTF-8"?>
<svg id="a" data-name="Layer_1" xmlns="http://www.w3.org/2000/svg" width="386.19" height="389.74" viewBox="0 0 386.19 389.74">
  <defs>
    <style>
      .b {
        fill: #00a959;
      }
    </style>
  </defs>
  <path class="b" d="M216.58,0c7.56,2.46,10.42,7.62,10.06,15.53-.46,10.1-.08,20.24-.12,30.37-.03,7.42-4.63,12.6-11.13,12.7-6.38.1-11.42-5.15-11.52-12.44-.15-11.12-.02-22.24-.05-33.36-.02-6.8,3.98-10.47,9.78-12.8h2.99Z"/>
  <path class="b" d="M215.63,306.86c1.68,4.35,3.5,8.44,4.86,12.67,5.15,16.09-.38,33.52-15.23,41.37-18.73,9.89-38.07,18.81-57.74,26.63-15.22,6.05-31.76-.76-40.77-14.65-3.15-4.86-5.75-10.07-8.91-15.67-2.7,1.11-5.5,2.31-8.34,3.42-14.5,5.67-28.8,11.95-43.56,16.85-27.36,9.07-53.08-17.2-44.15-43.67,6.94-20.55,14.79-40.81,22.8-60.97,23.69-59.61,47.56-119.14,71.61-178.61,6.49-16.05,19.05-24.8,36.26-26.3,22.05-1.92,42.01,5.26,60.74,15.8,46.91,26.4,83.03,63.22,105.56,112.49,6.81,14.89,10.84,30.61,8.77,47.37-2.15,17.35-11.8,28.76-27.47,35.52-20.24,8.73-40.54,17.35-60.8,26.02-1.19.51-2.34,1.11-3.64,1.74ZM99.65,147.29c-.4.76-.72,1.26-.94,1.8-24.05,60.19-48.13,120.36-72.08,180.59-1.7,4.27-2.96,8.85-3.54,13.41-1.04,8.2,5.74,14.69,13.81,13.07,5.96-1.2,11.89-3.08,17.5-5.45,46.88-19.82,93.68-39.82,140.5-59.79,11.65-4.97,23.27-10,35.25-15.14-59.92-26.51-103.02-69.24-130.5-128.48ZM257.6,258.48c20.58.15,28.89-7.45,27.54-23.99-.82-10.04-3.35-20.46-7.5-29.63-19.43-43.03-51.15-75.14-91.38-99.11-13.47-8.02-27.81-14-43.73-15.43-18.63-1.67-29.14,8.76-26.33,27.21,1.21,7.96,2.96,16.14,6.2,23.45,21.06,47.49,55.75,82.3,101.29,106.59,11.78,6.28,24.3,10.61,33.9,10.91ZM194.64,315.63c-25.66,10.99-50.58,21.66-75.7,32.41,1.14,2.29,1.98,4.08,2.91,5.81,1.18,2.19,2.34,4.4,3.7,6.48,3.64,5.55,9.48,8.23,15.47,5.61,17.61-7.69,35.05-15.78,52.36-24.13,5.2-2.51,7.49-8.84,5.95-14.08-1.15-3.93-2.94-7.67-4.68-12.1Z"/>
  <path class="b" d="M340.11,59.09c-1.37,2.54-2.26,5.53-4.18,7.54-8.02,8.4-16.26,16.59-24.58,24.69-4.83,4.7-11.58,4.69-16.07.35-4.51-4.37-4.72-11.2-.04-16.04,8.19-8.47,16.56-16.76,24.98-25.01,3.65-3.57,8.08-4.55,12.81-2.29,4.26,2.04,6.47,5.55,7.09,10.75Z"/>
  <path class="b" d="M357.22,182.69c-5.8,0-11.61.13-17.41-.03-6.66-.19-11.23-4.54-11.47-10.61-.26-6.4,4.07-11.5,10.87-11.68,12.09-.31,24.21-.3,36.3.02,6.65.18,10.76,4.98,10.68,11.3-.08,6.24-4.44,10.72-11.07,10.94-5.96.2-11.94.04-17.91.04,0,0,0,.01,0,.02Z"/>
</svg>