<?xml version="1.0" encoding="UTF-8"?>
<svg xmlns="http://www.w3.org/2000/svg" version="1.1" viewBox="0 0 383.3 372.5">
  <defs>
    <style>
      .cls-1 {
        fill: #01a95b;
      }
    </style>
  </defs>
  <!-- Generator: Adobe Illustrator 28.7.5, SVG Export Plug-In . SVG Version: 1.2.0 Build 176)  -->
  <g>
    <g id="a">
      <path class="cls-1" d="M383.3,212.5v108.6c-5.1,12.3-9.5,15.2-23,15.2s-13.5,0-20.2,0c-2.1,0-3,.7-3.7,2.7-7,20.6-24.4,33.5-45.1,33.6-20.7.1-38.5-13-45.4-33.7-.7-2.1-1.6-2.6-3.7-2.6-35.8,0-71.6,0-107.4,0-2.3,0-3.2.8-3.8,2.9-6.4,20.1-24.6,33.5-45.2,33.4-20.6,0-38.7-13.4-45.2-33.5-.7-2.2-1.8-2.8-3.9-2.8-6.2.1-12.5.2-18.7,0-9.9-.4-17.8-8.2-17.8-18.1C0,275.7,0,233.4,0,191.1c0-7.9,5.3-14.8,12.8-17.2,1.8-.6,3.6-.9,5.5-1.3v-90.1C5,79.7,0,73.6,0,60.1V20.8C0,7.7,7.6,0,20.6,0c68.5,0,137,0,205.5.1,6.6,0,13.5,1,19.9,2.9,26.3,7.6,44.7,32.6,44.8,59.8,0,11.1-7.9,19.2-19,19.4-1.4,0-2.9,0-4.3,0,0,.7,0,1,.1,1.2,12,29.1,24.1,58.2,36.3,87.3.4,1.1,2.4,2.1,3.6,2.1,10.2.2,20.5,0,30.7.1,15,.2,27.2,6.4,36.3,18.4,4.8,6.3,7,13.6,8.8,21.2h0ZM22.6,313.8c4.7,0,9-.1,13.4,0,2.6.1,3.8-.6,4.7-3.3,6.2-19.5,24.5-32.8,44.9-32.9,20.5,0,38.7,13,45.1,32.5.9,2.8,2,3.6,4.9,3.6,35.3-.1,70.6-.1,105.9,0,2.9,0,4-1,4.8-3.7,6.2-19,23.9-32.1,43.6-32.5,21.4-.5,39.6,12.6,46.5,33.2.4,1.1,1.5,2.7,2.2,2.8,7.3.2,14.6.1,22.2.1v-3.8c0-30.2,0-60.4,0-90.6,0-14.6-9.5-24-24.2-24-24.7,0-49.4,0-74.1,0h-4.4v4.5c0,14.1,0,28.2,0,42.3,0,8.8-4.4,13.1-13.1,13.1-37.2,0-74.4,0-111.5,0-5.6,0-9.4-2-12.4-6.7-10.7-16.8-21.7-33.5-32.4-50.3-1.4-2.1-2.8-3-5.3-3-19,.1-37.9,0-56.9,0-1.2,0-2.4.1-3.8.2v118.2h0ZM280.2,172.9c-.6-1.7-1-2.9-1.5-4-11.5-27.7-23-55.4-34.4-83.2-1.2-2.9-2.6-3.5-5.5-3.5-64.5,0-129,0-193.5,0h-4.1v90.7h4.3c14.8,0,29.7.1,44.5,0,6.1,0,10.3,2.1,13.6,7.3,10.4,16.6,21.2,32.9,31.7,49.4,1.5,2.4,3,3.4,5.9,3.3,29.9-.1,59.9,0,89.8,0h4.1c.1-1,.3-1.6.3-2.2,0-13.1,0-26.2,0-39.3,0-1.4-1-3.1-2.1-4-7.2-6.9-14.6-13.6-22-20.3-1.1-1-2.2-1.9-3.4-2.9-2.1,2.3-3.8,4.2-5.6,6.1-4.8,5.1-11.5,5.7-16.3,1.5-4.9-4.3-5-11.4-.2-16.7,9.3-10.4,18.7-20.8,28.1-31.1,4.7-5.2,11.5-5.8,16.3-1.7,5,4.3,5.2,11.1.4,16.7-2.4,2.8-4.9,5.5-7.5,8.5,9.2,8.4,18.1,16.6,27,24.8.6.5,1.6.8,2.4.8,9,0,18,0,27.5,0h0ZM22.5,59.5h245.7c-.2-1.5-.3-2.7-.6-3.9-4.2-20.2-20.6-33.1-42.1-33.1-66.4,0-132.8,0-199.1,0-1.2,0-2.4.1-3.7.2,0,.9-.2,1.5-.2,2.1v34.7h0ZM316,325.1c0-13.9-11-25-24.9-25s-24.8,10.9-24.9,24.6c-.1,13.8,10.9,25.1,24.7,25.3,13.6.2,25-11.1,25.1-24.9h0ZM85.9,300.1c-13.7,0-25.1,11.2-25.1,24.9,0,13.7,11.2,25,25,25,13.7,0,24.8-11.1,24.9-24.7.1-13.7-11.1-25.1-24.8-25.2h0Z"/>
    </g>
  </g>
</svg>