<?xml version="1.0" encoding="UTF-8"?>
<svg id="a" data-name="Layer 1" xmlns="http://www.w3.org/2000/svg" width="356.42" height="360.82" viewBox="0 0 356.42 360.82">
  <path d="M303.78,43.67c21.35-.45,32.38,8.15,37.49,28.69,6.44,25.86,8.7,54.04,14.97,80.09.98,10.66-2.17,12.63-7.85,20.42-45.69,62.73-95.54,122.91-142.58,184.53-8.93,6.11-15.17,3.21-23.06-2.26-38.78-26.86-75.19-60.14-113.87-87.49-5.82-4.92-8.07-12.27-5.27-19.51L211.85,54.29l3.59-2.4c28.91-5.15,59.01-5,88.34-8.21ZM294.79,77.28c-19.8,1.58-18.18,31.76,1.25,31.31,21.12-.49,19.19-32.94-1.25-31.31ZM299.22,143.22c-1.87-2.21-6.26-2.35-8.4-.23l-15.67,20.29-1.4.58-47.7-36.17c-6.06-2.33-11.01,4.78-6.64,9.64l51.64,39.68c4.14,2.36,5.9,2.38,9.32-1.05,4.22-4.24,15.29-18.91,18.51-24.16,1.69-2.75,2.74-5.74.34-8.58ZM198.87,159.7c-5.05.31-6.27,5.84-4.12,9.77,13.67,16.53,24.36,38.65,38.09,54.73,5.45,6.39,12.72,3.01,11.05-4.32-.86-3.78-10.79-12.82-9.22-16.22l11.6-14.62c1.81-.78,14.32,5.99,18.3,5.61,6.15-.6,6.81-10.26.65-11.8-20.49-6.12-40.8-15.85-61.18-21.9-1.46-.43-3.76-1.32-5.16-1.24ZM231.12,231.54c-2.24-2.24-5.18-1.94-7.65-.2-3.83,2.7-15.83,21.65-17.21,21.69l-16.08-12.39c-.33-1.41,9.45-12.1,10.53-14.88,2.19-5.64-3.49-10.19-8.71-7.19-2.52,1.45-10.17,13.99-11.24,14.25l-16.77-12.33c-.05-1.42,15.69-18.42,16.88-22.83,1.45-5.38-5.52-9.82-9.92-5.75-2.88,5.92-20.93,24.35-21.19,29.39-.08,1.58.95,3.25,1.73,4.57l51.48,39.46c3.24,2.56,6.15,2.45,9.22-.37,2.05-1.88,18.24-23.05,19.44-25.46,1.28-2.56,1.71-5.73-.5-7.95ZM143.59,239.02c-4.69.43-10.38,3.19-13.72,6.51-1.48,1.47-11.42,14.43-11.92,15.78-1.29,3.51.27,6.02,2.98,8.18,16.61,10.82,32.19,26.94,48.77,37.31,2.88,1.8,4.52,3.48,8.28,1.82,1.21-.53,10.5-12.54,11.72-14.47,4.53-7.19,5.84-14.95,2.07-22.9-2.77-5.84-27.21-24.46-33.72-28.41-4.59-2.78-9.05-4.32-14.48-3.82Z"/>
  <path d="M289.71,32.96l-69.15,5.34c-8.95,1.31-13.97,4.17-19.9,10.79l-100.82,131.22-85.96.12c-7.26-.82-13.43-7.25-13.88-14.57V13.86C1.7,6.24,8.26.52,16.09,0l238.06.04c7.22.42,11.87,6.36,16.49,11.21,6.61,6.94,12.58,14.67,19.08,21.71ZM56.68,140.52L121.91,49.67c5.03-6.57-2.9-13.81-8.85-8.1l-64.68,90.26c-5.36,6.09,2.29,13.81,8.31,8.68ZM55.22,44.37c-2.98.55-7.46,4.13-9.11,6.61-7.32,11.02,2.51,25.84,15.49,23.72,19.53-3.19,15.78-34.42-6.39-30.34ZM107.62,106.5c-17.78,3.02-14.91,32.36,4.97,30.43,20.32-1.97,17.46-34.25-4.97-30.43Z"/>
  <path d="M143.56,250.96c2.96-.51,5.32.06,7.93,1.45,6.43,7.09,23.47,15.27,28.51,22.39,5.54,7.82-.98,13.83-5.54,19.84l-42.36-31.87c2.08-3.94,6.93-11.03,11.46-11.8Z"/>
  <polygon points="234.32 184.18 227.65 194.17 226.1 194.65 215.61 178.19 234.32 184.18"/>
</svg>