<?xml version="1.0" encoding="UTF-8"?>
<svg id="a" data-name="Layer_1" xmlns="http://www.w3.org/2000/svg" width="511" height="511.04" viewBox="0 0 511 511.04">
  <defs>
    <style>
      .b {
        fill: #00a95a;
      }
    </style>
  </defs>
  <path class="b" d="M353.31,0c2.99,0,5.99,0,8.98,0,3.5,2.7,7.28,5.11,10.43,8.17,9.38,9.11,18.51,18.49,27.93,27.95,9.39-9.4,18.41-18.65,27.7-27.64,3.27-3.16,7.17-5.67,10.79-8.48,2.66,0,5.32,0,7.98,0,13.52,8,14.69,17.52,3.5,28.7-9.5,9.5-19.02,18.98-28.77,28.71,9.74,9.67,19,19.23,28.69,28.33,6.15,5.77,9.15,12.13,6.64,20.45-2.13,7.02.28,12.4,4.67,18.06,15.28,19.69,30.16,39.7,44.87,59.83,2.29,3.14,4.07,7.52,4.08,11.33.22,87.3.25,174.6.12,261.9-.04,28.78-24.37,53.53-52.89,53.6-74.5.19-148.99.18-223.49,0-28.05-.07-52.58-24.69-52.7-52.67-.02-5.71-1.19-9.67-6.32-12.6-2.81-1.61-4.99-4.35-7.34-6.7-47.16-47.14-94.19-94.42-141.55-141.36-12.21-12.1-23.55-24.37-26.63-42.07,0-5.32,0-10.65,0-15.97.35-.89.83-1.75,1.03-2.67,2.23-10.5,6.93-19.73,14.51-27.32,61.11-61.18,122.24-122.35,183.53-183.35,2.61-2.6,6.76-4.32,10.46-5.01,10.6-1.98,21.33-3.23,32.01-4.75,26.79-3.81,53.59-7.56,80.38-11.44C332.4,3.46,342.85,1.67,353.31,0ZM379.1,56.92c-8.15-8.12-16.47-16.46-24.92-24.68-.76-.74-2.39-1.04-3.53-.89-11.68,1.55-23.35,3.22-35.02,4.89-31.55,4.52-63.11,9.03-94.64,13.68-2.11.31-4.51,1.36-5.99,2.85-59.11,58.95-118.15,117.95-177.13,177.03-10.66,10.68-10.7,25.41-.13,36.01,51.45,51.55,102.95,103.05,154.5,154.51,10.4,10.38,25.29,10.47,35.66.12,59.2-59.09,118.32-118.26,177.41-177.46,1.31-1.31,2.5-3.26,2.76-5.05,6.25-43.37,12.39-86.75,18.46-130.14.18-1.29,0-3.16-.81-3.99-8.17-8.45-16.51-16.73-23.91-24.17-7.25,7.2-14.14,14.04-21.44,21.29,2.8,2.65,6.17,5.62,9.29,8.82,6.17,6.34,6.38,15.54.66,21.49-5.92,6.15-15.33,6.24-21.84-.17-13.98-13.77-27.86-27.64-41.62-41.63-6.23-6.33-6.18-15.62-.34-21.49,6.01-6.03,15.34-5.89,21.84.51,3.28,3.23,6.29,6.73,9.26,9.94,7.58-7.58,14.39-14.37,21.49-21.46ZM450.23,159.17c-.47,1.35-.87,2.09-.98,2.87-3.77,26.63-7.51,53.26-11.26,79.88-.97,6.91-2.08,13.41-7.58,18.89-59.89,59.59-119.58,119.4-179.34,179.12-2.11,2.11-4.32,4.15-6.63,6.04-9.42,7.76-20.54,11.23-32.5,12.29,1.94,14.14,11.72,22.78,25.93,22.78,72.18.05,144.36.05,216.55,0,15.97,0,26.63-10.64,26.64-26.59.04-83.66.04-167.32-.08-250.97,0-2.27-.94-4.9-2.29-6.75-8.32-11.42-16.88-22.66-25.38-33.95-.85-1.13-1.83-2.17-3.09-3.63Z"/>
  <path class="b" d="M274.73,128.35c-.57,2.18-1.05,4.61-1.83,6.95-22.81,68.56-45.67,137.11-68.45,205.69-2.1,6.32-5.09,11.69-12.13,13.2-12.05,2.59-21.3-8.19-17.33-20.35,6.8-20.8,13.82-41.53,20.74-62.29,16.31-48.91,32.6-97.82,48.92-146.73,2.57-7.7,7.77-11.87,14.72-11.97,6.55-.09,12.19,3.92,14.31,10.32.51,1.55.66,3.22,1.04,5.17Z"/>
  <path class="b" d="M308.99,278.61c-24.88.04-45.18-20.18-45.12-44.95.06-24.49,20.31-44.83,44.76-44.94,24.74-.12,45.21,20.11,45.38,44.84.17,24.7-20.13,45.02-45.02,45.06ZM294.21,233.8c.03,8.3,6.64,14.86,14.89,14.78,8.21-.09,14.66-6.8,14.54-15.13-.12-8.07-6.62-14.58-14.64-14.64-8.16-.06-14.82,6.68-14.79,14.99Z"/>
  <path class="b" d="M139.67,278.6c-25.01.06-44.98-19.89-44.96-44.91.02-24.68,19.97-44.83,44.52-44.98,24.76-.15,45.26,20.1,45.34,44.78.08,24.86-20,45.03-44.89,45.1ZM139.36,248.58c8.05.1,14.98-6.61,15.13-14.64.15-7.91-6.75-14.97-14.76-15.11-7.95-.14-14.94,6.71-15.03,14.74-.09,8.14,6.52,14.92,14.66,15.01Z"/>
</svg>