<?xml version="1.0" encoding="UTF-8"?>
<svg id="a" data-name="Layer 1" xmlns="http://www.w3.org/2000/svg" width="640.19" height="815.85" viewBox="0 0 640.19 815.85">
  <path d="M493.95,289.71c24.23-14.34,35.18-72.96,72.05-53.01,29.44,15.93,55.1,98.79,61.72,130.69,30.91,148.84,8.88,300.68-117.61,396.85-19.68,14.97-70.38,45.92-93.76,49.63-20.21,3.21-39.15-7.51-38.73-29.5.31-16.5,12.2-50.6,15.61-69.85,11.48-64.78,15.2-140.91-12.1-202.18-3.04-6.82-7.07-16.15-12.43-21.13,2.59,57.05-9.02,114.62-35.38,165.23-18.47,35.47-31.65,58.73-71.58,29.76-30.02-21.78-40.26-43.8-61.34-71.07-1.17-1.52.02-3.31-4.15-2.28-2.2,44.01.78,83.08,16.3,124.37,7.94,21.15,29.44,46.13,14.56,67.14-16.96,23.96-47.34,4.76-66.58-6.05C-25.97,693.43-25.2,454.14,38.76,274.74c4.98-13.98,17.53-49.22,25.83-59.49,13.16-16.27,40.35-14.18,49.06,5.47,3.32,7.49,1.75,13.2,3.52,20.07,7.01,27.27,30.88,49.14,51.28,66.87,5.58,1.48,16.41-16.95,19.46-21.73,50.37-79.06,33.22-173.53-13.05-249.85-3.23-17.37,8.37-33.12,25.9-35,76.48-8.19,173.47,30.66,221.28,90.96,43.34,54.66,68.97,128.04,71.91,197.67Z"/>
</svg>