<?xml version="1.0" encoding="UTF-8"?>
<svg id="Layer_1" xmlns="http://www.w3.org/2000/svg" version="1.1" viewBox="0 0 32 32">
  <!-- Generator: Adobe Illustrator 29.3.1, SVG Export Plug-In . SVG Version: 2.1.0 Build 151)  -->
  <defs>
    <style>
      .st0 {
        fill: #d09d3a;
      }
    </style>
  </defs>
  <path class="st0" d="M22,12.5c0,.8-.7,1.5-1.5,1.5s-1.5-.7-1.5-1.5.7-1.5,1.5-1.5,1.5.7,1.5,1.5ZM16.5,15c-.8,0-1.5.7-1.5,1.5s.7,1.5,1.5,1.5,1.5-.7,1.5-1.5-.7-1.5-1.5-1.5ZM27,12c0,6.1-4.9,11-11,11s-11-4.9-11-11S9.9,1,16,1c6.1,0,11,4.9,11,11ZM25,12c0-5-4-9-9-9S7,7,7,12s4,9,9,9c5,0,9-4,9-9ZM20.6,24.1c-1.6.6-3.2.9-4.6.9s-3-.3-4.6-.9c-.5-.2-1.1,0-1.3.6s0,1.1.6,1.3c0,0,0,0,0,0,1.4.5,2.9.9,4.4,1v4c0,.6.4,1,1,1s1-.4,1-1v-4c1.5-.1,3-.5,4.4-1,.5-.2.8-.8.6-1.3-.2-.5-.8-.8-1.3-.6,0,0,0,0,0,0Z"/>
</svg>