<?xml version="1.0" encoding="UTF-8"?>
<svg id="a" xmlns="http://www.w3.org/2000/svg" version="1.1" viewBox="0 0 494.6 438.5">
  <!-- Generator: Adobe Illustrator 29.3.1, SVG Export Plug-In . SVG Version: 2.1.0 Build 151)  -->
  <defs>
    <style>
      .st0 {
        fill: #262626;
      }
    </style>
  </defs>
  <path class="st0" d="M217.8,438.5c-7.8-.4-15.6-.9-23.3-1.3-15.9-1-31.9-1.5-47.8-3-30.5-2.8-60.8-6.8-90.4-14.9-12.8-3.5-25.2-8.3-37.4-13.4-5.2-2.2-10-6.1-14.1-10.1-6.4-6.2-6.7-14,0-19.7,6.6-5.6,14.2-10.5,22.2-13.9,22.4-9.7,46.3-14.3,70.2-18.3,6.5-1.1,13-2.1,20.2-3.2-7.6-11.4-15-22-21.8-32.9-2-3.1-3.2-7.4-3-11.1.3-5.4,4.2-9,9.5-10.3,5.5-1.4,10.3.5,13.6,5.1,4.8,6.8,9.3,13.8,14,20.6,4.7,7,9.6,14,14.1,21.2,1.9,3,3.9,4.2,7.6,3.8,9.1-.9,9-.7,11.6-9.6,5.5-18.9,14.2-36.2,26.9-51.3,2.7-3.2,2.9-5.3.5-8.9-41.9-62.3-83.7-124.8-125.5-187.2-1.7-2.6-3.3-5.5-3.9-8.4-1.2-5.7,1.9-11,7.1-13.5,5.1-2.4,11.2-1.3,15.1,3,1.2,1.3,2.2,2.9,3.2,4.4,47.2,70.4,94.4,140.9,141.5,211.3,1.5,2.2,2.9,4.5,3.6,7,1.5,5.5-.7,10.9-5.3,13.9-4.4,3-10.4,2.8-15-.5-.9-.7-1.8-1.5-3-2.5-12,15.5-19.6,32.6-22.9,52.1,16.4,3,27,11.7,28.2,28.5,1.2,16.3-7.8,26.4-24,32.1,1.9,1.5,3.1,3.2,4.3,3.2,12.9.2,25.9.1,39.1.1-1.9-7.8-1-15.7,5.9-22,4.4-4,9.6-5.6,15.6-5.2,12.8.9,19.6,11.3,17.7,28.6,22.1-1.1,44.1-2.2,66.6-3.4-1.5-9.5-.4-18.1,7-23.6,4-3,9.5-5.2,14.4-5.5,12.8-.9,21.2,7.9,23.4,23.6,7.9-1.3,15.9-2.5,23.8-4,9.3-1.7,9.3-1.8,11-11.3,8.5-49.1-13.8-97.4-56.7-123-2.7-1.6-5.3-4.1-7-6.7-24.4-36.7-48.6-73.4-72.9-110.2-1.6-2.5-3.2-5.2-3.9-8-1.3-5.5,1.7-11.1,6.8-13.7,4.9-2.5,11.3-1.6,15.1,2.5,1.7,1.8,3,3.9,4.4,6,23.6,35.2,47.2,70.4,70.8,105.6,1.6,2.4,3.9,4.6,6.2,6.2,36.5,25.2,57.9,59.7,63.7,103.7.4,3,1.6,4.1,4.3,5.1,9.5,3.5,19,7,28.1,11.3,4.8,2.3,9.2,6,13,9.9,5.3,5.5,5.4,12.4.1,17.9-3.9,4.1-8.7,7.8-13.7,10.5-17.2,9.4-36.1,14.6-55.2,17.9-24.5,4.2-49.2,7.7-74,10.4-19.6,2.1-39.5,2.6-59.2,3.9-4.3.3-8.6.7-12.9,1h-57.9,0Z"/>
  <path class="st0" d="M250.3,260.6c-4.8-7.2-9.5-14.2-14.9-22.2,11.1-4.2,21.8-8.2,32.9-12.3-.8-1.3-1.6-2.8-2.6-4.3-24.3-36.3-48.7-72.6-72.9-109-1.5-2.3-3-4.9-3.6-7.6-1.3-5.9,1.9-11.4,7.2-13.9,5.3-2.5,11.5-1.2,15.3,3.5,2.1,2.6,3.9,5.4,5.8,8.1,32.1,47.3,64.1,94.7,96.2,142.1.9,1.3,1.7,2.8,2.9,4.7-23.5-2.9-45.2,1.1-66.3,10.8h0Z"/>
  <path class="st0" d="M60.6,215.9c2,1.4,6.3,3.1,8.6,6.2,7.9,10.9,15.3,22.1,22.6,33.4,4.3,6.6,2.5,14.4-3.7,18.4-6.1,3.9-13.5,2.3-17.9-4.1-7.5-11-14.8-22-22.2-33.1-3-4.5-3.5-9.3-.7-14.1,2.4-4.2,6.3-6.2,13.2-6.8Z"/>
  <path class="st0" d="M332.6,356.7c0,11.5-8.9,20.7-20.4,20.8-11.7,0-21.1-9.3-21-20.8.1-11.4,9.5-20.7,20.7-20.6,11.4,0,20.6,9.3,20.6,20.7h0Z"/>
  <path class="st0" d="M239.2,304.9c11.5,0,20.5,9.2,20.4,20.6-.1,11.2-9.2,20.1-20.4,20.1-11.5,0-20.4-9.1-20.3-20.7.1-11.3,9.1-20.1,20.4-20.1Z"/>
  <path class="st0" d="M176.3,78.2c-8.4,1.6-20.4-16.8-16.7-24.6,4.1-8.7,15.3-11.2,21.7-3.9,2.6,3,4.9,6.3,6.6,9.9,4.3,8.7-2,18.6-11.6,18.6Z"/>
  <path class="st0" d="M286.9,289.7c-8.3-.1-15.1-7.1-15-15.4.1-8.2,7.4-15.2,15.5-15,8.3.2,15.1,7.3,15,15.5-.1,8.3-7.2,15-15.5,14.9h0Z"/>
  <path class="st0" d="M398.4,344.8c0,6-4.5,10.8-10.6,10.9-6.2.1-11.2-4.8-11.1-10.9.1-5.9,5.1-10.8,10.9-10.7,5.9,0,10.7,4.9,10.8,10.8h0Z"/>
  <path class="st0" d="M349.5,291.9c6.1,0,10.8,4.5,11,10.5.1,6.2-4.8,11.2-10.9,11.2-5.8,0-10.8-5-10.8-10.8,0-5.9,4.7-10.7,10.7-10.8h0Z"/>
</svg>