<?xml version="1.0" encoding="UTF-8"?>
<svg xmlns="http://www.w3.org/2000/svg" version="1.1" viewBox="0 0 388.2 388.2">
  <defs>
    <style>
      .cls-1 {
        fill: #01a95b;
      }
    </style>
  </defs>
  <!-- Generator: Adobe Illustrator 28.7.5, SVG Export Plug-In . SVG Version: 1.2.0 Build 176)  -->
  <g>
    <g id="Layer_1">
      <g>
        <path class="cls-1" d="M387.6,189.5c-.8-1-1.6-2-2.4-3-1.5-2-3.1-4.1-5-5.9-57.2-57.3-115.3-115.4-172.6-172.6-2-2-4.2-3.7-6.4-5.4-.9-.7-1.8-1.4-2.7-2.1-.4-.4-1-.5-1.6-.5h-6c-.6,0-1.1.2-1.6.6-1,.8-2,1.6-3,2.4-2,1.5-4.1,3.1-5.9,5C122.6,65.7,63.9,124.4,6.1,182.3c-7.3,7.3-8.1,15.5-2.1,21.5,5.6,5.6,12.9,5.3,20-.7v168.5c0,11.4,5.1,16.5,16.5,16.5h306.9c11.8,0,16.8-5.1,16.8-17v-168s0,0,.1,0c3,1.7,6.1,3.5,9.6,4.2,8.3,1.6,12.5-6.2,14-9.2.2-.4.3-.8.3-1.2v-6c0-.6-.2-1.1-.6-1.6ZM336.8,178v182.6H51.5v-182.6c0-1.2.5-2.7,1-3.1,47.2-47.3,95.2-95.3,141.7-141.8.4.4.8.8,1.2,1.2,46.2,46.3,93.1,93.2,139.4,139.4,1.5,1.6,2.1,2.6,2.1,4.4Z"/>
        <path class="cls-1" d="M252.1,164.4c-18.4-10.3-37.4-10.2-56.2.2-1.6.9-2,.8-3.2,0-12.2-7.2-25.1-9.5-38.5-6.8-21.7,4.3-36.6,17.5-43.1,38.1-6.6,21-1.9,40.4,13.6,56.3,16.7,17.1,34,34.2,50.7,50.9l8.5,8.5c3.1,3.1,6.7,4.6,10.2,4.6s7.1-1.5,10.2-4.6c5.7-5.7,11.4-11.4,17.2-17.1,14.1-14,28.6-28.5,42.8-43,9.3-9.5,15.1-21.9,15.5-33.4,0-.2.1-.5.1-.8.1-24-9.8-42.8-27.9-52.9ZM247.2,229.3c-.2.3-.4.5-.6.8-.5.7-1,1.3-1.6,1.9-16.9,16.8-33.7,33.5-51.3,51-.7-.9-1.5-1.8-2.3-2.7-6.7-6.7-13.4-13.4-20.1-20.1-8.8-8.8-17.8-17.8-26.7-26.8-11.7-11.8-11.9-29.4-.6-40.8,5.6-5.7,13-8.6,20.3-8.6s13.3,2.3,18.7,7.1c8.4,7.3,14,7.3,22.5,0,10.9-9.4,27.1-9.2,37.7.5,10.8,9.8,12.5,26.1,4.1,37.7Z"/>
      </g>
    </g>
  </g>
</svg>