<?xml version="1.0" encoding="UTF-8"?>
<svg id="Layer_1" xmlns="http://www.w3.org/2000/svg" version="1.1" viewBox="0 0 44 44">
  <!-- Generator: Adobe Illustrator 29.2.1, SVG Export Plug-In . SVG Version: 2.1.0 Build 116)  -->
  <defs>
    <style>
      .st0 {
        fill: #01a95b;
      }

      .st1 {
        fill: #fff;
      }
    </style>
  </defs>
  <rect class="st1" x="-.3" y=".1" width="44.2" height="43.7"/>
  <g id="Layer_11" data-name="Layer_1">
    <path class="st0" d="M33.7,19.2c0,.4-.3.7-.7.7h-6.9c-.4,0-.7-.3-.7-.7s.3-.7.7-.7h6.9c.4,0,.7.3.7.7ZM33,24.1h-6.9c-.4,0-.7.3-.7.7s.3.7.7.7h6.9c.4,0,.7-.3.7-.7s-.3-.7-.7-.7ZM39.2,9.6v24.8c0,1.1-.9,2.1-2.1,2.1H6.9c-1.1,0-2.1-.9-2.1-2.1V9.6c0-1.1.9-2.1,2.1-2.1h30.2c1.1,0,2.1.9,2.1,2.1ZM37.8,9.6c0-.4-.3-.7-.7-.7H6.9c-.4,0-.7.3-.7.7v24.8c0,.4.3.7.7.7h30.2c.4,0,.7-.3.7-.7,0,0,0-24.8,0-24.8ZM22.7,28.7c.1.4,0,.7-.5.9-.4.1-.7,0-.9-.5h0c-.5-2.1-2.6-3.6-4.8-3.6s-4.3,1.5-4.8,3.6c0,.3-.4.5-.7.5h-.2c-.4,0-.6-.5-.5-.8.5-1.8,1.8-3.3,3.5-4.1-2.2-1.5-2.8-4.5-1.4-6.7s4.5-2.8,6.7-1.4c2.2,1.4,2.8,4.5,1.4,6.7-.4.5-.8,1-1.4,1.4,1.7.8,3,2.2,3.5,4.1h.1ZM16.5,24.1c1.9,0,3.4-1.5,3.4-3.4s-1.5-3.4-3.4-3.4-3.4,1.5-3.4,3.4,1.5,3.4,3.4,3.4Z"/>
  </g>
</svg>