<?xml version="1.0" encoding="UTF-8"?>
<svg id="a" data-name="Layer 1" xmlns="http://www.w3.org/2000/svg" width="404.8" height="297.07" viewBox="0 0 404.8 297.07">
  <defs>
    <style>
      .b {
        fill: #21b892;
      }

      .c {
        fill: #20b892;
      }
    </style>
  </defs>
  <path class="b" d="M308.15,276.36c-13.07-22.45-32.99-40.12-56.84-50.4,5.66-4.33,10.72-9.39,15.05-15.05,27.15-35.46,20.41-86.21-15.05-113.36-35.46-27.15-86.21-20.41-113.36,15.05s-20.41,86.21,15.05,113.36c-23.85,10.29-43.77,27.95-56.84,50.4-.2.32-.39.65-.57.98-3.45,6.6-.9,14.74,5.69,18.19,6.6,3.45,14.74.9,18.19-5.69,8.24-13.96,19.89-25.61,33.85-33.85,45.66-26.97,104.54-11.81,131.51,33.85.18.34.37.66.57.98,3.99,6.28,12.32,8.14,18.6,4.14s8.14-12.32,4.14-18.6ZM202.16,215.72c-29.77,0-53.91-24.14-53.91-53.91s24.14-53.91,53.91-53.91,53.91,24.14,53.91,53.91-24.14,53.91-53.91,53.91Z"/>
  <path class="b" d="M107.82,121.38c0-7.44-6.03-13.48-13.48-13.48-22.33,0-40.43-18.1-40.43-40.43,0-22.33,18.1-40.43,40.43-40.43,18.43,0,34.53,12.47,39.14,30.32,1.86,7.21,9.21,11.55,16.42,9.69s11.55-9.21,9.69-16.42h0C150.29,14.59,113.54-7.07,77.5,2.24,41.47,11.56,19.81,48.31,29.12,84.35c3.26,12.62,10.12,24.03,19.74,32.84-18.31,7.94-34.22,20.53-46.16,36.52-4.47,5.95-3.27,14.41,2.69,18.88,5.95,4.47,14.41,3.27,18.88-2.69,16.47-22.14,42.48-35.15,70.08-35.04,7.44,0,13.48-6.03,13.48-13.48Z"/>
  <path class="c" d="M317.34,161.13h-170.43c-7.46,0-13.5-6.04-13.5-13.5s6.04-13.5,13.5-13.5h170.43c7.46,0,13.5,6.04,13.5,13.5s-6.04,13.5-13.5,13.5Z"/>
  <path class="c" d="M343.12,123.56c-4.09,0-8.13-1.85-10.78-5.36-4.49-5.95-3.32-14.41,2.63-18.91,4.63-3.5,15.42-13.62,15.49-31.93.04-10.8-4.09-20.91-11.63-28.48-7.63-7.66-17.85-11.87-28.77-11.87-18.42,0-34.5,12.43-39.12,30.22-1.87,7.22-9.24,11.55-16.46,9.68-7.22-1.87-11.55-9.24-9.68-16.46C252.5,20.74,279.33,0,310.05,0c18.16,0,35.17,7.04,47.9,19.82,12.65,12.69,19.57,29.61,19.5,47.64-.08,21.39-9.63,40.85-26.21,53.37-2.44,1.84-5.29,2.73-8.13,2.73Z"/>
  <path class="c" d="M391.31,175.21c-3.98,0-7.93-1.75-10.59-5.12-7.57-9.55-16.09-17.47-22.8-21.17-6.53-3.6-8.9-11.81-5.3-18.34,3.6-6.53,11.81-8.9,18.34-5.3,13.46,7.42,25.16,20.76,30.93,28.04,4.63,5.84,3.65,14.33-2.2,18.96-2.48,1.96-5.44,2.92-8.37,2.92Z"/>
</svg>