<?xml version="1.0" encoding="UTF-8"?>
<svg id="a" data-name="Layer 1" xmlns="http://www.w3.org/2000/svg" width="504.74" height="457.9" viewBox="0 0 504.74 457.9">
  <defs>
    <style>
      .b {
        fill: #21b892;
      }

      .c {
        fill: #20b892;
      }
    </style>
  </defs>
  <path class="b" d="M473.45,430.04c-34.83-60.22-88.51-103.39-151.15-123.86,78.14-46.52,103.78-147.58,57.26-225.72C333.05,2.32,231.99-23.32,153.85,23.2c-78.14,46.52-103.78,147.58-57.26,225.72,14.02,23.56,33.7,43.24,57.26,57.26-62.64,20.45-116.32,63.62-151.15,123.86-5.28,8.61-2.58,19.88,6.03,25.16,8.61,5.28,19.88,2.58,25.16-6.03.17-.27.33-.55.48-.83,43.09-74.46,119.24-118.92,203.7-118.92s160.61,44.46,203.7,118.92c4.82,8.88,15.93,12.17,24.81,7.35,8.88-4.82,12.17-15.93,7.35-24.81-.15-.28-.31-.56-.48-.83ZM110.01,164.75c0-70.73,57.34-128.07,128.07-128.07s128.07,57.34,128.07,128.07-57.34,128.07-128.07,128.07c-70.7-.08-127.99-57.37-128.07-128.07Z"/>
  <path class="c" d="M485.24,160.14H99.84c-10.77,0-19.5-8.73-19.5-19.5s8.73-19.5,19.5-19.5h385.4c10.77,0,19.5,8.73,19.5,19.5s-8.73,19.5-19.5,19.5Z"/>
</svg>