<?xml version="1.0" encoding="UTF-8"?>
<svg id="a" data-name="Layer_1" xmlns="http://www.w3.org/2000/svg" width="389" height="365.15" viewBox="0 0 389 365.15">
  <defs>
    <style>
      .b {
        fill: #01a95b;
      }
    </style>
  </defs>
  <path class="b" d="M388.96,208.5c-.14-.76-.28-1.52-.41-2.28-.29-1.68-.6-3.43-1.01-5.15-3.29-13.94-11.5-23.87-24.39-29.49-1.93-.84-1.97-1.11-1.74-3.32l.15-1.42c1.21-11.78,2.45-23.96,3.23-35.99,2.31-35.99-11.68-66.17-41.58-89.71-22.06-17.37-49.07-29.24-82.58-36.31C224.79,1.48,209.08-.14,193.96,0c-29.43.29-55.98,10.06-81.19,29.87-1.59,1.25-3.92,2.22-6.07,2.52-17.1,2.39-31.27,7.08-43.31,14.34-22.62,13.65-35.62,34.71-38.64,62.62-1.86,17.24.06,34.47,1.93,51.13.27,2.44.55,4.88.81,7.32.27,2.55.09,2.91-2,3.82-13.38,5.85-21.7,16.28-24.74,31-.06.29-.2.65-.34,1.03-.09.24-.19.49-.27.73l-.14.4v11.26l.09.33c.19.71.38,1.42.57,2.12.41,1.55.83,3.16,1.34,4.74,5.27,16.57,19.77,28.12,36.94,29.41q1.01.08,1.54,1.68c.07.22.15.45.23.68,12.98,37.02,36.27,66.08,69.21,86.36,25.5,15.7,54.46,23.79,84,23.79,11.73,0,23.55-1.28,35.29-3.85,41.26-9.07,76.77-33.24,99.98-68.04,8.88-13.31,15.2-26.08,19.33-39.04.38-1.18.52-1.44,2.34-1.6,19.34-1.74,35.44-17.7,37.46-37.13.09-.82.24-1.65.41-2.54.08-.44.16-.87.24-1.31l.04-2.67-.04-.46ZM367.45,213.58c-.96,7.28-6.23,13.93-12.61,16.44l3.49-37.1c6.71,4.49,10.23,12.26,9.11,20.66ZM57.43,232.54c2.35-8.33,4.73-16.66,7.11-24.99,3.23-11.28,6.56-22.94,9.77-34.43.49-1.76,1.11-2.4,2.9-2.98,20-6.52,34.54-15.1,45.76-27,3.95-4.19,7.3-8.99,10.54-13.63.94-1.35,1.9-2.73,2.88-4.1,27.12,24.82,61.26,34.01,94.21,40.22,23.68,4.46,49.65,6.74,81.71,7.18,2.08.03,2.42.28,2.95,2.21,2.8,10.1,5.74,20.35,8.58,30.25,2.5,8.73,5.09,17.75,7.58,26.64.52,1.86.56,3.97.11,5.51-17.05,58.5-55.31,93.64-113.7,104.45-34.94,6.47-70.83-.96-101.06-20.9-30.13-19.88-51.28-49.93-59.55-84.62-.25-1.05-.17-2.47.21-3.81ZM319.23,151.86c-32.02-.04-59.82-2.28-85-6.85-19.6-3.56-44.98-9.39-67.48-23.04-5.65-3.42-10.86-7.7-15.22-11.43-4.91-4.21-8.55-9.24-10.81-14.98-1.63-4.15-5.31-6.69-9.45-6.69-.51,0-1.03.04-1.55.12-5.17.79-8.85,4.61-8.96,9.3-.4,17.58-9.49,31.18-27.77,41.56-7.69,4.37-16.31,7.61-24.64,10.75l-3.11,1.17c-3.77,1.43-7.84,3.7-9.45,9.7-1.76,6.58-3.7,13.24-5.57,19.68-.02.08-.05.16-.07.24-.14-1.23-.28-2.47-.43-3.7-1.23-10.66-2.49-21.69-3.4-32.54-.81-9.66-1.47-19.98-.83-29.94,2.03-31.69,20.37-52.93,51.65-59.83,2.78-.61,5.6-.95,8.58-1.3,2.62-.31,5.33-.63,8-1.16,3.8-.75,6.76-2.01,8.81-3.75,25.18-21.38,53.01-30.47,85.08-27.8,31.46,2.62,58.34,10.04,82.18,22.67,19.69,10.43,33.89,23.16,43.39,38.9,8.19,13.56,11.78,28.26,10.68,43.69-1.08,15.12-2.53,30.49-3.93,45.35-.31,3.31-.62,6.62-.93,9.93-1.84-6.39-3.69-12.79-5.52-19.18-2.53-8.84-5.2-10.87-14.24-10.89ZM34.19,230.21c-6.11-2.17-11.62-8.79-12.79-15.95-1.42-8.65,2.25-16.87,9.27-21.45l3.52,37.39Z"/>
  <path class="b" d="M145.36,269.66c-2.22,4.3-1.27,9.21,2.48,12.82,12.62,12.15,28.2,18.52,46.31,18.94h.06s.06,0,.06,0c17.9-.41,33.3-6.59,45.77-18.38,2.63-2.48,4.12-5.54,4.21-8.6.07-2.68-.9-5.16-2.81-7.17-4.14-4.37-10.36-4.28-15.46.22-19.58,17.27-43.9,17.28-63.46.03-1.79-1.58-3.88-2.71-5.88-3.19-4.53-1.08-9.05,1.06-11.25,5.33Z"/>
  <path class="b" d="M113.41,223.23c8.56-7.54,18.77-7.55,27.31-.01,1.58,1.39,3.49,2.41,5.38,2.86.82.2,1.65.29,2.47.29,3.92,0,7.5-2.23,9.35-5.81,2.24-4.35,1.33-9.44-2.34-12.97-7.75-7.46-17.29-11.37-28.35-11.62-.11,0-.22,0-.31,0-10.94.25-20.38,4.05-28.03,11.29-2.42,2.28-3.79,5.21-3.88,8.23-.08,2.8.96,5.48,2.93,7.54,4.14,4.37,10.65,4.45,15.46.2Z"/>
  <path class="b" d="M247.68,223.23c8.55-7.54,18.76-7.55,27.31-.01,1.58,1.39,3.49,2.41,5.38,2.86.82.2,1.65.29,2.47.29,3.92,0,7.5-2.23,9.36-5.81,2.24-4.35,1.33-9.44-2.34-12.97h0c-7.75-7.46-17.29-11.37-28.3-11.62-.15,0-.29,0-.36,0-10.94.25-20.38,4.05-28.03,11.29-2.42,2.28-3.79,5.21-3.88,8.23-.08,2.8.96,5.48,2.93,7.55,4.14,4.37,10.65,4.45,15.46.2Z"/>
</svg>