<?xml version="1.0" encoding="UTF-8"?>
<svg id="Layer_1" xmlns="http://www.w3.org/2000/svg" version="1.1" viewBox="0 0 24 24">
  <!-- Generator: Adobe Illustrator 29.8.2, SVG Export Plug-In . SVG Version: 2.1.1 Build 3)  -->
  <path d="M24,2.5v7c0,.8-.7,1.5-1.5,1.5s-1.5-.7-1.5-1.5v-4.4l-11.4,11.4c-.3.3-.7.4-1.1.4s-.8-.1-1.1-.4c-.6-.6-.6-1.5,0-2.1L18.9,3h-4.4c-.8,0-1.5-.7-1.5-1.5s.7-1.5,1.5-1.5h7c1.4,0,2.5,1.1,2.5,2.5Z"/>
  <path d="M22.5,13c-.8,0-1.5.7-1.5,1.5v4c0,1.4-1.1,2.5-2.5,2.5H5.5c-1.4,0-2.5-1.1-2.5-2.5V5.5c0-1.4,1.1-2.5,2.5-2.5h4c.8,0,1.5-.7,1.5-1.5s-.7-1.5-1.5-1.5h-4C2.5,0,0,2.5,0,5.5v13c0,3,2.5,5.5,5.5,5.5h13c3,0,5.5-2.5,5.5-5.5v-4c0-.8-.7-1.5-1.5-1.5Z"/>
</svg>