<?xml version="1.0" encoding="UTF-8"?>
<svg id="a" data-name="Capa 1" xmlns="http://www.w3.org/2000/svg" width="512" height="512" viewBox="0 0 512 512">
  <defs>
    <style>
      .b {
        fill: #005b4c;
      }
    </style>
  </defs>
  <path class="b" d="M398.5,284.99H115.62v-119.24c.6-.22,124.95-45.89,125.54-46.14,20.86-9,19.5-38.77-.77-46.22L115.62,27.56v-12.56C115.62,6.72,108.91,0,100.62,0s-15,6.72-15,15v273.45C36.47,300.92,0,345.53,0,398.49,0,461.08,50.92,511.99,113.5,511.99h285c62.58,0,113.5-50.92,113.5-113.5s-50.92-113.5-113.5-113.5ZM216.71,96.66l-101.09,37.14V59.52l101.09,37.14ZM398.5,481.99H113.5c-46.04,0-83.5-37.46-83.5-83.5,0-36.27,23.25-67.19,55.62-78.7v78.7c0,8.28,6.72,15,15,15s15-6.72,15-15v-83.5h282.88c46.04,0,83.5,37.46,83.5,83.5s-37.46,83.5-83.5,83.5Z"/>
  <path class="b" d="M391.64,353.49c-24.81,0-45,20.19-45,45s20.19,45,45,45,45-20.19,45-45-20.19-45-45-45ZM391.64,413.49c-8.27,0-15-6.73-15-15s6.73-15,15-15,15,6.73,15,15-6.73,15-15,15Z"/>
</svg>