<?xml version="1.0" encoding="UTF-8"?>
<svg id="a" xmlns="http://www.w3.org/2000/svg" version="1.1" viewBox="0 0 512 512">
  <!-- Generator: Adobe Illustrator 29.3.1, SVG Export Plug-In . SVG Version: 2.1.0 Build 151)  -->
  <defs>
    <style>
      .st0 {
        fill: #00be94;
      }
    </style>
  </defs>
  <path class="st0" d="M398.5,285H115.6v-119.2c.6-.2,125-45.9,125.5-46.1,20.9-9,19.5-38.8-.8-46.2L115.6,27.6v-12.6c0-8.3-6.7-15-15-15s-15,6.7-15,15v273.5C36.5,300.9,0,345.5,0,398.5s50.9,113.5,113.5,113.5h285c62.6,0,113.5-50.9,113.5-113.5s-50.9-113.5-113.5-113.5ZM216.7,96.7l-101.1,37.1V59.5l101.1,37.1ZM398.5,482H113.5c-46,0-83.5-37.5-83.5-83.5s23.2-67.2,55.6-78.7v78.7c0,8.3,6.7,15,15,15s15-6.7,15-15v-83.5h282.9c46,0,83.5,37.5,83.5,83.5s-37.5,83.5-83.5,83.5Z"/>
  <path class="st0" d="M391.6,353.5c-24.8,0-45,20.2-45,45s20.2,45,45,45,45-20.2,45-45-20.2-45-45-45ZM391.6,413.5c-8.3,0-15-6.7-15-15s6.7-15,15-15,15,6.7,15,15-6.7,15-15,15Z"/>
</svg>