<?xml version="1.0" encoding="UTF-8"?>
<svg id="a" data-name="Layer 1" xmlns="http://www.w3.org/2000/svg" width="120.55" height="120.55" viewBox="0 0 120.55 120.55">
  <defs>
    <style>
      .b {
        fill: #adadad;
      }
    </style>
  </defs>
  <path class="b" d="M60.28,0C26.98,0,0,26.98,0,60.28s26.98,60.28,60.28,60.28c33.27-.05,60.23-27.01,60.28-60.28C120.55,26.98,93.57,0,60.28,0ZM68.73,98.11h-16.21v-16.21h16.21v16.21ZM83.52,49.02c-1.27,7.02-5.62,13.07-11.88,16.49-2.15,1.42-3.37,3.88-3.24,6.46h-16.24c-.15-8.48,4.31-16.39,11.65-20.64,3.57-1.95,4.89-6.43,2.94-10-1.95-3.57-6.43-4.89-10-2.94-2.36,1.29-3.82,3.77-3.82,6.46h-16.21c0-13.02,10.56-23.58,23.58-23.58,1.42,0,2.81.13,4.2.38,12.82,2.3,21.33,14.56,19.02,27.38Z"/>
</svg>