<?xml version="1.0" encoding="UTF-8"?>
<svg id="Layer_1" xmlns="http://www.w3.org/2000/svg" version="1.1" viewBox="0 0 32 32">
  <!-- Generator: Adobe Illustrator 29.3.1, SVG Export Plug-In . SVG Version: 2.1.0 Build 151)  -->
  <defs>
    <style>
      .st0 {
        fill: #00be94;
      }
    </style>
  </defs>
  <path class="st0" d="M25,5h-2.6l-1.7-1.7h0c-.2-.2-.4-.3-.7-.3h-8c-.3,0-.5.1-.7.3h0l-1.7,1.7h-2.6c-1.1,0-2,.9-2,2v19c0,1.1.9,2,2,2h18c1.1,0,2-.9,2-2V7c0-1.1-.9-2-2-2ZM16,8.2l-2.1-3.2h4.3l-2.1,3.2ZM20.2,5.6l.8.8v6.6l-3.7-3.2,2.8-4.2ZM11,6.4l.8-.8,2.8,4.2-3.7,3.2v-6.6ZM7,7h2v6c0,.8.4,1.5,1.2,1.8.3.1.6.2.8.2.5,0,.9-.2,1.3-.5,0,0,0,0,0,0l2.7-2.3v13.8H7V7ZM25,26h-8v-13.8l2.7,2.3s0,0,0,0c.4.3.8.5,1.3.5.3,0,.6,0,.9-.2.7-.3,1.2-1,1.1-1.8v-6h2v19Z"/>
</svg>