<?xml version="1.0" encoding="UTF-8"?>
<svg id="a" data-name="Layer 1" xmlns="http://www.w3.org/2000/svg" width="1107.85" height="1105.63" viewBox="0 0 1107.85 1105.63">
  <path d="M1107.85,550.64v2.17c-82.53,66.14-197.03,82.39-291.36,30.58-1.15-19.71,1.01-40.17-.98-60.59,83.15-45.31,175.52-40.11,256.93,5.79,12.06,6.8,22.41,16.85,35.4,22.05Z"/>
  <circle cx="552.81" cy="552.81" r="243.79"/>
  <path d="M1034.14,830.31c-105.89,15.81-215.79-26.79-268.61-122.16l29.4-49.19c109.67-.68,198.85,73.08,239.21,171.35Z"/>
  <path d="M830.31,1034.14c-98.19-40.56-171.92-129.48-171.35-239.21l49.19-29.4c95.43,52.59,137.92,162.91,122.16,268.61Z"/>
  <path d="M446.22,311.8l-50.2,28.26c-94.04-54.92-136.57-162.24-120.71-268.57,98.35,40.08,172.89,130.74,170.91,240.32Z"/>
  <path d="M659.41,311.81c-2.23-109.82,72.76-199.95,170.91-240.32,15.75,106.18-26.63,213.78-120.72,268.57l-50.19-28.25Z"/>
  <path d="M311.8,446.22c-109.75,1.99-200.11-72.63-240.32-170.91,106.23-15.81,213.78,26.59,268.57,120.71l-28.26,50.2Z"/>
  <path d="M311.81,659.41l28.26,50.2c-54.92,94.04-162.24,136.57-268.57,120.71,40.15-98.18,130.66-173.01,240.32-170.91Z"/>
  <path d="M1034.14,275.31c-40.57,98.18-129.51,171.83-239.21,171.35l-29.4-49.19c52.59-95.43,162.91-137.92,268.61-122.16Z"/>
  <path d="M446.22,793.82c2.04,109.58-72.82,200.24-170.91,240.32-15.84-106.24,26.63-213.71,120.7-268.5l50.21,28.19Z"/>
  <path d="M582.82,815.52c46.74,85.39,39.92,184.75-11.76,266.14-2.85,4.49-14.88,24.84-19.12,23.94-66.55-81.39-80.87-197.12-29.14-290.08h60.01Z"/>
  <path d="M582.82,290.1h-60.02C471.07,197.15,485.39,81.41,551.94.03c4.23-.89,16.27,19.46,19.12,23.94,51.68,81.38,58.5,180.74,11.76,266.13Z"/>
  <path d="M290.1,522.8v60.02C197.23,634.57,81.37,620.13.03,553.68c-.89-4.23,19.46-16.27,23.94-19.12,81.51-51.76,180.58-58.5,266.13-11.76Z"/>
  <path d="M303.47,466.1l-8.67,36.83c-62.29-31.71-132.19-40.35-200.1-22.07-11.99-1.92-58.19-46.9-67.69-58.11-1.8-2.13-11.26-13.56-9.73-15.19,18.78-5.45,37.08-12.39,56.35-16.3,11.23-2.28,34.05-7.37,44.43-5.34,3.34.65,44.15,35.05,54.2,41.18,39.33,23.98,84.99,38.21,131.21,39Z"/>
  <path d="M502.94,294.79l-36.83,8.67c-1.04-53.56-19.17-104.84-50.28-148.11-4.45-6.19-28.85-33.32-29.5-35.53-2.8-9.46,2.46-33.73,4.57-44.41,3.92-19.9,11.02-38.79,16.68-58.14,1.63-1.54,13.06,7.93,15.19,9.73,10.27,8.69,25.82,24.44,34.72,34.66,4.9,5.64,21.33,25.72,22.91,31.47s-6.41,33.6-7.51,42.58c-6.74,55.05,5.72,109.9,30.07,159.07Z"/>
  <path d="M294.79,602.69l8.67,36.83c-53.58.94-104.75,19.35-148.11,50.28-6.25,4.46-33.32,28.85-35.53,29.5-9.46,2.8-33.73-2.46-44.41-4.57-19.9-3.92-38.79-11.02-58.14-16.68-1.54-1.63,7.93-13.06,9.73-15.19,8.66-10.23,24.47-25.88,34.66-34.72,5.05-4.38,26.76-21.62,31.47-22.91,5.63-1.55,33.58,6.41,42.58,7.51,55.05,6.74,109.9-5.72,159.07-30.07Z"/>
  <path d="M1088.33,698.05c-19.26,5.85-38.28,12.78-58.13,16.69-10.68,2.11-34.95,7.37-44.41,4.57-2.66-.79-35.2-29.95-42.92-35.12-41.04-27.51-91.24-43.59-140.72-44.66l8.67-36.83c1.32-1.51,22.28,10.36,26.04,11.88,40.74,16.41,89.37,23.53,133.03,18.19,8.98-1.1,36.98-9.06,42.58-7.51s25.83,18,31.47,22.91c10.25,8.91,25.93,24.43,34.66,34.72,1.9,2.24,11.13,13.33,9.72,15.18Z"/>
  <path d="M754.41,726.28c33.16,59.61,94.58,100.39,159.93,117.62,15.74,31.67,26.69,66.09,30.89,101.34-35.26-4.2-69.67-15.15-101.34-30.89-17.08-65.22-57.98-126.9-117.62-159.93-2.99-4.34,10.64-11.47,13.08-13.97,2.75-2.82,10.89-17.04,15.05-14.17Z"/>
  <path d="M639.52,802.16c1.04,53.56,19.17,104.84,50.28,148.11,4.64,6.45,29.28,34.17,29.89,37.3,2.03,10.36-3.07,33.21-5.34,44.43-3.91,19.27-10.85,37.57-16.3,56.35-1.63,1.54-13.06-7.93-15.19-9.73-11.03-9.34-56.25-56.06-58.12-67.69,18.28-67.9,9.65-137.81-22.06-200.1l36.83-8.67Z"/>
  <path d="M698.06,17.28c5.66,19.35,12.76,38.24,16.68,58.14,2.11,10.68,7.37,34.95,4.57,44.41-.79,2.66-29.95,35.2-35.12,42.92-27.51,41.04-43.59,91.24-44.66,140.72l-36.83-8.67c-1.51-1.32,10.36-22.28,11.88-26.04,16.41-40.74,23.53-89.37,18.19-133.03-1.1-9-9.06-36.95-7.51-42.58,1.29-4.7,18.53-26.42,22.91-31.47,8.83-10.19,24.49-26,34.72-34.66,2.13-1.8,13.56-11.26,15.19-9.73Z"/>
  <path d="M945.23,160.39c-4.2,35.26-15.15,69.67-30.89,101.34-65.24,17.29-126.96,57.9-159.93,117.62-4.35,3-11.47-10.65-13.97-13.08-3.02-2.94-17.99-10.94-12.83-15.21,58.62-34.42,99.41-94.53,116.28-159.77,31.67-15.74,66.09-26.69,101.34-30.89Z"/>
  <path d="M1088.33,407.57c1.41,1.86-7.82,12.94-9.72,15.18-8.7,10.25-24.45,25.86-34.66,34.72-5.05,4.38-26.76,21.62-31.47,22.91-5.63,1.55-33.58-6.41-42.58-7.51-55.22-6.76-109.77,5.58-159.07,30.07l-8.67-36.83c49.48-1.07,99.69-17.15,140.72-44.66,7.72-5.18,40.26-34.34,42.92-35.12,9.46-2.8,33.73,2.46,44.41,4.57,19.85,3.91,38.88,10.84,58.13,16.69Z"/>
  <path d="M379.35,754.41c-59.63,33.03-100.53,94.71-117.62,159.93-31.67,15.74-66.09,26.69-101.34,30.89,4.2-35.26,15.15-69.67,30.89-101.34,65.22-17.08,126.9-57.98,159.93-117.62,4.34-2.99,10.74,9.79,12.98,11.9,2.82,2.66,18.06,12.02,15.15,16.23Z"/>
  <path d="M261.73,191.28c17.02,65.33,58.08,126.72,117.62,159.93,2.78,4.05-9.46,10.16-12.01,12.87-4.61,4.89-7.58,11.03-12.97,15.23l-33.48-42.29c-35.75-36.89-80.98-62.34-130.3-76.2-14.99-31.64-26.16-65.45-30.18-100.43,35.26,4.2,69.67,15.15,101.34,30.89Z"/>
  <path d="M502.94,810.83c1.51,1.32-10.36,22.28-11.88,26.04-16.64,41.34-23.62,88.71-18.19,133.03,1.1,9,9.06,36.95,7.51,42.58-1.29,4.7-18.53,26.42-22.91,31.47-8.83,10.19-24.49,26-34.72,34.66-2.13,1.8-13.56,11.26-15.19,9.73-5.66-19.35-12.76-38.24-16.68-58.14-2.11-10.68-7.37-34.95-4.57-44.41.66-2.21,25.05-29.34,29.5-35.53,31.11-43.27,49.24-94.55,50.28-148.11l36.83,8.67Z"/>
</svg>