<?xml version="1.0" encoding="UTF-8"?>
<svg xmlns="http://www.w3.org/2000/svg" version="1.1" viewBox="0 0 392 408.8">
  <defs>
    <style>
      .cls-1 {
        fill: #01a95b;
      }
    </style>
  </defs>
  <!-- Generator: Adobe Illustrator 28.7.5, SVG Export Plug-In . SVG Version: 1.2.0 Build 176)  -->
  <g>
    <g id="Layer_1">
      <g id="a">
        <path class="cls-1" d="M192,408.8c-10.8-1.7-18.9-7.8-26.3-15.4-5.8-6-12.1-11.6-18-17.5s-8.3-5.2-13.8-4.3c-10.1,1.6-20.2,3.1-30.4,4.4-22.4,2.8-38.7-9.7-42.4-32.2-1.6-9.7-3.4-19.4-5-29.1-.9-5.3-3.6-8.9-8.4-11.3-9.2-4.7-18.4-9.6-27.5-14.5-19-10.3-25.3-29.8-16-49.2,4.4-9.4,9-18.7,13.7-27.9,2.5-4.9,2.5-9.5,0-14.4-4.6-9.1-9.1-18.3-13.5-27.6-9.5-19.8-3.1-39.4,16.3-49.8,8.9-4.8,17.8-9.6,26.8-14.2,5.3-2.6,7.9-6.6,8.8-12.3,1.6-10.2,3.3-20.5,5.4-30.6,4.4-21.6,21.4-33.1,43.1-29.7,10.1,1.6,20.3,3,30.4,4.4,4.7.7,8.6-.7,12-4,7.6-7.5,15.2-14.9,22.9-22.2,15.6-14.9,36.2-14.9,51.8,0,7.5,7.2,15,14.3,22.4,21.7,4,4,8.6,5.3,14.1,4.4,10.1-1.7,20.2-3.2,30.4-4.3,22.1-2.5,38,9.4,42,31.4,1.8,9.7,3.5,19.4,5,29.1.9,5.7,3.5,9.7,8.8,12.4,8.9,4.5,17.6,9.3,26.4,14,20,10.7,26.3,30.2,16.4,50.6-4.2,8.7-8.3,17.5-12.8,26.1-2.9,5.4-2.9,10.4,0,15.9,4.7,8.9,9,18.1,13.3,27.2,9.3,19.5,3,39-16,49.2-9,4.9-18,9.8-27.1,14.3-5.4,2.7-8.1,6.8-9,12.7-1.6,10.1-3.3,20.2-5.3,30.2-4.4,21.6-21.3,33.2-43,29.8-10.1-1.6-20.3-2.9-30.4-4.4-4.7-.7-8.6.6-12,3.9-6.2,6.1-12.6,11.9-18.6,18.1-7.4,7.6-15.6,13.6-26.3,15.4h-8l-.2-.3ZM293.8,352.9c7,.2,11.9-3.5,13.1-9.9,1.7-9,3.7-18,4.7-27.1,1.9-16.6,9.8-28.4,25.2-35.4,8.1-3.7,15.8-8.2,23.6-12.4,7.9-4.2,9.9-10.2,6-18.3-4.6-9.4-9.2-18.9-13.9-28.3-5.6-11.4-5.6-22.7,0-34.1,4.6-9.3,9.1-18.6,13.7-27.9,4.1-8.5,2.2-14.3-6.2-18.8-9.3-4.9-18.6-9.8-27.8-14.8-10.5-5.6-17.1-14.1-19.3-25.9-2-11.1-3.9-22.2-6-33.3-1.5-7.8-6.9-11.6-14.7-10.5-10.1,1.4-20.3,2.8-30.4,4.4-13.4,2.2-24.9-1.4-34.6-11.1-7.1-7.2-14.5-14.1-21.8-21.1-6.5-6.3-12.8-6.3-19.2-.1-7.6,7.3-15.1,14.6-22.7,21.9-8.5,8.3-18.6,12.2-30.5,10.7-11.1-1.5-22.1-3-33.2-4.6-8.3-1.2-13.7,2.5-15.3,10.7-1.9,10.2-3.8,20.4-5.4,30.6-2.1,13-8.6,22.6-20.4,28.7-9.2,4.8-18.3,9.7-27.5,14.6-8.1,4.4-10.1,10.3-6,18.6,4.5,9.3,9,18.6,13.7,27.9,5.8,11.5,5.8,22.9,0,34.4-4.6,9.1-9,18.4-13.5,27.6-4.2,8.8-2.4,14.5,6.3,19.1,8.9,4.8,17.8,9.6,26.8,14.2,11.9,6.1,18.6,15.7,20.7,28.9,1.6,10.1,3.4,20.2,5.3,30.2,1.7,8.8,7,12.3,15.8,11,10.1-1.5,20.3-2.9,30.4-4.4,13.2-1.9,24.3,2,33.7,11.4,7.2,7.1,14.5,14.1,21.8,21.1,6.3,6.1,12.7,6.1,18.9,0,7.2-6.9,14.5-13.7,21.5-20.8,10.1-10.4,22.1-13.9,36.3-11.4,10.3,1.8,20.8,3,30.6,4.4h0l.3-.2Z"/>
        <path class="cls-1" d="M117.9,293.9c-4.6-.2-8.1-2.3-10.2-6.5-2.1-4.1-1.7-8.3,1-12.1.9-1.3,2.1-2.4,3.2-3.5,50.5-50.5,101-101,151.5-151.5,2.9-2.9,5.8-5.5,10.2-5.4,4.9,0,8.5,2.2,10.6,6.5s1.7,8.5-1.2,12.4c-.9,1.2-1.9,2.2-3,3.2-50.5,50.5-101,101-151.5,151.5-3,3-6,5.7-10.7,5.4h0Z"/>
        <path class="cls-1" d="M148.6,184.6c-24-.1-43.1-19.6-42.9-43.6.2-23.6,19.9-43,43.5-42.7,23.7.2,42.9,19.8,42.8,43.5-.1,23.7-19.6,43-43.4,42.9h0ZM149,122c-10.8,0-19.5,8.4-19.8,19.2-.3,10.7,8.9,19.9,19.6,19.9s19.5-8.9,19.6-19.6c0-10.8-8.6-19.5-19.4-19.6h0Z"/>
        <path class="cls-1" d="M242.9,224.1c23.8-.1,43.2,19,43.3,42.8.1,23.9-19.3,43.5-43.1,43.5s-43-19.4-43.2-42.8c-.1-24.1,19-43.5,43-43.6h0ZM243.3,286.8c10.8,0,19.5-8.9,19.5-19.6s-9-19.5-19.6-19.6c-10.8,0-19.8,9.1-19.6,19.9.2,10.9,8.9,19.3,19.8,19.2h0Z"/>
      </g>
    </g>
  </g>
</svg>