<?xml version="1.0" encoding="UTF-8"?>
<svg id="a" xmlns="http://www.w3.org/2000/svg" version="1.1" viewBox="0 0 1459.2 2088.3">
  <!-- Generator: Adobe Illustrator 29.3.1, SVG Export Plug-In . SVG Version: 2.1.0 Build 151)  -->
  <defs>
    <style>
      .st0 {
        fill: #00be94;
      }
    </style>
  </defs>
  <path class="st0" d="M210.7,1357.8l-74.2,593.2,593.2-74.2c-29.1-47.6-135.4-102.8-116-164.4l475.2-482.9c0-11-138.6-120.8-146.9-161-11.8-57.6,49.9-98,98.5-64.3,26.5,18.4,159.6,152.4,179.6,179.7,21,28.5,24.4,52.8,3.1,82.9l-458.7,460,4.8,16.2,147.9,148.7c19.5,57.1-7.3,82.1-60,92.6-251.9,49.8-526.8,55-780.7,103.5-45.2,4.2-77-24.5-76.4-70.4l109.4-809.3c12.8-34.2,46.7-55.3,82.6-39.9l164,161,704.8-703.9c78.8-54.1,129.4,69.7,187.8,105.1l74.2-593.2-593.2,74.2c29.5,48.5,140.2,104.8,114.5,168.6l-473.7,478.6c0,11.5,141.7,121.4,147.9,165.9,8.5,60.8-55.1,90.5-105.2,53.7-30.2-22.2-151.8-143.8-173.9-174-19-25.8-27.3-57.1-3-82.8l458.6-460.1-4.8-16.2c-26.7-38.5-135.2-116.3-150-152.3-21.2-51.6,16-80.4,62-89.1C855.2,55.8,1128.1,48.3,1382.8.4c45.2-4.2,77,24.5,76.4,70.4-48.1,254.6-54.7,528.6-103,781.5-9.6,50.2-37.1,88.4-92.7,65.6l-160.4-158.9-704.8,703.9c-78.8,54.1-129.4-69.7-187.8-105.1h0Z"/>
</svg>