<?xml version="1.0" encoding="UTF-8"?>
<svg id="a" data-name="Layer 1" xmlns="http://www.w3.org/2000/svg" width="1459.24" height="2088.3" viewBox="0 0 1459.24 2088.3">
  <defs>
    <style>
      .b {
        fill: #005b4c;
      }
    </style>
  </defs>
  <path class="b" d="M210.68,1357.83l-74.23,593.16,593.17-74.22c-29.13-47.55-135.36-102.75-116-164.41l475.21-482.86c0-10.96-138.61-120.77-146.89-161.02-11.84-57.56,49.9-97.99,98.52-64.27,26.51,18.38,159.55,152.37,179.62,179.69,20.96,28.53,24.36,52.77,3.11,82.9l-458.74,460.03,4.76,16.22,147.89,148.74c19.55,57.14-7.26,82.12-59.99,92.55-251.93,49.81-526.81,55.04-780.7,103.55C31.16,2092.07-.57,2063.35,0,2017.45l109.45-809.26c12.76-34.21,46.72-55.29,82.61-39.94l163.99,160.96,704.75-703.87c78.8-54.1,129.39,69.68,187.76,105.12l74.23-593.16-593.17,74.22c29.49,48.53,140.16,104.82,114.46,168.63l-473.66,478.64c0,11.45,141.72,121.36,147.92,165.86,8.48,60.84-55.13,90.49-105.22,53.69-30.18-22.17-151.81-143.78-173.95-173.95-18.97-25.84-27.3-57.08-3-82.78l458.63-460.15-4.76-16.22c-26.7-38.49-135.18-116.3-149.99-152.32-21.24-51.64,16.02-80.38,61.96-89.1C855.21,55.78,1128.12,48.31,1382.84.4c45.24-4.17,76.97,24.55,76.39,70.45-48.08,254.6-54.67,528.64-102.96,781.53-9.59,50.22-37.05,88.38-92.68,65.57l-160.41-158.86-704.75,703.87c-78.8,54.1-129.39-69.68-187.76-105.12Z"/>
</svg>