<?xml version="1.0" encoding="UTF-8"?>
<svg id="a" data-name="Capa 1" xmlns="http://www.w3.org/2000/svg" width="512" height="512" viewBox="0 0 512 512">
  <defs>
    <style>
      .b {
        fill: #005b4c;
      }
    </style>
  </defs>
  <path class="b" d="M.05,391.94c0,66.16,53.82,119.98,119.98,119.98,27.35,0,52.58-9.2,72.78-24.67,14.83,15.5,35.63,24.75,57.67,24.75,7.48,0,96.24-.07,161.54-.07,28.93,0,56.41-12.52,75.41-34.35,18.99-21.83,27.58-50.78,23.57-79.44l-6.82-48.76c-8.13-58.17-64.49-96.7-121.49-83.53l-95.26,22.03c-8.94,2.06-17.97-2.17-22.12-10.31-21.56-53.82-85.2-212.7-103.67-258.8C157.64,8.94,146.42,0,132.78,0H31.67C8.63,0-6.65,23.86,2.95,44.77l95.37,229.16C42.49,284.18.05,333.19.05,391.94h0ZM163.06,102.98H59.66c-.17-.4-29.25-70.31-29.44-70.7-.5-1.11.28-2.29,1.45-2.29h101.11c.52,0,1.02.26,1.31.69l28.96,72.3ZM214.19,466.22c59.03-74.66,11.06-185.86-84.03-193.83l-58.02-139.41h102.93l62.61,156.29c.13.32.26.63.41.94,10.18,21.12,33.25,32.18,56.09,26.91l95.26-22.03c39.95-9.25,79.32,17.63,85.03,58.45l6.82,48.77c2.81,20.05-3.21,40.31-16.5,55.59-13.29,15.28-32.52,24.04-52.77,24.04-133.38,0-161.54.07-161.54.07-13.91,0-27.04-5.91-36.29-15.79h0ZM30.05,391.94c0-46.29,35.15-84.54,80.16-89.45,52.93-5.9,99.81,35.78,99.81,89.45,0,49.54-40.28,89.99-89.99,89.99s-89.99-40.36-89.99-89.99Z"/>
  <path class="b" d="M135.03,346.96c0,8.32-6.76,15-15,15-13.21,0-20.1-16.1-10.6-25.61,9.5-9.5,25.6-2.61,25.6,10.61Z"/>
  <circle class="b" cx="120.04" cy="436.93" r="15" transform="translate(-42.47 13.95) rotate(-5.65)"/>
  <path class="b" d="M175.79,381.34c9.5,9.46,2.65,25.6-10.6,25.6s-19.97-16.26-10.6-25.6c5.8-5.83,15.29-5.91,21.2,0Z"/>
  <path class="b" d="M294.27,349.28h125.03c8.28,0,15,6.71,15,15s-6.71,15-15,15h-125.03c-8.28,0-15-6.71-15-15s6.71-15,15-15Z"/>
  <path class="b" d="M294.27,410.92h125.03c8.28,0,15,6.71,15,15s-6.71,15-15,15h-125.03c-8.28,0-15-6.71-15-15s6.71-15,15-15Z"/>
</svg>