<?xml version="1.0" encoding="UTF-8"?>
<svg id="a" xmlns="http://www.w3.org/2000/svg" version="1.1" viewBox="0 0 512 512">
  <!-- Generator: Adobe Illustrator 29.3.1, SVG Export Plug-In . SVG Version: 2.1.0 Build 151)  -->
  <defs>
    <style>
      .st0 {
        fill: #00be94;
      }
    </style>
  </defs>
  <path class="st0" d="M0,391.9c0,66.2,53.8,120,120,120s52.6-9.2,72.8-24.7c14.8,15.5,35.6,24.8,57.7,24.8s96.2,0,161.5,0,56.4-12.5,75.4-34.4c19-21.8,27.6-50.8,23.6-79.4l-6.8-48.8c-8.1-58.2-64.5-96.7-121.5-83.5l-95.3,22c-8.9,2.1-18-2.2-22.1-10.3-21.6-53.8-85.2-212.7-103.7-258.8-4-9.8-15.2-18.8-28.9-18.8H31.7C8.6,0-6.7,23.9,3,44.8l95.4,229.2C42.5,284.2,0,333.2,0,391.9H0ZM163.1,103H59.7c-.2-.4-29.2-70.3-29.4-70.7-.5-1.1.3-2.3,1.5-2.3h101.1c.5,0,1,.3,1.3.7l29,72.3h0ZM214.2,466.2c59-74.7,11.1-185.9-84-193.8l-58-139.4h102.9l62.6,156.3c.1.3.3.6.4.9,10.2,21.1,33.3,32.2,56.1,26.9l95.3-22c40-9.2,79.3,17.6,85,58.5l6.8,48.8c2.8,20-3.2,40.3-16.5,55.6s-32.5,24-52.8,24c-133.4,0-161.5,0-161.5,0-13.9,0-27-5.9-36.3-15.8h0ZM30,391.9c0-46.3,35.1-84.5,80.2-89.5,52.9-5.9,99.8,35.8,99.8,89.5s-40.3,90-90,90-90-40.4-90-90h0Z"/>
  <path class="st0" d="M135,347c0,8.3-6.8,15-15,15-13.2,0-20.1-16.1-10.6-25.6,9.5-9.5,25.6-2.6,25.6,10.6h0Z"/>
  <circle class="st0" cx="120" cy="436.9" r="15"/>
  <path class="st0" d="M175.8,381.3c9.5,9.5,2.6,25.6-10.6,25.6s-20-16.3-10.6-25.6c5.8-5.8,15.3-5.9,21.2,0h0Z"/>
  <path class="st0" d="M294.3,349.3h125c8.3,0,15,6.7,15,15s-6.7,15-15,15h-125c-8.3,0-15-6.7-15-15s6.7-15,15-15Z"/>
  <path class="st0" d="M294.3,410.9h125c8.3,0,15,6.7,15,15s-6.7,15-15,15h-125c-8.3,0-15-6.7-15-15s6.7-15,15-15Z"/>
</svg>