<?xml version="1.0" encoding="UTF-8"?>
<svg id="a" data-name="Layer_1" xmlns="http://www.w3.org/2000/svg" width="688.23" height="684.54" viewBox="0 0 688.23 684.54">
  <path d="M537.66,622.24c-.99.6-2.07,1.08-2.94,1.81-3.98,3.3-6.83,1.38-9.44-2.38.27,8.79-.98,7.93-8.73,11.17-2.65,1.11-5.1,2.72-7.82,4.2-.8-1.11-1.53-2.14-2.27-3.16-.32.11-.63.22-.95.34.53,1.9,1.06,3.8,1.59,5.7-.39.25-.79.51-1.18.76-.98-1.51-1.95-3.02-3.11-4.8-5.25,4.4-10.65,10.8-19.17,6.58.65,3.54,1.23,6.65,1.8,9.76-.37.16-.73.32-1.1.47-.9-.72-1.81-1.44-2.71-2.16-.88-.7-1.75-1.39-2.63-2.08-.16,1.17-.31,2.34-.49,3.67-1.67-1.85-3.37-3.73-5.62-6.22-1.65,1.13-3.82,2.79-6.17,4.15-1.31.75-2.92.97-4.38,1.47-1.23.41-2.42.95-3.66,1.3-1.08.3-2.37.14-3.28.68-1.07.62-2.36,1.65-2.62,2.72-.67,2.85-.83,5.81-1.2,8.73-.63-.03-1.26-.06-1.88-.1-.28-1.79-.55-3.57-.73-4.71-3.37.21-7.63-.8-9.75.89-3.78,2.99-9.75.16-12.22,5.36-.21.44-.82.82-1.32.96-3.32.94-3.32.92-2.6,5.67,1.41-1.79,2.35-2.99,3.79-4.82v8.45c-.41.06-.81.12-1.22.17-.68-1.03-1.36-2.07-2.46-3.75-.27,1.51-.42,2.34-.7,3.9-1.72-3.22-6.33-2.81-6.58-7.17-.02-.38-2.54-1.07-3.76-.84-2.18.41-4.26,1.41-6.1,2.07v7.92c-2.91-.58-5.81-1.16-10.09-2.01,2.9-2.76,4.75-4.53,6.6-6.3-.14-.39-.28-.78-.42-1.17-4.73.47-9.48.76-14.15,1.57-.79.14-1.21,2.47-1.79,3.79l.17-.17c-1.13-.43-2.26-.86-3.13-1.19-.77.81-1.73,1.84-3.51,3.73v-5.5c-1.66,2.06-2.71,3.37-4.15,5.17-.39-1.5-.63-2.43-.93-3.61-1.28,1.59-2.27,2.83-4.02,5.01.27-2.2.41-3.29.69-5.61-2.18,1.64-3.69,2.78-5.2,3.91-.07-.3-.14-.6-.21-.9-1.72.33-3.44.67-5.16,1,0,0,.09.05.09.05-.13-.64-.26-1.28-.64-3.1-1.62,3.45-2.73,5.82-4.3,9.16-.32-2.46-.51-3.95-.76-5.87-1.01.24-2.04.48-3.1.73-.14-.97-.29-1.98-.45-3-.56-.16-1.12-.32-1.69-.48-1.14,2.95-2.28,5.9-3.41,8.85-.18.04-.35.07-.53.11.1-2.07.21-4.15.35-6.97-1.7,1.97-3.02,3.49-5.31,6.14.52-3.05.79-4.61,1.12-6.52h-6.7c-1,2.12-1.88,3.99-2.77,5.87-.4-.09-.8-.18-1.21-.27.33-1.81.67-3.63.99-5.4-5.35-1.46-7.26,3.03-9.78,6.48-.38-.23-.77-.47-1.15-.7.49-1.86.98-3.72,1.43-5.45-6.51-4.69-7.24,2.81-11.02,4.79.85-1.75,1.7-3.5,2.64-5.44-1.71-1.15-3.38-2.26-5.27-3.53-2.49,1.04-5.21,2.53-7.82-.52-.16-.19-2.93,1.59-4.24,2.74-1.05.92-1.73,2.26-3.42,2.94,1.12-2.4,2.23-4.79,3.57-7.66-1.91-.5-3.73-.98-5.54-1.46-.14.41-.29.81-.43,1.22.83.42,1.67.83,2.62,1.3-1.35,2.44-2.68,4.84-4,7.24-.37-.17-.73-.34-1.1-.51.47-1.74.94-3.48,1.69-6.29-2.07,1.77-3.26,2.8-4.46,3.82-.26-.17-.53-.34-.79-.52,1.34-2.18,2.67-4.36,4.38-7.14h-9.58v-1.49c-1.56-.69-2.86-1.4-4.24-1.85-1.36-.43-2.8-.6-4.64-.96.36,1.7.61,2.84.85,3.98-.33.38-.66.77-.99,1.15l-8.69-5.11c.09.45.17.9.26,1.35-3.38.69-6.76,1.38-10.14,2.08-.6-.88-1.2-1.76-1.79-2.63,1.69-.73,3.37-1.47,6.31-2.74-5.34-1.03-9.08-1.75-12.34-2.38-1.06,1.39-2.08,2.72-3.09,4.05-.39-.24-.78-.49-1.16-.73.62-1.32,1.24-2.65,1.89-4.04-2.13-2.42-5.67,6.34-6.49-.17-3.13.6-5.93,1.14-7.62,1.47-1.99-3.49-3.73-6.56-5.65-9.92-2.41,1.66-4.02,2.75-5.87,4.03-1.45-5.12-4.88-9.24-10.58-10.76q-.15,3.21,6.22,5.32c-2.87,2.57-7.86,2.07-9.32-1.12-.53-1.16-.56-2.72-.35-4.02.49-2.94-1.26-4.12-3.53-4.08-1.63.03-3.24,1.26-5.7,2.32-1.09-.59-3.04-1.65-5.57-3.02,1.65-.85,2.58-1.33,3.22-1.66-3.39-2.04-6.65-4-10.42-6.27-.11.06-1.35.75-2.6,1.44-.53-1.28-1.06-2.56-1.83-4.43-.83,1.23-1.46,2.17-2.43,3.62-.33-1.96-.56-3.33-.86-5.09-1.33.66-2.55,1.26-4.02,1.98-.21-1.13-.38-2.09-.56-3.06-.38.43-.75.86-1.13,1.3-1.36-.82-2.64-1.81-4.09-2.4-1.17-.48-2.53-.48-4.12-.74.69-1.27,1.33-2.44,1.86-3.41-3.4.27-6.58.52-10.66.84.48-2.35.81-3.91,1.03-5h-7.72c.41-2.72.66-4.41,1.03-6.84-1.81.86-2.86,1.37-4.1,1.96.22-5.07-4.03-5.6-6.92-7.46-1.34-.86-3.78-1.63-3.85-2.59-.41-5.11-3.54-3.06-5.65-2.76-2.56-3.16-4.97-6.15-7.7-9.51-2.53.65-2.09.53-3.13-3.22-.44-1.59-3.12-3.57-4.8-3.58-3.61-.03-4.94-1.14-4.43-5.08.1-.74-1.06-1.63-1.63-2.46-4.56,4.13-5.23-2.22-7.98-2.98-.08-.02-.09-.3-.19-.7.91-.46,1.87-.95,2.83-1.44l-.06-.92h-4.58c.3-1.33.56-2.47.93-4.13-1.73.38-2.92.64-5.17,1.14,1.42-1.49,2.17-2.28,2.85-2.99-3.66-3.97-7.58-7.72-10.89-11.95-3.69-4.72-6.82-9.88-10.26-14.8-.29-.42-1.15-.44-1.74-.67-.71-.27-1.4-.56-2.11-.84,2.09-3.59-2.63-2.26-3-4.4.69-.47,1.5-1.03,3.53-2.4-8.9-.55-12.68-4.56-11.5-12.62-1.22-.13-2.53-.27-4.54-.48,1.14-1.37,1.9-2.27,2.85-3.4-2.11-2.05-4.17-4.04-6.65-6.44.22-.36.8-1.33,1.6-2.65-1.65-.41-3.01-.74-4.06-1-2.02-13.62-11.92-23.24-16.75-35.74.56-.23,1.51-.62,3.47-1.43-2.39-.51-3.74-.8-5.52-1.18.73-1.34,1.32-2.42,2.1-3.85-5.93.34-5.68-1.93-1.67-5.69-1.97.15-3.01.23-4.57.34.83-1.17,1.47-2.08,2.39-3.37-1.6-.39-2.79-.68-4.69-1.14,1.63-.82,2.72-1.38,4.94-2.5-2.21-1.11-3.83-1.93-5.19-2.61,0-2.73.23-6.01-.08-9.23-.21-2.09-1.2-4.11-1.87-6.16-.12-.37-.32-.82-.62-1.03q-3.16-2.19-.06-5.69c-1.27-.17-2.24-.29-2.83-.37-.28-1.86-.55-3.65-.92-6.14.19-.29.93-1.41,1.67-2.54-1.01-.54-2.01-1.07-2.73-1.45.25-2.76,1.08-5.57.57-8.11-.4-1.99-2.61-3.57-3.72-5.49-1.93-3.35-1.8-6.7.84-10.09-1.03-.6-2.07-1.21-3.42-2,6.29-4,.95-8.79,1.63-12.94-1.55-.41-2.78-.73-4.11-1.08,1.64-1.48,2.9-2.61,4.16-3.74-1.05-.29-2.1-.58-3.54-.98.95-.65,1.86-1.27,3.11-2.13-1.68-.86-3.2-1.64-5.7-2.93,2.46-.38,4.05-.63,5.97-.93-.31-2-.69-4.55-1.1-7.22-1.19-.29-2.53-.62-4.3-1.06,2.67-1.87,3.94-3.36.78-5.57-1.21-.85-1.55-2.93-2.51-4.92,2.24-.36,3.8-.62,5.23-.85v-19.76c.09.04-.71-.33-2.14-1,1.47-1.38,2.59-2.43,3.72-3.48-.58-.43-2.08-1.1-2.02-1.56.55-3.83,2.82-8.05,1.84-11.34-1.86-6.27,2.21-10.44,3.23-15.59,1.8-9.02,2.42-18.28,3.48-27.44.31-2.65,1.64-3.81,4.73-4.36,1.4-7.04,2.46-15.23,4.8-23.03,1.35-4.5,3.32-8.5.5-12.96,3.47-2.56,6.65-4.9,10.02-7.38-.8-.31-2.17-.84-3.5-1.35-2.3-5.5,3.81-7.83,4.65-12.38.65-3.52,3.82-6.54,5.6-9.93.66-1.25.24-3.06.86-4.35.85-1.78,2.22-3.31,3.56-5.23-.21-.13-.94-.56-1.73-1.03,3-4.24,6-8.47,8.99-12.7-.59-2.38,5.02-1.38,1.75-5.73.88-.57,2.04-1.31,3.36-2.17-.74-.58-1.39-1.1-1.9-1.5,2.77-2.14,5.41-4.16,8.53-6.57-1.57-.32-2.77-.57-5.07-1.05,3.66-1.14,6.27-1.96,10.14-3.17-2.28-1.19-3.23-1.68-4.05-2.1,1.74-3.65,10.51-2.77,6.41-10.22.35-.25.7-.51,1.04-.76.86,1.25,1.71,2.5,2.56,3.74.81-.34,2.25-.92,3.42-1.41-.21-3.46-.43-7.09-.65-10.71.45-.19.9-.38,1.35-.57,1,1.52,2,3.04,3,4.56,4.67-3.34-2.57-4.67-1.26-7.97,1.77,1.4,3.3,2.6,4.82,3.81.5-.27,1-.53,1.5-.8-.56-1.69-1.12-3.39-1.68-5.08-.51-.32-1.02-.63-1.53-.95,2.83-1.47,5.65-2.93,8.55-4.44-.07-.08-1.06-1.25-3.05-3.6,3.05-.23,5.19-.39,7.77-.59-.94-4,8.7-3.12,5.36-10.09,1.6.5,2.81.88,4.16,1.3-.64-1.91-1.19-3.55-2.11-6.3,2.85,1.04,4.32,1.58,5.9,2.15-.6-1.57-1.19-3.11-1.78-4.66.42-.24.83-.48,1.25-.72,1.27,1,2.54,2.01,3.82,3.01.32-.19.64-.39.97-.58-.44-1.37-.88-2.75-1.39-4.32,1.98.17,3.86.34,5.75.5.08-.38.16-.76.25-1.14-1.1-.68-2.21-1.37-3.42-2.11,3.18-4.77,6.56-2.46,10.11-.4.59-1.83,1.05-3.27,1.63-5.08-1.55.35-2.92.66-4.29.96-.28-.3-.56-.61-.84-.91,1.82-2.26,3.64-4.51,5.5-6.82,2.44,1.51,4.87,3.02,7.3,4.52.49-.52.99-1.05,1.48-1.57-2.21-1.51-4.41-3.03-6.63-4.55,3.31-3.01,5.15-2.15,6.82,2.82,3.8-2.49,7.55-4.95,11.3-7.41-.15-.43-.3-.86-.45-1.28-3.72.85-7.43,1.71-11.15,2.56-.22-.41-.44-.81-.65-1.22,1.27-1.05,2.4-2.72,3.83-3.03,3.27-.72,6.37-1.15,8.28-4.51.38-.68,2.5-.37,3.9.08,4.81-3.03,5.97-3.47,11.08,1.43-.57-6.63,2.59-10.54,9.85-11.14,5.41-.45,10.88-1.02,16.1-2.38,1.94-.51,3.25-3.43,5.12-5.56,4.2,4.36,8.06,2.19,11.82-1.9-2.45-2.34-4.77-4.95-1.3-8.65,1.44.99,2.88,1.98,4.27,2.93-.43,1.74-.89,3.63-1.73,7.09,4.17-2.08,6.87-3.68,9.76-4.79,4.14-1.6,8.43-2.81,12.65-4.23,3.8-1.27,6.89-2.9,6.17-7.96-.28-1.92.84-4.03,1.32-6.05l1.66.17c.3,1.43.6,2.87.87,4.17,1.85.16,3.64.31,5.02.42,3.78-1.16,7.37-2.8,11.1-3.27,5.44-.69,6.77-2.34,5.42-7.78-.42-1.68.2-3.61.34-5.43.44-.02.87-.03,1.31-.05.55.94,1.1,1.88,1.86,3.18.57-1.1,1.04-1.98,1.82-3.48.69,1.52,1.17,2.58,1.76,3.87.75-.41,1.55-.85,2.51-1.38,1.59,6.22,4.52,8.82,10.15,4.55,6.09-.2,12.2-.21,18.26-.79,1.01-.1,1.8-2.64,2.69-4.06l-.14.16c1.14.35,2.28.69,3.11.94.64-.74,1.58-1.82,2.51-2.9.37.29.74.58,1.1.86.05,1.01.1,2.02.14,2.76,2.31,1.67,2.18-6.41,5.12-.72,1.16-1.23,2.31-2.46,4.1-4.37-.29,1.98-.45,3.07-.76,5.17,1.94-1.43,3.35-2.47,4.69-3.45,2.21.25,4.58.53,7.26.83.78-1.6,1.83-3.78,3.53-7.27v6.58c1.28.66,3.62-4,3.7.91,1.72-.9,3.44-1.81,5.38-2.83.03.1.24.82.57,1.98,1.37-1.86,2.58-3.51,4.04-5.51.6,2.54,1.02,4.31,1.44,6.09,1.56-1.93,3.11-3.86,5.07-6.29-.57,2.29-1,4.03-1.44,5.77.4.18.81.37,1.21.55,1.04-1.97,2.07-3.95,3.11-5.92.37.06.74.12,1.11.18-.22,1.7-.44,3.4-.67,5.14,5.42,2.29,6.95-3.15,9.69-6.24.29.31.57.62.86.94-.42,1.66-.83,3.33-1.25,5,6.56,5.11,7-3.16,10.95-4.64-.84,1.78-1.68,3.57-2.54,5.39,1.81,1.18,3.51,2.28,5.56,3.61,2.5-3.15,4.99-1.37,8.78,2.08,1.8-2.69,3.6-5.38,5.4-8.07.32.26.63.52.95.78-1.14,2.35-2.27,4.69-3.67,7.59,1.94.42,3.71.8,5.48,1.18.08-.43.16-.85.24-1.28-.79-.1-1.57-.2-2.47-.32,1.46-2.67,2.92-5.34,4.38-8.01l.99.41c-.49,1.85-.99,3.69-1.82,6.8,2.1-1.97,3.23-3.04,4.37-4.11.3.19.59.38.89.56-1.28,2.1-2.57,4.2-4.27,6.97,3.35.22,6.1.4,9.35.61.65,2.52,3.42,2.34,5.92,1.06,3.67-1.88,6.71-3.06,9.38,1.53.43.75,2.99.26,4.57.34.19-.49.38-.98.57-1.47.06.56.08,1.13.2,1.68.26,1.24.58,2.47.87,3.7.78-1.01,1.53-2.04,2.36-3.01,1-1.18,2.07-2.31,3.11-3.46.52.5,1.03.99,1.55,1.49-1.06,1.34-2.11,2.68-3.28,4.15,3.53.74,6.97,1.47,10.06,2.12,1.2-1.26,2.99-3.66,3.36-3.46,2.19,1.2,4.05,2.99,5.72,4.35,3-.58,5.92-1.14,9.06-1.74-.95,4.32,1.37,7.3,4.58,8.99,1.15.6,3.74-1.53,5.69-2.43,1.2,5.04,5.05,8.71,10.57,10.56q-.04-3.78-6.57-5.38c2.64-3.67,5.79-1.56,8.58-.93,1.67.37,3.16,1.5,5.52,2.67.06,3.98-4.01-.64-5.39.97.4,1.11.88,2.37,1.31,3.64.93,2.75,4.51,3.96,6.59,2.28.8-.65,1.78-1.08,2.67-1.61-.18,1.09-.36,2.18-.59,3.55,1.64-.61,3.14-1.16,4.64-1.71l.49.82c-.8.71-1.61,1.42-2.18,1.93,3.27,1.91,6.52,3.81,10.17,5.95.49-.13,1.97-.55,3.45-.96-.05,1.13-.1,2.27-.18,4.13,1.4-1.07,2.6-1.98,3.94-2.99.23,1.49.45,2.87.71,4.57,1.31-.81,2.38-1.47,3.85-2.37.19,1.22.35,2.19.45,2.85,1.71,0,3.46-.36,4.95.11,1.37.43,2.45,1.75,4.11,3.03-.14.3-.73,1.51-1.28,2.65,3.26-.31,6.44-.62,10.84-1.05-.94,2.86-1.5,4.56-1.95,5.94,2.55-.35,5.28-.72,8.36-1.14-.45,2.9-.72,4.68-1.15,7.42,2.01-1.1,3.03-1.67,4.52-2.48-1.43,6.12,4.06,5.67,6.62,7.92,1.29,1.13,2.78,2.04,4.11,3.14,1.12.93,2.39,2.98,3.17,2.79,3.68-.88,4.47,1.81,5.93,3.93.79,1.15,1.92,2.08,3.24,3.47-.04.07-.42.86-.8,1.65,1.89.72,6.85-3.2,4.85,3.37-.16.53,3.12,2.86,4.94,3.06,2.74.3,4.95,2.4,4.44,5.14-.14.76.88,1.74,1.36,2.62,4.71-4.31,5.11,2.59,9.02,2.67-1.81,1.32-2.76,2.02-3.71,2.72l.29,1.09c1.31-.1,2.63-.19,4.27-.32-.3,1.13-.58,2.14-.98,3.63,1.66-.1,2.98-.17,5-.29-1.16,1.03-1.9,1.68-3.12,2.76,11.74,8.62,17.48,22.62,28.53,32.47-.56.32-1.41.81-2.26,1.3,6.6.44,9.63,4.82,11.67,10.32-.57,1.14-1.14,2.28-1.87,3.73h5.25c-1.34,1.48-2.15,2.38-3.15,3.48,2.19,2.14,4.25,4.14,6.66,6.5-.24.32-.85,1.13-1.67,2.22,3.75,1.45,6.2,3.65,5.13,8.22-.24,1.04,1.23,2.52,1.99,3.75,2.95,4.75,6.08,9.39,8.81,14.26,1.19,2.12,1.35,4.79,2.42,7.01.6,1.25,2.09,2.08,3.66,3.54-1.62.47-2.7.78-4.93,1.43,2.26.8,3.59,1.27,5.14,1.82-.35,1.06-.7,2.11-1.12,3.36,1.56.3,3.08.59,5.1.97-.79,1.45-1.36,2.5-1.98,3.65,1.15.46,2.06.83,2.98,1.19-.72.87-1.42,1.71-2.52,3.04,1.65.38,2.83.65,4.35,1-2.79,2.18-5.73,4.57.62,4.73v12.63c.99,1.49,1.68,3.65,3.12,4.44,2.72,1.49,2.88,1.86-.23,5.15.05.15.1.42.17.43.94.09,1.88.15,2.74.21v5.08c.36.06.72.12,1.08.18-.74,1.21-1.93,2.38-2.04,3.65-.06.68,1.76,1.51,2.55,2.14-.23,2.44-.49,5.18-.75,7.91,4.08-.64,2.52,3.24,3.77,4.85,2.54,3.27,2.21,6.72-.56,10.15.97.55,1.9,1.09,2.87,1.64-4.73,5.68-2.29,10.16,1.61,15.39-.42.45-1.59,1.68-2.77,2.92,1.12.16,2.25.32,3.9.56-1.23.92-2.16,1.6-3.37,2.5,1.82.87,3.39,1.62,5.02,2.41q-4.53,2.09-4.53,8.73c1.44.19,2.88.39,4.32.58-.01.38-.02.75-.03,1.13-1.56.27-3.13.54-5.35.92.74,1.85,1.46,3.68,2.19,5.51.29-.06.57-.12.86-.19v-3.48c.28-.11.56-.21.84-.32,1.09,2.23,2.18,4.47,3.53,7.23-2.5.34-3.93.53-5.53.74v16.27c1.67,1.13,1.33,6.18-1.91,8.17.86.24,1.58.45,1.92.54,1.05,5.4-1.96,10.45-.43,15.9.45,1.61-1.03,3.71-1.47,5.62-1.16,5-2.33,10-3.25,15.05-.15.82.97,1.88.45,2.52-1.64,6.98-3.27,13.97-5.07,21.63-1.25-1.66-1.7-2.27-2.23-2.97-.54.77-.84,1.01-.89,1.3-1.49,8.07-2.47,16.28-4.64,24.16-1.15,4.17-3.26,7.87-.61,12.3-3.35,2.62-6.48,5.08-9.37,7.35.56.74,1.75,2.24,2.86,3.78,1.75,2.44,1.19,3.64-1.84,4.45-1.1.29-2,2.45-2.44,3.92-1.24,4.17-1.92,8.51-5.83,11.37-.42.31.77,2.4.34,3.17-1.28,2.31-3,4.38-4.74,6.81.1.07.81.55,1.33.91-1.29,1.99-2.47,3.97-3.82,5.82-1.45,1.99-3.06,3.86-4.89,6.14.01.02.5.74.82,1.22-1.56,1.37-2.97,2.61-4.37,3.85.69.37,1.38.74,2.43,1.29-3.25,3.57-6.43,7.06-9.69,10.63.58.07,1.62.2,3.96.49-3.58,1.22-5.98,2.04-9.35,3.19,1.66,1.28,2.42,1.87,3.62,2.79-1.95,1.04-3.86,1.77-5.38,2.99-.76.61-.8,2.11-1.35,3.77.42.08-.66-.4-1.64-.26-1.65.25-3.49.57-4.74,1.53-.49.38.37,2.53.61,3.88.06.31.21.65.16.94-.4,2.04-.84,4.07-1.57,7.58-1.49-2.55-2.32-3.95-3.11-5.31q-1.12,1.39,1.45,8.12c-2.24-1.65-3.87-2.85-5.5-4.05-.45.26-.91.51-1.36.77.58,1.64,1.17,3.28,1.75,4.92.61.2,1.23.4,1.84.59-2.69,1.84-5.39,3.68-8.22,5.61.05.19.4,1.59.76,2.99h-6.49c-1.89,2.74-4.3,6.23-6.89,9.99.25.11-.74-.32-2.17-.92.66,2.11,1.18,3.77,2.04,6.51-2.79-1.04-4.34-1.63-5.71-2.14.51,1.56,1.03,3.16,1.55,4.75-.41.14-.81.27-1.22.41l-3.91-2.77c-.29.25-.58.49-.86.74.46,1.27.93,2.55,1.63,4.49-1.29-.37-2.22-.72-3.19-.88-.58-.1-1.3-.05-1.78.23-.32.18-.51.94-.43,1.37.23,1.16.64,2.29.98,3.43-1.65.26-3.32.84-4.93.68-1.14-.11-2.19-1.22-4-2.31v4.98c1.01-.21,1.97-.41,3.37-.7-.17,1.29.09,2.81-.51,3.32-3.74,3.15-7.75,2.73-12.51,1.05,1.77,1.79,3.53,3.59,5.31,5.39-2.52,2.66-2.87,2.56-7.1-2.63-3.04,3.91-10.45,2.96-10.59,10.06-.75.94-1.5,1.88-2.24,2.82ZM459.09,266.58c.62.51,1.25,1.02,1.87,1.53,3.15-3.04,7.62-5.53,9.13-9.23,2.33-5.72-5.98-18.5-12.15-19.61-2.82-.51-6.34.19-8.87,1.56-2.53,1.37-4.19,4.33-6.31,6.5-5.76,5.9-12.9,10.43-16.14,18.74-1.89,4.87-7.68,7.9-7.14,14.21.06.73-1.06,1.56-1.64,2.35-1.31,1.79-3.31,3.41-3.81,5.41-2.72,10.87-6.12,21.73-7.26,32.8-1.34,12.95,2.86,24.76,13.6,33.16,2.21,1.73,5.6,3.3,8.19,2.97,9.03-1.16,16.94-5.62,23.47-11.67,2.88-2.67,3.7-7.55,4.96-10.33,1.5-.88,2.57-1.35,3.45-2.05,2.36-1.89,4.64-3.87,7.16-5.99,1.56,7.98,5.02,13.04,10.68,16.7,4.88,3.15,9.14,2.6,12.68-2.01,2.76-3.6,5.22-7.43,8.63-12.33.37,5.67.18,10.03,1.13,14.13.5,2.15,2.99,3.84,4.58,5.73.98-1.99,2.68-3.93,2.82-5.98.43-6.62.12-13.28.43-19.91.23-4.97,1.22-9.91,1.45-14.88.21-4.61-2.8-7.65-7.93-8.54-.36,1.68-.73,3.37-1.36,6.3-3.86-5.79-8.6-6.19-13.93-3.87.18-1.64.28-2.52.37-3.41-3.75,2.19-6.39,5.23-9.38,7.88-11.69,10.34-23.21,20.89-35.39,30.62-4.49,3.59-10.45,5.73-16.07,7.43-6.52,1.97-11.07-1.54-11.97-8.16-.38-2.8-1.01-5.69-.67-8.43,2.96-24.05,11.14-46.08,27.04-64.61,3.94-4.59,9.8-7.63,15.06-10.92,1.52-.95,4.06-.28,6.13-.35.08,2.41.58,4.9.11,7.2-.5,2.45-1.91,4.71-2.93,7.05ZM259.15,295.48c2.03-4.7,3.59-8.71,5.46-12.56,1.9-3.91.48-6.83-2.52-9.15-1.91-1.47-3.87-1.85-4.83,1.45-1.07,3.66-2.92,7.11-3.78,10.8-1.98,8.51-4.07,16.57-16.51,14.04l.06,1.89c2.97,2.5,5.93,5,9.38,7.9-1.06,4.85-2.4,10.48-3.52,16.16-1.32,6.72-.67,12.94,5.17,17.62,2.44,1.96,5.11,3.07,7.48.41,3.18-3.56,5.8-7.62,8.92-11.24,3.2-3.71,4.38-7.57,2.06-13.01-5.44,5.8-10.49,11.18-16.45,17.54,0-2.63-.17-3.62.03-4.55,1.62-7.78,3.24-15.57,5.05-23.31.31-1.33,1.3-3.27,2.32-3.52,5.94-1.46,11.97-2.56,18.01-3.59.67-.11,1.57,1.02,2.34,1.61,2.31,1.77,4.6,3.55,7.13,5.5-1.19,6.38-2.56,13.34-3.76,20.33-.96,5.59,1.27,10.04,5.4,13.7,2.56,2.27,5.28,3.2,7.83.29,2.96-3.38,5.32-7.31,8.45-10.5,3.75-3.83,5.14-7.69,1.92-13.14-5.11,5.47-10.15,10.87-15.19,16.26-.43-.29-.86-.58-1.29-.87,1.81-9.05,3.5-18.12,5.55-27.11.28-1.23,2.2-2.69,3.58-2.98,9.14-1.93,18.34-3.57,28.22-5.44-.26,3.63-.51,5.92-.57,8.21-.25,9.98-.58,19.97-.61,29.95-.01,5.05,3.24,8.02,7.86,7.22,5.54-.95,3.75-6.18,2.87-8.38-3.73-9.35-1.68-18.73-1.24-28.07.52-11.11,1.85-22.18,2.56-33.29.41-6.35-2.7-8.86-8.47-7.57-.54,8.61-1.07,17.18-1.55,24.88-9.79.85-18.78,1.63-28.6,2.48,2.01-4.75,3.83-8.96,5.57-13.2,1.46-3.54-.25-7.72-3.77-9-4.47-1.64-3.9,2.52-4.7,4.55-2.26,5.84-4.17,11.82-6.26,17.89-9.53-5.62-19.14.25-29.6-.19ZM133.05,361.67c1.45-11.88,2.88-23.64,4.31-35.39.7-5.78,1.68-10.43,8.32-13.58,10.69-5.06,21.02-9.74,33.14-7.56,5.12.92,6.48,3.09,3.75,7.58-2.54,4.17-5.92,8.01-9.57,11.28-9.01,8.07-19.58,13.61-31.01,17.52-4.14,1.42-4.45,2.96-1.68,6.35,2.14,2.62,4.37,3.38,7.75,2.03,14.08-5.61,26.83-13.22,37.25-24.32,8.75-9.32,6.14-21.7-5.93-26.42-5.18-2.03-11.07-2.25-17.89-3.52,4.32-4.83,8.81-9.27,12.61-14.23,4.08-5.33,9.16-10.7,10.89-16.87,3.18-11.33-7.11-20.94-20.11-20.17-6.29.38-12.51,4.84-19.56-1.4,1.37,6.97-2.32,8.65-6.15,10.75-4.64,2.55-8.81,5.93-13.26,8.85-2.54,1.67-3.49,3.93-1.55,6.24,1.95,2.32,4.27,3.12,7.07.2,2.93-3.05,6.59-5.4,10.97-8.87-3.6,17.3-7.05,32.8-10,48.39-2.58,13.63-4.87,27.34-6.73,41.08-1.05,7.78.36,9.25,7.38,12.05ZM515.8,299.07c-.12,1.26-.21,1.91-.25,2.57-.85,13.51,1.37,27.31-3.85,40.43-.39.98-.04,2.3.08,3.44.3,2.91.91,5.8.95,8.71.07,6.32-.73,12.72.07,18.93.31,2.45,3.82,6.16,6.09,6.32,4.09.29,2.53-3.86,2.51-6.42-.02-1.82-.01-3.67-.36-5.45-1.83-9.45.89-18.47,1.67-28.11,5.82,3.83,8.29,3.18,11.82-1.54,2.85-3.81,6.24-7.22,8.76-10.09,4.57,2.1,8.63,3.97,13.43,6.17-5.42,2.6-10.24,4.72-14.87,7.18-4.76,2.53-9.34,5.39-14.02,8.12,4.6,7.42,4.64,7.41,11.01,3.47,2.68-1.66,5.35-3.37,8.21-4.68,6.73-3.08,13.51-6.09,20.39-8.83,3.68-1.47,3.68-3.66,2.38-6.71-2.23-5.22-6.75-6.44-11.72-7.07-2.89-.37-5.76-.91-9.36-1.49,4.4-8.14,7.51-16.09,17.36-17.18-1.14-8.66-4.66-10.29-11.56-5.71-.55.37-1.29.54-1.71,1.01-2.31,2.56-4.59,2.23-7.51.76-5.6-2.81-10.08-1.38-13.93,3.58-2.03,2.62-4.36,5.01-6.55,7.51-.74-6.62-.67-12.85-9.03-14.92ZM342.56,327.53c2.14-.2,4.42.25,5.88-.65,6.85-4.24,13.63-8.65,20.06-13.48,1.33-1,1.86-4.26,1.42-6.17-1.19-5.04-8.74-9.29-13.87-8.39-17.61,3.09-26.56,26.25-15.54,40.2,6.85,8.67,20.5,8.33,26.97-.7,2.16-3,4.23-6.07,6.4-9.06,2.15-2.98,4.38-5.92,6.57-8.87l-1.26-1.24c-2.35,1.39-4.82,2.6-7.01,4.2-5.21,3.8-10,8.26-15.48,11.59-8.89,5.4-13.02,3.03-14.13-7.42ZM199.23,329.31c.03.52,0,1.7.19,2.84,1.03,6.07,4.74,10.26,10.09,12.71,4.92,2.25,9.47,0,12.51-3.69,5.13-6.23,9.95-12.8,14.13-19.69,2.64-4.35.98-9.53-2.17-12.96-2.84-3.1-6.92-5.94-10.92-6.87-3.98-.93-8.38,2.31-12.89,1.07-.27-.07-.87.51-1.1.92-4.55,7.85-9.88,15.39-9.84,25.68ZM406.82,416.67v24.79c5.69,0,10.99.22,16.26-.06,6.35-.33,9.08-5.3,6.68-11.29-.55-1.37-.72-3.06-.52-4.52.66-4.84-1.39-8.32-6.38-8.81-5.21-.51-10.51-.11-16.03-.11ZM324.09,441.12c2.15-6.31-7.44-4.07-6.2-9.96-.21.13.2-.15.64-.38,3.65-1.92,4.74-5.06,3.79-8.82-.95-3.75-3.94-5.27-7.51-5.39-5.26-.17-10.52-.04-16.26-.04,0,7.85-.15,15.13.16,22.4.05,1.07,2.3,2.04,4.49,3.85.15-3.38.41-4.87.25-6.32-.47-4.34,2.43-5.45,5.54-4.88,1.8.33,3.55,2.49,4.76,4.22,2.46,3.53,4.68,7.07,10.34,5.33ZM491.99,432.41c4.86-3.21,7.61-6.07,5.91-10.74-1.75-4.83-5.92-5.28-10.26-5.24-3.16.03-6.34.19-9.49-.02-3.06-.21-4.18.96-4.1,3.98.15,5.49-.11,11,.18,16.47.08,1.58,1.25,4.24,2.27,4.42,3.49.62,2.64-2.44,2.75-4.41.23-4.25,2.3-6.41,6-5.32,1.57.46,2.79,2.45,3.94,3.92,2.1,2.68,3.37,6.45,7.76,5.99,1.09-.11,2.1-1.04,3.14-1.59-.7-1.12-1.2-2.48-2.15-3.31-1.6-1.4-3.48-2.47-5.95-4.16ZM273.66,442.38c8.79.05,14.98-5.32,15.12-13.14.14-7.75-6.33-13.72-14.74-13.61-8.72.11-14.81,5.69-14.81,13.55,0,7.74,5.91,13.15,14.42,13.2ZM216.22,418.83c-5.38-3.43-10.69-4.51-15.22-1.87-2.33,1.36-4.58,4.46-5.01,7.07-.57,3.51,2.6,5.5,5.96,6.14,2.6.5,5.34.35,7.89,1,1.45.37,2.64,1.77,3.95,2.71-1.39,1.18-2.79,3.37-4.17,3.36-3.91-.04-7.81-.97-13.16-1.77-1.99,1.12-1.46,2.94,1.75,4.75,4.99,2.82,10.14,2.81,15.36.85,3.95-1.48,5.64-4.53,5.18-8.63-.45-4.03-3.48-5.41-6.95-5.97-2.61-.42-5.3-.43-7.9-.89-.95-.17-1.77-1.14-2.64-1.75.76-.95,1.42-2.6,2.29-2.71,2.38-.3,5.04-.51,7.22.27,2.88,1.02,4.37.45,5.45-2.56ZM360.43,435.57c0,.62.01,1.24.02,1.87,4.5,5.09,11.61,6.5,18.12,3.67,3.89-1.69,5.45-4.59,4.98-8.77-.44-3.93-3.26-5.18-6.49-5.79-2.77-.52-5.64-.54-8.41-1.08-.89-.17-2.23-1.26-2.24-1.94-.01-.83,1.1-2.3,1.85-2.38,2.39-.27,4.99-.52,7.24.15,2.99.89,4.7.47,5.58-2.75-4.74-2.89-9.62-3.84-14.84-1.93-3.37,1.23-5.91,3.43-5.51,7.34.39,3.81,3.07,5.76,6.7,6.32,2.63.41,5.34.37,7.92.94,1.23.27,2.25,1.52,3.36,2.32-.95,1.21-1.9,3.43-2.87,3.44-3.49.04-6.98-.7-10.47-1.09-1.64-.18-3.29-.22-4.94-.32ZM228.16,428.7c0,3.32-.15,6.65.1,9.95.07.97,1.29,1.86,1.98,2.79.85-.78,2.5-1.63,2.42-2.31-.67-6.37,3.55-6.33,7.9-6.46,8.08-.24,11.85-2.97,11.78-8.37-.07-5.41-3.87-7.89-12.11-7.88q-12.18,0-12.07,12.28ZM449.9,416.33c-4.52,8.72-8.58,16.57-13.39,25.84,3.52-.9,5.48-1.55,7.5-1.88,5.62-.9,11.4-5.6,16.83.76.65.76,2.73.3,4.91.46-4.37-8.32-8.24-16-12.49-23.45-.71-1.25-3.06-1.58-3.36-1.73ZM344.8,421.35c2.87,0,5.15.46,7.07-.17,1.22-.39,1.91-2.4,3.6-4.73-8.58,0-15.22-.1-21.85.11-.97.03-1.9,1.56-2.85,2.4.98.8,1.86,2.06,2.96,2.29,1.85.38,3.83.1,6.37.1,0,5.67-.19,10.64.11,15.58.09,1.54,1.53,3,2.35,4.5.74-1.57,2.04-3.1,2.13-4.7.28-4.94.1-9.9.1-15.38Z"/>
  <path d="M651.02,506.72c2.09,1.73,4.23,3.52,6.38,5.3-.14.32-.28.64-.42.96-1.87-.09-3.74-.18-4.67-.23-3.01,4.47-5.7,8.46-8.58,12.74-2.54-2.57-4.04-4.38-.42-7.64,2.98-2.69,4.74-6.71,7.71-11.13Z"/>
  <path d="M33.61,182.56c3.37,2.27,1.77,6.8-6.52,16.26-.46-2.31-.92-4.6-1.13-5.6,2.77-3.87,5.21-7.26,7.65-10.66Z"/>
  <path d="M654.23,500.17c-3.1-2.57-2.21-4.99,7.63-17.67-.49,2.5-1.02,3.66-.84,4.71.19,1.11,1.05,2.1,1.15,2.28-2.68,3.61-5.2,7-7.94,10.69Z"/>
  <path d="M446.18,10.55c-3.88,2.16-6.1,3.96-8.59,4.47-.77.16-2.62-3.06-3.23-4.98-.22-.69,1.98-3.12,2.69-2.97,2.65.56,5.15,1.87,9.13,3.48Z"/>
  <path d="M537.66,622.24c.75-.94,1.5-1.88,2.24-2.82,3.44-2.91,7.19-4.8,12.71-3.8-1.38,1.47-2.15,2.76-3.29,3.41-3.13,1.79-6.39,3.36-9.65,4.91-.77.36-1.74.3-2.61.43.2-.71.4-1.42.6-2.14Z"/>
  <path d="M301.63,7.98c-1.31.97-2.63,1.94-4.87,3.6.41-5.44.18-9.69,6.81-10.17-.78,2.51-1.44,4.63-2.09,6.74,0,0,.15-.17.15-.17Z"/>
  <path d="M386.2,674.81c1.48-1,2.96-2.01,5.1-3.46.19,5.38-.98,8.64-6.45,10.34.61-2.82,1.07-4.94,1.52-7.05,0,0-.17.18-.17.18Z"/>
  <path d="M44.34,156.23c1.4,2.74,2.3,4.52,3.47,6.81-2.86,1.09-5.19,1.97-8.57,3.26,1.95-3.84,3.28-6.47,5.1-10.08Z"/>
  <path d="M193.4,658.34c-1.74-3.54-3.24-6.59-4.87-9.89,6.52,3.11,8.15,6.15,4.87,9.89Z"/>
  <path d="M481.95,22.25c1.36,2.98,2.51,5.5,3.9,8.55-6.41-2.25-7.72-5.14-3.9-8.55Z"/>
  <path d="M506.66,39.9c.89,2.64,1.41,4.17,2.16,6.4-1.72.3-3.18.75-4.6.67-.44-.03-1.34-1.82-1.09-2.31.79-1.53,2.04-2.82,3.53-4.76Z"/>
  <path d="M185.86,638.01c-1.6,1.38-2.73,2.36-3.87,3.34-.83-1.24-2.09-2.42-2.28-3.75-.09-.6,1.89-1.97,3.05-2.13.75-.1,1.72,1.34,3.11,2.54Z"/>
  <path d="M360.74,676.65c1.34,1.33,2.68,2.66,4.85,4.81.02-.01-.91.64-1.94,1.06-1.5.62-3.08,1.07-5.91,2.02,1.25-3.11,2.2-5.45,3.12-7.82-.02-.02-.11-.07-.11-.07Z"/>
  <path d="M500.49,308.76c-4.05,6.8-7.19,12.35-10.62,17.73-1.91,3-3.99,6.03-6.57,8.42-1.27,1.18-3.86.94-5.85,1.34-.1-1.86-.8-3.94-.2-5.54,3.31-8.8,9.46-15.41,17.12-20.63,1.19-.81,3.01-.69,6.13-1.32Z"/>
  <path d="M141.36,301.86c3.89-15.45,7.4-29.56,11.07-43.63.28-1.08,1.53-2.5,2.53-2.7,6.28-1.26,12.6-2.51,18.97-3.16,4.29-.44,5.89,2.56,4.1,6.12-3.26,6.46-6.42,13.21-10.96,18.74-6.47,7.88-14.13,14.79-21.34,22.06-.76.77-1.91,1.15-4.37,2.58Z"/>
  <path d="M524.56,334.16c4.05-9.56,7.52-19.61,18.51-23.54-3.26,10.14-11.19,16.6-18.51,23.54Z"/>
  <path d="M360.89,308.19c-4.46,3.18-8.92,6.36-13.38,9.54-.28-.39-.56-.78-.84-1.17,3.22-4.89,7.49-8.33,13.31-9.63.3.42.6.84.91,1.26Z"/>
  <path d="M205.49,337.87c.4-9.41,1.81-18.13,7.87-24.16,3.31-3.29,9.72-3.57,14.84-4.8.6-.14,2.9,2.72,2.6,3.53-3.83,10.53-9.68,19.59-20.13,24.74-1.23.6-2.85.4-5.17.68Z"/>
  <path d="M411.85,436.8c-1.28-3.75-.21-5.54,3.39-5.59,2.48-.04,4.99-.29,7.41.08,1.07.16,2.74,1.65,2.72,2.49-.03,1.03-1.48,2.79-2.45,2.89-3.57.35-7.19.14-11.07.14Z"/>
  <path d="M411.3,426.52c.09-1.87.16-3.3.25-5.12,3.59,0,6.91-.17,10.18.11.92.08,1.72,1.51,2.58,2.33-.82.67-1.58,1.8-2.47,1.92-3.27.43-6.58.51-10.54.77Z"/>
  <path d="M304.05,427.21c-1.53-4.27-.37-6.32,4.38-5.86,1.96.19,4.02-.25,5.92.15,1.16.24,2.09,1.54,3.12,2.37-1.01.84-1.93,2.23-3.05,2.42-3.39.56-6.85.65-10.37.92Z"/>
  <path d="M479.53,427.31v-5.85c3.75,0,7.46-.17,11.13.12.92.07,1.72,1.61,2.58,2.48-.92.77-1.75,2.05-2.77,2.21-3.39.54-6.85.69-10.94,1.04Z"/>
  <path d="M274.15,437.48c-5.99.09-9.8-3.05-9.83-8.08-.04-5.28,3.47-8.49,9.4-8.62,5.94-.13,9.76,3,9.85,8.07.09,5.09-3.68,8.55-9.42,8.63Z"/>
  <path d="M233.44,428.28c-1.33-6.63-1.13-6.88,5.08-6.9,1.82,0,3.76-.36,5.43.16,1.3.4,2.26,1.9,3.37,2.91-1.07,1.02-2.02,2.7-3.24,2.92-3.37.62-6.86.63-10.65.91Z"/>
  <path d="M456.17,432.97c-3.83.74-6.71,1.29-10.57,2.04,1.8-3.71,3.33-6.85,5.3-10.91,1.91,3.22,3.41,5.74,5.28,8.88Z"/>
</svg>