<?xml version="1.0" encoding="UTF-8"?>
<svg id="a" data-name="Layer_1" xmlns="http://www.w3.org/2000/svg" width="1233.42" height="328.07" viewBox="0 0 1233.42 328.07">
  <defs>
    <style>
      .b {
        fill: #efeeee;
      }

      .c {
        fill: #231f20;
      }

      .d {
        fill: #d2dbe2;
      }

      .e {
        fill: #a44b25;
      }

      .f {
        fill: #474748;
      }

      .g {
        fill: #28509b;
      }
    </style>
  </defs>
  <path class="e" d="M878.6,191.81c-5.67,10.2-11.37,20.39-17.01,30.61-2.84,5.15-7.77,3.16-11.96,3.54-3.66.33-3.39-2.45-3.96-4.97-2.11-9.21-4.53-18.34-7.03-28.31-1.18,1.39-2.35,2.18-2.67,3.23-2.17,7.04-4.33,14.1-6.16,21.24-1.14,4.43-5.01,7.93-9.58,7.96-2.16.01-4.32.13-6.48.2-.62-.01-1.25-.02-1.87-.03-.7-.03-1.4-.07-2.1-.1-.98-.03-1.96-.07-2.95-.1-.26-.89-.98-1.96-.72-2.64,4.18-10.85,8.56-21.63,12.75-32.48,3.25-8.42,6.3-16.92,9.54-25.66h22.51c3.75,8.44,2.46,18.52,6.77,26.87l1.7-.02c3.29-6.01,6.87-11.89,9.8-18.08,3.13-6.6,7.36-10.54,15.21-9.23,2.42.4,4.98-.03,7.47-.08,1.63.03,3.26.07,4.9.1.29.92.82,1.83.84,2.75.4,19.41.74,38.82,1.1,58.23-1.6.13-3.21.26-4.81.39-.71.01-1.42.02-2.13.03-.3-.16-.61-.16-.91,0-2.35,0-4.69.01-7.04.02-1-.08-2.01-.15-3.02-.22-.17-10.99-.34-21.98-.51-32.96.07-1.07.14-2.14.2-3.21-.29-.02-.59-.04-.88-.06-.34,1-.68,2-1.02,2.99Z"/>
  <path class="e" d="M989.83,191.94c2.36,17.14-16.89,32.11-30.71,34.93-12.46,2.54-24.6,1.53-35.92-4.92-8.51-4.85-16.45-16.65-13.44-28.04,1.1-4.17.57-9.33,2.89-12.49,3.56-4.84,8.48-9.07,13.63-12.28,14.34-8.94,30.14-7.64,45.48-3.76,11.19,2.83,18.05,14.31,18.08,26.57ZM951.56,177.99c-1.33,0-2.67-.1-3.98.02-7.15.64-15.24,7.33-16.71,13.74-1.92,8.42.94,14.35,9.06,18.8,9.54,5.23,25.81-1.51,28.83-11.95,3.46-11.95-3.86-20.77-17.21-20.61Z"/>
  <path class="e" d="M799.69,175.28c3.81,6.43,5.41,13.08,4.39,20.77-1.27,9.66-6.4,16.71-13.48,22.35-15.71,12.52-42.29,13.35-57.57.51-5.9-4.95-8.75-11.43-9.26-19.43-.82-12.8,4.72-22.32,14.64-28.99,5.44-3.66,12.3-6.24,18.8-7.05,8.76-1.1,17.88-.66,26.68.42,3.79.46,7.19,4.18,10.77,6.42,1.19,1,2.38,2.01,3.57,3.01.11.29.29.53.54.7.31.42.61.85.92,1.27ZM762.49,212c5.8.96,10.9-1.92,15.11-5.62,8.41-7.4,9.61-20.25-1.7-26.21-4.08-2.15-9.67-2.32-14.47-2-8.22.55-17.92,8.39-16.85,20.34.54,6.07,8.48,14.61,17.92,13.49Z"/>
  <path class="e" d="M641.87,164.03h20.19c-2.91,14.65-5.23,28.29-8.43,41.71-2.31,9.66-8.21,16.32-18.28,19.61-12.47,4.07-24.31,3.83-35.89-2.21-5.97-3.11-9.67-8.24-9.51-15.08.13-5.39,1.23-10.79,2.18-16.13,1.11-6.29,2.41-12.54,3.84-18.77.72-3.13,1.89-6.17,2.86-9.24,0,0,.49.03.49.03l.47-.15c5.03-.02,10.07-.04,15.1-.06.98.07,1.96.13,2.95.19,0,0,.06.03.06.03.12.69.24,1.38.36,2.07-.19.9-.37,1.8-.56,2.71-.23.41-.45.82-.68,1.23-2.04,10.04-4.1,20.07-6.09,30.11-.73,3.67,2.06,11.02,5.17,11.31,3.61.33,8.23-.38,10.92-2.52,2.89-2.3,4.22-6.7,5.9-10.33,1.26-2.72,2.1-5.65,2.93-8.54,1.33-4.66,2.48-9.36,3.72-14.05.07-.65.13-1.29.2-1.94.26-1.33.51-2.65.77-3.98.45-2,.91-4.01,1.36-6.01Z"/>
  <path class="e" d="M507.87,225.37c-.33-.95-1.23-2.23-.9-2.82,4.4-7.87,8.91-15.68,13.53-23.42,6.48-10.86,12.97-21.72,19.72-32.4.91-1.44,3.35-2.55,5.15-2.67,6.14-.39,12.31-.26,18.47-.33,0,0,.47.11.47.11l.46-.11c1.28,1.05,3.37,1.89,3.71,3.19,4.92,18.75,9.6,37.55,14.32,56.35.16.63.05,1.32.07,1.98-1.03.03-2.06.07-3.09.1-5.01,0-10.03-.01-15.04-.02-.3-.17-.62-.23-.96-.17-.7-1.39-1.4-2.78-2.1-4.17-.23-.46-.46-.92-.69-1.39-.16-2.79-1.17-4.75-4.38-4.83-5.77-.14-11.53-.54-17.29-.49-6.88.06-8.98,5.66-11.56,10.59-.32.09-.62.23-.9.41-1.03.02-2.07.03-3.1.04-.3-.17-.6-.17-.9,0-4.7,0-9.4,0-14.1,0-.31-.16-.61-.14-.9.05ZM542.27,199.75h14.71c-1.29-6.41-2.5-12.39-3.71-18.37-.36-.09-.72-.17-1.08-.26-3.25,6.1-6.5,12.19-9.93,18.63Z"/>
  <path class="e" d="M1162.67,165.94c-5.34,8.64-10.56,17.36-16.07,25.9-5.78,8.95-11.79,17.75-17.81,26.54-1.8,2.63-3.61,6.6-6.06,7.15-4.9,1.12-10.25.51-15.39.12-.94-.07-2.03-2.35-2.48-3.79-2.83-9.06-5.38-18.2-8.25-27.24-3.15-9.92-6.55-19.76-10.24-30.81,7.71,0,14.59,0,21.47,0,.27.19.56.33.87.43.13.6.25,1.21.38,1.81.19.42.39.83.58,1.25.11.91.22,1.82.33,2.73.22.44.44.88.65,1.33,2.48,10.08,4.95,20.16,7.8,31.76,3.48-5.85,6.39-10.61,9.17-15.46,3.9-6.81,7.95-13.56,11.42-20.59,1.41-2.85,3.3-3.25,5.83-3.32,1.29,0,2.58,0,3.87,0,2.37,0,4.75,0,7.12-.01.63,0,1.26,0,1.9,0,1.79.44,3.59.88,5.38,1.33-.16.29-.32.59-.47.88Z"/>
  <path class="e" d="M1163.86,225.36c-1.47-.17-2.93-.34-5.76-.67,3.89-20.24,7.74-40.21,11.63-60.43h43.05c-.45,3.21-.74,6.13-1.29,9-.76,3.94-3.08,5.95-7.32,5.78-4.49-.18-9.01.2-13.48-.08-4.92-.31-4.12,3.82-4.62,6.18-.68,3.22,2.37,2.86,4.47,2.88,5.29.04,10.57.01,15.6.01-.21,4.27-.19,7.98-.72,11.61-.13.89-2.03,2.07-3.2,2.16-3.47.29-6.99.11-10.48.11-8.19,0-8.92.63-10.64,9.1.22.21.44.41.66.62h21.07c.4.94.68,1.26.62,1.5-.92,3.91-.69,9.27-3.18,11.31-2.42,1.99-7.62.61-11.6.66-7.97.1-15.95.15-23.92.23-.3-.17-.6-.16-.9.02Z"/>
  <path class="e" d="M1005.34,224.11c2.48-14.78,4.95-29.55,7.56-45.11-4.3,0-8.24.03-12.17,0-2.56-.02-3.69-.49-3.06-3.86,2.09-11.16,1.86-11.18,13.22-11.21,13.32-.04,26.64-.12,39.96-.18,0,0,.47.11.47.11l.47-.1c-.9,4.78-1.68,9.58-2.84,14.29-.14.57-2.3.87-3.53.91-3.6.12-7.22.04-11.23.04-1.16,6.15-2.28,12.05-3.39,17.96-.13.31-.27.61-.4.92-.26,2.02-.51,4.05-.77,6.07-.27,1.35-.54,2.71-.81,4.06-1.03,4.61-1.85,9.28-3.2,13.79-.4,1.34-2.23,3.03-3.55,3.17-4.4.46-8.86.29-13.29.36-.3-.17-.6-.18-.91,0-.73-.1-1.46-.2-2.19-.3-.01-.34-.12-.64-.33-.91Z"/>
  <path class="e" d="M714.85,178.29h-10.65c-.51,3.75-.98,7.17-1.45,10.58-.24.37-.49.73-.73,1.1-1.74,9.54-3.44,19.09-5.26,28.61-.42,2.21-1.27,4.34-1.93,6.5-1.32.08-2.65.16-3.97.24-4.71,0-9.41.01-14.12.02-.32-.07-.65-.13-.97-.2,0,0-.11-.11-.11-.11-.07-.65-.14-1.3-.21-1.96,1.84-10.58,3.69-21.16,5.53-31.74.26-.77.51-1.54.77-2.31.12-.25.17-.52.14-.81.25-.39.49-.78.74-1.18.35-2.68.69-5.36,1.04-8.04-.28-.24-.55-.47-.83-.71h-15.84c1.44-5.43,2.64-9.93,3.84-14.43.97-.04,1.93-.08,2.9-.11,14.71,0,29.42.01,44.13.02,1.29,0,2.59,0,3.88,0,.04,1.63.25,3.28.09,4.89-.23,2.42-.72,4.81-1.1,7.21-.15.34-.31.68-.46,1.02-1.5.47-3.01.94-4.51,1.4-.31-.16-.62-.16-.93-.01Z"/>
  <path class="e" d="M1054.89,225.31c-.86-.48-1.73-.97-2.59-1.45.09-.6.18-1.21.26-1.81,3.28-19.27,6.56-38.54,9.83-57.77h21.38c-1.8,9.57-3.52,18.8-5.27,28.02-1.89,9.97-3.71,19.96-5.84,29.89-.25,1.17-2.18,2.66-3.47,2.81-3.79.43-7.64.26-11.47.33-.95,0-1.89-.01-2.84-.02Z"/>
  <path class="e" d="M893.9,225.23c1.6-.13,3.21-.26,4.81-.39-1.6.13-3.21.26-4.81.39Z"/>
  <path class="b" d="M617.82,163.93c-.98-.06-1.96-.13-2.95-.19.98.06,1.96.13,2.95.19Z"/>
  <path class="b" d="M673.75,163.73c-.97.04-1.93.08-2.9.11.97-.04,1.93-.08,2.9-.11Z"/>
  <path class="b" d="M639.74,174.01c-.07.65-.13,1.29-.2,1.94.07-.65.13-1.29.2-1.94Z"/>
  <path class="e" d="M675.46,223.07c.07.65.14,1.3.21,1.96-.07-.65-.14-1.3-.21-1.96Z"/>
  <path class="e" d="M1163.86,225.36c.3-.18.6-.18.9-.02-.3,0-.6.01-.9.02Z"/>
  <path class="b" d="M1162.67,165.94c.16-.29.32-.59.47-.88-.16.29-.32.59-.47.88Z"/>
  <path class="e" d="M890.86,225.26c.31-.15.61-.15.91,0-.31,0-.61,0-.91,0Z"/>
  <path class="b" d="M1109.67,167.3c-.19-.42-.39-.84-.58-1.25.19.42.39.84.58,1.25Z"/>
  <path class="b" d="M1181.77,211.65c-.22-.21-.44-.42-.66-.62.29.14.51.34.66.62Z"/>
  <path class="e" d="M560.99,219.6c.23.46.46.92.69,1.39-.23-.46-.46-.92-.69-1.39Z"/>
  <path class="b" d="M1030.39,197.87c.13-.31.27-.61.4-.92-.13.31-.27.61-.4.92Z"/>
  <path class="b" d="M702.02,189.97c.24-.37.49-.73.73-1.1-.24.36-.49.73-.73,1.1Z"/>
  <path class="b" d="M1108.71,164.24c-.31-.09-.61-.24-.87-.43.29.14.58.28.87.43Z"/>
  <path class="e" d="M675.78,225.14c.32.07.65.13.97.2-.32-.07-.65-.13-.97-.2Z"/>
  <path class="b" d="M617.01,169.97c.23-.41.45-.82.68-1.23-.23.41-.45.82-.68,1.23Z"/>
  <path class="e" d="M563.79,225.15c.34-.06.66,0,.96.17-.32-.05-.64-.11-.96-.17Z"/>
  <path class="b" d="M1110.65,171.35c-.22-.44-.44-.89-.65-1.33.22.44.44.89.65,1.33Z"/>
  <path class="d" d="M1175.6,112.19c0-.45,0-.91,0-1.36,0,.45,0,.91,0,1.36Z"/>
  <path class="b" d="M720.28,176.89c.15-.34.31-.68.46-1.02-.15.34-.31.68-.46,1.02Z"/>
  <path class="b" d="M799.69,175.28c-.31-.42-.61-.85-.92-1.27.31.42.61.85.92,1.27Z"/>
  <path class="b" d="M599.78,163.79l-.47.15s-.49-.03-.49-.03c.32-.04.64-.08.96-.12Z"/>
  <path class="b" d="M564.77,163.72s-.46.11-.46.11c0,0-.47-.11-.47-.11.31,0,.62,0,.93,0Z"/>
  <path class="g" d="M1217.09,142.2c-1.55,0-3.17,0-4.79,0-40.49,0-80.98-.07-121.47,0-89.63.15-179.27.36-268.9.55-1.8-.19-3.6-.53-5.4-.53-270.27-.03-540.54-.03-810.81-.03H0c.12,2.25.2,3.84.31,5.98h6.71c245.78,0,491.55,0,737.33-.01,47.49,0,94.97-.09,142.46-.14h0c1.5.05,3,.13,4.49.13,58.83,0,117.66-.03,176.49-.02,48.33,0,96.66.06,144.98.1.36-.01.72-.02,1.08-.03,4.43.23,4.38-2.29,3.24-5.98Z"/>
  <g>
    <path class="g" d="M137.23,57.98c-4.73-1.61-9.47-3.18-15.01-5.04,6.24-2.89,10.27-4.02,16.8-7.81,10.82-6.27,10.32-22.62,3.46-29.17-6.13-5.84-13.24-9.31-21.13-10.75-9.74-1.78-19.7-2.37-29.56-3.47l-.47.1s-.47-.12-.47-.12c-3-.09-6.01-.18-9.01-.27-7.95.1-15.9.25-23.85.27-14.77.04-29.54.04-44.31-.02-1.95,0-5.39.06-7.57.07-.04,2.12,0,3.16,0,5.1-.11,33.98-.08,67.96-.07,101.94v4.51c.94.29,1.1.39,1.25.39,33.91-.28,64.04-.53,97.95-.82,12.11-.1,27.05-3.96,37.66-9.31,5.66-2.85,10-7.6,11.96-13.75,4.88-15.25-3.08-26.92-17.61-31.87ZM54.95,23.83c13.1.82,26.3-2.24,38.67,3.46,2.6,1.2,5.44,5.23,5.38,7.89-.07,2.66-3.12,6.51-5.78,7.58-4.64,1.87-9.95,2.48-15.03,2.77-7.57.43-15.18.11-23.24.11v-21.81ZM97.43,88.69c-5.36,1.02-10.85,1.62-16.31,1.8-8.59.29-17.19.08-26.07.08,0-8.16.01-14.01.01-22.92,14.07-.26,26.89-.5,40.21.44,5.02.36,9.5,2.33,11.2,7.69,1.9,6.01-1.83,11.54-9.04,12.91Z"/>
    <path class="g" d="M305.05.32c-.4,22.73-.66,47.47-1.29,70.19-.29,10.33-5.79,16.17-15.84,18.65-10.02,2.47-20.06,2.38-30.11.73-10.35-1.7-16.87-7.75-17.93-16.59-.52-4.28-.78-8.62-.8-12.93-.12-17.82-.09-35.64-.14-53.46,0-1.77-.15-3.54-.24-5.38h-51.72c-.09,1.56-.22,2.71-.22,3.86.05,22.65.18,45.3.13,67.95-.01,6.07,2.83,13.88,6.64,19.83,7.84,12.23,20.49,16.76,33.79,19.88,19.79,4.64,39.92,4.66,60.05,3.85,14.29-.58,28.44-2.49,41.91-7.67,9.59-3.69,18.64-8.78,22.44-18.83,2.74-7.25,4.59-15.24,4.82-22.96.65-21.8.25-45.63.27-67.44-17.25.1-34.51.21-51.76.32Z"/>
    <path class="g" d="M499.8,68.12c10.07-.94,19.19-4.22,27.61-9.96,8.09-5.51,14.48-19.6,9.69-30.68-5.91-13.66-17.52-19.11-30.3-22.21-10.04-2.44-20.66-2.49-31.03-3.61l-.46.12s-.46-.13-.46-.13c-1.67-.05-3.35-.1-5.02-.15-3.34-.18-6.67-.36-10.01-.54h-63.8v6.69c0,31.98-.04,106.29-.04,106.29,0,0,.04.02,10.13-.02,11.33-.05,22.65.04,33.98-.04,2.04-.01,3.96-.04,5.65-.12,0-14.09,0-28.04,0-41.97,1.49,1.27,2.52,2.04,3.42,2.94,12.02,11.99,23.93,24.08,36.11,35.9,1.78,1.73,4.76,3.1,7.21,3.14,17.15.27,34.31.15,51.47.14,1.01,0,2.36.1,4.21-.15-17.13-14.94-34.02-29.6-50.87-44.3,1.38-.76,1.92-1.29,2.5-1.34ZM476.82,51.93c-9.44,1.54-19.13,1.65-28.72,2.16-.78.04-2.35-1.47-2.37-2.29-.17-8.77-.11-17.54-.11-26.58,11.89-.7,23.12-.94,33.96,3.14,4.92,1.85,7.53,6.36,7.36,12.35-.16,5.44-3.34,10.11-10.12,11.22Z"/>
    <path class="g" d="M935.82,1.04c-.94.04-2.17-.04-3.11,0-.02.42-.02.61-.02.99,0,0,0,0,0,0-.03,7.31-.05,14.62-.08,21.94-.11.11-.03.25-.01.34.05.26-.09.49.01.74-.16,3.39.03,2.9.03,2.9,0,0,29.98.18,42.25.22-.03.59-.03,1.28-.04,1.84,0,28.08,0,55.15,0,83.56h53.15V27.8h41.53V1.06h-131.76c-.65,0-1.31-.01-1.96-.02Z"/>
    <path class="g" d="M1218.74.99c-45.75,0-92.42,0-138.96,0v26.97h44.1v85.99c16.91,0,33.06.03,49.2-.08.84,0,1.3.05,2.49-.07,0-.45.02-2.52.02-2.98.05-27.28.1-55.26.15-82.54.72-.03,1.35.16,2.03-.11,12.69,0,25.38,0,38.06.01.65-.03,2.09.03,2.74,0,0-1.57.04-3.19.07-4.76.11-7.09.08-11.19.1-18.28-.06-.45-.03-3.4,0-4.16Z"/>
    <path class="g" d="M846.96,26.05c1.01,0,3.85-.04,4.86-.04,19.11.05,38.21.05,57.31.18,3.24.02,4.15-.06,4.15-.06,0,0,0-16.21.04-22.06,0-1.6.04-3.03.04-3.03,0,0-6.15-.02-8.56-.03-23.23.02-46.46,0-69.68.06-8.12.02-16.24.2-24.36.3-4.9,0-9.79,0-14.53,0v112.55c17.05,0,33.68,0,50.32,0,20.64,0,41.29.05,61.93-.08,1.65-.01,4.79-.02,4.79-.02,0,0,.15-17.02.15-25.23h-66.31v-18.99h12.81c1.92,0,3.85,0,5.77,0,6.04-.12,10.97.08,17.01-.04h1.91c7.12.08,24.73-.07,24.73-.07,0,0,.1-.96.1-4.3,0-4.65.08-20.22.08-20.22,0,0-.88-.09-5.87-.02-18.61.27-38.3.02-56.92,0,.01-.4.05-.25.07-.95M850.55,21.88c-.08,0-.15,0-.22,0,.07,0,.15,0,.22,0ZM850.01,21.9c-.08,0-.15.01-.22.02.07,0,.15-.01.22-.02ZM849.5,21.94c-.07,0-.14.02-.22.03.07-.01.14-.02.22-.03ZM849.01,22.02c-.07.01-.14.03-.21.05.07-.02.14-.04.21-.05ZM848.55,22.13c-.07.02-.13.05-.19.07.06-.02.13-.05.19-.07ZM848.13,22.29c-.06.03-.12.06-.18.1.06-.03.11-.07.18-.1ZM847.76,22.51c-.05.04-.1.08-.16.12.05-.04.1-.09.16-.12ZM847.43,22.78s-.09.1-.13.15c.04-.05.08-.11.13-.15ZM846.74,24.57c0,.1,0,.2,0,.31,0-.1,0-.21,0-.31ZM847.16,23.11c-.04.06-.07.13-.1.19.03-.06.06-.13.1-.19ZM846.96,23.52c-.03.07-.05.15-.07.23.02-.08.04-.16.07-.23ZM846.81,24c-.02.08-.03.18-.04.27.01-.09.02-.18.04-.27ZM846.75,25.22c0,.11.02.24.04.36-.01-.12-.03-.24-.04-.36ZM850.89,21.89c.07,0,.14,0,.2,0-.07,0-.14,0-.2,0Z"/>
    <path class="g" d="M755.01,1.78c-13.77,0-26.47,0-39.17,0-3.35.03-7.49.1-10.84.13.06.18-.04,1.17,0,1.38-.04-.21,0,.47-.06.3-.09,1.62-.05,1.38-.08,2.93-.1,6.82-.09,13.64-.03,20.46.1,12.3.27,24.59.41,36.89,0,3.35,0,6.69,0,10.67-1.41-1.17-2.46-1.75-3.12-2.62-11.31-15.04-27.45-24.66-41.38-36.75-10.08-8.75-20.97-16.56-31.29-25.05-6.71-5.52-11.73-9.18-11.73-9.18,0,0-33.42.17-44.58.19-1.59,0-3.17.18-4.7.27v112.51c15.89,0,50.06-.36,50.06-.36,0,0-.02-1.87-.02-2.97-.05-19.29-.26-38.59-.68-57.87-.09-4.13-1.16-8.23-1.83-12.69,7.94,7.38,15.18,14.63,22.96,21.23,11.17,9.47,22.73,18.48,34.13,27.67,8.73,7.04,17.76,13.76,26.07,21.28,2.92,2.64,5.52,3.74,9.16,3.72,13.99-.06,27.99.02,41.98-.04,1.57,0,2.82.01,4.83-.08.01-.98-.1-2.81-.09-3.78-.11-8.01-.23-16.03-.34-24.04l.03.09c0-.34-.01-.68-.02-1.01,0-4.68,0-9.36,0-14.04,0-.34,0-.68,0-1.01,0,0-.03-.02-.03-.02h0c0-12.31.02-24.62.02-36.93,0,0,0,0,0,0"/>
  </g>
  <g>
    <path class="c" d="M528.03,165.33c-1.48-1.1-3.43-1.89-5.28-2.07-1.24-.12-2.6.96-4.13,1.59.47,1.22.98,2.1,1.11,3.03.2,1.45.14,2.93.2,4.4-1.85-.05-3.83.28-5.52-.27-1.27-.42-2.81-1.81-3.13-3.05-1.67-6.58-6.34-5-10.78-4.64.18,3.2,2.15,7.19-2.03,7.99-1.82.35-5.31-2.42-6.31-4.57-2.49-5.39-6.63-3.37-10.75-3.55.4,1.04.84,1.77.94,2.55.25,1.91.33,3.84.48,5.76-2.35-.32-4.8-.34-7.01-1.09-.95-.32-1.46-2.1-2.05-3.27-2.81-5.57-4.86-6.3-10.3-3.53.26,1.06.44,2.18.8,3.23.42,1.2.99,2.35,1.49,3.5-4.51,2.31-8.88,1.75-10.22-2.39-2.13-6.57-6.47-4.96-10.9-4.56.21,2.48.4,4.71.6,7.07-3.56.89-7.2,1.6-8.29-2.35-1.83-6.66-6.3-5.17-11.39-4.75,1.43,2.77,2.6,5.03,3.76,7.29-6.29,2.75-8.18,1.91-12.59-5.24-1.2-1.95-5.04-4.06-6.83-3.49-3.62,1.16-1.46,4.22-.28,6.56.21.41.17.94.36,2.21-1.8.4-4.46,1.74-5.25,1.02-3.1-2.82-5.61-6.28-8.5-9.69-1.53.34-4.08.89-6.9,1.51.77,2.21,1.57,4.48,2.35,6.72-6.16,3.44-8.34,2.22-12.79-6.95h-8.45c.36,1.4.75,2.49.91,3.62.22,1.54.26,3.11.37,4.67-2.21-.22-4.51-.13-6.58-.79-1.01-.32-1.91-1.9-2.32-3.09-1.98-5.72-6.14-5.2-11.05-4.23.65,1.44,1.13,2.47,1.58,3.5.5,1.15.99,2.31,1.48,3.44-5.38,2.53-8.87,2.01-10.26-2.16-1.84-5.54-5.4-5.95-10.33-4.8.46,2.43.91,4.76,1.34,7.02-4.92,2.35-8.46,1.83-9.59-2.22-1.83-6.53-6.19-5.52-9.17-5.12-1.44,3.49-2.51,6.07-3.57,8.64-1.99-1.23-5.26-2.07-5.76-3.74-1.93-6.45-6.44-5.13-11.34-4.78.83,1.84,1.82,3.28,2.05,4.83.14.95-.91,2.07-1.42,3.11-1.66.25-3.32.5-4.98.75-.96-.98-1.92-1.97-2.88-2.95-.69-1.03-1.39-2.07-2.08-3.1,0-.3-.04-.58-.14-.86-2.61-.89-5.21-1.77-7.82-2.66-.2.44-.39.87-.59,1.31.53,1.11,1.06,2.22,1.58,3.33-.04,1.29-.08,2.58-.12,3.87-4.26,1.92-7.63,1.47-9.8-3.24-2.43-5.29-3.63-5.67-9.98-3.64.55,2.14,1.11,4.31,1.63,6.31-4.1,2.15-8.14,2.08-9.74-2.29-2.25-6.15-6.45-5.27-11.58-4.6,1.25,2.51,2.32,4.66,3.39,6.81-4.9,2.93-8.37,2.57-10.51-2.45-2.54-5.96-6.57-4.99-11.61-4.31,1.25,2.57,2.29,4.7,3.39,6.96-4.2,1.06-7.93,3.17-10.33-2.42-2.46-5.75-3.71-5.98-10.52-4.22.67,2.13,1.34,4.27,1.98,6.3-4.69,2.58-8.18,1.88-10.07-1.69-3.2-6.03-4.22-6.46-10.81-4.55.78,2.26,1.57,4.53,2.34,6.78-5.3,2.23-8.45,1.91-10.14-2.83-2.22-6.21-6.35-4.85-10.96-4.54.58,1.4,1.09,2.6,1.57,3.81,1.51,3.77.26,5.64-3.6,4.8-1.72-.37-3.93-1.61-4.63-3.07-2.33-4.86-5.48-7.28-11.2-5.26.07.41.12,1.01.3,1.57.55,1.7,1.15,3.39,1.73,5.08-4.57,2.76-8.19,1.99-10.01-2.12-2.58-5.83-3.8-6.3-10.89-4.08.79,2.06,1.57,4.11,2.31,6.05-4.37,2.77-8.49,2.48-9.96-1.83-2.14-6.27-6.2-5.56-11.32-4.81,1.06,2.48,2,4.68,2.97,6.94-4.57,1.69-8.74,2.5-10.75-3.41-1.98-5.82-6.45-3.65-10.67-3.69.63,1.55,1.21,2.58,1.46,3.69.3,1.31.89,3.48.35,3.86-1.18.83-3.19,1.37-4.5.93-1.74-.58-3.66-1.9-4.57-3.45-3.45-5.87-4.36-6.38-11.28-4.3.96,2,1.9,3.97,2.83,5.91-5.5,3.04-8.65,2.81-10.06-1.65-1.99-6.29-6.14-5.72-11.15-4.8.78,2.35,1.54,4.65,2.3,6.95-4.3,2.43-8.24,2.07-9.93-2.62-2.16-5.98-6.21-5.08-11.36-4.28,1.29,2.49,2.37,4.57,3.62,6.99-4.07.73-8.51,3.58-10.31-2.1-1.96-6.2-6.05-5.95-11.27-4.91.53,1.24,1.01,2.4,1.51,3.56,1.63,3.78.64,5.03-3.56,5.02-4.05,0-5.05-2.98-6.55-5.79-.77-1.45-2.31-2.48-3.51-3.7-.37.32-.73.63-1.1.95v12.64c3.45.37,6.47.69,9.49,1.01,3.91-.29,7.83-.63,11.74-.85,1.45-.08,2.92.07,4.37.17,3.45.22,6.9.58,10.35.67,3.73.1,7.46.02,11.19-.09,10.15-.3,20.3-.67,30.46-.95,1.29-.04,2.59.37,3.9.46,3.44.22,6.89.45,10.33.53,3.72.09,7.45.05,11.18.03,9-.03,17.99-.08,26.99-.12,2.91-.01,5.82-.1,8.72-.05.98.02,1.97.53,2.94.49,9.29-.32,18.58-.72,27.87-1.08,1.47-.06,2.96-.16,4.4.03,2.13.28,4.25,1.23,6.35,1.15,8.98-.33,17.95-1.08,26.93-1.36,3.26-.1,6.56,1.04,9.83.97,9.34-.22,18.68-.91,28.02-1.11,3.28-.07,6.57,1.03,9.86,1.12,6.56.17,13.12.01,19.69-.01,0,0,0,0,0,0,.65-.03,1.29-.05,1.94-.08.06-.2.13-.38.19-.55-.07.17-.13.35-.19.55,1.66-.41,3.32-.82,4.98-1.23-.13-.07-.26-.14-.38-.21-.25-.14-.51-.27-.75-.38-.25-.11-.49-.21-.73-.28.24.07.48.17.73.28.25.11.5.24.75.38.13.07.25.14.38.21,1,.06,2.01.12,3.01.19h0s.48.14.48.14l.49-.04-.02-.08c.34.25.69.5,1.03.76,1.01.08,2.01.16,3.02.24,3.03-.31,6.07-.63,9.1-.94,8.96.33,17.93.94,26.89.91,10.16-.03,20.32-.79,30.48-.91,4.44-.05,8.9,1.05,13.34.98,8.18-.12,16.35-1.04,24.52-1.02,8.83.02,17.67,1.02,26.5,1.04,9.26.01,18.52-.77,27.78-.93,3.44-.06,6.89,1.04,10.33.96,9.16-.2,18.32-.94,27.48-1.09,4.9-.08,9.82.6,14.72.95,4.34.3,8.68.61,13.01.91,2.63-3.16,5.38-6.24,7.83-9.53.84-1.13,1.66-3.75,1.27-4.05ZM282.2,177.07c-.04.07-.07.14-.1.22.03-.07.06-.15.1-.22Z"/>
    <path class="c" d="M455.05,214.62c-8.42.06-16.85-1.23-25.28-1.37-8.78-.14-17.57.43-26.35.6-2.89.06-5.79-.17-8.68-.3-.49-.02-.97-.35-1.45-.33-9.12.21-18.25.49-27.37.66-2.72.05-5.45-.2-8.17-.33-.32-.02-.65-.26-.96-.24-8.64.7-17.28.29-25.93.19-3.83-.04-7.64,1.35-11.55-.22-1.3-.52-2.96-.23-4.45-.15-5.35.3-10.7.67-16.04,1.02h0c-.66,0-1.33,0-1.99,0l-2.31,2.71c.77-.9,1.54-1.81,2.31-2.71-1.67-.04-3.33-.07-5-.11-2.73-.1-5.47-.19-8.2-.33-.49-.02-.97-.37-1.45-.36-9.46.21-18.91.46-28.37.67-2.09.05-4.18.01-6.27-.1-.81-.04-1.61-.61-2.41-.59-9.63.22-19.26.52-28.89.75-1.9.05-3.8-.05-5.69-.2-.81-.06-1.62-.7-2.39-.62-8.35.8-16.69.24-25.03.22-4.18-.01-8.25.35-12.56,0-8.89-.72-17.91.16-26.87.33-2.74.05-5.48-.05-8.22-.12-.48-.01-.96-.41-1.43-.4-9.64.25-19.28.55-28.93.8-1.91.05-3.82-.07-5.73-.14-3.28-.12-6.56-.29-9.84-.39-3.53-.11-7.07-.16-10.61-.24-.16,0-.33-.1-.49-.09-9.63.27-19.26.56-28.89.81-1.91.05-3.84.04-5.75-.12-1.65-.14-3.43-1.14-4.88-.74-8.03,2.24-16.02-.39-24.01.12-3.19.48-6.38.95-9.82,1.46v13.96c2.06-1.39,3.52-2.05,4.48-3.14.83-.94.77-3.04,1.67-3.48,2.56-1.26,5.41-1.94,8.15-2.84-.1,2.02-.19,4.04-.29,6.06-.03.62-.11,1.24-.18,1.99,4.79,1.12,8.4,1.03,10.5-4.44,1.81-4.73,5.85-5.14,10.37-1.68-1.05,1.89-2.11,3.79-3.41,6.14,5.18.7,9.07,1.72,11.27-4.41,1.75-4.88,5.54-5.14,9.85-2.09-.57,2.13-1.14,4.22-1.72,6.35,5.4,1.47,8.89.78,10.7-4.63,1.27-3.8,5.2-4.74,8.28-3.36,3.73,1.68.2,4.38-.31,6.63-.1.44-.23.88-.4,1.54,5.14.95,9.49,1.4,11.23-5.18.8-3.05,6.22-4.56,8.31-2.78,2.85,2.44.24,4.37-.93,6.4-.27.48-.31,1.09-.46,1.67,5.19,1.04,8.91.41,11.58-4.82,2.53-4.95,5.02-4.96,9.87-1.83-.93,2.14-1.87,4.29-2.88,6.61,5.41.78,10.04,1.35,11.35-5.16.17-.84,1.17-1.94,1.97-2.13,2.12-.49,4.34-.53,6.53-.76-.05,1.77-.03,3.55-.17,5.31-.06.74-.45,1.46-.69,2.21,7.11,1.93,7.73,1.73,10.76-4.46,1.85-3.78,5.24-4.45,8.39-3.25,4.1,1.55.11,3.99-.13,6.05-.07.58-.28,1.13-.48,1.92,5.02,1.24,8.97,1.18,10.66-4.42.22-.73.88-1.7,1.52-1.87,2.35-.64,4.79-1,7.19-1.46-.24,1.83-.46,3.66-.72,5.49-.1.74-.29,1.47-.49,2.47,4.72.68,9,1.71,10.74-4.23.34-1.16,1.4-2.61,2.45-2.97,1.89-.64,4.03-.55,6.07-.76.08,1.65.25,3.31.19,4.96-.04,1.02-.45,2.02-.69,3.03,5.34,1.25,9.49.65,11.39-4.93.16-.46.33-1.19.65-1.29,2.38-.71,4.79-1.29,7.2-1.91.1,1.95.28,3.9.27,5.85,0,.72-.47,1.44-.74,2.19,5.49,1.42,9.18.36,11.27-5.27,1.4-3.77,5.67-4.12,9.5-1.35-.91,2.17-1.83,4.37-2.77,6.61,5.27,1.35,8.95.7,11.49-4.64,2.28-4.79,6.2-4.96,10.03-1.51-.99,2-1.95,3.95-3.09,6.25,5.38.78,9.5,1.33,11.4-4.69.54-1.72,3.57-3.27,5.71-3.72,3.38-.71,5.18.74,3.27,4.53-.57,1.13-.58,2.54-.84,3.79,5.21,1.21,8.73.69,10.38-4.56,1.13-3.58,4.51-4.73,7.7-3.59,3.66,1.32.77,4.18.55,6.37-.06.59-.33,1.17-.57,1.98,4.15.3,8.27,1.69,10.11-3.56,1.85-5.29,6.11-5.3,10.6-4.79.34,1.21.67,2.43,1.01,3.64-1.27,1.21-2.54,2.43-4.02,3.84,6.93,2.75,8.83,2.01,10.97-3.69.75-.95,1.51-1.91,2.26-2.86.95-.42,1.89-.84,2.84-1.27-.94-.89-1.87-1.77-2.81-2.66.94.89,1.87,1.77,2.81,2.66,1.61.18,3.22.35,5.43.6-.86,2.85-1.58,5.25-2.43,8.09,4.92.36,9.47,1.71,11.19-4.92.96-3.7,4.66-4.34,7.75-3.53,3.74.98.69,3.78.74,5.76.02.78-.23,1.57-.38,2.45,4.94,1.36,8.53.75,10.37-4.61,1.22-3.54,4.53-4.64,7.67-3.27.87.38.31,4.1.35,6.29.01.57-.17,1.15-.27,1.72,5.05,1.05,9.14.83,10.85-4.89.34-1.14,1.59-2.58,2.66-2.82,1.94-.44,4.06-.1,6.11-.08-.2,1.54-.46,3.08-.59,4.63-.09,1.06-.02,2.13-.02,3.07,5.32,1.5,8.36.08,10.57-4.88.82-1.85,4.78-2.3,7.31-3.39.23,2.05.52,4.09.64,6.14.04.7-.36,1.42-.56,2.16,5.22,1.1,9.15,1.06,11.23-5.01.6-1.76,5.34-3.45,7.69-2.92,3.27.73,1.04,3.6.24,5.7-.98,2.58-.31,3.35,2.81,3.13,4.15-.29,5.97-2.61,7.77-5.74,2.42-4.22,5.65-4.75,9.89-1.85-.94,2.15-1.9,4.34-2.9,6.62,7.34,1.07,7.19.97,11.15-4.75,1.11-1.61,3.25-2.79,5.16-3.47,1.09-.39,2.95.29,3.94,1.12.48.4-.16,2.26-.43,3.42-.27,1.18-.72,2.33-1.18,3.78,5.13.68,9.32,1.64,11.16-4.66.5-1.71,4.53-3.72,6.52-3.35,3.44.64,2.78,3.76,1.39,6.38-.18.34-.03.87-.03,1.52,4.68.87,9.14,1.9,10.44-4.63.15-.73.83-1.75,1.46-1.93,2.28-.65,4.64-1,6.97-1.46.01,1.89.06,3.77.01,5.66-.02.78-.23,1.56-.4,2.64h7.39c3.34-4.79,6.38-9.15,9.36-13.43-5.32-.42-10.17-.81-15.02-1.2-9.59.6-19.17,1.61-28.77,1.68Z"/>
    <path class="c" d="M514.64,180.34c-5.01,6.17-10.14,1.78-15.25.4-1.02-.28-2.79-.67-3.11-.22-4.02,5.57-8.49,2.08-12.89.89-1.63-.44-4.26-1.28-4.94-.55-4.6,4.98-9.03,1.74-13.58.28-1.32-.42-3.56-1.1-4.02-.54-4.59,5.59-9.29,1.92-14.01.52-1.36-.4-3.71-1.2-4.05-.72-4.57,6.52-9.4,1.69-14.14.58-1.21-.28-3.19-.95-3.59-.45-4.72,5.78-9.59,1.9-14.44.49-1.2-.35-3.25-1.04-3.57-.6-4.58,6.31-9.46,1.87-14.25.62-1.19-.31-3.16-.98-3.57-.48-4.94,5.91-9.86,1.67-14.82.26-1.02-.29-2.76-.72-3.11-.27-4.47,5.71-9.37,2.27-13.89.51-2.63-1.02-4.79-.98-6.03,1.2-2.36,4.16-5.08,2.52-7.97,1.13-1.16-.56-2.31-1.12-3.47-1.68-1.46-.46-3.96-1.65-4.22-1.26-4.14,5.89-9.09,2.57-13.41.94-3.09-1.16-5.03-1.35-7.34,1.2-.8.88-2.97,1.07-4.34.77-2.58-.55-5.01-1.75-7.55-2.54-1.02-.32-2.77-.76-3.14-.3-4.71,5.85-9.55,1.87-14.41.47-1.26-.36-3.49-.73-3.91-.13-3.57,5.01-7.7,2.46-11.59,1-3.35-1.25-5.8-1.93-9.31.83-1.91,1.5-6.89.23-9.9-1.11-2.8-1.25-4.46-1.95-6.84.55-3.92,4.12-7.83.52-11.34-.94-2.95-1.23-4.67-.99-6.97,1.13-1.09,1.01-3.55,1.16-5.22.83-4.8-.95-9.13-4.82-14.46.15-1.41,1.32-6.64-1.5-10.13-2.35-1.17-.28-3.14-.89-3.5-.41-4.07,5.45-8.46,2.27-12.95.92-1.75-.53-4.54-.86-5.6.1-4.42,3.99-8.46,1.2-12.35-.33-2.79-1.1-4.65-1.71-6.83,1.05-2.45,3.09-5.55,1.05-8.2.01-3.89-1.52-7.1-3.06-11.16.75-1.44,1.35-6.56-.45-9.57-1.77-2.87-1.26-4.63-1.3-6.91.99-3.58,3.6-7.34.45-10.59-.84-3.19-1.26-5.22-1.56-7.84,1.09-1.03,1.04-3.88.72-5.77.38-4.49-.82-8.63-4.7-13.5.36-1.17,1.22-6.23-.69-9.17-1.95-2.78-1.2-4.57-1.51-6.96.87-1.1,1.1-3.81,1.11-5.68.85-4.65-.64-8.97-5.01-14.05.27-1.16,1.2-6.26-.75-9.18-2.07-2.46-1.11-3.83-1.25-6.1.55-1.55,1.23-4.45,1.37-6.63,1.09-3.51-.46-6.93-1.67-10.38-2.56-2.43,1.47-4.85,2.94-8.55,5.18.68,1.37,1.3,5.16,3.18,5.94,4.97,2.07,10.79,5.76,14.61-1.35,6.68,2.02,12.73,7.62,18.29.24,6.5,1.85,12.46,7.91,17.94-.45,8.41,5.14,11.85,5.2,17.78.59,2.67.88,5.26,1.98,7.96,2.54,2.12.44,5.21,1.13,6.4.07,3.18-2.85,6.09-2.07,9.13-.63,4.7,2.21,8.9,2.51,11.9-2.33,6.29,2.01,12.2,7.8,17.97.07,6.23,2.2,12.31,7.61,18-.23,8.89,4.97,12.99,4.99,18.57.26,10.55,4.93,11.76,4.93,17.75,0,8.65,4.86,11.82,4.86,17.62-.05,10.26,5.13,10.77,5.13,18.34,0,8.38,5.1,10.98,5.11,17.84.04,9.89,4.64,12.58,5.26,17.49-.06,5.9,1.58,11.81,7.72,17.42-.16,9.09,5.01,13.12,5.03,18.54.21,1.95.87,3.86,1.89,5.87,2.56,1.84.62,3.89,1.39,5.7,1.12,1.99-.3,3.73-2.03,5.73-2.56,1.29-.34,2.91.17,4.29.6,2.92.91,5.78,2.02,8.47,2.98,1.99-1.81,3.69-3.36,5.34-4.86,9.98,5.43,12.39,5.42,17.35.05-1.94-.58-3.01-1.57-3.57-2.79.56,1.22,1.64,2.21,3.57,2.79,4.43,1.6,8.85,3.2,13.84,5,2.36-6.09,6.3-4.76,10.92-2.29,4.22,2.26,8.35,1.48,11.35-2.49,3.47,1.28,6.65,2.65,9.95,3.57,1.37.38,3.63.37,4.42-.47,3.07-3.23,6.29-2.36,9.48-.84,4.71,2.24,8.86,2.61,11.66-2.31,4.47,1.62,8.58,3.11,12.91,4.68,2.96-4.25,7.04-4.48,11.35-2.59,4.55,2,8.66,2.63,11.47-2.34,5.49,1.97,10.08,5.98,16.18,2.75,1.87-.99,4.97-1.42,6.71-.54,5.21,2.63,9.64,3.28,12.99-2.21,6.03,2.13,11.45,6.95,17.58,1.15.43-.41,1.72-.3,2.4.02,3.27,1.53,5.72.94,7.26-2.46,1.19-2.62,2.36-5.25,3.53-7.88-1.1-.19-2.85-.91-3.2-.49Z"/>
    <path class="c" d="M495.6,198.32c-4.57,3.87-7.95,1.6-12.1.32-2.21-.68-5.83-1.03-7.06.21-2.43,2.46-4.22,2.22-6.96,1.14-3.01-1.18-8.02-3.43-9.1-2.3-4.97,5.24-9.29,1.79-14,.46-1.65-.47-4.38-.62-5.26.33-2.69,2.91-5.05,2.69-8.37,1.23-3.85-1.7-8.05-4.49-11.93.57-.57.75-3.08.38-4.55-.02-2.54-.68-4.92-2.01-7.47-2.6-1.18-.27-3.38.13-3.79.92-2.16,4.13-4.74,2.63-7.78,1.3-4.12-1.79-8.43-4.45-12.49.57-.52.65-2.76.26-4.05-.14-4.56-1.41-9.08-5.87-13.54.3-.27.38-1.83-.03-2.73-.28-2.7-.77-5.32-1.89-8.07-2.4-1.6-.3-4.31-.3-4.9.61-2.52,3.89-5.09,2.38-8.09.98-2.06-.97-4.38-1.4-6.58-2.07-.63.07-1.56-.1-1.84.25-3.2,3.97-6.58,3.95-10.9,1.5-2.11-1.2-6.34-2.02-7.52-.87-3.2,3.14-5.72,2.75-9.32,1.16-3.73-1.65-7.81-4.05-11.6.69-.64.8-3.67.19-5.35-.43-5.02-1.87-9.99-4.65-13.3,1.96-3.9-1.42-7.26-2.81-10.74-3.82-1.23-.36-3.36-.29-4,.48-2.73,3.28-5.34,2.71-8.8,1.16-3.88-1.75-8.25-4.2-11.9,1.07-.41.59-3.09,0-4.52-.57-5.27-2.09-10.53-5.15-14.13,1.65-3.64-1.38-6.66-2.8-9.83-3.61-1.42-.36-3.64-.04-4.63.9-2.6,2.45-4.66,2.41-7.87.85-2.81-1.37-7.72-2.74-9.35-1.35-3.99,3.4-7.04,2.11-10.71.49-2.83-1.25-5.84-3.11-8.53.13-2.21,2.66-4.32,1.89-7,.74-2.8-1.2-7.82-3.16-8.61-2.18-4.83,6.02-9.21,1.54-13.86.51-1.81-.4-4.54-.39-5.68.68-2.52,2.36-4.56,2.41-7.57,1.1-4.19-1.83-8.69-4.86-12.82.6-.46.61-2.79.07-4.15-.3-2.22-.62-4.32-1.96-6.55-2.19-1.77-.19-4.4.25-5.33,1.44-1.75,2.24-3.11,2.32-5.41,1.19-4.68-2.29-9.38-5.1-14.35-.17-.66.66-2.96-.25-4.48-.55-3.44-.68-8.83-3.14-9.94-1.86-4.12,4.76-7.54,2.12-11.34.57-3.37-1.37-6.56-2.45-9.15,1.54-.42.65-2.41.72-3.5.43-2.69-.73-5.23-2.07-7.94-2.69-1.37-.32-3.58-.17-4.36.7-2.7,3.02-5.16,2.32-8.44,1.02-2.81-1.12-6.22-1.59-9.2-1.17-2.48.35-4.73,2.4-7.37,3.86-.99,3.62.2,6.18,4.68,7,1.89.34,3.65,1.4,5.47,2.13,1.26-.12,3.23.22,3.68-.45,3.83-5.72,8.24-2.57,12.33-.84,2.62,1.11,4.42,2,6.92-.62,3.54-3.73,7.62-1.01,11.05.62,2.95,1.4,4.89,1.89,7.18-1.01,3.1-3.93,6.58-.61,9.43.51,3.46,1.37,5.68,2.08,9.27-.58,2.02-1.5,6.86-.03,10.05,1.15,2.76,1.03,4.51,1.95,6.82-.84,2.8-3.38,6.26-1,9.18.15,3.48,1.36,6.12,2.43,9.77-.59,1.66-1.38,6.19.06,9.13,1.06,2.91.99,4.86,2.16,7.72-.81,3.48-3.62,7.63-.27,11.1,1.1,2.78,1.1,4.38,1.88,6.67-.98,2.9-3.62,6.64-.96,9.6.32,3.36,1.47,5.66,1.27,9.12-.34,2.79-1.29,7.19.05,10.57,1.16,2.58.85,4.18,1.85,6.31-.9,2.87-3.71,6.63-1.37,9.57-.02,3.62,1.66,6.05,2.25,9.72-.65,1.8-1.42,6.68-.05,9.55,1.33,3.06,1.47,4.8,1.69,7.24-.94,2.87-3.1,6.22-.96,9.23.31,3.39,1.43,6.11,2.8,9.73-.72,1.48-1.43,6.45.22,9.6,1.2,2.56.8,4.21,2.21,6.83-.61,3.61-3.88,7.94-.78,11.49.88,2.89,1.35,4.19,1.18,6.77-.89,1.79-1.43,5.94-1.01,8.55-.07,3.69,1.33,6.26,2.64,10.17-.49,1.86-1.49,6.83.25,10.09,1.4,2.7.96,4.37,2.04,6.74-.92,2.81-3.52,6.57-1.09,9.63.21,3.35,1.43,5.81,2.56,9.26-.62,1.47-1.36,5.81.12,8.76.71,1.87.38,3.59,1.5,5.05,2.14,1.96-1.74,3.51-3.11,5.06-4.49-1.71-1.45-3.28-3.14-5.18-4.29,1.9,1.15,3.46,2.84,5.18,4.29,3.3,1.05,6.77,1.76,9.86,3.25,2.54,1.23,3.94.98,6.03-.94,1.32-1.21,4.02-1.57,5.95-1.3,2.39.33,4.59,1.87,6.97,2.58,1.07.32,2.96.38,3.45-.25,3.08-3.95,6.71-2.81,10.39-1.48,2.16.78,4.24,1.79,6.27,2.66,5.01-4.86,6.6-4.99,13.4-1.95,1.65.74,4.63,1.65,5.28.93,4.6-5.13,9.02-2.15,13.59-.33,1.29.51,3.61,1.25,4,.75,4.86-6.17,9.81-2.21,14.82-.52,1.22.41,3.46.71,3.91.1,3.8-5.18,8.12-2.59,12.03-.75,2.92,1.38,4.81,1.62,7.47-.68,1.38-1.19,4.33-1.2,6.4-.82,3.34.62,6.55,1.99,9.81,3.05,2.35-6.35,6.88-3.63,10.07-1.69,5.48,3.34,7.53-.2,9.8-3.79,1.02-1.61,1.62-3.5,2.9-6.37-4.06-.67-9.04-2.99-10.79-1.5Z"/>
  </g>
  <g>
    <path class="c" d="M17.66,266.44h13.66l16.71,39.11h-12.55l-2.17-5.81H15.66l-2.17,5.81H.95l16.71-39.11ZM30.03,291.13l-5.51-14.78-5.57,14.78h11.08Z"/>
    <path class="c" d="M51.02,266.44h11.38v29.5h19.12v9.62h-30.49v-39.11Z"/>
    <path class="c" d="M86.9,266.44h11.38v29.5h19.12v9.62h-30.49v-39.11Z"/>
    <path class="c" d="M149.82,276.06h-12.72v-9.62h36.83v9.62h-12.67v29.5h-11.43v-29.5Z"/>
    <path class="c" d="M179.31,266.44h11.38v39.11h-11.38v-39.11Z"/>
    <path class="c" d="M198.19,266.44h24.57c9.15,0,14.13,5.51,14.13,13.13,0,6.1-3.28,10.32-8.74,12.08l8.97,13.9h-13.25l-7.56-13.02h-6.74v13.02h-11.38v-39.11ZM220.94,283.57c2.64,0,4.57-1.52,4.57-4.05s-1.94-3.99-4.57-3.99h-11.38v8.03h11.38Z"/>
    <path class="c" d="M242.75,266.44h34.25v8.91h-22.87v6.1h22.17v8.56h-22.17v6.63h22.87v8.91h-34.25v-39.11Z"/>
    <path class="c" d="M280.22,299.75l5.22-7.74c3.34,2.99,8.97,5.45,14.95,5.45,4.28,0,6.39-1.35,6.39-3.23,0-2.29-3.05-2.87-7.92-3.64-7.56-1.11-17.36-2.81-17.36-12.31,0-7.15,6.69-12.43,18-12.43,6.69,0,13.37,1.94,18.06,5.69l-5.34,7.45c-3.69-2.87-8.97-4.46-13.6-4.46-3.52,0-5.22,1.11-5.22,2.81,0,2.11,2.93,2.76,8.09,3.58,7.45,1.23,17.06,3.05,17.06,12.08,0,7.97-6.8,13.25-18.41,13.25-8.74,0-15.77-2.76-19.94-6.51Z"/>
    <path class="c" d="M322.02,300.51c0-3.17,2.64-5.69,6.1-5.69s6.16,2.52,6.16,5.69-2.7,5.75-6.16,5.75-6.1-2.52-6.1-5.75Z"/>
    <path class="c" d="M368.87,266.44h13.66l16.71,39.11h-12.55l-2.17-5.81h-17.65l-2.17,5.81h-12.55l16.71-39.11ZM381.24,291.13l-5.51-14.78-5.57,14.78h11.08Z"/>
    <path class="c" d="M402.23,266.44h11.38v29.5h19.12v9.62h-30.49v-39.11Z"/>
    <path class="c" d="M438.12,266.44h11.38v29.5h19.12v9.62h-30.49v-39.11Z"/>
    <path class="c" d="M490.42,266.44h26.33c8.27,0,12.2,4.87,12.2,9.97s-3.11,8.21-6.92,8.97c4.28.64,7.74,4.57,7.74,9.56,0,5.86-4.11,10.61-12.14,10.61h-27.21v-39.11ZM513.87,281.63c2.29,0,3.64-1.41,3.64-3.34s-1.35-3.22-3.64-3.22h-12.08v6.57h12.08ZM514.28,296.94c2.58,0,4.05-1.47,4.05-3.52s-1.47-3.58-4.05-3.58h-12.49v7.1h12.49Z"/>
    <path class="c" d="M535.63,266.44h24.57c9.15,0,14.13,5.51,14.13,13.13,0,6.1-3.28,10.32-8.74,12.08l8.97,13.9h-13.25l-7.56-13.02h-6.74v13.02h-11.38v-39.11ZM558.38,283.57c2.64,0,4.57-1.52,4.57-4.05s-1.94-3.99-4.57-3.99h-11.38v8.03h11.38Z"/>
    <path class="c" d="M592.38,266.44h13.66l16.71,39.11h-12.55l-2.17-5.81h-17.65l-2.17,5.81h-12.55l16.71-39.11ZM604.76,291.13l-5.51-14.78-5.57,14.78h11.08Z"/>
    <path class="c" d="M625.75,266.44h11.67l17.94,22.58v-22.58h11.44v39.11h-11.02l-18.65-23.51v23.51h-11.38v-39.11Z"/>
    <path class="c" d="M674.24,266.44h19.06c12.9,0,22.93,6.04,22.93,19.53s-10.09,19.59-22.87,19.59h-19.12v-39.11ZM693.29,296.29c7.51,0,11.32-4.22,11.32-10.32s-3.64-10.26-11.26-10.26h-7.74v20.58h7.68Z"/>
    <path class="c" d="M718.68,299.75l5.22-7.74c3.34,2.99,8.97,5.45,14.95,5.45,4.28,0,6.39-1.35,6.39-3.23,0-2.29-3.05-2.87-7.92-3.64-7.56-1.11-17.36-2.81-17.36-12.31,0-7.15,6.68-12.43,18-12.43,6.69,0,13.37,1.94,18.06,5.69l-5.34,7.45c-3.69-2.87-8.97-4.46-13.6-4.46-3.52,0-5.22,1.11-5.22,2.81,0,2.11,2.93,2.76,8.09,3.58,7.45,1.23,17.06,3.05,17.06,12.08,0,7.97-6.8,13.25-18.41,13.25-8.74,0-15.77-2.76-19.94-6.51Z"/>
    <path class="c" d="M760.49,300.51c0-3.17,2.64-5.69,6.1-5.69s6.16,2.52,6.16,5.69-2.7,5.75-6.16,5.75-6.1-2.52-6.1-5.75Z"/>
    <path class="c" d="M807.33,266.44h13.66l16.71,39.11h-12.55l-2.17-5.81h-17.65l-2.17,5.81h-12.55l16.71-39.11ZM819.71,291.13l-5.51-14.78-5.57,14.78h11.08Z"/>
    <path class="c" d="M840.7,266.44h11.38v29.5h19.12v9.62h-30.49v-39.11Z"/>
    <path class="c" d="M876.58,266.44h11.38v29.5h19.12v9.62h-30.49v-39.11Z"/>
    <path class="c" d="M925.89,299.75l5.22-7.74c3.34,2.99,8.97,5.45,14.95,5.45,4.28,0,6.39-1.35,6.39-3.23,0-2.29-3.05-2.87-7.92-3.64-7.56-1.11-17.36-2.81-17.36-12.31,0-7.15,6.68-12.43,18-12.43,6.69,0,13.37,1.94,18.06,5.69l-5.34,7.45c-3.69-2.87-8.97-4.46-13.6-4.46-3.52,0-5.22,1.11-5.22,2.81,0,2.11,2.93,2.76,8.09,3.58,7.45,1.23,17.06,3.05,17.06,12.08,0,7.97-6.8,13.25-18.41,13.25-8.74,0-15.77-2.76-19.94-6.51Z"/>
    <path class="c" d="M969.22,266.44h34.25v8.91h-22.87v6.1h22.17v8.56h-22.17v6.63h22.87v8.91h-34.25v-39.11Z"/>
    <path class="c" d="M1009.68,266.44h24.57c9.15,0,14.13,5.51,14.13,13.13,0,6.1-3.28,10.32-8.74,12.08l8.97,13.9h-13.25l-7.56-13.02h-6.74v13.02h-11.38v-39.11ZM1032.43,283.57c2.64,0,4.57-1.52,4.57-4.05s-1.94-3.99-4.57-3.99h-11.38v8.03h11.38Z"/>
    <path class="c" d="M1049.08,266.44h12.78l10.79,27.27,10.67-27.27h12.84l-16.71,39.11h-13.66l-16.71-39.11Z"/>
    <path class="c" d="M1099.15,266.44h11.38v39.11h-11.38v-39.11Z"/>
    <path class="c" d="M1115.92,286.03c0-12.67,10.44-20.23,23.46-20.23,10.61,0,17.18,4.93,20.05,10.32l-9.73,4.81c-1.76-3.4-5.22-5.86-10.32-5.86-7.04,0-11.79,4.46-11.79,10.96s4.75,10.97,11.79,10.97c5.04,0,8.56-2.35,10.2-5.63l9.85,4.75c-2.87,5.1-9.5,10.15-20.05,10.15-13.02,0-23.46-7.62-23.46-20.23Z"/>
    <path class="c" d="M1164.12,266.44h34.25v8.91h-22.87v6.1h22.17v8.56h-22.17v6.63h22.87v8.91h-34.25v-39.11Z"/>
    <path class="c" d="M1203.05,300.51c0-3.17,2.64-5.69,6.1-5.69s6.16,2.52,6.16,5.69-2.7,5.75-6.16,5.75-6.1-2.52-6.1-5.75Z"/>
  </g>
  <path class="f" d="M1219.53,225.38c-6.11.04-10.09-4.76-8.97-10.81,1.35-7.31,8.9-12.78,15.77-11.43,4.55.89,7.45,4.74,7.06,9.36-.57,6.78-7.09,12.84-13.86,12.88ZM1219.5,223.63c5.67.02,11.46-5.03,12.08-10.64.73-6.53-4.3-8.93-8.59-8.36-5.17.69-9.66,4.97-10.74,10.05-1.08,5.08,2.04,8.93,7.25,8.95Z"/>
  <path class="f" d="M1218.62,208.77c1.85,0,3.37,0,4.9,0,1.29,0,2.53.26,3.11,1.53.66,1.43.29,2.82-.71,3.99-.46.54-1.05.96-1.73,1.56.4,1.06.82,2.16,1.29,3.4-1.54.52-2.63.52-3.29-1.15-.38-.98-.62-2.34-2.44-1.83-1.11.73.06,4.18-3.34,2.92.71-3.39,1.42-6.74,2.2-10.42ZM1220.11,213.63c3.68.36,3.78.3,4.02-2.42-1.07-.07-2.13-.15-3.35-.23-.24.95-.43,1.71-.66,2.65Z"/>
</svg>