<?xml version="1.0" encoding="UTF-8"?>
<svg id="a" data-name="Layer_1" xmlns="http://www.w3.org/2000/svg" width="546.99" height="139.78" viewBox="0 0 546.99 139.78">
  <defs>
    <style>
      .b {
        fill: #651b37;
      }

      .c {
        fill: #231f20;
      }

      .d {
        fill: #c7cbc6;
      }

      .e {
        fill: #fff;
      }
    </style>
  </defs>
  <rect class="b" x="0" width="192.72" height="128.97"/>
  <g>
    <path class="e" d="M34.48,31.71c0-1.46-.05-2.65-.16-3.59-.11-.94-.28-1.6-.52-2-.24-.39-.6-.66-1.07-.8-.47-.13-1.14-.25-2.02-.34l-3-.23v-2.18c2.54.03,5.01.07,7.38.11,2.38.04,4.81.07,7.29.07s4.85-.02,7.09-.07c2.24-.04,4.19-.08,5.86-.11h.95c3.66,0,7.07.51,10.22,1.55,3.15,1.03,5.87,2.53,8.16,4.5,2.29,1.97,4.07,4.36,5.36,7.16,1.29,2.8,1.93,5.96,1.93,9.47,0,3.06-.41,5.98-1.23,8.77-.82,2.79-1.95,5.33-3.38,7.63-1.44,2.3-3.14,4.32-5.09,6.04-1.95,1.73-4.05,3.04-6.29,3.95-2.12.85-4.32,1.5-6.61,1.95s-4.93.68-7.93.68h-1.41c-1.48-.06-3.03-.11-4.63-.16s-3.26-.07-4.95-.07-3.34.02-5.02.07c-1.68.04-3.37.1-5.07.16v-1.73l2.27-1.18c.67-.33,1.14-.9,1.43-1.7.29-.8.43-1.7.43-2.7V31.71ZM41.56,70.42c.48.15,1.09.27,1.82.34.73.08,1.47.12,2.23.13.76.02,1.52.04,2.29.07.77.03,1.48.05,2.11.05,1.88,0,3.85-.11,5.91-.34,2.06-.23,4.13-.82,6.22-1.79,4.12-1.91,7.13-4.71,9.02-8.41,1.89-3.69,2.84-8.07,2.84-13.13,0-4.64-.62-8.38-1.86-11.22-1.24-2.85-2.95-5.05-5.11-6.61-2.17-1.56-4.71-2.61-7.63-3.16-2.92-.55-6.05-.82-9.38-.82-.64,0-1.34.02-2.11.05-.77.03-1.54.05-2.29.07-.76.02-1.5.06-2.23.14-.73.08-1.33.19-1.82.34v44.3Z"/>
    <path class="e" d="M99.77,65.1c0,1.45.05,2.65.16,3.59.11.94.28,1.61.52,2,.39.73,1.42,1.11,3.09,1.13l3.59.23v2.23c-3.88-.15-7.48-.23-10.81-.23-1.82,0-3.62.02-5.41.04-1.79.03-3.65.09-5.59.18v-2.23l3.54-.23c1.7-.03,2.74-.41,3.14-1.13.27-.39.45-1.06.55-2,.09-.94.14-2.14.14-3.59V31.71c0-1.46-.05-2.65-.14-3.59-.09-.94-.27-1.6-.55-2-.39-.7-1.44-1.08-3.14-1.14l-3.54-.23v-2.18c1.94.09,3.8.14,5.59.16,1.79.02,3.59.02,5.41.02,3.33,0,6.94-.06,10.81-.18v2.18l-3.59.23c-1.67.06-2.7.44-3.09,1.14-.24.39-.42,1.06-.52,2-.11.94-.16,2.14-.16,3.59v33.4Z"/>
    <path class="e" d="M157.15,64.24c.36.73.73,1.55,1.11,2.48.38.93.8,1.78,1.25,2.57.39.7.82,1.26,1.27,1.7.45.44,1.03.72,1.73.84l2.5.23v2.23c-1.61-.06-3.23-.11-4.86-.16s-3.3-.07-5-.07c-1.3,0-2.78.02-4.43.07-1.65.04-3.48.1-5.48.16v-2.23l3.5-.23c.79-.03,1.49-.17,2.11-.43.62-.26.93-.61.93-1.07,0-.55-.17-1.26-.5-2.14-.33-.88-.68-1.74-1.05-2.59l-3.45-8.59h-21.4l-2.14,4.95c-.15.42-.37,1.01-.66,1.75-.29.74-.58,1.52-.89,2.32-.3.8-.55,1.54-.75,2.23s-.3,1.17-.3,1.48c0,.79.31,1.3.93,1.55.62.24,1.51.42,2.66.54l2.77.23v2.23c-1.82-.06-3.43-.11-4.84-.16-1.41-.04-2.66-.07-3.75-.07-1.42,0-2.85.02-4.27.07s-2.85.1-4.27.16v-2.23l2.73-.23c.88-.12,1.67-.51,2.39-1.18.71-.66,1.26-1.5,1.66-2.5l13.22-30.12c1.15-2.64,2.33-5.3,3.54-8,1.21-2.7,2.32-5.39,3.32-8.09h2.41l17.99,42.3ZM145.48,54.02l-9.41-22.17-9.41,22.17h18.81Z"/>
  </g>
  <g>
    <path class="e" d="M23.89,102.21c0,.37.01.67.04.91.03.24.07.41.13.51.1.18.36.28.79.29l.91.06v.57c-.99-.04-1.9-.06-2.75-.06-.46,0-.92,0-1.38.01-.45,0-.93.02-1.42.05v-.57l.9-.06c.43,0,.7-.1.8-.29.07-.1.12-.27.14-.51.02-.24.03-.54.03-.91v-8.49c0-.37-.01-.67-.03-.91-.02-.24-.07-.41-.14-.51-.1-.18-.37-.27-.8-.29l-.9-.06v-.55c.49.02.97.04,1.42.04.45,0,.91,0,1.38,0,.85,0,1.76-.02,2.75-.05v.55l-.91.06c-.42.02-.69.11-.79.29-.06.1-.11.27-.13.51-.03.24-.04.54-.04.91v8.49Z"/>
    <path class="e" d="M28.29,93.72c0-.37-.01-.67-.03-.91-.02-.24-.07-.41-.13-.51-.06-.1-.15-.17-.27-.2s-.29-.06-.53-.09l-.83-.06v-.55c.42,0,.81.02,1.19.03.38.01.74.02,1.09.02.17,0,.34,0,.5-.02.17-.01.34-.02.51-.03l9.05,11.16h.06v-8.84c0-.37-.01-.67-.04-.91-.03-.24-.07-.41-.13-.51s-.15-.17-.27-.2-.29-.06-.53-.09l-.83-.06v-.55c.38,0,.75.02,1.13.03.37.01.73.02,1.07.02.39,0,.76,0,1.11-.02.35-.01.74-.02,1.17-.03v.55l-.83.06c-.23.02-.41.05-.53.09s-.21.1-.27.2c-.06.1-.11.27-.13.51-.03.24-.04.54-.04.91v10.45c0,.12,0,.23.02.35.02.12.03.24.03.35l-1.71-.31-8.91-11.07h-.03v8.73c0,.37.01.67.04.91.03.24.07.41.13.51s.15.17.27.2c.12.03.29.06.51.09l.83.06v.57c-.41-.02-.79-.03-1.16-.04-.36-.01-.73-.02-1.11-.02-.34,0-.7,0-1.07.02-.37.01-.75.03-1.13.04v-.57l.83-.06c.23-.03.41-.06.53-.09.12-.03.21-.1.27-.2.06-.1.1-.27.13-.51.02-.24.03-.54.03-.91v-8.49Z"/>
    <path class="e" d="M54.06,103.84c-.28.17-.59.32-.95.44-.35.12-.72.23-1.1.32-.38.09-.75.16-1.11.2-.36.04-.68.06-.98.06-1.13,0-2.17-.16-3.1-.47s-1.73-.77-2.4-1.36-1.19-1.32-1.55-2.17-.55-1.82-.55-2.9.2-2.06.61-2.91c.4-.84.97-1.57,1.7-2.18.72-.59,1.55-1.04,2.47-1.35.92-.31,1.92-.46,2.99-.46.44,0,.87.02,1.3.07.43.05.83.11,1.21.18.38.08.73.16,1.05.26.32.1.6.18.83.26-.11.44-.19.9-.26,1.4-.07.49-.1.99-.1,1.48h-.6v-1.36c0-.26-.16-.48-.48-.67-.32-.18-.7-.35-1.14-.51-.31-.1-.65-.18-1.03-.24s-.74-.09-1.1-.09c-.89,0-1.68.15-2.35.46-.67.31-1.24.72-1.69,1.24-.45.52-.8,1.14-1.03,1.85-.24.71-.35,1.47-.35,2.28,0,.92.15,1.77.44,2.54.3.77.72,1.42,1.26,1.95s1.2.95,1.97,1.24c.77.29,1.62.43,2.55.43.34,0,.69-.03,1.05-.08.36-.05.71-.13,1.06-.24.34-.1.66-.22.96-.36.3-.14.56-.29.77-.45l.16.19-.52.95Z"/>
    <path class="e" d="M62.45,104.87c-.96,0-1.84-.16-2.66-.48s-1.53-.78-2.13-1.38c-.6-.6-1.07-1.32-1.41-2.17-.34-.85-.51-1.81-.51-2.88,0-.96.17-1.87.5-2.72.33-.85.8-1.58,1.42-2.2.62-.62,1.36-1.1,2.24-1.46s1.86-.53,2.96-.53c1.01,0,1.94.14,2.79.42.85.28,1.58.69,2.2,1.24s1.09,1.23,1.43,2.03.51,1.74.51,2.78-.19,1.97-.56,2.86-.89,1.67-1.54,2.33c-.66.66-1.43,1.18-2.33,1.57-.9.38-1.87.57-2.91.57ZM62.55,91.86c-.82,0-1.53.14-2.13.41-.61.27-1.1.65-1.49,1.14-.39.48-.68,1.06-.87,1.72-.19.66-.29,1.38-.29,2.15,0,.83.1,1.65.31,2.46.2.81.52,1.53.95,2.18.43.64.98,1.16,1.65,1.56s1.47.6,2.4.6c.79,0,1.48-.14,2.07-.43s1.07-.7,1.46-1.23.68-1.16.88-1.88c.2-.72.3-1.52.3-2.39,0-.94-.11-1.79-.32-2.57-.22-.77-.54-1.43-.97-1.98-.43-.55-.97-.97-1.62-1.28-.65-.3-1.42-.46-2.31-.46Z"/>
    <path class="e" d="M74.3,102.21c0,.37.01.67.04.91.03.24.07.41.13.51.1.18.36.28.79.29l.91.06v.57c-.99-.04-1.9-.06-2.75-.06-.46,0-.92,0-1.38.01-.45,0-.93.02-1.42.05v-.57l.9-.06c.43,0,.7-.1.8-.29.07-.1.12-.27.14-.51.02-.24.03-.54.03-.91v-8.49c0-.37-.01-.67-.03-.91-.02-.24-.07-.41-.14-.51-.06-.1-.15-.17-.27-.2-.12-.03-.29-.06-.53-.09l-.77-.06v-.55c.51,0,1.03.02,1.57.03.54.01,1.09.02,1.66.02s1.13,0,1.67-.02c.54-.01,1.09-.02,1.65-.03h.16c.72,0,1.32.09,1.8.25.47.17.85.39,1.13.66.28.27.47.57.58.91s.16.67.16,1.01c0,.52-.11.98-.32,1.39-.22.41-.5.77-.85,1.07s-.75.55-1.18.76c-.44.2-.89.35-1.34.43l4.3,5.61c.14.19.31.32.51.38.2.06.42.1.65.12v.57c-.25-.02-.49-.03-.72-.04-.22-.01-.44-.02-.65-.02s-.43,0-.65.02c-.22.01-.43.03-.65.04-.12-.18-.25-.35-.38-.51-.13-.17-.26-.33-.39-.5l-3.48-4.68c-.15-.22-.32-.42-.49-.6-.17-.19-.33-.37-.5-.57l.1-.23c.09,0,.18.01.25.01h.27c.18,0,.37,0,.57-.03.19-.02.39-.04.59-.06.32-.05.63-.15.93-.31s.56-.35.79-.58.41-.49.54-.79c.13-.3.2-.62.2-.98,0-.51-.09-.93-.25-1.27-.17-.34-.4-.61-.69-.8s-.61-.34-.96-.42c-.35-.08-.72-.12-1.09-.12-.43,0-.8.02-1.09.06-.3.04-.58.09-.84.16v9.88Z"/>
    <path class="e" d="M86.94,102.21c0,.37.01.67.04.91.03.24.07.41.13.51.1.18.36.28.79.29l.91.06v.57c-.99-.04-1.9-.06-2.75-.06-.46,0-.92,0-1.38.01-.45,0-.93.02-1.42.05v-.57l.9-.06c.43,0,.7-.1.8-.29.07-.1.12-.27.14-.51.02-.24.03-.54.03-.91v-8.49c0-.33-.02-.62-.05-.86-.03-.24-.08-.42-.14-.53-.06-.1-.15-.17-.28-.22s-.3-.08-.54-.1l-.84-.06v-.55c.63,0,1.22.02,1.77.03.55.01,1.09.02,1.64.02s1.1,0,1.64-.02c.54-.01,1.06-.02,1.58-.03h.13c.45,0,.91.05,1.35.16s.85.28,1.21.51c.36.23.66.53.88.9.23.37.34.81.34,1.32,0,.59-.12,1.14-.36,1.64-.24.5-.56.93-.98,1.29-.41.36-.9.64-1.45.84-.55.2-1.14.3-1.76.3-.38,0-.76-.04-1.14-.12l-.18-.68c.39.13.81.2,1.25.2.39,0,.74-.07,1.07-.22.33-.15.62-.34.87-.6s.44-.55.58-.89c.14-.34.21-.71.21-1.12,0-.99-.27-1.7-.82-2.15-.55-.45-1.29-.67-2.24-.67-.43,0-.8.02-1.09.06-.3.04-.58.09-.84.16v9.88Z"/>
    <path class="e" d="M101.41,104.87c-.96,0-1.84-.16-2.66-.48s-1.53-.78-2.13-1.38c-.6-.6-1.07-1.32-1.41-2.17-.34-.85-.51-1.81-.51-2.88,0-.96.17-1.87.5-2.72.33-.85.8-1.58,1.42-2.2.62-.62,1.36-1.1,2.24-1.46s1.86-.53,2.96-.53c1.01,0,1.94.14,2.79.42.85.28,1.58.69,2.2,1.24s1.09,1.23,1.43,2.03.51,1.74.51,2.78-.19,1.97-.56,2.86-.89,1.67-1.54,2.33c-.66.66-1.43,1.18-2.33,1.57-.9.38-1.87.57-2.91.57ZM101.5,91.86c-.82,0-1.53.14-2.13.41-.61.27-1.1.65-1.49,1.14-.39.48-.68,1.06-.87,1.72-.19.66-.29,1.38-.29,2.15,0,.83.1,1.65.31,2.46.2.81.52,1.53.95,2.18.43.64.98,1.16,1.65,1.56s1.47.6,2.4.6c.79,0,1.48-.14,2.07-.43s1.07-.7,1.46-1.23.68-1.16.88-1.88c.2-.72.3-1.52.3-2.39,0-.94-.11-1.79-.32-2.57-.22-.77-.54-1.43-.97-1.98-.43-.55-.97-.97-1.62-1.28-.65-.3-1.42-.46-2.31-.46Z"/>
    <path class="e" d="M113.26,102.21c0,.37.01.67.04.91.03.24.07.41.13.51.1.18.36.28.79.29l.91.06v.57c-.99-.04-1.9-.06-2.75-.06-.46,0-.92,0-1.38.01-.45,0-.93.02-1.42.05v-.57l.9-.06c.43,0,.7-.1.8-.29.07-.1.12-.27.14-.51.02-.24.03-.54.03-.91v-8.49c0-.37-.01-.67-.03-.91-.02-.24-.07-.41-.14-.51-.06-.1-.15-.17-.27-.2-.12-.03-.29-.06-.53-.09l-.77-.06v-.55c.51,0,1.03.02,1.57.03.54.01,1.09.02,1.66.02s1.13,0,1.67-.02c.54-.01,1.09-.02,1.65-.03h.16c.72,0,1.32.09,1.8.25.47.17.85.39,1.13.66.28.27.47.57.58.91s.16.67.16,1.01c0,.52-.11.98-.32,1.39-.22.41-.5.77-.85,1.07s-.75.55-1.18.76c-.44.2-.89.35-1.34.43l4.3,5.61c.14.19.31.32.51.38.2.06.42.1.65.12v.57c-.25-.02-.49-.03-.72-.04-.22-.01-.44-.02-.65-.02s-.43,0-.65.02c-.22.01-.43.03-.65.04-.12-.18-.25-.35-.38-.51-.13-.17-.26-.33-.39-.5l-3.48-4.68c-.15-.22-.32-.42-.49-.6-.17-.19-.33-.37-.5-.57l.1-.23c.09,0,.18.01.25.01h.27c.18,0,.37,0,.57-.03.19-.02.39-.04.59-.06.32-.05.63-.15.93-.31s.56-.35.79-.58.41-.49.54-.79c.13-.3.2-.62.2-.98,0-.51-.09-.93-.25-1.27-.17-.34-.4-.61-.69-.8s-.61-.34-.96-.42c-.35-.08-.72-.12-1.09-.12-.43,0-.8.02-1.09.06-.3.04-.58.09-.84.16v9.88Z"/>
    <path class="e" d="M134.11,101.99c.09.19.19.4.28.63.1.24.2.45.32.65.1.18.21.32.32.43.12.11.26.18.44.21l.64.06v.57c-.41-.02-.82-.03-1.24-.04-.42-.01-.84-.02-1.27-.02-.33,0-.71,0-1.13.02-.42.01-.88.03-1.39.04v-.57l.89-.06c.2,0,.38-.04.54-.11.16-.07.24-.16.24-.27,0-.14-.04-.32-.13-.54-.09-.22-.17-.44-.27-.66l-.88-2.18h-5.44l-.54,1.26c-.04.11-.09.26-.17.44-.07.19-.15.39-.23.59s-.14.39-.19.57c-.05.17-.08.3-.08.38,0,.2.08.33.24.39s.38.11.68.14l.7.06v.57c-.46-.02-.87-.03-1.23-.04-.36-.01-.68-.02-.95-.02-.36,0-.72,0-1.09.02-.36.01-.72.03-1.09.04v-.57l.69-.06c.22-.03.43-.13.61-.3.18-.17.32-.38.42-.63l3.36-7.66c.29-.67.59-1.35.9-2.03s.59-1.37.84-2.06h.61l4.58,10.76ZM131.14,99.39l-2.39-5.64-2.39,5.64h4.78Z"/>
    <path class="e" d="M140.02,94.21c0-.37,0-.71-.02-1.01-.01-.31-.03-.6-.06-.88h-2.92c-.29,0-.49.05-.58.14-.09.09-.15.26-.18.49l-.07,1.5h-.59c0-.52,0-1.04-.03-1.55-.02-.51-.05-1.01-.1-1.5.68,0,1.36,0,2.04.02.68.02,1.36.02,2.04.02h2.75c.34,0,.68,0,1.02,0,.34,0,.68-.01,1.02-.03.35,0,.69,0,1.03,0,.34,0,.68,0,1.03,0-.05.49-.09.99-.11,1.5-.02.51-.03,1.02-.03,1.55h-.58l-.08-1.5c-.03-.23-.09-.39-.18-.49-.09-.09-.28-.14-.57-.14h-2.95c-.02.28-.04.58-.05.88-.01.3-.02.64-.02,1.01v8c0,.37.01.67.03.91.02.24.07.41.13.51.11.18.37.28.8.29l.91.06v.57c-.99-.04-1.9-.06-2.74-.06-.47,0-.93,0-1.39.01s-.93.02-1.42.05v-.57l.91-.06c.43,0,.69-.1.79-.29.06-.1.11-.27.13-.51.03-.24.04-.54.04-.91v-8Z"/>
    <path class="e" d="M149.01,93.72c0-.37-.01-.67-.03-.91-.02-.24-.07-.41-.14-.51-.1-.18-.37-.27-.8-.29l-.9-.06v-.55c.26,0,.53,0,.79,0s.53.01.8.03c.26,0,.53,0,.8,0s.54,0,.81,0c.83,0,1.65,0,2.45-.02.8-.02,1.47-.02,2.01-.02.89,0,1.7.02,2.45.05-.11.42-.18.89-.23,1.4s-.07,1-.07,1.48h-.67v-1.23c0-.12,0-.23-.03-.33-.02-.1-.06-.16-.13-.18-.25-.09-.53-.17-.84-.23-.3-.06-.62-.1-.95-.12s-.65-.04-.98-.05c-.33,0-.65-.01-.95-.01-.25,0-.52,0-.79.03-.27.02-.54.06-.8.12v5.06c.31.02.64.04.99.05.35,0,.75.01,1.21.01,1.12,0,1.78-.07,2-.21.08-.07.13-.23.15-.5l.1-.98h.57c-.02.39-.03.76-.04,1.12-.01.36-.02.72-.02,1.07s0,.71.02,1.06c.01.35.03.7.04,1.05h-.57l-.1-1.12c-.02-.26-.07-.42-.15-.47-.22-.15-.88-.23-2-.23-.45,0-.86,0-1.23.01s-.69.02-.97.05v5.3c.26.06.53.1.8.12.27.02.53.03.79.03.39,0,.8,0,1.21-.01.41,0,.8-.02,1.16-.03.36-.02.67-.04.94-.07.27-.03.44-.07.53-.13.15-.08.28-.31.4-.69s.21-.86.27-1.43h.66c-.1.45-.18.96-.23,1.51s-.08,1.08-.08,1.6c-.37.02-.84.03-1.4.04-.56.01-1.14.02-1.75.02h-.59c-.73-.02-1.45-.03-2.17-.04-.71-.01-1.37-.02-1.96-.02-.37,0-.71,0-1.03.02-.32.01-.65.03-.99.04v-.57l.67-.06c.23-.03.41-.06.53-.09.12-.03.21-.1.27-.2.07-.1.12-.27.14-.51.02-.24.03-.54.03-.91v-8.49Z"/>
    <path class="e" d="M160.43,93.72c0-.37-.01-.67-.04-.91-.03-.24-.07-.41-.13-.51-.06-.1-.15-.17-.27-.2-.12-.03-.29-.06-.51-.09l-.76-.06v-.55c.65,0,1.27.02,1.88.03.6.01,1.22.02,1.85.02s1.23,0,1.8-.02c.57-.01,1.07-.02,1.49-.03h.24c.93,0,1.8.13,2.6.39.8.26,1.49.64,2.07,1.14.58.5,1.04,1.11,1.36,1.82.33.71.49,1.52.49,2.41,0,.78-.1,1.52-.31,2.23s-.49,1.36-.86,1.94-.8,1.1-1.29,1.54-1.03.77-1.6,1.01c-.54.22-1.1.38-1.68.5-.58.12-1.25.17-2.02.17h-.36c-.38-.02-.77-.03-1.18-.04-.41-.01-.83-.02-1.26-.02s-.85,0-1.28.02c-.43.01-.86.03-1.29.04v-.44l.58-.3c.17-.08.29-.23.36-.43.07-.2.11-.43.11-.69v-8.97ZM162.23,103.56c.12.04.28.07.46.09.19.02.37.03.57.03s.39,0,.58.02.38.01.54.01c.48,0,.98-.03,1.5-.09.52-.06,1.05-.21,1.58-.46,1.05-.49,1.81-1.2,2.29-2.14.48-.94.72-2.05.72-3.34,0-1.18-.16-2.13-.47-2.85-.32-.72-.75-1.28-1.3-1.68-.55-.4-1.2-.67-1.94-.8-.74-.14-1.54-.21-2.39-.21-.16,0-.34,0-.54.01-.2,0-.39.01-.58.02s-.38.02-.57.03c-.18.02-.34.05-.46.09v11.27Z"/>
  </g>
  <rect class="d" x="192.56" width="354.43" height="128.97"/>
  <g>
    <path class="c" d="M222.66,32.01c0-.81-.03-1.48-.09-2.01-.06-.52-.16-.9-.29-1.12-.14-.22-.33-.37-.6-.45-.26-.08-.64-.14-1.13-.19l-1.68-.13v-1.22c1.42.02,2.8.04,4.13.06s2.69.04,4.08.04,2.71-.01,3.96-.04,2.34-.05,3.28-.06h.53c2.05,0,3.95.29,5.71.86,1.76.58,3.28,1.41,4.56,2.51s2.28,2.43,3,4,1.08,3.33,1.08,5.29c0,1.71-.23,3.34-.69,4.9-.46,1.56-1.09,2.98-1.89,4.27-.8,1.29-1.75,2.41-2.84,3.38-1.09.96-2.26,1.7-3.52,2.21-1.19.47-2.42.84-3.7,1.09-1.28.25-2.76.38-4.43.38h-.79c-.83-.03-1.69-.06-2.59-.09s-1.82-.04-2.77-.04-1.87.01-2.81.04c-.94.03-1.88.05-2.83.09v-.96l1.27-.66c.37-.19.64-.5.8-.95.16-.45.24-.95.24-1.51v-19.71ZM226.63,53.64c.27.08.61.15,1.02.19.41.04.82.07,1.24.08s.85.02,1.28.04.83.03,1.18.03c1.05,0,2.15-.06,3.3-.19s2.31-.46,3.48-1c2.3-1.07,3.98-2.63,5.04-4.7,1.06-2.07,1.59-4.51,1.59-7.34,0-2.59-.35-4.68-1.04-6.27s-1.65-2.82-2.86-3.7c-1.21-.87-2.63-1.46-4.27-1.76-1.63-.3-3.38-.46-5.24-.46-.36,0-.75,0-1.18.03-.43.02-.86.03-1.28.04-.42,0-.84.03-1.24.08-.41.04-.75.11-1.02.19v24.76Z"/>
    <path class="c" d="M257.99,51.43c0,.56.01,1.05.04,1.46.03.42.08.73.17.95.17.32.62.52,1.35.58l1.9.13v1.24c-.75-.03-1.54-.06-2.39-.09s-1.79-.04-2.82-.04-1.97.01-2.82.04c-.85.03-1.64.05-2.39.09v-1.24l1.93-.13c.71-.07,1.15-.26,1.32-.58.08-.22.14-.54.17-.95.03-.41.04-.9.04-1.46v-9.37c0-.66-.02-1.21-.05-1.65-.03-.44-.11-.74-.23-.91-.22-.3-.74-.46-1.55-.46h-1.52v-1.17c1.24-.14,2.43-.37,3.58-.71s2.12-.68,2.92-1.02l.36.2v15.09ZM256.04,27.1c.61,0,1.15.24,1.61.71.47.47.7,1.02.7,1.63s-.23,1.14-.7,1.59c-.47.45-1,.67-1.61.67s-1.14-.22-1.6-.67c-.46-.45-.69-.98-.69-1.59s.23-1.15.69-1.63c.46-.47.99-.71,1.6-.71Z"/>
    <path class="c" d="M266.6,29.87c0-.47-.05-.88-.15-1.21-.1-.33-.39-.5-.86-.5h-2.34v-1.17c1.1-.15,2.19-.34,3.28-.57s2.16-.55,3.23-.95l.36.33v25.62c0,.56.01,1.05.04,1.46.03.42.08.73.17.95.17.32.62.52,1.35.58l1.9.13v1.24c-.75-.03-1.54-.06-2.39-.09s-1.79-.04-2.82-.04-1.97.01-2.82.04c-.85.03-1.64.05-2.39.09v-1.24l1.93-.13c.71-.07,1.15-.26,1.32-.58.08-.22.14-.54.17-.95.03-.41.04-.9.04-1.46v-21.56Z"/>
    <path class="c" d="M278.72,29.87c0-.47-.05-.88-.15-1.21-.1-.33-.39-.5-.86-.5h-2.34v-1.17c1.1-.15,2.19-.34,3.28-.57s2.16-.55,3.23-.95l.36.33v25.62c0,.56.01,1.05.04,1.46.03.42.08.73.17.95.17.32.62.52,1.35.58l1.9.13v1.24c-.75-.03-1.54-.06-2.39-.09s-1.79-.04-2.82-.04-1.97.01-2.82.04c-.85.03-1.64.05-2.39.09v-1.24l1.93-.13c.71-.07,1.15-.26,1.32-.58.08-.22.14-.54.17-.95.03-.41.04-.9.04-1.46v-21.56Z"/>
    <path class="c" d="M296.72,56.51c-1.29,0-2.47-.25-3.56-.74s-2.02-1.17-2.81-2.04c-.79-.87-1.4-1.9-1.84-3.07-.44-1.18-.66-2.47-.66-3.87,0-1.56.23-2.99.7-4.29.47-1.3,1.16-2.42,2.07-3.35.91-.93,2.03-1.66,3.35-2.2,1.32-.53,2.81-.8,4.47-.8,1.34,0,2.58.25,3.73.74,1.15.49,2.15,1.17,3,2.03.85.86,1.51,1.87,1.99,3.02s.72,2.39.72,3.71c0,1.57-.27,3.03-.81,4.37-.54,1.34-1.29,2.48-2.25,3.44s-2.11,1.71-3.45,2.25-2.81.81-4.38.81h-.28ZM297.51,37.54c-1.12,0-2.04.21-2.78.62s-1.33.96-1.77,1.64c-.44.68-.76,1.47-.95,2.38-.19.91-.29,1.84-.29,2.81,0,1.08.11,2.22.33,3.42.22,1.19.6,2.29,1.13,3.29s1.24,1.82,2.12,2.46,1.99.96,3.33.96c.95,0,1.76-.21,2.44-.63.68-.42,1.24-1,1.68-1.73.44-.73.76-1.55.96-2.46.2-.92.3-1.85.3-2.79,0-1.35-.15-2.63-.46-3.83s-.74-2.26-1.31-3.17c-.57-.91-1.25-1.63-2.06-2.16-.8-.52-1.7-.79-2.68-.79Z"/>
    <path class="c" d="M316.38,51.43c0,.56.01,1.05.04,1.46.03.42.08.73.17.95.17.32.61.52,1.32.58l1.88.13v1.24c-.71-.03-1.49-.06-2.34-.09-.85-.03-1.79-.04-2.82-.04s-1.97.01-2.81.04c-.84.03-1.62.05-2.35.09v-1.24l1.85-.13c.73-.07,1.18-.26,1.35-.58.08-.22.14-.54.17-.95.03-.41.04-.9.04-1.46v-9.37c0-.66-.02-1.21-.06-1.65-.04-.44-.11-.74-.22-.91-.22-.3-.74-.46-1.55-.46h-1.55v-1.17c1.25-.14,2.45-.37,3.61-.71,1.15-.34,2.12-.68,2.9-1.02l.38.2v3.53h.08l3.07-2.67c.47-.39.94-.67,1.41-.83.47-.16,1.12-.24,1.97-.24,2.44,0,4.19.64,5.26,1.93,1.07,1.29,1.6,3.06,1.6,5.33v8.03c0,.56.02,1.05.05,1.46.03.42.08.73.15.95.17.32.61.52,1.32.58l1.73.13v1.24c-.52-.03-1.08-.06-1.66-.09-.58-.03-1.16-.04-1.74-.04s-1.16.01-1.75.04c-.59.03-1.12.05-1.57.09v-11.81c0-1.76-.44-3.09-1.33-3.97-.89-.89-2.04-1.33-3.47-1.33-.64,0-1.27.13-1.87.38-.6.25-1.15.57-1.64.95-.49.38-.88.8-1.17,1.27-.29.47-.43.91-.43,1.33v8.81Z"/>
    <path class="c" d="M351.09,50.67c0,.81.03,1.48.09,2.01.06.53.16.9.29,1.12.22.41.8.62,1.73.63l2.01.13v1.24c-2.17-.08-4.18-.13-6.04-.13-1.02,0-2.02,0-3.02.03-1,.02-2.04.05-3.12.1v-1.24l1.98-.13c.95-.02,1.53-.23,1.75-.63.15-.22.25-.59.3-1.12.05-.52.08-1.19.08-2.01v-18.67c0-.81-.03-1.48-.08-2.01s-.15-.9-.3-1.12c-.22-.39-.8-.6-1.75-.64l-1.98-.13v-1.22c1.08.05,2.12.08,3.12.09,1,0,2.01.01,3.02.01,1.86,0,3.88-.03,6.04-.1v1.22l-2.01.13c-.93.03-1.51.25-1.73.64-.14.22-.23.59-.29,1.12-.06.52-.09,1.19-.09,2.01v18.67Z"/>
    <path class="c" d="M363.29,51.43c0,.56.01,1.05.04,1.46.03.42.08.73.17.95.17.32.61.52,1.32.58l1.88.13v1.24c-.71-.03-1.49-.06-2.34-.09-.85-.03-1.79-.04-2.82-.04s-1.97.01-2.81.04c-.84.03-1.62.05-2.35.09v-1.24l1.85-.13c.73-.07,1.18-.26,1.35-.58.08-.22.14-.54.17-.95.03-.41.04-.9.04-1.46v-9.37c0-.66-.02-1.21-.06-1.65-.04-.44-.11-.74-.22-.91-.22-.3-.74-.46-1.55-.46h-1.55v-1.17c1.25-.14,2.45-.37,3.61-.71,1.15-.34,2.12-.68,2.9-1.02l.38.2v3.53h.08l3.07-2.67c.47-.39.94-.67,1.41-.83.47-.16,1.12-.24,1.97-.24,2.44,0,4.19.64,5.26,1.93,1.07,1.29,1.6,3.06,1.6,5.33v8.03c0,.56.02,1.05.05,1.46.03.42.08.73.15.95.17.32.61.52,1.32.58l1.73.13v1.24c-.52-.03-1.08-.06-1.66-.09-.58-.03-1.16-.04-1.74-.04s-1.16.01-1.75.04c-.59.03-1.12.05-1.57.09v-11.81c0-1.76-.44-3.09-1.33-3.97-.89-.89-2.04-1.33-3.47-1.33-.64,0-1.27.13-1.87.38-.6.25-1.15.57-1.64.95-.49.38-.88.8-1.17,1.27-.29.47-.43.91-.43,1.33v8.81Z"/>
    <path class="c" d="M383.27,49.73v1.7c0,.63.17,1.17.51,1.64.34.47.76.84,1.27,1.12.51.28,1.08.48,1.73.6.64.12,1.27.18,1.88.18.66,0,1.28-.09,1.87-.27s1.1-.44,1.54-.77c.44-.34.79-.74,1.05-1.21.26-.46.39-.98.39-1.54,0-.66-.17-1.24-.52-1.74-.35-.5-.83-.83-1.46-1-.93-.22-1.93-.46-3.01-.71s-2.11-.57-3.11-.94c-1-.41-1.84-.94-2.51-1.61-.68-.67-1.02-1.65-1.02-2.93,0-1.1.22-2.04.66-2.82.44-.78,1.03-1.41,1.77-1.9s1.57-.84,2.51-1.05c.94-.21,1.9-.32,2.88-.32s1.88.1,2.79.3c.91.2,1.77.46,2.56.76-.05.75-.09,1.51-.13,2.29-.03.78-.06,1.58-.08,2.41h-1.19v-.97c0-.52-.14-1-.41-1.42-.27-.42-.63-.78-1.09-1.08-.46-.3-.98-.52-1.56-.67s-1.16-.23-1.74-.23c-.9,0-1.61.11-2.13.33-.52.22-.94.5-1.23.83s-.49.69-.58,1.08c-.09.39-.14.77-.14,1.14,0,.88.36,1.58,1.09,2.08.73.51,1.88.91,3.45,1.19,2.47.41,4.3.99,5.5,1.75,1.19.76,1.79,1.96,1.79,3.58,0,1.13-.27,2.14-.8,3.01-.53.87-1.23,1.6-2.08,2.18s-1.83,1.03-2.93,1.33-2.23.46-3.4.46c-1,0-1.96-.08-2.88-.24s-1.9-.41-2.93-.75c.22-.93.35-1.89.39-2.87.04-.98.06-1.96.06-2.92h1.24Z"/>
    <path class="c" d="M418.88,51.43c0,.56.01,1.05.04,1.46.03.42.08.73.17.95.17.32.62.52,1.35.58l1.7.13v1.24c-.53-.03-1.08-.06-1.66-.09-.58-.03-1.17-.04-1.77-.04s-1.2.01-1.78.04c-.58.03-1.14.05-1.7.09.05-.59.09-1.18.11-1.78s.04-1.28.04-2.06l-2.77,2.59c-.59.52-1.27.93-2.03,1.21s-1.63.42-2.62.42c-1.49,0-2.63-.22-3.42-.65-.79-.43-1.37-.99-1.74-1.66-.37-.68-.59-1.44-.65-2.29-.06-.85-.09-1.69-.09-2.54v-6.98c0-.66-.02-1.21-.05-1.65-.03-.44-.12-.74-.25-.91-.2-.3-.71-.46-1.52-.46h-1.52v-1.17c1.24-.14,2.43-.37,3.58-.71s2.12-.68,2.9-1.02l.38.2v12.27c0,.81.05,1.53.17,2.16.11.63.33,1.15.66,1.57.33.42.79.75,1.37.96.58.22,1.36.33,2.32.33.66,0,1.31-.15,1.96-.46.64-.3,1.21-.7,1.71-1.19.5-.49.89-1.01,1.18-1.56.29-.55.43-1.08.43-1.59v-6.78c0-.66-.02-1.21-.06-1.65-.04-.44-.11-.74-.22-.91-.24-.3-.75-.46-1.55-.46h-1.55v-1.17c1.25-.14,2.45-.37,3.61-.71s2.12-.68,2.9-1.02l.38.2v15.09Z"/>
    <path class="c" d="M427.36,42.06c0-.66-.02-1.21-.05-1.65-.03-.44-.11-.74-.23-.91-.22-.3-.74-.46-1.55-.46h-1.52v-1.17c1.24-.14,2.43-.37,3.58-.71s2.12-.68,2.92-1.02l.36.2v4.19h.08l2.26-2.67c.49-.61,1.06-1.05,1.7-1.32.64-.27,1.24-.41,1.78-.41.36,0,.72.05,1.1.14.38.09.66.21.83.34l-.38,5h-.86c-.24-.51-.58-.96-1.03-1.35-.45-.39-1.05-.58-1.82-.58-.47,0-.92.11-1.35.33-.42.22-.81.54-1.16.96-.35.42-.63.91-.84,1.46-.21.55-.32,1.16-.32,1.82v7.16c0,.56.01,1.05.04,1.46.03.42.08.73.17.95.17.32.75.52,1.75.58l2.16.13v1.24c-1.08-.03-2.07-.06-2.97-.09s-1.86-.04-2.9-.04-1.97.01-2.82.04c-.85.03-1.64.05-2.39.09v-1.24l1.93-.13c.71-.07,1.15-.26,1.32-.58.08-.22.14-.54.17-.95.03-.41.04-.9.04-1.46v-9.37Z"/>
    <path class="c" d="M452.96,43.69v-.13c0-1.57-.42-2.83-1.24-3.77-.83-.94-2.16-1.41-3.99-1.41-.9,0-1.54.05-1.93.15-.39.1-.72.34-.99.71-.14.17-.25.37-.36.61-.1.24-.22.49-.36.76l-.53,1.3-1.09-.28v-2.72l2.21-1.35c.9-.54,1.76-.92,2.58-1.12.82-.2,1.57-.3,2.25-.3,1.3,0,2.39.16,3.26.47.87.31,1.57.8,2.08,1.45s.88,1.5,1.09,2.55c.21,1.05.32,2.33.32,3.83v7.62c0,.32,0,.64.03.96.02.32.06.59.13.81.08.37.43.58,1.04.63l1.62.08v1.24c-.52-.03-1.05-.06-1.56-.09-.52-.03-1.04-.04-1.56-.04-.56,0-1.1.01-1.61.04-.52.03-1.05.05-1.61.09l.23-3.53-5.16,3.56c-.17.14-.44.23-.8.28-.36.05-.74.08-1.13.08-1.41,0-2.6-.42-3.58-1.24s-1.47-2.09-1.47-3.78c0-1.2.23-2.19.7-2.97.47-.78,1.09-1.42,1.87-1.92.78-.5,1.64-.89,2.58-1.17.94-.28,1.9-.5,2.88-.65l4.11-.76ZM452.96,45.03c-1.05.14-2.06.31-3.03.52s-1.99.52-3.03.93c-.73.3-1.33.84-1.79,1.6-.47.76-.7,1.53-.7,2.31,0,1.05.33,1.88.99,2.49s1.41.92,2.23.92c.64,0,1.3-.19,1.96-.56.66-.37,1.34-.82,2.03-1.35.34-.25.62-.51.85-.77s.39-.46.5-.6v-5.49Z"/>
    <path class="c" d="M467.44,51.43c0,.56.01,1.05.04,1.46.03.42.08.73.17.95.17.32.61.52,1.32.58l1.88.13v1.24c-.71-.03-1.49-.06-2.34-.09-.85-.03-1.79-.04-2.82-.04s-1.97.01-2.81.04c-.84.03-1.62.05-2.35.09v-1.24l1.85-.13c.73-.07,1.18-.26,1.35-.58.08-.22.14-.54.17-.95.03-.41.04-.9.04-1.46v-9.37c0-.66-.02-1.21-.06-1.65-.04-.44-.11-.74-.22-.91-.22-.3-.74-.46-1.55-.46h-1.55v-1.17c1.25-.14,2.45-.37,3.61-.71,1.15-.34,2.12-.68,2.9-1.02l.38.2v3.53h.08l3.07-2.67c.47-.39.94-.67,1.41-.83.47-.16,1.12-.24,1.97-.24,2.44,0,4.19.64,5.26,1.93,1.07,1.29,1.6,3.06,1.6,5.33v8.03c0,.56.02,1.05.05,1.46.03.42.08.73.15.95.17.32.61.52,1.32.58l1.73.13v1.24c-.52-.03-1.08-.06-1.66-.09-.58-.03-1.16-.04-1.74-.04s-1.16.01-1.75.04c-.59.03-1.12.05-1.57.09v-11.81c0-1.76-.44-3.09-1.33-3.97-.89-.89-2.04-1.33-3.47-1.33-.64,0-1.27.13-1.87.38-.6.25-1.15.57-1.64.95-.49.38-.88.8-1.17,1.27-.29.47-.43.91-.43,1.33v8.81Z"/>
    <path class="c" d="M499.92,42.75l-.3-2.54c-.12-.22-.33-.44-.65-.67-.31-.23-.69-.43-1.12-.61-.43-.18-.88-.32-1.33-.43s-.87-.17-1.24-.17c-.71,0-1.43.1-2.15.29s-1.37.55-1.94,1.05-1.05,1.2-1.42,2.07c-.37.87-.56,1.99-.56,3.36,0,1.64.22,3.04.66,4.2.44,1.16,1.02,2.11,1.73,2.86.71.75,1.54,1.29,2.49,1.64.95.35,1.92.52,2.92.52.69,0,1.42-.11,2.18-.32s1.45-.5,2.06-.88l.43.64-.89,1.32c-.08.12-.28.25-.6.41-.31.15-.73.3-1.24.46-.52.15-1.12.28-1.8.39s-1.4.17-2.15.17c-1.24,0-2.43-.21-3.57-.62-1.14-.42-2.15-1.03-3.02-1.85-.87-.82-1.57-1.83-2.08-3.02-.52-1.19-.77-2.57-.77-4.13,0-.96.11-1.86.32-2.68.21-.82.49-1.56.84-2.21.35-.65.74-1.22,1.17-1.7.43-.48.85-.88,1.26-1.18.47-.36,1.04-.71,1.69-1.08.65-.36,1.27-.66,1.84-.9.66-.29,1.32-.53,1.98-.71.66-.19,1.34-.28,2.03-.28,1.22,0,2.22.17,3.01.5.79.33,1.45.66,1.99.98-.17.64-.31,1.43-.43,2.35-.12.92-.18,1.85-.18,2.78h-1.14Z"/>
    <path class="c" d="M513.66,36.15c1.13,0,2.18.18,3.15.53.96.36,1.8.86,2.5,1.52.7.66,1.26,1.46,1.66,2.41.41.95.61,2,.61,3.15v.89c0,.29-.03.58-.1.86-1.24.24-2.48.39-3.75.47s-2.52.11-3.77.11h-6.07c0,2.44.62,4.42,1.85,5.93,1.24,1.52,3.12,2.27,5.66,2.27,1,0,1.91-.21,2.73-.62s1.63-.86,2.43-1.33l.56.43-.84,1.4c-.08.15-.34.35-.77.58s-.97.49-1.6.76-1.33.5-2.1.7c-.76.19-1.49.29-2.18.29-1.57,0-2.96-.24-4.17-.71s-2.2-1.14-3-2.01c-.8-.86-1.41-1.88-1.83-3.04-.42-1.16-.63-2.45-.63-3.87,0-2.01.26-3.65.77-4.91.52-1.26,1.27-2.26,2.25-3.01.37-.32.77-.63,1.21-.91.43-.29.88-.54,1.36-.76.73-.34,1.41-.61,2.04-.83.63-.21,1.31-.32,2.02-.32ZM513.46,37.54c-.76,0-1.48.14-2.15.42-.67.28-1.25.68-1.75,1.21-.5.53-.89,1.19-1.17,1.99-.28.8-.42,1.71-.42,2.73v.56c.88.1,1.77.17,2.65.19.89.03,1.77.04,2.63.04,1.61,0,3.15-.03,4.62-.1,0-.96-.09-1.87-.27-2.72s-.45-1.59-.81-2.24c-.36-.64-.83-1.15-1.38-1.52s-1.21-.56-1.96-.56Z"/>
    <path class="c" d="M326.85,94.19c.2.41.41.87.62,1.38.21.52.44,1,.7,1.43.22.39.46.71.71.95.25.25.58.4.96.47l1.4.13v1.24c-.9-.03-1.8-.06-2.72-.09-.91-.03-1.85-.04-2.79-.04-.73,0-1.55.01-2.48.04s-1.94.05-3.06.09v-1.24l1.96-.13c.44-.02.83-.1,1.18-.24s.52-.34.52-.6c0-.31-.09-.7-.28-1.19-.19-.49-.38-.97-.58-1.45l-1.93-4.8h-11.96l-1.19,2.77c-.08.24-.21.56-.37.98-.16.42-.33.85-.5,1.29-.17.45-.31.86-.42,1.24-.11.38-.17.66-.17.83,0,.44.17.73.52.86s.84.24,1.49.3l1.55.13v1.24c-1.02-.03-1.92-.06-2.7-.09-.79-.03-1.49-.04-2.1-.04-.8,0-1.59.01-2.39.04s-1.59.05-2.39.09v-1.24l1.52-.13c.49-.07.94-.29,1.33-.66.4-.37.71-.84.93-1.4l7.39-16.84c.64-1.47,1.3-2.96,1.98-4.47.68-1.51,1.29-3.01,1.85-4.52h1.35l10.06,23.64ZM320.33,88.48l-5.26-12.39-5.26,12.39h10.51Z"/>
    <path class="c" d="M349.91,83.96c.31.69.46,1.47.46,2.34,0,1.13-.25,2.14-.76,3.01-.51.87-1.18,1.58-2.01,2.12-.93.66-1.89,1.16-2.88,1.5-.99.34-1.98.51-2.96.51-.14,0-.28,0-.43-.01-.15,0-.3-.03-.43-.06-.14.14-.31.3-.53.48-.22.19-.44.37-.65.56-.21.19-.39.39-.52.62-.14.23-.2.44-.2.65,0,.41.11.72.32.94.21.22.47.39.79.5.31.11.66.18,1.03.2s.72.04,1.04.04h6.63c.95,0,1.74.18,2.36.53.63.36,1.13.79,1.5,1.29.37.51.64,1.06.81,1.65.17.59.25,1.15.25,1.68,0,1.12-.26,2.21-.77,3.28-.52,1.07-1.26,2.02-2.23,2.87-.97.85-2.16,1.53-3.56,2.04-1.4.52-2.97.77-4.71.77-1.25,0-2.43-.15-3.52-.46-1.09-.3-2.04-.73-2.86-1.27-.81-.54-1.44-1.2-1.89-1.98-.45-.78-.67-1.62-.67-2.54,0-.61.08-1.22.24-1.83.16-.61.46-1.11.9-1.5l3.63-1.96c-1.83-.51-2.74-1.33-2.74-2.46,0-.61.21-1.19.63-1.75l3.17-2.44v-.08c-.32,0-.76-.09-1.32-.28-.56-.19-1.1-.5-1.63-.93-.52-.43-.98-1-1.37-1.7s-.58-1.6-.58-2.68c0-1.32.29-2.44.88-3.35.58-.91,1.34-1.68,2.27-2.29.98-.66,2.04-1.13,3.16-1.41s2.09-.42,2.88-.42c.91,0,1.82.14,2.73.42.91.28,1.69.73,2.35,1.36l5.92-.18.15.51-1.04,1.7h-3.83ZM342.73,110.17c1.13,0,2.17-.17,3.11-.5.94-.33,1.75-.77,2.44-1.33.69-.56,1.21-1.21,1.59-1.97.37-.75.56-1.55.56-2.38,0-.61-.08-1.15-.25-1.62-.17-.47-.47-.86-.91-1.17-.44-.3-1.04-.54-1.8-.7-.76-.16-1.73-.24-2.9-.24-.56,0-1.2,0-1.92.03-.72.02-1.55.07-2.5.15-.29.02-.63.14-1.03.37s-.78.53-1.16.9c-.37.37-.68.81-.93,1.32s-.37,1.1-.37,1.78c0,.88.16,1.66.47,2.34.31.68.75,1.24,1.31,1.68s1.21.77,1.94,1,1.52.34,2.35.34ZM346.89,87.61c0-.75-.09-1.49-.28-2.22-.19-.74-.47-1.38-.84-1.94-.37-.56-.86-1.01-1.47-1.36s-1.35-.52-2.21-.52c-.69,0-1.3.13-1.83.38-.52.25-.96.61-1.31,1.05-.35.45-.6.97-.76,1.56-.16.59-.24,1.24-.24,1.93,0,1.83.45,3.2,1.35,4.13s2.01,1.38,3.35,1.38c1.24,0,2.25-.41,3.05-1.24.8-.83,1.19-1.88,1.19-3.15Z"/>
    <path class="c" d="M366.02,80.15c1.13,0,2.18.18,3.15.53.96.36,1.8.86,2.5,1.52.7.66,1.26,1.46,1.66,2.41.41.95.61,2,.61,3.15v.89c0,.29-.03.58-.1.86-1.24.24-2.48.39-3.75.47s-2.52.11-3.77.11h-6.07c0,2.44.62,4.42,1.85,5.93,1.24,1.52,3.12,2.27,5.66,2.27,1,0,1.91-.21,2.73-.62s1.63-.86,2.43-1.33l.56.43-.84,1.4c-.08.15-.34.35-.77.58s-.97.49-1.6.76-1.33.5-2.1.7c-.76.19-1.49.29-2.18.29-1.57,0-2.96-.24-4.17-.71s-2.2-1.14-3-2.01c-.8-.86-1.41-1.88-1.83-3.04-.42-1.16-.63-2.45-.63-3.87,0-2.01.26-3.65.77-4.91.52-1.26,1.27-2.26,2.25-3.01.37-.32.77-.63,1.21-.91.43-.29.88-.54,1.36-.76.73-.34,1.41-.61,2.04-.83.63-.21,1.31-.32,2.02-.32ZM365.81,81.54c-.76,0-1.48.14-2.15.42-.67.28-1.25.68-1.75,1.21-.5.53-.89,1.19-1.17,1.99-.28.8-.42,1.71-.42,2.73v.56c.88.1,1.77.17,2.65.19.89.03,1.77.04,2.63.04,1.61,0,3.15-.03,4.62-.1,0-.96-.09-1.87-.27-2.72s-.45-1.59-.81-2.24c-.36-.64-.83-1.15-1.38-1.52s-1.21-.56-1.96-.56Z"/>
    <path class="c" d="M382.4,95.43c0,.56.01,1.05.04,1.46.03.42.08.73.17.95.17.32.61.52,1.32.58l1.88.13v1.24c-.71-.03-1.49-.06-2.34-.09-.85-.03-1.79-.04-2.82-.04s-1.97.01-2.81.04c-.84.03-1.62.05-2.35.09v-1.24l1.85-.13c.73-.07,1.18-.26,1.35-.58.08-.22.14-.54.17-.95.03-.41.04-.9.04-1.46v-9.37c0-.66-.02-1.21-.06-1.65-.04-.44-.11-.74-.22-.91-.22-.3-.74-.46-1.55-.46h-1.55v-1.17c1.25-.14,2.45-.37,3.61-.71,1.15-.34,2.12-.68,2.9-1.02l.38.2v3.53h.08l3.07-2.67c.47-.39.94-.67,1.41-.83.47-.16,1.12-.24,1.97-.24,2.44,0,4.19.64,5.26,1.93,1.07,1.29,1.6,3.06,1.6,5.33v8.03c0,.56.02,1.05.05,1.46.03.42.08.73.15.95.17.32.61.52,1.32.58l1.73.13v1.24c-.52-.03-1.08-.06-1.66-.09-.58-.03-1.16-.04-1.74-.04s-1.16.01-1.75.04c-.59.03-1.12.05-1.57.09v-11.81c0-1.76-.44-3.09-1.33-3.97-.89-.89-2.04-1.33-3.47-1.33-.64,0-1.27.13-1.87.38-.6.25-1.15.57-1.64.95-.49.38-.88.8-1.17,1.27-.29.47-.43.91-.43,1.33v8.81Z"/>
    <path class="c" d="M414.88,86.75l-.3-2.54c-.12-.22-.33-.44-.65-.67-.31-.23-.69-.43-1.12-.61-.43-.18-.88-.32-1.33-.43s-.87-.17-1.24-.17c-.71,0-1.43.1-2.15.29s-1.37.55-1.94,1.05-1.05,1.2-1.42,2.07c-.37.87-.56,1.99-.56,3.36,0,1.64.22,3.04.66,4.2.44,1.16,1.02,2.11,1.73,2.86.71.75,1.54,1.29,2.49,1.64.95.35,1.92.52,2.92.52.69,0,1.42-.11,2.18-.32s1.45-.5,2.06-.88l.43.64-.89,1.32c-.08.12-.28.25-.6.41-.31.15-.73.3-1.24.46-.52.15-1.12.28-1.8.39s-1.4.17-2.15.17c-1.24,0-2.43-.21-3.57-.62-1.14-.42-2.15-1.03-3.02-1.85-.87-.82-1.57-1.83-2.08-3.02-.52-1.19-.77-2.57-.77-4.13,0-.96.11-1.86.32-2.68.21-.82.49-1.56.84-2.21.35-.65.74-1.22,1.17-1.7.43-.48.85-.88,1.26-1.18.47-.36,1.04-.71,1.69-1.08.65-.36,1.27-.66,1.84-.9.66-.29,1.32-.53,1.98-.71.66-.19,1.34-.28,2.03-.28,1.22,0,2.22.17,3.01.5.79.33,1.45.66,1.99.98-.17.64-.31,1.43-.43,2.35-.12.92-.18,1.85-.18,2.78h-1.14Z"/>
    <path class="c" d="M435.2,83.96c.17-.42.25-.75.25-.99,0-.39-.15-.66-.46-.81s-.74-.26-1.29-.33l-1.07-.08v-1.17c.66.03,1.32.06,1.97.09.65.03,1.32.04,1.99.04s1.32-.01,1.97-.04c.65-.03,1.31-.05,1.97-.09v1.17l-1.17.08c-.49.07-.99.47-1.51,1.19-.52.73-1.17,2.01-1.97,3.83l-8.46,19.48c-.34.74-.69,1.44-1.07,2.08-.37.64-.8,1.18-1.28,1.62-.48.44-1.05.79-1.7,1.04-.65.25-1.41.38-2.27.38-.36,0-.73-.07-1.13-.22-.4-.14-.72-.28-.95-.42l.99-3.12h.56c.25.25.58.48.98.67.4.19.75.29,1.05.29h.1c.61-.03,1.15-.25,1.61-.65.47-.4.88-.88,1.23-1.43.36-.56.67-1.14.95-1.75s.52-1.15.72-1.62l.97-2.54-6.88-16.79c-.34-.81-.67-1.34-.98-1.59-.31-.25-.71-.4-1.18-.47l-.74-.08v-1.17c.8.03,1.6.06,2.4.09s1.61.04,2.43.04,1.62-.01,2.41-.04c.8-.03,1.6-.05,2.41-.09v1.17l-1.57.08c-.41.03-.74.12-1,.25-.26.14-.39.42-.39.84,0,.22.03.46.09.71.06.25.16.56.29.91l4.77,11.56,4.95-12.14Z"/>
  </g>
</svg>