<?xml version="1.0" encoding="UTF-8"?>
<svg id="a" data-name="Layer_1" xmlns="http://www.w3.org/2000/svg" width="1259.01" height="740.82" viewBox="0 0 1259.01 740.82">
  <defs>
    <style>
      .b {
        fill: #e4a649;
      }

      .c {
        fill: #efc04c;
      }

      .d {
        fill: #83c6e2;
      }

      .e {
        fill: #e19644;
      }

      .f {
        fill: #e7ae49;
      }

      .g {
        fill: #fbe562;
      }

      .h {
        fill: #1b69a2;
      }

      .i {
        fill: #28add9;
      }

      .j {
        fill: #f7f7f6;
      }

      .k {
        fill: #fdeb7e;
      }

      .l {
        fill: #d6763c;
      }

      .m {
        fill: #10a3d5;
      }

      .n {
        fill: #108ac0;
      }

      .o {
        fill: #f5ce51;
      }

      .p {
        fill: #1f1f1f;
      }

      .q {
        fill: #fbfdfe;
      }

      .r {
        fill: #2a2a2a;
      }

      .s {
        fill: #222;
      }

      .t {
        fill: #c4e3ef;
      }

      .u {
        fill: #a9d5e8;
      }

      .v {
        fill: #e3a04b;
      }

      .w {
        fill: #ebb84b;
      }

      .x {
        fill: #6bbedf;
      }

      .y {
        fill: #df9045;
      }

      .z {
        fill: #1e1d1d;
      }

      .aa {
        fill: #1476ad;
      }

      .ab {
        fill: #e9b153;
      }

      .ac {
        fill: #eec058;
      }

      .ad {
        fill: #f0efef;
      }
    </style>
  </defs>
  <path class="n" d="M0,319.86c2.84,11.33,5.45,25.26,9.84,38.6,15.26,46.38,44.81,80.28,90.42,98.75,60.75,24.61,131.6,7.73,172.39-48.83,17-23.57,26.64-50.14,32.06-78.44.16-.81.28-1.63.48-2.44.08-.31.31-.58.89-1.59v414.91H0v-420.97ZM261.79,604.13c4.06-3.08,7.97-5.64,11.42-8.72,12.94-11.56,17.59-26.73,18.13-43.45.39-12.1-.94-24.06-6.57-35-9.69-18.83-25.87-27.95-46.53-28.52-23.82-.65-47.66-.27-71.49-.31-1.12,0-2.24.23-3.61.38v176.51h39.73c0-13.9,0-27.38,0-40.87,0-12.6,0-12.45,12.42-12.67,3.84-.07,5.95,1.06,7.77,4.54,8.05,15.34,16.5,30.47,24.63,45.77,1.45,2.74,3.14,3.77,6.22,3.7,8.5-.19,17-.07,25.5-.07,5.22,0,10.45,0,16.55,0-11.69-20.98-22.86-41.02-34.16-61.31ZM17.13,664.89c.74.22,1.2.49,1.66.49,20.65-.04,41.36.86,61.94-.4,25.16-1.53,45.79-12.74,59.22-34.68,16.57-27.05,18.31-56.29,9.98-86.18-9.56-34.31-36.77-55.04-72.31-55.79-18.98-.4-37.97-.17-56.96-.2-1.11,0-2.22.26-3.54.42v176.34Z"/>
  <path class="z" d="M637.81,476.36h36.92v13.71c.34.29.67.58,1.01.86,8.3-9.93,17.63-17.86,31.35-17.47,13.44.39,23.51,6.33,30.14,18.15,4.46-3.81,8.53-8.01,13.27-11.2,13.15-8.85,27.11-9.1,41.18-2.34,7.81,3.75,12.38,10.59,14.94,18.58,1.51,4.71,2.74,9.75,2.79,14.66.26,27.14.13,54.28.13,81.75h-37.59c0-1.51,0-3.1,0-4.69.01-19.83.09-39.67-.03-59.5-.02-3.1-.56-6.34-1.57-9.26-2.22-6.42-6.45-9.3-12.68-9.33-6.45-.03-11.8,3.36-13.76,9.56-1.13,3.58-1.58,7.51-1.61,11.29-.16,18.83-.07,37.67-.07,56.5v5.58h-37.31c-.09-1.46-.25-2.89-.25-4.32,0-19.83.09-39.67-.07-59.5-.03-3.42-.79-6.94-1.84-10.21-1.89-5.9-6.28-8.8-12.47-8.88-6.3-.08-11.47,3.14-13.46,9.17-1.18,3.57-1.75,7.49-1.78,11.26-.17,19-.08,38-.08,57v5.51h-37.16v-116.87Z"/>
  <path class="z" d="M1221.48,489.2v-12.58h37.27c.07,1.45.21,2.9.21,4.36.02,28.99.13,57.97-.03,86.96-.08,14.12-1.9,27.91-10.34,39.95-7.87,11.22-19.08,17.02-32.15,19.11-23.46,3.75-46.11.85-67.59-9.72-.89-.44-1.75-.96-2.59-1.49-.26-.17-.41-.5-.95-1.2,3.75-8.54,7.6-17.31,11.23-25.59,8.8,3.03,17.04,6.67,25.66,8.57,6.35,1.4,13.31,1.32,19.82.49,14.07-1.79,22.21-14.91,19.66-31.04-.75.56-1.44.9-1.89,1.44-21.16,25.41-59.23,15.32-71.31-11.15-10.01-21.92-9.25-43.68,3.78-64.37,13.01-20.66,45.23-27.41,65.05-7.51,1.11,1.11,2.33,2.11,4.19,3.77ZM1178.67,528.67c0,13.37,8.97,22.66,21.92,22.67,12.7,0,21.71-9.53,21.69-22.99-.01-13.04-9.06-22.66-21.44-22.8-12.8-.15-22.15,9.62-22.16,23.12Z"/>
  <path class="z" d="M866.25,435.5v54.4c.51.38,1.03.76,1.54,1.13.6-1.15,1.04-2.43,1.84-3.42,16.8-20.72,45.44-17.19,61.03,1.11,20.55,24.13,20.49,68.24-.13,92.44-16.68,19.58-45.8,19.56-60.72,1.92-.74-.87-1.37-1.84-3.17-2.33v12.32h-37.6v-157.58h37.22ZM908.86,534.86c.64-6.71-1.54-12.71-5.31-18.23-6.3-9.19-18.7-11.32-27.75-4.82-13.78,9.9-13.7,36.3.14,46.1,9.08,6.42,21.51,4.16,27.72-5.08,3.63-5.39,5.76-11.25,5.19-17.97Z"/>
  <path class="p" d="M361.11,549.53v43.63h-37.98v-151.19c1.23-.16,2.34-.43,3.43-.42,20.97.19,41.97-.16,62.91.77,32.85,1.45,53.18,25.88,49.8,58.74-2.95,28.68-21.94,46.88-50.91,48.4-8.77.46-17.59.07-27.25.07ZM361.12,517.61c9.07-.49,17.6-.2,25.85-1.58,9.62-1.6,14.87-10.04,14.21-20.51-.66-10.46-6.45-17.02-16.37-18.23-3.79-.46-7.63-.59-11.45-.61-12.24-.07-12.24-.03-12.24,12.16,0,9.27,0,18.54,0,28.77Z"/>
  <path class="p" d="M616.99,593.24h-37.21v-13.97c-3.43,3.09-6.4,5.86-9.48,8.5-19.15,16.46-48.3,8.23-55.74-15.91-1.55-5.03-2.62-10.43-2.67-15.68-.28-25.65-.14-51.31-.13-76.97,0-.8.12-1.6.21-2.71h37.44c0,2,0,3.79,0,5.57,0,18.66-.06,37.32.05,55.98.02,3.47.26,7.03,1.1,10.37,1.8,7.09,6.78,10.82,13.68,10.89,6.67.06,12.31-3.88,14.15-10.5.92-3.32,1.26-6.89,1.28-10.35.11-20.48.06-40.95.06-61.86h37.28v116.63Z"/>
  <path class="p" d="M1126.58,593.14h-37.62c0-8.72,0-17.17,0-25.63,0-12.33.07-24.65-.05-36.98-.03-3.14-.3-6.35-1.07-9.38-1.75-6.87-6.61-10.69-13.18-10.85-6.92-.17-12.8,3.81-14.65,10.52-.91,3.32-1.22,6.89-1.24,10.35-.11,20.48-.05,40.96-.05,61.84h-37.44v-116.54h37.27v15.6c2.52-2.85,4.15-4.73,5.83-6.57,12.57-13.75,32.75-16.17,47.51-5.3,10.51,7.75,14.31,19.29,14.54,31.57.52,26.96.16,53.93.16,81.37Z"/>
  <path class="z" d="M454.52,435.41h36.99v157.69h-36.99v-157.69Z"/>
  <path class="s" d="M352.68,610.81v27.5h26.98v-27.46h24.55v79.77h-24.32v-31.85h-27.07v31.68h-24.82v-79.63h24.68Z"/>
  <path class="p" d="M963.04,476.4h37.03v116.68h-37.03v-116.68Z"/>
  <path class="s" d="M918.17,670.56c3.72,2.56,7.51,5.17,11.68,8.04-3.49,4.04-6.7,8.03-10.26,11.68-.75.76-3.37.95-4.1.28-6.67-6.08-12.94-5.05-20.9-1.58-10.33,4.51-21.79,4.34-32.88,1.57-9.95-2.48-17.48-9.99-18.25-18.26-.98-10.48,3.96-17.87,12.83-22.94,2.01-1.15,4.08-2.2,6.23-3.35-1.69-2.68-3.47-5.09-4.82-7.72-5.74-11.18-1.11-23.02,10.79-27.05,8.92-3.02,18.08-2.96,26.97.09,13.76,4.73,16.65,20.17,5.68,29.75-2.84,2.49-6.03,4.59-9.64,7.3,4.02,3.58,7.78,6.93,11.95,10.64,1.22-2.53,2.14-4.44,3.38-7,5.42,1.16,11,2.36,17.37,3.72-2.03,5.01-3.88,9.55-6.01,14.82ZM872.74,657.36c-3.94,3.05-8.64,5.98-7.06,11.48.91,3.16,4.03,6.82,7.04,8.02,6.31,2.52,12.49.49,18.05-3.71-6.15-5.38-11.98-10.48-18.04-15.79ZM889.84,627.25c-.12-3.69-3.25-6.1-7.68-5.92-4.1.17-8.22,3.48-7.1,6.52,1.27,3.45,3.55,7.1,6.45,9.18,1.95,1.4,8.44-6.43,8.33-9.78Z"/>
  <path class="m" d="M123.53,288.35c6.66-10.04,13.32-20.08,19.98-30.11.39-.58.78-1.17,1.17-1.75,0,0,.15-.2.15-.2.26-.33.52-.65.77-.98,0,0,.03-.04.03-.04,3.32-.33,6.64-.67,9.96-1-.04,2-.09,4-.13,6-.29,1.88-.95,3.79-.8,5.63.43,5.17,1.2,10.31,1.84,15.46-.48,2.24-2.03,4.96-1.26,6.62,3.06,6.61,6.83,12.88,10.35,19.27-2.18-1.01-4.98-1.49-6.41-3.15-2.84-3.28-4.92-7.22-7.31-10.88-.12-.31-.22-.63-.28-.95-.25-.99-.49-1.97-.74-2.96-.09-.68-.18-1.36-.27-2.04l-.23-.94c-.8-8.16-1.61-16.33-2.52-25.55-1.36,2.31-2.3,3.9-3.23,5.49-.14.04-.31.05-.42.13-.07.05-.06.21-.08.32.16-.16.32-.32.48-.48.3,2.21.85,4.41.86,6.62.05,8.36,1.39,16.34,6.15,23.45,1.8,3.41,3.59,6.82,5.83,11.08-2.57.79-5.32,1.48-7.95,2.47-19.87,7.51-33.6,28.98-29.04,50.27,3.95,18.46,15.21,28.94,32.46,34.39,7.73,2.45,15.3,1.84,22.99-.07,1.41-.35,3.14.56,4.72.89-16.96,14.09-35.59,15.64-55.65,6.9,10.85,10.41,23.65,12.84,37.55,10.33,12.68-2.29,21.95-9.85,29.05-20.33.31-.48.61-.95.92-1.43.75-1.85,1.51-3.71,2.26-5.56.24-.38.49-.77.73-1.15,0,0-.09-.03-.09-.03,1.73-1.26,3.48-2.5,5.19-3.79,1.73-1.31,3.43-2.66,5.14-3.99l-1.2,7.91c-4.2,8.31-8.89,16.21-16.37,22.14-21.31,16.88-42.6,14.56-62.42,2.36-10.19-6.27-15.44-16.43-19.07-27.5-2.93-15-2.89-30.01-.01-45.02.65-1.14,1.46-2.21,1.94-3.42,5.34-13.44,10.68-26.89,15.84-40.4.41-1.07-.55-2.67-.87-4.02Z"/>
  <path class="s" d="M769.63,640.2c.18-2.77.32-4.89.47-7.27h20.68c0,1.89,0,3.65,0,5.42,0,16.32-.01,32.64,0,48.97.02,16.04-6.44,24.51-22.39,26.23-9.07.98-18.62.15-27.63-1.59-9.11-1.76-13.17-9.48-11.97-19.61,6.67.72,13.36,1.41,20.04,2.24.63.08,1.29.98,1.68,1.65,2.84,4.86,7.37,4.75,11.88,3.71,4.77-1.1,5.59-5.3,5.98-9.37.26-2.78.05-5.6.05-9.34-1.82,1.25-2.85,1.92-3.84,2.65-11.62,8.59-27.47,4.93-34.09-7.87-5.15-9.95-5.19-20.32-1.43-30.52,5.07-13.79,23.89-18.74,35.54-9.73,1.55,1.2,2.96,2.6,5.03,4.44ZM748.82,660.47c-.05,9.84,6.37,15.39,13.91,11.81,5.09-2.42,5.93-7.25,5.86-12.28-.09-5.7-2.85-10.28-6.9-11.7-7.44-2.61-12.81,2.47-12.86,12.16Z"/>
  <path class="s" d="M1058.72,690.89c-7.71,0-15.19.18-22.65-.17-1.25-.06-2.99-2.21-3.5-3.73-3.19-9.42-3.1-9.45-13.03-9.45-4.33,0-8.7.34-12.99-.1-4.27-.43-5.77,1.4-6.75,5.24-2.11,8.27-2.3,8.22-10.7,8.22h-16.42c.35-1.49.49-2.58.86-3.58,9.11-24.32,18.29-48.61,27.3-72.97,1.11-3.01,2.61-4.05,5.78-3.93,6.49.25,13-.07,19.49.19,1.42.06,3.59,1.25,4.04,2.44,9.68,25.33,19.16,50.73,28.66,76.13.1.27-.02.62-.09,1.72ZM1016.01,632.88c-.32.05-.65.1-.97.15-2.71,8.94-5.41,17.87-8.2,27.07h17.56c-2.87-9.32-5.63-18.27-8.39-27.21Z"/>
  <path class="s" d="M535.63,651.54c-2.43-2.67-3.8-5.52-5.87-6.18-4.51-1.43-9.83-1.54-12.8,2.74-2.36,3.39-4.77,3.32-7.98,2.9-4.93-.65-9.89-1.15-14.82-1.72.59-9.34,7.64-16.11,18.43-16.86,8.26-.58,16.62-.6,24.88-.03,11.48.79,18,8.12,18.33,19.73.18,6.16-.1,12.34.1,18.5.21,6.56.74,13.11,1.16,20.27-5.33,0-11.47.41-17.49-.25-1.82-.2-3.31-3.35-5.28-5.5-7.81,6.5-17.54,8.22-27.99,6.37-8.31-1.47-14.2-7.57-14.59-14.81-.46-8.39,3.68-14.35,12.53-16.88,7.35-2.1,14.9-3.47,22.33-5.29,2.54-.62,4.98-1.62,9.06-2.98ZM533.38,663.45c-5.31,1.76-10.75,3.14-15.76,5.44-1.72.79-3.65,4.18-3.23,5.81.5,1.95,3.22,4.29,5.31,4.7,9.48,1.85,15.87-5.53,13.68-15.95Z"/>
  <path class="s" d="M715.78,690.56h-22.05c0-10.98.08-21.62-.03-32.26-.07-6.93-3.51-10.32-9.41-8.9-2.1.51-4.5,2.38-5.49,4.29-1.31,2.53-1.83,5.7-1.9,8.61-.22,9.31-.08,18.63-.08,28.28h-21.84v-57.61h20.04c.19,2.26.39,4.66.67,7.91,1.41-1.14,2.51-1.92,3.48-2.84,4.71-4.45,10.34-6.51,16.77-6.65,11.32-.24,19.19,6.09,19.7,17.41.63,13.77.15,27.6.15,41.76Z"/>
  <path class="s" d="M483.67,667.4h-43.84c-.03,4.66,1.7,8.07,5.46,10.19,4.12,2.32,8.82,2.39,12.2-.65,3.21-2.89,6.38-2.95,10.03-2.59,4.79.47,9.57.93,14.38,1.39-1.84,7.56-10.82,14.59-20.57,15.57-5.76.58-11.61.44-17.42.31-18.88-.42-29.16-17.29-26.83-34.24,1.91-13.97,11.02-23.5,25.06-25.14,6.67-.78,13.73-.69,20.3.62,15.16,3.01,23.72,17.22,21.24,34.54ZM439.82,656.27h21.52c-.91-7.89-4.46-11.7-10.63-11.67-6.09.03-9.89,3.96-10.89,11.67Z"/>
  <path class="y" d="M95.17,376.28c6.12,23.06,20.04,39.64,41.73,49.48,21.68,9.83,43.13,8.53,64.27-2.46-6.63,6.78-14.73,10.62-23.33,13.15-36.13,10.64-69.02,2.75-99.34-18.29-9.76-6.77-18.4-14.8-25.02-24.8.41-.74.82-1.49,1.22-2.23,8.85,10.53,18.84,19.68,31.27,25.91-3.04-4.29-6.67-7.97-10.02-11.89-9.6-11.22-17.28-23.56-21.46-37.87,5.34.99,10.66,2.12,16.03,2.89,2.65.38,5.4.08,8.11.09.79,1.61,1.68,3.18,2.36,4.84,5.89,14.51,13.75,27.59,26.77,36.93,1.59,1.14,3.29,2.13,4.94,3.19.25-.31.51-.62.76-.94-13.09-10.82-20.42-25.05-24.8-41.03,2.17,1.01,4.35,2.02,6.52,3.03Z"/>
  <path class="s" d="M571.88,649.25c-2.92-.16-5.2-.28-7.8-.43v-15.97c2.38-.12,4.8-.24,7.14-.36.25-.41.61-.73.57-.96-1.56-7.79,2.35-11.75,9.25-14.26,4.29-1.56,8.23-4.09,13.14-6.6v21.9h12.13v16.32h-11.82c0,8.14-.08,15.73.04,23.31.05,3.14,2.15,4.33,5.09,4.05,1.8-.17,3.58-.57,6.08-.99.54,5,1.07,9.84,1.61,14.88-8.29,2.19-16.37,2.81-24.44.99-4.82-1.09-8.69-4.09-9.38-9.23-.92-6.88-1.19-13.85-1.57-20.8-.2-3.79-.04-7.6-.04-11.87Z"/>
  <path class="f" d="M150.74,156.8l.16.21s-.15.22-.15.22c-.28.72-.56,1.44-.83,2.16-3.42,7.97-6.84,15.94-10.26,23.91-1.06-1.76-2.11-3.53-3.34-5.57-14.18,13.54-20.4,32.35-30.74,48.52-11.62.5-21.95-5-33.02-7.07,1.81-3.64,3.25-7.52,5.49-10.86,7.7-11.46,15.67-22.72,23.54-34.06,4.46-2.18,8.8-1.57,13.3.14,3.67,1.39,7.53,2.31,11.38,3.16,1.24.27,3.15.14,3.95-.64,2.58-2.52,5.24-5.15,7.04-8.22,3.77-6.42,6.95-13.17,10.5-19.72.92-1.71,2.3-3.17,3.47-4.75.34.2.67.39,1.01.59-.5,4-.99,7.99-1.49,11.99Z"/>
  <path class="y" d="M189.59,183.25c.22-.71.43-1.42.65-2.13.12-.29.25-.59.37-.88,4.17-13.45,11.61-25.02,20.45-35.74-2.44,8.05-5.43,15.98-7.21,24.18-4.61,21.33-1.04,41.84,8.92,60.93,6.43,12.33,14.46,23.82,21.78,35.69.29.34.59.68.88,1.02,0,0,.05.07.05.07.43.58.86,1.16,1.3,1.73,0,0-.04-.06-.04-.06.65.7,1.3,1.41,1.96,2.11,0,0-.04-.03-.04-.03.93,2.43,1.42,5.18,2.87,7.24,12.18,17.3,21.64,35.83,24.86,56.93,2.55,16.71,2.74,33.43-4.43,49.35-2.36,5.24-4.92,10.38-7.39,15.57,0,0,0,0,0,0-.93,1.08-1.85,2.16-2.78,3.24,0,0,.02-.07.02-.07-.75.95-1.49,1.91-2.24,2.86,0,0,.01-.02.01-.02-2,2.01-4,4.01-6,6.02,0,0,.02-.02.02-.02-.36.33-.71.66-1.07.99,0,0,.03-.02.03-.02-.64.41-1.27.81-1.91,1.22,0,0,.09-.04.09-.04-.72.63-1.45,1.27-2.17,1.9,0,0,.03-.03.03-.03-1.87.49-3.75.99-5.62,1.48,12.29-13.02,20.24-27.86,22.63-45.49.66-3.98,1.85-7.97,1.86-11.95.02-8.68-.57-17.37-.92-26.05-2.5-18.43-8.92-35.4-19-51-.38-.9-.66-1.86-1.15-2.68-8.94-14.78-17.91-29.54-26.87-44.3-5.96-12.53-10.24-25.48-11.05-39.49-.59-10.37-.8-10.36-8.93-12.53Z"/>
  <path class="o" d="M255.64,371.26c-2.39,17.64-10.34,32.47-22.63,45.49,1.87-.49,3.75-.99,5.62-1.48-7.72,4.44-15.17,9.47-23.23,13.14-6.59,3-13.9,4.41-20.91,6.45-.66.19-1.47-.15-3.17-.36,4.28-2.39,7.83-4.16,11.16-6.29,17.17-10.98,23.06-28.06,25.08-47.11.42-3.96.28-7.98.4-11.97-.04-.93-.07-1.87-.11-2.8-.04-.72-.07-1.44-.11-2.17-.2-1.63-.4-3.26-.6-4.89-.12-1.37-.24-2.74-.36-4.1-.21-.97-.43-1.93-.64-2.9-.12-1.03-.24-2.07-.36-3.1-.39-4.99-.78-9.97-1.17-14.96,2.68-.32,5.35-.63,8.03-.95,1.65,8.98,4.03,17.91,4.69,26.97.44,6.07,3.45,8.1,8.36,9.02,3.33.62,6.63,1.34,9.95,2.01Z"/>
  <path class="s" d="M1103.89,690.64v-57.67h20.31c.2,2.1.39,4.16.71,7.56,6.5-10.04,14.49-11.22,24.41-5.92-2.18,5.08-4.3,10.04-6.33,14.79-.6.25-.92.53-1.18.48-10-2.03-13.98.57-14.94,10.82-.75,8.09-.65,16.26-.9,24.39-.06,1.79,0,3.58,0,5.55h-22.07Z"/>
  <path class="w" d="M150.74,156.8c.5-4,.99-7.99,1.49-11.99-.34-.2-.67-.39-1.01-.59-1.17,1.58-2.55,3.04-3.47,4.75-3.55,6.55-6.73,13.3-10.5,19.72-1.8,3.07-4.46,5.71-7.04,8.22-.8.78-2.71.91-3.95.64-3.84-.85-7.71-1.77-11.38-3.16-4.5-1.7-8.84-2.32-13.3-.14,2.67-4.66,5.34-9.33,8.01-13.99.67-.4,1.57-.65,1.98-1.23,4.27-6.05,8.87-11.92,12.58-18.3,4.22-7.25,7.64-14.97,11.41-22.49,1.91.47,3.83.87,5.72,1.41,5.66,1.61,11.35,6.86,16.34-.63,1.69,1.36,2.88,2.31,4.07,3.26-3.66,11.51-7.32,23.01-10.98,34.52Z"/>
  <path class="r" d="M640.1,633.04v57.58h-21.8v-57.58h21.8Z"/>
  <path class="s" d="M1067.06,632.89h21.67v57.61h-21.67v-57.61Z"/>
  <path class="z" d="M1000.72,465.26h-38.48v-29.67h38.48v29.67Z"/>
  <path class="c" d="M161.72,122.28c-1.19-.95-2.38-1.9-4.07-3.26-4.99,7.49-10.69,2.24-16.34.63-1.89-.54-3.81-.94-5.72-1.41,2.33-6.33,4.66-12.67,6.99-19,3.02-11.83,5.23-23.77,5.07-36.04,4.3,4.64,9.39,7.5,15.94,7.04,2.69,16.48,2.52,32.91-.92,49.27-.2.95-.63,1.85-.95,2.78Z"/>
  <path class="ac" d="M142.58,99.24c-2.33,6.33-4.66,12.67-6.99,19-3.77,7.52-7.19,15.24-11.41,22.49-3.72,6.38-8.31,12.25-12.58,18.3-.41.59-1.31.83-1.98,1.23-2.34.32-4.69.65-7.03.97,1.86-3.41,3.64-6.88,5.62-10.22,1.2-2.03,1.58-3.61-1.08-4.61,7.11-13.14,14.75-26.03,21.2-39.49,9.62-20.06,14.29-41.44,14.16-63.75-.03-5.31-.54-10.62-.83-15.93.65,3.69,1.75,7.37,1.88,11.08.65,19.13.15,38.18-5.65,56.69-.46,1.46-.06,3.18-.06,5.16,1.93-.37,3.35-.65,4.77-.92Z"/>
  <path class="ab" d="M107.1,146.4c2.66,1,2.28,2.58,1.08,4.61-1.98,3.34-3.76,6.8-5.62,10.22,0,0,0,0,0,0-.66.67-1.32,1.34-1.98,2.01-.76.84-1.62,1.61-2.25,2.54-7.57,11.26-15.28,22.44-22.6,33.87-5.34,8.34-10.14,17.02-15.19,25.55-.49.44-1.15.79-1.44,1.34-10.07,19.16-18.65,38.93-23.05,60.22-1.73,8.39-2.25,17.03-3.32,25.55-.97,18.76.42,37.29,8.14,54.62,3.76,8.44,9.17,16.15,13.84,24.18-.41.74-.82,1.49-1.22,2.23-11.15-12.98-17.33-28.34-20.62-44.84-5.03-25.18-2.3-50.11,4.13-74.67,8.04-30.72,20.84-59.33,39.6-85.1,7.56-10.39,15.29-20.65,22.92-30.98.58-.78.97-1.7,1.45-2.56.22-.24.44-.48.66-.72.54-.79,1.08-1.58,1.62-2.37.15-.16.28-.33.39-.51.54-.83,1.08-1.66,1.61-2.49.15-.16.28-.33.39-.51l1.47-2.19Z"/>
  <path class="v" d="M105.57,226.25c10.34-16.16,16.56-34.98,30.74-48.52,1.23,2.05,2.28,3.81,3.34,5.57-7.96,17.26-16.06,34.46-23.86,51.79-11.43,25.39-20.35,51.59-24.87,79.16-1.45-1-2.9-2-4.36-3,.66-3.65,1.32-7.31,1.98-10.96,2.89-9.47,5.76-18.96,8.68-28.42,1.41-4.55,2.91-9.07,4.37-13.61.64-.72,1.48-1.35,1.88-2.19,3.09-6.59,6.26-13.16,9.04-19.88,1.26-3.06,1.71-6.45,2.52-9.69-3.15-.08-6.29-.17-9.44-.25,0,0-.02,0-.02,0Z"/>
  <path class="v" d="M189.59,183.25c8.12,2.17,8.33,2.16,8.93,12.53.8,14.01,5.09,26.96,11.05,39.49-5.99-.68-11.97-1.36-17.96-2.04-.66-2.33-1.32-4.65-1.98-6.98v-9.4c-.74.06-1.47.12-2.21.17l1.2,8.23c0,2,0,3.99,0,5.99-.7-1.33-1.4-2.65-2.1-3.98,0,0,.02.05.02.05.03-.35-.07-.65-.29-.92-.1-.75-.2-1.5-.3-2.25-.15-1.3-.31-2.6-.46-3.9-.19-.21-.2-.43-.04-.67-.1-.41-.21-.81-.31-1.21-.05-1.39-.11-2.78-.16-4.17.08-.09.25-.2.24-.27-.05-.21-.17-.41-.27-.61.02-2.05.03-4.1.05-6.15.03-.6.05-1.19.08-1.79,1.51-7.38,3.01-14.75,4.52-22.13Z"/>
  <path class="h" d="M106.64,381.21c3.63,11.06,8.89,21.23,19.07,27.5,19.83,12.2,41.12,14.52,62.42-2.36,7.48-5.93,12.17-13.83,16.37-22.14,1.39.75,2.77,1.49,4.16,2.24.11.32.02.59-.25.8-.28.67-.56,1.33-.84,2-12.83,33.3-56.32,45.27-84.5,23.12-3.58-2.81-6.4-6.58-9.57-9.91-.52-.75-1.04-1.5-1.56-2.25-.43-.71-.86-1.41-1.29-2.12-.35-.61-.69-1.21-1.04-1.82-.35-.65-.7-1.29-1.05-1.94-.19-.35-.39-.7-.58-1.04-.14-.33-.27-.65-.41-.98-.3-.68-.6-1.36-.9-2.04,0,0-.05-.11-.05-.11,0-2.98,0-5.96.01-8.95Z"/>
  <path class="o" d="M163.59,70.24c-6.55.46-11.64-2.4-15.94-7.04-.7-11.34-.86-22.75-2.28-34.01-1.03-8.14-3.72-16.08-5.67-24.1,4.21,8.19,9.4,16.05,12.41,24.66,4.61,13.22,7.73,26.96,11.48,40.48Z"/>
  <path class="g" d="M232.64,333.27c-2.68.32-5.35.63-8.03.95-2.66-8.62-4.98-17.36-8.09-25.82-2.53-6.89-6.01-13.43-9.08-20.12,0,0,.06.09.06.09-.32-.71-.64-1.42-.96-2.13-1.01-2.56-2.01-5.13-3.02-7.69-.61-1.44-1.21-2.88-1.82-4.31,0,0-.06-.11-.06-.11-.29-.61-.58-1.22-.87-1.83-.22-.22-.3-.48-.25-.79-.65-2.42-1.3-4.83-1.95-7.25,1.68,0,3.35,0,5.03-.01,2.61,4.69,5.23,9.39,7.84,14.08.58,1.7,1.02,3.47,1.75,5.1,4.73,10.55,9.6,21.04,14.25,31.62,1.9,4.32,3.38,8.83,5.05,13.25.05,1.65.09,3.31.14,4.96Z"/>
  <path class="ac" d="M254.57,399.25c2.47-5.19,5.03-10.33,7.39-15.57,7.17-15.92,6.99-32.64,4.43-49.35-3.22-21.1-12.68-39.63-24.86-56.93-1.45-2.06-1.94-4.81-2.87-7.24,12.2,11.43,19.95,25.68,25.32,41.23,9.4,27.22,9.95,54.17-3.93,80.29-1.45,2.73-3.63,5.06-5.47,7.58Z"/>
  <path class="n" d="M165.59,307.26c-3.51-6.4-7.29-12.67-10.35-19.27-.77-1.66.78-4.39,1.26-6.62.34.33.68.67,1.02,1,4.58,15.49,14.33,27.13,26.93,36.84,9.76,7.52,18.84,15.78,23.48,27.71.29.76.41,1.58.61,2.38-1.29.99-2.57,1.99-3.86,2.98-.71-1.25-1.38-2.52-2.12-3.75-2.65-4.43-5.32-8.85-7.98-13.28-5.65-5.33-11.3-10.66-16.96-15.99-4.01-4-8.03-8-12.04-12Z"/>
  <path class="ab" d="M139.7,5.1c1.95,8.03,4.64,15.96,5.67,24.1,1.42,11.25,1.58,22.66,2.28,34.01.16,12.27-2.05,24.21-5.07,36.04-1.42.27-2.84.55-4.77.92,0-1.98-.4-3.7.06-5.16,5.79-18.52,6.3-37.56,5.65-56.69-.13-3.71-1.23-7.39-1.88-11.08,0,0-.02-.06-.02-.06-.19-.29-.39-.58-.58-.87-1.8-8.6-3.6-17.19-5.39-25.79l1.25-.52c.59,1.31,1.17,2.63,1.76,3.94.35.42.7.84,1.06,1.25v-.1Z"/>
  <path class="r" d="M640.1,610.86v14.57h-21.8v-14.57h21.8Z"/>
  <path class="e" d="M86.57,311.26c1.45,1,2.9,2,4.36,3,.22,14.68.12,29.38.8,44.04.28,6.03,2.25,11.99,3.44,17.98-2.17-1.01-4.35-2.02-6.52-3.03-3.74-15.78-4.73-31.8-4-47.94.21-4.7,1.26-9.37,1.92-14.05Z"/>
  <path class="s" d="M1067.1,625.4v-14.61h21.72v14.61h-21.72Z"/>
  <path class="n" d="M123.53,288.35c.32,1.35,1.28,2.95.87,4.02-5.16,13.51-10.5,26.96-15.84,40.4-.48,1.2-1.28,2.28-1.94,3.42-.95.71-1.9,1.41-2.85,2.12,3.78-17.76,9.93-34.58,19.75-49.96Z"/>
  <path class="aa" d="M204.68,352.27c1.29-.99,2.57-1.99,3.86-2.98,0,0,.02.03.02.03.33.98.65,1.96.98,2.94,0,0,.02.06.02.06.35,1.31.69,2.62,1.04,3.93h0c.32,1.68.64,3.36.96,5.04.16.27.18.55.06.85,0,4.4,0,8.79-.01,13.19-.98,3.7-1.97,7.41-2.95,11.11-1.39-.75-2.77-1.49-4.16-2.24.4-2.64.8-5.27,1.19-7.91,1.96-8.11,1.41-16.11-1.02-24.03Z"/>
  <path class="ac" d="M207.45,288.28c3.06,6.69,6.54,13.23,9.08,20.12,3.11,8.45,5.43,17.2,8.09,25.82.39,4.99.78,9.97,1.17,14.96-4.23-14.81-8.39-29.64-12.74-44.42-1.64-5.56-3.71-10.99-5.59-16.47Z"/>
  <path class="aa" d="M103.78,338.31c.95-.71,1.9-1.41,2.85-2.12-2.88,15.01-2.92,30.01.01,45.02,0,2.98,0,5.96-.01,8.95-1.71-7.14-4.02-14.2-4.96-21.44-.79-6.02.02-12.26.13-18.4.32-1.36.63-2.72.95-4.08.02-.97.03-1.95.05-2.92.31-1.03.63-2.07.94-3.1.02-.64.03-1.27.05-1.91Z"/>
  <path class="o" d="M203.61,264.24c-1.68,0-3.35,0-5.03.01-.33,0-.66,0-.99-.02-.21-.14-.24-.32-.11-.54-.23-.5-.46-.99-.69-1.48,0,0-.15-.32-.15-.32s-.2-.36-.2-.36c-.26-.76-.52-1.53-.79-2.29-1.37-6.01-2.74-12.01-4.12-18.02-.02-1-.03-1.99-.05-2.99.36,0,.72,0,1.08,0,.16.64.24,1.32.5,1.91,3.5,8.03,7.02,16.06,10.54,24.08Z"/>
  <path class="i" d="M155.59,254.27c-3.32.33-6.64.67-9.96,1,3.42-4.96,6.84-9.93,10.27-14.89.43.12.85.24,1.28.35-.53,4.51-1.06,9.02-1.59,13.53Z"/>
  <path class="ac" d="M191.54,241.23c1.37,6.01,2.74,12.01,4.12,18.02-1.96-6-3.92-11.99-5.87-17.99.59,0,1.17-.02,1.76-.03Z"/>
  <path class="ab" d="M191.54,241.23c-.59,0-1.17.02-1.76.03-1.09-4.66-2.18-9.32-3.27-13.98.7,1.33,1.4,2.65,2.1,3.98.96,2.33,1.92,4.66,2.89,6.98.02,1,.03,1.99.05,2.99Z"/>
  <path class="i" d="M157.52,282.37c-.34-.33-.68-.67-1.02-1-.64-5.15-1.41-10.29-1.84-15.45-.15-1.84.51-3.75.8-5.63.69,7.36,1.38,14.72,2.07,22.09Z"/>
  <path class="ac" d="M243.6,411.27c2-2.01,4-4.01,6-6.02-2,2.01-4,4.01-6,6.02Z"/>
  <path class="n" d="M211.61,375.34c0-4.4,0-8.79.01-13.19,0,4.4,0,8.79-.01,13.19Z"/>
  <path class="ac" d="M227.14,359.28c.2,1.63.4,3.26.6,4.89-.2-1.63-.4-3.26-.6-4.89Z"/>
  <path class="ac" d="M197.6,264.24c.33,0,.66.01.99.02.65,2.42,1.3,4.83,1.95,7.25-.98-2.42-1.96-4.84-2.94-7.27Z"/>
  <path class="ac" d="M251.8,402.48c.93-1.08,1.85-2.16,2.78-3.24-.93,1.08-1.85,2.16-2.78,3.24Z"/>
  <path class="ac" d="M226.14,352.28c.21.97.43,1.93.64,2.9-.21-.97-.43-1.93-.64-2.9Z"/>
  <path class="n" d="M102.73,346.24c-.32,1.36-.63,2.72-.95,4.08.32-1.36.63-2.72.95-4.08Z"/>
  <path class="n" d="M211.56,361.3c-.32-1.68-.64-3.37-.96-5.05.32,1.68.64,3.37.96,5.05Z"/>
  <path class="n" d="M103.72,340.22c-.31,1.03-.63,2.06-.94,3.1.31-1.03.63-2.06.94-3.1Z"/>
  <path class="o" d="M201.72,274.24c.61,1.44,1.21,2.87,1.82,4.31-.61-1.44-1.21-2.87-1.82-4.31Z"/>
  <path class="n" d="M210.6,356.26c-.35-1.31-.69-2.62-1.04-3.93.35,1.31.69,2.62,1.04,3.93Z"/>
  <path class="w" d="M149.92,159.4c.28-.72.56-1.44.83-2.16-.28.72-.56,1.44-.83,2.16Z"/>
  <path class="ab" d="M185.48,220.25c.15,1.3.31,2.6.46,3.9-.15-1.3-.31-2.6-.46-3.9Z"/>
  <path class="ac" d="M249.59,405.27c.75-.95,1.49-1.91,2.24-2.86-.75.95-1.49,1.91-2.24,2.86Z"/>
  <path class="o" d="M238.6,415.3c.72-.63,1.45-1.27,2.17-1.9-.72.63-1.45,1.27-2.17,1.9Z"/>
  <path class="ac" d="M238.7,270.19c-.65-.7-1.3-1.41-1.96-2.11.65.7,1.3,1.41,1.96,2.11Z"/>
  <path class="ac" d="M227.85,366.34c.04.93.07,1.87.11,2.8-.04-.93-.07-1.87-.11-2.8Z"/>
  <path class="n" d="M209.53,352.26c-.33-.98-.65-1.96-.98-2.94.33.98.65,1.96.98,2.94Z"/>
  <path class="aa" d="M111.95,400.2c.52.75,1.04,1.5,1.56,2.25-.52-.75-1.04-1.5-1.56-2.25Z"/>
  <path class="ac" d="M236.78,268.14c-.43-.58-.86-1.16-1.3-1.73.43.58.86,1.16,1.3,1.73Z"/>
  <path class="ac" d="M200.79,272.3c.29.61.58,1.22.87,1.83-.29-.61-.58-1.22-.87-1.83Z"/>
  <path class="ac" d="M206.56,286.24c.32.71.64,1.42.96,2.13-.32-.71-.64-1.42-.96-2.13Z"/>
  <path class="i" d="M144.68,256.49c-.39.58-.78,1.17-1.17,1.75.39-.58.78-1.17,1.17-1.75Z"/>
  <path class="o" d="M240.68,413.44c.64-.41,1.27-.81,1.91-1.22-.64.41-1.27.81-1.91,1.22Z"/>
  <path class="aa" d="M109.61,396.27c.35.61.69,1.21,1.04,1.82-.35-.61-.69-1.21-1.04-1.82Z"/>
  <path class="aa" d="M106.67,390.26c.3.68.6,1.36.9,2.04-.3-.68-.6-1.36-.9-2.04Z"/>
  <path class="ab" d="M185.06,205.38c-.03.6-.05,1.19-.08,1.79.03-.6.05-1.19.08-1.79Z"/>
  <path class="aa" d="M207.57,389.25c.28-.67.56-1.33.84-2-.28.67-.56,1.33-.84,2Z"/>
  <path class="ac" d="M235.43,266.34c-.29-.34-.59-.68-.88-1.02.29.34.59.68.88,1.02Z"/>
  <path class="ac" d="M196.79,262.22c.23.49.46.99.69,1.48-.23-.49-.46-.99-.69-1.48Z"/>
  <polygon class="ac" points="196.44 261.55 196.64 261.9 196.33 261.8 196.44 261.55"/>
  <path class="i" d="M145.6,255.31c-.26.33-.52.65-.77.98.26-.33.52-.65.77-.98Z"/>
  <path class="o" d="M242.56,412.25c.36-.33.71-.66,1.07-.99-.36.33-.71.66-1.07.99Z"/>
  <path class="ab" d="M186.25,226.4c.22.27.31.58.29.92-.14-.19-.31-.37-.42-.58-.04-.07.08-.23.13-.34Z"/>
  <path class="aa" d="M107.98,393.28c.19.35.39.7.58,1.04-.19-.35-.39-.7-.58-1.04Z"/>
  <path class="ab" d="M185.13,218.36c.1.4.21.81.31,1.21-.15-.26-.32-.5-.43-.78-.04-.11.07-.29.12-.43Z"/>
  <path class="ab" d="M184.93,213.32c.09.2.21.4.27.61.02.07-.15.18-.24.27-.22-.28-.23-.58-.03-.88Z"/>
  <path class="v" d="M190.6,180.25c-.12.29-.24.59-.37.88.12-.29.24-.59.37-.88Z"/>
  <path class="ac" d="M101.63,154.48c-.22.24-.44.48-.66.72.22-.24.44-.48.66-.72Z"/>
  <path class="ac" d="M103.63,151.6c-.11.19-.24.36-.39.51,0,0,0-.38,0-.38l.39-.13Z"/>
  <path class="ac" d="M105.63,148.6c-.11.19-.24.36-.39.51,0,0,0-.38,0-.38l.39-.13Z"/>
  <path class="ac" d="M141.03,26.3c.19.29.39.58.58.87-.19-.29-.39-.58-.58-.87Z"/>
  <path class="o" d="M139.71,5.2c-.35-.42-.7-.84-1.06-1.25.35.42.7.84,1.06,1.25Z"/>
  <path class="q" d="M261.79,604.13c11.3,20.29,22.47,40.33,34.16,61.31-6.1,0-11.32,0-16.55,0-8.5,0-17-.13-25.5.07-3.08.07-4.76-.97-6.22-3.7-8.13-15.3-16.58-30.43-24.63-45.77-1.83-3.49-3.93-4.61-7.77-4.54-12.42.22-12.42.07-12.42,12.67,0,13.49,0,26.98,0,40.87h-39.73v-176.51c1.37-.15,2.49-.39,3.61-.38,23.83.04,47.68-.34,71.49.31,20.66.57,36.84,9.69,46.53,28.52,5.63,10.93,6.95,22.89,6.57,35-.54,16.72-5.19,31.89-18.13,43.45-3.45,3.08-7.36,5.64-11.42,8.72ZM202.89,573.11c10.55,0,20.39.47,30.16-.13,10.71-.65,17.81-8.85,18.13-19.61.38-13.13-5.12-20.94-17.09-22.21-9.39-1-18.94-.58-28.42-.55-.92,0-2.63,1.65-2.64,2.55-.17,13.12-.12,26.25-.12,39.96Z"/>
  <path class="q" d="M17.13,664.89v-176.34c1.32-.16,2.43-.42,3.54-.42,18.99.03,37.98-.2,56.96.2,35.54.75,62.75,21.48,72.31,55.79,8.33,29.89,6.59,59.14-9.98,86.18-13.44,21.93-34.07,33.14-59.22,34.68-20.58,1.26-41.29.36-61.94.4-.46,0-.92-.26-1.66-.49ZM56.88,576.64c0,13.65.1,27.3-.07,40.95-.05,3.54,1.14,4.74,4.6,4.53,3.81-.23,7.66.02,11.48-.08,19.43-.5,32.9-9.68,37.89-25.93,3.97-12.93,4.09-25.96-.14-38.81-4.35-13.19-13.51-21.82-27.13-24.54-7.09-1.41-14.57-.81-21.86-1.35-3.73-.28-4.9,1.03-4.84,4.78.2,13.48.08,26.97.08,40.45Z"/>
  <path class="i" d="M165.59,307.26c4.01,4,8.03,8,12.04,12-1.47-.21-3.01-.19-4.39-.66-9.88-3.39-19.36-1.42-27.62,3.88-16.62,10.66-19.74,29.17-11.78,46.31,5.12,11.02,14.75,15.41,27.01,16.91,12.97,1.59,22.13-2.93,30.07-12.16.57-.66,1.72-.83,2.6-1.23-.75,9.68-6.06,16.81-12.92,23.07-1.58-.33-3.31-1.25-4.72-.89-7.69,1.91-15.25,2.52-22.99.07-17.25-5.46-28.51-15.94-32.46-34.39-4.55-21.29,9.17-42.76,29.04-50.27,2.63-.99,5.37-1.68,7.95-2.47-2.24-4.25-4.04-7.67-5.83-11.08.09-1.03.19-2.06.28-3.09,2.39,3.66,4.47,7.6,7.31,10.88,1.43,1.66,4.23,2.14,6.41,3.15Z"/>
  <path class="j" d="M180.61,395.36c6.86-6.26,12.17-13.39,12.92-23.07.96-2.65,1.93-5.3,2.89-7.94-.35,6.58-.7,13.16-1.05,19.74,0,0,.09.03.09.03-.24.38-.49.77-.74,1.15-.75,1.85-1.51,3.71-2.26,5.57-.31.48-.61.95-.91,1.43-7.1,10.47-16.36,18.04-29.05,20.33-13.89,2.51-26.7.08-37.55-10.33,20.06,8.75,38.68,7.19,55.65-6.9Z"/>
  <path class="i" d="M195.37,384.08c.35-6.58.7-13.16,1.05-19.74.39-3.27,1.35-6.59,1.05-9.79-.6-6.47-1.88-12.87-2.89-19.31,2.66,4.43,5.33,8.85,7.98,13.28.74,1.23,1.41,2.5,2.12,3.75,2.42,7.92,2.98,15.92,1.02,24.03-1.71,1.33-3.4,2.69-5.14,4-1.71,1.29-3.46,2.53-5.19,3.79Z"/>
  <path class="t" d="M151.87,293.22c-.09,1.03-.19,2.06-.28,3.09-4.76-7.11-6.1-15.09-6.15-23.45-.01-2.21-.56-4.41-.86-6.62l.02.02c.94-1.59,1.87-3.18,3.23-5.49.91,9.23,1.71,17.39,2.52,25.55.01.33.09.64.23.94.09.68.18,1.36.27,2.04.24.99.49,1.97.74,2.96.07.33.16.64.28.95Z"/>
  <path class="i" d="M151.59,292.27c-.25-.99-.49-1.97-.74-2.96.25.99.49,1.97.74,2.96Z"/>
  <path class="t" d="M144.57,266.24c-.16.16-.32.32-.48.48.02-.11.01-.27.08-.32.11-.08.28-.09.42-.13,0,0-.02-.02-.02-.02Z"/>
  <path class="i" d="M150.58,287.27c-.14-.3-.22-.61-.23-.94.08.31.15.62.23.94Z"/>
  <path class="i" d="M191.55,392.26c.3-.48.61-.95.91-1.43-.3.47-.61.95-.91,1.43Z"/>
  <path class="i" d="M194.73,385.26c.25-.38.49-.77.74-1.15-.25.38-.49.77-.74,1.15Z"/>
  <path class="e" d="M78.63,370.26c-2.7,0-5.45.29-8.11-.09-5.37-.77-10.69-1.91-16.02-2.89-6.49-15.35-8.81-31.48-8.93-48.02,8.37,1.74,16.74,3.48,24.34,5.06,1.6-2.2,2.64-3.63,3.68-5.06.33,9.23.25,18.5,1.12,27.68.74,7.83,2.57,15.55,3.93,23.31Z"/>
  <path class="k" d="M45.56,319.25c.13,16.54,2.44,32.67,8.93,48.02,4.18,14.31,11.86,26.65,21.46,37.87,3.35,3.92,6.98,7.61,10.02,11.89-12.44-6.23-22.42-15.38-31.27-25.91-4.66-8.04-10.08-15.74-13.84-24.19-7.71-17.34-9.11-35.86-8.14-54.62,1.76.07,3.52.08,5.28.23,2.23.19,4.45.49,6.68.75.29,1.99.58,3.97.88,5.96Z"/>
  <path class="l" d="M78.63,370.26c-1.35-7.77-3.18-15.49-3.93-23.31-.87-9.18-.79-18.45-1.12-27.68,1-7,2-13.99,3-20.99,4.4-1.76,8.28-.49,11.96,2.02-.66,3.65-1.32,7.31-1.98,10.96-.66,4.68-1.71,9.35-1.92,14.05-.73,16.13.26,32.16,4,47.94,4.39,15.98,11.71,30.22,24.81,41.03-.25.31-.51.62-.76.94-1.65-1.06-3.35-2.05-4.94-3.19-13.02-9.33-20.88-22.41-26.77-36.93-.67-1.66-1.57-3.23-2.36-4.84Z"/>
  <path class="b" d="M72.56,219.18c11.07,2.08,21.4,7.58,33.02,7.07,0,0,.02,0,.02,0-1.24,2.49-2.49,4.99-3.73,7.48-3.76,7.51-7.52,15.01-11.27,22.52-2.34,5.33-4.68,10.66-7.02,16-3.86,2.54-7.65,1.08-11.75.37-7.03-1.21-13.61-5.52-21.15-3.36,1.58-5.55,2.77-11.24,4.83-16.6,3.42-8.89,7.41-17.57,11.16-26.34,1.97-2.38,3.93-4.77,5.9-7.15Z"/>
  <path class="o" d="M72.56,219.18c-1.97,2.38-3.93,4.77-5.9,7.15-1.33-4.26-4.07-.78-6.12-1.12,5.04-8.53,9.85-17.21,15.19-25.55,7.32-11.43,15.03-22.61,22.6-33.87.63-.93,1.49-1.7,2.25-2.54.66-.67,1.32-1.34,1.98-2.01,0,0,0,0,0,0,2.34-.32,4.69-.65,7.03-.97-2.67,4.66-5.34,9.33-8.01,13.99-7.87,11.34-15.85,22.61-23.54,34.06-2.24,3.34-3.68,7.23-5.49,10.86Z"/>
  <path class="w" d="M232.51,328.31c-1.67-4.42-3.15-8.93-5.05-13.25-4.65-10.58-9.52-21.07-14.25-31.62-.73-1.63-1.17-3.4-1.75-5.1,8.71,1.31,17.42,2.62,26.13,3.94,10.08,15.61,16.5,32.57,19,51-8.03-1.65-16.05-3.3-24.08-4.96Z"/>
  <path class="f" d="M237.58,282.26c-8.71-1.31-17.42-2.62-26.13-3.94-2.61-4.69-5.23-9.39-7.84-14.08-3.52-8.02-7.04-16.05-10.54-24.08-.26-.6-.34-1.27-.5-1.91-.32-1.67-.65-3.34-.97-5.02,5.99.68,11.97,1.36,17.96,2.04,8.96,14.76,17.93,29.53,26.87,44.3.5.83.77,1.79,1.15,2.68Z"/>
  <path class="c" d="M232.51,328.31c8.03,1.65,16.05,3.3,24.08,4.96.34,8.68.93,17.37.92,26.05,0,3.99-1.2,7.97-1.86,11.95-3.31-.68-6.62-1.4-9.95-2.01-4.91-.91-7.92-2.95-8.36-9.02-.66-9.05-3.04-17.98-4.69-26.97-.05-1.65-.09-3.31-.14-4.96Z"/>
  <path class="g" d="M60.54,225.21c2.04.34,4.79-3.14,6.12,1.12-3.75,8.77-7.73,17.44-11.16,26.34-2.06,5.36-3.25,11.06-4.83,16.6-1.71,12.25-3.43,24.5-5.13,36.75-.33,2.42-.57,4.85-.85,7.27-2.23-.26-4.45-.56-6.68-.75-1.75-.15-3.52-.16-5.28-.23,1.07-8.52,1.59-17.16,3.32-25.55,4.4-21.28,12.99-41.06,23.05-60.22.29-.55.95-.9,1.44-1.34Z"/>
  <path class="ac" d="M102.56,161.24c-.66.67-1.32,1.34-1.98,2.01.66-.67,1.32-1.34,1.98-2.01Z"/>
  <path class="y" d="M83.57,272.25c2.34-5.33,4.68-10.66,7.02-16,3.98-1.03,8.24-3.6,11.01,2.01-1.46,4.53-2.97,9.05-4.37,13.61-2.92,9.46-5.79,18.94-8.68,28.42-3.68-2.52-7.56-3.78-11.96-2.02,2.33-8.67,4.65-17.34,6.98-26.01Z"/>
  <path class="e" d="M101.6,258.27c-2.77-5.61-7.03-3.04-11.01-2.01,3.76-7.5,7.52-15.01,11.27-22.52,1.25-2.49,2.49-4.99,3.73-7.48,3.15.08,6.29.17,9.44.25-.82,3.24-1.26,6.64-2.52,9.69-2.78,6.72-5.95,13.29-9.04,19.88-.39.84-1.24,1.46-1.88,2.19Z"/>
  <path class="ac" d="M191.6,233.23c.32,1.67.65,3.34.97,5.02-.36,0-.72,0-1.08,0-.96-2.33-1.93-4.66-2.89-6.98,0-2,0-3.99,0-5.99.34.33.67.66,1.01.99.66,2.33,1.32,4.65,1.98,6.98Z"/>
  <path class="ab" d="M189.62,226.26c-.34-.33-.67-.66-1.01-.99-.4-2.74-.8-5.49-1.2-8.23.74-.06,1.47-.12,2.21-.17v9.4Z"/>
  <path class="x" d="M194.58,335.25c1,6.43,2.28,12.84,2.89,19.31.3,3.2-.66,6.52-1.05,9.79-.97,2.65-1.93,5.3-2.89,7.94-.88.4-2.03.57-2.6,1.23-7.95,9.24-17.1,13.75-30.07,12.16-12.26-1.5-21.89-5.88-27.01-16.91-7.96-17.14-4.84-35.65,11.78-46.31,8.26-5.29,17.74-7.27,27.62-3.88,1.38.47,2.92.46,4.39.66,5.65,5.33,11.3,10.66,16.96,15.99ZM163.29,382.26c18.08-.92,30.91-14.22,30.86-30.04-.05-16.05-11.56-30.36-29.93-30.69-15.2-.28-30.59,14.08-30.69,30.7-.1,17.2,15.27,28.69,29.75,30.03Z"/>
  <path class="n" d="M202.89,573.11c0-13.71-.05-26.83.12-39.96.01-.9,1.72-2.55,2.64-2.55,9.48-.03,19.03-.45,28.42.55,11.98,1.28,17.48,9.09,17.09,22.21-.31,10.76-7.41,18.96-18.13,19.61-9.77.6-19.61.13-30.16.13Z"/>
  <path class="n" d="M56.88,576.64c0-13.48.12-26.97-.08-40.45-.06-3.75,1.11-5.06,4.84-4.78,7.29.54,14.77-.07,21.86,1.35,13.62,2.72,22.78,11.35,27.13,24.54,4.23,12.84,4.11,25.88.14,38.81-4.99,16.25-18.46,25.43-37.89,25.93-3.83.1-7.67-.16-11.48.08-3.46.21-4.65-.99-4.6-4.53.17-13.65.07-27.3.07-40.95Z"/>
  <path class="v" d="M83.57,272.25c-2.33,8.67-4.65,17.34-6.98,26.01-1,7-2,13.99-3,20.99-1.04,1.43-2.08,2.86-3.68,5.06-7.6-1.58-15.97-3.32-24.34-5.06-.29-1.99-.59-3.97-.88-5.96.28-2.42.52-4.86.85-7.27,1.7-12.25,3.42-24.5,5.13-36.75,7.55-2.16,14.13,2.15,21.15,3.36,4.1.71,7.88,2.16,11.75-.37Z"/>
  <path class="d" d="M163.29,382.26c-14.48-1.35-29.85-12.83-29.75-30.03.1-16.62,15.49-30.98,30.69-30.7,18.37.33,29.87,14.64,29.93,30.69.05,15.82-12.78,29.12-30.86,30.04ZM163.68,326.25c-13.85-1.38-25.77,11.07-26.03,26.16-.23,13.51,12.62,26.04,26.36,25.79,14.92-.27,25.86-10.91,26.18-26.29.3-14.17-11.52-26.47-26.52-25.66Z"/>
  <path class="u" d="M163.68,326.25c15-.81,26.82,11.5,26.52,25.66-.33,15.38-11.26,26.02-26.18,26.29-13.74.25-26.59-12.28-26.36-25.79.26-15.09,12.18-27.55,26.03-26.16ZM151.58,352.12c-.01,7.33,4.43,12.11,11.31,12.15,8.22.05,14.47-5.03,14.64-11.88.14-6-7.13-13.69-13.23-13.99-6.91-.34-12.71,5.91-12.72,13.72Z"/>
  <path class="t" d="M151.58,352.12c.02-7.81,5.81-14.06,12.72-13.72,6.1.3,13.37,7.99,13.23,13.99-.17,6.85-6.42,11.92-14.64,11.88-6.88-.04-11.33-4.81-11.31-12.15ZM163.44,360.23c4.47.12,8.8-3.85,8.98-8.24.17-4.04-4.78-8.63-9.27-8.6-3.17.03-7.41,4.61-7.53,8.15-.14,4.22,3.78,8.58,7.81,8.69Z"/>
  <path class="ad" d="M163.44,360.23c-4.03-.11-7.95-4.47-7.81-8.69.12-3.54,4.35-8.12,7.53-8.15,4.49-.04,9.44,4.56,9.27,8.6-.19,4.39-4.52,8.36-8.98,8.24Z"/>
</svg>