<?xml version="1.0" encoding="UTF-8"?>
<svg id="a" data-name="Layer_1" xmlns="http://www.w3.org/2000/svg" width="930.06" height="478.2" viewBox="0 0 930.06 478.2">
  <defs>
    <style>
      .b {
        fill: #344878;
      }

      .c {
        fill: #3d5079;
      }

      .d {
        fill: #294996;
      }

      .e {
        fill: #3c4e7d;
      }

      .f {
        fill: #d0d2d6;
      }

      .g {
        fill: #3b5085;
      }

      .h {
        fill: #394e80;
      }

      .i {
        fill: #e5302d;
      }

      .j {
        fill: #284998;
      }

      .k {
        fill: #b7c5e3;
      }

      .l {
        fill: #2d478b;
      }

      .m {
        fill: #32498a;
      }

      .n {
        fill: #c5cfe3;
      }

      .o {
        fill: #4b5c80;
      }

      .p {
        fill: #354a7c;
      }

      .q {
        fill: #294997;
      }

      .r {
        fill: #c1cee6;
      }

      .s {
        fill: #395189;
      }

      .t {
        fill: #384a73;
      }

      .u {
        fill: #3b4d78;
      }

      .v {
        fill: #445689;
      }

      .w {
        fill: #384e81;
      }

      .x {
        fill: #334a87;
      }

      .y {
        fill: #d3d3d5;
      }

      .z {
        fill: #d7cece;
      }

      .aa {
        fill: #e4312d;
      }
    </style>
  </defs>
  <path class="y" d="M886.13,17.2c1.42,3.07,1.83,6.11,3.36,6.86,5.29,2.59,6.32,6.63,5.61,11.81-.2,1.46-.15,2.95-.21,4.25-.48.37-.73.72-1,.74-5.78.46-9.27,3.05-12.45,8.45-2.97,5.04-5.37,11.1-8.92,14.95-7.15,7.73-1.58,13.36.98,19.04,2.79,6.2,6.78,12.25,15.11,13,4.08.37,6.34,3.4,6.42,7.67.16,7.77,3.25,14.51,7.43,20.81,3.67,5.52,9.04,7.95,15.59,8.36,8.28.52,12.01,4.54,12.01,12.7.01,108.99,0,217.98,0,326.96,0,1.48,0,2.96,0,5-2.12.12-3.87.3-5.63.3-306.3.01-612.6,0-918.9.11C1.06,478.2,0,476.95,0,472.59.11,316.94.11,161.29,0,5.64,0,1.35.97,0,5.5,0c277.14.11,554.27.09,831.41.27,3.23,0,6.91,1.97,9.61,4.03,6.85,5.22,13.2,11.11,19.93,16.5.99.79,3.05.76,4.46.43,5.42-1.28,10.78-2.83,15.23-4.03ZM507.66,221.17c.16-13.26.31-26.53.47-39.79,2.93-.38,5.85-1.01,8.8-1.11,10.61-.37,21.3.06,31.84-1,11.48-1.15,13.93-4.07,16.46-15.19,3.34-3.63,2.43-10.85-1.7-11.75-4.9-1.07-9.92-1.98-14.91-2.12-11.13-.31-22.28-.09-33.42-.11-5.88,0-7.61-3.06-5.61-8.59,1.37-3.79,1.78-7.92,2.62-11.9.09-.16.23-.28.41-.34,4.61-.39,9.22-.96,13.84-1.13,5.47-.2,10.96.1,16.43-.15,1.45-.07,2.84-1.34,4.26-2.07,2.96-.3,5.96-.41,8.88-.95,5.61-1.03,11.7-1.16,15.23-6.86.91-4.92,2.13-9.8,2.63-14.76.4-3.99-2.03-6.17-6.08-6.04-6.59.2-13.18.54-19.77.82-5.61-.03-11.22-.29-16.82-.02-10.35.48-20.68,1.27-31.02,1.93-9.11,1.3-15.9,5.99-19.14,14.62-1.96,5.23-3.75,10.9-3.85,16.4-.59,30.81-.66,61.62-.86,92.44,0,1.48.28,3,.68,4.43.93,3.3,2.7,5.58,6.65,5.32,3.81-.25,7.64-.22,11.47-.32,9.06-1.02,11.46-3.28,12.54-11.78ZM209.24,154.05s-.15-.05-.15-.05c-.82-.63-1.63-1.79-2.45-1.8-18.26-.1-36.52-.24-54.77.14-2.19.05-5.5,2.69-6.16,4.8-.81,2.59.62,5.88,1.08,8.87,2.16,8.12,7.3,12.52,15.8,13.17,4.91.38,9.81,1.1,14.64,2.05,1.46.29,2.67,1.89,3.99,2.89-.03,5.98-.06,11.97-.09,17.95-.22.27-.27.56-.15.89-1.81,1.65-3.62,3.31-5.43,4.96-8.44.04-16.92.7-25.29-.02-13.13-1.14-23.84-6.94-30.08-19.19-5.66-11.11-6.46-22.86-4.07-34.94,2.77-14.03,11.24-22.68,25.24-25.47,5.2-1.03,10.51-1.55,15.77-2.3,8.77-.27,17.57-.26,26.31-.92,4.34-.33,8.6-1.87,12.89-2.87,6.4-2.76,9.17-8.23,8.75-17.23-.28-5.81-2.17-7.81-8.05-7.65-19.45.53-38.94.55-58.32,2.01-23.66,1.78-40.62,13.91-49.87,36.13-8.49,20.43-7.62,40.91.2,61.21,8.96,23.27,27.22,34.19,51,37.43,13.36,2.71,26.72,2.62,40.08.01,10.85-1.29,21.22-3.74,29.15-12.08,1.27-1.87,3.63-3.72,3.65-5.6.27-19.59.12-39.19.22-58.79.02-2.97-1.25-3.84-3.87-3.62ZM405.22,98.23c-2.14-.09-4.31-.45-6.41-.21-5.26.59-10.49,1.45-15.73,2.2-5.23,3.01-5.82,8.22-5.97,13.38-.34,11.48-.47,22.96-.54,34.44-.03,4.63.33,9.27.52,13.91l.04,2.15c-.07,5.77-.31,11.54-.17,17.31.18,7.55.67,15.1,1.02,22.65-.62,17.66,10.19,27.3,27.47,28,13.82.01,27.64.03,41.45.04,4.31-1.24,8.71-2.23,12.92-3.76,7.35-2.67,10.13-16.36,4.7-22.39-1.4-.33-2.79-.93-4.19-.96-15.09-.34-30.18-.59-45.26-.87-2-2.03-4-4.07-6.01-6.1-.29-28.91-.58-57.82-.87-86.73-.03-3.16.24-6.35-.19-9.45-.18-1.31-1.82-2.41-2.8-3.61ZM279.33,234.09c9.57,2.15,19.15,2.25,28.72.02,17.03-2.75,30.8-11.17,41.44-24.55,8.41-10.57,13.6-22.57,13.58-36.32-.01-9.07,1.01-18.47-.99-27.13-5.93-25.7-23.1-41.4-48.21-47.77-9.04-2.3-18.93-2.64-28.3-2.01-17.87,1.21-33.53,8.38-45.52,22.01-17.9,20.34-20.71,43.99-13.42,69.18,7.19,24.83,29.56,44.22,52.69,46.57ZM410.64,346.11c2.25,7.42,4.26,14.45,6.52,21.4,2.29,7.02,6.74,11.8,14.5,12.58,2.65.27,5.32.38,7.98.44,12.37.26,14.22-1.5,10.84-13.52-8.94-31.83-18.12-63.59-27.8-95.21-3.57-11.68-10.52-22.02-23.31-24.54-11.13-2.2-22.76-2.38-34.18-2.51-10.25-.12-15.86,6.4-18.41,15.86-.61,2.24-1.28,4.47-1.8,6.74-5.83,25.62-11.66,51.24-17.45,76.87-2.01,8.92-3.99,17.86-5.83,26.82-1.23,5.99.99,8.95,7.02,9.26,3.81.2,7.66-.02,11.47-.24,6.98-.4,11.54-3.78,13.6-10.46,1.91-6.19,3.17-12.59,5.27-18.7.66-1.91,3.09-4.54,4.75-4.58,15.47-.35,30.95-.21,46.8-.21ZM201.09,290.81c.14,0,.29,0,.43,0,0-12.82.07-25.65-.03-38.47-.05-6.23-2.29-8.35-8.62-8.2-3.82.09-7.66.39-11.43.97-8.56,1.32-11.46,4.66-11.63,13.3-.2,10.16-.18,20.33-.36,30.49-.25,14.49-.2,29-1.03,43.46-.64,11.2-6.1,17.47-16.92,19.14-6.43.99-13.29.53-19.77-.45-9.94-1.49-15.55-7.58-15.83-18.03-.08-2.99-.79-5.96-.81-8.95-.14-19.16-.12-38.32-.27-57.48-.04-5.82-.31-11.64-.73-17.44-.26-3.52-2.44-5.45-6.06-5.15-5.3.43-10.67.58-15.84,1.67-6.41,1.35-8.86,4.79-9.07,11.35-.17,5.16-.25,10.34-.11,15.5.61,22.46.44,44.98,2.28,67.34,1.43,17.42,10.05,31.14,27.65,37.5,19.08,6.9,38.23,6.7,57.26.2,11.38-3.89,19.67-11.78,24.69-22.65,4.3-9.31,6.1-19.33,6.18-29.6.09-11.5.02-23,.02-34.49ZM252.31,381.41c8.4-1.01,18.4-1.65,28.18-3.5,26.3-4.99,39.75-22.79,36.53-48.35-1.48-11.76-7.45-21.18-18.89-25.57-7.08-2.71-14.7-4.07-22.14-5.81-6.8-1.58-13.7-2.74-20.51-4.3-5.44-1.25-9.17-5.84-8.96-10.56.22-4.79,4.33-8.5,10.2-9.14,1.49-.16,3-.13,4.49-.25,14.25-1.18,28.53-2.1,42.73-3.7,6.36-.72,9.46-4.83,10.17-11.15.24-2.15.45-4.31.47-6.46.04-5.74-1.54-7.46-7.36-7.62-6.33-.17-12.68-.44-18.99-.05-14.74.9-29.53,1.57-44.14,3.51-8.41,1.11-16.15,5.1-21.67,12.23-17.43,22.5-5.64,54.14,22.15,59.45,10.13,1.94,20.26,3.89,30.37,5.94,7.65,1.55,10.55,4.75,10.78,11.52.21,6.11-3.45,10.91-10.32,12.15-8.33,1.5-16.77,2.89-25.21,3.2-9.79.36-19.62-.48-29.44-.82-4.74-.16-7.43,2.05-8.37,6.73-1.85,9.15,3.69,18.28,12.98,19.82,8.35,1.39,16.87,1.75,26.95,2.72ZM694.18,92.44c-2.92,5.65-5.21,10.37-7.8,14.93-.67,1.19-2.13,2.42-3.42,2.68-5.23,1.09-10.53,1.81-15.81,2.67-.25.46-.5.92-.75,1.38,3.57,3.34,7.01,6.82,10.75,9.95,1.98,1.65,3.01,2.89,2.26,5.79-1.23,4.79-1.66,9.79-2.61,15.8,5.41-2.67,9.66-4.52,13.65-6.82,2.65-1.53,4.76-1.41,7.34.07,3.99,2.28,8.2,4.17,13.51,6.81-.97-6.13-1.94-11.06-2.43-16.03-.17-1.67.36-3.89,1.43-5.11,2.5-2.85,5.57-5.19,8.3-7.85,1.04-1.01,1.76-2.35,3.09-4.2-4.66-.56-8.24-1.13-11.83-1.4-4.5-.34-8.06-1.45-9.7-6.47-1.27-3.89-3.59-7.45-5.98-12.22Z"/>
  <path class="d" d="M279.33,234.09c-23.13-2.34-45.5-21.73-52.69-46.57-7.29-25.19-4.48-48.84,13.42-69.18,11.99-13.63,27.65-20.8,45.52-22.01,9.37-.64,19.25-.29,28.3,2.01,25.11,6.37,42.28,22.07,48.21,47.77,2,8.66.98,18.07.99,27.13.02,13.75-5.17,25.75-13.58,36.32-10.65,13.38-24.41,21.79-41.44,24.55-9.57,0-19.15-.02-28.72-.02ZM332.1,162.19c-.56-12.52-5.16-25.66-19.76-32.79-14.27-6.96-28.68-6.4-41.57,3.05-12.84,9.42-16.79,22.77-14.77,38.5,2.83,22.04,21.1,36.93,42.97,34.29,19.57-2.36,33.07-18.82,33.14-43.05Z"/>
  <path class="d" d="M140.01,234.13c-23.78-3.24-42.04-14.16-51-37.43-7.82-20.3-8.7-40.78-.2-61.21,9.24-22.23,26.2-34.35,49.87-36.13,19.38-1.46,38.88-1.49,58.32-2.01,5.88-.16,7.77,1.84,8.05,7.65.43,9-2.35,14.46-8.75,17.23-4.3.62-8.58,1.6-12.9,1.78-7.29.31-14.6,0-21.89.21-1.49.04-2.94,1.17-4.41,1.79-5.26.75-10.56,1.26-15.77,2.3-14,2.78-22.46,11.43-25.24,25.47-2.39,12.08-1.59,23.83,4.07,34.94,6.24,12.25,16.95,18.04,30.08,19.19,8.37.73,16.86.06,25.29.02,3.73.44,7.06.46,5.43-4.96-.12-.33-.07-.62.15-.89.63-.61,1.78-1.21,1.8-1.84.16-4.73.17-9.48.03-14.21-.02-.65-1.13-1.27-1.74-1.9-1.32-1-2.53-2.6-3.99-2.89-4.83-.96-9.73-1.68-14.64-2.05-8.5-.65-13.64-5.05-15.8-13.17.3-4.58-1.32-9.98,5.08-11.98,18.7,0,37.41.02,56.11.03.37-.02.74-.04,1.11-.06,0,0,.15.05.15.05.63,1.53,1.27,3.06,1.9,4.59.01,8.51.03,17.02.04,25.53,0,10.71,0,21.43,0,32.14-.64,1.91-1.29,3.83-1.93,5.74-7.93,8.34-18.3,10.79-29.15,12.08-13.36,0-26.72,0-40.08-.01Z"/>
  <path class="i" d="M410.64,346.11c-15.84,0-31.33-.14-46.8.21-1.67.04-4.1,2.67-4.75,4.58-2.1,6.12-3.36,12.51-5.27,18.7-2.07,6.68-6.62,10.06-13.6,10.46-3.82.22-7.66.44-11.47.24-6.03-.31-8.25-3.27-7.02-9.26,1.84-8.96,3.81-17.9,5.83-26.82,5.79-25.63,11.61-51.25,17.45-76.87.52-2.26,1.19-4.49,1.8-6.74,2.55-9.46,8.16-15.98,18.41-15.86,11.42.13,23.05.31,34.18,2.51,12.79,2.52,19.73,12.86,23.31,24.54,9.68,31.61,18.87,63.38,27.8,95.21,3.37,12.02,1.53,13.78-10.84,13.52-2.66-.06-5.33-.17-7.98-.44-7.76-.78-12.21-5.55-14.5-12.58-2.27-6.95-4.27-13.98-6.52-21.4ZM406.59,319.47c-3.14-10.91-5.75-21-9.01-30.88-1.38-4.17-3.86-8.08-6.35-11.76-2.83-4.19-9.73-6.39-14.27-5.01-4.82,1.46-4.88,5.91-5.68,9.7-1.99,9.43-3.78,18.91-5.63,28.37-.6,3.05-1.14,6.1-1.79,9.58h42.73Z"/>
  <path class="aa" d="M201.09,290.81c0,11.5.07,23-.02,34.49-.08,10.26-1.88,20.28-6.18,29.6-5.02,10.87-13.31,18.77-24.69,22.65-19.03,6.5-38.17,6.7-57.26-.2-17.6-6.36-26.22-20.08-27.65-37.5-1.84-22.36-1.67-44.88-2.28-67.34-.14-5.16-.06-10.33.11-15.5.21-6.56,2.66-10.01,9.07-11.35,5.17-1.09,10.55-1.24,15.84-1.67,3.62-.29,5.81,1.63,6.06,5.15.42,5.8.69,11.62.73,17.44.15,19.16.13,38.32.27,57.48.02,2.98.73,5.96.81,8.95.29,10.45,5.89,16.54,15.83,18.03,6.49.98,13.34,1.44,19.77.45,10.82-1.67,16.28-7.94,16.92-19.14.83-14.46.77-28.97,1.03-43.46.18-10.16.16-20.33.36-30.49.17-8.63,3.06-11.97,11.63-13.3,3.77-.58,7.61-.88,11.43-.97,6.33-.15,8.57,1.97,8.62,8.2.1,12.82.03,25.65.03,38.47-.14,0-.29,0-.43,0Z"/>
  <path class="aa" d="M252.31,381.41c-10.08-.97-18.6-1.33-26.95-2.72-9.29-1.54-14.83-10.67-12.98-19.82.94-4.68,3.63-6.89,8.37-6.73,9.81.34,19.65,1.18,29.44.82,8.44-.31,16.87-1.7,25.21-3.2,6.88-1.24,10.53-6.04,10.32-12.15-.23-6.77-3.13-9.97-10.78-11.52-10.11-2.05-20.24-4-30.37-5.94-27.8-5.31-39.58-36.95-22.15-59.45,5.53-7.13,13.27-11.12,21.67-12.23,14.61-1.94,29.41-2.61,44.14-3.51,6.31-.38,12.66-.12,18.99.05,5.81.16,7.4,1.88,7.36,7.62-.02,2.16-.23,4.32-.47,6.46-.7,6.32-3.8,10.43-10.17,11.15-14.2,1.6-28.48,2.51-42.73,3.7-1.49.12-3,.09-4.49.25-5.87.64-9.99,4.35-10.2,9.14-.22,4.72,3.51,9.32,8.96,10.56,6.81,1.56,13.71,2.71,20.51,4.3,7.43,1.73,15.05,3.09,22.14,5.81,11.45,4.38,17.41,13.81,18.89,25.57,3.22,25.56-10.23,43.36-36.53,48.35-9.77,1.86-19.78,2.49-28.18,3.5Z"/>
  <path class="q" d="M495.12,232.95c-3.82.09-7.65.07-11.47.32-3.95.25-5.72-2.02-6.65-5.32-.4-1.43-.69-2.95-.68-4.43.2-30.81.27-61.63.86-92.44.11-5.5,1.89-11.17,3.85-16.4,3.24-8.64,10.03-13.32,19.14-14.62,14.64,0,29.28.05,43.93-.08,1.31-.01,2.61-1.19,3.92-1.82,6.59-.28,13.18-.62,19.77-.82,4.05-.12,6.48,2.06,6.08,6.04-.5,4.96-1.72,9.84-2.63,14.76-8.13,3.99-16.49,6.7-25.8,6.07-6.63-.45-13.33-.19-19.99.03-1.49.05-2.95,1.21-4.43,1.86-2.81,1.06-5.61,2.13-8.42,3.19-.18.07-.31.18-.4.35-4.88,4.52-3.62,10.55-3.79,16.15-.2,6.75-.03,6.75,6.66,7.27,1.69.36,3.38,1.01,5.07,1.02,14.39.1,28.77.08,43.16.1l1.92,9.93c-2.53,11.12-4.98,14.04-16.46,15.19-10.54,1.06-21.22.63-31.84,1-2.94.1-5.86.73-8.79,1.11-.34,4.16-.83,8.32-1,12.49-.37,9.05-.58,18.11-.85,27.17-.41.25-1.13.45-1.2.77-.97,4.75-2.62,8.67-8.55,8.54-.45,0-.94,1.69-1.41,2.6Z"/>
  <path class="j" d="M377.14,164.1c-.01-.72-.03-1.43-.04-2.15.65-9.94,1.41-19.87,1.92-29.81.25-4.96-.06-9.95.08-14.92.14-4.95-1.45-10.36,3.64-14.13.54-.4.26-1.89.36-2.87,5.24-.75,10.47-1.61,15.73-2.2,2.1-.24,4.27.12,6.4.21.6,2.63,1.72,5.26,1.74,7.89.15,28.86.09,57.72.23,86.58,0,1.77,1.23,3.54,1.89,5.31,2,2.03,4,4.07,6.01,6.1,1.12.65,2.23,1.86,3.35,1.87,15.37.08,30.73,0,46.1-.04,5.43,6.02,2.66,19.71-4.7,22.39-4.21,1.53-8.61,2.53-12.92,3.76-13.82-.01-27.64-.03-41.46-.04-17.28-.7-28.09-10.34-27.47-28,.36-1.08,1.02-2.16,1.03-3.25.07-11.27.09-22.54-.05-33.81-.01-.97-1.2-1.93-1.84-2.9Z"/>
  <path class="n" d="M515.08,153.03c-6.7-.51-6.87-.52-6.66-7.27.17-5.59-1.09-11.62,3.79-16.15-.84,3.98-1.25,8.11-2.62,11.9-2,5.52-.27,8.58,5.61,8.59,11.14.02,22.29-.21,33.42.11,4.99.14,10.01,1.05,14.91,2.12,4.13.9,5.04,8.12,1.7,11.75-.64-3.31-1.28-6.62-1.92-9.93-1.37-.46-2.74-1.31-4.11-1.31-14.71-.01-29.41.11-44.12.19Z"/>
  <path class="h" d="M409.08,198.02c-.66-1.77-1.88-3.54-1.89-5.31-.14-28.86-.08-57.72-.23-86.58-.01-2.63-1.13-5.26-1.74-7.89.98,1.2,2.62,2.3,2.8,3.61.43,3.1.16,6.3.19,9.45.29,28.91.58,57.82.87,86.73Z"/>
  <path class="m" d="M383.08,100.22c-.1.98.18,2.47-.36,2.87-5.08,3.77-3.5,9.19-3.64,14.13-.14,4.97.17,9.96-.08,14.92-.51,9.94-1.26,19.88-1.92,29.81-.18-4.64-.54-9.27-.52-13.91.07-11.48.2-22.96.54-34.44.15-5.17.74-10.37,5.97-13.38Z"/>
  <path class="s" d="M521.03,126.07c1.48-.65,2.93-1.81,4.43-1.86,6.66-.21,13.35-.48,19.99-.03,9.31.63,17.66-2.08,25.8-6.07-3.53,5.7-9.62,5.83-15.23,6.86-2.92.54-5.92.65-8.88.95-8.7.05-17.4.1-26.1.14Z"/>
  <path class="k" d="M151.87,154.03c-6.41,1.99-4.78,7.39-5.08,11.98-.46-2.99-1.89-6.28-1.08-8.87.66-2.11,3.97-4.75,6.16-4.8,18.25-.38,36.51-.24,54.77-.14.82,0,1.64,1.17,2.45,1.8-.37.02-.74.04-1.1.06-.74-.3-1.47-.87-2.21-.87-17.23-.05-34.46-.05-51.69,0-.74,0-1.48.56-2.21.85Z"/>
  <path class="w" d="M464.54,205.95c-15.37.04-30.73.12-46.1.04-1.12,0-2.24-1.22-3.35-1.87,15.09.27,30.18.53,45.26.87,1.4.03,2.79.63,4.19.96Z"/>
  <path class="g" d="M548.02,98.14c-1.31.64-2.61,1.81-3.92,1.82-14.64.13-29.28.08-43.93.08,10.34-.66,20.68-1.45,31.02-1.93,5.59-.26,11.21,0,16.82.02Z"/>
  <path class="r" d="M209.24,222.06c.64-1.91,1.29-3.83,1.93-5.74.31-1.27.89-2.53.89-3.8.03-9.48-.06-18.96-.12-28.44-.27-8.48-.54-16.96-.81-25.45-.63-1.53-1.27-3.06-1.9-4.59,2.62-.22,3.89.65,3.87,3.62-.1,19.6.05,39.2-.22,58.79-.03,1.88-2.38,3.73-3.65,5.6Z"/>
  <path class="l" d="M377.14,164.1c.64.97,1.82,1.93,1.84,2.9.13,11.27.12,22.54.05,33.81,0,1.09-.67,2.17-1.03,3.25-.35-7.55-.84-15.09-1.02-22.65-.14-5.77.1-11.54.17-17.31Z"/>
  <path class="w" d="M157.09,126c1.47-.63,2.93-1.75,4.41-1.79,7.29-.2,14.6.1,21.89-.21,4.32-.18,8.6-1.16,12.9-1.78-4.29.99-8.55,2.54-12.89,2.87-8.74.66-17.54.65-26.31.92Z"/>
  <path class="v" d="M140.01,234.13c13.36,0,26.72,0,40.08.01-13.36,2.61-26.72,2.7-40.08-.01Z"/>
  <path class="n" d="M521.03,126.07c8.7-.05,17.4-.1,26.1-.14-1.42.72-2.81,2-4.26,2.07-5.47.25-10.96-.05-16.43.15-4.62.17-9.22.74-13.84,1.13,2.81-1.07,5.61-2.13,8.42-3.2Z"/>
  <path class="p" d="M506.28,221.04c.27-9.06.48-18.12.85-27.17.17-4.17.66-8.33,1-12.49-.16,13.27-.32,26.53-.47,39.8-.46-.05-.92-.09-1.38-.13Z"/>
  <path class="m" d="M506.28,221.04c.46.04.92.09,1.38.13-1.08,8.5-3.48,10.76-12.54,11.78.47-.91.96-2.61,1.41-2.6,5.94.13,7.58-3.8,8.55-8.54.07-.32.78-.52,1.2-.77Z"/>
  <path class="c" d="M405.46,232.06c13.82.01,27.64.03,41.46.04-13.82-.01-27.64-.03-41.46-.04Z"/>
  <path class="e" d="M279.33,234.09c9.58,0,19.15.02,28.72.02-9.58,2.23-19.15,2.13-28.72-.02Z"/>
  <path class="x" d="M181.21,184.12c.61.63,1.72,1.25,1.74,1.9.14,4.73.13,9.48-.03,14.21-.02.63-1.17,1.23-1.8,1.84.03-5.98.06-11.97.09-17.95Z"/>
  <path class="x" d="M180.97,202.96c1.64,5.42-1.7,5.41-5.43,4.96,1.81-1.65,3.62-3.31,5.43-4.96Z"/>
  <path class="f" d="M332.1,162.19c-.07,24.24-13.57,40.69-33.14,43.05-21.87,2.64-40.15-12.25-42.97-34.29-2.02-15.72,1.94-29.08,14.77-38.5,12.89-9.46,27.3-10.01,41.57-3.05,14.61,7.12,19.2,20.27,19.76,32.79Z"/>
  <path class="t" d="M151.87,154.03c.74-.3,1.48-.85,2.21-.85,17.23-.05,34.46-.05,51.69,0,.74,0,1.47.57,2.21.87-18.7,0-37.41-.02-56.11-.03Z"/>
  <path class="o" d="M211.95,184.08c.05,9.48.14,18.96.12,28.44,0,1.27-.58,2.53-.89,3.8,0-10.71,0-21.43,0-32.14.26-.03.52-.06.77-.09Z"/>
  <path class="u" d="M211.95,184.08c-.26.03-.52.06-.77.09-.01-8.51-.03-17.02-.04-25.53.27,8.48.54,16.96.81,25.45Z"/>
  <path class="z" d="M406.59,319.47h-42.73c.65-3.48,1.19-6.54,1.79-9.58,1.85-9.46,3.64-18.94,5.63-28.37.8-3.79.86-8.25,5.68-9.7,4.55-1.38,11.45.83,14.27,5.01,2.49,3.69,4.97,7.59,6.35,11.76,3.27,9.87,5.87,19.96,9.01,30.88Z"/>
  <path class="b" d="M515.08,153.03c14.71-.08,29.41-.21,44.12-.19,1.37,0,2.74.85,4.11,1.31-14.39-.02-28.77,0-43.16-.1-1.69-.01-3.38-.66-5.07-1.02Z"/>
</svg>