<?xml version="1.0" encoding="UTF-8"?>
<svg id="a" data-name="Layer_1" xmlns="http://www.w3.org/2000/svg" width="1163.34" height="407.69" viewBox="0 0 1163.34 407.69">
  <defs>
    <style>
      .b {
        fill: #040404;
      }

      .c {
        fill: #030303;
      }

      .d {
        fill: #050505;
      }

      .e {
        fill: #050404;
      }

      .f {
        fill: #040303;
      }

      .g {
        fill: #474748;
      }

      .h {
        fill: #ffd107;
      }
    </style>
  </defs>
  <path class="h" d="M0,407.69c4.37-19.47,8.69-38.74,13.04-58.11h1088.33c-4.06,19.55-8.03,38.69-12.07,58.11H0Z"/>
  <path class="f" d="M268.05,316.08h-66.16c7.74-36.47,15.42-72.67,23.17-109.21h-115.28c-7.69,36.3-15.4,72.68-23.15,109.23H19.94C42.34,210.63,64.69,105.37,87.07,0h66.74c-10.42,49.04-20.77,97.82-31.19,146.86h115.21C248.26,98.01,258.7,49.08,269.18.02h66.07c-22.42,105.48-44.79,210.67-67.19,316.06Z"/>
  <path class="d" d="M564.33,207.19h-172.63c-1.33,13.82-1.6,27.1,5.93,39.21,5.75,9.25,14.59,14.07,24.89,16.49,12.16,2.87,24.39,2.04,36.51-.1,15.4-2.72,30.2-7.44,44.17-14.56,2.97-1.51,5.79-3.31,9.25-5.3,8.65,14.57,17.33,29.19,26.19,44.11-1.61,1.2-3.02,2.32-4.5,3.34-18.76,12.91-39.61,20.86-61.68,25.88-11.98,2.73-24.13,4.21-36.38,4.63-17.92.63-35.55-1.22-52.32-8-27.03-10.94-43.32-31.32-50.9-59.04-4.8-17.56-5.27-35.44-3.32-53.44,3.11-28.76,12.04-55.61,26.81-80.46,21.07-35.45,52.46-56.15,92.65-63.75,24.59-4.65,48.52-1.41,71.33,8.58,27.2,11.93,43.46,32.99,48.99,62.08,5.12,26.92,2.04,53.43-4.98,80.3ZM406.12,151.99h105.23c2.74-16.76-4.83-34.89-22.23-41.28-11.8-4.33-23.93-5.12-36.05-1.95-22.94,6.01-37.68,21.13-46.95,43.23Z"/>
  <path class="c" d="M1062.3,118.66h-117.62c4.21-19.85,8.34-39.34,12.54-59.17h205.91c-1.38,6.68-2.73,13.31-4.13,19.93-2.21,10.49-4.53,20.97-6.65,31.48-.65,3.24-2,5.77-4.46,8.09-47.28,44.37-94.48,88.82-141.7,133.25-1.3,1.23-2.6,2.46-4.68,4.43h119.81c-4.29,20.11-8.46,39.67-12.67,59.41h-205.57c.14-1.47.15-2.91.45-4.3,3.42-16.23,6.93-32.45,10.29-48.7.61-2.93,1.91-5.12,4.1-7.17,37.12-34.82,74.18-69.7,111.24-104.58,10.4-9.78,20.78-19.58,31.2-29.34.83-.77,1.91-1.27,2.87-1.9-.31-.48-.63-.96-.94-1.44Z"/>
  <path class="b" d="M804.06.07h66.05c-4.05,19.51-8.08,38.9-12.25,58.93h69.86c-4.28,20.13-8.42,39.59-12.67,59.59h-69.8c-2.83,13.09-5.57,25.66-8.25,38.25-4.29,20.15-8.68,40.29-12.72,60.49-1.31,6.55-2.21,13.28-2.31,19.94-.19,12.31,5.36,19.22,17.18,22.79,7.81,2.36,15.84,2.84,23.9,2.55,6.2-.22,12.37-.97,18.56-1.48.81-.07,1.62-.1,3.2-.19-3.94,18.57-7.78,36.66-11.7,55.18-1.97.52-4.02,1.16-6.11,1.61-21.6,4.69-42.94,4.3-63.84-3.47-3.59-1.34-7.07-3.02-10.51-4.74-20.28-10.16-31.51-26.91-35.5-48.91-2.43-13.39-1.95-26.81.69-40.04,6.12-30.72,12.58-61.38,19.02-92.04,8.53-40.66,17.17-81.3,25.76-121.94.45-2.11.94-4.21,1.45-6.52Z"/>
  <path class="e" d="M638.19,316.14h-66.07c1.34-6.6,2.58-12.96,3.93-19.31,9.28-43.6,18.58-87.2,27.88-130.79,3.9-18.26,8.97-36.14,18.23-52.5,17.09-30.18,42.89-48.67,76.62-56.24,21.04-4.72,41.97-3.67,62.78,1.53.15.04.26.21.98.82-4.12,19.37-8.32,39.09-12.51,58.81-7.43-.23-14.48-.88-21.48-.52-6.82.35-13.7,1.25-20.35,2.78-14.16,3.25-24.05,12.08-30.28,25.05-4.45,9.27-7.23,19.12-9.41,29.11-7.83,36.03-15.52,72.09-23.26,108.13-2.35,10.97-4.69,21.95-7.07,33.13Z"/>
  <path class="g" d="M1140.57,316.33c-10.01.07-16.53-7.79-14.7-17.71,2.22-11.97,14.58-20.94,25.84-18.74,7.46,1.46,12.21,7.76,11.57,15.34-.93,11.11-11.61,21.03-22.71,21.11ZM1140.53,313.46c9.29.03,18.77-8.24,19.79-17.44,1.19-10.7-7.04-14.63-14.07-13.69-8.48,1.14-15.83,8.15-17.6,16.46-1.77,8.32,3.35,14.64,11.88,14.67Z"/>
  <path class="g" d="M1139.08,289.12c3.02,0,5.53,0,8.03,0,2.11,0,4.14.43,5.1,2.51,1.09,2.35.47,4.62-1.17,6.54-.75.88-1.73,1.57-2.84,2.55.66,1.74,1.34,3.53,2.12,5.57-2.52.86-4.31.85-5.38-1.88-.63-1.6-1.01-3.83-3.99-2.99-1.82,1.2.1,6.85-5.47,4.78,1.17-5.55,2.33-11.05,3.6-17.08ZM1141.53,297.08c6.03.58,6.19.49,6.58-3.97-1.75-.12-3.49-.24-5.5-.38-.39,1.56-.7,2.8-1.08,4.35Z"/>
</svg>