<?xml version="1.0" encoding="UTF-8"?>
<svg id="a" data-name="Layer_1" xmlns="http://www.w3.org/2000/svg" width="774.13" height="189.74" viewBox="0 0 774.13 189.74">
  <path d="M264.95,0c5.76,1.23,11.52,2.46,17.89,3.82-2.73,7.45-5.76,12.42-14.86,13.01-4.89.32-10.65,4.41-14,8.45-23.69,28.54-38.48,61.23-44.29,97.83-.37,2.33-.35,4.76-.27,7.13.43,12.74,1.84,14.08,14.66,14.19,12.27.1,18.89,5.98,15.99,15.34-1.02,3.29-5.59,7.61-8.73,7.76-15.85.79-31.76.61-47.65.27-9.81-.21-15.3-7.87-12.98-20.13,3.52-18.62,8.4-36.99,12.72-55.46.4-1.73.97-3.41,1.65-5.74-15.23-7.16-30.94-5.53-46.68-3.78-10.1,1.12-16.7,5.66-22.14,15.04-16.68,28.79-37.21,54.76-64.04,75.13-11.5,8.73-23.93,15.72-38.96,16.79-7.71.55-12.74-2.72-13.06-10.07-.45-10.27-.17-20.71,1.36-30.85.43-2.88,6.21-6.67,9.69-6.83,2.67-.13,6.97,4.29,8.14,7.54,4.45,12.32,9.51,15.04,19.98,6.83,9.02-7.07,17.46-15.58,23.95-24.96,22.62-32.66,35.51-69.7,46.54-107.43.47-1.62.06-3.49.06-6.75-19.01,1.31-37.32,4.21-54.68,11.98-1.09.49-2.03,1.46-3.15,1.68-4.57.9-9.19,1.6-13.79,2.37-.39-5.32-2.18-11.02-.86-15.89,2.46-9.07,10.4-12.46,19.25-13.6C66.73,2.41,76.8,1.23,86.85,0c17.39,0,34.78,0,52.17,0,16.05,6.28,16.36,6.38,10.63,23.74-4.61,13.98-10.1,27.68-15.24,41.59h58.84c7.01-13.49,14.72-29.11,23.17-44.34C221.98,10.98,229.63,2.79,241.56,0,249.36,0,257.15,0,264.95,0Z"/>
  <path d="M349.72,22.83h29.65c-1.5,6.92-3.98,13.94-4.36,21.07-.77,14.25-.76,28.58-.28,42.85.15,4.47,2.83,8.85,4.41,13.45h-27.41c12.15-10.43,3.93-23.86,6.34-36.72h-37.73c3.39,12.19-6.07,25.78,7.28,36.71h-33.81c10.64-3.3,10.43-9.88,10.28-16.58-.33-14.88-.09-29.79-.92-44.63-.29-5.28-3.02-10.42-4.72-15.89h26.8c-1.8,10.26-3.71,21.1-5.76,32.79h38.59c-2.67-11.33,3.99-23.33-8.36-33.04Z"/>
  <path d="M774.02,100.42h-28.27c13-10.66,4-24.38,7.13-37.13h-37.15c1.8,12.29-6.17,25.48,6.05,36.92h-27.78c1.44-4.86,4.13-10.09,4.34-15.42.58-14.57.57-29.2-.15-43.76-.3-5.98-3.03-11.84-4.72-18.02h30.49c-12,9.6-6.08,21.67-8.07,33h36.91c-2.38-11.55,4.59-23.79-8.15-33.15h29.47c-1.4,6.89-3.59,13.81-4.05,20.85-.89,13.66-1.3,27.39-.89,41.06.16,5.2,3.11,10.33,4.84,15.63Z"/>
  <path d="M539.87,22.42h54.09v16.11c-4.85-3.7-8.7-8.18-13.53-9.88-5.03-1.77-11.01-.86-17.38-1.15v29.33c9.3.92,18.83,2.92,26.52-9.54v23.53c-7.61-9.65-17.34-7.21-27.3-6.5v30.21c12.6,1.66,24.58,1.99,33.56-10.46.5.73,1,1.46,1.51,2.19-1,5-1.99,10.01-2.95,14.8h-53.95c1.72-6.17,4.45-11.76,4.64-17.43.51-15.45.3-30.95-.39-46.39-.21-4.68-2.91-9.25-4.8-14.84Z"/>
  <path d="M678.28,24c.42,5.78.79,10.77,1.36,18.5-3.12-2.16-5.66-2.97-6.42-4.61-4.47-9.65-12.08-13.58-22.4-12.89-10.33.68-17.25,6.22-20.94,15.61-5.38,13.65-5.09,27.52.72,40.81,8.74,20.01,31.46,22.11,44.85,4.58.65-.85,1.7-1.39,2.66-2.15,3.49,8.12.69,15.5-6.97,16.58-9.35,1.33-19.1,2.81-28.33,1.6-25.97-3.42-39.23-21.81-36.08-47.98,2.53-21.03,23.61-35.99,47.59-33.53,7.7.79,15.34,2.22,23.96,3.49Z"/>
  <path d="M509.26,100.57h-28.99c1.43-5.77,3.96-11.6,4.14-17.51.56-17.8.2-35.63.2-53.25-13.26-3.64-16.49-2.53-26.65,9.34,0-6.21,0-11.57,0-16.92,24.03.01,48.07.01,71.93.01v16.67c-4.27-3.78-7.36-8.05-11.51-9.77-4.11-1.69-9.3-.8-15.72-1.13,0,21.62-.24,42.35.27,63.06.07,2.98,3.81,5.87,6.33,9.5Z"/>
  <path d="M527.92,154.57c1.34,8.03-3.94,17.1,5.22,24.56h-22.4c6.9-7.82,6.22-48.61-2.17-59.29,9.78,0,18.2-.15,26.62.04,11.12.24,17.55,4.35,19.63,12.15,2.31,8.63-.24,13.2-11.81,20.12,6.89,8.9,13.71,17.7,20.25,26.16-9.88,3.13-15.11,1.42-20.87-7.17-3.95-5.88-8.23-11.55-12.37-17.31-.7.25-1.41.5-2.11.75ZM528.46,152.57c5.38-3.79,10.98-5.66,11.83-8.8,1.42-5.22.75-11.58-1-16.81-.75-2.23-6.43-2.84-10.83-4.56v30.17Z"/>
  <path d="M672.79,119.92c10.33,0,19.29-.33,28.22.09,10.31.48,16.24,5.14,17.79,13.19,1.78,9.2-2.73,14.68-12.48,18.26,7.22,9.46,14.07,18.43,20.6,27-12.48,2.72-14.4,1.92-21.99-9.13-3.65-5.31-7.56-10.44-11.36-15.65-.91.26-1.82.51-2.74.77,1.01,8.24,2.02,16.48,3.05,24.84h-18.82c6.17-9.08,5.3-48.83-2.28-59.38ZM692.35,124.25v25.19c10.84-.4,14.34-4.67,13.44-15.55-.67-8.1-4.3-10.78-13.44-9.64Z"/>
  <path d="M633.62,180.9c-20.27-.11-33.11-12.46-32.96-31.72.14-18.76,13.01-30.46,33.27-30.26,19.91.2,32.56,12.34,32.46,31.16-.1,18.83-12.97,30.93-32.76,30.82ZM614.91,150.33c1.2,5.23,2.02,11.14,3.95,16.66,2.38,6.83,7.6,10.28,15.18,10.18,7.26-.1,11.8-3.78,14.35-10.11,4.52-11.23,4.47-22.58.14-33.86-2.77-7.23-8.11-10.66-15.94-10.49-7.69.16-12.38,4.4-14.55,11.14-1.61,5.02-2.03,10.43-3.13,16.48Z"/>
  <path d="M421.22,23.23c-1.69,5.58-4.42,10.83-4.71,16.21-.8,14.81-1,29.69-.53,44.52.17,5.39,2.92,10.7,4.57,16.28h-31.33c11.02-3.87,9.68-11.48,9.59-18.65-.19-15.14,0-30.3-.73-45.41-.21-4.3-3.08-8.47-4.82-12.95h27.96Z"/>
  <path d="M345.81,141.91c.34,12.88-5.94,25.76,3.57,37.15h-13.71c1.1-4.65,3.13-9.55,3.29-14.5.45-14.74.16-29.49.16-44.84,14.96,13.52,28.84,26.06,43.19,39.02-2.12-12.37,3.93-25.75-5.46-37.87h13.82c-1.19,4.9-3.19,9.61-3.33,14.38-.43,14.8-.16,29.63-2.06,46.02-13.16-13.12-26.32-26.24-39.48-39.36Z"/>
  <path d="M477.58,125.16v22.71c7.02-1.6,13.21-3,19.38-4.4v11.38c-6.37-1.32-12.55-2.61-19.68-4.09v26.32c8.98-2.48,16.97-4.69,25.36-7.01-.46,2.48-1.18,6.3-1.84,9.84h-41.27c6.46-9.79,6.2-50.68-.66-59.15h41.54v14c-5.59-11.49-13.81-10.44-22.84-9.6Z"/>
  <path d="M137.95,135.74c3.19,3.5,5.52,6.05,7.84,8.59-3.33,1.53-6.56,4.07-10,4.4-7.7.73-15.54.81-23.24.18-2.32-.19-4.37-3.56-6.54-5.47,2.1-1.64,4.21-4.66,6.31-4.66,5.83,0,8.47-2.94,10.65-7.66,3.1-6.7,6.69-13.18,10.35-20.3-3.6-.87-6.92-1.68-10.24-2.48-.43-.85-.87-1.7-1.3-2.56,3.21-1.94,6.29-5.24,9.65-5.55,8.6-.8,17.33-.5,25.99-.1,2.2.1,4.3,2.19,6.45,3.37-1.66,2.24-3.52,6.54-4.94,6.4-11.29-1.11-12.3,8.1-15.82,14.71-2.09,3.92-3.75,8.06-5.15,11.11Z"/>
  <path d="M418.67,122.78c-8.18,2.89-14.01,4.95-19.94,7.05v-9.36h53.82v9.96c-6.01-2.3-12.12-4.64-18.54-7.09-4.25,19.48-2.23,50.54,3.46,55.92h-22.82c1.34-3.2,3.74-6.33,3.83-9.54.42-14.5.18-29.01.18-46.93Z"/>
  <path d="M770.05,130.84c-5.76-2.95-10.53-7-15.61-7.41-3.29-.27-8.41,4.16-10.03,7.7-1,2.17,2.33,7.4,5.02,9.85,2.68,2.44,6.93,3.26,10.58,4.54,7.94,2.78,12.64,7.84,12.04,16.6-.61,8.89-5,15.47-13.69,17.86-4.45,1.22-9.55.86-14.24.3-7.64-.91-9.26-5.78-6.99-14.41,2.54,3.41,3.71,6.59,5.85,7.51,4.09,1.75,8.99,3.52,13.07,2.76,2.68-.5,6.55-5.67,6.23-8.31-.4-3.23-4.3-6.38-7.3-8.84-1.94-1.6-4.95-1.91-7.49-2.78-10.92-3.74-14.27-8.92-13-20.14,1.05-9.27,7.36-15.57,17.09-16.55,3.53-.35,7.17-.06,10.73.3,7.81.78,9.75,5.11,7.74,11.04Z"/>
  <path d="M326.54,179.24h-23.28c7.5-7.24,7.46-50.86-.39-58.41,8.36,0,16.15,0,23.95,0-7.24,9.85-7.73,50.4-.28,58.41Z"/>
  <path d="M568.86,120.62h24.34c-7.4,10.16-7.88,50.72-.37,58.6h-23.24c7.43-7.29,7.36-50.9-.73-58.6Z"/>
  <path d="M432.21,82.88c5.23-17.11,18.71-8.85,28.84-12.22-4.64,17.14-18.5,8.94-28.84,12.22Z"/>
  <path d="M176.97,15.28c-5.66,3.18-11.33,6.37-16.94,9.52-1.37-13.83,6.18-21.87,20.54-20.53,11.25,1.05,22.36,3.51,33.95,5.41-1.97,8.2-7.98,9.14-14.48,8.06-6.14-1.02-9.48.88-11.16,6.85-1.12,3.97-3.77,7.55-4.61,11.54-.96,4.55-.66,9.35.25,14.53-4.23,5.54-11.22,4.58-16.44,1.43-1.99-1.2-1.13-9.13.3-13.38,2.53-7.48,6.49-14.47,9.85-21.67-.42-.59-.85-1.18-1.27-1.77Z"/>
</svg>