<?xml version="1.0" encoding="UTF-8"?>
<svg id="a" data-name="Layer_1" xmlns="http://www.w3.org/2000/svg" width="1799.88" height="801.97" viewBox="0 0 1799.88 801.97">
  <defs>
    <style>
      .b {
        fill: #3d2b28;
      }

      .c {
        fill: #332c2b;
      }

      .d {
        fill: #372c2b;
      }

      .e {
        fill: #030202;
      }

      .f {
        fill: #f8f8f7;
      }

      .g {
        fill: #2b2b2b;
      }

      .h {
        fill: #53251d;
      }

      .i {
        fill: #e81f25;
      }

      .j {
        fill: #322c2b;
      }

      .k {
        fill: #f7f7f6;
      }

      .l {
        fill: #3f2a27;
      }

      .m {
        fill: #2e2d2d;
      }

      .n {
        fill: #302c2b;
      }

      .o {
        fill: #30302f;
      }

      .p {
        fill: #362c2b;
      }

      .q {
        fill: #f6f6f5;
      }

      .r {
        fill: #302d2c;
      }

      .s {
        fill: #2a2a2a;
      }

      .t {
        fill: #313130;
      }

      .u {
        fill: #2e2c2c;
      }

      .v {
        fill: #333;
      }

      .w {
        fill: #ea1f25;
      }

      .x {
        fill: #1a1a1a;
      }

      .y {
        fill: #2e2e2e;
      }

      .z {
        fill: #272827;
      }
    </style>
  </defs>
  <path class="i" d="M356.96,3.76c.01,1.68.03,3.36.04,5.04-.05.83-.15,1.66-.15,2.49,0,186.85,0,373.7.02,560.55,0,1.66.14,3.32.22,4.98-.11,1.11-.21,2.22-.32,3.33-13.35.16-26.69.32-40.03.48-2.68-.2-5.36-.4-8.04-.6l-.04-.04c-.06-2.16-.17-4.33-.17-6.49,0-94.46,0-188.92-.01-283.39,0-3.49-.16-6.98-.24-10.48,0-26.99,0-53.97,0-80.96-.17-.02-.35-.05-.52-.07-15.74,127.06-31.48,254.12-47.27,381.63-2.19,0-3.98-.02-5.78,0-11.65.12-23.3.25-34.95.38-6.05.48-7.57-2.33-8.28-8.3-5.19-43.54-10.99-87.01-16.49-130.52-4.17-32.96-8.13-65.94-12.29-98.9-3.28-26.03-6.73-52.03-10.11-78.05-2.71-21.88-5.43-43.76-8.14-65.63-.28.02-.57.03-.85.05v381.02c-2.62,0-4.77-.02-6.91,0-10.64.13-21.29.27-31.93.41-2.76-.29-5.52-.59-8.46-.9V2.74h76.11c.54,2.85,1.03,5.44,1.51,8.03,1.72,17.22,3.33,34.44,5.17,51.64,4.15,38.89,8.43,77.76,12.62,116.64,4.01,37.22,8.01,74.45,11.96,111.68,4.2,39.56,8.33,79.12,12.5,118.68l.69.08c1.26-12.2,2.51-24.39,3.77-36.59,13.01-123.27,26.01-246.53,39.03-369.9,1.35-.21,2.31-.48,3.26-.48,23.82-.03,47.63-.03,71.45-.02.82,0,1.64.2,2.47.31-.05.34.01.65.19.95Z"/>
  <path class="i" d="M1295.82,374.86c13.01-123.92,26.02-247.85,39.1-372.36,5.12,0,9.9,0,14.68,0,10.66,0,21.33.26,31.97-.12,4.79-.17,7.27.86,6.72,6.07-.08.76.43,1.58.67,2.37.17,2.82.24,5.65.54,8.46,2.46,22.98,5,45.94,7.46,68.92,2.57,23.97,5.08,47.95,7.62,71.93,2.49,23.48,5.01,46.95,7.49,70.43,2.44,22.98,4.82,45.97,7.28,68.95,2.21,20.66,4.48,41.32,6.72,61.97,1.71,15.84,3.42,31.69,5.12,47.53.27,0,.54,0,.81.01.97-10.4,1.93-20.79,2.9-31.19.12-.31.14-.63.06-.96.11-.94.22-1.87.33-2.81,1.24-10.55,2.57-21.09,3.7-31.65,2.26-21.17,4.41-42.36,6.61-63.54,2.15-20.68,4.27-41.37,6.46-62.05,2.17-20.51,4.44-41.01,6.61-61.51,1.82-17.21,3.56-34.42,5.35-51.63,2.17-20.85,4.37-41.7,6.56-62.55,1.16-11.09,2.51-22.16,3.36-33.27.3-3.88,1.11-5.54,5.45-5.47,15.64.26,31.29.1,47.49.1,0,1.91,0,3.49,0,5.06-.23.78-.58,1.55-.68,2.35-4.14,33.68-8.21,67.36-12.38,101.04-4.21,34-8.55,67.99-12.78,101.99-3.45,27.73-6.79,55.47-10.25,83.2-3.52,28.21-7.17,56.4-10.69,84.61-3.48,27.88-6.83,55.77-10.3,83.65-4.58,36.8-9.27,73.58-13.75,110.39-.49,4.03-1.71,5.66-6.1,5.58-11.64-.21-23.29.14-34.93.27-6.27.65-8-2.36-8.62-8.41-2.03-19.81-4.86-39.54-7.36-59.31-2.5-19.76-4.97-39.53-7.45-59.29-2.53-20.1-5.04-40.19-7.59-60.29-2.48-19.59-5.01-39.18-7.49-58.78-2.52-19.92-4.98-39.85-7.53-59.77-.82-6.4-1.82-12.78-2.74-19.16-1.49-12.81-2.99-25.62-4.48-38.42-.27-.02-.55-.04-.82-.05-15.06,120.95-30.13,241.89-45.26,363.44h-41.47c-2.13-.24-4.27-.48-6.95-.79-23.95-192.21-47.9-384.43-71.89-577.03h52.56c.45,2.78.86,5.38,1.28,7.98,1.59,14.89,3.19,29.77,4.75,44.66,2.47,23.5,4.86,47,7.37,70.49,2.83,26.47,5.8,52.93,8.63,79.41,3.23,30.11,6.37,60.23,9.55,90.35,3.19,30.12,6.38,60.24,9.59,90.36.78,7.3,1.67,14.59,2.51,21.89.31,0,.63-.01.94-.02,1.09-11.01,2.18-22.02,3.27-33.04Z"/>
  <path class="i" d="M946.99,328.65c-.31-.28-.62-.56-.93-.84-6.74-7.01-15.26-11.24-24.64-11.76-17.93-.99-35.92-.74-53.89-.98-.45,0-.91.31-1.86.65v264.55c-2.47,0-4.41-.02-6.36,0-11.14.12-22.28.25-33.42.38-2.46-.25-4.92-.5-7.69-.78V2.84c1.46-.13,2.9-.38,4.33-.37,39.33.07,78.66-.12,117.98.35,25.56.31,45.07,12.17,58.92,33.54.36.55.79,1.05,1.19,1.57.42.65.84,1.3,1.25,1.95,0,0-.03-.02-.03-.02,4.79,11.05,8.25,22.38,8.24,34.61-.06,60.45-.11,120.9.04,181.35.04,15.88-9.96,29.72-26.08,34.03-1.1.29-2.14.79-2.84,1.06,4.66,1.97,9.21,3.88,13.76,5.8,3.67,4.04,7.34,8.09,11.01,12.13,3.35,7.07,4.15,14.52,4.14,22.3-.11,80.75-.07,161.51-.06,242.26,0,2.11,0,4.22,0,7.14h-39.95c-2.41-.17-4.82-.35-7.22-.52l-.05-.05c-.05-2-.16-3.99-.16-5.99,0-69.43.03-138.87-.04-208.3-.01-13.84-4.37-26.09-14.54-35.9-.36-.38-.73-.76-1.09-1.14ZM946.06,62.74c-6.9-7.1-15.56-11.34-25.16-11.81-17.94-.89-35.93-.63-53.9-.82-.27,0-.55.33-.9.57v216.13h6.79c15.82.03,31.64.08,47.45.07,1.14,0,2.29-.33,3.42-.6,23.37-5.61,38.86-25,38.91-49.09.08-39.14.12-78.29-.08-117.43-.08-14.6-5.38-27.19-16.52-37.02Z"/>
  <path class="i" d="M661.71,518.18c14.65,13.57,31.7,18.59,50.54,11.39,19.36-7.4,31.15-22.27,31.48-43.23.72-46.48.21-92.99.2-139.48.11-2.41.22-4.82.34-7.51h-40.37c-2.36-.14-4.72-.28-7.07-.42l-.03-.04c0-15.69,0-31.39,0-47.08l.03-.04c31.21-.03,62.42-.06,93.63-.08.3,0,.59.22,1.22.48.17,2.45.35,5.05.52,7.65-.07,3.16-.2,6.32-.2,9.48-.01,65.44,0,130.89-.05,196.33,0,4.64-.31,9.31-.91,13.91-4.31,32.67-32.27,58.88-65.12,60.46-14.79.71-29.64-.15-44.45.36-15.57.54-30.5-1.36-44.48-8.64,0,0,.04.07.04.07-.4-.26-.8-.53-1.2-.79,0,0-.08-.04-.08-.04-.63-.31-1.26-.62-1.88-.94-9.85-7.74-19.07-16-25.11-27.32-5.76-10.79-8.86-22.25-8.87-34.39-.07-144.67-.17-289.33.04-434,.06-37.79,30.81-72.4,73.44-71.84,16.16.21,32.33-.02,48.49.25,23.93.39,42.85,10.59,57.02,29.79.59.8,1.23,1.55,1.85,2.32.4.62.79,1.25,1.19,1.88,0,0,.02.04.02.04.27.45.54.91.8,1.36.34.57.68,1.13,1.01,1.7,7.06,14.41,8.7,29.72,8.34,45.57-.43,18.63-.1,37.27-.1,55.91,0,1.74,0,3.49,0,5.68h-47.91c0-2.04,0-3.61,0-5.19,0-14.31.03-28.61-.01-42.92-.04-13.83-5.29-25.46-15.07-35.13-.38-.33-.75-.66-1.13-.99,0,0,.03.02.03.02-.96-.75-1.93-1.49-2.89-2.24,0,0,.06.05.06.05-1.69-1.31-3.25-2.85-5.09-3.89-32.28-18.29-72.21,4.59-72.25,41.7-.12,128.85-.04,257.7.04,386.54,0,12.91,5.45,23.77,13.93,33.24Z"/>
  <path class="i" d="M1038.94,580.61c-2.79-.23-5.57-.47-8.83-.74,23.95-192.32,47.89-384.5,71.86-577.01h48.43c.57,2.8,1.09,5.36,1.61,7.93,2.85,23.78,5.64,47.56,8.55,71.33,3.09,25.26,6.3,50.51,9.43,75.76,3.45,27.89,6.83,55.78,10.31,83.66,3.51,28.21,7.14,56.41,10.64,84.62,3.19,25.74,6.22,51.5,9.42,77.24,3.48,28.05,7.09,56.08,10.61,84.12,3.29,26.22,6.55,52.45,9.78,78.67.56,4.52.91,9.06,1.4,14.06-2.62,0-4.42-.01-6.23,0-12.98.12-25.96.24-38.94.36-2.13-.24-4.26-.48-7.19-.81-4.72-44.93-9.45-89.98-14.18-135.04-.31-2.77-.63-5.53-.97-8.52h-55.98c-5.25,48-10.49,95.82-15.77,144-2.77,0-4.91-.02-7.05,0-12.3.11-24.6.23-36.91.35ZM1131.08,212.71c-1.28-13.48-2.56-26.96-3.84-40.44-.33.04-.66.08-.99.11-7.58,71.73-15.16,143.45-22.77,215.46h46.33c-1.32-12.24-2.6-23.79-3.8-35.36-1.82-17.52-3.55-35.06-5.37-52.58-1.87-18.02-3.75-36.04-5.7-54.06-1.2-11.05-2.56-22.09-3.85-33.13Z"/>
  <path class="i" d="M1548.87,440.91c.16-1.45.32-2.9.51-4.58h46.58c.3,2.98.58,5.74.85,8.49.07,14.95-.3,29.93.35,44.85.46,10.63,5.22,19.79,12.89,27.3,14.41,15.02,34.35,19.62,52.93,12.22,17.81-7.09,30.21-25.68,30.09-45.57-.14-24.49-.27-48.98-.81-73.46-.55-24.64-11.65-45.08-26.84-63.57-13.53-16.46-29.73-30.03-47.22-42.1-32.46-22.39-51.94-53.64-62.1-91.21-4.76-17.59-6.99-35.55-7.06-53.74-.1-28.33-.08-56.67-.01-85,.1-39.15,31.04-70.93,70.19-71.77,18.49-.39,37.02-.73,55.48.15,21.83,1.04,39.38,11.05,52.45,28.69.79,1.07,1.61,2.11,2.42,3.17.49.7.98,1.4,1.47,2.1,0,0-.04-.05-.04-.05,8.62,15.44,10.65,32.14,10.22,49.53-.45,18.27-.1,36.56-.1,54.85v5.75h-40.01c-2.47-.11-4.93-.22-8-.35v-7.95c0-13.13.02-26.26,0-39.4-.03-13.4-4.77-24.9-14.15-34.47-11.09-11.77-24.76-15.97-40.62-14.04-23.29,2.84-42.89,26-41.96,48.95.94,23.09,1.29,46.2,1.79,69.3.46,21.43,7.03,40.7,19.96,57.8,0,0,0,0,0,0,.99,1.36,1.98,2.71,2.96,4.07,0,0-.02-.03-.02-.03.31.39.62.79.92,1.18,0,0-.07-.04-.07-.04.72.96,1.44,1.92,2.16,2.87,12.04,15.51,26.55,28.47,42.63,39.52,18.01,12.38,33.68,26.97,46.22,44.87.56.79.88,1.75,1.31,2.63.27.38.54.75.81,1.13,0,0-.06-.04-.06-.04,19.58,33.27,25.76,69.82,26.11,107.72.21,22.15.11,44.3,0,66.45-.03,6.97-.12,13.99-.91,20.91-4.06,35.4-34.07,62.08-69.76,62.22-13.82.05-27.66-.35-41.47.11-14.23.48-27.82-1.6-40.76-7.61,0,0,.03.04.03.04-1.06-.59-2.13-1.17-3.19-1.76,0,0-.1-.06-.1-.06-.27-.03-.54-.06-.81-.09-22.93-16.04-35.8-37.45-35.22-66.03,0-21.32,0-42.63-.01-63.95Z"/>
  <path class="i" d="M444.68,518.15c13.45,12.73,29.28,17.66,47.19,12.59,18.09-5.12,29.53-17.63,33.71-35.85,1.71-7.48,1.24-15.51,1.38-23.29.2-10.48-.06-20.97.17-31.45.03-1.37,1.79-3.86,2.77-3.87,14.77-.25,29.55-.17,44.7-.17.19,3.2.36,5.97.52,8.73-.07,21.82-.04,43.65-.24,65.47-.36,38.6-32.09,69.92-70.73,69.96-12.66.01-25.34-.32-37.99.08-15.33.49-30.25-.7-44.27-7.56,0,0,.03.04.03.04-1.7-1-3.39-2-5.09-2.99,0,0,.05.04.05.04-.37-.28-.75-.56-1.12-.84,0,0-.12-.05-.12-.05-.59-.41-1.18-.81-1.77-1.22-15.28-11.77-26.02-26.51-29.56-45.81-.83-4.56-1.45-9.24-1.45-13.87-.08-144.46-.16-288.92,0-433.38.04-38.35,31.02-72.61,73.08-72.2,15.66.15,31.32,0,46.98.11,27.37.18,48.06,12.3,62.57,35.31.42.65.85,1.3,1.27,1.96,0,0-.03-.03-.03-.03,7.02,14.41,8.7,29.69,8.31,45.54-.45,18.62-.11,37.26-.11,55.89v5.68h-40.1c-2.45-.12-4.89-.25-7.82-.4,0-13.08-.02-25.86,0-38.64.02-8.81.99-17.94-3.24-25.96-3.57-6.78-8.56-12.81-12.91-19.18-.36-.32-.72-.63-1.07-.95,0,0-.02-.01-.02-.01-2.23-1.7-4.31-3.66-6.71-5.05-30.79-17.73-71.66,2.35-72.32,41.96-.45,27.31-.09,54.63-.09,81.94,0,100.93.03,201.86.01,302.79,0,13.49,5.09,24.84,14.02,34.68Z"/>
  <path class="w" d="M77.71,280.13c-1.35-.03-2.69-.05-4.04-.08-.63,0-1.26,0-1.9,0-.68-1.73-1.96-3.46-1.96-5.2-.12-33.1-.02-66.2-.16-99.29-.02-5.75-.79-11.57-6.6-14.95-1.26-5.25-5.85-7.21-10.02-7.7-9.93-1.15-19.99-1.2-30.5-1.71v128.93H7.69c-2.47-.15-4.93-.29-7.69-.46V.55C.56.36,1.01.07,1.46.06,19.61.03,37.76-.04,55.9.03c13.12.05,23.92,4.86,31.58,15.87.75,1.29,1.49,2.59,2.24,3.88,0,0,0,0,0,0,1,7.16,2.76,14.31,2.86,21.49.35,25.25-.16,50.52.27,75.77.19,11.13-2.37,19.73-12.96,22.65,3.03,2.21,6.4,4.67,9.77,7.13.8,1.66,1.6,3.32,2.4,4.97.22,2.14.63,4.28.63,6.42.04,38.83.03,77.66.02,116.49,0,1.61-.14,3.22-.25,5.43h-14.75ZM63.76,31.77c-3.58-2.53-6.9-6.68-10.78-7.29-9.85-1.55-19.94-1.52-29.94-2.12v106.17c2.48-.19,4.58-.35,6.69-.51,5.64.16,11.28.46,16.91.46,11.84,0,22.93-10.7,23.02-22.48.16-19.98.1-39.95.01-59.93-.02-5.49-1.84-10.41-5.92-14.3Z"/>
  <path class="k" d="M1552.9,696.86c-5.06,9.03-9.9,18.2-15.31,27.01-1.63,2.66-4.21,6.45-8.19,3.99-.67-.41.94-5.82,2.48-8.31,6.02-9.7,12.67-19.06,14.6-30.67.24-1.47.08-3.36-.65-4.59-6.05-10.2-4.43-20.33-.03-30.47,1.5-3.45,3.59-6.81,7.82-6.63,4.57.2,4.58,4.52,5.67,7.71.22,3.78.98,7.62.55,11.32-.71,6.08,1.79,9.76,7.1,12.04,5.36,4.63,12.62,7.27,15.35,14.65,0,4.4.44,8.85-.06,13.2-1.14,9.98-3.18,19.87-3.98,29.86-.56,6.93,2.49,8.31,8.87,5,7.36-7.28,14.69-14.6,22.11-21.83,5.6-5.46,6.46-12.66,8-19.8,1.17-5.4,3.08-10.81,5.65-15.68,1.26-2.39,4.57-4.29,7.35-5.17,5.62-1.8,7.84.3,7.83,6.37-1.6,4.85-3.46,9.64-4.74,14.57-2.94,11.32-4.63,22.78-1.3,34.33,1.59,5.51,3.8,6.37,9.17,4.24,5.13-4.33,10.25-8.66,15.37-13,.25-.21.38-.55.61-.78,7.82-7.69,9.84-16.68,9.18-27.74-1.76-29.3,1.82-58.12,13.94-85.16,4.01-8.95,10.32-16.87,15.58-25.26,4.66-3.72,9.31-7.45,15.93-5.53,2.24,2.47,4.47,4.94,6.71,7.4.19.36.38.71.58,1.07v-.03c.14,6.28,1.15,12.68.3,18.83-4.37,31.54-15.7,60.5-33.41,86.97-1.38,2.06-3.32,4.21-3.58,6.48-1.34,11.51-.88,22.98,4.23,33.63,1.09,2.27,4.26,3.53,6.48,5.26,3.38-1,7.29-1.25,10.06-3.14,9.48-6.49,16.43-15.44,22.03-25.38.86-1.54.75-3.8.61-5.7-2.33-32.25.65-63.8,13.36-93.82,3.33-7.86,8.39-15.01,12.94-22.31,1.37-2.2,3.57-3.95,5.63-5.63,8.58-6.98,16.13-5.19,20.54,4.76.1,6.92,1.14,13.99.13,20.74-4.61,30.93-15.88,59.38-33.31,85.38-1.46,2.18-3.39,4.54-3.63,6.96-1.09,11-.57,21.99,4.06,32.22,1.11,2.46,4.34,3.95,6.6,5.89,3.52-1.04,7.58-1.3,10.47-3.27,10.06-6.85,16.98-16.63,23.13-26.95,1.61-2.7,3.23-5.16,8.02-3.28-.66,2.56-.79,5.58-2.15,7.88-7.19,12.2-15.53,23.52-26.86,32.31-5.71,3.34-11.46,6.53-18.45,5.83-7.49-2.22-10.57-8.69-14.18-14.66-1.5-5.06-2.99-10.12-4.29-14.52-6.63,7.02-12.99,14.45-20.1,21.08-6.19,5.77-13.57,9.55-22.61,7.53-6.53-3.16-9.46-9.33-12.72-15.22-.8-2.3-1.6-4.59-2.4-6.89-.45-2.47-.9-4.94-1.14-6.24-8.88,7.68-17.83,15.41-26.78,23.14-4.32.73-8.64,1.46-12.96,2.19-3.36-3.36-6.71-6.71-10.07-10.07-.95-2.68-1.9-5.36-2.85-8.05-.2-2.08-.4-4.17-.52-5.45-9.17,8.11-18.39,16.26-27.6,24.41-3.66.74-7.32,1.48-10.98,2.23-9.09-3.71-10.52-11.9-10.84-20.05-.36-9.08.55-18.2.66-27.31.02-1.96-1.02-3.94-1.56-5.91-1.37-5.18-5.45-6.85-10.37-8.36-.76,2.37-1.4,4.38-2.04,6.39ZM1770.18,605.06c.16-.7.33-1.4.49-2.09.07-1.01.15-2.02.22-3.03.07-1.32.46-2.72.15-3.94-.54-2.1-1.51-4.09-2.3-6.13-2.26,1.04-5.08,1.57-6.63,3.26-2.17,2.37-4.04,5.42-4.93,8.5-5.17,17.91-10.45,35.81-14.78,53.93-1.94,8.13-1.75,16.76-2.53,25.16.53.12,1.06.24,1.59.35,2.88-5.71,5.76-11.43,8.63-17.14,2.8-5.75,5.91-11.37,8.33-17.27,5.48-13.4,10.6-26.95,11.75-41.6ZM1690.34,664.72c2.8-5.57,5.96-10.98,8.32-16.73,5.93-14.47,11.5-29.1,12.5-44.96.24-2.94.81-5.91.57-8.82-.12-1.53-1.39-3.77-2.63-4.18-1.37-.45-3.9.33-4.87,1.47-2.34,2.74-4.65,5.77-5.95,9.08-7.64,19.37-13.1,39.37-15.99,60-.94,6.72-.96,13.56-1.4,20.35.45.07.9.15,1.36.22,2.7-5.48,5.41-10.95,8.11-16.43Z"/>
  <path class="i" d="M39.7,551.8c7.05,5.95,15.1,6.86,23.24,3.38,8.55-3.65,13.61-10.59,14.08-20.05.4-8.1.08-16.24.08-24.71h23.15c.17,2.93.34,5.7.5,8.47-.06,8.47-.14,16.94-.19,25.42-.1,17.29-11.85,33.64-28,35.06-15.17,1.34-30.84,3.14-45.84-2.47-14.04-8.18-19.55-20.39-19.47-36.58.37-67.66.14-135.32.16-202.98,0-16.97,7.94-29.33,22.43-34.85,2.6-.99,5.46-1.79,8.2-1.81,11.47-.11,23-.49,34.41.4,10.32.81,17.27,7.85,23.18,15.81.37.62.74,1.23,1.1,1.85.09.36.18.72.27,1.09.23.35.47.7.7,1.05,0,0-.02-.02-.02-.02,5.15,16.01,1.92,32.4,2.98,49.32h-14.99c-2.46-.14-4.93-.28-8.24-.48,0-6.83.06-13.69-.02-20.55-.07-6.03-1.02-11.83-5.35-16.5-5.15-7.59-15.25-11.21-24.22-8.67-9.77,2.76-17.04,11.53-17.22,21.53-.24,13.16-.08,26.32-.08,39.49,0,49.32,0,98.64.02,147.95,0,7.74,2.45,14.32,9.12,18.85Z"/>
  <path class="k" d="M1337,748.06c-6.92-2.81-10.2-8.79-13.08-15.1-1.28-4.68-2.56-9.36-3.9-14.26-5.26,4.82-10.02,9.64-15.27,13.87-6.38,5.15-12.79,10.58-21.76,10.55-2.56-2-5.12-4.01-7.68-6.01-1.02-3.39-2.04-6.77-3.17-10.52-9.14,7.98-17.15,17.99-31.14,16.31-7.45-3.51-9.55-10.2-9.94-17.57-.37-7.11-.15-14.25-.19-21.37v-13.14l-1.55-1.09c-3.06,2.95-6.47,5.63-9.13,8.91-10.54,12.99-18.05,27.8-25.29,42.78-1.75,3.62-4.66,6.69-7.04,10.01-3.04,1.17-5.49.7-7.01-2.46v-20.33c-.72.9-1.73,2.35-2.92,3.63-7.94,8.57-15.85,17.23-28.97,16.95-5.6-1.75-7.81-6.55-10.14-11.25-.97-5.96-1.94-11.92-2.95-18.17-3.2,4.3-6.13,8.67-9.5,12.66-5.15,6.11-10.5,12.13-19.4,12.55-7.92-3.66-9.36-11-9.88-18.44-.88-12.61,3.87-23.88,10.58-34.03,4.69-7.09,10.46-13.82,17-19.2,4.26-3.5,10.63-5.02,16.31-6.06,5.16-.94,7.18,2.01,6.8,7.57-3.95,2.42-8.11,4.54-11.8,7.3-14.75,11.05-24.37,25.27-25.85,44.08-.18,2.35,1.29,4.84,1.99,7.26,2.01-1.16,4.01-2.32,6.02-3.48,10.27-11.02,16.86-24.24,22.77-37.88,4.75-8.29,5.97-8.9,12.01-6.08-.05,1.94-.11,3.88-.16,5.82-1.88,6.93-4.61,13.77-5.39,20.83-.8,7.13-.05,14.51.78,21.69.37,3.23,1.51,7.58,6.9,5.74,8.59-2.3,13.2-9.61,19.25-15.15,11.45-10.48,12.97-24.83,15.67-38.77,1.04-5.36,1.76-10.81,3.16-16.08.73-2.76,2.28-5.47,4.05-7.74,2.58-3.31,6.72-4.58,10.22-2.82,1.95.98,2.49,4.79,3.66,7.32-3.59,13.39-7.17,26.77-10.76,40.16.39.12.78.23,1.17.35,5.14-6.65,10.27-13.3,15.41-19.95,2.98-2.9,5.82-5.95,8.96-8.66,8.14-7.03,13.21-5.73,16.95,4.16.08,7.92.2,15.84.24,23.77.03,6.46-.22,12.93.03,19.38.16,4.15,1.64,7.61,6.97,6.74,4.06-2.3,8.79-3.89,12.03-7.04,6.41-6.24,11.37-13.59,14.58-22.23,4.17-11.22,11.66-19.99,22.44-25.65,6.81-3.58,13.27-3.38,18.69.02,3.35-16.4,6.27-33.29,10.42-49.86,2.18-8.72,5.99-17.17,10.11-25.22,2.49-4.87,6.44-9.33,10.65-12.9,7.99-6.8,12.7-5.47,17.4,3.9,3.51,11.4,1.66,22.7-.83,33.93-5.76,26.01-16.77,50.05-27.77,74.11-1.64,3.58-2.61,7.93-2.33,11.81.49,6.68,1.8,13.38,3.55,19.86.99,3.65,4.02,5.68,8.17,3.41,8.01-2.15,13.11-8.15,18.02-14.14,3.88-4.72,6.93-10.11,10.72-14.91,1.26-1.59,3.69-2.27,5.58-3.36.22,2.26,1.47,5.2.5,6.66-5.4,8.09-11.02,16.09-17.21,23.58-3.19,3.86-7.73,6.6-11.66,9.85-5.35,1.13-10.7,2.25-16.05,3.38ZM1318.67,697.98v-8.78c-18.25-2.8-39.38,31.23-33.86,45.58,2.47-1.14,4.89-2.25,7.31-3.37,7.41-6.52,14.86-13.02,22.23-19.59,4.17-3.72,5.6-8.39,4.32-13.85ZM1358.82,614.91c.04-1,.09-1.99.13-2.99.66-4.31,2.12-8.69-1-12.95-5.39,2.88-7.47,7.99-8.75,12.96-4.69,18.25-9.07,36.59-13.1,55-1.52,6.96-1.79,14.2-2.64,21.31.58.14,1.15.27,1.73.41l10.14-26.57c6.79-14.34,10.58-29.56,13.09-45.14.13-.68.26-1.35.4-2.03Z"/>
  <path class="f" d="M1444.2,791.62c-3.31-2.7-6.99-5.08-9.75-8.25-1.21-1.39-.56-4.4-.75-6.68,2.01.48,4.58.33,5.94,1.54,18.32,16.27,32.42,7.42,40.83-7.33,8.41-14.75,11.77-31.09,14.57-47.58.47-2.76.65-5.58.96-8.37.74-8.29,1.47-16.59,2.21-24.88.21-.32.45-.62.6-.97.03-.08-.27-.3-.42-.45-.13.41-.26.82-.38,1.23-.97,1.26-1.95,2.51-2.9,3.79-7.98,10.75-15.24,22.14-24.13,32.07-9.84,10.98-21.5,19.93-37.86,18.1,0,0,.03.02.03.02-.37-.21-.74-.43-1.12-.64-11.02-5.63-13.4-16.03-13.89-26.84-1.01-22.35,7.11-42.25,18.25-61,10.16-17.1,22.93-31.76,41.4-40.48,12.68-5.98,25.7-6.78,38.5-1.24,3.63,1.57,5.99,6.08,8.94,9.24-.54,8.11-.84,8.23-8.36,5.11-2.4-1-5.01-1.77-7.58-2.03-13.97-1.37-25.71,3.71-35.89,12.92-16.3,14.74-26.99,33.14-34.06,53.66-3.57,10.37-5.92,21.14-3.27,32.25.86,3.6,2.26,6.78,6.98,5.96,4.62-2.72,9.94-4.7,13.76-8.28,22.97-21.5,39.11-47.36,48.21-77.57.64-2.11,1.57-4.95,3.2-5.76,2.57-1.28,6.22-2.13,8.7-1.22,1.71.62,2.23,4.52,3.29,6.95-1.17,24.94-3.9,49.7-9.22,74.11-4.29,19.67-9.79,38.93-21.11,55.98-11.74,17.7-25.81,22.84-45.7,16.62Z"/>
  <path class="k" d="M792.88,753.02c-8.15-.52-8.59-.57-7.77-8.73,2.2-21.79,4.53-43.57,7.36-65.28,2.01-15.42,4.91-30.73,7.41-46.09.74-2.82,1.48-5.64,2.42-9.24-4.28.5-7.85.92-11.43,1.34l-3.99.29c-.74.17-1.48.33-2.21.5-1.65.15-3.36.63-4.93.35-1.5-.27-2.86-1.33-4.28-2.05,1.03-1.33,1.84-3.46,3.14-3.83,3.97-1.11,8.11-1.64,12.21-2.22,4.1-.57,8.24-.93,12.84-1.43,3.08-12.37,5.12-26.26,23.85-24.92-.63,2.81-1.12,5-1.62,7.19-1.36,5.5-2.73,11-4.2,16.92,3.4,0,6.32,0,9.24,0,10.7,1.71,21.47,3.08,32.08,5.25,6.12,1.25,11,5.02,13.92,10.85-1.54,4.41-1.99,9.79-4.87,13.01-5.21,5.85-11.46,11.02-18.01,15.36-6.76,4.48-14.4,7.64-21.39,11.23,5.62,1.73,11.45,3.51,17.27,5.3,6.6,3.95,13.43,7.58,19.71,11.98,2.68,1.88,4.24,5.37,6.3,8.12.15,2.95.7,5.94.37,8.84-.9,7.78-5.7,13.46-11.48,18.04-16.82,13.31-36.75,18.55-57.55,21.35-1.55.21-3.82.85-4.34,1.95-2.07,4.46-5.72,5.63-10.06,5.91ZM863.91,633.92h0c-2.29-1.74-4.34-4.25-6.92-5.1-11.87-3.92-24.15-5.2-36.99-4.93-2.47,14.31-4.9,28.36-7.44,43.06,3.74-1.22,6.54-2.13,9.34-3.05,12.58-3.12,24.49-7.89,35.27-15.09,4.73-3.16,8.93-7.13,7.45-13.87-.24-.34-.47-.67-.71-1.01ZM859.06,693.87c-9.01-8.95-20.98-11.52-32.51-14.93-4.99-1.47-10.21-2.15-15.57-3.23-3,19.61-7.31,38.4-5.77,58.33,2.55-.48,4.63-.87,6.71-1.26,4.85-.96,9.95-1.3,14.51-3.02,10.46-3.96,21.25-7.6,30.81-13.23,10-5.89,10.01-14.71,1.82-22.66Z"/>
  <path class="j" d="M1415.02,580.64c11.64-.13,23.29-.48,34.93-.27,4.39.08,5.61-1.55,6.1-5.58,4.49-36.81,9.17-73.59,13.75-110.39,3.47-27.88,6.82-55.77,10.3-83.65,3.52-28.21,7.17-56.4,10.69-84.61,3.46-27.73,6.8-55.47,10.25-83.2,4.23-34,8.57-67.99,12.78-101.99,4.17-33.67,8.24-67.36,12.38-101.04.1-.8.45-1.57.68-2.35.12.99.24,1.98.36,2.96,7.44.62,7.14.58,6.1,8.12-1.96,14.25-3.49,28.57-5.3,42.85-2.2,17.39-4.57,34.76-6.74,52.16-1.52,12.15-2.8,24.33-4.26,36.49-1.36,11.33-2.84,22.66-4.25,33.99-1.26,10.17-2.46,20.36-3.75,30.53-1.76,13.95-3.6,27.89-5.36,41.84-1.24,9.85-2.41,19.7-3.62,29.55-1.4,11.33-2.82,22.66-4.22,33.99-1.27,10.34-2.5,20.69-3.8,31.02-1.43,11.49-2.95,22.97-4.37,34.46-1.58,12.8-3.06,25.62-4.64,38.43-.98,7.88-2.1,15.74-3.11,23.62-1.32,10.33-2.57,20.68-3.87,31.01-1.38,11-2.78,21.99-4.14,33-1.32,10.67-2.57,21.34-3.89,32.01-1.66,13.46-3.22,26.94-5.22,40.35-.23,1.52-3.04,3.74-4.7,3.78-12.65.32-25.32.17-37.98.18-5.19,0-5.22-3.56-5.11-7.26Z"/>
  <path class="q" d="M944.97,740.12c2.97-1.71,6.31-3,8.86-5.2,13.43-11.6,23.19-25.75,28.61-42.75,1.08-3.38.92-6.33-.85-9.77-5.72-11.11-3.26-21.9,2.98-31.96,1.07-1.72,4.16-3.18,6.16-3,1.57.14,2.97,2.94,4.28,4.69.57.76.69,1.85,1.02,2.79.21,3.41,1.1,6.95.47,10.2-1.34,6.91,1.66,10.87,7.48,13.54,4.88,4.48,9.76,8.96,14.64,13.43-.08,5.7.22,11.44-.32,17.1-.87,9.17-2.66,18.27-3.33,27.45-.44,6.02,1.76,7.11,7.69,5,11.1-6.16,18.04-16.42,25.73-25.96.62-.77.98-1.9,1.76-2.38,1.74-1.07,3.67-1.82,5.53-2.71.04,2.43,1.05,5.5-.05,7.19-7.97,12.15-17.21,23.19-29.69,31.09-.4.25-.72.61-1.08.92-3.31.79-6.62,1.57-9.94,2.36-7.39-2.02-11.66-8.02-11.95-18.41-.27-9.43.38-18.88.41-28.32,0-2.18-.84-4.35-1.3-6.53-1.82-4.64-5-7.48-10.17-7.7-.16.48-.33.95-.49,1.43-.14.12-.26.25-.37.39-1.04,2.41-2.1,4.82-3.13,7.24-8.43,19.63-20.37,36.36-39.09,47.52-3.64.44-7.28.88-10.92,1.32-5.48-2.27-7.49-7.36-9.9-12.13-.81-5.59-1.63-11.18-2.48-17.01-3.75,4.94-7.06,9.87-10.96,14.28-4.7,5.31-9.65,10.59-17.64,10.61-7.65-2.91-9.34-9.66-9.93-16.57-1.44-16.71,5.97-30.52,15.46-43.37,6.19-8.38,13.64-15.39,24.4-17.57,6.95-1.41,10.18.56,11.09,6.64-3.03,2.04-5.99,4.18-9.09,6.1-8.93,5.55-16.04,12.91-21.41,21.86-4.77,7.94-7.58,16.6-7.56,25.96,0,1.85,1.01,3.69,1.56,5.54,1.75-.67,3.52-1.27,5.23-2.04.54-.24.87-.93,1.3-1.41,9.86-10.75,16.39-23.5,22.14-36.72,2.62-4.56,4.19-10.62,11.71-8.09.02,2.92.03,5.84.05,8.77-1.52,4.99-4.02,9.91-4.36,14.98-.59,8.68-.15,17.48.54,26.17.26,3.26,1.97,7.03,6.93,5.05Z"/>
  <path class="c" d="M1176.97,580.63c12.98-.12,25.96-.24,38.94-.36,1.81-.02,3.61,0,6.23,0-.49-5-.84-9.54-1.4-14.06-3.23-26.23-6.49-52.45-9.78-78.67-3.52-28.04-7.12-56.07-10.61-84.12-3.19-25.74-6.22-51.5-9.42-77.24-3.5-28.21-7.13-56.41-10.64-84.62-3.47-27.88-6.85-55.78-10.31-83.66-3.13-25.26-6.34-50.5-9.43-75.76-2.91-23.77-5.7-47.55-8.55-71.33,4.96-.94,6.43,2.01,6.94,6.15,2.96,23.8,6.03,47.59,8.9,71.41,2.5,20.7,4.64,41.44,7.2,62.13,2.42,19.53,5.25,39.01,7.74,58.54,1.87,14.71,3.39,29.46,5.24,44.16,1.46,11.65,3.31,23.26,4.78,34.91,1.84,14.61,3.39,29.26,5.19,43.88,2.22,18.06,4.6,36.1,6.83,54.16,1.78,14.45,3.39,28.93,5.19,43.38,1.51,12.15,3.29,24.26,4.76,36.41,1.53,12.65,2.74,25.34,4.26,37.99,1.48,12.32,3.18,24.61,4.75,36.91,1.75,13.62,3.46,27.25,5.2,40.88.54,4.26-.63,6.44-5.62,6.32-12.49-.3-25-.08-37.49-.11-8.84-.02-6.89.35-8.89-7.27Z"/>
  <path class="d" d="M356.78,580.14c.11-1.11.21-2.22.32-3.33.23-2.11.66-4.22.66-6.34.04-186.57.04-373.15.05-559.72,4.77-.75,6.09,1.22,6.09,6.02-.12,188.06-.12,376.12,0,564.19,0,4.86-1.39,6.19-6.15,6.07-12.65-.32-25.32-.12-37.98-.12-.98-.33-1.96-.66-2.94-1,0-1.65-.02-3.3-.03-4.96,10.74-.01,21.49.03,32.23-.07,2.58-.02,5.16-.49,7.74-.75Z"/>
  <path class="u" d="M444.68,518.15c-8.93-9.84-14.02-21.19-14.02-34.68.02-100.93,0-201.86-.01-302.79,0-27.31-.37-54.64.09-81.94.66-39.61,41.53-59.69,72.32-41.96,2.41,1.39,4.48,3.35,6.71,5.05-4.45-1.11-8.89-2.29-13.36-3.3-22.26-5.03-47.78,8.43-55.13,30.97-2.3,7.07-3.54,14.02-3.54,21.42.08,127.1.07,254.21.03,381.31,0,7.5,1.62,14.42,5.63,20.82.88,1.41.87,3.39,1.27,5.1Z"/>
  <path class="u" d="M661.71,518.18c-8.48-9.48-13.92-20.33-13.93-33.24-.08-128.85-.16-257.7-.04-386.54.04-37.11,39.97-59.99,72.25-41.7,1.84,1.04,3.4,2.58,5.09,3.89-2.57-.49-5.18-.86-7.72-1.48-24.05-5.9-49.89,5.57-58.65,29.21-2.34,6.32-3.93,12.47-3.92,19.26.09,128,.07,256.01.05,384.01,0,7.82,1.9,15.06,5.69,21.88.76,1.37.81,3.13,1.18,4.71Z"/>
  <path class="b" d="M219.72,580.61c11.65-.13,23.3-.25,34.95-.38,1.8-.02,3.59,0,5.78,0,15.79-127.51,31.53-254.57,47.27-381.63.17.02.35.05.52.07,0,26.99,0,53.97,0,80.96-.28-3.23-.56-6.45-.84-9.68-.15,0-.29,0-.44,0-2.41,20.16-4.73,40.34-7.25,60.49-2.15,17.22-4.64,34.39-6.76,51.61-2.2,17.88-4.05,35.81-6.24,53.7-1.74,14.27-3.83,28.5-5.64,42.76-1.52,11.97-2.86,23.97-4.31,35.95-1.74,14.28-3.54,28.55-5.28,42.83-.94,7.71-1.88,15.42-2.73,23.14-.77,7.02-1.19,7.47-8.2,7.47-10.99,0-21.98,0-32.97,0-6.66,0-6.84-.17-7.87-7.29Z"/>
  <path class="j" d="M1274.21,580.6h41.47c15.14-121.54,30.2-242.49,45.26-363.44.27.02.55.04.82.05,1.49,12.81,2.99,25.62,4.48,38.42-1.4,5.11-3.37,10.15-4.1,15.36-2.23,15.89-4.05,31.83-5.91,47.77-1.82,15.62-3.38,31.26-5.27,46.87-1.61,13.3-3.58,26.56-5.31,39.86-1.6,12.3-3.09,24.62-4.64,36.93-1.76,13.96-3.56,27.91-5.29,41.86-1.28,10.34-2.43,20.7-3.73,31.04-2.24,17.89-4.56,35.77-6.81,53.66-.56,4.44-1.01,8.89-1.49,13.34-.44,4.13-2.34,5.84-6.85,5.69-10.82-.36-21.66-.12-32.49-.11q-8.04,0-10.16-7.3Z"/>
  <path class="p" d="M636.99,571.72c13.97,7.27,28.9,9.17,44.48,8.64,14.8-.51,29.66.36,44.45-.36,32.85-1.58,60.81-27.79,65.12-60.46.61-4.6.91-9.27.91-13.91.06-65.44.04-130.89.05-196.33,0-3.16.13-6.32.2-9.48q6.69.14,6.7,6.66c0,71.83.63,143.66-.34,215.48-.35,25.67-14.29,44.79-37.08,57.35-13.06,7.2-26.98,8.63-41.37,8.6-14-.03-28.01.39-41.99-.11-14.33-.51-27.64-4.78-39.32-13.4-.81-.6-1.21-1.77-1.8-2.67Z"/>
  <path class="r" d="M124.71,580.69c10.64-.14,21.29-.28,31.93-.41,2.14-.03,4.29,0,6.91,0V199.26c.28-.02.57-.03.85-.05,2.71,21.88,5.43,43.76,8.14,65.63-.6,1.85-1.72,3.71-1.73,5.56-.1,37.17-.07,74.34-.07,111.51,0,66.34,0,132.68,0,199.03q0,6.95-6.9,6.96c-10.67,0-21.34,0-32,0q-7.08,0-7.13-7.21Z"/>
  <path class="j" d="M1711.78,580.51c-6.62-1.92-11.27,1.81-15.93,5.53-22.52.62-45.04,1.61-67.57,1.72-13.06.06-25.5-3.49-36.64-10.64-1.48-.95-2.32-2.88-3.46-4.36,12.94,6.01,26.53,8.08,40.76,7.61,13.81-.46,27.64-.06,41.47-.11,35.69-.14,65.71-26.81,69.76-62.22.79-6.92.87-13.94.91-20.91.11-22.15.21-44.3,0-66.45-.35-37.91-6.53-74.45-26.11-107.72,3.07,3.69,6.75,7.02,9.11,11.12,11.38,19.74,17.39,41.28,21.16,63.66,4.2,24.97,2.5,50.06,2.86,75.12.21,14.66.14,29.32.02,43.98-.21,24.21-10.24,43.45-29.62,57.91-2.36,1.76-4.47,3.84-6.7,5.77Z"/>
  <path class="n" d="M825.89,580.65c11.14-.13,22.28-.26,33.42-.38,1.95-.02,3.89,0,6.36,0v-264.55c.95-.34,1.41-.66,1.86-.65,17.97.24,35.96,0,53.89.98,9.38.52,17.9,4.74,24.64,11.76-1.73-.49-3.44-1.06-5.2-1.47-5.14-1.2-10.26-3.18-15.44-3.33-14.99-.45-30-.17-45-.17q-7.52,0-7.52,7.34c0,83.34,0,166.68,0,250.03q0,7.7-7.65,7.7c-10.67,0-21.34,0-32,0q-7.2,0-7.36-7.26Z"/>
  <path class="c" d="M1295.82,374.86c-1.09,11.01-2.18,22.02-3.27,33.04-.31,0-.63.01-.94.02-.84-7.3-1.73-14.59-2.51-21.89-3.22-30.12-6.4-60.24-9.59-90.36-3.19-30.12-6.33-60.24-9.55-90.35-2.84-26.47-5.8-52.93-8.63-79.41-2.51-23.49-4.9-47-7.37-70.49-1.56-14.89-3.17-29.77-4.75-44.66,4.7-.81,6.4,1.38,6.87,5.92,1.79,17.26,3.95,34.49,5.82,51.74,1.49,13.81,2.67,27.66,4.15,41.47,1.51,14.14,3.32,28.24,4.82,42.38,1.5,14.14,2.66,28.33,4.19,42.47,1.41,12.98,3.23,25.91,4.68,38.89,1.23,11.01,2.17,22.06,3.27,33.09,1.09,10.86,2.15,21.73,3.34,32.58.74,6.73,1.85,13.42,2.53,20.16,1.15,11.36,2.07,22.74,3.15,34.1.61,6.42,1.29,12.83,2.09,19.23.09.75,1.11,1.38,1.7,2.06Z"/>
  <path class="c" d="M240.57,372.91c-1.26,12.2-2.51,24.39-3.77,36.59l-.69-.08c-4.16-39.56-8.3-79.13-12.5-118.68-3.95-37.23-7.95-74.45-11.96-111.68-4.19-38.88-8.47-77.75-12.62-116.64-1.84-17.2-3.45-34.43-5.17-51.64,5.09-.67,6.52,2,6.96,6.65,1.37,14.49,3.2,28.95,4.72,43.43,1.17,11.2,2.07,22.42,3.23,33.62,1.09,10.53,2.35,21.05,3.56,31.57.77,6.74,1.64,13.47,2.37,20.22,1.05,9.71,1.98,19.43,3.04,29.13,1.96,18.1,4.05,36.19,5.92,54.29,1.5,14.49,2.6,29.03,4.16,43.52,1.4,12.99,3.31,25.93,4.75,38.92,1.24,11.19,2.1,22.42,3.2,33.63.99,10,2.08,19.98,3.19,30.55.7-1.48,1.16-2.45,1.61-3.41Z"/>
  <path class="c" d="M1435.29,374.07c-.11.94-.22,1.87-.33,2.81-.12.09-.34.2-.33.26.05.24.17.46.27.69-.97,10.4-1.93,20.79-2.9,31.19-.27,0-.54,0-.81-.01-1.71-15.84-3.41-31.69-5.12-47.53-2.24-20.66-4.51-41.31-6.72-61.97-2.46-22.98-4.84-45.97-7.28-68.95-2.49-23.48-5-46.95-7.49-70.43-2.55-23.98-5.05-47.96-7.62-71.93-2.46-22.98-5-45.94-7.46-68.92-.3-2.81-.36-5.64-.54-8.46,4.13-.79,6.23.94,6.64,5.11.75,7.74,1.59,15.46,2.44,23.19,1.56,14.13,3.17,28.25,4.72,42.38,1.13,10.36,2.15,20.73,3.28,31.09,1.57,14.41,3.25,28.81,4.79,43.23,1.14,10.69,2.07,21.41,3.22,32.1,1.53,14.3,3.25,28.58,4.77,42.87,1.17,11.02,2.06,22.08,3.24,33.1,1.5,13.97,3.23,27.91,4.76,41.88,1.15,10.52,2.19,21.06,3.2,31.6,1.06,11.03,1.97,22.08,3.13,33.1.13,1.26,1.4,2.4,2.14,3.6Z"/>
  <path class="l" d="M970.08,580.55h39.95c0-2.93,0-5.04,0-7.14,0-80.75-.05-161.51.06-242.26.01-7.78-.79-15.23-4.14-22.3,6.95,5.85,10.95,13.25,10.95,22.39.05,83.27.03,166.54.03,249.81,0,6.41-.39,6.82-6.75,6.84-9.83.03-19.65,0-29.48,0q-8.42,0-10.64-7.34Z"/>
  <path class="p" d="M421.88,572.78c14.02,6.86,28.94,8.04,44.27,7.56,12.65-.4,25.32-.07,37.99-.08,38.64-.04,70.37-31.36,70.73-69.96.21-21.82.17-43.64.24-65.47,1.97,0,3.95,0,6.73,0,0,2.44,0,4.37,0,6.3,0,22.5.32,45.01-.09,67.5-.5,27.76-14.01,47.83-37.99,61.1-10.97,6.07-22.99,8.17-35.43,8.17-13.67,0-27.34-.19-41,.05-15.66.27-30.13-3.6-43.49-11.66-1-.6-1.34-2.32-1.98-3.51Z"/>
  <path class="p" d="M1038.94,580.61c12.3-.12,24.6-.24,36.91-.35,2.14-.02,4.27,0,7.05,0,5.27-48.18,10.51-96,15.77-144h55.98c.34,2.99.65,5.76.97,8.52-1.82-.63-3.62-1.78-5.45-1.8-12.66-.16-25.32-.11-37.98-.07-4.89.01-6.71,1.97-7.23,6.86-1.91,17.93-3.99,35.83-5.87,53.76-1.48,14.15-2.71,28.33-4.15,42.49-1.27,12.51-2.49,25.03-4.19,37.48-.23,1.65-3.09,4.17-4.77,4.21-14.32.34-28.65.2-42.98.19-5.69,0-3.59-4.36-4.05-7.28Z"/>
  <path class="d" d="M994.95,296.72c-4.55-1.92-9.1-3.84-13.76-5.8.71-.27,1.75-.77,2.84-1.06,16.12-4.31,26.12-18.15,26.08-34.03-.15-60.45-.1-120.9-.04-181.35.01-12.23-3.45-23.56-8.24-34.61,1.61,1.49,3.74,2.69,4.76,4.52,6.63,11.89,10.48,24.49,10.44,38.35-.17,60.3-.02,120.6-.12,180.89-.02,14.98-6.35,26.06-20.95,31.53-.47.18-.68,1.04-1.01,1.58Z"/>
  <path class="u" d="M39.7,551.8c-6.67-4.53-9.12-11.11-9.12-18.85-.02-49.32-.02-98.64-.02-147.95,0-13.16-.16-26.33.08-39.49.18-10,7.45-18.77,17.22-21.53,8.98-2.54,19.07,1.07,24.22,8.67-7.06-2.54-14.07-3.12-20.99.5-8.78,4.59-13.23,12.19-13.29,21.73-.23,42.11-.1,84.22-.1,126.33,0,15.15-.22,30.3.09,45.44.17,8.4,1.24,16.78,1.91,25.17Z"/>
  <path class="y" d="M1444.2,791.62c19.89,6.22,33.96,1.08,45.7-16.62,11.31-17.05,16.82-36.31,21.11-55.98,5.32-24.41,8.04-49.17,9.22-74.11,6.21.28,7.19.91,6.77,7.05-1.1,16-2.18,32.03-3.99,47.96-2.1,18.43-5.65,36.62-11.85,54.2-4.93,13.98-11.1,27.16-21.28,38.31-8.23,9.01-26.62,12.61-37.26,6.56-3.29-1.87-7.98-2.2-8.41-7.36Z"/>
  <path class="c" d="M1618.11,226.81c-12.93-17.1-19.5-36.37-19.96-57.8-.5-23.1-.85-46.22-1.79-69.3-.93-22.95,18.66-46.11,41.96-48.95,15.86-1.93,29.53,2.27,40.62,14.04-5.53-2.13-10.89-4.93-16.6-6.28-19.23-4.53-40.98,5.45-50.9,22.39-5.11,8.72-7.65,17.83-7.42,27.96.53,22.46.38,44.94,1.21,67.39.55,14.96,2.87,29.7,10.89,42.94,1.3,2.15,1.36,5.06,1.99,7.61Z"/>
  <path class="o" d="M1443.06,730.79c-4.72.82-6.12-2.36-6.98-5.96-2.66-11.11-.3-21.89,3.27-32.25,7.07-20.52,17.76-38.92,34.06-53.66,10.18-9.21,21.93-14.29,35.89-12.92,2.57.25,5.18,1.03,7.58,2.03,7.52,3.12,7.81,3,8.36-5.11,2.18,1.84,5.08,3.3,6.33,5.64,1,1.87.37,4.94-.38,7.19-.19.56-3.89.51-5.65-.14-14.83-5.48-28.22-1.93-39.91,7.43-22.58,18.09-35.89,42.14-42.01,70.15-1.23,5.65-.43,11.74-.56,17.62Z"/>
  <path class="y" d="M1752.09,740.1c-2.26-1.94-5.49-3.43-6.6-5.89-4.62-10.23-5.15-21.22-4.06-32.22.24-2.42,2.17-4.78,3.63-6.96,17.42-26,28.7-54.45,33.31-85.38,1.01-6.76-.03-13.82-.13-20.74,4.53,1.52,6.85,4.87,7.92,9.36,2.2,9.15.58,18.07-1.32,27.03-5.98,28.17-16.16,54.56-32.81,78.25-3.52,5.01-3.95,10.68-3.09,16.52.99,6.69,2.09,13.36,3.14,20.04Z"/>
  <path class="y" d="M1693.07,740.11c-2.21-1.73-5.39-2.99-6.48-5.26-5.11-10.65-5.57-22.12-4.23-33.63.26-2.27,2.2-4.42,3.58-6.48,17.71-26.47,29.04-55.43,33.41-86.97.85-6.14-.16-12.54-.31-18.83,6.15,2.17,7.64,7.27,8.04,12.97,1.24,17.35-2.33,34.02-8.69,49.9-5.94,14.83-13.26,29.11-20.1,43.57-2.59,5.47-6.25,10.52-8.15,16.19-2.96,8.85-.15,17.55,2.63,26.07.25.77.21,1.64.3,2.46Z"/>
  <path class="m" d="M1347.11,736.99c-4.14,2.27-7.18.25-8.17-3.41-1.75-6.48-3.07-13.18-3.55-19.86-.28-3.88.69-8.23,2.33-11.81,11-24.06,22.01-48.11,27.77-74.11,2.49-11.23,4.34-22.53.83-33.93,6.2,1,7.44,6.23,8.54,10.92,2.34,10.03.87,20.1-1.35,29.96-4.08,18.06-10,35.53-17.92,52.31-4,8.48-9.1,16.72-11.31,25.67-1.78,7.18,0,15.26.37,22.92.02.48,1.61.89,2.47,1.33Z"/>
  <path class="m" d="M7.69,280.13h14.84v-128.93c10.5.52,20.57.56,30.5,1.71,4.17.48,8.76,2.45,10.02,7.7-9.05-.6-18.11-1.08-27.14-1.85-4.83-.41-6.3,1.41-6.28,6.23.17,38.49.01,76.99.2,115.48.02,4.85-.9,7.21-6.25,6.46-2.94-.41-5.99-.07-8.99-.07-6.5-.01-6.63-.13-6.89-6.73Z"/>
  <path class="y" d="M792.88,753.02c4.33-.28,7.99-1.45,10.06-5.91.51-1.1,2.78-1.75,4.34-1.95,20.8-2.8,40.72-8.04,57.55-21.35,5.78-4.57,10.58-10.26,11.48-18.04.34-2.89-.22-5.89-.37-8.84,6.51,3.13,9.46,12.11,7.48,18.54-4.64,15.03-16.95,21.19-29.67,26.99-12.59,5.73-26.01,8.49-39.6,10.58-1.43.22-2.98,1.37-3.96,2.53-3.26,3.82-10.02,6.27-14.22,3.94-1.7-.94-2.09-4.26-3.07-6.49Z"/>
  <path class="n" d="M534.83,146.97h40.1v-5.68c0-18.63-.35-37.27.11-55.89.39-15.85-1.29-31.13-8.31-45.54,1.22.73,2.92,1.16,3.59,2.23,6.51,10.49,11.21,21.71,11.48,34.23.5,23.4.73,46.81,1.01,70.21.08,7.06-.23,7.28-7.28,7.29-10.64,0-21.3-.33-31.92.13-5.52.24-8.5-1.31-8.78-6.99Z"/>
  <path class="m" d="M77.71,280.13h14.75c.11-2.2.25-3.81.25-5.43.01-38.83.02-77.66-.02-116.49,0-2.14-.41-4.28-.63-6.42,6.39,2.58,7.67,7.97,7.67,14.04,0,30.81,0,61.62,0,92.43,0,7.83-.16,15.66.07,23.48.11,3.79-.82,5.58-4.98,5.18-3.47-.33-6.99-.06-10.49-.07q-6.52-.01-6.63-6.72Z"/>
  <path class="m" d="M1701.1,146.97h40.01v-5.75c0-18.28-.35-36.57.1-54.85.43-17.39-1.6-34.09-10.22-49.53,2.74,3.39,6.1,6.45,8.09,10.23,6.03,11.44,9.31,23.61,9.12,36.77-.31,21.14-.08,42.29-.09,63.43q0,6.53-6.8,6.54c-11.16,0-22.31,0-33.47,0-6.33,0-6.54-.23-6.75-6.85Z"/>
  <path class="j" d="M752.84,146.98h39.16c0-2.19,0-3.93,0-5.68,0-18.64-.33-37.28.1-55.91.37-15.85-1.28-31.16-8.34-45.57,1.77,1.79,3.95,3.32,5.23,5.41,7.58,12.33,10.16,25.88,9.98,40.25-.27,20.8-.18,41.62.02,62.42.05,4.62-1.42,6.11-6.02,6-11.15-.27-22.3-.09-33.46-.09q-6.59,0-6.67-6.84Z"/>
  <path class="r" d="M26.73,576.91c15,5.61,30.68,3.81,45.84,2.47,16.15-1.43,27.9-17.78,28-35.06.05-8.47.12-16.94.19-25.42,6.95.02,7.07.02,6.94,6.84-.22,11.44-.32,22.89-1.02,34.31-.81,13.35-17.71,27.85-31.65,26.99-9.61-.59-19.31.23-28.93-.23-7.73-.37-14.8-2.91-19.37-9.9Z"/>
  <path class="r" d="M89.66,146.82c-3.37-2.46-6.74-4.92-9.77-7.13,10.59-2.92,13.15-11.52,12.96-22.65-.43-25.25.08-50.51-.27-75.77-.1-7.17-1.86-14.32-2.86-21.49,5.94,1.96,6.76,7.76,8.71,12.39,1.29,3.07,1.24,6.83,1.25,10.29.09,28.65-.25,57.3.23,85.94.15,8.71-3.95,13.89-10.25,18.42Z"/>
  <path class="o" d="M1433.11,743.84c16.36,1.82,28.02-7.13,37.86-18.1,8.9-9.93,16.15-21.33,24.13-32.07.95-1.28,1.93-2.52,2.9-3.79l.2.19c-.74,8.29-1.47,16.59-2.21,24.88-2.27,2.24-4.78,4.29-6.78,6.75-8.7,10.7-17.42,21.61-30.67,26.7-5.61,2.15-12.27,2.4-18.36,2.02-2.48-.15-4.72-4.27-7.07-6.58Z"/>
  <path class="m" d="M1187.85,751.43c2.38-3.32,5.29-6.38,7.04-10.01,7.25-14.98,14.75-29.79,25.29-42.78,2.66-3.28,6.07-5.96,9.13-8.91l1.55,1.09v13.14c-5.27,7.06-11.08,13.8-15.67,21.28-5.48,8.95-9.87,18.57-14.84,27.84-.84,1.57-2.02,3.06-3.35,4.25-3.62,3.26-7.07,2.06-8.09-2.61-.25-1.12-.71-2.19-1.07-3.29Z"/>
  <path class="t" d="M1118.13,730.02c-2.01,1.16-4.01,2.32-6.02,3.48-.7-2.42-2.18-4.91-1.99-7.26,1.48-18.81,11.1-33.03,25.85-44.08,3.69-2.76,7.85-4.88,11.8-7.3,7.26,1.28,7.86,2.57,5.15,11.2-6.05-2.82-7.26-2.2-12.01,6.08-.95.14-2.34-.07-2.78.48-5.04,6.23-10.04,12.49-14.8,18.93-1.51,2.04-2.66,4.53-3.29,6.99-.95,3.75-1.3,7.64-1.91,11.48Z"/>
  <path class="t" d="M941.81,685.16c-7.51-2.52-9.09,3.53-11.71,8.09-.81-.15-1.97-.74-2.39-.4-10.92,8.86-18.13,20.04-20.69,33.98-.18.96.6,2.09.93,3.14-.43.48-.76,1.16-1.3,1.41-1.7.77-3.48,1.38-5.23,2.04-.54-1.85-1.55-3.69-1.56-5.54-.03-9.36,2.79-18.02,7.56-25.96,5.37-8.95,12.48-16.31,21.41-21.86,3.1-1.92,6.06-4.06,9.09-6.1,1.64.57,3.48.84,4.88,1.76,3.07,2.01,2.55,6-1.01,9.44Z"/>
  <path class="s" d="M849.91,676.82c-5.82-1.79-11.64-3.57-17.27-5.3,6.99-3.6,14.63-6.75,21.39-11.23,6.55-4.34,12.8-9.51,18.01-15.36,2.87-3.23,3.32-8.6,4.87-13.01,5.8,1.84,9.22,7.53,7.42,13.01-3.26,9.91-11.19,15.8-19.3,21.35-3.96,2.71-8.34,4.8-12.4,7.36-1.12.71-1.82,2.1-2.71,3.18Z"/>
  <path class="g" d="M991.91,691.17c5.17.22,8.35,3.06,10.17,7.7-1.7,1.46-4.37,2.61-4.95,4.43-5.86,18.38-17.11,33.16-31.19,45.72-4.32,3.85-10.6,6.26-16.38,7.49-5.08,1.09-8.89-3.14-11.66-7.44,3.64-.44,7.28-.88,10.92-1.32,1.29,2.84,3.26,2.18,5.37,1.08,8.51-4.44,15.31-10.73,20.94-18.5,6.66-9.19,12.77-18.65,15.89-29.66.67-2.37.04-5.11,0-7.68.11-.14.23-.27.38-.39.17-.48.33-.96.49-1.43Z"/>
  <path class="b" d="M357.81,10.76c0,186.57-.01,373.15-.05,559.72,0,2.11-.43,4.22-.66,6.34-.08-1.66-.22-3.32-.22-4.98-.02-186.85-.02-373.7-.02-560.55,0-.83.1-1.66.15-2.49.27.65.54,1.31.81,1.96Z"/>
  <path class="g" d="M1746.26,752.62c6.99.71,12.74-2.49,18.45-5.83,6.23.4,9.6-4.29,12.94-8.11,5.48-6.26,10.01-13.35,15.33-19.76,1.66-2,4.57-2.97,6.91-4.42-.28,2.55.18,5.52-.98,7.58-6.86,12.18-14.84,23.54-26.38,31.87-4.88,3.52-10.14,6.41-16.43,5.94-4.67-.35-8.79-1.84-9.83-7.27Z"/>
  <path class="s" d="M1685.09,752.05c9.04,2.02,16.42-1.76,22.61-7.53,7.11-6.63,13.47-14.06,20.1-21.08,1.3,4.39,2.79,9.45,4.29,14.52-1.82,1.32-3.73,2.55-5.46,3.99-6.33,5.25-11.96,11.77-19.05,15.58-9.5,5.12-17.42,4.53-22.49-5.48Z"/>
  <path class="g" d="M1337,748.06c5.35-1.13,10.7-2.25,16.05-3.38,2.76-.78,5.89-.98,8.22-2.45,9.46-5.97,14.44-15.97,21.3-24.31,1.56-1.89,5.31-4.65,5.95-4.18,2.95,2.2,1.51,5.12-.23,7.8-7.31,11.28-14.9,22.24-26.28,30.01-5.99,4.09-19.9,5.71-24.05-1.26-.41-.69-.64-1.49-.95-2.25Z"/>
  <path class="b" d="M1610.04,516.98c-7.67-7.51-12.43-16.67-12.89-27.3-.65-14.93-.28-29.9-.35-44.85q7.26.13,7.26,7.59c0,12.64.06,25.27-.02,37.91-.06,8.38.62,16.53,5.46,23.78.5.75.37,1.91.54,2.87Z"/>
  <path class="z" d="M1282.99,743.12c8.96.03,15.37-5.41,21.76-10.55,5.25-4.23,10.01-9.06,15.27-13.87,1.34,4.9,2.62,9.58,3.9,14.26-3.58,2.44-7.1,4.99-10.77,7.29-5.39,3.39-10.61,7.24-16.4,9.72-6.77,2.89-11.09.27-13.77-6.84Z"/>
  <path class="n" d="M85.69,370.18h14.99c-1.06-16.92,2.17-33.31-2.98-49.32,1.31.8,3.38,1.31,3.81,2.44,2.3,6.08,5.22,12.2,5.96,18.54,1.01,8.68.25,17.57.25,26.36,0,8.87-1.45,10.1-10.47,9.01-1.64-.2-3.3-.34-4.95-.31-6.54.13-6.54.16-6.62-6.73Z"/>
  <path class="t" d="M1641.16,737.98c-5.37,2.13-7.58,1.27-9.17-4.24-3.33-11.55-1.64-23.01,1.3-34.33,1.28-4.93,3.14-9.72,4.74-14.57,8.07,3.46,8.91,7.33,4.5,17.98-4.23,10.23-5.01,21.03-4.32,31.95.07,1.13,1.92,2.14,2.95,3.21Z"/>
  <path class="s" d="M1014.92,752.14c3.31-.79,6.62-1.57,9.94-2.36,2.38-.13,5.66.69,6.99-.56,7.34-6.89,14.24-14.24,21.19-21.54,2.16-2.26,3.87-4.95,6.05-7.19.74-.76,2.38-1.21,3.4-.96.68.17,1.28,1.81,1.36,2.84.08,1.08-.23,2.4-.84,3.3-8.78,12.82-18.25,24.98-32.65,32.04-7.57,3.71-13.64,1.39-15.44-5.58Z"/>
  <path class="o" d="M1155.04,740.15c-5.39,1.84-6.52-2.51-6.9-5.74-.83-7.18-1.58-14.57-.78-21.69.79-7.06,3.52-13.89,5.39-20.83,8.17,1.37,9.05,2.76,6.26,10.29-2.84,7.68-4.59,15.5-4.12,23.78.27,4.72.11,9.47.14,14.2Z"/>
  <path class="s" d="M1106.95,745.01c8.89-.42,14.25-6.44,19.4-12.55,3.37-4,6.3-8.36,9.5-12.66,1.02,6.25,1.98,12.21,2.95,18.17-1.33.75-2.84,1.31-3.97,2.3-3.72,3.28-7.05,7.05-11,10.01-6.45,4.83-13.08,2.58-16.88-5.26Z"/>
  <path class="t" d="M1587.1,740.96c-6.37,3.31-9.42,1.93-8.87-5,.8-9.99,2.84-19.88,3.98-29.86.5-4.34.07-8.79.06-13.2,6.18,3.3,9.55,10.43,8.33,16.99-1.61,8.61-3.1,17.25-4.41,25.92-.25,1.63.58,3.43.91,5.15Z"/>
  <path class="t" d="M1022.66,741.63c-5.92,2.11-8.13,1.03-7.69-5,.67-9.18,2.47-18.28,3.33-27.45.54-5.66.24-11.4.32-17.1,4.77,2.02,7.74,5.99,8.09,10.72.44,6.04-.39,12.22-1.07,18.29-.77,6.87-1.97,13.69-2.98,20.53Z"/>
  <path class="o" d="M944.97,740.12c-4.96,1.98-6.67-1.79-6.93-5.05-.69-8.69-1.12-17.49-.54-26.17.34-5.07,2.83-9.99,4.36-14.98,1.11-.29,2.21-.68,3.35-.84,4.12-.59,5.99,1.44,4.66,5.38-3.65,10.83-6.05,21.88-5.91,33.36.03,2.77.66,5.53,1.02,8.3Z"/>
  <path class="z" d="M896.92,744.83c7.99-.02,12.94-5.3,17.64-10.61,3.9-4.41,7.21-9.34,10.96-14.28.85,5.83,1.66,11.42,2.48,17.01-1.53,1.39-2.99,2.87-4.61,4.15-4.8,3.81-9.36,8.05-14.59,11.15-4.05,2.41-9.32-1.33-11.88-7.42Z"/>
  <path class="s" d="M1148.94,749.22c13.12.28,21.03-8.38,28.97-16.95,1.19-1.28,2.21-2.73,2.92-3.63v20.33c-2.38.93-4.76,1.88-7.15,2.79-4.55,1.74-8.98,4.31-13.68,4.97-6.21.87-8.59-1.37-11.07-7.51Z"/>
  <path class="s" d="M1552.9,696.86c.64-2.01,1.28-4.02,2.04-6.39,4.92,1.5,9.01,3.18,10.37,8.36-1.74,1.83-4.23,3.37-5.08,5.55-3.89,9.88-7.94,19.66-15.29,27.52-1.62,1.73-4.5,2.28-6.8,3.38.29-2.56-.15-5.52,1-7.62,3.86-7.09,8.61-13.71,12.31-20.88,1.45-2.81,1.03-6.59,1.46-9.93Z"/>
  <path class="z" d="M1241,742.9c13.98,1.68,22-8.34,31.14-16.31,1.13,3.75,2.15,7.14,3.17,10.52-4.69,7.51-11.43,12.17-20.11,13.72-6.54,1.17-11.49-1.82-14.2-7.93Z"/>
  <path class="y" d="M1250.01,732.87c-5.33.87-6.81-2.59-6.97-6.74-.25-6.45,0-12.92-.03-19.38-.04-7.92-.16-15.84-.24-23.77,4.98-.32,6.56,3.79,6.87,7.02.88,9.32.95,18.72,1.07,28.09.06,4.92-.44,9.85-.69,14.77Z"/>
  <path class="h" d="M703.91,339.35h40.37c-.12,2.69-.23,5.1-.34,7.51-9.59-.02-19.18-.04-28.78-.05q-8.57,0-11.25-7.46Z"/>
  <path class="v" d="M1216.85,687.48c-5.14,6.65-10.27,13.3-15.41,19.95-.39-.12-.78-.23-1.17-.35,3.59-13.39,7.17-26.77,10.76-40.16,6.01.25,8.15,2.98,7.19,8.78-.64,3.9-.93,7.85-1.38,11.78Z"/>
  <path class="g" d="M1669.96,729.94c.8,2.3,1.6,4.59,2.4,6.89-2.91,2.36-5.93,4.59-8.71,7.1-5.94,5.36-11.95,10.5-20.06,12.35-6.3,1.44-11.54-1.12-14.52-7.24,4.32-.73,8.64-1.46,12.96-2.19,2,.5,4.61,2.05,5.89,1.31,7.16-4.13,13.92-8.87,18.63-15.97.69-1.04,2.25-1.51,3.4-2.24Z"/>
  <path class="g" d="M1577.06,752.1c3.66-.74,7.32-1.48,10.98-2.23,3.38,3.71,6.37,1.43,8.95-.91,6.5-5.9,12.8-12.02,19.18-18.05.95,2.68,1.9,5.36,2.85,8.05-5.11,4.29-10.28,8.52-15.31,12.9-4.75,4.13-9.79,7.09-16.42,7.2-5.36.09-8.24-2.56-10.22-6.97Z"/>
  <path class="q" d="M1637.07,666.01c-4.28-.09-7.47-1.59-8.06-6.35-.56-4.52,2.07-9.5,5.88-11.15,4.89-2.13,8.49.1,10.35,6.4-.23,5.54-3.06,9.15-8.17,11.1Z"/>
  <path class="y" d="M1637.07,666.01c5.1-1.95,7.94-5.57,8.17-11.1,5.67,1.47,8.61,6.01,7.02,10.84-2.01,6.09-6.98,8.83-12.23,6.08-1.57-.82-2-3.82-2.95-5.82Z"/>
  <path class="o" d="M830.91,615.83h-9.24c1.47-5.92,2.83-11.42,4.2-16.92,1.95.16,3.99,0,5.82.56,2.44.73,3.69,1.97,2.26,5.13-1.58,3.49-2.07,7.47-3.04,11.24Z"/>
  <path class="v" d="M1003.99,678.65c-5.82-2.67-8.82-6.63-7.48-13.54.63-3.25-.27-6.79-.47-10.2,4.19.28,6.93,2.23,7.2,6.65.34,5.69.51,11.39.76,17.09Z"/>
  <path class="t" d="M790.87,625.02c3.58-.42,7.15-.84,11.43-1.34-.94,3.6-1.68,6.42-2.42,9.24-3.74.32-7.48.96-11.2.83-1.81-.06-3.58-1.56-5.37-2.41,1.42-1.38,2.79-2.84,4.29-4.13.99-.85,2.17-1.47,3.27-2.19Z"/>
  <path class="y" d="M1566.92,678.26c-5.3-2.28-7.81-5.96-7.1-12.04.43-3.7-.33-7.54-.55-11.32,5.06.6,7.5,3.58,7.74,10.01.17,4.44-.05,8.89-.09,13.34Z"/>
  <path class="b" d="M1548.87,440.91c0,21.32,0,42.63.01,63.95-.26-1.26-.75-2.53-.76-3.79-.05-18.79-.05-37.57,0-56.36,0-1.27.49-2.53.75-3.8Z"/>
  <path class="b" d="M356.78,580.14c-2.58.26-5.16.73-7.74.75-10.74.09-21.49.06-32.23.07,0,0-.06-.34-.06-.34,13.35-.16,26.69-.32,40.04-.48Z"/>
  <path class="p" d="M416.82,569.83c1.7,1,3.39,2,5.09,2.99-1.7-1-3.39-2-5.09-2.99Z"/>
  <path class="c" d="M1621.07,230.87c-.99-1.36-1.98-2.71-2.96-4.07.99,1.35,1.98,2.71,2.96,4.07Z"/>
  <path class="c" d="M1624.05,234.85c-.72-.96-1.44-1.92-2.16-2.87.72.96,1.44,1.92,2.16,2.87Z"/>
  <path class="b" d="M316.83,585.92c.98.33,1.96.66,2.94,1-.98-.33-1.96-.66-2.94-1Z"/>
  <path class="j" d="M1585.01,571.04c1.06.59,2.13,1.17,3.19,1.76-1.06-.59-2.13-1.17-3.19-1.76Z"/>
  <path class="r" d="M89.72,19.78c-.75-1.29-1.49-2.59-2.24-3.88.75,1.29,1.49,2.59,2.24,3.88Z"/>
  <path class="u" d="M725.02,60.53c.96.75,1.93,1.49,2.89,2.24-.96-.75-1.93-1.49-2.89-2.24Z"/>
  <path class="m" d="M1731.03,36.89c-.49-.7-.98-1.4-1.47-2.1.49.7.98,1.4,1.47,2.1Z"/>
  <path class="p" d="M633.85,570.03c.63.31,1.26.62,1.88.94-.63-.31-1.26-.62-1.88-.94Z"/>
  <path class="p" d="M413.86,567.77c.59.41,1.18.81,1.77,1.22-.59-.41-1.18-.81-1.77-1.22Z"/>
  <path class="n" d="M96.75,318.74c-.37-.62-.74-1.23-1.1-1.85.37.62.74,1.23,1.1,1.85Z"/>
  <path class="m" d="M71.77,280.05c.63,0,1.26,0,1.9,0-.63,0-1.26,0-1.9,0Z"/>
  <path class="d" d="M1001.86,39.88c-.42-.65-.84-1.3-1.25-1.95.42.65.84,1.3,1.25,1.95Z"/>
  <path class="n" d="M566.75,39.88c-.42-.65-.85-1.3-1.27-1.96.42.65.85,1.3,1.27,1.96Z"/>
  <path class="t" d="M784.66,625.81c.74-.17,1.48-.33,2.21-.5-.74.17-1.48.33-2.21.5Z"/>
  <path class="j" d="M781.92,36.72c-.4-.63-.79-1.25-1.19-1.88.4.63.79,1.25,1.19,1.88Z"/>
  <path class="y" d="M1719.06,588.98c-.19-.36-.38-.71-.58-1.07.19.36.39.71.58,1.07Z"/>
  <path class="l" d="M962.86,580.03c-.07.12-.14.24-.21.36.06-.14.11-.27.17-.41,0,0,.05.05.05.05Z"/>
  <path class="b" d="M308.71,580.02c-.07.12-.14.24-.21.35.06-.13.11-.26.17-.4,0,0,.04.04.04.04Z"/>
  <path class="p" d="M635.82,571c.4.26.8.53,1.2.79-.4-.26-.8-.53-1.2-.79Z"/>
  <path class="j" d="M1584.1,570.89c.27.03.54.06.81.09-.27,0-.54-.04-.81-.09Z"/>
  <path class="p" d="M415.76,569.04c.37.28.75.56,1.12.84-.37-.28-.75-.56-1.12-.84Z"/>
  <path class="h" d="M696.83,338.92c-.07.13-.14.25-.21.38.06-.14.12-.28.18-.41,0,0,.03.04.03.04Z"/>
  <path class="n" d="M946.99,328.65c.36.38.73.76,1.09,1.14-.36-.38-.73-.76-1.09-1.14Z"/>
  <path class="j" d="M1715.02,322.99c-.27-.38-.54-.75-.81-1.13.27.38.54.75.81,1.13Z"/>
  <path class="n" d="M97.72,320.88c-.23-.35-.47-.7-.7-1.05.23.35.47.7.7,1.05Z"/>
  <path class="h" d="M696.79,291.81c-.12-.07-.25-.14-.37-.21.13.06.27.11.4.17,0,0-.03.04-.03.04Z"/>
  <path class="c" d="M1621.96,232.01c-.31-.39-.62-.78-.92-1.18.31.39.62.79.92,1.18Z"/>
  <path class="u" d="M727.88,62.75c.38.33.75.66,1.13.99-.38-.33-.75-.66-1.13-.99Z"/>
  <path class="u" d="M509.79,61.84c.36.32.72.63,1.07.95-.36-.32-.72-.63-1.07-.95Z"/>
  <path class="j" d="M782.74,38.12c-.27-.45-.54-.91-.8-1.36.27.45.54.91.8,1.36Z"/>
  <path class="b" d="M356.96,3.76c-.18-.29-.24-.61-.19-.95.16.2.34.4.46.62.02.05-.18.21-.27.32Z"/>
  <path class="o" d="M1432.03,743.22c.37.21.74.43,1.12.64-.37-.21-.74-.43-1.12-.64Z"/>
  <path class="e" d="M1434.9,377.83c-.1-.23-.22-.45-.27-.69-.01-.06.21-.17.33-.26.08.32.06.64-.06.96Z"/>
  <path class="u" d="M946.06,62.74c-4.58-1.32-9.1-3.34-13.77-3.82-10.7-1.1-21.46-1.6-32.22-2.06-6.65-.29-13.32-.07-19.98-.05-6.45.01-7.19.73-7.19,7.16,0,40.63,0,81.27,0,121.9,0,26.98-.01,53.96-.02,80.93-2.15,0-4.29,0-6.79,0V50.67c.35-.23.63-.57.9-.57,17.97.19,35.97-.07,53.9.82,9.6.48,18.26,4.71,25.16,11.81Z"/>
  <path class="j" d="M1131.08,212.71c-1.03,5.29-2.42,10.55-3.03,15.89-2.47,21.68-4.77,43.37-7,65.08-1.47,14.31-2.59,28.66-4.13,42.96-1.84,17.08-3.95,34.13-5.95,51.2-2.29,0-4.59,0-7.49,0,7.61-72,15.19-143.73,22.77-215.46.33-.04.66-.08.99-.11,1.28,13.48,2.56,26.96,3.84,40.44Z"/>
  <path class="j" d="M63.76,31.77c-9.21-.66-18.43-1.28-27.64-1.99-4.74-.36-6.48,1.74-6.46,6.45.12,30.6.07,61.2.08,91.8-2.11.16-4.21.32-6.69.51V22.37c10,.6,20.09.57,29.94,2.12,3.88.61,7.2,4.75,10.78,7.29Z"/>
  <path class="t" d="M1690.34,664.72c-2.7,5.48-5.41,10.95-8.11,16.43-.45-.07-.9-.15-1.36-.22.44-6.79.46-13.63,1.4-20.35,2.89-20.63,8.35-40.63,15.99-60,1.31-3.31,3.61-6.35,5.95-9.08.98-1.14,3.51-1.92,4.87-1.47,1.25.41,2.51,2.65,2.63,4.18.24,2.9-.33,5.87-.57,8.82-.22-.89-.43-1.77-.95-3.87-2.38,3.85-4.83,6.52-5.83,9.66-4.28,13.34-8.35,26.76-12.02,40.28-1.36,5.02-1.39,10.4-2.02,15.61Z"/>
  <path class="t" d="M1750.11,663.93c-2.88,5.71-5.76,11.43-8.63,17.14-.53-.12-1.06-.24-1.59-.35.78-8.4.59-17.04,2.53-25.16,4.33-18.12,9.61-36.02,14.78-53.93.89-3.08,2.76-6.13,4.93-8.5,1.55-1.69,4.38-2.21,6.63-3.26.79,2.04,1.76,4.03,2.3,6.13.31,1.22-.08,2.62-.15,3.94-5.57,1.24-6.26,6.61-7.49,10.47-5.26,16.45-9.77,33.15-14.4,49.8-.29,1.06.7,2.48,1.1,3.73Z"/>
  <path class="x" d="M1669.96,729.94c-1.16.73-2.71,1.2-3.4,2.24-4.71,7.11-11.47,11.85-18.63,15.97-1.28.74-3.89-.82-5.89-1.31,8.95-7.73,17.9-15.46,26.78-23.14.24,1.3.69,3.77,1.14,6.24Z"/>
  <path class="x" d="M1616.16,730.91c-6.38,6.03-12.68,12.15-19.18,18.05-2.58,2.34-5.57,4.62-8.95.91,9.21-8.15,18.43-16.29,27.6-24.41.12,1.28.32,3.37.52,5.45Z"/>
  <path class="t" d="M1770.18,605.06c.16-.7.33-1.4.49-2.09-.16.7-.33,1.4-.49,2.09Z"/>
  <path class="v" d="M1345.33,662.08l-10.14,26.57c-.58-.14-1.15-.27-1.73-.41.84-7.11,1.11-14.35,2.64-21.31,4.03-18.41,8.41-36.75,13.1-55,1.28-4.97,3.36-10.08,8.75-12.96,3.12,4.26,1.66,8.64,1,12.95-.59.55-1.18,1.11-1.77,1.66.55.44,1.09.88,1.64,1.32-.13.68-.26,1.35-.4,2.03-1.76,1.71-4.54,3.12-5.11,5.16-3.3,11.75-6.15,23.63-8.95,35.51-.32,1.34.61,2.97.97,4.47Z"/>
  <path class="t" d="M1292.12,731.42c-2.42,1.11-4.84,2.23-7.31,3.37-5.52-14.36,15.61-48.38,33.86-45.58v8.78c-1.59.34-3.41.3-4.73,1.09-8.32,4.97-14.04,12.45-18.55,20.75-1.87,3.44-2.23,7.71-3.27,11.61Z"/>
  <path class="z" d="M1345.33,662.08c-.35-1.5-1.28-3.13-.97-4.47,2.8-11.88,5.64-23.76,8.95-35.51.57-2.04,3.35-3.46,5.11-5.16-2.52,15.58-6.31,30.8-13.09,45.14Z"/>
  <path class="z" d="M1358.82,614.91c-.55-.44-1.09-.88-1.64-1.32.59-.55,1.18-1.11,1.77-1.66-.04,1-.09,1.99-.13,2.99Z"/>
  <path class="o" d="M1498,689.88c.13-.41.26-.82.38-1.23.15.16.45.38.42.45-.15.34-.39.65-.6.97,0,0-.2-.19-.2-.19Z"/>
  <path class="t" d="M859.06,693.87c-6.53-2.23-12.99-4.71-19.62-6.6-5.86-1.66-11.87-3.03-17.9-3.65-1.3-.13-3.81,3.27-4.33,5.39-1.45,5.92-2.41,12-3.09,18.07-.96,8.54-1.49,17.13-2.2,25.7-2.08.39-4.16.78-6.71,1.26-1.54-19.93,2.77-38.72,5.77-58.33,5.35,1.08,10.58,1.76,15.57,3.23,11.53,3.41,23.5,5.98,32.51,14.93Z"/>
  <path class="t" d="M863.91,633.92c-8.17-.9-16.33-1.82-24.5-2.67-2.3-.24-4.63-.2-6.94-.35-3.13-.21-5.21,1.08-5.75,4.22-1.65,9.58-3.21,19.18-4.81,28.77-2.8.91-5.61,1.83-9.34,3.05,2.54-14.7,4.97-28.75,7.44-43.06,12.83-.27,25.12,1.01,36.99,4.93,2.59.85,4.63,3.36,6.92,5.1Z"/>
  <path class="t" d="M864.62,634.93c-.24-.34-.47-.67-.71-1.01.24.34.47.67.71,1.01Z"/>
  <path class="x" d="M991.05,692.99c.03,2.57.66,5.31,0,7.68-3.13,11.01-9.23,20.47-15.89,29.66-5.63,7.77-12.43,14.06-20.94,18.5-2.11,1.1-4.08,1.77-5.37-1.08,18.72-11.16,30.66-27.9,39.09-47.52,1.04-2.42,2.09-4.82,3.13-7.24Z"/>
  <path class="x" d="M991.91,691.17c-.16.48-.32.96-.49,1.43.16-.48.32-.96.49-1.43Z"/>
</svg>