<?xml version="1.0" encoding="UTF-8"?>
<svg id="a" data-name="Layer_1" xmlns="http://www.w3.org/2000/svg" width="821.86" height="157.93" viewBox="0 0 821.86 157.93">
  <defs>
    <style>
      .b {
        fill: #181919;
      }

      .c {
        fill: #171717;
      }

      .d {
        fill: #111;
      }

      .e {
        fill: #141414;
      }

      .f {
        fill: #0f1010;
      }

      .g {
        fill: #0d0e0e;
      }

      .h {
        fill: #d42629;
      }

      .i {
        fill: #121212;
      }

      .j {
        fill: #d32328;
      }

      .k {
        fill: #151515;
      }

      .l {
        fill: #181818;
      }

      .m {
        fill: #101010;
      }

      .n {
        fill: #1d1e1e;
      }

      .o {
        fill: #0c0c0c;
      }

      .p {
        fill: #0e0e0e;
      }
    </style>
  </defs>
  <path class="h" d="M67.96.27h91.53c-1.93,2.04-3.17,3.41-4.48,4.72-34.06,34.09-68.13,68.18-102.19,102.27-9.91,9.92-9.87,17.25.08,27.24,6.47,6.5,12.89,13.04,19.32,19.58.2.21.26.56.59,1.32-1.4.08-2.62.21-3.85.21-20.84.01-41.67-.1-62.51.09-4.51.04-5.74-1.36-6.25-5.94-1.06-9.47,2.37-15.96,9.15-22.55,26.91-26.14,53.2-52.92,79.73-79.46,8.41-8.41,8.62-16.26.28-24.66-7.27-7.32-14.84-14.35-22.27-21.51.3-.44.59-.87.89-1.31Z"/>
  <path class="j" d="M80.96,122.86c27.56-27.57,53.42-53.43,79.46-79.48v4.14c0,33.69,0,67.38,0,101.07,0,6.88-.14,7.02-7.04,7.02-11.33,0-22.66.06-34-.06-1.67-.02-3.8-.34-4.94-1.38-11.29-10.36-22.42-20.91-33.49-31.31Z"/>
  <path class="j" d="M59.25,33.78C39.06,53.98,19.82,73.24.39,92.69v-3.65c0-27.68.1-55.36-.09-83.04C.27,1.3,1.83-.01,6.35,0c18.64.04,18.51.05,31.87,13.82,6.83,7.04,14.23,13.54,21.03,19.96Z"/>
  <path class="i" d="M586.75,1.93c5.6,0,11.07-.19,16.51.15,1.16.07,2.5,1.88,3.25,3.18,7.06,12.22,14,24.5,20.99,36.75.62,1.08,1.34,2.11,2.79,4.37V2.14h16.07v70.94c-5.37,0-10.68.23-15.95-.16-1.33-.1-2.86-1.99-3.69-3.41-7.59-12.86-15.05-25.79-23.39-38.7v41.97h-16.59V1.93Z"/>
  <path class="e" d="M657.94,72.29V2c9.49,0,18.74-.07,27.98.04,3.15.04,6.35.21,9.43.83,16.97,3.4,26.09,14.48,26.1,31.95,0,5.13-.15,10.41-1.35,15.35-3.13,12.89-12.02,20.6-24.82,21.86-12.15,1.2-24.51.26-37.35.26ZM675.81,57.6c9.27-.4,19.32,2.67,24.85-7.62,4.62-8.61,4.67-17.89-.69-26.11-5.86-8.98-15.41-6.24-24.16-6.32v40.05Z"/>
  <path class="p" d="M496.07,96.9c-4.52,3.28-8.8,6.39-12.04,8.74-5.69-2.77-10.61-5.93-16-7.5-3.12-.91-7.19.23-10.45,1.47-1.62.62-3.38,3.6-3.24,5.37.14,1.71,2.36,4.17,4.14,4.67,5.87,1.68,11.95,2.62,17.95,3.87,1.62.34,3.27.64,4.82,1.19,7.36,2.6,13.75,6.33,14.64,15.09.96,9.4-1.56,17.52-9.98,22.83-12.25,7.73-40.75,8.87-53.95-9.55,4.39-2.87,8.76-5.72,11.82-7.72,7.03,2.86,12.9,5.92,19.14,7.51,3.37.86,7.69-.11,10.98-1.6,2.13-.97,4.15-4.31,4.3-6.71.1-1.52-3.09-4.14-5.22-4.73-5.41-1.5-11.06-2.12-16.61-3.1-13.53-2.37-20.1-8.53-20.43-19.14-.38-12.16,7.16-21.02,20.3-23.84,14.39-3.08,30.02,1.91,39.85,13.14Z"/>
  <path class="o" d="M183.87,60.15c4.56-2.96,8.85-5.74,12.15-7.88,6.17,2.8,11.48,6.28,17.27,7.49,4.31.9,9.39-.67,13.81-2.12,1.61-.53,3.21-3.93,3.1-5.92-.09-1.6-2.54-3.93-4.34-4.41-5.75-1.52-11.7-2.26-17.54-3.42-14.25-2.83-20.35-8.71-20.43-19.6-.1-12.21,6.77-20.71,20.22-23.26,14.3-2.72,27.4.44,38.27,10.74.36.34.7.71.98,1.12.18.26.23.62.45,1.23-4.2,3.06-8.48,6.16-11.77,8.56-5.88-2.75-11-5.71-16.51-7.5-2.69-.87-6.39-.22-9.08.98-2.04.91-4.49,3.86-4.38,5.77.1,1.87,2.93,4.51,5.06,5.16,5.37,1.62,11.02,2.3,16.55,3.37.97.19,1.93.44,2.89.71,12.09,3.34,17.16,8.6,17.43,18.04.33,11.77-5.26,20.01-16.78,23.48-16.95,5.11-36.46,2.07-47.34-12.54Z"/>
  <path class="n" d="M312.24,2.12h51.49v13.87h-33.81v12.3h31.36v14.14h-31.39v16.37h36.88v13.9h-54.52V2.12Z"/>
  <path class="c" d="M374.8,2.14h51.58v13.89h-33.69v12.42h31.41v13.83h-31.3v16.54h36.48v13.96h-54.48V2.14Z"/>
  <path class="m" d="M404.77,141.48v13.93h-54.94v-70.09h51.76v13.39h-33.65v12.62h31.36v14.1h-31.38v16.06h36.85Z"/>
  <path class="p" d="M564.47,85.44c0,16.74.41,33.4-.14,50.03-.38,11.25-10.98,20.8-24.13,21.88-6.13.5-12.72-.15-18.59-1.96-10.29-3.16-16.47-10.94-16.87-21.74-.58-15.97-.15-31.98-.15-48.31h17.9c0,14.03-.03,27.99.03,41.94,0,2.31.11,4.68.62,6.92,1.43,6.33,6.04,9.71,12.21,9.24,6.92-.53,11.09-4.59,11.17-11.58.17-14.33.06-28.67.06-43,0-.99,0-1.98,0-3.42h17.88Z"/>
  <path class="d" d="M183.83,85.56c14.44,0,28.6-.68,42.66.21,11.39.72,17.6,8.96,18.49,21.64.8,11.31-5.67,20.83-16.93,23.98-4.41,1.23-9.17,1.39-13.79,1.71-3.96.27-7.96.06-12.42.06v22.31h-18v-69.9ZM201.61,119.55c5.81,0,11.13.23,16.42-.06,5.6-.31,8.86-4.45,8.85-10.54-.02-6.49-2.85-10.03-8.86-10.34-5.41-.28-10.84-.06-16.41-.06v21Z"/>
  <path class="d" d="M644.95,85.66c14.6,0,29.11-.86,43.46.28,11.19.88,17.11,9.51,17.65,21.83.5,11.5-5.95,20.68-17.29,23.7-4.43,1.18-9.17,1.33-13.8,1.63-3.93.26-7.9.05-12.31.05,0,4.17,0,7.8,0,11.43s0,6.98,0,10.83h-17.71v-69.75ZM662.72,98.52v21.05c5.47,0,10.74.19,16-.05,5.94-.28,9.29-4.35,9.23-10.68-.06-6.64-3.04-10.02-9.47-10.28-5.12-.2-10.26-.04-15.76-.04Z"/>
  <path class="f" d="M581.5,73.09c-6.12,0-11.45.33-16.7-.21-1.53-.16-3.75-2.65-4.01-4.32-.9-5.74-3.69-7.56-9.41-7.01-5.93.58-11.96.13-17.77.13-.43.35-.79.5-.88.75-1.26,3.41-1.54,8.39-3.96,9.86-2.95,1.8-7.69.69-11.66.79-2.12.05-4.24,0-7.14,0,3.2-8.65,6.17-16.64,9.11-24.65,5.18-14.13,10.41-28.24,15.47-42.41,1.1-3.07,2.58-4.27,6.07-4.23,13.94.17,13.96.01,18.86,12.96,7.25,19.16,14.48,38.32,22.03,58.32ZM545.63,19.8c-3.08,10.3-5.78,19.3-8.51,28.42h16.98c-2.76-9.25-5.41-18.14-8.47-28.42Z"/>
  <path class="p" d="M299.76,133.15v22.27h-18.1v-70.41c12.41,0,24.84-.05,37.26.04,2.47.02,5,.34,7.4.94,10.85,2.73,16.26,10.07,16.66,22.33.36,11.08-6.21,20.21-17.32,23.16-4.43,1.18-9.16,1.32-13.78,1.62-3.93.25-7.88.05-12.11.05ZM299.57,119.56c5.76,0,11.08.23,16.38-.06,5.23-.29,8.53-4.12,8.92-9.62.41-5.82-2.13-10.5-7.08-11-6.01-.61-12.13-.15-18.22-.15v20.83Z"/>
  <path class="p" d="M594.42,133.86v21.74h-17.59v-69.91c14.51,0,29.14-.81,43.64.27,10.43.77,16.73,9.47,17.16,20.06.55,13.73-4.92,22.62-17.3,25.38-8.17,1.82-16.78,1.67-25.91,2.46ZM594.7,119.68c4.58,0,8.73,0,12.89,0,1,0,2-.02,2.99-.11,5.83-.49,9.37-4.61,9.31-10.8-.07-6.23-3.24-9.94-9.16-10.19-5.27-.22-10.55-.05-16.02-.05v21.15Z"/>
  <path class="c" d="M795.1,155.6h-18.14c0-7.46-.4-14.89.11-22.26.5-7.2-1.41-13.05-5.88-18.77-7.23-9.28-13.73-19.13-21.12-29.57,6.95,0,13.19-.2,19.39.16,1.34.08,2.9,1.93,3.79,3.32,4.26,6.67,8.33,13.47,12.69,20.6,4.56-7.4,8.68-14.4,13.19-21.15.97-1.45,3.27-2.7,5.03-2.82,5.57-.36,11.18-.13,17.69-.13-7.28,10.3-13.74,20.11-20.93,29.35-4.44,5.71-6.45,11.53-5.95,18.74.52,7.42.11,14.91.11,22.53Z"/>
  <path class="b" d="M287.53,72.88h-18.13V16.06h-18.15V2.24h54.02v13.59h-17.74v57.05Z"/>
  <path class="l" d="M437.63,2.07h17.11v55.34h27.44v15.43h-44.55V2.07Z"/>
  <path class="k" d="M730.47,140.65h27.56v14.78h-44.8v-70.09h17.24v55.31Z"/>
  <path class="g" d="M269.26,155.59h-17.38v-70.2h17.38v70.2Z"/>
</svg>