<?xml version="1.0" encoding="UTF-8"?>
<svg id="a" xmlns="http://www.w3.org/2000/svg" version="1.1" viewBox="0 0 234.5 71">
  <!-- Generator: Adobe Illustrator 30.0.0, SVG Export Plug-In . SVG Version: 2.1.1 Build 123)  -->
  <defs>
    <style>
      .st0 {
        font-family: SackersGothicStd-Medium, 'Sackers Gothic Std';
        font-size: 12px;
        font-weight: 500;
        letter-spacing: .1em;
      }

      .st1 {
        fill: #015249;
      }

      .st2, .st3 {
        isolation: isolate;
      }

      .st2, .st3, .st4 {
        fill: #d1d1d1;
      }

      .st2, .st5 {
        opacity: .8;
      }

      .st3 {
        opacity: .4;
      }
    </style>
  </defs>
  <path class="st2" d="M24.8,71H0v-23.7h24.8v22.9-1s0,1.8,0,1.8Z"/>
  <path class="st1" d="M24.8,47.2v-23.4h23.6v23.4h-23.6Z"/>
  <path class="st3" d="M24.8,23.8H0V0h24.8v24h0v-.2Z"/>
  <g>
    <polygon class="st4" points="73.5 59.7 76.2 59.7 74.9 57.2 73.5 59.7"/>
    <polygon class="st4" points="131.7 59.7 134.4 59.7 133 57.2 131.7 59.7"/>
    <polygon class="st4" points="105.1 59.7 107.9 59.7 106.5 57.2 105.1 59.7"/>
    <path class="st4" d="M48.5,47.1v23.9h186v-23.9H48.5ZM67.4,62.2h-1.1v-4.4l-2.4,3.5-2.4-3.5v4.4h-1.1v-6.2h1.1l2.4,3.6,2.4-3.6h1v6.2ZM77.5,62.2l-.8-1.5h-3.8l-.8,1.5h-1.2l3.4-6.2h1.1l3.4,6.2h-1.2ZM88.4,62.2h-1.1l-3.9-4.6v4.6h-1.1v-6.2h1.1l3.9,4.6v-4.6h1.1v6.2ZM99,62.2h-1.1v-2.7h-3.8v2.7h-1.1v-6.2h1.1v2.5h3.8v-2.5h1.1v6.2ZM109.2,62.2l-.8-1.5h-3.8l-.8,1.5h-1.2l3.4-6.2h1.1l3.4,6.2h-1.2ZM118.1,57.1h-2.4v5.2h-1.1v-5.2h-2.4v-1.1h5.8v1.1ZM127.3,57.1h-2.4v5.2h-1.1v-5.2h-2.4v-1.1h5.8v1.1ZM135.7,62.2l-.8-1.5h-3.8l-.8,1.5h-1.2l3.4-6.2h1.1l3.4,6.2h-1.2ZM146.5,62.2h-1.1l-3.9-4.6v4.6h-1.1v-6.2h1.1l3.9,4.6v-4.6h1.1v6.2ZM152.1,56.3c0,0-.3.2-.3.2-.2,0-.3,0-.3-.3s0-.3.2-.3c.3-.2.7-.6.7-1s0-.3-.3-.3c-.5,0-.7-.3-.7-.8s.4-.7.8-.7c.7,0,1.1.7,1.1,1.3,0,1-.7,1.6-1.1,1.9ZM160.2,62.5c-1.3,0-2.6-.2-3.7-1.1l.5-.9c1,.6,1.8.9,3.1.9s2-.2,2-1,0-.3-.1-.5c-.2-.3-.8-.4-1.7-.4-1.9,0-2.1,0-2.5-.3-.6-.3-.9-.9-.9-1.5,0-1.5,1.5-2,2.8-2s2.1.3,3.2.8l-.5.9c-.9-.5-1.6-.7-2.6-.7s-1.7.2-1.7.9,0,.3.1.4c.2.3.6.3,1.8.3s3.2.1,3.2,1.8-1.5,2.2-3,2.2ZM178.5,57.1h-4.4v1.4h2.6v1.1h-2.6v2.7h-1.1v-6.2h5.4v1.1ZM183.5,62.2h-1.1v-6.2h1.1v6.2ZM194.2,62.2h-1.1l-3.9-4.6v4.6h-1.1v-6.2h1.1l3.9,4.6v-4.6h1.1v6.2ZM204.6,62.2h-5.6v-6.2h5.5v1.1h-4.4v1.4h2.4v1.1h-2.4v1.6h4.5v1.1ZM211.6,62.5c-1.3,0-2.6-.2-3.7-1.1l.5-.9c1,.6,1.8.9,3.1.9s2-.2,2-1,0-.3-.1-.5c-.2-.3-.8-.4-1.7-.4-1.9,0-2.1,0-2.5-.3-.6-.3-.9-.9-.9-1.5,0-1.5,1.5-2,2.8-2s2.1.3,3.2.8l-.5.9c-.9-.5-1.6-.7-2.6-.7s-1.7.2-1.7.9,0,.3.1.4c.2.3.6.3,1.8.3s3.2.1,3.2,1.8-1.5,2.2-3,2.2ZM223.7,57.1h-2.4v5.2h-1.1v-5.2h-2.4v-1.1h5.8v1.1Z"/>
  </g>
  <path class="st2" d="M-336,68.1h-24.8v-23.7h24.8v22.9-1s0,1.8,0,1.8Z"/>
  <path class="st1" d="M-336,44.3v-23.4h23.6v23.4h-23.6Z"/>
  <path class="st3" d="M-336,20.9h-24.8V-2.9h24.8v24h0v-.2Z"/>
  <g class="st5">
    <path class="st4" d="M-312.3,44.2v23.9H-126.3v-23.9h-186Z"/>
  </g>
  <text class="st0" transform="translate(-302 59.3)"><tspan x="0" y="0">manhattan’s finest</tspan></text>
</svg>