<?xml version="1.0" encoding="UTF-8"?>
<svg id="a" data-name="Layer_1" xmlns="http://www.w3.org/2000/svg" width="96" height="94.73" viewBox="0 0 96 94.73">
  <defs>
    <style>
      .b {
        fill: #134722;
      }

      .c {
        fill: #d6d6d6;
      }
    </style>
  </defs>
  <path class="c" d="M24.84,47.29c-8.28-.03-16.56-.05-24.84-.08v-23.76c8.28-.03,16.56-.05,24.84-.08,0,0-.04-.03-.04-.03,0,8,0,15.99,0,23.99l.04-.03Z"/>
  <path class="b" d="M72.33,47.31c7.89-.03,15.78-.06,23.67-.1v23.76c-7.9-.04-15.8-.07-23.7-.11,0,0,.06.06.05.06,0-7.88,0-15.77,0-23.65,0,0-.03.04-.03.04Z"/>
  <path class="c" d="M48.49,94.73c-.03-7.95-.05-15.9-.08-23.86l-.03.04c7.99,0,15.98,0,23.98,0,0,0-.06-.06-.06-.05-.02,7.96-.04,15.92-.06,23.87h-23.75Z"/>
  <path class="b" d="M24.84,23.37V0h23.56v23.37s.04-.03.04-.03c-7.88,0-15.76,0-23.64,0l.04.03Z"/>
  <path class="b" d="M48.41,70.88h-23.58c0-7.98,0-15.78,0-23.59,0,0-.04.03-.04.03,7.88,0,15.76,0,23.64,0,0,0-.05-.05-.05-.06,0,7.88,0,15.77,0,23.65l.03-.04Z"/>
  <path class="c" d="M48.49,47.19c-.03-7.95-.05-15.9-.08-23.86l-.03.04c7.99,0,15.98,0,23.98,0,0,0-.06-.06-.06-.05-.02,7.96-.04,15.92-.06,23.87h-23.75Z"/>
</svg>