<?xml version="1.0" encoding="UTF-8"?>
<svg id="a" xmlns="http://www.w3.org/2000/svg" viewBox="0 0 186 23.9">
  <defs>
    <style>
      .cls-1 {
        fill: #d1d1d1;
      }
    </style>
  </defs>
  <polygon class="cls-1" points="25 12.6 27.7 12.6 26.4 10.1 25 12.6"/>
  <polygon class="cls-1" points="83.2 12.6 85.9 12.6 84.5 10.1 83.2 12.6"/>
  <polygon class="cls-1" points="56.6 12.6 59.4 12.6 58 10.1 56.6 12.6"/>
  <path class="cls-1" d="M0,0v23.9h186V0H0ZM18.9,15.1h-1.1v-4.4l-2.4,3.5-2.4-3.5v4.4h-1.1v-6.2h1.1l2.4,3.6,2.4-3.6h1v6.2h.1ZM29,15.1l-.8-1.5h-3.8l-.8,1.5h-1.2l3.4-6.2h1.1l3.4,6.2h-1.3ZM39.9,15.1h-1.1l-3.9-4.6v4.6h-1.1v-6.2h1.1l3.9,4.6v-4.6h1.1v6.2ZM50.5,15.1h-1.1v-2.7h-3.8v2.7h-1.1v-6.2h1.1v2.5h3.8v-2.5h1.1v6.2ZM60.7,15.1l-.8-1.5h-3.8l-.8,1.5h-1.2l3.4-6.2h1.1l3.4,6.2h-1.3ZM69.6,10h-2.4v5.2h-1.1v-5.2h-2.4v-1.1h5.8v1.1h.1ZM78.8,10h-2.4v5.2h-1.1v-5.2h-2.4v-1.1h5.8v1.1h.1ZM87.2,15.1l-.8-1.5h-3.8l-.8,1.5h-1.2l3.4-6.2h1.1l3.4,6.2h-1.3ZM98,15.1h-1.1l-3.9-4.6v4.6h-1.1v-6.2h1.1l3.9,4.6v-4.6h1.1v6.2ZM103.6,9.2l-.3.2c-.2,0-.3,0-.3-.3s0-.3.2-.3c.3-.2.7-.6.7-1s0-.3-.3-.3c-.5,0-.7-.3-.7-.8s.4-.7.8-.7c.7,0,1.1.7,1.1,1.3,0,1-.7,1.6-1.1,1.9h-.1ZM111.7,15.4c-1.3,0-2.6-.2-3.7-1.1l.5-.9c1,.6,1.8.9,3.1.9s2-.2,2-1,0-.3-.1-.5c-.2-.3-.8-.4-1.7-.4-1.9,0-2.1,0-2.5-.3-.6-.3-.9-.9-.9-1.5,0-1.5,1.5-2,2.8-2s2.1.3,3.2.8l-.5.9c-.9-.5-1.6-.7-2.6-.7s-1.7.2-1.7.9,0,.3.1.4c.2.3.6.3,1.8.3s3.2.1,3.2,1.8-1.5,2.2-3,2.2v.2ZM130,10h-4.4v1.4h2.6v1.1h-2.6v2.7h-1.1v-6.2h5.4v1.1l.1-.1ZM135,15.1h-1.1v-6.2h1.1v6.2ZM145.7,15.1h-1.1l-3.9-4.6v4.6h-1.1v-6.2h1.1l3.9,4.6v-4.6h1.1v6.2ZM156.1,15.1h-5.6v-6.2h5.5v1.1h-4.4v1.4h2.4v1.1h-2.4v1.6h4.5v1.1-.1ZM163.1,15.4c-1.3,0-2.6-.2-3.7-1.1l.5-.9c1,.6,1.8.9,3.1.9s2-.2,2-1,0-.3-.1-.5c-.2-.3-.8-.4-1.7-.4-1.9,0-2.1,0-2.5-.3-.6-.3-.9-.9-.9-1.5,0-1.5,1.5-2,2.8-2s2.1.3,3.2.8l-.5.9c-.9-.5-1.6-.7-2.6-.7s-1.7.2-1.7.9,0,.3.1.4c.2.3.6.3,1.8.3s3.2.1,3.2,1.8-1.5,2.2-3,2.2v.2ZM175.2,10h-2.4v5.2h-1.1v-5.2h-2.4v-1.1h5.8v1.1h.1Z"/>
</svg>