<?xml version="1.0" encoding="UTF-8"?>
<svg id="a" xmlns="http://www.w3.org/2000/svg" version="1.1" viewBox="0 0 424.1 270.4">
  <!-- Generator: Adobe Illustrator 30.0.0, SVG Export Plug-In . SVG Version: 2.1.1 Build 123)  -->
  <defs>
    <style>
      .st0 {
        fill: #005f52;
        fill-rule: evenodd;
      }
    </style>
  </defs>
  <path class="st0" d="M82.2,0h.7c.8.3,1.1,1.2,1.4,2.1.7,1.7,1.6,4.2,1.4,6.4,0,.8.4,3.6.7,4.7v1.4c0,1.8,0,3,.2,4.7,0,1.4-.6,3.3-.4,4.1-.2.5-.4,1-.2,1.7,0,.3-.4.7-.5,1v1c-.2.8-.3,1.9-.6,2.9-.7,2.5-1.7,4.9-2.8,7.2-.8,1.6-1.8,3.3-2.6,5.1-.3.8-.4,1.6-.7,2.4-1,1.9-2.1,3.7-3.1,5.6-.6,1.4-1.1,3.2-1.9,4.5-2.1,3.3-4.2,6.8-5.8,10.3-.2.4-.7.8-.9,1.2-.3.4-.2,1-.5,1.3-.2.3-.8.8-1,1.1v.8c-1,2-1.8,4-2.7,5.8v.7c-.5,1-.7,2.3-.8,3.5-.3,1.2-.7,2.3-1,3.5v1.1c-.3,1.3-.3,3.2-.7,4.4v1.2c-.5,2.2-1.1,4.6-.8,6.4,0,1-.2,1.7-.4,2.7,0,1,.3,2.7.5,3.6,0,1.1,0,2.2-.2,3.2,0,1.2.7,2.8,1,4.1.4,1.3.4,2.6.9,4,.3.9.8,1.9,1.2,2.9.6,1.4.8,2.8,1.5,4.1.7,1.2,1.5,2.3,2.4,3.6.7,1.1,1.2,2.4,1.9,3.3.3.4.8.8,1.2,1.3.2.3,1.2,2.1,1.2,2.1.4.6,1,1,1.5,1.6.7.8,1.2,1.8,1.9,2.6.4.4.7,1.3,1.1,1.8.6.6,1.2,1.3,1.8,1.9.6.9,2,3,2.8,3.2,0,.6.7.9,1,1.2,1.1,1,2.1,2.4,3,3.6,1.4,1.9,2.6,3.9,4.1,5.7.7.8,1.1,1.7,1.8,2.4,1.1,1.1,2.2,2.3,3.2,3.5.3.4.4.8.7,1.1.8.9,1.7,1.7,2.4,2.6,2,2.6,4.7,4.3,7.4,6.2.8.6,2.1.8,2.8,1.3,2.9,2.1,6.5,3.4,10,4.9,2.5,1.1,4.8,2.9,7.2,4.2.4.2.9.4,1.3.5.2.1.3.4.6.5h.5c.5.2.9.4,1.4.6,2.3,1.4,4.8,3,7,4.3.7.4,1.2,1.1,1.9,1.6,2,1.2,3.4,2.1,5.2,3.4,1.6,1.2,3,2.6,4.6,3.8,1,.8,2.2,1.3,3.1,2.1,1.1,1.1,2.4,2.1,3.5,3.2.8.8,2.1,1.6,3,2.3.7.6,1.3,1.4,2,2,.9.7,1.8,1.2,2.7,1.9.7.6,1.3,1.5,2.1,2,3.5,2,6.8,4.8,10.1,6.4.7.3,1.6.1,2.3.4,2.1.6,4,1.3,6.8.7h1.7c.6-.3,1.2-.5,1.8-.8.9-.2,1.7.1,2.6-.2.4-.1.9-.5,1.3-.7.7-.3,1.2-.2,1.9-.4,1.4-.4,3.2-1.2,5-1.1.3.4.8.6.9,1.1.2.9-1.2,2.6-.9,3.9.2.4.4.8.6,1.2.2.9-.4,1.3-.6,2-.1.6.4.7.2,1.3s-.9.8-1,1.6v2.2c0,.6-.1,1.2-.2,1.9.1.4.6.9.4,1.5-.2.7-.8,1.2-1.1,1.9-.2.5-.2,1-.6,1.3.1.2.4.5.3,1-.2.7-2.7,3.1-3.5,3.3-1.1.3-1.8-.2-2.4-.5h-1c-.3-.1-.5-.4-.7-.5-.5-.2-1.4,0-1.8.1-1.9.2-3.8.8-4.9,1.9s-1.2,2.3-2,3.6c-.3.5-.8.9-1.1,1.4-.2.5-.4.9-.7,1.4-1.4,1.9-2.7,4.1-4.1,5.8-.3.3-.8.5-1,.8-1,1.1-1.9,2.1-3,3-.3.3-.5.8-.8,1.1-.3.4-.9.6-1.2,1-.3.3-.5.8-.9,1.1-.5.3-.9.4-1.3.8-.9.7-1.6,1.6-2.5,2.3-2.1,1.6-4.3,2.9-6.4,4.4-.4.3-.9.2-1.3.5-.3.2-.6.7-.9.9-.7.2-1.3.4-2,.6-1.6.8-3.3,2-5,2.6-2.5.9-5.6,1.4-8.2,2-.7.1-1.9-.1-2.4-.2-.4.1-.7.2-1.1.3h-1.4c-.4-.2-1.3,0-2-.3-1.1-.3-1.6-.7-2.8-.8,0-.1,0-.2-.2-.3h0c0,.1,0-.1,0-.1-.3-.1-.6,0-.8-.2-.2-.1-.5-.5-.6-.6-.2-.1-.5,0-.8,0v-.2c-.3,0-.5-.1-.7-.2-.6-.4-1.1-.9-1.8-1.3-.4-.3-.8-.9-1.2-1.2h-.6c-.3-.1-1-.5-1.4-.8-.6-.5-1.5-1.4-2.1-1.9-.9-.6-1.3-3.2-.3-4,1.2-.8,3.2,1.3,4.2,1.7,1.8.8,3.1,1.4,4.7,2.2.3.1.7.2,1,.3.5.3,1,.8,1.5,1,.7.3,1.4,0,2.2.2.7.2,1.8,1,2.9.7,1.5-.4,2.9-.3,4.7-.8.6-.2,1.4-.6,1.9-.9.6-.3,1.2-.2,1.7-.5,2.7-1.7,5.1-4,7.6-5.9.5-.4.8-1.1,1.3-1.6,1.5-1.2,2.6-2.6,3.9-3.9s.7-.6,1-.8c0-.2,0-.5.1-.7.9-1.2,1.7-2.6,2.6-3.7,1.1-1.4,2.2-3,3.3-4.4.6-.8.9-1.8,1.4-2.7s1.3-1.7,1.8-2.6c.3-.7.3-3.6-.4-4.1-.4-.7-2-.4-2.6,0-1.4,1-3.4,1.1-4.7,1.9-.8.5-1.6,1.2-2.6,1.6-.7.3-1.8,1.1-2.7,1.6-.3,0-.5.1-.8.2-.6.4-1.1.9-1.8,1.3-1,.6-1.9.8-2.9,1.2s-1.2.8-1.7,1.1c-.3.2-.7.2-1.1.4-.7.3-1.4.8-2,1.1-.5,0-1,.3-1.4.6-1.2.4-2.3.8-3.5,1.1-.8.2-1.5.3-2.2.5-1,.6-2,.6-3.1,1-.9.4-1.7.8-2.5,1-1.6.3-2.8.8-4.4,1.3-.5.2-1.8.1-2.2.3-1.1.5-2.5.9-3.6.7v.2c-.7.4-3.5.5-4.3.6-.6.1-2.2.3-2.5.1v-.2c-.4.2-.8.1-1.3,0,0-.1,0-.2-.2-.2-.4.4-1.1-.1-1.5-.2h-.9c0-.2,0-.1-.2-.2-.4,0-1.2-.3-1.8-.5v-.2c-.8.2-2.7-1.2-3.4-1.6-.3-.2-1.9-.9-1.9-.8-.9-.9-2.2-1.1-3.2-1.6-.6-.3-1.3-.9-1.8-1.1-.5.2-1.3-.7-1.8-1-.9-.7-2.4-1.4-3.3-2.3-.8-.7-1.4-1.9-2.1-2.8-.7-1-.9-2.5.5-3,1-.4,1.5.5,1.9.8,1.4,1.1,2.7,2.3,4.1,3.3,1.1.8,2.5,1.5,3.8,1.9.4.1,1.2.6,1.6.5.7.3,1.6.8,2.2.8s1.3.8,1.9.7c.9-.2,1.7.7,2.4.6,1.3.1,2.6.2,3.9.3,2.1-.3,3.9-.6,5.7-1.1,1-.3,2.2-.4,3.2-.8.8-.4,1.6-.3,2.2-.7.9-.5,2.2-.3,3-.7.6-.3,1.2-.7,1.8-1h1.1c.9-.4,1.4-.6,2.2-1,1.3-.7,2.8-1.5,4.2-2.1.2,0,1.3-.5,1.3-.4,1.3-1.3,3.1-2,4.7-3,.1-.2.3-.3.4-.5,1.7-1.1,3.1-2.2,5.1-3v-.2c1.4-1.1,2.9-1.9,4.1-3.3.6-1,1.2-2,1.9-3,.8-2-.1-4.3-.9-5.6-.8-1.3-1.5-2.4-2.8-3.3-.2-.1-.4-.6-.5-.7-1.3-.7-1.9-1.7-3-2.6-.2-.2-.5-.3-.7-.5-.7-.9-1.7-1.4-2.6-2.3s-2.1-2.2-3.3-3.1c-.2-.3-.4-.6-.6-.8-.6-.5-1.4-.6-2.1-1.1l-1.1-1.1c-.4-.3-.8-.5-1.1-.8l-.4-.7c-.6-.3-1.2-.5-1.8-.8-.9-.6-1.7-1.6-2.7-2.2-1.3-.9-2.7-1.8-4-2.5-.7-.4-1.3-.5-1.9-.8-.5-.4-1-.9-1.5-1.3-1-.8-2.2-1.2-3.3-1.9-.4-.4-.9-.7-1.3-1.1-.9-.5-1.8-1-2.7-1.4-.7-.2-1.4-.4-2.1-.6-.8-.6-1.5-1.1-2.2-1.7-1.3-.5-2.7-1-4-1.5-1.3-.8-2.6-1.8-3.9-2.6-.6-.4-1.4-.8-2-1.1-.7-.2-1.4-.4-2.2-.7-.6-.3-1.2-.7-1.9-1-.9-.4-4.4-1.4-5-.9-.3-.3-1.2-.6-1.8-.4,0,0-.2.2-.5.1-1.7-.4-2.9-.3-4.7-.2-6.1.4-13.4.3-19.4,1.9-1.2.3-2.1.3-3,.6-.4.1-.9,0-1.3,0s-1.1.4-1.4.4-1.6-.2-1.6-.2h0c-.2.1-.3.1-.5,0-.2.1-.3.2-.4.4-.2-.2-1.2,0-1.8,0h-1c-.3,0-.5.3-1,.2-.9,0-1.7-.1-2.6-.2-.8,0-1.6.2-2.4.2s-2.3-.6-3-.8c-.4-.1-1.1,0-1.5-.1-.4-.2-.8-.4-1.2-.7-1-.3-1.7-.3-2.6-.7-1.1-.4-2.2-1.3-3.2-1.8s-1.9-.7-2.8-1.2c-2.1-1.2-4-2.7-5.8-4.2-.4-.2-.8-.5-1.2-.7-.7-.5-1.2-1.2-1.8-1.9-1.4-1.4-2.8-2.8-4.2-4.1-.4-.5-.9-1.6-.6-2.1.1-.3.3-.5.6-.7,1.2-.8,4.8,1.2,5.6,2,4.5,4.5,10.1,8.1,16.9,10,.9.3,2.9.2,4.1.1.7,0,1.3.6,2.2.4.3-.1.7-.2,1-.4,1.2-.3,3.2,0,4.4-.4.6-.3,1.6,0,2.4-.2.6-.2,1.4-.2,2.2-.4.6-.3,1.1-.5,1.7-.8.7-.2,1.5-.1,2.1-.1s2.3-.8,2.9-1c.4-.1,1.3,0,1.8-.1.5,0,1.2-.3,1.6-.4.6-.2,1.4-.4,2.1-.7.4-.2.7-.6,1.1-.8.2-.1.8-.1.8-.2.4-.2,0-.4.5-.5h0c.3-.3.5-.8,1-1q0,.1.4.2c.9-1.2,1.8-2.5,2.4-4.2v-2.2c-.4-1.8-1.1-3-1.9-4.4-1.1-2-2.1-4-3.4-5.8-.3-.3-.7-.6-1-.9-1.1-1.4-2.4-2.5-3.6-3.7-.5-.6-1-1.2-1.5-1.8-.4-.3-.9-.3-1.2-.7-.4-.6-.9-1.4-1.5-1.8-1.3-.9-2.4-1.9-3.6-3-.5-.4-.9-1.1-1.4-1.5-2.9-2.2-5.5-4.4-8.5-6.3-2-1.2-4.2-2-6.4-3.1-4.5-2.2-9.4-4.2-14.2-6.3-1.4-.6-2.9-1.4-4.1-2.2-1.1-.7-2.3-.9-3.4-1.6-2-1.3-3.9-2.8-5.9-4.1-1.7-1.2-3.5-3.5-4.8-5.1-2.6-3.2-5.8-6-8.2-9.3-.7-1-1.8-1.8-2.1-3-.3-1.2.8-2,1.8-2,.5-.2,1.9.4,2.2.8.2.2.2.4.4.7.5.7,1.3,1.2,1.8,1.9,1.2,1.5,2.5,3,3.8,4.4,1.5,1.5,2.9,3.1,4.6,4.4.3,0,.6.2.9.3.1.2.2.3.3.5.3.3.8.4,1.2.6.2.2.4.4.5.5,5.4,2.5,11.9,5.4,18.5,5.2,1.3,0,2.8.5,3.9.8,1.2.3,2.3.4,3.6.7.8.2,2,.8,2.6.8,1.1,0,1.8.6,2.8-.4,1.4-1.6,0-2.6.4-4.5.2-1.2-.2-2.8-.4-3.9-.2-.8,0-1.9-.2-2.9-.3-1.4-.6-3.2-.3-4.7,0-.8-.2-1.6-.3-2.3.3-2.6.2-5.6.8-8.3,0-1,.2-2,.2-3,.2-1,0-2,.4-3.1.5-2.5.7-5.1,0-7.7-.3-1.1-.8-2-1.4-2.9-.2-.3-.3-1.1-.4-1.6-.4-1-1.2-1.9-1.7-2.7v-.6c-.8-1.3-1.3-2.7-2.1-4.1-1.1-1.8-2.3-3.7-3.2-5.7-.3-.7-.5-1.6-.8-2.3-.8-1.8-1.5-3.8-2.5-5.5-.2-.8-.4-1.5-.5-2.3,0,0-.2-.3-.3-.4-.4-1-.4-2-.8-3.1-.2-.6-.7-1.4-.9-2-.3-.8,0-1.5-.2-2.3,0-.4-.4-1.2-.2-1.7.2-.3.6-.6.9-.8h1.3c1.3.5,2.7,4.3,3.2,5.7v1c.2.7.8,1.5,1.1,2.3.9,2.5,1.8,4.3,3.1,6.3.2.5.4,1,.6,1.5.4.6.9,1.2,1.2,1.7.2.4.2.8.5,1.1.7.8,1.3,1.5,1.9,2.3.3.4.7,1,1,1.5v.6c.7.9,1.4,1.8,2.2,2.6.4.3,1.2,1.2,2.1.8,1.6-.6,2.8-3.8,3.8-5.2.6-.8,1.6-1.6,2.2-2.5.9-1.3,1.7-2.5,2.7-3.8.3-.6.6-1.2.9-1.8,1.6-2.2,3.1-4.4,4.8-6.6,1-1.3,2.2-2.3,3.2-3.6.2-.5.5-.9.7-1.4.3-.5.8-1,1.2-1.4.6-.9,1-1.8,1.6-2.6.3-.5.9-.9,1.2-1.4.2-.5.4-1,.6-1.4.6-1.1,1.4-2.2,1.9-3.3.2-.6.4-1.3.6-1.9.3-.6.7-1.2,1-1.7.4-.8.7-2.5.9-3.3v-2.3c0-.5.3-1,.4-1.5v-2.8c0-.6.2-1.3,0-1.8,0-.9,0-1.8.2-2.8-.3-1.1,0-1.7,0-2.8s-.2-.8-.2-1.2,0-.6-.2-1c-.3-1.5-.5-4.5.7-5.7h.7,0Z"/>
  <path class="st0" d="M250,213.2c.6,0,1,.3,1.6.2,2-.5,4.2-.8,5.9-1.5,1.4-.6,2.8-.8,4-1.5,3.1-1.9,5.5-4.2,8-6.6,1.2-.9,2.3-1.8,3.5-2.6.5-.4.8-.9,1.2-1.4.9-.9,2.2-1.5,3-2.4.3-.3.5-.7.9-1.1,1.7-1.6,3.6-2.8,5.5-4.2,1.7-1.3,3.2-2.9,4.9-4.2,1.8-1.4,3.2-2.3,5.2-3.5.7-.4,1.2-1.2,1.9-1.6,2.2-1.4,4.7-2.9,7-4.4.5-.2.9-.4,1.4-.6h.5c.2,0,.4-.4.5-.5.7-.5,1.5-.5,2.2-1.1,1.8-1.3,3.9-2.5,5.9-3.6,1-.6,2.1-.8,3.1-1.4.5-.2.9-.7,1.3-.9,1.6-.8,3-1.2,4.4-1.9s1.1-.9,1.6-1.2c.6-.5,1.9-.8,2.7-1.3.4-.2.9-.8,1.3-1,.8-.4,1.6-.3,2.4-.7s.6-.5,1-.7c.9-.5,1.8-.9,2.6-1.4.8-.5,1.3-1.7,2.1-2.3,1-.9,2.2-1.4,3.2-2.3.2-.2.4-.5.5-.7,1.3-1.2,2.6-2.4,3.9-3.6.3-.3.5-.8.9-1.1,2.5-2,5-4.8,7-7.4.7-.9,1.9-1.6,2.7-2.5v-.4c.5-.9,1.2-1.6,1.8-2.7.6-1.1,1.5-2,2.2-3.2.5-.9,1.2-1.3,1.8-2,1.9-2.9,3.9-5.5,5.6-8.1,0,0,0-.4.2-.7.2-.6.8-1.1,1-1.7.1-.4.2-.8.3-1.2.5-1.2,1.3-2.5,1.9-3.8.1-.5.2-1.1.3-1.6,1.1-2.7,1.8-6.6,2.4-9.4,1.3-6.5,1.7-13.5.2-19.6v-.5c-.4-1.6-.4-3.3-.8-5.1-.2-.6-.4-1.1-.6-1.7-.1-.4,0-.8-.2-1.3s-.4-1.1-.5-1.5c-.4-1.2-.4-2.4-.8-3.6-.9-2.8-2.4-5.4-3.7-7.9-.5-.8-.6-1.7-1-2.5-1.4-2.7-2.8-5.3-4.4-7.9-.4-.7-.5-1.5-.9-2.2-.7-1.8-1.6-3.7-2.4-5.5-.4-1.5-.9-2.9-1.3-4.4-.6-2.2-1.6-4.4-2.2-6.5,0-.5,0-.9-.1-1.3-.3-1.7-.6-3.5-1-4.9-.6-2.1-.3-3.8-.9-5.5-.3-1-.1-2.1-.3-3.3-.4-2.2-1.1-5.2-1-7.8,0-.8-.3-1.8-.2-2.6-.1-.4-.2-.8-.3-1.2-.1-.5-.4-2.9-.2-3.6,0-.3,0-.5-.1-.8-.3-1.4-.2-5,.5-5.5.3-.2.8-.3,1.4-.2,1.8,1.6,2,4.9,2.3,7.8.1.9.3,1.4.5,2.3,0,.4.3,2.1.2,2.4.6,1.9.9,4.6,1.6,6.6.2.6,0,.9.2,1.4.9,2.7,1.4,5.8,2.7,8.5.2.6.3,1.3.5,1.9,2.9,7.1,6.6,14.4,10.5,20.5v.4c1.4,2.1,2.6,4.3,3.6,6.4.6,1.2,1.1,2.8,2.1,3.7,1.2,1,3.9.4,5.2-.7,1.5-1.2,2.6-2.9,3.8-4.5.3-.4.8-.7,1.2-1.1.6-.6,1.1-1.9,1.5-2.7.6-1.1,1.5-2.2,2.1-3.4.5-.8,2.2-3.3,2.1-4.1,0-1.3,1.3-3.6,1.7-4.6.3-.6.1-1,.4-1.6.1-.2,1-1.5,1.3-1.2,2.7,1,1.7,3.9,1,6v.5c-.2.5-.5,1-.6,1.3,0,.5-.8,2.5-1.1,3.1v.5c-.4.5-.3.7-.5,1.2-.3.8-1,1.8-1.3,2.6-.4.8-.5,2-1,2.8-.2.4-1.3,2.1-1.3,2.3,0,.4-.6.8-.4,1,0,0-.3,0-.4.2-.3.6-.4,1.5-.9,2.2-1,1.5-1.6,3-2.5,4.5-.1.2-.5.3-.6.6v.5c-.2.6-.6,1.1-.8,1.5h-.1c0,.8-.7,2.3-1.2,2.9,0,0-.2,1.1-.2,1.4-.4,1.3-.7,2.1-1,3.4-.2.9,0,2.2.4,3v1.1c.3,1.2.6,2.8,1,4.3.3,1.2.1,3.4.5,3.9,0,0,.1.4.1.8-.1.6,0,1.5.1,2v2.7c0,.3.2.7.2,1v1.5c0,.5.1.9.2,1.4,0,.9-.2,2.3-.4,3.3v1.2c-.3.9-.2,1.9-.4,2.8-.3,1.6-1,5.1-.2,6.3.3-.3.8-.4,1.3-.7.9-.5,1.8-1.1,2.7-1.6.4,0,.8-.2,1.1-.2.5-.3,1-.6,1.6-.9.7,0,1.3-.2,2-.4,1.7-.6,3.5-1,5.1-1.5,1.5-.4,3.4,0,4.7-.2.8,0,1.8-.4,2.3-.6.7-.3,1.5,0,2.2-.5.6-.3,1.4-.8,2.1-1,.4,0,.7,0,1.1-.2,3.9-1.9,6.9-3.6,9.3-7.3,1.2-1.9,1.7-4.9,3.3-6.4h.8c.4.5,1,.7,1.3,1.3.5,1-.2,2.2-.3,3.2-.5,4.1-2.9,7.9-5.4,10.5-.7.7-1.2,1.8-2,2.3-2.9,2.1-6.2,4.7-9.5,6-.9.4-1.5.3-2.4.7-.7.4-1.5.7-2.2,1.1-.6.2-1.4.3-2.1.6-.9.4-1.8,1.1-2.5,1.5-.5,0-1,.2-1.6.3-.5.3-1.1.6-1.8.9-.3,0-.8.2-1.2.4-5.3,3.1-9.3,5.7-13.6,9.7h-.4c-.3.2-.5.8-.8,1-1.4.9-2.2,1.9-3.1,3-.7.9-1.6,1.4-2.4,2.3,0,0-.7.7-.8.6-.6.8-1.1,1.5-1.8,2.3-.5.6-1,.9-1.4,1.5-.5,0-2.2,2.7-2.9,3.2h-.2c-.1.8-1,1.4-1.4,2-.7,1.1-1.2,2.1-2,3.2-.4.5-1,1.1-1.3,1.7-.5.9-.8,2.4-1.5,3.2h-.2c-.3.4-.2,1-.5,1.5-.6,1.1-1.2,1.9-1.8,2.6-.2.6-.3,1.1-.5,1.7v.2c-.4.4-.5,1.1-.7,1.5v1.4c-.1.2,0,.4-.1.7-.3,1.6.4,2.8,1,4.1.4.8,1,2.1,1.9,2.1,0,.7,1.9,1,2.5,1.3,2.6,1.4,5.9,1.8,9.2,2.3,1.4.2,2.8.7,4.5,1h1.6c.6.2,1.2.4,1.9.6.5.1,1.4,0,2.1.2,1.2.3,2.1,0,3-.2.8-.1,1.6,0,2.3,0,.4-.1.8-.2,1.1-.4.8-.3,1.3-.2,2.1-.6.6-.2,1.4-.3,2.2-.6,2.5-1.1,4.9-2.6,7.2-4,1.4-.9,2.8-1.7,4.1-2.8.8-.6,1.5-1.5,2.4-1.9,1.4-.6,2.8,0,3.2,1.2v.7c-.3.8-.6,1.6-1.1,2.5-.1.2-.6.9-.8,1.1-.2.2-.6.2-.9.6-.2.4-.2.8-.5,1.1-.4.5-1.2.6-1.6,1-.2.2-.9,1.4-.9,1.4-1.2,1.2-2.5,2.2-3.8,3.2-.8.6-1.5,1.4-2.3,2-.3.2-.7.4-1,.6h-.9c-.2,0-.1.3-.3.4-.7.5-3.9,1.7-4.5,1.6v.2c-1.4,0-2.4.7-3.8,1.1-.5.1-1.1,0-1.6,0s-.6.4-1,.4h-.7l-.2.2c-.3.1-1.6,0-1.9,0s-1-.2-1.5-.4c-.6-.2-1,0-1.4,0-.7,0-1.5-.5-2-.7h-.9c-.5-.2-1.2-.2-1.9-.3-.5,0-1.1-.3-1.3-.5-.2-.1-2.2-.3-2.8-.4-2.1-.5-4.4-1.1-6.1-1.5-1.5-.4-2.6-.2-3.9-.6-.8-.2-1.4-.6-2.2-.9h-1.1c-.6.1-3-.1-3.5-.4,0,.2,0,0-.1.2-.3-.3-1.8.1-2.6.1s-2.9-.2-4.2.2c-.2,0-1-.2-1.4,0-1,.3-4,.3-5,1.1-.4.3-1.8,0-2.2.2,0,0,0,.2-.1.2s-1.5,0-1.6-.1c-1,.7-3,.6-4.1,1.1-1.3.6-3,.6-3.9,1.2,0,0-.1-.1-.3-.1-.4,0-.9.3-1.2.6v-.2h0v.2s-2.2.6-2.3.7h0c-.4.1-1.3.5-1.9,1v.2c-.7,0-2.9,1.5-3.7,2.1h-.5c-.7.3-1.3.6-2.1.9-.3.1-.6.5-.9.7-.4.3-.5,0-1,.2-.6.2-1.2.7-1.8,1-.3.1-1,.4-1.1.3-.8.4-1.4.9-2.3,1.4-.4.2-.5,0-.9.2-2.1,1.2-3.8,2.6-5.8,3.8-.1.2-.2.3-.4.5-.8.5-1.7.8-2.4,1.4-1.5,1.1-2.7,2.3-4.1,3.2-.6.4-2.3,1.7-2.4,1.6-.7.6-1.5,1.4-2.1,2s-.6.8-.6.8c-.7.5-1.1,1.2-1.8,1.8-1.8,1.5-3.2,3.4-4.5,5-.3,1.1-2.1,2.7-2.8,4.1-.1.2-.5.3-.6.5,0,.4-.1.7-.2,1.1-.2.5-1,1.8-.5,2.7.6,1.2,2.1,3.1,3.4,3.9.7.4,1.3.6,1.9,1.1.4.3.5.7.9,1.1.6.7,1.4,1,2.2,1.6.4.2.6.8.9,1.1.7.6,1.5,1.3,2.2,1.9.4.3.8.4,1.1.6.6.4,1.1.9,1.8,1.2.8.3,1.4.4,2,.8.2.1.4.5.6.6.4.3,1.1.4,1.5.7.6.5,1,1.2,1.6,1.6.9.6,1.8.9,2.7,1.4,1,.5,1.8,1.1,2.9,1.7.3.2.6.6.9.9s.9.5,1.3.9c.7.7,1.5,1.4,2.4,2,2,1.3,4.3,2,6.7,2.8.7.3,1.2,1,2,1.2,2.1.8,4.6.5,6.9.7.4,0,.9-.2,1.3-.2h1.2c1-.2,2.2-.8,3.2-1.3,2.5-1.2,4.8-2.3,7-3.9,1-.8,1.5-2.1,2.3-3.1.4-.6,1.4-1.7,2.1-2,.3,0,.6,0,.9-.1.5.2.7.6,1,.9v1.5c-.2.5-.8,1-1.1,1.5-.6.9-1,1.7-1.6,2.6-.6.9-1.7,1.5-2.4,2.3-.8,1-1.5,2.1-2.5,2.9-.6.5-2.3,1-2.7,1.5-.4.5-3,2.4-3.7,2.1-.4.2-.9.6-1.2.7h-.7c-1.1.3-2,.4-3.3.6-.8.2-1.7.4-2.5.7-.8.1-1.6-.1-2.4-.2-.2,0-.4,0-.7.1-1.4-.2-2.6-.5-3.9-.9h-1.1c-1-.2-2.1-.5-3.1-.7-.4-.3-.8-.5-1.1-.8-.4-.2-.7,0-1.1-.2-.3-.1-.6-.4-.9-.6-.5-.3-1.2-.3-1.8-.6-.3-.1-.7-.6-1-.7-.6-.3-1.1-.2-1.9-.5s-1.6-1-2.4-1.3c-.3,0-.6,0-.9-.1-.2-.1-.5-.4-.7-.6-.6-.4-1.5-.5-2.2-.9-.5-.3-1.1-.9-1.6-1.2-.3-.2-.7,0-1-.2-.1-.2-.3-.4-.4-.6-.8-.5-1.7-.6-2.4-1.2-.7-.6-1.4-1.5-2.3-2-1.3-.7-2.5-1.2-3.6-2-.3-.2-.5-.6-.8-.8-.2-.1-2.1-.8-2.2-.7-.4-.2-.7-.6-1.1-.9-.2,0-.4-.1-.6-.2-.3-.3-.6-.6-.9-.9-.3-.1-.6-.2-.9-.3-.3-.2-.4-.7-.7-.9-.6-.4-1.5-.9-2.2-1.4-.5-.3-.8-1.1-1.3-1.4-.3-.2-.6-.2-.9-.4-.7-.5-1.4-1.2-2.2-1.6-.3-.1-.7-.2-1-.3-.9-.4-3.6-1.8-4.7-1.1-.4.4-1.2.7-1.5,1.2-.2.4-.8,2.4-.5,2.9-.3.7,0,1.8,0,2.8s.5,2.6.2,3.1c.1.2,1.3,3.3,1.2,3.4.3.6.8,1.3,1,2,.1.4.2.9.4,1.3.3.7.8,1.3,1.1,1.9.1.5.3,1,.4,1.5,0,.2.4.4.5.6v.7c.5,1,1.2,1.8,1.7,2.8,0,.2.1.4.2.6.3.5.9.8,1.3,1.2.2.4.5.8.7,1.2.3.3.7.4.9.7.2.4.4.8.6,1.2.4.6,1.3,1,1.8,1.6,1.2,1.3,2.4,2.7,3.9,3.7.3,0,.5.1.8.2.6.3,1.4.7,2,.9.8.3,1.7,0,2.6.4.4.1.8.4,1.1.5.3,0,.6,0,.7-.1.5-.1,1.5,0,2,0,1.1-.1,2.6.3,3.8,0,1.4-.3,2.6-1,3.7-1.7.2,0,.4-.1.7-.2.3-.3.7-.8,1.1-.9.6-.2,1.1-.2,1.7-.4,1.3-.6,2.4-.8,3.5.4,0,.5-.3.6-.4,1-.2.5-.5,1.8-.9,2.2-.7.8-3.6,2.5-4.8,2.8h-.6c-.9.3-2.2.8-3.2,1.2h-.9c-.4.1-.7.5-1.1.6h-.9c-1.4.4-2.5.8-3.9,1-.2,0-.6-.1-.7-.2h-1c-.5,0-1.2-.3-1.6-.4h-.5c-.7,0-1.6-.2-2.1-.3-.7-.1-1.3-.5-1.9-.7-.5-.2-1,.1-1.6-.1-.8-.3-1.5-1.1-2.4-1.4-.7-.2-1.3-.3-1.8-.6-.3-.2-.7-.6-1-.8h-.4c-.7-.2-1.6-.8-2.2-1.2-.7-.6-1.9-1.4-2.4-2.1-.4-.5-.9-1.3-1.4-1.7-2.5-1.9-3.8-3.5-5.6-6.1-.2-.1-.4-.3-.5-.4-.5-.6-.9-1.4-1.2-2-.3-.5-.8-.9-1.1-1.4-1-1.8-1.6-3.8-2.8-5.7-.7-1-1.4-2.1-2-3.3-.8-1.7-1.3-3.9-2.6-5.3-.4-.4-1-.7-1.5-1.1-1.4-1.1-2.7-2.5-4.6-2.7-.3,0-.6.2-.9.2h-1.4c-1.2.3-2.6,1.6-3.6,0-.1-.3-.2-.6-.3-.9-.3-.4-.8-.6-1-1.1v-1.5c-.2-.4-.7-.5-.9-1-.2-.9.5-1,.3-1.9-.2-.8-.8-1.2-1.1-1.8-.2-.5,0-1,0-1.5-.2-.5-.4-1-.7-1.5v-1.5c-.3-.5-.6-1-.9-1.5-.2-.7.6-1.4.8-2.1.2-.7,0-1.6.1-2.3.1-.3.3-.5.4-.8.2-.6-.2-1.2-.3-1.7-.2-1,.8-2.1,1.6-2.1.6.4,1.3.5,2,.8.9.4,1.9,1.1,2.8,1.4.5,0,1,0,1.4.1.6.2,1.4.6,1.9.8,1,.3,2.1,0,3,.1s2,.3,3,.3v-.3h0l1,.3h0Z"/>
</svg>