<?xml version="1.0" encoding="UTF-8"?>
<svg id="a" data-name="Antlers_-_byGhostlyPixels" xmlns="http://www.w3.org/2000/svg" width="424.08" height="270.35" viewBox="0 0 424.08 270.35">
  <defs>
    <style>
      .b {
        fill: #f0efef;
        fill-rule: evenodd;
      }
    </style>
  </defs>
  <path class="b" d="M82.2,0c.22.02.44.04.67.06.84.33,1.05,1.23,1.39,2.09.71,1.73,1.61,4.23,1.39,6.39-.08.79.44,3.62.67,4.66.13.61-.09.96-.06,1.43.12,1.81.14,3.03.24,4.66.08,1.36-.6,3.26-.36,4.12-.16.53-.42.98-.18,1.73-.1.31-.42.71-.49.96.02.32.04.64.06.95-.17.84-.28,1.92-.55,2.87-.7,2.5-1.74,4.87-2.79,7.16-.75,1.64-1.84,3.34-2.55,5.07-.31.76-.4,1.57-.73,2.39-1.03,1.87-2.06,3.74-3.09,5.61-.62,1.42-1.06,3.15-1.88,4.48-2.05,3.31-4.22,6.81-5.82,10.33-.21.45-.67.79-.91,1.19-.26.43-.21.98-.48,1.31-.24.3-.82.79-.97,1.13-.04.28-.08.56-.12.84-.91,1.99-1.7,4.02-2.55,5.85v.72c-.5,1-.69,2.26-.85,3.46-.32,1.17-.65,2.35-.97,3.52v1.07c-.34,1.3-.3,3.16-.73,4.42v1.19c-.48,2.19-1.11,4.61-.85,6.45.14.98-.24,1.74-.36,2.69-.13,1,.26,2.7.49,3.58-.06,1.07-.12,2.15-.18,3.22.12,1.18.65,2.79,1.03,4.06.41,1.35.41,2.6.91,4,.31.87.83,1.95,1.21,2.86.59,1.42.81,2.79,1.52,4.06.67,1.2,1.52,2.33,2.36,3.58.72,1.05,1.24,2.36,1.88,3.28.3.44.8.81,1.15,1.31.19.27,1.21,2.15,1.21,2.15.41.57,1.01,1.01,1.46,1.55.69.84,1.21,1.78,1.94,2.57.36.39.67,1.26,1.09,1.79.58.64,1.17,1.27,1.76,1.91.6.86,1.97,2.96,2.85,3.22-.11.59.66.93,1.03,1.25,1.14.99,2.14,2.42,3.03,3.64,1.39,1.92,2.61,3.9,4.12,5.67.66.77,1.06,1.71,1.76,2.45,1.09,1.14,2.2,2.31,3.21,3.52.29.35.43.79.73,1.13.76.87,1.71,1.66,2.42,2.57,2.02,2.57,4.67,4.27,7.4,6.21.83.59,2.06.79,2.79,1.31,2.89,2.07,6.51,3.37,10,4.95,2.53,1.15,4.82,2.93,7.21,4.24.44.18.89.36,1.33.54.17.12.35.38.55.48h.54c.47.2.93.4,1.39.6,2.29,1.43,4.75,3.02,7.03,4.3.7.39,1.21,1.13,1.88,1.55,1.96,1.22,3.44,2.05,5.21,3.4,1.55,1.18,3.04,2.59,4.55,3.82.98.8,2.24,1.29,3.15,2.15,1.15,1.08,2.39,2.06,3.46,3.22.76.83,2.15,1.56,3.03,2.33.7.61,1.27,1.38,2,1.97.85.69,1.83,1.16,2.67,1.85.69.57,1.34,1.53,2.12,1.97,3.48,1.96,6.77,4.78,10.12,6.45.68.34,1.58.14,2.3.36,2.13.65,4.04,1.28,6.79.66.57-.02,1.13-.04,1.7-.06.61-.26,1.21-.52,1.82-.78.89-.25,1.72.1,2.61-.18.43-.14.9-.51,1.27-.66.66-.26,1.17-.2,1.88-.42,1.39-.44,3.17-1.22,4.97-1.07.32.36.78.6.91,1.14.24.95-1.24,2.55-.91,3.94.2.42.41.84.61,1.25.21.87-.43,1.34-.55,1.97-.1.56.41.69.24,1.31-.17.65-.86.75-1.03,1.55.02.74.04,1.47.06,2.21-.06.62-.12,1.23-.18,1.85.1.43.56.88.42,1.49-.16.74-.83,1.17-1.09,1.85-.21.54-.22.98-.6,1.31.15.22.43.54.3,1.02-.2.71-2.66,3.11-3.46,3.34-1.06.31-1.77-.22-2.37-.48-.32-.02-.65-.04-.97-.06-.29-.11-.49-.41-.73-.54-.46-.25-1.38.07-1.82.12-1.89.19-3.8.75-4.85,1.85-.88.92-1.25,2.34-2,3.58-.31.51-.83.91-1.15,1.37-.22.46-.44.92-.67,1.37-1.41,1.88-2.72,4.09-4.12,5.79-.27.33-.75.52-1.03.84-.98,1.12-1.91,2.06-3.03,3.04-.33.28-.5.75-.79,1.07-.33.38-.87.63-1.21,1.01-.3.34-.47.82-.85,1.08-.46.32-.9.44-1.33.78-.88.68-1.65,1.59-2.54,2.27-2.06,1.56-4.32,2.89-6.37,4.42-.37.27-.86.24-1.27.48-.33.19-.58.7-.91.9-.67.2-1.33.4-2,.6-1.63.78-3.28,1.98-5.03,2.63-2.53.94-5.55,1.41-8.18,2.03-.66.15-1.91-.1-2.43-.18-.36.1-.73.2-1.09.3-.49.02-.97.04-1.45.06-.44-.17-1.27-.08-2-.3-1.1-.32-1.55-.68-2.85-.78-.06-.1-.12-.2-.18-.3-.08.13.01.03-.12.12v-.18c-.28-.14-.6-.08-.79-.18-.23-.12-.48-.54-.61-.6-.21-.1-.53.09-.79-.06-.02-.08-.04-.16-.06-.24-.2-.06-.4-.12-.61-.18-.61-.44-1.07-.9-1.76-1.31-.44-.26-.75-.89-1.15-1.19-.18-.02-.36-.04-.55-.06-.32-.13-1.02-.52-1.39-.84-.61-.51-1.46-1.39-2.12-1.85-.9-.63-1.29-3.19-.3-4,1.16-.76,3.25,1.31,4.24,1.73,1.78.76,3.09,1.42,4.73,2.21.34.1.69.2,1.03.3.49.27.96.79,1.51,1.01.69.28,1.45.03,2.24.24.73.2,1.81,1.01,2.91.72,1.48-.39,2.93-.31,4.67-.84.65-.2,1.39-.64,1.94-.9.57-.26,1.2-.22,1.7-.54,2.74-1.72,5.1-3.96,7.64-5.91.54-.41.82-1.13,1.33-1.55,1.49-1.2,2.63-2.56,3.94-3.94.34-.28.69-.56,1.03-.84.04-.24.08-.48.12-.72.87-1.18,1.74-2.64,2.55-3.7,1.11-1.45,2.23-2.97,3.33-4.42.63-.83.9-1.79,1.45-2.69.53-.85,1.3-1.72,1.76-2.62.34-.68.27-3.63-.36-4.06-.43-.71-2.02-.36-2.61.06-1.37.98-3.35,1.09-4.67,1.91-.82.51-1.64,1.17-2.55,1.61-.67.33-1.83,1.11-2.73,1.55-.26.06-.53.12-.79.18-.59.37-1.15.95-1.76,1.31-.99.6-1.9.79-2.91,1.25-.54.25-1.17.77-1.7,1.08-.32.18-.7.19-1.09.36-.67.29-1.36.79-2,1.14-.52-.06-.98.31-1.39.59-1.17.38-2.34.76-3.52,1.13-.75.16-1.5.32-2.24.48-.97.6-1.99.55-3.15,1.02-.89.36-1.66.8-2.48.96-1.6.3-2.85.79-4.37,1.31-.51.18-1.82.12-2.18.3-1.07.54-2.48.93-3.64.71-.07.19.02.08-.12.18-.66.37-3.53.47-4.3.6-.64.11-2.16.32-2.49.12v-.18c-.37.2-.81.11-1.27.06-.07-.25,0-.17-.24-.24-.4.35-1.07-.12-1.51-.24-.29-.08-.57.09-.91.06-.1-.18.07-.11-.18-.18-.45-.08-1.18-.33-1.82-.48-.08-.16.05-.09-.12-.18-.76.16-2.67-1.17-3.39-1.61-.28-.17-1.86-.85-1.94-.78-.93-.85-2.17-1.05-3.15-1.61-.55-.32-1.31-.89-1.76-1.13-.5.18-1.33-.7-1.76-1.01-.94-.7-2.37-1.39-3.33-2.27-.76-.69-1.43-1.86-2.06-2.81-.67-1.01-.86-2.49.48-2.98,1.02-.38,1.47.47,1.94.84,1.39,1.07,2.72,2.26,4.12,3.28,1.1.8,2.52,1.49,3.82,1.91.36.12,1.24.6,1.58.48.72.31,1.57.82,2.18.77.58-.04,1.32.77,1.94.66.93-.18,1.73.72,2.37.6,1.29.1,2.59.2,3.88.3,2.08-.28,3.95-.58,5.7-1.07,1.02-.29,2.19-.36,3.15-.78.81-.35,1.62-.34,2.24-.66.91-.46,2.23-.32,2.97-.66.61-.29,1.19-.74,1.76-1.01.38-.02.77-.04,1.15-.06.87-.37,1.45-.61,2.18-1.01,1.33-.74,2.83-1.53,4.18-2.15.2-.09,1.26-.54,1.33-.42,1.31-1.29,3.07-2.02,4.73-2.98.14-.16.28-.32.42-.48,1.7-1.05,3.13-2.18,5.09-2.98v-.18c1.45-1.08,2.95-1.88,4.06-3.28.63-1,1.25-1.99,1.88-2.98.84-2.01-.11-4.33-.91-5.61-.82-1.32-1.5-2.44-2.79-3.28-.18-.12-.43-.63-.49-.66-1.28-.7-1.94-1.74-3.03-2.57-.22-.17-.49-.26-.67-.48-.74-.92-1.72-1.45-2.55-2.27-1.09-1.07-2.1-2.16-3.33-3.1-.2-.28-.4-.56-.61-.84-.62-.48-1.43-.62-2.06-1.07-.38-.38-.77-.76-1.15-1.13-.4-.3-.83-.47-1.15-.84-.14-.22-.28-.44-.42-.66-.61-.26-1.21-.52-1.82-.78-.92-.63-1.74-1.55-2.67-2.21-1.26-.89-2.66-1.77-4-2.51-.65-.36-1.26-.46-1.88-.84-.5-.44-1.01-.87-1.52-1.31-1.04-.75-2.23-1.23-3.33-1.91-.44-.36-.89-.72-1.33-1.07-.89-.48-1.78-.96-2.67-1.43-.71-.2-1.41-.4-2.12-.6-.75-.56-1.5-1.11-2.24-1.67-1.33-.5-2.67-1-4-1.49-1.29-.78-2.61-1.8-3.88-2.57-.61-.37-1.38-.84-2-1.07-.73-.22-1.45-.44-2.18-.66-.58-.3-1.23-.74-1.88-1.01-.87-.36-4.39-1.44-5.03-.9-.29-.26-1.16-.59-1.82-.42-.11.03-.24.18-.49.12-1.72-.43-2.86-.31-4.67-.18-6.05.44-13.38.34-19.4,1.85-1.21.3-2.1.33-3.03.6-.41.12-.86-.06-1.27.06-.33.09-1.08.35-1.39.42-.26.05-1.58-.25-1.64-.18-.04.04-.08.08-.12.12-.16-.04-.32-.08-.48-.12-.2.11-.28.19-.42.36-.19-.23-1.21.05-1.82,0-.32-.02-.65-.04-.97-.06-.3.06-.55.26-1.03.18-.87-.06-1.74-.12-2.61-.18-.81.08-1.62.16-2.42.24-.75-.05-2.29-.59-3.03-.78-.41-.1-1.12.03-1.46-.12-.41-.22-.81-.44-1.21-.66-1-.34-1.69-.28-2.61-.66-1.1-.45-2.16-1.26-3.21-1.79-.97-.49-1.88-.71-2.79-1.25-2.06-1.24-3.96-2.74-5.76-4.24-.41-.24-.81-.48-1.21-.72-.7-.48-1.22-1.2-1.76-1.85-1.39-1.37-2.79-2.75-4.18-4.12-.4-.54-.9-1.65-.61-2.15.1-.28.32-.54.61-.66,1.21-.75,4.81,1.2,5.64,2.03,4.53,4.53,10.05,8.07,16.85,9.97.93.26,2.89.21,4.06.12.68-.05,1.28.55,2.18.36.32-.12.65-.24.97-.36,1.22-.28,3.23.08,4.43-.42.61-.26,1.62,0,2.42-.24.62-.18,1.43-.25,2.18-.42.57-.26,1.13-.52,1.7-.78.71-.2,1.5-.13,2.12-.12.84.02,2.35-.79,2.91-1.02.38-.15,1.34-.05,1.82-.12.49-.07,1.18-.28,1.58-.42.63-.21,1.44-.42,2.06-.72.37-.17.71-.65,1.09-.83.24-.12.75-.12.85-.18.37-.22-.01-.42.54-.48v-.06c.27-.28.52-.71.97-.95.12.15.1.14.36.18.92-1.24,1.84-2.5,2.36-4.24-.02-.46-.04-.92-.06-1.37.02-.28.04-.56.06-.83-.44-1.81-1.13-2.98-1.88-4.36-1.09-2.02-2.07-4.01-3.39-5.79-.32-.3-.65-.6-.97-.89-1.07-1.35-2.4-2.51-3.64-3.7-.48-.6-.97-1.19-1.46-1.79-.38-.29-.86-.34-1.15-.72-.44-.57-.93-1.38-1.52-1.79-1.28-.91-2.43-1.94-3.58-2.98-.49-.44-.87-1.1-1.39-1.49-2.91-2.21-5.51-4.43-8.55-6.33-2.01-1.25-4.25-2.04-6.43-3.1-4.55-2.22-9.37-4.18-14.18-6.27-1.36-.59-2.85-1.4-4.12-2.15-1.1-.65-2.33-.94-3.39-1.61-2-1.26-3.88-2.78-5.88-4.12-1.74-1.16-3.46-3.5-4.79-5.13-2.64-3.23-5.85-5.99-8.25-9.31-.71-.99-1.76-1.76-2.12-3.04-.34-1.2.79-1.99,1.82-1.97.46-.23,1.85.45,2.24.78.2.17.2.44.36.66.51.69,1.29,1.25,1.82,1.91,1.23,1.53,2.45,2.97,3.82,4.36,1.48,1.5,2.94,3.12,4.61,4.42.28.1.57.2.85.3.1.16.2.32.3.48.35.28.75.36,1.15.6.18.18.36.36.55.54,5.36,2.51,11.87,5.42,18.55,5.25,1.29-.03,2.79.51,3.88.78,1.25.31,2.33.4,3.58.72.75.19,1.96.83,2.61.78,1.12-.1,1.85.64,2.79-.42,1.38-1.56.04-2.58.36-4.54.2-1.23-.16-2.8-.36-3.94-.15-.84-.02-1.91-.24-2.92-.31-1.42-.56-3.22-.3-4.72-.1-.78-.2-1.55-.3-2.33.3-2.56.21-5.63.85-8.3.08-1.01.16-2.03.24-3.04.21-.96.13-2.04.36-3.1.54-2.5.67-5.1,0-7.7-.29-1.12-.83-2.04-1.39-2.87-.18-.27-.26-1.13-.42-1.55-.37-.96-1.15-1.9-1.7-2.69-.04-.2-.08-.4-.12-.6-.77-1.3-1.33-2.72-2.12-4.06-1.06-1.78-2.35-3.74-3.21-5.67-.31-.7-.51-1.63-.79-2.27-.78-1.79-1.54-3.78-2.49-5.49-.18-.78-.36-1.55-.55-2.33-.1-.14-.2-.28-.3-.42-.39-.97-.42-2-.79-3.1-.21-.64-.71-1.37-.91-1.97-.28-.82-.12-1.52-.18-2.33-.03-.42-.41-1.24-.18-1.67.18-.34.63-.58.91-.84h1.27c1.28.53,2.74,4.34,3.15,5.67.04.34.08.68.12,1.01.25.71.81,1.54,1.09,2.27.94,2.45,1.85,4.31,3.09,6.27.2.52.4,1.03.61,1.55.36.56.9,1.19,1.21,1.73.23.4.21.8.49,1.13.68.81,1.3,1.46,1.94,2.27.33.42.73,1.04.97,1.49.04.2.08.4.12.6.67.91,1.41,1.8,2.24,2.57.37.34,1.2,1.24,2.12.78,1.61-.6,2.83-3.78,3.82-5.19.57-.81,1.63-1.58,2.24-2.45.89-1.28,1.72-2.55,2.67-3.76.3-.6.61-1.19.91-1.79,1.6-2.21,3.14-4.44,4.79-6.63.97-1.28,2.24-2.32,3.21-3.64.24-.46.49-.92.73-1.37.32-.5.84-.96,1.15-1.43.59-.89,1.02-1.76,1.64-2.63.34-.48.89-.89,1.21-1.37.2-.48.4-.96.61-1.43.59-1.06,1.38-2.19,1.88-3.34.2-.64.4-1.27.6-1.91.26-.58.7-1.2.97-1.73.41-.8.65-2.51.91-3.34.04-.78.08-1.55.12-2.33.14-.5.28-.99.42-1.49-.02-.92-.04-1.83-.06-2.75.06-.6.18-1.31.12-1.79.06-.92.12-1.83.18-2.75-.26-1.1-.03-1.66,0-2.81.01-.34-.23-.81-.18-1.19-.06-.32-.12-.64-.18-.96C81.22,4.14,81.03,1.13,82.2,0Z"/>
  <path class="b" d="M250,213.24c.57.03.98.34,1.64.19,1.96-.46,4.24-.79,5.88-1.54,1.37-.62,2.8-.79,4-1.54,3.07-1.91,5.5-4.19,8-6.65,1.17-.88,2.34-1.76,3.52-2.65.46-.38.78-.95,1.21-1.35.94-.86,2.17-1.46,3.03-2.4.31-.34.51-.74.85-1.05,1.72-1.56,3.6-2.8,5.46-4.25,1.66-1.29,3.2-2.88,4.85-4.18,1.77-1.4,3.25-2.26,5.21-3.51.67-.43,1.19-1.18,1.88-1.6,2.24-1.38,4.74-2.95,7.03-4.43.46-.2.93-.41,1.39-.62h.55c.2-.09.38-.37.54-.49.67-.51,1.45-.53,2.18-1.05,1.84-1.3,3.92-2.47,5.88-3.63,1.01-.6,2.09-.83,3.15-1.35.45-.22.9-.66,1.33-.86,1.63-.76,2.95-1.16,4.43-1.91.56-.28,1.09-.86,1.58-1.23.61-.47,1.91-.83,2.73-1.29.42-.23.88-.77,1.33-.98.83-.39,1.61-.34,2.43-.74.37-.18.64-.53.97-.74.86-.54,1.84-.9,2.61-1.35.82-.48,1.33-1.66,2.06-2.28,1.01-.85,2.19-1.44,3.21-2.28.18-.25.36-.49.55-.74,1.28-1.25,2.61-2.45,3.94-3.63.32-.29.51-.77.85-1.05,2.5-1.98,4.96-4.76,7.03-7.38.73-.92,1.89-1.57,2.67-2.46.02-.12.04-.25.06-.37.49-.91,1.25-1.64,1.82-2.71.6-1.12,1.51-2.04,2.18-3.2.49-.85,1.24-1.26,1.76-2.03,1.91-2.86,3.87-5.52,5.64-8.12.07-.1.09-.43.18-.68.22-.58.75-1.12.97-1.66.1-.41.2-.82.3-1.23.5-1.24,1.29-2.49,1.88-3.81.1-.53.2-1.07.3-1.6,1.07-2.7,1.81-6.57,2.36-9.41,1.26-6.46,1.67-13.51.18-19.57.02-.16.04-.33.06-.49-.35-1.58-.41-3.27-.79-5.11-.2-.55-.4-1.11-.61-1.66-.12-.37.01-.78-.18-1.29-.19-.51-.43-1.11-.54-1.48-.37-1.18-.38-2.41-.79-3.63-.92-2.78-2.42-5.42-3.7-7.88-.45-.85-.57-1.67-1.03-2.52-1.44-2.65-2.82-5.34-4.37-7.94-.4-.68-.54-1.47-.85-2.22-.74-1.79-1.58-3.74-2.43-5.48-.42-1.46-.85-2.91-1.27-4.37-.64-2.22-1.6-4.42-2.24-6.52-.04-.45-.08-.9-.12-1.35-.34-1.68-.62-3.46-1.03-4.92-.59-2.09-.32-3.77-.85-5.48-.32-1.05-.1-2.12-.3-3.26-.39-2.23-1.07-5.2-.97-7.81.03-.83-.3-1.77-.18-2.65-.1-.41-.2-.82-.3-1.23-.1-.51-.36-2.95-.24-3.63-.04-.27-.08-.53-.12-.8-.32-1.44-.24-4.99.55-5.54.33-.23.82-.26,1.39-.25,1.77,1.61,1.98,4.92,2.3,7.82.1.88.28,1.42.48,2.28.09.38.27,2.11.18,2.4.64,1.87.9,4.59,1.58,6.65.19.59.02.88.18,1.42.85,2.7,1.43,5.83,2.67,8.49.16.64.32,1.27.49,1.91,2.87,7.12,6.59,14.4,10.55,20.55.02.14.04.29.06.43,1.35,2.12,2.6,4.33,3.64,6.4.58,1.15,1.11,2.84,2.12,3.69,1.21,1.01,3.86.37,5.21-.74,1.53-1.25,2.63-2.89,3.76-4.55.3-.44.84-.73,1.21-1.11.59-.58,1.07-1.88,1.52-2.65.65-1.12,1.45-2.2,2.12-3.38.46-.81,2.17-3.32,2.12-4.12-.07-1.27,1.29-3.61,1.7-4.62.26-.64.13-.99.42-1.6.11-.23,1.02-1.49,1.27-1.17,2.7,1.05,1.66,3.86,1.03,5.97.02.16.04.33.06.49-.16.5-.45,1.03-.61,1.29,0,.52-.78,2.52-1.15,3.14v.55c-.36.45-.31.65-.49,1.17-.29.84-1,1.76-1.33,2.59-.35.85-.45,1.97-.97,2.83-.22.36-1.3,2.1-1.27,2.28.06.41-.63.75-.42,1.05-.09.11-.3.11-.36.25-.3.6-.37,1.49-.85,2.21-.97,1.46-1.56,2.99-2.49,4.49-.13.21-.49.35-.6.55-.02.16-.04.33-.06.49-.22.55-.64,1.07-.79,1.48-.04-.02-.08-.04-.12-.06.04.8-.74,2.3-1.21,2.89-.05.06-.16,1.1-.24,1.42-.35,1.28-.74,2.09-1.03,3.38-.21.95.02,2.2.36,3.01v1.11c.33,1.18.58,2.76,1.03,4.31.34,1.19.12,3.38.55,3.94.09.11.13.37.12.8-.1.6.02,1.5.12,1.97v2.65c.08.33.16.66.24.98-.02.49-.04.98-.06,1.48.06.47.12.94.18,1.42.06.88-.22,2.35-.42,3.26-.08.34-.02.92.06,1.17-.29.91-.21,1.94-.36,2.83-.29,1.63-.98,5.1-.24,6.34.33-.31.78-.41,1.33-.68.89-.53,1.78-1.07,2.67-1.6.38-.08.77-.16,1.15-.25.53-.29,1.05-.58,1.58-.86.67-.12,1.33-.25,2-.37,1.7-.58,3.45-1.02,5.09-1.48,1.5-.41,3.35-.06,4.73-.25.76-.11,1.83-.42,2.3-.62.66-.27,1.46-.14,2.18-.49.59-.29,1.38-.76,2.12-.98.36-.11.7-.03,1.15-.25,3.91-1.91,6.93-3.63,9.33-7.32,1.23-1.89,1.68-4.86,3.27-6.4.26.02.53.04.79.06.37.49,1.01.69,1.27,1.29.45,1.02-.18,2.24-.3,3.2-.52,4.09-2.94,7.87-5.39,10.52-.68.74-1.18,1.75-2,2.34-2.88,2.06-6.21,4.66-9.46,6.03-.86.36-1.52.35-2.36.68-.73.37-1.46.74-2.18,1.11-.61.23-1.42.26-2.06.55-.87.4-1.82,1.1-2.55,1.48-.52.1-1.05.21-1.58.31-.54.27-1.11.61-1.82.92-.26.12-.84.15-1.21.37-5.29,3.13-9.28,5.74-13.64,9.72,0,0-.32-.03-.42.06-.29.24-.48.78-.79.98-1.36.92-2.19,1.87-3.15,3.02-.73.87-1.58,1.4-2.36,2.28-.09.09-.74.69-.79.55-.57.83-1.14,1.51-1.76,2.28-.45.56-1.04.85-1.39,1.54-.52-.02-2.2,2.71-2.85,3.2h-.18c-.14.75-1.02,1.38-1.39,1.97-.7,1.1-1.2,2.08-2,3.2-.38.54-1.02,1.08-1.33,1.66-.47.86-.84,2.38-1.52,3.2-.08.02-.16.04-.24.06-.28.44-.18.97-.48,1.54-.57,1.06-1.23,1.87-1.76,2.65-.16.55-.32,1.11-.49,1.66.02.06.04.12.06.19-.39.41-.53,1.13-.67,1.54.02.47.04.94.06,1.42-.13.18-.06.36-.12.68-.31,1.65.38,2.77.97,4.06.37.8,1.02,2.1,1.88,2.09.07.7,1.88.97,2.49,1.29,2.63,1.41,5.88,1.82,9.21,2.34,1.35.21,2.82.66,4.55.98.53-.02,1.05-.04,1.58-.06.63.18,1.25.37,1.88.55.53.11,1.39.04,2.06.18,1.23.27,2.06-.07,2.97-.25.76-.14,1.62.04,2.3.06.38-.12.77-.25,1.15-.37.81-.26,1.28-.25,2.12-.55.59-.21,1.36-.27,2.18-.61,2.54-1.07,4.94-2.55,7.21-4,1.43-.91,2.84-1.71,4.12-2.77.75-.62,1.48-1.5,2.42-1.91,1.35-.58,2.8-.09,3.21,1.23-.02.25-.04.49-.06.74-.29.83-.65,1.64-1.15,2.46-.14.23-.57.86-.79,1.05-.24.2-.64.19-.85.55-.23.39-.23.77-.48,1.11-.37.49-1.17.59-1.58,1.04-.19.22-.91,1.42-.91,1.42-1.17,1.19-2.46,2.2-3.82,3.2-.79.59-1.47,1.42-2.31,1.97-.3.2-.74.41-1.03.55h-.85c-.16.08-.11.3-.3.43-.72.5-3.94,1.68-4.49,1.6.02.06.04.12.06.18-1.38.09-2.4.71-3.76,1.05-.55.14-1.06-.05-1.64.06-.25.05-.65.35-.97.43h-.73s-.16.22-.24.25c-.33.1-1.58.03-1.88.06-.42.04-.95-.21-1.52-.37-.61-.17-.97-.07-1.39-.06-.74.02-1.48-.53-2-.68-.28.02-.57.04-.85.06-.54-.18-1.19-.2-1.94-.31-.45-.07-1.07-.32-1.33-.49-.23-.15-2.22-.29-2.79-.43-2.13-.52-4.41-1.05-6.12-1.48-1.49-.37-2.59-.18-3.88-.55-.82-.24-1.36-.62-2.24-.92,0,0-.93.03-1.09.06-.61.11-3-.14-3.46-.37-.07.2.02.08-.12.18-.3-.27-1.79.15-2.61.12-1.14-.04-2.88-.22-4.18.18-.22.07-1.02-.17-1.39-.06-.99.3-3.99.33-5.03,1.11-.36.27-1.81.08-2.24.25-.04.08-.08.17-.12.25-.14.09-1.52-.07-1.58-.12-1,.68-3.05.56-4.12,1.05-1.26.57-2.99.6-3.94,1.17-.04.02-.15-.15-.3-.12-.35.06-.88.31-1.21.55-.02-.08-.04-.16-.06-.25h-.06c-.02.08-.04.17-.06.25-.02,0-2.21.61-2.3.68.02.04.04.08.06.12-.41.02-1.27.45-1.88.86.09.09.06.05.12.18-.77.03-3.04,1.49-3.76,2.09-.16.02-.32.04-.48.06-.69.26-1.32.6-2.06.92-.3.13-.65.49-.91.68-.37.27-.55.08-.97.25-.59.24-1.25.73-1.82.98-.28.13-1.02.37-1.15.31-.82.44-1.4.86-2.3,1.35-.37.2-.5.04-.85.25-2.09,1.22-3.84,2.57-5.76,3.75-.12.16-.24.33-.36.49-.82.53-1.66.79-2.42,1.35-1.46,1.08-2.74,2.34-4.06,3.2-.57.37-2.33,1.66-2.43,1.6-.74.62-1.46,1.44-2.12,1.97-.14.11-.64.77-.61.8-.69.51-1.12,1.24-1.76,1.78-1.75,1.49-3.16,3.36-4.49,4.99-.33,1.13-2.06,2.69-2.79,4.06-.12.21-.49.3-.61.49-.06.35-.12.7-.18,1.05-.21.51-1,1.76-.55,2.71.56,1.17,2.13,3.11,3.4,3.88.69.42,1.3.55,1.88,1.05.37.31.54.73.85,1.11.59.72,1.42,1.01,2.24,1.6.35.25.6.75.91,1.05.67.65,1.47,1.33,2.18,1.91.36.29.78.35,1.15.62.56.39,1.06.94,1.76,1.23.75.32,1.39.37,2,.8.21.14.39.48.61.61.44.28,1.07.39,1.45.74.56.51.99,1.16,1.64,1.6.85.58,1.78.9,2.73,1.41.99.54,1.84,1.15,2.91,1.72.32.17.64.62.91.86.4.36.94.5,1.33.86.72.67,1.53,1.44,2.36,1.97,1.97,1.26,4.34,1.96,6.73,2.83.71.26,1.25.96,2,1.23,2.11.75,4.64.5,6.85.74.42-.08.85-.17,1.27-.25h1.21c.99-.2,2.25-.82,3.21-1.29,2.53-1.24,4.83-2.34,6.97-3.94,1.01-.75,1.54-2.05,2.3-3.08.43-.58,1.36-1.71,2.06-1.97.3-.04.61-.08.91-.12.51.18.7.55,1.03.92v1.54c-.17.52-.8,1.04-1.09,1.48-.58.87-1,1.74-1.58,2.58-.62.91-1.68,1.51-2.36,2.34-.82,1-1.55,2.08-2.55,2.89-.61.5-2.27.98-2.73,1.48-.43.47-2.95,2.4-3.7,2.09-.42.19-.9.62-1.21.74-.22-.02-.45-.04-.67-.06-1.08.32-2.04.43-3.27.62-.83.22-1.66.45-2.49.68-.76.12-1.62-.13-2.42-.25-.22.04-.44.08-.67.12-1.35-.19-2.65-.51-3.94-.86-.37.02-.73.04-1.09.06-1.03-.25-2.06-.49-3.09-.74-.38-.27-.77-.53-1.15-.8-.44-.23-.72,0-1.15-.19-.33-.14-.57-.45-.85-.62-.54-.33-1.22-.29-1.82-.62-.28-.15-.67-.56-.97-.74-.57-.33-1.15-.24-1.94-.49-.8-.26-1.6-.98-2.36-1.29-.28-.04-.57-.08-.85-.12-.2-.12-.47-.42-.66-.55-.65-.43-1.5-.5-2.18-.86-.53-.29-1.12-.87-1.64-1.17-.33-.19-.74,0-1.03-.18-.14-.21-.28-.41-.42-.61-.79-.51-1.73-.65-2.42-1.23-.74-.62-1.44-1.48-2.3-1.97-1.26-.71-2.48-1.22-3.64-2.03-.27-.19-.48-.61-.79-.8-.25-.15-2.07-.81-2.18-.74-.37-.24-.74-.62-1.09-.86-.2-.06-.4-.12-.6-.19-.28-.29-.57-.58-.85-.86-.3-.1-.6-.21-.91-.31-.28-.25-.41-.7-.73-.92-.58-.4-1.51-.85-2.18-1.35-.45-.34-.81-1.07-1.27-1.35-.29-.18-.62-.16-.91-.37-.67-.5-1.44-1.18-2.18-1.6-.34-.1-.69-.2-1.03-.31-.92-.44-3.6-1.81-4.73-1.11-.4.45-1.21.73-1.52,1.23-.24.4-.77,2.39-.54,2.95-.28.74-.05,1.77.06,2.83.04.43.46,2.62.24,3.08.12.25,1.31,3.29,1.21,3.44.34.61.75,1.31,1.03,1.97.12.43.24.86.36,1.29.3.72.75,1.3,1.15,1.91.14.49.28.98.43,1.48.08.21.38.43.48.62.05.09-.05.51.06.74.49,1.02,1.17,1.84,1.7,2.83.06.21.12.41.18.62.34.47.91.83,1.33,1.23.24.41.49.82.73,1.23.26.27.66.45.91.74.2.39.41.78.61,1.17.41.63,1.26,1.04,1.76,1.6,1.17,1.33,2.37,2.74,3.88,3.69.26.06.53.12.79.18.56.28,1.39.71,2,.92.81.29,1.71.09,2.61.43.4.15.78.4,1.15.49.31.08.58-.09.73-.12.53-.14,1.49,0,2-.06,1.09-.15,2.6.28,3.76,0,1.43-.34,2.62-1.04,3.7-1.66.22-.06.44-.12.67-.18.34-.27.74-.75,1.15-.92.59-.25,1.1-.16,1.7-.43,1.27-.57,2.43-.78,3.51.37-.03.54-.3.63-.42.98-.16.48-.54,1.8-.91,2.21-.71.8-3.57,2.45-4.79,2.77-.2-.02-.4-.04-.61-.06-.92.26-2.19.78-3.21,1.17-.28.02-.57.04-.85.06-.37.13-.74.48-1.15.61-.3.02-.61.04-.91.06-1.4.39-2.46.77-3.88,1.05-.23.05-.57-.15-.73-.18-.32.02-.65.04-.97.06-.45-.09-1.18-.3-1.64-.43-.18.02-.37.04-.55.06-.69.03-1.59-.22-2.12-.31-.69-.11-1.27-.53-1.88-.74-.46-.16-1.03.11-1.58-.12-.78-.33-1.53-1.1-2.37-1.42-.66-.25-1.26-.28-1.82-.62-.33-.2-.69-.64-1.03-.8h-.42c-.74-.24-1.62-.75-2.18-1.23-.7-.6-1.86-1.4-2.42-2.09-.43-.53-.85-1.26-1.39-1.66-2.54-1.88-3.78-3.48-5.58-6.09-.18-.14-.36-.29-.55-.43-.53-.6-.85-1.44-1.21-2.03-.29-.47-.82-.9-1.09-1.42-.95-1.79-1.6-3.77-2.79-5.66-.66-1.04-1.45-2.11-2-3.26-.82-1.7-1.33-3.88-2.6-5.29-.38-.42-1.01-.7-1.46-1.05-1.39-1.07-2.72-2.46-4.61-2.71-.28.08-.57.17-.85.25-.46-.02-.93-.04-1.39-.06-1.2.31-2.65,1.55-3.58,0-.1-.29-.2-.57-.3-.86-.28-.39-.82-.56-.97-1.11v-1.48c-.19-.38-.72-.5-.85-.99-.24-.86.54-.97.3-1.91-.2-.78-.82-1.19-1.09-1.84-.19-.47.04-.97-.06-1.48-.22-.49-.44-.99-.67-1.48-.02-.51-.04-1.03-.06-1.54-.3-.49-.61-.99-.91-1.48-.18-.69.62-1.45.79-2.15.17-.73-.04-1.65.12-2.28.14-.27.28-.53.43-.8.17-.55-.22-1.21-.3-1.66-.19-.99.76-2.07,1.58-2.09.6.39,1.26.52,2,.8.9.35,1.89,1.13,2.79,1.41.48.04.97.08,1.45.12.58.2,1.35.61,1.94.8.98.31,2.1-.02,3.03.12.88.14,1.96.29,3.03.31.02-.1.04-.2.06-.31Z"/>
</svg>