<?xml version="1.0" encoding="UTF-8" standalone="no"?>
<!-- Created with Inkscape (http://www.inkscape.org/) -->

<svg
   xmlns:dc="http://purl.org/dc/elements/1.1/"
   xmlns:cc="http://creativecommons.org/ns#"
   xmlns:rdf="http://www.w3.org/1999/02/22-rdf-syntax-ns#"
   xmlns:svg="http://www.w3.org/2000/svg"
   xmlns="http://www.w3.org/2000/svg"
   xmlns:sodipodi="http://sodipodi.sourceforge.net/DTD/sodipodi-0.dtd"
   xmlns:inkscape="http://www.inkscape.org/namespaces/inkscape"
   width="297.57385"
   height="171.73846"
   viewBox="0 0 297.57386 171.73845"
   id="svg4378"
   version="1.1"
   inkscape:version="0.91 r13725"
   sodipodi:docname="callaway.svg">
  <defs
     id="defs4380" />
  <sodipodi:namedview
     id="base"
     pagecolor="#ffffff"
     bordercolor="#666666"
     borderopacity="1.0"
     inkscape:pageopacity="0.0"
     inkscape:pageshadow="2"
     inkscape:zoom="2.9816315"
     inkscape:cx="151.76255"
     inkscape:cy="84.869234"
     inkscape:document-units="px"
     inkscape:current-layer="layer1"
     showgrid="false"
     fit-margin-top="0"
     fit-margin-left="0"
     fit-margin-right="0"
     fit-margin-bottom="0"
     units="px"
     inkscape:window-width="1280"
     inkscape:window-height="744"
     inkscape:window-x="-4"
     inkscape:window-y="-4"
     inkscape:window-maximized="1" />
  <metadata
     id="metadata4383">
    <rdf:RDF>
      <cc:Work
         rdf:about="">
        <dc:format>image/svg+xml</dc:format>
        <dc:type
           rdf:resource="http://purl.org/dc/dcmitype/StillImage" />
        <dc:title></dc:title>
      </cc:Work>
    </rdf:RDF>
  </metadata>
  <g
     inkscape:label="Layer 1"
     inkscape:groupmode="layer"
     id="layer1"
     transform="translate(-222.52316,-468.35008)">
    <g
       id="g3873"
       transform="matrix(1.25,0,0,-1.25,287.27793,525.27375)"
       style="fill:#000000">
      <path
         d="m 0,0 c -1.313,-0.011 -1.27,-1.995 -1.27,-1.995 0.159,-7.569 6.029,-9.445 6.029,-9.445 2.219,-1.351 2.652,0.51 2.652,0.51 L 9.215,-7.473 5.951,0.254 0,0 Z M 9.105,14.577 17.88,-5.466 c 0.984,-2.187 2.273,-0.699 2.273,-0.699 1.385,0.819 1.916,0.361 1.916,0.361 0.894,-0.641 0.079,-1.559 0.079,-1.559 l -3.385,-6.578 c -0.927,-2.48 -3.413,-0.242 -3.413,-0.242 -0.89,0.445 -3.498,2.613 -3.498,2.613 -0.879,1.453 -1.925,0.022 -1.925,0.022 l -3.802,-6.841 c -1.222,-2.807 -4.743,-1.007 -4.743,-1.007 -12.269,4.09 -5.21,20 -5.21,20 0.716,2.777 2.364,2.352 2.364,2.352 L 4.808,3.177 C 4.585,5.084 2.129,9.244 2.129,9.244 1.483,10.768 0.441,10.465 0.441,10.465 l -10.53,-0.662 c -0.932,-0.122 -0.849,0.625 -0.849,0.625 -0.215,0.668 0.878,1.174 0.878,1.174 2.069,0.788 3.887,4.053 3.887,4.053 1.332,1.81 2.913,1.391 2.913,1.391 l 6.324,0.275 c 4.678,0.23 6.041,-2.744 6.041,-2.744"
         style="fill:#000000;fill-opacity:1;fill-rule:nonzero;stroke:none"
         id="path3875"
         inkscape:connector-curvature="0" />
    </g>
    <g
       id="g3877"
       transform="matrix(1.25,0,0,-1.25,500.47706,530.87763)"
       style="fill:#000000">
      <path
         d="m 0,0 -6.108,-1.091 c 0,0 -1.052,-0.158 -0.912,-0.771 0,0 0.026,-0.618 0.711,-0.791 l 0.705,-0.471 c 0,0 1.578,-0.747 0.157,-2.72 l -7.811,-12.876 c 0,0 -3.847,-5.999 -2.374,-10.773 0.62,-2.033 -1.492,-5.092 -1.55,-5.03 0,0 -0.288,2.136 -5.648,4.557 0,0 -1.718,1.113 -3.344,-0.425 l -2.178,-1.811 c 0,0 -1.075,-1.042 0.11,-1.248 0,0 2.815,-0.956 5.864,-4.764 0,0 1.186,-1.948 3.792,-1.741 0,0 4.923,0.29 8.296,6.684 0.711,0.415 3.777,-3.731 12.696,2.494 7.145,4.992 12.61,11.125 12.485,20.737 0,0 0.219,2.796 -2.251,2.152 L 8.796,-8.271 c 0,0 -2.114,0.179 -1.843,-2.357 0,0 0.837,-13.144 -13.349,-15.88 0,0 -2.709,-0.847 -1.619,1.559 0,0 5.512,9.699 9.194,14.366 0,0 4.431,4.739 1.667,9.31 L 2.254,-0.424 C 2.254,-0.424 1.916,0.431 0,0"
         style="fill:#000000;fill-opacity:1;fill-rule:nonzero;stroke:none"
         id="path3879"
         inkscape:connector-curvature="0" />
    </g>
    <g
       id="g3881"
       transform="matrix(1.25,0,0,-1.25,367.9338,507.50426)"
       style="fill:#000000">
      <path
         d="m 0,0 c -1.214,0.484 -1.919,-1.38 -1.919,-1.38 -2.687,-7.086 2.073,-11.01 2.073,-11.01 1.556,-2.076 2.644,-0.523 2.644,-0.523 L 5.766,-10.378 5.623,-1.996 0,0 Z m 14.066,9.37 0.486,-21.113 c 0.096,-2.398 1.857,-1.48 1.857,-1.48 1.588,0.23 1.902,-0.401 1.902,-0.401 0.598,-0.914 -0.515,-1.46 -0.515,-1.46 l -5.587,-4.851 c -1.779,-1.947 -3.252,1.051 -3.252,1.051 -0.664,0.752 -2.26,3.727 -2.26,3.727 -0.284,1.667 -1.788,0.748 -1.788,0.748 l -6.094,-4.945 c -2.171,-2.14 -4.762,0.844 -4.762,0.844 -9.867,8.363 2.627,20.508 2.627,20.508 1.704,2.294 3.071,1.302 3.071,1.302 L 5.644,1.149 C 6.154,3.011 5.421,7.798 5.421,7.798 5.393,9.442 4.329,9.552 4.329,9.552 l -10.04,3.303 c -0.89,0.237 -0.546,0.906 -0.546,0.906 0.049,0.699 1.251,0.749 1.251,0.749 2.218,-0.038 5.128,2.322 5.128,2.322 1.907,1.171 3.215,0.206 3.215,0.206 l 5.979,-2.121 c 4.712,-1.52 4.75,-5.547 4.75,-5.547"
         style="fill:#000000;fill-opacity:1;fill-rule:nonzero;stroke:none"
         id="path3883"
         inkscape:connector-curvature="0" />
    </g>
    <g
       id="g3889"
       transform="matrix(1.25,0,0,-1.25,431.46005,504.06176)"
       style="fill:#000000">
      <path
         d="m 0,0 -1.801,-6.972 -0.506,-2.036 -1.868,-7.127 c -1.061,-3.227 -0.055,-3.361 -0.055,-3.361 l 4.34,-3.098 c 0.934,-0.684 1.119,0.932 1.119,0.932 L 7.064,-3.845 C 7.934,-0.676 6.942,0.256 6.942,0.256 L 6.446,1.125 c -1.178,1.548 0,1.79 0,1.79 l 4.724,1.876 c 1.801,0.93 2.357,-0.568 2.357,-0.568 3.657,-4.657 1.614,-9.929 1.614,-9.929 L 8.374,-25.635 c -0.562,-2.183 -2.184,-1.43 -2.184,-1.43 -4.528,0.372 -8.257,-1.74 -8.257,-1.74 -1.918,-1.429 -3.222,0.553 -3.222,0.553 -0.307,0.377 -5.279,3.86 -5.279,3.86 -2.295,1.861 -4.163,0.496 -4.163,0.496 l -2.171,-1.064 c -1.931,-1.552 -2.915,0.311 -2.915,0.311 -2.245,3.728 -9.007,6.094 -9.007,6.094 -0.867,0 -1.003,0.738 -1.003,0.738 -0.18,0.618 0.687,1.051 0.687,1.051 l 0.991,0.875 c 1.052,0.929 0.999,1.925 0.999,1.925 l 2.82,21.899 c 0.841,5.819 -0.505,6.013 -0.505,6.013 -1.004,0.444 -0.595,1.172 -0.595,1.172 0.231,0.469 0.842,0.251 0.842,0.251 8.795,-1.315 8.903,-5.947 8.903,-5.947 l -3.517,-23.02 c -0.436,-2.923 0.935,-2.974 0.935,-2.974 l 3.219,-2.055 c 2.115,-1.618 2.436,1.804 2.436,1.804 l 4.214,16.522 0.108,0.435 c 0.395,3.205 -1.232,4.233 -1.232,4.233 -1.435,1.186 0.187,1.876 0.187,1.876 l 3.718,2.163 C -3.866,9.335 -3.313,8.342 -3.313,8.342 1.028,4.209 0,0 0,0"
         style="fill:#000000;fill-opacity:1;fill-rule:nonzero;stroke:none"
         id="path3891"
         inkscape:connector-curvature="0" />
    </g>
    <g
       id="g3893"
       transform="matrix(1.25,0,0,-1.25,308.56756,494.03801)"
       style="fill:#000000">
      <path
         d="m 0,0 7.454,-24.636 c 0,0 1.638,-4.33 0.055,-6.288 0,0 -0.754,-0.316 -0.481,-1.054 0,0 0.081,-0.555 1.207,-0.591 0,0 6.597,-0.086 8.645,-1.826 0,0 1.732,-1.667 2.662,0.29 0,0 -1.294,4.69 -2.468,8.002 L 6.132,8.535 c 0,0 -1.087,2.698 0.711,5.662 0,0 0.925,1.001 0.166,1.633 0,0 -0.671,0.566 -1.826,-0.281 0,0 -2.158,-1.416 -4.419,-5.066 C 0.764,10.483 -1.602,5.661 0,0"
         style="fill:#000000;fill-opacity:1;fill-rule:nonzero;stroke:none"
         id="path3895"
         inkscape:connector-curvature="0" />
    </g>
    <g
       id="g3897"
       transform="matrix(1.25,0,0,-1.25,333.82618,486.91676)"
       style="fill:#000000">
      <path
         d="m 0,0 4.092,-26.364 c 0,0 1.02,-4.515 -0.827,-6.232 0,0 -0.793,-0.216 -0.625,-0.978 0,0 -0.007,-0.559 1.1,-0.741 0,0 6.79,-0.797 8.58,-2.792 0,0 1.485,-1.911 2.666,-0.108 0,0 -0.876,4.606 -1.576,8.054 L 7.452,6.671 c 0,0 -0.702,2.823 1.502,5.49 0,0 1.064,0.874 0.395,1.61 0,0 -0.589,0.651 -1.846,-0.024 0,0 -2.333,-1.099 -5.093,-4.403 0,0 -3.2,-3.517 -2.41,-9.344"
         style="fill:#000000;fill-opacity:1;fill-rule:nonzero;stroke:none"
         id="path3899"
         inkscape:connector-curvature="0" />
    </g>
    <g
       id="g3901"
       transform="matrix(1.25,0,0,-1.25,245.61918,556.89176)"
       style="fill:#000000">
      <path
         d="m 0,0 c 0.551,-2.24 -1.052,-2.578 -1.052,-2.578 -0.963,-0.484 -1.976,0.108 -1.976,0.108 -1.093,0.495 -1.888,1.126 -1.888,1.126 -2.078,1.317 -4.419,4.002 -5.758,6.834 -4.001,8.403 -0.415,16.104 1.303,18.075 0,0 0.63,0.969 1.169,1.234 0,0 0.98,1.001 1.675,-0.048 0,0 0.452,-0.848 0.38,-2.044 0,0 -0.007,-0.819 -0.091,-1.318 -0.124,-1.21 -0.876,-2.965 -0.811,-4.28 0.078,-1.573 0.752,-3.339 1.319,-4.401 C -4.235,9.926 -1.116,3.664 -0.584,2.054 -0.153,0.904 0,0 0,0 m 28.982,2.525 c 1.624,2.672 0.309,3.93 -0.714,4.28 C 24.598,8.086 23.109,-1.536 15.673,-4.526 7.378,-7.848 5.129,-5.685 4.403,-4.463 2.894,-1.877 7.27,3.557 4.175,10.443 c -3.581,7.97 -7.699,12.928 -5.734,16.519 1.937,3.514 7.617,2.947 10.273,2.982 5.369,0.072 6.19,6.907 5.443,8.559 -0.355,0.8 -1.232,0.934 -2.015,0.581 -2.67,-1.185 -3.303,-1.752 -5.641,-2.117 -2.354,-0.36 -3.838,-0.532 -9.124,-1.631 -4.305,-0.893 -20.768,-13.052 -13,-34.093 6.408,-17.305 25.102,-16.442 31.868,-13.615 7.469,3.13 11.038,12.115 12.737,14.897"
         style="fill:#000000;fill-opacity:1;fill-rule:nonzero;stroke:none"
         id="path3903"
         inkscape:connector-curvature="0" />
    </g>
    <g
       id="g3905"
       transform="matrix(1.25,0,0,-1.25,464.13881,529.36876)"
       style="fill:#000000">
      <path
         d="m 0,0 c -0.862,0.979 -2.328,-0.36 -2.328,-0.36 -5.603,-5.106 -3.131,-10.765 -3.131,-10.765 0.45,-2.551 2.125,-1.645 2.125,-1.645 L 0.46,-11.864 4.121,-4.317 0,0 Z M 16.79,2.005 7.676,-17.051 c -1,-2.186 0.984,-2.162 0.984,-2.162 1.523,-0.511 1.516,-1.21 1.516,-1.21 0.122,-1.1 -1.118,-1.076 -1.118,-1.076 l -7.173,-1.804 c -2.472,-0.929 -2.428,2.407 -2.428,2.407 -0.255,0.969 -0.333,4.355 -0.333,4.355 0.51,1.617 -1.257,1.464 -1.257,1.464 l -7.666,-1.645 c -2.904,-0.92 -3.867,2.911 -3.867,2.911 -5.015,11.928 11.611,17.087 11.611,17.087 2.561,1.295 3.33,-0.215 3.33,-0.215 L 5.562,-1.523 C 6.858,-0.087 8.368,4.513 8.368,4.513 9.086,5.978 8.18,6.561 8.18,6.561 l -7.454,7.483 c -0.687,0.615 -0.072,1.054 -0.072,1.054 0.36,0.614 1.445,0.107 1.445,0.107 1.964,-1.039 5.622,-0.242 5.622,-0.242 2.241,0.18 2.965,-1.267 2.965,-1.267 L 15.063,9.097 C 18.572,5.604 16.79,2.005 16.79,2.005"
         style="fill:#000000;fill-opacity:1;fill-rule:nonzero;stroke:none"
         id="path3907"
         inkscape:connector-curvature="0" />
    </g>
    <g
       id="g3909"
       transform="matrix(1.25,0,0,-1.25,371.50218,639.08851)"
       style="fill:#000000">
      <path
         d="m 0,0 c 1.935,-0.007 3.852,1.533 5.855,4.678 0,0 27.706,43.318 29.487,45.95 2.565,3.794 -2.2,9.223 -6.41,4.523 0,0 -21.464,-23.127 -24.176,-26.233 C 3.016,26.928 1.673,25.887 0,25.887 c -1.67,0 -3.018,1.041 -4.756,3.031 -2.715,3.106 -24.175,26.233 -24.175,26.233 -4.213,4.7 -8.975,-0.729 -6.409,-4.523 C -33.564,47.996 -5.854,4.678 -5.854,4.678 -3.851,1.533 -1.932,-0.007 0,0"
         style="fill:#000000;fill-opacity:1;fill-rule:nonzero;stroke:none"
         id="path3911"
         inkscape:connector-curvature="0" />
    </g>
  </g>
</svg>
