<?xml version="1.0" encoding="UTF-8"?>
<svg id="a" xmlns="http://www.w3.org/2000/svg" width="94.66" height="94.74" viewBox="0 0 94.66 94.74">
  <defs>
    <style>
      .b {
        fill: #eae0c7;
      }

      .c {
        opacity: .8;
      }

      .d {
        fill: #006453;
      }
    </style>
  </defs>
  <path class="d" d="M23.81,23.81c-7.94-.02-15.87-.04-23.81-.06V0h23.75c.02,7.94.04,15.88.06,23.81Z"/>
  <path class="d" d="M47.58,23.75c-.03-7.92-.05-15.84-.08-23.75h23.75c-.03,7.92-.05,15.84-.08,23.75l.08-.07h-23.75l.08.07Z"/>
  <path class="d" d="M71.26,71.19h-23.68v-23.69l-.08.07h23.75l-.08-.07c0,7.92,0,15.84.01,23.76l.07-.07h.01Z"/>
  <g class="c">
    <path class="b" d="M23.72,23.72c7.95,0,15.9.02,23.86.03l-.08-.07v23.89l.08-.07h-23.86s0-23.78,0-23.78Z"/>
    <path class="b" d="M71.18,23.75h23.44v23.75h-23.45l.08.07v-23.89l-.08.07h.01Z"/>
    <path class="b" d="M71.19,71.26h23.47v23.48h-23.4v-23.55l-.07.07Z"/>
  </g>
</svg>