<?xml version="1.0" encoding="UTF-8"?>
<svg id="a" xmlns="http://www.w3.org/2000/svg" width="96" height="94.73" viewBox="0 0 96 94.73">
  <defs>
    <style>
      .b {
        fill: #98b0a9;
        opacity: .25;
      }

      .c {
        fill: #006453;
      }
    </style>
  </defs>
  <path class="b" d="M24.84,47.29c-8.28-.03-16.56-.05-24.84-.08v-23.76c8.28-.03,16.56-.05,24.84-.08l-.04-.03v23.99l.04-.03h0Z"/>
  <path class="c" d="M72.33,47.31c7.89-.03,15.78-.06,23.67-.1v23.76c-7.9-.04-15.8-.07-23.7-.11,0,0,.06.06.05.06v-23.65l-.03.04h0Z"/>
  <path class="b" d="M48.49,94.73c-.03-7.95-.05-15.9-.08-23.86l-.03.04h23.98s-.06-.06-.06-.05c-.02,7.96-.04,15.92-.06,23.87h-23.75Z"/>
  <path class="c" d="M24.84,23.37V0h23.56v23.37l.04-.03h-23.64s.04.03.04.03Z"/>
  <path class="c" d="M48.41,70.88h-23.58v-23.59l-.04.03h23.64s-.05-.05-.05-.06v23.65l.03-.04h0Z"/>
  <path class="b" d="M48.49,47.19c-.03-7.95-.05-15.9-.08-23.86l-.03.04h23.98s-.06-.06-.06-.05c-.02,7.96-.04,15.92-.06,23.87,0,0-23.75,0-23.75,0Z"/>
</svg>