<?xml version="1.0" encoding="UTF-8"?>
<svg id="a" data-name="Layer 1" xmlns="http://www.w3.org/2000/svg" width="709.36" height="310.06" viewBox="0 0 709.36 310.06">
  <defs>
    <style>
      .b {
        fill: #231f20;
      }
    </style>
  </defs>
  <path class="b" d="M48.4,69.09c-.74-16.26-5.67-28.75-14.78-37.5C24.51,22.85,13.3,17.61,0,15.89L1.85,6.28c6.41,2.96,14.54,5.3,24.38,7.02,9.85,1.73,20.75,3.02,32.7,3.88,11.94.87,24.51,1.29,37.69,1.29s26.23-.31,39.16-.92c12.93-.61,25.37-1.54,37.31-2.77,11.94-1.23,22.72-2.71,32.33-4.43-.99,6.41-2.03,13.67-3.14,21.8s-2.03,16.26-2.77,24.38c-.74,8.13-1.11,15.95-1.11,23.46s.61,13.98,1.85,19.4l-7.39,1.11c-3.45-13.3-7.57-24.69-12.38-34.17-4.8-9.48-11.27-16.87-19.4-22.17-8.13-5.29-18.35-8.31-30.67-9.05-12.32-.74-27.71.87-46.18,4.8-1.24,19.71-2.22,37.19-2.96,52.46-.74,15.28-1.11,30.17-1.11,44.71,11.82-1.72,21.49-3.94,29-6.65,7.51-2.71,13.61-5.97,18.29-9.79,4.68-3.82,8.31-8.37,10.9-13.67,2.59-5.29,4.99-11.64,7.2-19.03l9.24,1.85c-2.22,9.36-3.69,17.98-4.43,25.86-.74,7.89-1.17,15.64-1.29,23.28-.13,7.64.06,15.33.55,23.09.49,7.76.98,15.95,1.48,24.57l-7.76-1.48c-.5-10.34-2.83-18.16-7.02-23.46-4.19-5.29-9.36-8.87-15.52-10.71-6.16-1.85-12.81-2.4-19.95-1.66-7.15.74-14.04,1.85-20.69,3.33.24,12.07.74,24.45,1.48,37.13.74,12.69,1.85,26.91,3.33,42.67.74,9.36,2.15,17.12,4.25,23.28,2.09,6.16,4.62,11.15,7.57,14.96,2.96,3.82,6.22,6.65,9.79,8.5,3.57,1.85,7.2,3.27,10.9,4.25v8.13c-3.45-.5-9.18-.99-17.18-1.48-8.01-.5-16.69-.62-26.05-.37-9.36.24-18.78.98-28.26,2.22-9.48,1.23-17.55,3.33-24.2,6.28l-2.59-7.76c6.15-2.71,11.45-5.6,15.89-8.68,4.43-3.08,8.13-6.77,11.08-11.08,2.96-4.31,5.11-9.48,6.47-15.52,1.35-6.03,2.03-13.36,2.03-21.98,0-5.66-.13-12.93-.37-21.8-.25-8.87-.55-18.47-.92-28.82-.37-10.35-.8-21.06-1.29-32.14-.5-11.08-.99-21.73-1.48-31.96-.5-10.22-.92-19.64-1.29-28.26-.37-8.62-.68-15.64-.92-21.06Z"/>
  <path class="b" d="M210.59,166.63c2.96-21.67,4.99-41.13,6.1-58.38,1.11-17.24.8-31.83-.92-43.78-1.73-11.94-5.05-21.24-9.98-27.89-4.93-6.65-11.95-10.22-21.06-10.71l1.48-7.76c5.91.74,12.19,1.66,18.84,2.77s13.73,1.97,21.24,2.59c7.51.62,15.33.87,23.46.74,8.13-.12,16.5-.92,25.12-2.4l-.74,8.5c-2.22.74-4.75,3.02-7.57,6.84-2.83,3.82-5.61,9.61-8.31,17.36-2.71,7.76-5.24,17.68-7.57,29.74-2.34,12.07-4.25,26.73-5.73,43.97-.74,11.33-1.42,23.4-2.03,36.21-.62,12.81-.62,25.31,0,37.5.61,12.19,2.15,23.77,4.62,34.73,2.46,10.96,6.15,20.5,11.08,28.63,4.92,8.13,11.45,14.29,19.58,18.47,8.13,4.19,18.35,5.66,30.66,4.43,10.1-.98,18.22-5.42,24.38-13.3,6.15-7.88,10.84-18.16,14.04-30.85,3.2-12.68,5.23-27.21,6.1-43.6.86-16.38,1.04-33.56.55-51.54-.5-19.7-.99-36.39-1.48-50.06-.5-13.67-2.46-25.18-5.91-34.54-2.96-7.63-6.84-12.99-11.64-16.07-4.8-3.08-10.53-5.6-17.18-7.57l1.11-8.87c14.04,1.48,28.75,2.22,44.15,2.22s29.74-1.35,43.04-4.06l1.11,6.28c-3.45,1.97-6.71,4.38-9.79,7.2-3.08,2.83-5.79,6.47-8.13,10.9-2.34,4.43-4.25,9.73-5.73,15.89-1.48,6.16-2.34,13.43-2.59,21.8,0,8.38.06,18.05.19,29,.12,10.96.49,22.79,1.11,35.47.61,12.69,1.41,26.05,2.4,40.09.98,14.04,2.22,28.33,3.69,42.86,1.72,14.54,4.37,26.36,7.94,35.47,3.57,9.12,7.51,15.33,11.82,18.66,4.31,3.33,8.68,3.57,13.12.74,4.43-2.83,8.5-9.05,12.19-18.66l5.54,3.69c-.99,4.93-3.14,9.73-6.46,14.41-3.32,4.68-7.39,8.43-12.19,11.27-4.8,2.83-9.98,4.49-15.52,4.99-5.54.49-11.03-1.05-16.44-4.62-5.42-3.57-10.47-9.55-15.15-17.92-4.68-8.37-8.5-19.82-11.46-34.36-2.22,6.41-4.93,12.99-8.13,19.77-3.21,6.78-7.52,12.81-12.93,18.1-5.42,5.29-12.32,9.48-20.69,12.56-8.38,3.08-18.84,4.25-31.4,3.51-30.29-1.73-52.34-14.54-66.13-38.42-13.8-23.89-17.73-57.88-11.82-101.97Z"/>
  <path class="b" d="M452.22,63.18c-3.45-17.24-7.7-30.17-12.75-38.79-5.05-8.62-12.87-12.06-23.46-10.34l-1.85-10.34c4.68.5,10.29.74,16.81.74s13.54-.12,21.06-.37c7.51-.24,15.08-.67,22.72-1.29,7.63-.61,14.9-1.54,21.8-2.77,2.96,11.33,6.83,24.2,11.64,38.61s10.16,29.5,16.07,45.26c5.91,15.77,12.13,31.84,18.66,48.21,6.52,16.38,13.05,32.33,19.58,47.84,6.52,15.52,12.8,30.17,18.84,43.97,6.03,13.8,11.51,25.86,16.44,36.21,0-13.3-.18-27.52-.55-42.67-.37-15.15-.8-30.29-1.29-45.44-.5-15.15-1.11-29.74-1.85-43.78-.74-14.04-1.61-26.35-2.59-36.95-.99-12.07-2.28-22.17-3.88-30.3-1.6-8.13-3.51-14.84-5.73-20.13-2.22-5.29-4.75-9.61-7.57-12.93-2.83-3.33-6.1-6.1-9.79-8.31v-7.39c5.91,1.24,12.62,2.22,20.14,2.96,7.51.74,15.27,1.29,23.28,1.66,8,.37,16.13.43,24.38.18,8.25-.24,16.31-.98,24.2-2.22v8.5c-3.94.25-8.07,1.29-12.38,3.14-4.31,1.85-8.31,4.87-12.01,9.05-3.69,4.19-6.65,9.67-8.87,16.44-2.22,6.78-3.33,15.09-3.33,24.94,0,6.65.12,15.64.37,26.97.24,11.33.49,23.96.74,37.87.24,13.92.37,28.51.37,43.78s-.06,30.17-.18,44.71c-.13,14.54-.43,28.02-.92,40.46-.5,12.44-1.24,22.72-2.22,30.85l-24.01-2.59c-7.64-15.27-16.01-33.07-25.12-53.39-9.12-20.32-18.47-40.95-28.08-61.88-9.61-20.93-19.09-41.01-28.45-60.22-9.36-19.21-18.1-35.47-26.23-48.77-1.48,15.52-2.34,32.45-2.59,50.8-.25,18.35.12,36.83,1.11,55.42.98,18.6,2.34,36.83,4.06,54.68,1.72,17.86,3.69,34.17,5.91,48.95-6.41.25-13.55.62-21.43,1.11-7.89.5-15.33,1.11-22.35,1.85-7.02.74-13.12,1.6-18.29,2.59-5.17.98-8.25,2.09-9.24,3.33l-1.85-7.76c4.43-2.46,8.55-4.55,12.38-6.28,3.82-1.72,7.2-4.43,10.16-8.13,2.96-3.7,5.36-9.24,7.2-16.63,1.85-7.39,3.14-17.98,3.88-31.77,1.48-28.08,2.4-55.97,2.77-83.68.37-27.71-1.54-53.02-5.73-75.92Z"/>
  <path class="b" d="M662.07,31.03c5.17.5,10.16.43,14.96-.18,4.8-.61,9.24-1.41,13.3-2.4,4.06-.98,7.76-1.97,11.08-2.96,3.33-.98,5.97-1.48,7.94-1.48-2.46,2.96-4.87,9.36-7.21,19.21-2.34,9.85-4.38,21.68-6.1,35.47-1.73,13.8-2.96,28.76-3.69,44.89-.74,16.13-.74,32.08,0,47.84.49,15.52.86,28.14,1.11,37.87.24,9.73.61,17.31,1.11,22.72.49,5.42,1.17,9.24,2.03,11.45.86,2.22,2.27,3.57,4.25,4.06-4.93-.74-10.59-.86-17-.37-6.41.5-10.96.99-13.67,1.48,2.22-3.69,3.75-7.76,4.62-12.19.86-4.43,1.29-9.66,1.29-15.7s-.31-13.17-.92-21.43c-.62-8.25-1.29-18.04-2.03-29.37-.5-7.39-.92-15.82-1.29-25.31-.37-9.48-.74-19.21-1.11-29.19-.37-9.97-.8-19.82-1.29-29.56-.5-9.73-1.05-18.47-1.66-26.23-.62-7.76-1.42-14.22-2.4-19.4-.99-5.17-2.1-8.25-3.33-9.24ZM683.13,264.16c4.92-1.97,9.73-2.59,14.41-1.85,4.68.74,8.13,3.57,10.34,8.5,1.48,3.7,1.23,7.82-.74,12.38-1.97,4.56-5.91,8.06-11.82,10.53-5.67,2.46-11.03,3.08-16.07,1.85-5.05-1.24-8.19-4.06-9.42-8.5-1.24-4.19-.62-8.56,1.85-13.12,2.46-4.55,6.28-7.82,11.45-9.79Z"/>
</svg>