<?xml version="1.0" encoding="UTF-8"?>
<svg id="a" data-name="Layer 1" xmlns="http://www.w3.org/2000/svg" width="448.48" height="181.07" viewBox="0 0 448.48 181.07">
  <defs>
    <style>
      .b {
        fill: #231f20;
      }
    </style>
  </defs>
  <path class="b" d="M37.23,21.59c7.78-1.32,19.57-1.98,35.35-1.98s27.87,1.29,36.24,3.85c8.37,2.57,12.56,6.21,12.56,10.9,0,2.2-.85,3.78-2.53,4.74-1.69.96-3.16,1.69-4.41,2.2-1.25.52-2.94.99-5.07,1.43-2.13.44-4.08.85-5.84,1.21-1.76.37-4.08.7-6.94.99-2.86.3-5.32.55-7.38.77-2.06.22-4.77.52-8.15.88-3.38.37-6.46.7-9.25.99-2.79.3-10.13,1.4-22.03,3.3v.22c0,5.29-2.28,19.31-6.83,42.07,1.91.15,5.4.22,10.46.22s11.71-.4,19.94-1.21c8.22-.81,13.62-1.21,16.19-1.21s4.74.66,6.5,1.98c1.76,1.32,2.64,2.79,2.64,4.41,0,3.96-2.35,7.49-7.05,10.57-4.7,3.08-10.57,5.51-17.62,7.27-14.1,3.52-26.51,5.44-37.23,5.73-4.41,18.65-7.09,30.07-8.04,34.25-.96,4.18-1.95,8.19-2.97,12-1.91,7.49-3.67,11.23-5.29,11.23-3.08,0-7.27-3.45-12.56-10.35-5.29-6.9-7.93-12.04-7.93-15.42,0-5.87,3.63-24.52,10.9-55.95,7.27-31.42,11.12-51.18,11.56-59.25v-1.76c0-1.91.22-3.52.66-4.85,1.61-4.85,6.31-7.93,14.1-9.25Z"/>
  <path class="b" d="M148.91,16.74c3.67,0,8.33,2.64,13.99,7.93,5.65,5.29,8.48,10.46,8.48,15.53s-2.64,18.17-7.93,39.32c-5.29,21.15-7.93,35.72-7.93,43.73s.99,14.14,2.97,18.39c1.98,4.26,4.77,6.39,8.37,6.39s7.82-2.61,12.67-7.82c4.85-5.21,9.51-11.97,13.99-20.27,4.48-8.29,8.22-18.21,11.23-29.74,3.01-11.53,4.52-22.25,4.52-32.16s-.48-17.88-1.43-23.9c-.96-6.02-1.43-9.62-1.43-10.79,0-4.55,1.91-6.83,5.73-6.83,4.7,0,10.76,3.96,18.17,11.9,7.41,7.93,11.12,17.37,11.12,28.31s-1.91,23.5-5.73,37.67c-3.82,14.17-8.96,27.57-15.42,40.2-6.46,12.63-14.65,23.13-24.56,31.5-9.91,8.37-20.05,12.56-30.4,12.56s-19.71-5.43-28.09-16.3c-8.37-10.87-12.56-21.95-12.56-33.26s1.47-24.41,4.41-39.32c2.94-14.9,5.87-28.31,8.81-40.2,2.94-11.9,4.41-20.34,4.41-25.33s2.2-7.49,6.61-7.49Z"/>
  <path class="b" d="M350.24,16.08c4.26,0,8.99,2.2,14.21,6.61,5.21,4.41,7.82,8.01,7.82,10.79,0,9.25-2.17,25.3-6.5,48.13-4.33,22.84-9.88,44.68-16.63,65.53-6.76,20.85-12.85,31.28-18.28,31.28-2.2,0-5.07-1.21-8.59-3.63s-5.88-5.29-7.05-8.59c-1.18-3.3-3.45-10.17-6.83-20.6-7.79-23.94-15.13-43.76-22.03-59.48-1.03,4.41-2.39,10.65-4.08,18.72-1.69,8.08-3.05,14.43-4.08,19.05-1.03,4.63-2.28,10.21-3.74,16.74-1.47,6.54-2.75,11.71-3.85,15.53-1.1,3.82-2.31,7.64-3.63,11.45-2.35,7.2-4.55,10.79-6.61,10.79-2.94,0-6.76-2.68-11.45-8.04-4.7-5.36-7.05-9.99-7.05-13.88s4.22-24.34,12.67-61.35c8.44-37.01,13.03-60.21,13.77-69.61.44-5.58,2.13-8.37,5.07-8.37,2.5,0,5.69,1.47,9.58,4.41,3.89,2.94,7.27,6.5,10.13,10.68,2.86,4.19,8.04,17.81,15.53,40.86,7.49,23.06,13.44,39.58,17.84,49.56,5.73-17.03,11.01-42.73,15.86-77.1,1.91-13.66,3.16-21.99,3.74-25,.58-3.01,1.98-4.52,4.19-4.52Z"/>
  <path class="b" d="M389.45,158.93c0-3.89,1.69-7.78,5.07-11.67,3.38-3.89,6.75-5.84,10.13-5.84s7.3,3.96,11.78,11.89c4.48,7.93,6.72,13.88,6.72,17.84,0,1.91-1.21,4.04-3.63,6.39-2.42,2.35-4.81,3.52-7.16,3.52-4.41,0-9.33-2.71-14.76-8.15-5.43-5.43-8.15-10.1-8.15-13.99ZM412.13,6.39c0-4.26,2.28-6.39,6.83-6.39s10.61,3.23,18.17,9.69c7.56,6.46,11.34,11.16,11.34,14.1,0,9.69-3.41,29.7-10.24,60.03-6.83,30.33-12.74,45.49-17.73,45.49-3.96,0-7.86-2.06-11.67-6.17-3.82-4.11-5.8-8.37-5.95-12.78-.3-1.61.29-6.35,1.76-14.21,1.47-7.85,3.08-19.97,4.85-36.35,1.76-16.37,2.64-34.18,2.64-53.42Z"/>
</svg>