<?xml version="1.0" encoding="UTF-8"?>
<svg id="a" data-name="Layer 1" xmlns="http://www.w3.org/2000/svg" width="416.32" height="179.09" viewBox="0 0 416.32 179.09">
  <defs>
    <style>
      .b {
        fill: #231f20;
      }
    </style>
  </defs>
  <path class="b" d="M31.06,109.48h-.44c-.3,1.47-1.73,7.34-4.3,17.62-2.57,10.28-4.22,17-4.96,20.16-.74,3.16-1.36,5.69-1.87,7.6-.52,1.91-1.07,4.08-1.65,6.5-.59,2.42-1.14,4.33-1.65,5.73-.52,1.4-.99,2.75-1.43,4.08-.88,2.5-1.76,3.75-2.64,3.75-1.91,0-4.41-2.09-7.49-6.28-3.08-4.18-4.63-7.6-4.63-10.24s4.22-21,12.67-55.07c8.44-34.07,12.81-56.76,13.11-68.07,0-2.2.51-3.96,1.54-5.29,1.47-3.08,5.84-5.29,13.11-6.61,7.27-1.32,17.92-1.98,31.94-1.98s25.04.74,33.04,2.2c8,1.47,12.01,3.52,12.01,6.17,0,1.76-1.25,3.01-3.74,3.74-2.5.74-4.7,1.29-6.61,1.65-1.91.37-4.41.74-7.49,1.1-3.08.37-5.95.66-8.59.88-2.64.22-6.06.55-10.24.99-4.19.44-8.04.85-11.56,1.21-3.52.37-8.3.92-14.32,1.65-6.02.74-9.91,1.18-11.67,1.32.15.44.22,1.1.22,1.98,0,6.9-2.86,22.76-8.59,47.58,9.1.44,18.91.22,29.41-.66,10.5-.88,16.92-1.32,19.27-1.32,5.58,0,8.37,1.18,8.37,3.52,0,4.55-6.35,8.37-19.05,11.45-12.7,3.08-26.62,4.63-41.74,4.63Z"/>
  <path class="b" d="M141.2,21.48c.59-.95,1.94-1.43,4.08-1.43s4.96,1.95,8.48,5.84c3.52,3.89,5.29,8.45,5.29,13.66s-2.97,19.42-8.92,42.62c-5.95,23.2-8.92,38.95-8.92,47.25s1.54,15.02,4.63,20.16c3.08,5.14,7.05,7.71,11.9,7.71s10.21-2.79,16.08-8.37c5.87-5.58,11.34-12.89,16.41-21.92,5.07-9.03,9.32-20.04,12.78-33.04,3.45-13,5.18-26.1,5.18-39.32,0-6.17-.33-12.34-.99-18.5-.66-6.17-.99-9.98-.99-11.45,0-3.08,1.32-4.63,3.97-4.63,3.38,0,7.27,2.53,11.67,7.6,4.41,5.07,6.61,11.56,6.61,19.49,0,22.62-3.3,43.84-9.91,63.66-6.61,19.83-15.5,35.65-26.65,47.47-11.16,11.82-23.06,17.73-35.69,17.73-9.25,0-17.29-4.48-24.12-13.44-6.83-8.96-10.24-19.24-10.24-30.84s3.08-29.85,9.25-54.74c6.17-24.89,9.25-41.67,9.25-50.33,0-2.5.29-4.22.88-5.18Z"/>
  <path class="b" d="M341.87,28.64c.29-6.31,1.8-9.47,4.52-9.47s5.69,1.69,8.92,5.07c3.23,3.38,4.85,6.39,4.85,9.03,0,12.04-1.87,29.15-5.62,51.32-3.74,22.18-8.74,42.73-14.98,61.68-6.24,18.94-12.15,28.42-17.73,28.42-1.91,0-4.08-.95-6.5-2.86-2.42-1.91-4.3-4.26-5.62-7.05-4.41-10.28-17.4-42.88-38.99-97.8-4.41,17.04-9.29,36.31-14.65,57.82-5.36,21.51-8.92,35.21-10.68,41.08-1.76,5.88-3.3,8.81-4.63,8.81-1.91,0-4.22-1.65-6.94-4.96-2.72-3.3-4.08-6.72-4.08-10.24s4.77-24.19,14.32-62.01c9.54-37.81,14.46-61.42,14.76-70.82,0-4.7,1.25-7.05,3.74-7.05,1.61,0,3.85,1.36,6.72,4.08,2.86,2.72,4.96,5.69,6.28,8.92,23.64,61.39,38.62,98.98,44.94,112.78,9.54-25.26,15.93-55.43,19.16-90.53,1.47-16.15,2.2-24.89,2.2-26.21Z"/>
  <path class="b" d="M369.18,151.55c2.5-3.08,4.99-4.63,7.49-4.63s5.51,3.56,9.03,10.68c3.52,7.12,5.29,12.45,5.29,15.97,0,1.03-.74,2.2-2.2,3.52-1.47,1.32-2.86,1.98-4.19,1.98-3.67,0-7.79-2.31-12.33-6.94-4.55-4.62-6.83-8.44-6.83-11.45s1.25-6.06,3.75-9.14ZM397.6,0c2.79,0,6.61,1.76,11.45,5.29,4.85,3.52,7.27,6.32,7.27,8.37,0,12.48-3.19,34.44-9.58,65.86-6.39,31.43-11.49,47.14-15.31,47.14-2.35,0-4.55-1.21-6.61-3.63-2.06-2.42-3.08-4.96-3.08-7.6-.15-.88.77-6.17,2.75-15.86s4.08-23.31,6.28-40.86c2.2-17.55,3.3-35.21,3.3-52.98,0-3.82,1.17-5.73,3.52-5.73Z"/>
</svg>