<?xml version="1.0" encoding="UTF-8"?>
<svg id="a" data-name="Layer 1" xmlns="http://www.w3.org/2000/svg" width="3221.29" height="1943.99" viewBox="0 0 3221.29 1943.99">
  <defs>
    <style>
      .b {
        fill: #c9a48b;
      }

      .c {
        fill: #e8d6ba;
      }

      .d {
        fill: #fff;
      }
    </style>
  </defs>
  <g>
    <path d="M2750.55,157.1l349.07,764-382.3,177.55-18.9-37c-7.45-1.05-13.68,1.27-20.47,3.83-74.37,28.09-165.41,141.6-233.31,189.12l-5.13,11.96c29.21,101.95-54.57,203.95-159.58,199.25,9.96,62.97-39.4,130.11-97.89,149.85-12.72,4.29-48.16,6.35-53.72,10.47-3.22,2.38-20.52,55.28-35.3,71.81-38.41,42.93-95.93,47.48-149.08,37.53-14.03,80.61-70.74,110.02-149.57,102.79-93.84-8.6-198.86-48.59-294.62-57.97-52.14,64.92-128.97,94.31-206.87,51.75-18.53-10.13-44.73-47.42-52.93-51.11-14.78-6.66-33.88-1.1-50.39-4.65-66.39-14.26-105.77-54.47-126.72-117.98-24.52-7.4-50.57.83-75.34-4.19-54.93-11.13-124.69-92.79-121.45-150.77-115.74-19.67-181.42-147.46-110.01-247.63-43.01-42.36-82-118.23-124.76-156.88-8.45-7.64-105.02-65.6-111.44-66.56-25.8-3.87-21.68,40.08-48.74,25.32l-344.37-219.22L576.14,126.76l348.99,219.44c23.43,15.21-13.1,34.27-14.89,47.03l2.11,8.29c55.32,33.54,100.25,74.59,166.28,84.8,69.6,10.76,159.11,9.44,231.44,13.2,64.86,3.37,40.8-19.34,85.67-37.18,100.51-39.97,232.6-53.9,336.65-90.33,138.29,7.56,397.25,115.27,524.78,89.21,11.07-2.26,120.31-59.93,124.09-65.85,9.27-14.51-15.02-43.44-21.14-58.3l5.42-5.83,384.99-174.12ZM2426.71,468.7c-44.16,17.87-86.07,52.24-130.38,68.35-134.24,48.81-411.78-67.16-558.78-78.43-105.73,31.11-219.86,48.46-320.14,92.65l-232.45,302.74c69.29,29.23,137.36,19.42,195.82-27.38,94.64-75.78,108.76-160.38,250.39-190.1,50.36-10.57,103.48,52.95,145.25,81.84,91.19,63.08,177.27,113.36,281.81,152.52,23.02,8.63,113.11,29.95,122.27,39.77,17.22,18.46,14.17,63.48-16.72,65.88l.02,8.98,223.17,203.92c91.59-69.58,168.55-157.28,271.83-210.56l-232.08-510.19ZM1288.94,578.87c-98.12-5.56-220.33,8.23-309.95-35.74-19.79-9.71-103.61-69.63-114.4-67.54l-309.53,479.5,132.26,78.53,133.55,168.85c68.96-47.22,117.8-95.72,206.8-59.57,35.13,14.27,68.12,46.94,77.84,84.35,19.55-5.52,34.37-23.75,56.77-31.84,112.71-40.73,222.82,63.7,187.83,178.63,61.31,1.76,118.4,65.32,122.36,125.59,1.26,19.18-8.21,49.68-5.36,59.79,3.18,11.26,19.11,14.7,26.16,23.28,30.34,36.91,41.11,67.61,43.01,116.05l284.17,57.35c29.33,1.64,47.28-23.86,42.96-51.08-52.57-22.36-233.44-44.52-123.37-121.88,72.46-1.4,189.83,73.09,255.64,72.52,33.39-.29,52.92-31.35,45.95-63.38l-305.86-160.32c-43.53-36.14-6.41-97.52,47.02-71.44l342.73,177.61c56.08,5.33,98.84-58.91,53.53-102.86-59.8-58.02-192.56-107.76-248.01-167.97-7.62-8.27-17.7-18.94-17.69-30.85,11.49-38.99,32.25-47.79,69.33-33,87.98,35.1,186.07,147.86,286.18,172.55,76.66,18.9,120-55.53,69.29-118.18-87.67-108.31-251.16-205.96-342.65-318.03-124.07-55.21-239.53-126.77-345.41-211.65-101.83-.55-152.8,113.92-226.38,172.03-68.86,54.38-170.58,66.98-252.66,38.22-51.52-18.05-94.84-49.47-70.09-110.2l188-249.29ZM838.42,1402.49c30.78,27.96,66.47,16.5,95.77-6.95,15.13-12.1,83.52-79.6,90.27-93.21,22.34-44.99-19-95.65-67.45-86.02-21.56,4.29-128.39,81.13-138.33,100.42-15.72,30.52-4.43,63.82,19.73,85.76ZM1250.12,1378.1c39.48-45.72,18.37-113.95-43.19-107.91-46.67,4.57-136.01,112.21-171.7,146.88-14.35,13.94-87.8,69.28-87.7,81.2,20.96,58.01,62.16,102.19,121.33,56.43,40.06-30.99,147.19-137.12,181.27-176.59ZM1317.95,1454.9c-10.64,2.09-22.95,10.89-32.05,17.07-17.6,11.94-128.82,109.93-134.49,122.45-27.67,61.1,36.39,122.07,96.99,90.87,39.06-20.11,94.25-112.82,131.52-143.74,23.73-45.56-10.93-96.67-61.97-86.65ZM1415.2,1631.48c-15.16,17.36-97.79,96.54-94.81,111.88,4.56,23.48,53.63,25.46,72.89,19.47,40.87-12.71,84.98-111.97,21.92-131.35Z"/>
    <path class="d" d="M576.14,126.76l348.99,219.44c23.43,15.21-13.1,34.27-14.89,47.03l2.11,8.29c55.32,33.54,100.25,74.59,166.28,84.8,69.6,10.76,159.11,9.44,231.44,13.2,4.36.23,8.32.33,11.92.33,50.02,0,31.89-20.87,73.75-37.52,100.51-39.97,232.6-53.9,336.65-90.33,123.42,6.74,342.97,93.27,479.41,93.27,16.44,0,31.65-1.25,45.37-4.06,11.07-2.26,120.31-59.93,124.09-65.85,9.27-14.51-15.02-43.44-21.14-58.3l5.42-5.83,384.99-174.12,349.07,764-382.3,177.55-18.9-37c-1.26-.18-2.48-.26-3.68-.26-5.89,0-11.14,1.96-16.78,4.09-74.37,28.08-165.41,141.6-233.31,189.12l-5.13,11.96c28.55,99.67-50.9,199.4-152.6,199.4-2.32,0-4.64-.05-6.99-.16,9.96,62.97-39.4,130.11-97.89,149.85-12.72,4.29-48.16,6.36-53.72,10.47-3.22,2.38-20.52,55.28-35.3,71.81-27.69,30.95-65.33,41.95-104.08,41.95-15,0-30.17-1.65-45-4.42-12.67,72.8-60.17,103.85-127.33,103.85-7.2,0-14.61-.36-22.24-1.06-93.84-8.6-198.86-48.59-294.62-57.97-35.35,44.01-82.05,71.7-132.73,71.7-24.08,0-49.05-6.24-74.14-19.95-18.53-10.13-44.73-47.42-52.93-51.11-6.6-2.97-14.07-3.51-21.78-3.51-4.36,0-8.79.17-13.2.17-5.25,0-10.45-.24-15.41-1.31-66.39-14.26-105.77-54.47-126.72-117.98-8.58-2.59-17.34-3.26-26.17-3.26-9.66,0-19.41.81-29.07.81-6.75,0-13.46-.39-20.09-1.74-54.93-11.13-124.69-92.79-121.45-150.77-115.74-19.67-181.42-147.46-110.01-247.63-43.01-42.36-82-118.23-124.76-156.88-8.45-7.64-105.02-65.6-111.44-66.56-1.1-.16-2.14-.24-3.13-.24-18.99,0-19.94,28.6-35.64,28.6-2.8,0-6.06-.91-9.97-3.04l-344.37-219.22L576.14,126.76M1262.58,870.55c41.78,0,81.84-14.8,118.19-43.91,94.64-75.78,108.76-160.38,250.39-190.1,3.8-.8,7.62-1.17,11.45-1.17,46.87,0,95.19,56.3,133.8,83.01,91.19,63.08,177.27,113.36,281.81,152.52,23.02,8.62,113.11,29.95,122.27,39.77,17.22,18.46,14.17,63.48-16.72,65.88l.02,8.98,223.17,203.92c91.59-69.58,168.55-157.28,271.83-210.56l-232.08-510.19c-44.16,17.87-86.07,52.25-130.38,68.35-23.14,8.41-50.56,11.93-80.81,11.93-145.25,0-356.31-81.04-477.97-90.36-105.73,31.11-219.86,48.46-320.14,92.65l-232.45,302.74c26.2,11.05,52.23,16.52,77.62,16.52M820.87,1202.47c52.15-35.71,92.81-72.16,148.02-72.16,17.79,0,37.09,3.78,58.77,12.59,35.13,14.27,68.12,46.94,77.84,84.35,19.55-5.52,34.37-23.75,56.77-31.84,17-6.14,33.95-8.99,50.34-8.99,92.29,0,167.2,90.02,137.48,187.62,61.31,1.76,118.4,65.32,122.36,125.59,1.26,19.18-8.21,49.68-5.36,59.79,3.18,11.26,19.11,14.7,26.16,23.28,30.34,36.91,41.11,67.61,43.01,116.05l284.17,57.35c.9.05,1.79.07,2.66.07,27.75,0,44.49-24.77,40.3-51.15-52.57-22.36-233.44-44.52-123.37-121.88.67-.01,1.35-.02,2.03-.02,72.33,0,187.52,72.54,252.85,72.54.25,0,.51,0,.76,0,33.39-.29,52.92-31.35,45.95-63.38l-305.86-160.32c-36.26-30.1-16.56-77.71,21.9-77.71,7.72,0,16.19,1.92,25.12,6.27l342.73,177.61c2.2.21,4.39.31,6.55.31,52.76,0,90.51-60.95,46.98-103.18-59.8-58.02-192.56-107.76-248.01-167.97-7.62-8.27-17.7-18.94-17.69-30.85,8.03-27.26,20.6-39.76,40.1-39.76,8.39,0,18.07,2.31,29.23,6.76,87.98,35.1,186.07,147.86,286.18,172.55,8.26,2.04,16.15,2.99,23.56,2.99,61.36,0,90.98-65.27,45.73-121.17-87.67-108.31-251.16-205.96-342.65-318.03-124.07-55.21-239.53-126.77-345.41-211.65-.24,0-.49,0-.73,0-101.34,0-152.24,114.06-225.65,172.03-44.96,35.5-103.94,53.2-162.3,53.2-31.02,0-61.87-5-90.36-14.98-51.52-18.05-94.84-49.47-70.09-110.2l188-249.29c-98.12-5.56-220.33,8.23-309.95-35.74-19.45-9.55-100.75-67.59-113.78-67.59-.23,0-.43.02-.62.05l-309.53,479.5,132.26,78.53,133.55,168.85M878.41,1418.89c19.27,0,38.62-9.62,55.78-23.35,15.13-12.1,83.52-79.6,90.27-93.21,20.47-41.23-12.53-87.21-55.47-87.21-3.92,0-7.92.38-11.98,1.19-21.56,4.29-128.39,81.13-138.33,100.42-15.72,30.52-4.43,63.82,19.73,85.76,12.75,11.58,26.35,16.4,39.99,16.4M1021.97,1573.67c14.08,0,29.72-5.7,46.88-18.98,40.06-30.99,147.19-137.12,181.27-176.59,37.82-43.81,20.02-108.29-35.69-108.29-2.43,0-4.92.12-7.5.37-46.67,4.57-136.01,112.21-171.7,146.88-14.35,13.94-87.8,69.28-87.7,81.2,14.88,41.18,39.97,75.4,74.44,75.4M1214.73,1693.73c10.93,0,22.36-2.61,33.68-8.44,39.06-20.11,94.25-112.82,131.52-143.74,21.68-41.64-5.4-87.92-49.19-87.92-4.12,0-8.39.41-12.78,1.27-10.64,2.09-22.95,10.89-32.05,17.07-17.6,11.94-128.82,109.93-134.49,122.45-22.5,49.7,15.67,99.31,63.32,99.31M1369.95,1765.7c9.12,0,17.56-1.08,23.33-2.87,40.87-12.71,84.98-111.97,21.92-131.35-15.16,17.36-97.79,96.54-94.81,111.88,3.2,16.44,28.23,22.34,49.56,22.34M547.38,0l-49.03,77.63L48.95,789.23,0,866.73l77.33,49.23,344.37,219.22,2.62,1.67,2.73,1.49c17.37,9.47,35.54,14.27,54.03,14.27,16.18,0,31.89-3.75,46.15-10.83,18.26,10.93,36.86,22.36,45.21,27.96,14.14,13.89,31.54,38.64,48.4,62.62,8.53,12.13,17.17,24.42,26.13,36.46-5.67,16.87-9.47,34.25-11.3,51.81-4.13,39.58,1.84,80.21,17.24,117.52,16.29,39.46,42.78,74.64,76.61,101.74,17.49,14.02,36.79,25.72,57.32,34.85,1.45,3.88,3.02,7.78,4.72,11.68,10.12,23.29,24.76,46.91,42.36,68.3,17.11,20.8,37.03,39.54,57.6,54.2,25.5,18.17,51.65,30.06,77.72,35.34,10.44,2.12,21.42,3.27,33.43,3.52,12.17,20.63,26.55,38.88,43.04,54.58,33.38,31.79,75.27,53.27,124.52,63.85,10.32,2.22,19.82,2.99,27.39,3.25,13.96,15.37,30.69,32.13,51.14,43.3,37.91,20.71,77.7,31.22,118.25,31.22s79.72-10.38,116.69-30.86c17.48-9.68,34.05-21.42,49.6-35.11,29.11,5.35,59.85,12.88,91.77,20.71,52.55,12.88,106.89,26.2,160.89,31.15,10.42.96,20.73,1.44,30.64,1.44,25.57,0,49.74-3.22,71.84-9.56,25.48-7.32,48.51-18.83,68.46-34.22,19.76-15.24,36.3-34.12,49.21-56.15,62.98-3.78,116.46-28.51,155.47-72.1,12.71-14.21,22.49-31.78,31.54-51.63,6.23-1.26,12.38-2.8,18.34-4.81,24.47-8.26,47.71-21.02,69.06-37.93,20.16-15.96,37.74-34.9,52.26-56.29,13.53-19.94,23.78-41.12,30.57-62.83,13.01-4.23,25.69-9.55,37.87-15.89,33.31-17.36,62.94-42.49,85.69-72.67,22.32-29.61,38.03-64.16,45.44-99.91,4.06-19.58,5.69-39.23,4.9-58.8,18.88-16.34,38.02-34.54,57.8-53.34,21.32-20.27,43.31-41.18,63.92-58.5l16.74,32.77,80.38-37.33,382.3-177.55,82.92-38.51-38-83.16-349.07-764-38.09-83.36-83.5,37.77-384.99,174.12-16.86,7.63-12.6,13.55-5.42,5.83-40.12,43.15,15.07,36.65c-14.17,7.39-27.49,14.13-35.66,17.94-5.84.73-12.62,1.11-20.24,1.11-62.28,0-158.62-24.9-243.62-46.87-84.92-21.95-165.13-42.68-230.78-46.26l-18.21-1-17.22,6.03c-43.23,15.14-93.57,26.3-146.87,38.12-65.26,14.47-132.74,29.44-193.38,53.55-23.49,9.34-39.52,20.85-50.43,30.62-22.15-1.09-45.77-1.77-68.64-2.42-52.77-1.5-107.33-3.05-149.98-9.65-22.97-3.55-44.07-14.98-67.99-30.39.53-7.62.17-14.5-.58-20.34-3.97-30.88-21.33-57.74-48.89-75.63l-.56-.36-.56-.35L625.11,48.88,547.38,0h0ZM1714.85,560.3c10.36-2.69,20.72-5.47,31.06-8.36,43.84,5.48,102.81,20.33,164.85,35.94,49.39,12.43,100.46,25.29,151,35.29,60.55,11.99,110.85,17.82,153.76,17.82s79.91-5.71,112.24-17.47c20.15-7.32,38.87-16.81,56.22-26.55l157.41,346.04c-44.29,31.11-83.88,65.87-122.6,99.87-9.66,8.48-19.14,16.81-28.55,24.95l-109.79-100.32c3.05-15.87,3.34-32.43.8-48.89-4.21-27.28-15.78-51.72-33.46-70.68-18.74-20.1-43.11-29.07-68.52-37.2-16.47-5.27-35.99-10.75-53.21-15.58-12.91-3.62-30.59-8.59-35.61-10.42l.05.02c-86.27-32.32-164.55-74.8-261.75-142.03-7.11-4.92-16.93-13.23-27.32-22.03-17.25-14.61-36.81-31.16-58.92-45.16-9.32-5.9-18.53-10.97-27.66-15.23h0ZM684.15,924.75l210.26-325.72c21.07,13.68,33.4,21.47,44.05,26.7,53.43,26.22,111.87,36.39,169.4,40.47l-80.37,106.57-7.22,9.57-4.52,11.1c-23.26,57.06-13.2,102.17-.68,129.97,12.33,27.36,32.6,50.83,60.23,69.76,18.39,12.59,39.75,23.07,65.31,32.02,38.17,13.37,78.8,20.15,120.78,20.15,81.82,0,159.71-25.92,219.32-73,30.45-24.04,55.07-52.37,78.89-79.76,20.06-23.07,39.01-44.87,57.17-58.75,3.76-2.88,7.17-5.16,10.27-6.97,98.32,74.87,202.9,138.02,311.67,188.18,48.79,55.49,109.57,105.67,168.78,154.31-29.29-20.41-59.4-38.87-90.74-51.37-22.46-8.96-43.17-13.31-63.31-13.31-16.49,0-32.35,2.96-47.16,8.81-15.7,6.2-29.83,15.47-42,27.54-17.83,17.69-30.65,40.39-39.2,69.41l-3.74,12.71v13.25c-.01,17.22,3.79,32.34,9.24,45.27l-5.47-2.84-.98-.51-.99-.48c-21.2-10.35-43.23-15.6-65.47-15.6-28.33,0-55.27,8.59-77.93,24.83-21.77,15.61-38.11,37.22-47.23,62.5-19.61,54.32-2.15,114.44,44.49,153.17l7.47,6.2.67.35c-21.6,15.44-37.82,31.33-49.54,48.52-8.5,12.47-14.68,25.73-18.37,39.43-1.29,4.8-2.28,9.63-2.96,14.46-10.24-30.92-26.41-58.81-49.93-87.43-.29-.35-.57-.69-.86-1.03.97-9.33,1.46-19.32.79-29.64-1.73-26.41-8.75-52.74-20.86-78.24-11.07-23.32-25.83-44.78-43.87-63.8-15.61-16.45-32.95-30.3-51.68-41.29-.65-7.45-1.66-14.89-3.04-22.31-6.45-34.9-21.12-68.55-42.43-97.31-21.5-29.02-49.76-53.14-81.73-69.76-33.32-17.32-70.68-26.48-108.04-26.48-25.61,0-51.09,4.19-75.85,12.46-21.65-21.22-47.24-38.15-74.47-49.22-31.62-12.84-63.04-19.36-93.4-19.36-35.68,0-70.12,8.64-105.29,26.42-8.22,4.15-16.14,8.63-23.84,13.32l-80.28-101.5-10.56-13.35-14.63-8.69-50.14-29.77h0Z"/>
  </g>
  <path class="c" d="M1288.94,578.87l-188,249.29c-24.75,60.74,18.57,92.16,70.09,110.2,82.08,28.76,183.8,16.15,252.66-38.22,73.58-58.1,124.55-172.58,226.38-172.03,105.88,84.88,221.34,156.44,345.41,211.65,91.49,112.07,254.99,209.72,342.65,318.03,50.71,62.66,7.38,137.09-69.29,118.18-100.11-24.69-198.19-137.45-286.18-172.55-37.08-14.79-57.84-5.99-69.33,33,0,11.9,10.07,22.58,17.69,30.85,55.45,60.21,188.21,109.95,248.01,167.97,45.31,43.96,2.55,108.2-53.53,102.86l-342.73-177.61c-53.43-26.08-90.55,35.29-47.02,71.44l305.86,160.32c6.98,32.04-12.55,63.09-45.95,63.38-65.81.57-183.18-73.91-255.64-72.52-110.08,77.37,70.8,99.53,123.37,121.88,4.32,27.22-13.63,52.72-42.96,51.08l-284.17-57.35c-1.9-48.43-12.68-79.14-43.01-116.05-7.05-8.58-22.98-12.02-26.16-23.28-2.85-10.11,6.61-40.61,5.36-59.79-3.95-60.27-61.04-123.83-122.36-125.59,34.99-114.93-75.12-219.36-187.83-178.63-22.39,8.09-37.22,26.32-56.77,31.84-9.72-37.41-42.71-70.07-77.84-84.35-89-36.15-137.84,12.35-206.8,59.57l-133.55-168.85-132.26-78.53,309.53-479.5c10.79-2.1,94.6,57.82,114.4,67.54,89.62,43.98,211.84,30.18,309.95,35.74Z"/>
  <path class="b" d="M2426.71,468.7l232.08,510.19c-103.28,53.28-180.24,140.98-271.83,210.56l-223.17-203.92-.02-8.98c30.89-2.4,33.94-47.41,16.72-65.88-9.16-9.82-99.24-31.15-122.27-39.77-104.54-39.16-190.62-89.44-281.81-152.52-41.77-28.89-94.89-92.41-145.25-81.84-141.63,29.72-155.75,114.32-250.39,190.1-58.45,46.8-126.52,56.61-195.82,27.38l232.45-302.74c100.29-44.19,214.41-61.54,320.14-92.65,147,11.26,424.54,127.23,558.78,78.43,44.31-16.11,86.21-50.48,130.38-68.35Z"/>
  <path class="b" d="M1250.12,1378.1c-34.08,39.48-141.21,145.61-181.27,176.59-59.16,45.76-100.37,1.58-121.33-56.43-.1-11.92,73.35-67.27,87.7-81.2,35.7-34.67,125.04-142.31,171.7-146.88,61.56-6.03,82.67,62.19,43.19,107.91Z"/>
  <path class="b" d="M1317.95,1454.9c51.04-10.03,85.7,41.08,61.97,86.65-37.28,30.92-92.46,123.63-131.52,143.74-60.6,31.2-124.66-29.77-96.99-90.87,5.67-12.52,116.89-110.51,134.49-122.45,9.11-6.18,21.41-14.98,32.05-17.07Z"/>
  <path class="b" d="M838.42,1402.49c-24.16-21.94-35.45-55.24-19.73-85.76,9.93-19.29,116.76-96.14,138.33-100.42,48.44-9.63,89.79,41.03,67.45,86.02-6.76,13.6-75.15,81.1-90.27,93.21-29.3,23.44-64.99,34.9-95.77,6.95Z"/>
  <path class="b" d="M1415.2,1631.48c63.06,19.38,18.95,118.65-21.92,131.35-19.26,5.99-68.33,4-72.89-19.47-2.98-15.35,79.65-94.52,94.81-111.88Z"/>
</svg>