<?xml version="1.0" encoding="UTF-8"?>
<svg id="a" data-name="Layer 1" xmlns="http://www.w3.org/2000/svg" width="1283.66" height="1623.96" viewBox="0 0 1283.66 1623.96">
  <path d="M167.43,1488.54h879.05l-93.01-240.9c-6.42-1.71-7.01,1.71-10.59,4.17-50.45,34.77-99.21,145.47-175.43,86.79-25.13-19.35-130.87-123.74-147.85-147.98-44.45-63.46,31.71-139.59,95.15-95.15,15.95,11.17,87.29,94.35,96.59,92.7l353.42-352.63c71.62-64.21,160.53,21.47,97.35,97.35-25.76,30.94-203.81,193.2-206.52,207.59l158.9,401.89c8.19,41.43-22,80.05-64.31,81.57H63.71c-63.25-9.95-73.89-50.79-55.8-106.86,40.89-126.82,114.82-307.19,171.46-428.66,84.26-180.68,266.65-291.03,467.67-276.03,32.78,2.45,121.55,19.54,143.76,42.19,24.43,24.92,25.85,65.73,3.88,92.66-39.91,48.92-113.89,3.65-168.77.39-132.26-7.88-261.79,69.97-318.42,188.62l-140.07,352.28Z"/>
  <path d="M945.62,338.68c0,187.05-151.63,338.68-338.68,338.68s-338.68-151.63-338.68-338.68S419.89,0,606.94,0s338.68,151.63,338.68,338.68ZM809.26,338.79c0-111.73-90.57-202.3-202.3-202.3s-202.3,90.57-202.3,202.3,90.57,202.3,202.3,202.3,202.3-90.57,202.3-202.3Z"/>
</svg>