<?xml version="1.0" encoding="UTF-8"?>
<svg id="a" data-name="Layer 1" xmlns="http://www.w3.org/2000/svg" width="1657.89" height="1912.79" viewBox="0 0 1657.89 1912.79">
  <path d="M648.16,1611.01c35.1,33.33,17.49,97.54-29.39,109.25-106.76-4.74-224.15,9.49-329.69.84C136.44,1708.58,9.64,1576.69,0,1424.55L.04,292.81C13.81,140.02,133.39,17.95,285.54.67l824.29-.67c155.4,13.21,282.63,140.8,292.85,296.76,11.79,179.97-9.28,372.7-.1,554.03-15.75,68.95-102.79,73.32-126.66,6.96l-1.4-556.34c-11.24-94.93-85.1-166.43-180.64-173.92l-788.87.21c-96.44,9.89-169.87,83.98-177.48,181.06l-.04,1099.85c29.64,263.8,308.92,163.37,484.3,184.98,10.89,1.34,28.46,9.91,36.37,17.42Z"/>
  <path d="M1657.89,1466.15c0,246.67-199.97,446.64-446.64,446.64s-446.64-199.97-446.64-446.64,199.97-446.64,446.64-446.64,446.64,199.97,446.64,446.64ZM1529.31,1466.14c0-175.7-142.43-318.13-318.13-318.13s-318.13,142.43-318.13,318.13,142.43,318.13,318.13,318.13,318.13-142.43,318.13-318.13Z"/>
  <path d="M369.65,702.26l656.38-.97c77.1,10.89,77.1,116.62,0,127.51H376.65c-73.26-10-78.46-108.52-7-126.54Z"/>
  <path d="M369.65,383.56l468.78-.6c72.34,14.27,72.31,112.53,0,126.78h-465.4c-70.51-13.72-73-108.73-3.38-126.17Z"/>
  <path d="M369.65,957.22l397.07-.6c70.67,13.61,70.88,113.04,0,126.78h-393.69c-70.51-13.72-73-108.73-3.38-126.17Z"/>
  <path d="M648.16,1228.56c35.56,33.76,16.38,102.14-32.73,109.89-36.87,5.82-209.11,5.47-245.79-.7-68-11.44-67.49-116.53,3.38-126.17,45.38-6.17,192.9-6.09,238.77-.44,10.89,1.34,28.45,9.9,36.37,17.42Z"/>
  <path d="M1321.73,1331.67c61.32-12.73,104.95,51.32,66.93,102.76-16.93,22.9-163.24,169.62-184.01,182.5-20.11,12.47-45.26,15.34-66.58,4.14-8-4.2-103.37-100.03-109.38-109.74-31.53-50.89,20.53-113.17,77.21-93.14,21.1,7.46,54.59,54.73,66.73,51.55,12.01-3.14,104.01-108.07,126.2-125.16,6.52-5.02,14.8-11.25,22.91-12.93Z"/>
</svg>