<?xml version="1.0" encoding="UTF-8"?>
<svg id="a" data-name="Layer 1" xmlns="http://www.w3.org/2000/svg" width="792.59" height="253.79" viewBox="0 0 792.59 253.79">
  <path d="M221.32,120.78l14.36,41.31c4.31,11.8,6.29,12.01,6.29,12.01h43.43c-6.47-6.3-9.89-15.27-13.46-23.89l-15.45-37.7c13.83-5.18,26.21-15.79,28.91-29.95,2.48-12.76-1.27-22.82-11.5-28.75-7.73-4.64-15.61-4.48-24.95-4.3h-57.45v.54c8.26,5.92,4.88,16.68,2.89,26.58l-14.02,70.69c-1.95,9.71-2.68,20.46-13.27,26.54l-.19.38h51.88l.17-.55c-8.25-5.91-4.83-16.66-2.86-26.54l5.22-26.4h0v.03ZM232.09,67.83c3.77,0,7.72.36,10.56,2.69,4.5,3.6,5.76,10.06,4.5,16.15-2.32,11.86-13.08,21.9-25.49,24.05l8.44-42.89h1.99Z"/>
  <path d="M352.54,76.29c1.96-9.71,2.66-20.66,13.45-26.58l.18-.53-52.23.17v.55c8.26,5.93,4.84,16.68,2.86,26.54l-14.17,70.75c-1.81,9.87-2.52,20.43-13.1,26.36l-.18.56h51.86l.19-.56c-8.25-5.93-4.84-16.48-2.88-26.36l14.01-70.9h.01Z"/>
  <path d="M447.11,106.44l51.54-56.91.19-.54h-42.37l-.18.54c3.59,1.24,6.12,5.93,5.2,10.23-.9,4.84-5.73,10.96-9.34,14.92l-12.56,14.52-14.37-39.49v-.72l-45.41.19v.53c6.47,4.49,8.79,10.4,11.89,18.13l15.95,40.92-58.56,64.79-.13.56,42.73-.22.14-.51c-3.4-2.7-4.5-7.72-3.59-12.77.87-4.09,4.11-7.53,6.62-10.94l20.66-24.21,18.14,47.92v.51l45.39-.17.17-.18v-.35c-7.69-7.01-11.46-17.41-15.43-27.1l-16.7-39.67h0l.02.02Z"/>
  <path d="M478.71,110.94c-8.08,40.17,17.78,65.31,57.45,65.31,39.1-.17,77.36-24.22,85.6-65.71,8.25-41.81-16.88-64.74-57.62-64.74-39.11.13-77.51,24.74-85.42,65.15h0ZM517.14,105.91c3.93-19.59,18.29-41.13,40.9-41.13,26.6,0,29.26,30.88,24.97,52.42-1.81,9.32-5.22,19.02-12.39,26.76-7.91,8.06-18.14,13.1-28.35,13.26-11.14,0-19.41-7.18-22.99-16.32-3.59-9.53-4.31-24.06-2.14-34.99h0Z"/>
  <path d="M751.02,76.08c2.33-10.92,4.11-19.37,14.01-27.09l.14-.52-37.11.15-.22.37c6.86,7.91,5.38,16.17,3.24,27.29l-9.89,49.18-44.28-76.28.14-.56h-40.18l-.18.73c8.25,11.31,7.89,16.34,5.22,31.05l-13.15,65.53c-2.14,10.93-3.91,19.17-13.97,27.08l-.17.54,37.33-.16.18-.54c-6.82-7.74-5.41-15.98-3.27-27.1l10.09-50.08h.53l27.47,48.44c7,12.76,17.04,30.34,17.74,30.34,4.14.17,19.94.17,26.77.17l19.57-98.53h-.01Z"/>
  <path d="M38.04,169.79c15.27,6.28,32.32,9.15,49.9,9.15,19.05,0,36.45-2.33,54.38-13.45,16.18-10.22,26.4-25.47,29.82-42.36,3.42-16.68-1.26-28.37-11.86-39.31-8.99-9.14-19.93-14-31.59-19.59-9.16-4.11-23.5-8.95-21.16-21.51,2.49-12.21,16.14-16.71,26.54-16.71,13.49,0,25.51,5.22,35.21,12.22l6.07-30.52c-12.72-5.21-28.34-7.71-43.24-7.71-16.34,0-33.55,3.24-48.99,12.57-14.02,8.59-24.26,22.99-27.29,37.85-11.5,58.34,71.08,51.69,64.81,83.47-2.89,14.56-19.95,18.49-31.96,18.68-19.2,0-39.49-8.46-51.9-20.3l1.26,37.53h0Z"/>
  <path d="M186.47,194.93l-11.26,28.17c-60.68-5.96-148.84,1.05-175.21,30.69l18.68-57.81c50.81-5.54,101.97-9.15,167.79-1.05h0Z"/>
  <path d="M766.29,60.12c1.6-7.18,8.78-12.7,15.77-12.56,6.98-.14,11.84,5.39,10.21,12.56-1.61,7.55-8.61,12.93-15.61,12.93s-11.87-5.38-10.38-12.93h0ZM777.03,70.9c5.93,0,11.49-4.47,12.71-10.6,1.27-6.09-2.31-10.76-8.23-10.76s-11.3,4.67-12.56,10.58c-1.26,6.31,2.33,10.78,8.07,10.78h0ZM775.07,67.66h-2.14l3.04-14.72h5.55c3.6,0,5.03,1.26,4.33,4.15-.58,2.67-2.34,3.76-4.69,4.11l2.88,6.46h-2.52l-2.52-6.46h-2.5l-1.42,6.46h0ZM779.54,59.41c1.81,0,3.6-.18,4.13-2.51.37-1.8-1.23-2.18-2.7-2.18h-3.22l-.9,4.69h2.69Z"/>
</svg>