<?xml version="1.0" encoding="UTF-8"?>
<svg id="a" data-name="Layer_1" xmlns="http://www.w3.org/2000/svg" width="295.09" height="220.81" viewBox="0 0 295.09 220.81">
  <defs>
    <style>
      .b {
        fill: #fff;
        fill-rule: evenodd;
      }
    </style>
  </defs>
  <path class="b" d="M33.46,0c.3.11.55.46.59.81-.17.25-.17.96-.31,1.26-.19.39-.54.84-.72,1.22-.44.92-.57,1.82-.99,2.75-.17.38-.83,1.52-.86,1.89.03.21.06.42.09.63-.56.45-.65,1.58-.9,2.34-.54,1.62-1.23,3.7-1.89,5.44-.19.51-.18,1.25-.36,1.85-.18.58-.46,1.14-.68,1.71-.13.78-.27,1.56-.4,2.34-.43,1.19-.66,2.58-1.04,3.96-.09.65-.18,1.29-.27,1.94-.41,1.53-.68,3.19-1.31,4.73-.21.52-.16,1.53-.31,2.07-.41,1.46-.66,3.24-1.21,4.77-.16.45.02.98-.09,1.53-.25,1.21-.33,2.63-.72,3.6-.03.07.14.95.04,1.3-.15.55-.41,1.33-.54,1.98.01.55.03,1.11.05,1.66-.08.32-.15.63-.22.94-.11.63.05,1.44-.14,2.16.01.23.03.45.04.68.02.58-.02,2.22-.13,2.34-.2.2-.35.27-.36.67.07.16,0,.33-.04.5.19.09.28.26.32.5-.14.25-.27.51-.41.76v.72c-.26.67-.73,1.38-1.12,1.98-.27.03-1.35,1.69-1.62,2.07-.41.08-.62,1.01-.94,1.35-1.4,1.45-2.47,2.97-3.6,4.59-.24.34-.25.79-.45,1.08-.42.62-.91,1.41-1.39,2.12-.3.44-.43,1.13-1.12,1.17-.13-.1-.27-.21-.41-.32-.13-.19-.4-1.27-.13-1.39-.46-.38.02-1.45,0-1.98-.02-.49.11-1,.23-1.62.14-.76-.05-1.54.13-2.39.12-.53.41-1.36.31-2.02-.05-.36.19-2.22.31-2.66.08-.29-.09-.92-.04-1.35.08-.73.26-1.9.41-2.79-.02-.39-.03-.78-.05-1.17.12-.58.27-1.11.36-1.62.06-.35-.14-.7-.04-1.03,1.03-3.76,1.59-7.66,2.56-11.25.04-.01.09-.03.13-.05-.03-.02-.06-.03-.09-.05.13-.06.07,0,.13-.13-.1-.06-.03,0-.09-.09.28-.21.27-.79.63-1.12-.09-.15.64-2.27.76-2.79.29-1.21.56-1.83.85-2.74.24-.75.12-1.47.5-2.07.54-.85,1.09-1.87,1.48-2.83.97-2.35,1.87-5.22,2.65-7.52.29-.84.25-1.51.59-2.25.08-.16.31-.38.4-.54.03-.16.06-.33.09-.49.51-1.16.94-2.56,1.53-3.64.32-.59.32-1.29.63-1.89.88-1.72,1.76-3.62,2.66-5.31.17-.32.13-.59.32-.99.31-.65.81-1.33,1.12-1.98.09-.18.14-.58.31-.81.53-.67,1.08-1.39,1.58-2.07.48-.65.99-1.55,1.67-1.98.44-.28,1.05-.21,1.53-.45Z"/>
  <path class="b" d="M276.64,27.95h.22v.09c-.03,1.06,1.12,2.85.9,3.51h.13c-.09.77.5,1.16.49,2.21h.18v.04c-.06.06-.04.03-.09.14.46.19.25.83.41,1.12.18.36.32.76.4,1.08-.03.06-.06.12-.09.18.06.01.12.03.18.04.11.2-.02.61.13.85.11.17.27.27.32.45.05.19-.06.57.04.67.05.03.09.06.13.09-.1.41.16.75.36,1.21.09.21.03.68.09.85.35,1.07.77,1.85.86,2.79.16.06.07-.03.13.13-.1.1,0,.44-.05.63.3.13.61,1.07.72,1.53.02.08-.03.62.05.76h.13c.04.05.5,1.67.54,1.93.04.25.05.86.13,1.08.18.48.46.95.32,1.4.16.09.16.07.18.31-.08.08-.05.04-.09.18.38.24.28.9.18,1.21.1.35.12.77.27,1.17.04.12-.15.42-.09.54h.13s.19.6.22.76c.04.18-.12.1-.05.18.09.1.09.06.13.23-.38.32.16.67.18,1.12.04.91.06,1.66.36,2.52-.14.05-.06-.01-.13.09.22.11.41.68.13.94.2.24.4,2.12.4,2.12.07.1.07.09.09.27-.05.02-.14-.02-.09.09h.04c.13.36.19.79.13,1.17.06-.02.12-.03.18-.05.12.95.09,1.75.27,2.7.1.5-.21,1.02-.13,1.31.19.42.34,1.17.31,1.75-.03.2-.06.39-.09.59.11.3.23.57.18.9-.03.21.05,1.06-.09,1.08.11.2.35.78.22,1.08-.09.13-.11.09-.13.32.25.16.12.87.18,1.17.2.93.34,2.19.18,3.15-.09.55.53,1.33.32,2.12-.46.32-.86.44-1.49.27-1.18-1.86-2.22-3.86-3.24-5.9-.42-.84-1.19-1.52-1.67-2.29-.22-.36-.44-.95-.77-1.35-.4-.5-1.03-.82-1.44-1.3-.38-.46-.66-.97-.99-1.49-.46-.72-1.16-1.35-1.66-2.03-.11-.28-.21-.57-.32-.85-.18-.33-.52-.8-.67-1.12v-.9c-.23-.88-.32-1.76-.22-2.92-.03-.25-.06-.51-.09-.76-.13-1.89-.04-2.85-.45-4.32-.04-.15.07-.61.09-.67-.05-.79-.09-1.59-.13-2.39.02-.21.03-.42.04-.63-.44-1.3-.36-2.7-.68-3.96-.08-.32.19-.96.14-1.3-.13-.8-.13-1.62-.32-2.3.03-.4.06-.81.09-1.21-.19-.57-.23-1.42-.45-1.89-.06-.14.07-.6,0-.9-.16-.69-.36-1.58-.54-2.21-.08-.51-.15-1.02-.23-1.53-.23-.67-.42-1.29-.31-1.93.1-.62-.33-1.09-.18-1.62-.08-.09-.15-.18-.22-.27-.15-.36-.05-.68-.13-.99-.29-1.01-.47-1.88-.81-2.74-.03-.39-.06-.78-.09-1.17-.54-1.5-.83-2.96-1.12-4.59-.35-1.96-1.09-3.73-1.62-5.49-.26-.87-.91-2.16-.54-3.06-.24-.64-.71-2.35-.63-2.79.04-.24-.31-.68-.22-.85-.36-.64-.7-1.39-.95-2.12-.07-.22-.23-.81-.18-.9-.62-1.14-1.79-3.11-1.35-4.68,2.04-1.1,3.22.68,4.01,2.07.19.34.56.69.76,1.03.45.76.62,1.53,1.04,2.34.13.24.48.5.63.76.34.6.57,1.36.81,1.89.21.46.57.99.86,1.4.39.56.28,1.12.54,1.66.2.42.47,1,.58,1.39-.06.02-.04.03-.04.04.17.31.39.69.54,1.03.13.3-.05.73.18,1.12.23.4.36.18.36.95-.11.31.54,1.1.63,1.44-.02.12-.03.24-.04.36.12.42.39.95.63,1.44.04.27.09.54.13.81.05.24.24.4.31.59.05.26.09.51.14.77.15.46.54,1.14.54,1.58-.03.03-.06.06-.09.09.06.02.12.03.18.05,0,.27.33,1.3.32,1.3-.04.07-.12.03-.05.09.24.31.29.64.32,1.12Z"/>
  <path class="b" d="M36.97,40.28c.03.47-.16.46-.27.81-.22.7-.04,1.36-.27,2.02-.12.35-.13.98-.09,1.12-.44,1.62-.7,3.37-1.35,4.86-.19.42-.11,1.04-.32,1.62-.07.2-.31.48-.36.59-.29.57-.34,1.57-.58,2.2-.56,1.44-1.51,3.26-2.16,4.72-.13.29-.1.56-.23.9-.23.62-.74,1.29-1.08,1.84-.36.87-.72,1.74-1.08,2.61-.6,1.18-1.35,2.48-1.93,3.69-.25.52-.3,1.04-.59,1.53-.29.5-.72,1.1-.94,1.62-.26.59-.45,1.16-.67,1.71-.06.24-.12.48-.18.72-.08.04-.15.09-.23.13-.18.26-.18.61-.36.86-.16.13-.33.27-.49.4-.22.36-.28,1.07-.59,1.49-.4.56-.64,1.45-1.08,2.16-.7,1.12-1.28,2.37-1.89,3.65-.37.77-.97,1.56-1.4,2.29-.38.65-.62,1.42-.9,2.02-.24.3-.48.6-.72.9-.09.27-.18.54-.27.81-.38.69-.88,1.49-1.21,2.07-.28.48-.31,1.23-.54,1.75-.33.72-.66,1.44-.99,2.16-.25.58-.14.89-.31,1.39-.48,1.38-1.11,3.04-1.62,4.46.03.04.06.09.09.13-.22.79-.41,1.74-.59,2.48v1.21c-.3,1.54-.49,3.56-.45,4.95.02.55-.24,1.17-.36,1.62-.15.58-.08,1.89.04,2.7.03.17-.07.21-.09.31-.13.69-.15,1.27-.04,1.71v.81c.24,1.32.03,2.77.23,4.19-.03.33-.06.66-.09.99.16.89.15,2.11.27,3.06.05.43-.09,1.03-.05,1.4.06.46.22.89.31,1.3-.02.36-.03.72-.04,1.08.06.29.29.7.18.99.09.23.27.59.31.9.07.49.06,1.39.23,1.8.01.27.03.54.04.81.27,1.26.07,2.81.41,3.64.35.89.23,1.74.49,2.79.14.56.48,1.06.72,1.53.17.34.3,1.05.72,1.12.01-.12.03-.24.05-.36-.05-.32-.09-.63-.14-.95-.27-1.39-.06-2.81-.04-4.32,2.43-.85,2.14-3.99,1.53-6.48-.22-.91-.21-1.89-.45-2.65-.15-.8-.3-1.59-.45-2.38-.25-.82-.52-1.92-.9-2.7-.92-1.89-2.16-3.96-2.65-5.99-.29-1.19.32-2.81.18-3.92-.21-1.68.08-2.94.5-4.46.08-.66.15-1.32.23-1.98.24-1,.69-2.33.99-3.15.27-.74.23-1.45.41-2.12.08-.29.28-.62.36-.85.09-.26-.04-.76.09-1.12.15-.3.3-.6.45-.9.62-1.78.85-3.34,1.62-4.95.32-.66.84-1.19,1.21-1.8.4-.65.76-1.91,1.76-1.93.09.06.16.08.31.09.08.1.15.21.22.32-.01,1.38-.11,2.84.14,4.05.12.62-.07,1.88.09,2.83.16.97.02,2.14.27,3.2.04.18.14,1.48.13,1.58-.02.2-.03.39-.05.59.31,1.3.32,2.38.63,3.74-.01.32-.03.63-.05.94.22,1.26.27,2.44.63,3.74.14.49.42,1.21.58,1.71.01.26.03.51.05.77.23.67.36,1.34.63,2.07.25.69.74,1.31.99,2.02.47,1.32.77,2.73,1.35,3.92.09.38.18.75.27,1.12.16.38.54.9.72,1.3.47,1.05.45,2.03.9,3.06.25.56.66.96.95,1.44.5.85.78,1.7,1.35,2.43.2.5.39.99.58,1.49.09.1.32.12.41.23.01.1.03.21.04.31.21.15.42.3.63.45.42.5.68,1.1,1.12,1.58.29.31.69.55.95.9.13.19.27.39.41.58.41.27.78.45,1.17.72.19.13.3.45.45.63.38.27.75.54,1.12.81.2.17.34.47.54.63.85.69,2.25.89,2.84,1.75.06-.03.12-.06.18-.09.13.17.21.29.5.32v.18c.62.18,1.28.65,1.89.9.8.33,1.54.42,2.29.77.28.13.5.37.72.54.11.01.21.03.31.04.72.36,1.66.8,2.38,1.17.73.37,2.48.47,2.79,1.17.08.11.09.2.09.41-.28.31-.42.8-.68,1.12-.43.55-1.19.84-1.62,1.39-.44.57-.73,1.28-1.3,1.71-.57.43-1.2.6-1.76.94-.13.12-.27.24-.4.36-.33.13-.66.27-.99.4-.21.23-.42.45-.63.68-.89.58-1.77,1.02-2.79,1.48-.44.2-.86.65-1.3.86-.76.34-1.72.41-2.48.77-.16.08-.68.22-.9.4-.22.18-.19.51-.54.58-.69-.18-1.38-.36-2.07-.54-.78-.19-1.41-.04-2.16-.22-.66-.16-1.59-.35-2.29-.5-.12.03-.24.06-.36.09-.46-.01-.93-.03-1.39-.05-1.12-.17-3.32-.01-4.63-.04-.39-.01-.46.23-.99.22-.36-.46-1.22-.75-1.62-1.26-.85-1.08-1.76-2.04-2.7-3.01-.35-.37-.51-.89-1.04-1.08-.06.1-.08.08-.13.18.08.1-.01.32.09.58.23.6.66,1.22.95,1.75.03.15.06.3.09.45.52.95,1.67,2.55,2.43,3.29.23.22.57.38.77.63.6.79,1.41,1.87,2.29,2.34.22.02.45.03.67.04.59.12,1.5.3,2.07.36.56-.09,1.11-.18,1.67-.27,1-.05,1.55-.31,2.43-.54.69-.03,1.38-.06,2.07-.09,1.32-.38,3.02-.94,4.37-1.49.79-.32,2.19-.49,2.79-.94,1.1-.84,2.65-1.43,3.87-2.12.35-.19.69-.1.99-.32,1.13-.83,2.51-1.45,3.65-2.3.24-.18,1.07-.59,1.08-.58.59-.64,1.27-1.18,1.98-1.71.07-.05.1-.21.04-.27.08-.1.21,0,.32-.09.03-.09.06-.18.09-.27.34-.47.79-.9,1.17-1.35.15-.09.3-.18.45-.27.38-.31.61-.85.95-1.21.37-.39.97-.72,1.26-1.17,1-1.53,1.99-3.11,3.11-4.54.26-.33.73-.5.99-.81.15-.18.14-.44.27-.63.73-1.09,1.58-2.19,2.47-3.02.73-.68,1.21-1.91,2.16-2.34v-.18c.52-.13.75-.71,1.12-.99.8-.6,1.85-1.23,2.34-2.25h.27c.31-.36,1.02-.44,1.49-.72.41-.25.73-.72,1.12-.95.3-.1.6-.21.9-.32.16-.08.37-.29.54-.36.27-.05.54-.09.81-.13.51-.2,1.27-.63,1.8-.81h.81c.94-.07,2.49.19,2.16,1.44-.35,1.32-2.32,2.82-3.33,3.6-.74.57-1.16,1.4-1.8,2.07-.3.32-.7.52-1.04.81-.7.61-1.24,1.41-1.84,2.12-.18.15-.36.3-.54.45-1.49,1.99-2.6,4.26-4,6.35-.42.63-1.09,1.23-1.49,1.89-.46.76-.72,1.61-1.21,2.34-.24.35-.61.68-.85,1.04-.94,1.38-1.72,2.73-2.79,4.05-.21.26-.26.61-.45.9-.5.79-1.14,1.57-1.71,2.29-.16.32-.33.63-.49.95.55.67-1.07,2.41-1.49,2.84-.34.35-.56.82-.9,1.17-.43.44-.98.81-1.4,1.26-.38.41-.62.93-.99,1.35-.25.28-.62.37-.95.59-.49.32-.95.77-1.4,1.12-.38.22-.75.45-1.12.67-1.41,1.09-3.35,1.64-5,2.47-.86.44-1.91.99-2.83,1.35-.54.21-.88.02-1.31.22-.29.2-.57.39-.85.58-.19.1-.34.02-.59.09-.36.17-.72.33-1.08.5-.97.39-2.32.39-3.33.72-.39-.01-.78-.03-1.17-.04-.33.12-.66.24-.99.36-1.03-.06-2.07-.12-3.1-.18-1.23.22-2.43-.19-3.51-.32-2.26-.27-5.04-1.4-6.89-2.38-.43-.23-1.03-.62-1.39-.95-.12-.11-.16-.32-.31-.4-.39-.22-.83-.31-1.17-.59-.41-.33-.88-.82-1.21-1.21-.11-.22-.21-.45-.32-.67-.47-.55-1.23-.83-1.66-1.44-.73-1.01-1.34-2.15-1.98-3.24-.13-.33-.27-.66-.4-.99-.86-1.42-1.9-2.9-2.52-4.54-.1-.43-.21-.87-.32-1.3-1.24-3.19-2.07-6.81-2.88-10.35-.04-.55-.09-1.11-.13-1.66-.23-1.1-.26-2.38-.63-3.51-.07-.87-.15-1.74-.22-2.61-.35-1.76-.35-4.1-.77-5.67-.12-.48.04-1.67-.04-2.03-.4-1.59-.77-3.61-.45-5.13v-1.4c0-.97.14-1.86.04-2.52-.05-.34-.11-.92-.09-1.17.07-.61.15-1.23.22-1.84-.02-.27-.03-.54-.04-.81-.07-.57.06-1.69.18-2.29-.02-.39-.03-.78-.05-1.17-.07-.47.13-1.31.22-1.76v-1.62c.05-.18.09-.36.13-.54.05-.29-.15-.79-.09-1.08.15-.71.32-1.85.54-2.61.37-1.29.84-2.58,1.21-3.82.1-.68.21-1.35.31-2.03.18-.41.46-.86.58-1.3.32-1.11.49-2.2.99-3.06.01-.02.06-.79.09-.9.14-.54.4-.9.59-1.35.17-.4.93-2.72.86-2.92.5-1.09.94-2.01,1.53-3.06.12-.22.11-.62.27-.9.15-.25.45-.47.59-.72.09-.29.18-.57.27-.86.32-.73.7-1.47.95-2.21.13-.38.51-.91.72-1.26.06-.21.12-.42.18-.63.59-.82.9-1.85,1.48-2.7.08-.04.15-.09.22-.13.29-.48.34-.99.63-1.44.29-.46.71-.9.99-1.35.2-.33.27-.93.54-1.35.27-.41.78-.81,1.04-1.21,1.58-2.49,3.11-4.84,4.77-7.2.3-.43.82-.75,1.12-1.17.38-.52.66-1.06,1.08-1.53.18-.1.36-.21.54-.31.12-.21.05-.42.18-.63.22-.37.76-.65,1.04-.99.22-.27.34-.57.54-.85.16-.22.5-.44.63-.68.02-.1.03-.21.05-.31.1-.14.31-.22.41-.36-.01-.05-.03-.09-.05-.13.29-.15.56-1.05.95-.99.15-.74.91-1.42,1.4-1.98.35-.41.32-1.11.54-1.53.23-.43.64-.78.9-1.17.62-.95.92-2.13,1.71-2.79-.06-.06-.05-.03-.09-.13.41-.28.37-.8.68-1.17.62-.75.96-1.66,1.39-2.52.23-.46.7-.95.99-1.4.27-.41.79-1.58,1.44-1.39.26.12.51.24.77.36.14-.16.51-.37.76-.41Z"/>
  <path class="b" d="M294.91,116.6v.18h-.18v.13c.07.05.15.09.22.14-.21.31-.13,2.42.09,2.65-.25.28-.49,1.53-.49,1.53.07.11.12.14.18.27-.27.68-.03,1.08-.13,1.93.21.07.3.18.36.41-.01.04-.14,1.42-.13,1.44.07.09.15.09.27.13-.34.7,0,.86-.18,1.58-.11.42-.36,1.08-.5,1.53-.07.62-.15,1.23-.22,1.84-.12.44-.24.87-.36,1.31-.07.52.1,1.19,0,1.57-.36,1.38-.58,2.76-.9,4.05.03.12.06.24.09.36-.06.33-.28.78-.4,1.12.02.18.03.36.04.54-.04.11-.24.2-.27.36-.02.1-.05,1.04-.04,1.08.01.1.03.21.04.31-.11.21-.41.7-.41.95.04.06.09.12.14.18-.09.03-.18.06-.27.09.04.15-.42,2.07-.45,2.12-.07.06-.08.05-.13.13.11.08.08.03.13.18-.11.08-.08.03-.13.18.16.23-.4,1.61-.54,1.8.15-.02.08-.07.18.04-.21.19,0,.42-.18.72-.21.34-.18.83-.4,1.08.04.1.09.21.13.31-.05.28-.3.41-.4.63.01.24.03.48.04.72-.12.24-.24.48-.36.72.02.13.03.27.04.4-.07.18-.25.61-.31.77.02.13.03.27.04.4-.05.22-.24.42-.31.59-.19.42-.06.7-.18,1.12-.05.17-.24.39-.32.58-.2.54,0,.95-.31,1.35.1.22-.24,2.78-.36,3.2-.12.22-.24.45-.36.67-.13.51-.27,1.02-.4,1.53-.31.77-.86,1.6-1.21,2.3-.8,1.58-1.67,3.26-2.74,4.68-.5.66-1.4.97-1.89,1.62-2.21,2.89-5.43,5.09-9.18,6.44-.24.16-.48.33-.72.49-.85.4-1.79.88-2.7,1.12-2.35.64-5.87.32-8.01-.4-.36-.03-.72-.06-1.08-.09-.39-.12-.76-.48-1.08-.63-.22-.1-.41-.02-.59-.13-.36-.36-.72-.72-1.08-1.08-.42-.18-.84-.36-1.26-.54-.42-.25-.84-.51-1.26-.76-1.09-.51-1.99-.97-2.93-1.62-.46-.48-.93-.96-1.39-1.44-1.28-.88-2.34-1.93-3.33-3.1-.31-.37-.92-.52-1.21-.9-1-1.29-2.03-2.55-3.06-3.83-.16-.2-.47-.34-.63-.54-.46-.59-.74-1.22-1.17-1.85-.22-.21-.45-.42-.68-.63-.38-.52-.66-1.09-1.08-1.58s-1.04-.84-1.44-1.35c-2.06-2.66-4-5.37-6.21-7.88-.15-.27-.3-.54-.45-.81-.3-.39-.72-.74-1.04-1.12-.19-.22-.23-.52-.4-.76-.69-.96-1.59-1.81-2.29-2.75-.13-.22-.27-.45-.41-.67-.72-.68-1.14-1.45-1.8-2.16-1.28-1.37-2.43-2.85-3.65-4.27-.18-.12-.36-.24-.54-.36-1.07-1.21-2.22-2.3-3.29-3.51-.56-.64-1.32-1.17-1.84-1.84-.55-.72-1.7-1.95-1.94-2.84-.27-1,.54-1.99,1.21-2.07.71-.37,2.9.57,3.46.81,2.95,1.24,4.89,3.69,7.38,5.36-.03.03-.06.06-.09.09h.04c.17.31.59.28.68.67v.23c.16.11.4.27.45.49-.1.06-.1.06-.18.13.19.4.63.67.9.99.26.31.35.71.63.99,1.41,1.43,2.72,2.93,3.96,4.54.3.3.6.6.9.9.2.26.31.58.54.81.1.1.23.05.32.18-.02.04-.03.09-.04.13.78.35,1.66,1.58,2.25,2.21.13.06.27.12.4.18.18.22.36.45.54.67,1.1.92,2.13,1.89,3.11,2.92.43.46,1.08.74,1.58,1.12.99.78,2.02,1.66,3.06,2.38.49.34,1.06.46,1.53.81.46.34.87.85,1.35,1.17,1.82,1.21,3.67,2.26,5.54,3.42.96.59,1.94,1.37,2.88,2.03.2.06.39.12.59.18.36.25.72.51,1.08.77.15.04.3.09.45.13.39.31,1.06.76,1.53.95.19.01.39.03.58.05,1.01.3,2.23.67,3.46.67.32,0,1.46.14,1.49.14.07-.08.15-.15.22-.23.33-.11.76.11,1.17-.04.55-.34,1.11-.69,1.66-1.04.51-.09,1.02-.18,1.53-.27.61-.23,1.21-.83,1.71-1.21.56-.43,1.17-.76,1.71-1.21.66-.56.98-1.39,1.48-2.12.23-.33.62-.65.81-1.04.07-.36.15-.72.22-1.08h-.27c-.11.34-1.95,1.67-2.43,1.85-.29.04-.57.09-.86.13-.68.31-1.96,1.27-2.61,1.39-.52.1-.93-.25-1.26-.31-1.45-.28-3.14-.24-4.46-.45-.4-.07-1.22.18-1.71.13-1-.09-2.8-.22-4.1.04-.53.11-1.3-.11-1.71-.04-.47.08-.84.24-1.35.23-.76-.84-2.26-.77-3.15-1.49-1.49-1.2-3.2-2.05-4.86-3.1-.01-.26-.8-.85-1.08-1.04-.49-.32-1.05-.48-1.48-.86-.97-.85-1.99-1.63-2.97-2.47-.3-.26-.94-1.07-1.3-1.17-.03.01-.06.03-.09.04v-.09c.49-.39.3-1.27.81-1.67,1.43-1.1,3.21-1.99,4.72-2.97.31-.2.82-.21,1.12-.45.02-.09.03-.18.05-.27.09-.13.54-.44.68-.5h.54c1.05-.46,2.03-1.25,2.93-1.89.44-.31,1.06-.51,1.48-.81.29-.21.5-.61.81-.81.41-.26.78-.52,1.17-.76.24-.09.48-.18.72-.27-.01-.18.28-.53.45-.67.14-.12.34-.08.45-.22v-.04c.36-.29.75-.51,1.12-.77.13-.09.37-.54.54-.67.34-.26.6-.28.86-.59.29-.36.48-.78.76-1.12l.45-.23c.23-.16.93-.88,1.08-1.12.42-.67.82-1.22,1.26-1.89.29-.44.2-.83.54-1.26.38-.47.8-1.09,1.26-1.49.32-.28.9-.64,1.12-.99.43-.67.67-1.38,1.08-2.07.23-.38.5-.87.77-1.26.09-.12.31-.16.4-.27.26-.32.29-.77.54-1.08.12-.06.24-.12.36-.18.13-.09.72-.97.77-1.12-.02-.05-.03-.09-.04-.14.17-.03.1.01.18-.09-.13-.29.16-.64.27-.85,0-.07.89-2.48,1.08-2.84.14-.26.44-.45.54-.68.13-.29.12-.79.36-1.08.07-.03.15-.06.22-.09.12-.2.33-1.12.18-1.35.3-.52.28-1.09.5-1.67.3-.81.85-2.01,1.17-2.75-.02-.1-.03-.21-.05-.31.08-.39.29-.5.18-.9.16-.56.42-1.09.63-1.53-.3-.47.37-1.85.41-2.43.04-.68.13-1.49.27-2.16-.02-.27-.03-.54-.04-.81-.03-.66.21-1.83.36-2.61.21-1.03-.38-2.21-.22-3.01.08-.04.15-.09.22-.13.37-.24.88,0,1.12.27.73.78.95,1.76,1.58,2.7.26.39.72.58.77,1.22-.04.04-.14.05-.05.09.11.1.19.09.27.23.13.38.27.75.4,1.12.36.87.96,1.81,1.21,2.79-.02.29-.03.57-.04.86.4,1.33.91,2.6,1.17,3.91-.02.25-.03.51-.04.76.2.48.4,1.26.54,1.71.09.31.05,1.06.18,1.4.16.42-.08,1.18-.13,1.44.01.29.03.57.05.86-.17.78-.12,2.32.09,3.01.08.27-.23.67-.09.85.09.12.18.24.27.36-.14.6-.51,1.18-.72,1.75-.03.2-.06.39-.09.59-.13.16-.27.33-.4.49-.22.47-.15.89-.32,1.3-.1.25-.41.45-.49.68v.54c-.1.41-.37.96-.72,1.26.03.11.06.21.09.32-.54.41-.49,1.33-.81,1.98-.09.19-.38.37-.45.54.02.2.03.39.04.58-.09.29-.39.7-.54,1.04-.21.47-.22,1.13-.36,1.53-.25.72-.73,1.76-.68,2.61.03.52-.36,1.6-.04,2.12.54.88,1.46,1.66,2.25,2.43,0,.35-.06.52-.13.86-.19.84.13,1.68.04,2.34-.11.82-.36,2.41-.09,3.11h-.13v.05h.13c.31-.26.17-.63.22-.95h.09c.49-.64.5-1.62.63-2.47.04-.26-.07-.53.04-.86.31-.88.69-1.94.99-2.92.27-.9.23-2.42.58-3.6.37-1.22.52-2.77.81-4,.1-.44-.04-.67.09-1.17,1.04-4.02,1.48-9.2.86-13.73-.02-.17.21-.36.13-.67-.19-.79-.26-1.99-.22-2.88.02-.37-.19-1.08-.27-1.44.02-.16.03-.33.04-.5-.11-.48-.13-1.62-.22-2.2-.06-.03-.12-.06-.18-.09.18-.35-.18-1.16-.27-1.49-.08-.28-.58-2.89-.54-2.97-.13-.27-.27-.54-.4-.81-.06-.27-.58-1.63-.81-1.98-.16-.25-.5-.44-.67-.67-.05-.22-.09-.45-.14-.67-.22-.39-.45-.78-.67-1.17-.27-.6-.37-1.03-.68-1.53-.01-.21-.03-.42-.04-.63-.19-.41-.51-.83-.72-1.26-.19-.39-.13-.81-.32-1.12-.07-.11-.29-.23-.36-.36-.09-.16-.26-.81-.22-.85-.14-.15-.34-.27-.4-.5.01-.09.03-.18.04-.27-.1-.17-.21-.33-.31-.5v-.4c-.07-.19-.62-.75-.4-1.04-.07-.11-.23-.09-.31-.18-.08-.32-.15-.63-.23-.95-.27-.35-.45-.39-.45-.99h-.18c-1.19-2.28-2.13-4.71-3.2-7.25-.43-1.02-1.1-1.78-1.62-2.7-.31-.55-.52-1.36-.86-2.02-.15-.18-.3-.36-.45-.54-1.13-2.36-2.06-4.65-3.15-6.79-.22-.44-.28-.87-.45-1.31-.31-.79-.86-1.52-1.21-2.29-.12-.26,0-.59-.09-.81-.13-.32-.51-.86-.63-1.12-.1-.22.03-.43-.09-.77-.14-.37-.47-.91-.67-1.26-.29-.51-.11-1.09-.22-1.48-.15-.48-.43-1.09-.59-1.62-.17-.57-.08-1.02-.27-1.62-.21-.67-1.16-3.21-.9-3.96-.13-.37-.37-.89-.22-1.26-.05-.13-.18-.23-.22-.4-.11-.45-.18-1.42-.23-1.89-.03-.31.15-.51.09-.72-.09-.12-.18-.24-.27-.36-.19-.57-.08-.95-.22-1.44v-.77c-.18-.46-.32-.78-.31-1.44.15-.12.3-.24.45-.36.67-.02,1.45.08,1.8.49.13.16.09.41.22.59.07.1.66.49.45.67.39.46.75,1.17.95,1.67.03.18.06.36.09.54.3.53.91,1.59.72,2.25.49.18.58,1.19.81,1.67.21.45.7.85.94,1.3.14.26.33.65.41.9-.02.08-.03.15-.04.23.16.26.42.27.45.72.08.01.15.03.22.04-.14.58.45,1.01.68,1.44.2.37.29.73.45.99.14.15.27.3.41.45-.02.09-.03.18-.04.27.07.17.22.11.27.41-.02.03-.03.06-.05.09.1.14.36.19.45.36.12.22,0,.41.18.59h.18c.22.15.47.66.54.95-.03.06-.06.12-.09.18.08.01.15.03.22.04.29.4.38.92.68,1.35.19.28.57.5.77.76.33.46.59,1.04.85,1.4.08.01.15.03.22.05.17.13.72.84.86,1.04.2.29.24.63.45.9.24.3.52.52.81.76.24.2.44.8.63,1.08.12.19.44.36.59.54.29.34.41.75.67,1.12.17.24.52.41.68.67.41.68.75,1.34,1.21,1.98.16.15.33.3.49.45.02.12.03.24.04.36.07.11.3.24.36.36-.02.11-.03.21-.05.32.04.06.15-.03.23.05.56.44.84,1.67,1.26,2.16.71.83,1.58,1.51,2.29,2.34.33.38.53,1.12.72,1.49v.36c.12.18.26.05.41.27.44.69.57,1.96,1.21,2.34-.06.15-.05.05-.04.22h.04c.09-.07.03-.09.13-.04.02.04.03.09.04.13-.03.01-.06.03-.09.04.31.09.21.44.36.67.12.18.38.35.5.54.11.17-.01.23.05.4.04.11.27.26.31.36-.03.06-.06.12-.09.18.07.16.28.39.36.54-.01.09-.03.18-.05.27.08.47.27.78.63.99-.03.11-.06.21-.09.32.05-.01.09-.03.13-.04.05.61.55.69.36,1.35.49.18.3.59.45.9.04.08.23.06.27.18v.76c.09.24.38.33.45.68-.11.09-.09.27-.04.36.02.05.03.09.04.13h.23c.1.24.21.48.31.72-.1.04-.07.02-.13.09.32.06.45.27.54.54-.3.29.13.62.04.86h.09c.21-.13.45.55.41.76.06.01.12.03.18.05-.06.01-.12.03-.18.04.55.39.73,2.1,1.03,2.92.38,1.01.63,2.09.99,3.42.13.49.1,1,.23,1.4.25.82.67,1.58.81,2.34-.03.08-.06.15-.09.23.02.09.23.31.27.4.01.2.03.39.04.59.17.66.46,1.46.41,2.07.04.3.09.6.13.9-.03.27-.06.54-.09.81.16.58.68,1.43.4,2.07.06.01.12.03.18.04.02.23.1.34.14.49.13.54-.1.99-.05,1.49.15.05.06-.01.14.09-.07.06-.02,0,0,.09-.06.01-.12.03-.18.04h.04s.06.03.09.04c.03-.03.06-.06.09-.09.1.72.15,1.56.31,1.98.21.55-.24,1.47-.04,1.98-.17.07-.07-.03-.13.14h.18Z"/>
  <path class="b" d="M111.81,109.8c.2.03.39.06.58.09.14.18.27.36.41.54.12.38.24,2.31.18,2.65-.04.25-.19.54-.13.95.09.62-.05,1.75-.18,2.34-.1.45.06,1.01.13,1.4.18.89.07,1.69.22,2.57.09.49.09,1.19.09,1.75-.01.2-.03.39-.04.59.11.38.12.96.09,1.48-.02.46.13.92.23,1.3.18.73,0,1.19.05,1.85.14,1.67.32,3.36.54,4.95.11.78-.1,1.6-.22,2.25-.12.6.11,1.79.27,2.52.06.29-.1.51-.13.67-.03.14.07.16.09.23.11.44-.03,1.12-.09,1.35-.18.62.19,1.38.09,1.98-.11.69-.07,1.31.09,2.03.06.28-.15,1.22-.09,1.62.11.78.02,1.86-.09,2.39.03.31.06.63.09.94-.08.89-.1,1.94-.18,2.43-.18,1.07-.11,1.55-.36,2.34-.08.24.21.41.04.49-.06.42.23.62.14,1.12-.03.27-.06.54-.09.81.03.11.15.39.09.63-.08.32-.17.68-.23.99.05.09.09.18.13.27,0,.03-.17.12-.18.14.03.13.06.27.09.4-.05.34-.34.96-.45,1.35-.1.37-.01.85-.18,1.21-.07.06-.08.05-.13.14.14.96-.36,3.36-.77,4.46-.01.33-.03.66-.04.99-.16.5-.29,1.32-.4,1.85.03.31.06.63.09.95-.21.79-.54,1.63-.77,2.43-.14.51.04,1.25-.13,1.8-.01.04-.17.57-.18.58-.06.03-.12.06-.18.09-.08.19.14.89.04,1.26-.26.96-.65,3.3-.5,4.32.01.09-.12.28-.13.32v.18c.07.22.04.87.13,1.04.07.12.26.22.32.41-.06.36-.12.72-.18,1.08-.07.36-.12,1.53-.05,1.93.35,1.83.86,3.38,1.58,5,.13-.06.08-.07.22-.04-.26.39.71,2.04.95,2.52.51,1.04,1.07,1.76,1.71,2.61.33.44.38,1.03.77,1.4.26.24.65.27.95.49.09.17.18.33.27.5.26.34.67.68.9,1.04.03.15.06.3.09.45.13.11.27.21.4.31.24.37.54.82.72,1.21.18.4.05.84.59.9.66-.57,2.12-.02,2.66.45.12.23.24.45.36.67.19.21.51.3.68.54.25.36.84,2.44.76,3.01-.19,1.4-1.02,2.41-.67,4.1.15.73-.18,1.63-.41,2.03-.08.13-.36.57-.27.67-.71.82-1.33,1.78-1.84,2.79-.23.45-.28,1.3-.67,1.71-.82.84-2.95,1.59-4.37,1.21-.61.18-1.45.48-1.98.81-.29.18-.29.73-.63.86h-.45c-.72.21-1.44.42-2.16.63-.42.04-.84.09-1.26.13-.44.1-.86.57-1.39.45-.39-.15-.78-.3-1.17-.45-.21-.13-.33-.45-.59-.54-.45-.16-1.03.41-1.35.58-.8.43-2.07.02-2.38-.67-.73-1.63-.17-1.67.59-2.79.04-.29.09-.57.13-.85.37-.65,1-1.08,1.04-2.12-1.31-1.18-1.18-3.73-1.94-5.49-.25-.6-.47-1.43-.81-2.03-.31-.43-.63-.87-.94-1.3-.24-.41-.33-.86-.54-1.3-.27-.44-.54-.87-.81-1.3-.12-.36-.24-.72-.36-1.08-.28-.48-.8-.85-1.08-1.31-.32-.52-.55-1.03-.9-1.53-1.26-1.8-2.7-3.67-4.09-5.49-.36-.46-.52-1.01-.85-1.48-.17-.24-.57-.36-.77-.58-.85-.98-1.45-2.13-2.29-3.1-.4-.46-.94-.81-1.35-1.26-.92-1.02-1.84-1.92-2.93-2.79-.39-.31-.64-.82-.99-1.17-.49-.48-1.07-.84-1.62-1.26-.32-.24-.54-.7-.9-.9-.58-.33-1.11-.6-1.62-.99-.66-.5-1.22-1.21-1.89-1.71-1.47-1.09-2.95-2.07-4.5-3.11-.72-.48-1.38-1.21-2.12-1.66-.57-.35-1.16-.52-1.8-.81-1.18-.53-2.29-1.23-3.46-1.85-.4-.21-.86-.62-1.21-.9-.26-.21-.59-.19-.9-.36-.56-.3-1.04-.95-1.53-1.35-.42-.2-.84-.39-1.26-.59-.25-.19-.51-.39-.76-.58-.59-.36-1.2-.52-1.84-.81-.24-.11-.53-.39-.77-.5-.41-.19-.68-.11-.99-.32-1.06-.71-1.9-1.24-3.33-1.57-.16-.29-.36-.43-.4-.86.04-.12.09-.24.13-.36.28-.11.62-.2.95-.27.43-.75,1.1-1.13,1.62-1.75.17-.25.33-.51.5-.76.15-.11.3-.21.45-.32.12-.31.24-.63.36-.95.55-.93,1.33-1.92,1.84-2.88.09-.29.18-.57.27-.86.2-.47.51-.94.76-1.35.44-.71,1.53-2.71,2.43-2.79.17.11.33.21.5.32.11.15.08.38.22.5.33.13.66.27.99.41.77.42,1.6.94,2.38,1.35.29.1.57.21.86.32,1.38,1.09,3,1.73,4.63,2.61.13.13.27.27.4.41.27.16.58.13.81.32.33.26.67.59,1.08.76v.09c3.52,2.26,6.84,4.69,10.26,7.07.45.31.6.98.99,1.35.44.42,1.02.68,1.48,1.08.98.86,2.07,1.62,3.02,2.52.96.92,1.94,2.55,3.2,3.24v.09c.44.36.85.95,1.39,1.17,3.67,1.51,5.58-1.58,7.11-3.64.3-.4.8-.68,1.04-1.12.21-.39.25-.78.41-1.21.16-.45.52-.93.72-1.35.51-1.05.61-2.07.99-3.29.15-.39.3-.78.45-1.17.1-.42-.17-.7-.05-1.12.5-1.7.79-3.38,1.26-5.27.11-.43.17-1.1.27-1.57-.02-.17-.03-.33-.04-.5.18-.56.11-1.3.27-1.98.15-.72.3-1.44.45-2.16-.03-.18-.06-.36-.09-.54.13-.43.27-.87.41-1.3.1-.44,0-1.08.05-1.44.08-.72.11-1.09.05-1.84.19-.08.15-.36.13-.63.01-.33.03-.66.04-.99.17-.54.07-.85.09-1.35.06-.29.12-.57.18-.86v-1.49c.2-1.01.12-2.18.27-3.1-.03-.63-.06-1.26-.09-1.89.09-.68.26-2.22,0-2.79.45-1.15.11-2.12.41-3.51.07-.34.32-1.06.23-1.48-.14-.64-.31-1.98-.13-2.75.23-1.04.05-2.54.31-3.83.02-.42.03-.84.04-1.26.34-1.18.6-2.84.99-4.32.25-.93.86-1.93,1.26-2.74.19-.38.3-.88.59-1.17.16-.16.43-.13.59-.31Z"/>
  <path class="b" d="M205.77,166.28v-.18c.38-.13.41-.41.68-.59.37-.24.81-.3,1.17-.54.2-.14.3-.45.5-.59.21-.15.54-.18.72-.36.29-.29.5-.63.86-.85.15-.04.3-.09.45-.13-.03-.03-.06-.06-.09-.09.42-.2.45-.51.77-.76.4-.32.88-.49,1.3-.81.18-.2.36-.39.54-.58.13-.05.27-.09.4-.14.11-.15.21-.3.32-.45,1.42-.91,2.95-1.85,4.27-2.74.41-.28.82-.42,1.26-.68.32-.19.63-.59.95-.81.24-.17.55-.14.63-.49.87-.11,1.59-1.03,2.25-1.44.4-.25.79-.31,1.26-.5.58-.22,1.02-.84,1.62-1.04h.45c.2-.07.42-.32.58-.4.37-.18.66-.13,1.04-.31.22-.11.45-.38.72-.45.36-.03.72-.06,1.08-.09.15-.04.3-.09.45-.13.77.13,1.96,1.78,2.39,2.38.51.73,1.42,1.09,1.98,1.76.34.4.47.94.81,1.35.85,1.02,1.87,1.92,2.65,3.01.38.53,1.97,2.43,1.44,3.29-.09.15-1.53.83-1.8.99-1.31.81-2.48,1.67-3.92,2.34-.8.38-1.65,1.04-2.38,1.49-1.32.8-2.64,1.33-3.91,2.16-.29.24-.57.48-.86.72-.42.24-.84.48-1.26.72-.2.21-.39.42-.59.63-.96.66-2.26.94-3.2,1.58-.57.39-.74.94-1.17,1.48-.48.36-.96.72-1.44,1.08-.24.24-.72,1.01-.95,1.17-1.02.72-2.04,1.43-2.97,2.25-.62.54-1.08,1.31-1.71,1.85-.41.34-.83.78-1.26,1.08-.16.07-.33.15-.49.22-.08.09-.04.24-.14.32-.21.1-.42.21-.63.32-.84.85-1.62,1.72-2.38,2.65-.24.3-.63.45-.9.72-.36.36-.42.88-.68,1.17-.06.07-.21.06-.27.13-.12.21-.24.42-.36.63-.13.1-.27.21-.41.32-.15.26-.09.51-.27.72-.72.86-1.41,1.71-2.12,2.7-.25.24-.51.48-.76.72-.26.46-.36.84-.63,1.26-.06.1-.3.17-.36.27-.19.32-.17.65-.36.94-.26.4-.7.75-.94,1.12-.25.39-.23.56-.45,1.04-.13.12-.27.24-.4.36-.34.54-.34,1.09-.67,1.57-.65.92-1.38,2-2.03,3.06-.25.41-.18.85-.36,1.21-.3.64-.62,1.31-.99,1.94-.2.27-.39.54-.59.81-.07.16-.06.52-.18.76-.4.84-.64,1.9-.86,2.79-.1.41-.38,1.17-.27,1.44-.14.05-.06-.01-.14.09.08.07.15.15.23.22-.15.26-.04.59-.09.68-.05.07-.05.04-.09.13.33.27.01.54.18.99.11.3.2.69.31.94.12.26-.05.52.09.85.15.35.61.68.86.95.1.1.33.6.27.68-.09.18.02.62.04.63.07.11.09.15.09.36.01.16-.1.42-.18.67-.5.11-.83.44-1.3.59-.56.17-1.16.12-1.67.27-.62.18-1.05-.32-1.53-.09-.54.3-.85.99-1.48,1.17-1.25.36-2.46-1.65-3.51-1.8-.1.23-.3.18-.54.27-1.35.48-1.42-.83-2.34-.63-1.06.23-1.55-.33-2.43-.76-1.91-.95-3.37-1.39-3.38-4-.6-.42-1.19-.85-1.57-1.49-.11-.33-.21-.66-.32-.99-.19-.29-.5-.56-.36-1.17.24-1.03,1.27-1.85.9-3.1-.45-1.54-2.44-2.06-2.61-3.55.21-.26.59-.57.68-.9-.22-.24-.09-1.1.09-1.4.14-.26,1.37-1.25,1.66-1.3.33-.07.54.23.95.13.5-.12,1.02-.27,1.44-.5.65-.34.82-1.32,1.17-1.84.3-.45.58-.98.9-1.67.07-.14.34-.25.4-.36-.02-.12-.03-.24-.05-.36.08-.31.45-.63.59-.9.01-.15.03-.3.04-.45.09-.21.31-.22.41-.45-.04-.04-.09-.09-.13-.13.29-.43.13-.55.31-1.04.15-.39.4-.6.58-.95.2-.36.1-.79.18-1.08.15-.56.48-1.13.67-1.62.12-.29-.17-.7,0-1.08.09-.09.18-.18.27-.27-.04-.78.4-1.76.54-2.38.04-.2-.05-.57,0-.9.29-1.73.5-3.73.09-5-.22-.69-.16-1.47-.22-1.89-.07-.45.35-.64.09-1.08-.07-.06-.08-.05-.13-.13.44-.38-.27-2.8-.23-3.55.05-.79-.29-2.64-.67-3.51-.15-.34-.47-.76-.54-1.17.02-.3.03-.6.05-.9-.14-.6-.11-1.46-.23-2.07-.11-.57-.71-1.74-.63-2.47.11-1.04-.35-2.72-.77-4.05-.1-.31.02-.62-.04-.81-.11-.33-.29-1.07-.4-1.35-.03-.67-.06-1.35-.09-2.02-.26-.81-.29-1.72-.5-2.7.03-.3.06-.6.09-.9-.13-.49-.37-1.17-.49-1.71-.02-.51-.03-1.02-.04-1.53-.07-.18-.15-.36-.23-.54.02-.24.03-.48.05-.72-.11-.64-.12-1.1-.23-1.93-.22-1.76-.12-4,.18-6.17-.04-.27-.09-.54-.13-.81-.06-.3.08-.8.13-1.03.12-.5-.06-1.21-.09-1.58-.05-.73.13-1.45.27-2.02v-.99c.15-.76.26-1.41.45-2.16.12-.47.21-2.15.09-2.39.02-.05.17-.26.18-.32-.03-.25-.06-.51-.09-.76.13-.91.17-1.84.22-2.66-.01-.52-.03-1.05-.04-1.57.11-.71.31-1.34.5-1.89-.03-.57-.06-1.14-.09-1.71.07-.43-.08-1.04-.04-1.49.06-.75.23-1.86.45-2.65-.02-.38-.03-.75-.04-1.12-.19-.95-.06-1.67.13-2.38.33-.12.55-.23,1.08-.23.21.27.56.26.86.45.49.31.98.97,1.26,1.49.81,1.46,1.5,5.63,1.3,7.42-.06.58.15,1.41.04,2.12.02.48.03.96.04,1.44-.14,1.08-.03,1.9-.22,2.97-.08.44.1,1.04.04,1.26-.06.24.33,2.07.41,2.34v1.12c.07.32-.05.95.04,1.44.12.58.25,1.27.18,1.76-.08.61.19,1.43.31,1.93.05.63.09,1.26.13,1.89.08.44.16,1.08.31,1.62.03.58.06,1.17.09,1.75.22.8.38,2.35.23,3.15-.05.23.09.53.13.67.06.22.21,1.24.13,1.4.21.51.5,1.37.72,1.98.17.49-.02,1.04.05,1.31.24,1.02.65,3.86.4,4.63.06.01.12.03.18.05.05.9.58,1.7.36,2.34.24.15.27.83.41,1.35.21.79.19,1.19.49,1.98-.09.07-.24.08-.09.13.2.28.54.71.63,1.12-.02.12-.03.24-.04.36.04.03.09.06.13.09-.08.21-.11.15-.09.41.18.02.14-.01.22.09.42,1.04.75,2.45,1.08,3.42.18.53.24,1.23.67,1.62-.03.04-.14.05-.04.09.41.33.51.72.81,1.17.21.32.66.56.86.9.06.1-.05.29.09.41.09.01.18.03.27.04.12.09.45.42.54.54-.02.06-.03.12-.04.18.09.02.18.03.27.05.04.1.09.21.13.32.12.1.26.06.36.18v.09c.19.14.43.19.58.36.55-.13,1.09-.06,1.71-.22,1.17-.31,2.35-1.1,3.29-1.71.38-.25.82-.27,1.21-.5.15-.09.4-.47.63-.63.63-.44,1.28-.77,1.85-1.26.32-.28.82-.89,1.3-.95Z"/>
</svg>