<?xml version="1.0" encoding="UTF-8" standalone="no"?>
<svg
   xmlns:dc="http://purl.org/dc/elements/1.1/"
   xmlns:cc="http://creativecommons.org/ns#"
   xmlns:rdf="http://www.w3.org/1999/02/22-rdf-syntax-ns#"
   xmlns:svg="http://www.w3.org/2000/svg"
   xmlns="http://www.w3.org/2000/svg"
   xmlns:sodipodi="http://sodipodi.sourceforge.net/DTD/sodipodi-0.dtd"
   xmlns:inkscape="http://www.inkscape.org/namespaces/inkscape"
   width="250.55923"
   height="72.580139"
   viewBox="0 0 66.293796 19.203499"
   version="1.1"
   id="svg16"
   inkscape:version="1.0.1 (c497b03c, 2020-09-10)"
   sodipodi:docname="titleist.svg">
  <defs
     id="defs10" />
  <sodipodi:namedview
     id="base"
     pagecolor="#00ffff"
     bordercolor="#666666"
     borderopacity="1.0"
     inkscape:pageopacity="0"
     inkscape:pageshadow="2"
     inkscape:zoom="1.0990761"
     inkscape:cx="167.33457"
     inkscape:cy="86.455563"
     inkscape:document-units="px"
     inkscape:current-layer="layer1"
     inkscape:document-rotation="0"
     showgrid="false"
     units="px"
     lock-margins="true"
     fit-margin-top="0.5"
     fit-margin-left="0.5"
     fit-margin-right="0.5"
     fit-margin-bottom="0.5"
     inkscape:window-width="1440"
     inkscape:window-height="872"
     inkscape:window-x="0"
     inkscape:window-y="28"
     inkscape:window-maximized="0" />
  <metadata
     id="metadata13">
    <rdf:RDF>
      <cc:Work
         rdf:about="">
        <dc:format>image/svg+xml</dc:format>
        <dc:type
           rdf:resource="http://purl.org/dc/dcmitype/StillImage" />
        <dc:title></dc:title>
      </cc:Work>
    </rdf:RDF>
  </metadata>
  <g
     inkscape:label="Layer 1"
     inkscape:groupmode="layer"
     id="layer1"
     transform="translate(43.469134,-12.219753)">
    <g
       id="g48541"
       transform="matrix(0.10263987,0,0,0.10263987,-34.140972,-27.51227)">
	<path
   d="m 548.9,453.5 c 1.2,1.2 1.8,2.7 1.8,4.4 0,1.8 -0.6,3.2 -1.8,4.5 -1.2,1.2 -2.7,1.9 -4.4,1.9 -1.7,0 -3.2,-0.6 -4.4,-1.9 -1.2,-1.2 -1.8,-2.7 -1.8,-4.5 0,-1.7 0.6,-3.2 1.8,-4.4 1.2,-1.2 2.7,-1.9 4.4,-1.9 1.6,0.1 3.1,0.7 4.4,1.9 z m 0.7,-0.7 c -1.4,-1.4 -3.1,-2.1 -5.2,-2.1 -2,0 -3.7,0.7 -5.1,2.1 -1.4,1.4 -2.1,3.1 -2.1,5.2 0,2 0.7,3.8 2.1,5.2 1.4,1.4 3.1,2.1 5.2,2.1 2,0 3.7,-0.7 5.2,-2.1 1.4,-1.4 2.1,-3.2 2.1,-5.2 -0.1,-2.1 -0.8,-3.8 -2.2,-5.2 z m -4.1,4.8 c -0.3,0.1 -0.7,0.2 -1.3,0.2 h -1.3 v -2.9 h 1.2 c 0.8,0 1.3,0.1 1.7,0.3 0.4,0.2 0.5,0.6 0.5,1.2 0,0.6 -0.3,1 -0.8,1.2 z m -4,4.3 h 1.4 v -3.1 h 1.1 c 0.7,0 1.3,0.1 1.6,0.3 0.5,0.3 0.8,0.9 0.8,1.8 v 0.6 0.3 0.1 0.1 h 1.3 l -0.1,-0.1 c 0,-0.1 -0.1,-0.2 -0.1,-0.4 0,-0.2 0,-0.4 0,-0.6 v -0.6 c 0,-0.4 -0.1,-0.8 -0.4,-1.2 -0.3,-0.4 -0.8,-0.7 -1.4,-0.8 0.5,-0.1 0.9,-0.2 1.2,-0.4 0.5,-0.3 0.8,-0.9 0.8,-1.6 0,-1 -0.4,-1.7 -1.2,-2 -0.5,-0.2 -1.2,-0.3 -2.2,-0.3 h -2.8 z"
   id="path48521" />

	<path
   d="m 198.5,390.5 c 1.8,3.4 3.5,7.2 2.1,11.3 -9.4,17.3 -30.4,18 -48.8,19.1 l -23.7,-0.2 -88.9,-3.4 c -19.6,-1.2 -38.2,1.4 -53.4,10.6 -4.2,3.4 -8.7,7.2 -8.7,12.7 1.6,4.1 6.4,4.4 10.4,4.6 9.9,0.4 18.2,-3 26.7,-5.8 2.7,-0.5 5.7,-0.4 8,1.1 2.5,1.6 2.8,4.4 3,7.1 0.4,2.7 -0.7,4.6 -2.3,6.4 -11.7,8.8 -27,9.7 -42.2,9 -11.3,-0.4 -20.1,-6.7 -23.9,-16.8 -3.2,-14.8 7.6,-25.1 17.1,-32.7 38.4,-22.8 90.7,-12 135.9,-11.1 21,0.4 42.9,1.1 62.9,-2.5 7.6,-1.4 13.6,-6.2 19.1,-11 2.6,-1.4 5.1,0.4 6.7,1.6 z"
   id="path48523" />

	<path
   d="m 75.8,438.1 -0.2,3.7 -20.6,30 -35.9,50.9 c -15.6,20.1 -31.5,47.7 -59.7,49.7 -17.1,2.5 -33.8,-4.4 -42.8,-16.8 -2.8,-5.1 -7.6,-11 -5.8,-17.9 2.3,-2.8 6.4,-4.2 10.3,-4.4 8.1,0.9 8.3,11.3 14.1,14.7 7.1,6.7 19.8,8.7 29.2,4.4 9.7,-4.2 16.3,-11.1 22.6,-18.7 l 58.1,-81.5 c 6.2,-6.5 8.7,-18.4 19.8,-19.1 4.1,0.7 9.2,0.7 10.9,5 z"
   id="path48525" />

	<g
   id="g48531">
		<circle
   cx="116"
   cy="464.29999"
   r="11"
   id="circle48527" />

		<path
   d="M 116,464.3"
   id="path48529" />

	</g>

	<g
   id="g48537">
		<circle
   cx="383.5"
   cy="452"
   r="11"
   id="circle48533" />

		<path
   d="M 383.5,452"
   id="path48535" />

	</g>

	<path
   d="m 552.7,475.2 c -0.9,-1.9 -3.2,-2.3 -5.1,-2.7 l -33,-0.2 -0.7,-0.7 c 1.4,-2.8 2.8,-5.8 3.5,-8.8 -0.5,-5.8 -5.1,-9.7 -10.3,-11.5 -2.3,-0.4 -4.8,0.4 -6.2,1.9 -3.2,6.2 -5.7,12.5 -9.4,18.7 -7.2,0.9 -17.1,-2.5 -21.4,4.1 -1.8,3.2 -2.3,7.6 -0.9,11 2.1,5 8.5,2.7 12.7,3.7 -0.7,1.9 -1.6,4.2 -3,6.4 -6.9,10.8 -13.4,24.9 -27.6,27.9 1.4,-17.3 -5.8,-32.2 -13.1,-46.5 -2.5,-4.6 -2.1,-10.6 -6.4,-14.1 -2.5,-1.4 -6.2,-1.4 -9,-0.7 -2.3,0.9 -3.4,2.7 -4.2,4.8 -5.1,20.3 -15.7,38.7 -29.2,53.6 -4.2,4.8 -11.3,9.2 -18.4,6.7 -3.5,-1.6 -4.4,-6 -4.1,-9.9 3.2,-12.7 8.5,-24.7 13.3,-36.9 0.9,-2.5 1.9,-5.3 0.9,-8 -1.9,-3 -5.7,-3.7 -9.4,-3.5 -4.2,0 -7.8,1.9 -9.9,5.3 -5.5,14.3 -10.6,29.5 -16.6,43.3 -4.1,5.7 -11,9 -17.5,11.3 -5.8,1.2 -12.4,0.4 -16.3,-3.5 5.7,-4.2 10.4,-8.7 15.2,-14.3 8,-9.5 11.7,-23.2 6.7,-35.2 -2.8,-5.8 -9,-10.3 -15.7,-10.4 -14.3,-0.2 -24.4,9.9 -30.6,20.5 -4.9,10.1 -6.7,23 -4.6,34.6 -3.9,3 -7.2,6 -11.8,7.8 -8.7,3.7 -20.3,2.1 -27.9,-2.5 -3.7,-2.5 -6.9,-5.5 -8,-9.9 17,-13.3 30.4,-27.2 41.9,-45.8 7.8,-14.7 17.1,-34.6 6,-50.5 -2.5,-3.2 -6,-5.3 -9.9,-6.4 -10.6,-2.1 -20.1,2.1 -27.2,8.5 -22.6,21.9 -37.8,52 -33.9,86.8 -11.8,8.8 -24.2,17.5 -39.2,22.4 -7.4,1.4 -16.1,0.7 -21,-5.7 -2.3,-3.9 -1.1,-8.8 0.7,-12.7 l 20.1,-33.6 c 7.6,-0.9 16.4,0.5 23.7,-1.4 4.4,-2.1 7.4,-7.4 7.1,-12.7 -0.4,-1.4 -1.2,-2.7 -2.7,-3.2 -5.7,-0.4 -12.2,0.2 -18,-0.4 1.1,-3.2 4.1,-5.8 3.7,-9.5 -1.2,-3.7 -5.3,-5 -8.8,-5.1 -11.3,-2.5 -11.1,10.1 -16.4,15 -5.5,0.5 -11.7,-0.4 -16.6,1.4 -4.2,2.8 -6.4,6.7 -6.2,12 0.4,6 7.8,3 11.8,4.2 l -0.2,0.7 c -14.3,19.1 -21,44.5 -48.1,50.4 -3.9,0.9 -8.3,0.4 -10.6,-3.2 -1.1,-2.5 -1.2,-6 -0.5,-8.7 3.9,-12 14.1,-21.4 18.4,-33.2 v -1.6 c -0.5,-3.2 -3.9,-4.8 -6.5,-5.5 -3.9,-1.1 -8.1,-0.5 -10.8,2.7 -5.5,7.4 -10.4,15.9 -15.9,23.2 -9.4,13.6 -22.8,21.4 -37.3,27.4 -3.4,1.9 -8,1.2 -10.4,4.8 -0.5,1.2 -1.1,3 -0.4,4.4 3.4,3.7 7.2,9.9 13.8,8.8 11.8,-2.8 20.7,-10.2 30.9,-15.7 1.6,4.2 4.6,9.5 8.7,12 14.1,6.4 33.4,3.7 45.4,-5.1 3,-1.8 5.3,-4.6 8.3,-6 1.4,2.8 4.1,5.5 6.7,8 12.5,11.5 33.9,7.6 48.1,1.6 10.6,-4.1 19.8,-11.3 29.2,-16.6 1.2,1.8 2.7,3.5 3.9,5.5 9.9,13.4 28.5,19.3 46,14.5 8.8,-2.1 16.1,-7.1 24.2,-11.1 4.8,4.4 10.8,7.8 17.1,9.9 15.2,5.5 32.3,0.5 43.3,-9.2 3.5,3.4 7.2,6.5 11.8,8.7 13.6,6 26.3,-2.7 36.4,-10.2 5.1,4.8 9.4,10.1 16.3,12.2 7.4,2.5 17.5,2.1 23,-3.9 11.5,0.7 21.4,-2.8 29.9,-8.7 4.8,6.4 11,10.8 18.4,12.9 12.5,3.5 26.2,0.7 35.7,-7.4 4.2,-3.2 6.7,-8.1 5.1,-13.6 -0.4,-2.1 -2.3,-3.9 -4.1,-5 -1.9,-0.5 -4.2,-0.7 -5.8,0.2 -5.1,4.2 -11.1,8.1 -18.2,8.5 -4.8,0.7 -9.7,-0.5 -12.2,-4.4 -1.8,-3 -1.4,-7.2 -0.4,-10.4 3.9,-9.4 9.2,-17.7 14.5,-26.3 14.8,-0.2 28.6,-0.4 43.3,-1.1 2.8,-0.7 5.3,-3.2 6.2,-5.8 0.7,-3.1 1.3,-6.7 -0.3,-9.3 z M 250.8,445 c 4.1,-4.9 8.7,-9.7 15.4,-11.1 1.6,-0.2 2.5,1.2 3,2.3 1.4,9.9 -4.4,17.5 -8.5,24.9 -8.1,12 -17.8,24.7 -29.7,35.2 -0.2,-20 8.9,-36.7 19.8,-51.3 z m 51.3,68.9 c -3.9,-9.4 1.2,-18.9 6.5,-26 1.9,-1.8 7.1,-5.8 8,-0.9 1.4,11.7 -6.2,21.2 -14.5,26.9 z m 128.6,12.7 c -0.7,1.4 -2.1,2.7 -3.5,3.2 -5.5,1.6 -9.5,-3.2 -12.4,-6.4 l 0.2,-1.2 10.4,-20.3 c 4.3,6.7 8,15.9 5.3,24.7 z"
   id="path48539" />

</g>
  </g>
</svg>
