<?xml version="1.0" encoding="UTF-8"?>
<svg id="a" data-name="Layer_1" xmlns="http://www.w3.org/2000/svg" width="94.66" height="94.74" viewBox="0 0 94.66 94.74">
  <defs>
    <style>
      .b {
        fill: #134722;
      }

      .c {
        fill: #bed0b9;
      }
    </style>
  </defs>
  <path class="b" d="M23.81,23.81c-7.94-.02-15.87-.04-23.81-.06V0h23.75c.02,7.94.04,15.88.06,23.81Z"/>
  <path class="b" d="M47.58,23.75c-.03-7.92-.05-15.84-.08-23.75h23.75c-.03,7.92-.05,15.84-.08,23.75,0,0,.08-.07.08-.07-7.92,0-15.84,0-23.75,0l.08.07Z"/>
  <path class="b" d="M71.26,71.19h-23.68c0-8.03,0-15.86,0-23.69,0,0-.08.07-.08.07h23.75s-.08-.07-.08-.07c0,7.92,0,15.84.01,23.76l.07-.07Z"/>
  <g>
    <path class="c" d="M23.72,23.72c7.95,0,15.9.02,23.86.03,0,0-.08-.07-.08-.07v23.89l.08-.07h-23.86v-23.78Z"/>
    <path class="c" d="M71.18,23.75h23.44v23.75c-7.83,0-15.64,0-23.45,0,0,0,.08.07.08.07v-23.89l-.08.07Z"/>
    <path class="c" d="M71.19,71.26h23.47v23.48h-23.4c0-7.89,0-15.72,0-23.55,0,0-.07.07-.07.07Z"/>
  </g>
</svg>